<svg xmlns="http://www.w3.org/2000/svg" viewBox="0 0 1200 1100" width="1200" height="1100" font-family="Arial, Helvetica, sans-serif">
  <style>
    .outline { fill: none; stroke: #000; stroke-width: 1.5; }
    .hidden  { fill: none; stroke: #000; stroke-width: 0.8; stroke-dasharray: 6,3; }
    .center  { fill: none; stroke: #000; stroke-width: 0.4; stroke-dasharray: 12,3,2,3; }
    .dim     { fill: none; stroke: #333; stroke-width: 0.6; marker-end: url(#arrow); marker-start: url(#arrow); }
    .ext     { fill: none; stroke: #333; stroke-width: 0.4; }
    .label   { font-size: 10px; fill: #333; text-anchor: middle; }
    .note    { font-size: 9px; fill: #555; }
    .title   { font-size: 14px; font-weight: bold; fill: #000; text-anchor: middle; }
    .viewlbl { font-size: 12px; font-weight: bold; fill: #000; text-anchor: middle; }
    .fill-light { fill: #f0f0f0; stroke: none; }
    .fill-recess { fill: #e0e0e0; stroke: none; }
  </style>

  <defs>
    <marker id="arrow" viewBox="0 0 10 10" refX="10" refY="5"
            markerWidth="6" markerHeight="6" orient="auto-start-reverse">
      <path d="M 0 0 L 10 5 L 0 10 z" fill="#333"/>
    </marker>
  </defs>

  <!-- ============================================================ -->
  <!-- TITLE BLOCK                                                   -->
  <!-- ============================================================ -->
  <text x="600" y="28" class="title">Enclosure Back Panel — Engineering Drawing</text>
  <text x="600" y="44" class="note" text-anchor="middle">Material: ABS or ASA (3D printed) | Envelope: 220W x 4D x 400H mm | Scale noted per view</text>
  <line x1="30" y1="52" x2="1170" y2="52" stroke="#000" stroke-width="1"/>

  <!-- ============================================================ -->
  <!-- REAR VIEW — Looking along +Y (exterior face, viewed from rear) -->
  <!-- Horizontal axis = X (width 0-220), Vertical axis = Z (height 0-400) -->
  <!-- Scale 2:1 => 220mm = 440px, 400mm = 800px                  -->
  <!-- Panel bottom-left at SVG (60, 880), top-left at (60, 80)    -->
  <!-- px_x = 60 + Xmm * 2                                        -->
  <!-- px_y = 880 - Zmm * 2                                        -->
  <!-- ============================================================ -->
  <text x="280" y="72" class="viewlbl">REAR VIEW</text>
  <text x="280" y="84" class="note" text-anchor="middle">Looking along +Y (exterior face) | Scale 2:1</text>

  <!-- Panel body -->
  <rect x="60" y="80" width="440" height="800" class="fill-light"/>
  <rect x="60" y="80" width="440" height="800" class="outline"/>

  <!-- Panel vertical centerline X=110mm => px 60+110*2=280 -->
  <line x1="280" y1="70" x2="280" y2="890" class="center"/>

  <!-- ============================================================ -->
  <!-- LOWER ZONE: Water fittings (Z=50, 15.9mm holes)            -->
  <!-- ============================================================ -->

  <!--
    Tap water inlet: X=30, Z=50, 15.9mm hole => r=7.95mm => 15.9px at 2:1
    px: (60+30*2, 880-50*2) = (120, 780)
  -->
  <circle cx="120" cy="780" r="15.9" class="outline"/>
  <line x1="120" y1="760" x2="120" y2="800" class="center"/>
  <line x1="100" y1="780" x2="140" y2="780" class="center"/>
  <text x="120" y="812" class="label">TAP IN</text>
  <text x="120" y="822" class="note" text-anchor="middle">15.9mm</text>

  <!--
    Soda water inlet: X=80, Z=50
    px: (60+80*2, 880-50*2) = (220, 780)
  -->
  <circle cx="220" cy="780" r="15.9" class="outline"/>
  <line x1="220" y1="760" x2="220" y2="800" class="center"/>
  <line x1="200" y1="780" x2="240" y2="780" class="center"/>
  <text x="220" y="812" class="label">SODA IN</text>
  <text x="220" y="822" class="note" text-anchor="middle">15.9mm</text>

  <!--
    Soda water outlet: X=130, Z=50
    px: (60+130*2, 880-50*2) = (320, 780)
  -->
  <circle cx="320" cy="780" r="15.9" class="outline"/>
  <line x1="320" y1="760" x2="320" y2="800" class="center"/>
  <line x1="300" y1="780" x2="340" y2="780" class="center"/>
  <text x="320" y="812" class="label">SODA OUT</text>
  <text x="320" y="822" class="note" text-anchor="middle">15.9mm</text>

  <!-- ============================================================ -->
  <!-- MID ZONE: Flavor line exits (Z=200, 12.5mm holes, PG7)     -->
  <!-- ============================================================ -->

  <!--
    Flavor line 1: X=50, Z=200
    px: (60+50*2, 880-200*2) = (160, 480)
    12.5mm hole => r=6.25mm => 12.5px at 2:1
  -->
  <circle cx="160" cy="480" r="12.5" class="outline"/>
  <line x1="160" y1="464" x2="160" y2="496" class="center"/>
  <line x1="144" y1="480" x2="176" y2="480" class="center"/>
  <text x="160" y="502" class="label">FLAVOR 1</text>
  <text x="160" y="512" class="note" text-anchor="middle">PG7 12.5mm</text>

  <!--
    Flavor line 2: X=170, Z=200
    px: (60+170*2, 880-200*2) = (400, 480)
  -->
  <circle cx="400" cy="480" r="12.5" class="outline"/>
  <line x1="400" y1="464" x2="400" y2="496" class="center"/>
  <line x1="384" y1="480" x2="416" y2="480" class="center"/>
  <text x="400" y="502" class="label">FLAVOR 2</text>
  <text x="400" y="512" class="note" text-anchor="middle">PG7 12.5mm</text>

  <!-- ============================================================ -->
  <!-- UPPER ZONE: IEC C14 power inlet (X=165, Z=370)              -->
  <!-- Cutout 27.4W x 19.8H, mounting holes at 40mm h c-t-c       -->
  <!-- Center: px (60+165*2, 880-370*2) = (390, 140)              -->
  <!-- Cutout: 27.4*2=54.8px W, 19.8*2=39.6px H                  -->
  <!-- Top-left: (390-27.4, 140-19.8) = (362.6, 120.2)           -->
  <!-- ============================================================ -->

  <rect x="362.6" y="120.2" width="54.8" height="39.6" class="outline"/>
  <text x="390" y="170" class="label">IEC C14</text>
  <text x="390" y="180" class="note" text-anchor="middle">27.4 x 19.8mm</text>

  <!-- M3 mounting holes: 40mm c-t-c horizontal => 20mm each side of center -->
  <!-- Left hole: X=165-20=145 => px 60+145*2=350, Z=370 => py 140 -->
  <!-- Right hole: X=165+20=185 => px 60+185*2=430, Z=370 => py 140 -->
  <circle cx="350" cy="140" r="3" class="outline"/>
  <circle cx="430" cy="140" r="3" class="outline"/>

  <!-- ============================================================ -->
  <!-- VENTILATION: Horizontal slots in upper-left zone             -->
  <!-- 5 slots, each 60mm long x 3mm wide, spaced 6mm c-t-c       -->
  <!-- Z=320 to Z=344, X=30 to X=90                               -->
  <!-- Z=320 => py=880-320*2=240, Z=344 => py=880-344*2=192       -->
  <!-- X=30 => px=120, X=90 => px=240 (60mm*2=120px wide)         -->
  <!-- 3mm high => 6px, 6mm c-t-c => 12px spacing                 -->
  <!-- ============================================================ -->
  <rect x="120" y="234" width="120" height="6" rx="3" class="outline"/>
  <rect x="120" y="222" width="120" height="6" rx="3" class="outline"/>
  <rect x="120" y="210" width="120" height="6" rx="3" class="outline"/>
  <rect x="120" y="198" width="120" height="6" rx="3" class="outline"/>
  <rect x="120" y="186" width="120" height="6" rx="3" class="outline"/>
  <text x="180" y="254" class="note" text-anchor="middle">Vent slots (5x)</text>
  <text x="180" y="264" class="note" text-anchor="middle">60 x 3mm ea.</text>

  <!-- ============================================================ -->
  <!-- REAR VIEW DIMENSIONS                                         -->
  <!-- ============================================================ -->

  <!-- Overall width: 220mm -->
  <line x1="60" y1="896" x2="60" y2="906" class="ext"/>
  <line x1="500" y1="896" x2="500" y2="906" class="ext"/>
  <line x1="60" y1="902" x2="500" y2="902" class="dim"/>
  <text x="280" y="916" class="label">220</text>

  <!-- Overall height: 400mm (right side) -->
  <line x1="516" y1="80" x2="526" y2="80" class="ext"/>
  <line x1="516" y1="880" x2="526" y2="880" class="ext"/>
  <line x1="522" y1="80" x2="522" y2="880" class="dim"/>
  <text x="542" y="484" class="label" transform="rotate(-90,542,484)">400</text>

  <!-- Water fitting Z height from bottom: 50mm -->
  <line x1="40" y1="880" x2="50" y2="880" class="ext"/>
  <line x1="40" y1="780" x2="50" y2="780" class="ext"/>
  <line x1="46" y1="780" x2="46" y2="880" class="dim"/>
  <text x="32" y="834" class="label" transform="rotate(-90,32,834)">50</text>

  <!-- Flavor line Z height from water fittings: 150mm (Z=50 to Z=200) -->
  <line x1="40" y1="480" x2="50" y2="480" class="ext"/>
  <line x1="46" y1="480" x2="46" y2="780" class="dim"/>
  <text x="32" y="634" class="label" transform="rotate(-90,32,634)">150</text>

  <!-- IEC C14 Z height from flavor zone: 170mm (Z=200 to Z=370) -->
  <line x1="40" y1="140" x2="50" y2="140" class="ext"/>
  <line x1="46" y1="140" x2="46" y2="480" class="dim"/>
  <text x="32" y="314" class="label" transform="rotate(-90,32,314)">170</text>

  <!-- Tap water X: 30mm from left edge -->
  <line x1="60" y1="836" x2="60" y2="846" class="ext"/>
  <line x1="120" y1="836" x2="120" y2="846" class="ext"/>
  <line x1="60" y1="842" x2="120" y2="842" class="dim"/>
  <text x="90" y="854" class="label">30</text>

  <!-- Soda in X: 50mm spacing from tap -->
  <line x1="220" y1="836" x2="220" y2="846" class="ext"/>
  <line x1="120" y1="842" x2="220" y2="842" class="dim"/>
  <text x="170" y="854" class="label">50</text>

  <!-- Soda out X: 50mm spacing from soda in -->
  <line x1="320" y1="836" x2="320" y2="846" class="ext"/>
  <line x1="220" y1="842" x2="320" y2="842" class="dim"/>
  <text x="270" y="854" class="label">50</text>

  <!-- Flavor 1 X: 50mm from left -->
  <line x1="160" y1="524" x2="160" y2="534" class="ext"/>
  <line x1="60" y1="530" x2="160" y2="530" class="dim"/>
  <text x="110" y="544" class="label">50</text>

  <!-- Flavor 1 to Flavor 2: 120mm -->
  <line x1="400" y1="524" x2="400" y2="534" class="ext"/>
  <line x1="160" y1="530" x2="400" y2="530" class="dim"/>
  <text x="280" y="544" class="label">120</text>

  <!-- IEC C14 center X: 165mm from left -->
  <line x1="390" y1="186" x2="390" y2="196" class="ext"/>
  <line x1="60" y1="192" x2="390" y2="192" class="dim"/>
  <text x="225" y="204" class="label">165</text>

  <!-- M3 holes pitch: 40mm -->
  <line x1="350" y1="108" x2="350" y2="114" class="ext"/>
  <line x1="430" y1="108" x2="430" y2="114" class="ext"/>
  <line x1="350" y1="111" x2="430" y2="111" class="dim"/>
  <text x="390" y="106" class="label">40 c-t-c</text>

  <!-- ============================================================ -->
  <!-- SIDE VIEW — Looking along -X (right side)                   -->
  <!-- Horizontal axis = Y (depth), Vertical axis = Z (height)    -->
  <!-- Panel is only 4mm deep; use Y-scale 5:1, Z-scale 2:1      -->
  <!-- Fittings protrude beyond panel; show at Y-scale 1.5:1      -->
  <!-- Interior face (Y=0) at px_x=640                            -->
  <!-- Exterior face (Y=4) at px_x=640+4*5=660                    -->
  <!-- px_y = 880 - Zmm * 2 (same Z mapping as rear view)         -->
  <!-- For fitting protrusions: interior extends left of 640       -->
  <!--   px = 640 - depth_mm * 1.5                                 -->
  <!--   exterior extends right of 660: px = 660 + depth_mm * 1.5 -->
  <!-- ============================================================ -->
  <text x="680" y="72" class="viewlbl">SIDE VIEW (RIGHT)</text>
  <text x="680" y="84" class="note" text-anchor="middle">Looking along -X | Panel 5:1, fittings 1.5:1</text>

  <!-- Panel body: 4mm thick x 400mm tall -->
  <rect x="640" y="80" width="20" height="800" class="fill-light"/>
  <rect x="640" y="80" width="20" height="800" class="outline"/>

  <!-- Water fitting at Z=50 (representative, all three overlap in side view) -->
  <!-- JG bulkhead: ~25mm OD body, 30mm interior protrusion, 25mm exterior (body+elbow) -->
  <!-- Z=50 => py=780. Body height ~25mm OD => 50px at 2:1 Z-scale, centered on Z=50 -->
  <!-- Interior protrusion: 30mm * 1.5 = 45px left of interior face -->
  <!-- Exterior protrusion: 25mm * 1.5 = 37.5px right of exterior face -->
  <rect x="595" y="755" width="45" height="50" class="hidden"/>
  <rect x="660" y="755" width="38" height="50" class="hidden"/>

  <!-- PG7 cable gland at Z=200 (flavor lines) -->
  <!-- ~20mm OD body, 15mm interior, 10mm exterior protrusion -->
  <!-- Z=200 => py=480. Body 20mm => 40px at 2:1 -->
  <rect x="618" y="460" width="22" height="40" class="hidden"/>
  <rect x="660" y="460" width="15" height="40" class="hidden"/>

  <!-- IEC C14 at Z=370 (power inlet) -->
  <!-- 25mm interior depth, flush-mount exterior with screw heads ~3mm -->
  <!-- Z=370 => py=140. Height 19.8mm => 39.6px -->
  <rect x="602" y="120" width="38" height="40" class="hidden"/>
  <rect x="660" y="128" width="5" height="24" class="hidden"/>

  <!-- Vent slots at Z=320-344 (through-panel, 4mm deep) -->
  <!-- In side view, 4mm deep through panel => full panel width -->
  <!-- Show as dashed lines through panel cross-section -->
  <line x1="640" y1="234" x2="660" y2="234" class="hidden"/>
  <line x1="640" y1="222" x2="660" y2="222" class="hidden"/>
  <line x1="640" y1="210" x2="660" y2="210" class="hidden"/>
  <line x1="640" y1="198" x2="660" y2="198" class="hidden"/>
  <line x1="640" y1="186" x2="660" y2="186" class="hidden"/>

  <!-- Side view dimensions -->
  <!-- Panel thickness: 4mm -->
  <line x1="640" y1="896" x2="640" y2="906" class="ext"/>
  <line x1="660" y1="896" x2="660" y2="906" class="ext"/>
  <line x1="640" y1="902" x2="660" y2="902" class="dim"/>
  <text x="650" y="916" class="label">4</text>

  <!-- Interior protrusion: 30mm (water fitting) -->
  <line x1="595" y1="810" x2="595" y2="818" class="ext"/>
  <line x1="640" y1="810" x2="640" y2="818" class="ext"/>
  <line x1="595" y1="814" x2="640" y2="814" class="dim"/>
  <text x="618" y="828" class="label">30 int.</text>

  <!-- Exterior protrusion: 25mm (water fitting + elbow) -->
  <line x1="660" y1="810" x2="660" y2="818" class="ext"/>
  <line x1="698" y1="810" x2="698" y2="818" class="ext"/>
  <line x1="660" y1="814" x2="698" y2="814" class="dim"/>
  <text x="679" y="828" class="label">25 ext.</text>

  <!-- IEC C14 interior depth: 25mm -->
  <line x1="602" y1="166" x2="602" y2="174" class="ext"/>
  <line x1="640" y1="166" x2="640" y2="174" class="ext"/>
  <line x1="602" y1="170" x2="640" y2="170" class="dim"/>
  <text x="621" y="182" class="label">25 int.</text>

  <!-- Side view height: 400mm -->
  <line x1="710" y1="80" x2="720" y2="80" class="ext"/>
  <line x1="710" y1="880" x2="720" y2="880" class="ext"/>
  <line x1="716" y1="80" x2="716" y2="880" class="dim"/>
  <text x="736" y="484" class="label" transform="rotate(-90,736,484)">400</text>

  <!-- ============================================================ -->
  <!-- TOP VIEW — Looking along -Z (from above)                    -->
  <!-- Horizontal axis = X (0-220), Vertical axis = Y (0-4 depth) -->
  <!-- Scale: X 2:1, Y 5:1                                        -->
  <!-- Panel top-left at SVG: (60, 960)                            -->
  <!-- px_x = 60 + Xmm * 2                                        -->
  <!-- px_y = 960 + Ymm * 5 (Y=0 interior at 960, Y=4 exterior at 980) -->
  <!-- ============================================================ -->
  <text x="280" y="940" class="viewlbl">TOP VIEW</text>
  <text x="280" y="952" class="note" text-anchor="middle">Looking along -Z (from above) | X-scale 2:1, Y-scale 5:1</text>

  <!-- Panel body -->
  <rect x="60" y="960" width="440" height="20" class="fill-light"/>
  <rect x="60" y="960" width="440" height="20" class="outline"/>

  <!-- Panel centerline X=110 => px 280 -->
  <line x1="280" y1="954" x2="280" y2="986" class="center"/>

  <!-- Water fitting holes shown as hidden circles (through-holes along Z axis) -->
  <!-- In top view looking down -Z, Z-axis holes appear as circles -->
  <!-- Panel center Y=2mm => py=960+2*5=970 -->
  <!-- Tap water X=30 => px=120, 15.9mm hole => but at 5:1 Y, 2:1 X the circle is an ellipse -->
  <!-- Approximate as small through-hole marks -->
  <circle cx="120" cy="970" r="4" class="hidden"/>
  <circle cx="220" cy="970" r="4" class="hidden"/>
  <circle cx="320" cy="970" r="4" class="hidden"/>

  <!-- Flavor gland holes -->
  <circle cx="160" cy="970" r="3" class="hidden"/>
  <circle cx="400" cy="970" r="3" class="hidden"/>

  <!-- IEC C14 cutout (rectangle through panel) -->
  <!-- X=165 center, 27.4mm wide => px 362.6 to 417.4, full panel depth -->
  <rect x="362.6" y="960" width="54.8" height="20" class="hidden"/>

  <!-- Vent slot region (5 slots at X=30-90) -->
  <!-- Show as single dashed zone -->
  <rect x="120" y="960" width="120" height="20" fill="none" stroke="#000" stroke-width="0.4" stroke-dasharray="3,2"/>

  <!-- Top view labels -->
  <text x="120" y="956" class="note" text-anchor="middle">TAP</text>
  <text x="220" y="956" class="note" text-anchor="middle">SODA IN</text>
  <text x="320" y="956" class="note" text-anchor="middle">SODA OUT</text>
  <text x="160" y="992" class="note" text-anchor="middle">FL1</text>
  <text x="400" y="992" class="note" text-anchor="middle">FL2</text>
  <text x="390" y="956" class="note" text-anchor="middle">C14</text>

  <!-- Top view dimensions -->
  <line x1="60" y1="994" x2="60" y2="1004" class="ext"/>
  <line x1="500" y1="994" x2="500" y2="1004" class="ext"/>
  <line x1="60" y1="1000" x2="500" y2="1000" class="dim"/>
  <text x="280" y="1014" class="label">220</text>

  <!-- Depth: 4mm -->
  <line x1="510" y1="960" x2="518" y2="960" class="ext"/>
  <line x1="510" y1="980" x2="518" y2="980" class="ext"/>
  <line x1="514" y1="960" x2="514" y2="980" class="dim"/>
  <text x="530" y="974" class="label">4</text>

  <!-- ============================================================ -->
  <!-- NOTES BLOCK                                                  -->
  <!-- ============================================================ -->
  <line x1="820" y1="90" x2="1170" y2="90" stroke="#000" stroke-width="0.5"/>
  <text x="820" y="108" class="viewlbl" text-anchor="start">NOTES</text>

  <text x="820" y="130" class="note">1. All dimensions in mm.</text>
  <text x="820" y="148" class="note">2. Lower zone (Z=30-70): Three JG PP1208W 1/4"</text>
  <text x="830" y="161" class="note">bulkhead unions. 15.9mm (5/8") mounting holes.</text>
  <text x="830" y="174" class="note">Exterior 90-deg elbows (JG PP0308W) on each.</text>
  <text x="830" y="187" class="note">30mm interior clearance required.</text>
  <text x="820" y="208" class="note">3. Mid zone (Z=180-220): Two PG7 cable glands</text>
  <text x="830" y="221" class="note">for 1/4" OD silicone flavor tubes. 12.5mm holes.</text>
  <text x="830" y="234" class="note">15mm interior clearance per gland.</text>
  <text x="820" y="255" class="note">4. Upper zone (Z=340-380): IEC C14 panel-mount</text>
  <text x="830" y="268" class="note">inlet with fuse holder. 27.4 x 19.8mm cutout.</text>
  <text x="830" y="281" class="note">Two M3 screws at 40mm c-t-c. 25mm interior</text>
  <text x="830" y="294" class="note">clearance. PSU mounts adjacent on interior.</text>
  <text x="820" y="315" class="note">5. Ventilation: 5 horizontal slots (60 x 3mm ea.)</text>
  <text x="830" y="328" class="note">at Z=320-344, X=30-90 for PSU heat dissipation.</text>
  <text x="820" y="349" class="note">6. Soda water path: inlet bulkhead to DIGITEN</text>
  <text x="830" y="362" class="note">flow meter (interior mount) to outlet bulkhead.</text>
  <text x="830" y="375" class="note">No flavor mixing on soda line inside enclosure.</text>
  <text x="820" y="396" class="note">7. Color coding: TAP IN = blue, SODA IN = green,</text>
  <text x="830" y="409" class="note">SODA OUT = white, FLAVOR 1/2 = user-assignable.</text>
  <text x="820" y="430" class="note">8. Panel may be integral or removable (TBD).</text>
  <text x="830" y="443" class="note">4mm wall thickness, ABS or ASA.</text>
  <text x="820" y="464" class="note">9. Internal tube routing: hard PE/nylon connects</text>
  <text x="830" y="477" class="note">water bulkheads to valve rack and flow meter.</text>
  <text x="830" y="490" class="note">Silicone transition at PG7 glands for external</text>
  <text x="830" y="503" class="note">cosmetic run to faucet.</text>
  <text x="820" y="524" class="note">10. All water fittings accept 1/4" OD (6.35mm)</text>
  <text x="830" y="537" class="note">tubing. JG push-to-connect, collet release.</text>

</svg>
