<svg xmlns="http://www.w3.org/2000/svg" viewBox="0 0 1050 780" width="1050" height="780" font-family="Arial, Helvetica, sans-serif">
  <style>
    .outline { fill: none; stroke: #000; stroke-width: 1.5; }
    .hidden  { fill: none; stroke: #000; stroke-width: 0.8; stroke-dasharray: 6,3; }
    .center  { fill: none; stroke: #000; stroke-width: 0.4; stroke-dasharray: 12,3,2,3; }
    .dim     { fill: none; stroke: #333; stroke-width: 0.6; marker-end: url(#arrow); marker-start: url(#arrow); }
    .ext     { fill: none; stroke: #333; stroke-width: 0.4; }
    .label   { font-size: 10px; fill: #333; text-anchor: middle; }
    .note    { font-size: 9px; fill: #555; }
    .title   { font-size: 14px; font-weight: bold; fill: #000; text-anchor: middle; }
    .viewlbl { font-size: 12px; font-weight: bold; fill: #000; text-anchor: middle; }
    .fill-light { fill: #f0f0f0; stroke: none; }
    .fill-tube  { fill: #e8e8e8; stroke: none; }
  </style>

  <defs>
    <marker id="arrow" viewBox="0 0 10 10" refX="10" refY="5"
            markerWidth="6" markerHeight="6" orient="auto-start-reverse">
      <path d="M 0 0 L 10 5 L 0 10 z" fill="#333"/>
    </marker>
  </defs>

  <!-- ============================================================ -->
  <!-- TITLE BLOCK                                                   -->
  <!-- ============================================================ -->
  <text x="525" y="30" class="title">Dock Back Wall (Fitting Mount Wall) — Engineering Drawing</text>
  <text x="525" y="48" class="note" text-anchor="middle">Material: PETG | Envelope: 148W x 10D x 84H mm | Scale noted per view</text>
  <line x1="50" y1="56" x2="1000" y2="56" stroke="#000" stroke-width="1"/>

  <!-- ============================================================ -->
  <!-- FRONT VIEW — Looking along -Y                                -->
  <!-- Horizontal axis = X (width), Vertical axis = Z (height)      -->
  <!-- Scale 3:1 => 148mm = 444px, 84mm = 252px                    -->
  <!-- Wall top-left corner at (80, 110)                            -->
  <!-- ============================================================ -->
  <text x="302" y="85" class="viewlbl">FRONT VIEW</text>
  <text x="302" y="97" class="note" text-anchor="middle">Looking along -Y (from cartridge side) | Scale 3:1</text>

  <!-- Wall body -->
  <rect x="80" y="110" width="444" height="252" class="fill-light"/>
  <rect x="80" y="110" width="444" height="252" class="outline"/>

  <!--
    Hole layout (centered on 148 x 84 wall):
      H spacing 40mm => centers at X = 54mm and 94mm from left
      V spacing 28mm => centers at Z = 28mm (lower) and 56mm (upper) from bottom

    SVG coords (scale 3, origin 80,110, Z flipped):
      px_x = 80 + Xmm*3
      px_y = 110 + (84 - Zmm)*3

      Hole LL: (242, 278)   Hole LR: (362, 278)
      Hole UL: (242, 194)   Hole UR: (362, 194)

    Radii at scale 3:
      7mm hole   => r = 10.5px
      11mm grommet OD => r = 16.5px
      6.35mm tube OD  => r = 9.525px
  -->

  <!-- Grommet counterbore rings (hidden — recessed behind front face) -->
  <circle cx="242" cy="278" r="16.5" class="hidden"/>
  <circle cx="362" cy="278" r="16.5" class="hidden"/>
  <circle cx="242" cy="194" r="16.5" class="hidden"/>
  <circle cx="362" cy="194" r="16.5" class="hidden"/>

  <!-- 7mm through-holes -->
  <circle cx="242" cy="278" r="10.5" class="outline"/>
  <circle cx="362" cy="278" r="10.5" class="outline"/>
  <circle cx="242" cy="194" r="10.5" class="outline"/>
  <circle cx="362" cy="194" r="10.5" class="outline"/>

  <!-- Tube stubs visible inside holes -->
  <circle cx="242" cy="278" r="9.525" fill="#e8e8e8" stroke="#666" stroke-width="0.8"/>
  <circle cx="362" cy="278" r="9.525" fill="#e8e8e8" stroke="#666" stroke-width="0.8"/>
  <circle cx="242" cy="194" r="9.525" fill="#e8e8e8" stroke="#666" stroke-width="0.8"/>
  <circle cx="362" cy="194" r="9.525" fill="#e8e8e8" stroke="#666" stroke-width="0.8"/>

  <!-- Centerlines -->
  <line x1="242" y1="100" x2="242" y2="372" class="center"/>
  <line x1="362" y1="100" x2="362" y2="372" class="center"/>
  <line x1="70" y1="194" x2="534" y2="194" class="center"/>
  <line x1="70" y1="278" x2="534" y2="278" class="center"/>

  <!-- === FRONT VIEW DIMENSIONS === -->

  <!-- Overall width 148mm (bottom) -->
  <line x1="80" y1="372" x2="80" y2="395" class="ext"/>
  <line x1="524" y1="372" x2="524" y2="395" class="ext"/>
  <line x1="80" y1="390" x2="524" y2="390" class="dim"/>
  <text x="302" y="404" class="label">148</text>

  <!-- Overall height 84mm (right) -->
  <line x1="534" y1="110" x2="558" y2="110" class="ext"/>
  <line x1="534" y1="362" x2="558" y2="362" class="ext"/>
  <line x1="553" y1="110" x2="553" y2="362" class="dim"/>
  <text x="568" y="240" class="label" text-anchor="start">84</text>

  <!-- Horizontal hole spacing 40mm (top) -->
  <line x1="242" y1="155" x2="242" y2="140" class="ext"/>
  <line x1="362" y1="155" x2="362" y2="140" class="ext"/>
  <line x1="242" y1="145" x2="362" y2="145" class="dim"/>
  <text x="302" y="139" class="label">40</text>

  <!-- Vertical hole spacing 28mm (right of holes) -->
  <line x1="395" y1="194" x2="415" y2="194" class="ext"/>
  <line x1="395" y1="278" x2="415" y2="278" class="ext"/>
  <line x1="410" y1="194" x2="410" y2="278" class="dim"/>
  <text x="430" y="240" class="label" text-anchor="start">28</text>

  <!-- Left edge to left hole center 54mm -->
  <line x1="80" y1="310" x2="80" y2="330" class="ext"/>
  <line x1="242" y1="310" x2="242" y2="330" class="ext"/>
  <line x1="80" y1="325" x2="242" y2="325" class="dim"/>
  <text x="161" y="321" class="label">54</text>

  <!-- Bottom edge to lower hole center 28mm -->
  <line x1="115" y1="278" x2="115" y2="362" class="ext"/>
  <line x1="109" y1="278" x2="121" y2="278" class="ext"/>
  <line x1="109" y1="362" x2="121" y2="362" class="ext"/>
  <line x1="115" y1="278" x2="115" y2="362" class="dim"/>
  <text x="100" y="324" class="label">28</text>

  <!-- Hole callout -->
  <line x1="252" y1="268" x2="285" y2="248" stroke="#333" stroke-width="0.5"/>
  <text x="287" y="245" class="note">4x &#x2300;7 THRU</text>
  <text x="287" y="256" class="note">(&#x2300;11 c'bore x 2 deep, front face)</text>

  <!-- Tube callout -->
  <line x1="372" y1="184" x2="405" y2="168" stroke="#333" stroke-width="0.5"/>
  <text x="407" y="166" class="note">&#x2300;6.35 tube stub (4x)</text>

  <!-- Row labels -->
  <text x="210" y="284" class="note" text-anchor="end" font-size="8">INLET</text>
  <text x="210" y="200" class="note" text-anchor="end" font-size="8">OUTLET</text>

  <!-- ============================================================ -->
  <!-- SIDE VIEW — Looking along -X                                 -->
  <!-- Horizontal axis = Y (depth), Vertical axis = Z (height)      -->
  <!-- Scale 3:1                                                     -->
  <!-- Wall front face at px_x = 680, rear face at 710              -->
  <!-- ============================================================ -->
  <text x="730" y="85" class="viewlbl">SIDE VIEW</text>
  <text x="730" y="97" class="note" text-anchor="middle">Looking along -X (right side) | Scale 3:1</text>

  <!--
    Wall: 10mm deep (Y) x 84mm tall (Z)
    At scale 3: 30px wide x 252px tall
    Front face (cartridge side) at x=680, rear face at x=710

    Tube stubs:
      Front protrusion 30mm = 90px => x=590 to x=680
      Rear protrusion  20mm = 60px => x=710 to x=770

    Two holes visible:
      Upper (Z=56): SVG y = 110 + (84-56)*3 = 194
      Lower (Z=28): SVG y = 110 + (84-28)*3 = 278

    Tube 6.35mm OD = 19.05px diameter => half = 9.525px
    Hole 7mm = 21px diameter => half = 10.5px
    Grommet 11mm = 33px diameter => half = 16.5px
  -->

  <!-- Upper tube stub (center y=194) -->
  <!-- Front protrusion -->
  <rect x="590" y="184.5" width="90" height="19" class="fill-tube"/>
  <line x1="590" y1="184.5" x2="680" y2="184.5" class="outline"/>
  <line x1="590" y1="203.5" x2="680" y2="203.5" class="outline"/>
  <line x1="590" y1="184.5" x2="590" y2="203.5" class="outline"/>
  <!-- Rear protrusion -->
  <rect x="710" y="184.5" width="60" height="19" class="fill-tube"/>
  <line x1="710" y1="184.5" x2="770" y2="184.5" class="outline"/>
  <line x1="710" y1="203.5" x2="770" y2="203.5" class="outline"/>
  <line x1="770" y1="184.5" x2="770" y2="203.5" class="outline"/>

  <!-- Lower tube stub (center y=278) -->
  <rect x="590" y="268.5" width="90" height="19" class="fill-tube"/>
  <line x1="590" y1="268.5" x2="680" y2="268.5" class="outline"/>
  <line x1="590" y1="287.5" x2="680" y2="287.5" class="outline"/>
  <line x1="590" y1="268.5" x2="590" y2="287.5" class="outline"/>
  <rect x="710" y="268.5" width="60" height="19" class="fill-tube"/>
  <line x1="710" y1="268.5" x2="770" y2="268.5" class="outline"/>
  <line x1="710" y1="287.5" x2="770" y2="287.5" class="outline"/>
  <line x1="770" y1="268.5" x2="770" y2="287.5" class="outline"/>

  <!-- Wall body (solid regions above, between, below holes) -->
  <rect x="680" y="110" width="30" height="73.5" class="fill-light"/>
  <rect x="680" y="204.5" width="30" height="64" class="fill-light"/>
  <rect x="680" y="288.5" width="30" height="73.5" class="fill-light"/>

  <!-- Grommet seats (front face counterbore, upper hole) -->
  <!-- Grommet 11mm OD = 33px, seated 2mm = 6px from front face -->
  <rect x="674" y="177.5" width="6" height="33" fill="#aaa" stroke="#555" stroke-width="0.6"/>
  <!-- Grommet seat lower hole -->
  <rect x="674" y="261.5" width="6" height="33" fill="#aaa" stroke="#555" stroke-width="0.6"/>

  <!-- Through-hole gaps in wall -->
  <rect x="680" y="183.5" width="30" height="21" fill="white" stroke="none"/>
  <line x1="680" y1="183.5" x2="710" y2="183.5" class="outline"/>
  <line x1="680" y1="204.5" x2="710" y2="204.5" class="outline"/>
  <rect x="680" y="267.5" width="30" height="21" fill="white" stroke="none"/>
  <line x1="680" y1="267.5" x2="710" y2="267.5" class="outline"/>
  <line x1="680" y1="288.5" x2="710" y2="288.5" class="outline"/>

  <!-- Tube through wall (hidden inside hole) -->
  <line x1="680" y1="184.5" x2="710" y2="184.5" class="hidden"/>
  <line x1="680" y1="203.5" x2="710" y2="203.5" class="hidden"/>
  <line x1="680" y1="268.5" x2="710" y2="268.5" class="hidden"/>
  <line x1="680" y1="287.5" x2="710" y2="287.5" class="hidden"/>

  <!-- Wall outline -->
  <line x1="680" y1="110" x2="680" y2="362" class="outline"/>
  <line x1="710" y1="110" x2="710" y2="362" class="outline"/>
  <line x1="680" y1="110" x2="710" y2="110" class="outline"/>
  <line x1="680" y1="362" x2="710" y2="362" class="outline"/>

  <!-- Centerlines -->
  <line x1="580" y1="194" x2="780" y2="194" class="center"/>
  <line x1="580" y1="278" x2="780" y2="278" class="center"/>

  <!-- === SIDE VIEW DIMENSIONS === -->

  <!-- Wall depth 10mm -->
  <line x1="680" y1="372" x2="680" y2="395" class="ext"/>
  <line x1="710" y1="372" x2="710" y2="395" class="ext"/>
  <line x1="680" y1="390" x2="710" y2="390" class="dim"/>
  <text x="695" y="404" class="label">10</text>

  <!-- Wall height 84mm -->
  <line x1="720" y1="110" x2="745" y2="110" class="ext"/>
  <line x1="720" y1="362" x2="745" y2="362" class="ext"/>
  <line x1="740" y1="110" x2="740" y2="362" class="dim"/>
  <text x="755" y="240" class="label" text-anchor="start">84</text>

  <!-- Front protrusion 30mm -->
  <line x1="590" y1="212" x2="590" y2="232" class="ext"/>
  <line x1="680" y1="212" x2="680" y2="232" class="ext"/>
  <line x1="590" y1="227" x2="680" y2="227" class="dim"/>
  <text x="635" y="223" class="label">30</text>
  <text x="635" y="243" class="note" text-anchor="middle" font-size="8">(front protrusion)</text>

  <!-- Rear protrusion 20mm -->
  <line x1="710" y1="212" x2="710" y2="232" class="ext"/>
  <line x1="770" y1="212" x2="770" y2="232" class="ext"/>
  <line x1="710" y1="227" x2="770" y2="227" class="dim"/>
  <text x="740" y="223" class="label">20</text>
  <text x="740" y="243" class="note" text-anchor="middle" font-size="8">(rear)</text>

  <!-- Vertical hole spacing 28mm -->
  <line x1="784" y1="194" x2="800" y2="194" class="ext"/>
  <line x1="784" y1="278" x2="800" y2="278" class="ext"/>
  <line x1="796" y1="194" x2="796" y2="278" class="dim"/>
  <text x="810" y="240" class="label" text-anchor="start">28</text>

  <!-- Direction labels -->
  <text x="580" y="135" class="note" text-anchor="end" font-size="8">FRONT</text>
  <text x="580" y="145" class="note" text-anchor="end" font-size="8">(cartridge)</text>
  <text x="778" y="135" class="note" text-anchor="start" font-size="8">REAR</text>
  <text x="778" y="145" class="note" text-anchor="start" font-size="8">(valve rack)</text>

  <!-- Hole dia callout -->
  <line x1="695" y1="183" x2="695" y2="170" stroke="#333" stroke-width="0.5"/>
  <text x="695" y="165" class="note" text-anchor="middle">&#x2300;7 thru</text>

  <!-- Grommet callout -->
  <line x1="677" y1="175" x2="658" y2="158" stroke="#333" stroke-width="0.5"/>
  <text x="648" y="154" class="note" text-anchor="end">Grommet &#x2300;11 OD</text>
  <text x="648" y="164" class="note" text-anchor="end">2mm counterbore</text>

  <!-- ============================================================ -->
  <!-- TOP VIEW — Looking along -Z (downward)                       -->
  <!-- Horizontal axis = X (width), Vertical axis = Y (depth)       -->
  <!-- Scale 3:1                                                     -->
  <!-- Wall: 148mm x 10mm => 444px x 30px                          -->
  <!-- Y increases downward in SVG (toward rear)                    -->
  <!-- ============================================================ -->
  <text x="302" y="450" class="viewlbl">TOP VIEW</text>
  <text x="302" y="462" class="note" text-anchor="middle">Looking along -Z (from above) | Scale 3:1</text>

  <!--
    Wall front face at svg_y = 500, rear at 530
    Tube columns at X=54mm and X=94mm => px 242 and 362
    Front stubs: svg_y 410..500 (30mm = 90px)
    Rear stubs:  svg_y 530..590 (20mm = 60px)
    Tube 6.35mm OD = 19.05px wide
    Each column has 2 tubes that overlap in top view
  -->

  <!-- Wall body -->
  <rect x="80" y="500" width="444" height="30" class="fill-light"/>

  <!-- Left column tube stubs (X center = 242) -->
  <rect x="232.5" y="410" width="19" height="90" class="fill-tube"/>
  <line x1="232.5" y1="410" x2="232.5" y2="500" class="outline"/>
  <line x1="251.5" y1="410" x2="251.5" y2="500" class="outline"/>
  <line x1="232.5" y1="410" x2="251.5" y2="410" class="outline"/>
  <!-- Hidden through wall -->
  <line x1="232.5" y1="500" x2="232.5" y2="530" class="hidden"/>
  <line x1="251.5" y1="500" x2="251.5" y2="530" class="hidden"/>
  <!-- Rear -->
  <rect x="232.5" y="530" width="19" height="60" class="fill-tube"/>
  <line x1="232.5" y1="530" x2="232.5" y2="590" class="outline"/>
  <line x1="251.5" y1="530" x2="251.5" y2="590" class="outline"/>
  <line x1="232.5" y1="590" x2="251.5" y2="590" class="outline"/>

  <!-- Right column tube stubs (X center = 362) -->
  <rect x="352.5" y="410" width="19" height="90" class="fill-tube"/>
  <line x1="352.5" y1="410" x2="352.5" y2="500" class="outline"/>
  <line x1="371.5" y1="410" x2="371.5" y2="500" class="outline"/>
  <line x1="352.5" y1="410" x2="371.5" y2="410" class="outline"/>
  <line x1="352.5" y1="500" x2="352.5" y2="530" class="hidden"/>
  <line x1="371.5" y1="500" x2="371.5" y2="530" class="hidden"/>
  <rect x="352.5" y="530" width="19" height="60" class="fill-tube"/>
  <line x1="352.5" y1="530" x2="352.5" y2="590" class="outline"/>
  <line x1="371.5" y1="530" x2="371.5" y2="590" class="outline"/>
  <line x1="352.5" y1="590" x2="371.5" y2="590" class="outline"/>

  <!-- Hidden 7mm hole circles in wall (top view sees them as circles through the slab) -->
  <circle cx="242" cy="515" r="10.5" class="hidden"/>
  <circle cx="362" cy="515" r="10.5" class="hidden"/>

  <!-- Wall outline (on top layer) -->
  <rect x="80" y="500" width="444" height="30" class="outline"/>

  <!-- Centerlines -->
  <line x1="242" y1="400" x2="242" y2="600" class="center"/>
  <line x1="362" y1="400" x2="362" y2="600" class="center"/>
  <line x1="70" y1="515" x2="534" y2="515" class="center"/>

  <!-- === TOP VIEW DIMENSIONS === -->

  <!-- Overall width 148mm -->
  <line x1="80" y1="600" x2="80" y2="620" class="ext"/>
  <line x1="524" y1="600" x2="524" y2="620" class="ext"/>
  <line x1="80" y1="615" x2="524" y2="615" class="dim"/>
  <text x="302" y="630" class="label">148</text>

  <!-- Wall depth 10mm -->
  <line x1="534" y1="500" x2="555" y2="500" class="ext"/>
  <line x1="534" y1="530" x2="555" y2="530" class="ext"/>
  <line x1="550" y1="500" x2="550" y2="530" class="dim"/>
  <text x="565" y="519" class="label" text-anchor="start">10</text>

  <!-- Horizontal hole spacing 40mm -->
  <line x1="242" y1="495" x2="242" y2="483" class="ext"/>
  <line x1="362" y1="495" x2="362" y2="483" class="ext"/>
  <line x1="242" y1="488" x2="362" y2="488" class="dim"/>
  <text x="302" y="482" class="label">40</text>

  <!-- Front protrusion 30mm -->
  <line x1="218" y1="410" x2="218" y2="500" class="ext"/>
  <line x1="212" y1="410" x2="224" y2="410" class="ext"/>
  <line x1="212" y1="500" x2="224" y2="500" class="ext"/>
  <line x1="218" y1="410" x2="218" y2="500" class="dim"/>
  <text x="203" y="459" class="label">30</text>

  <!-- Rear protrusion 20mm -->
  <line x1="218" y1="530" x2="218" y2="590" class="ext"/>
  <line x1="212" y1="530" x2="224" y2="530" class="ext"/>
  <line x1="212" y1="590" x2="224" y2="590" class="ext"/>
  <line x1="218" y1="530" x2="218" y2="590" class="dim"/>
  <text x="203" y="563" class="label">20</text>

  <!-- Direction labels -->
  <text x="302" y="406" class="note" text-anchor="middle" font-size="8">FRONT (cartridge cavity)</text>
  <text x="302" y="604" class="note" text-anchor="middle" font-size="8">REAR (valve rack)</text>
  <text x="390" y="560" class="note" font-size="8">2 tubes per column</text>
  <text x="390" y="570" class="note" font-size="8">(upper + lower overlap in plan)</text>

  <!-- ============================================================ -->
  <!-- DETAIL B — Grommet Cross-Section                             -->
  <!-- Scale 6:1 => 1mm = 6px                                      -->
  <!-- Shows section through one tube hole                          -->
  <!-- Center at approximately (880, 540)                           -->
  <!-- ============================================================ -->
  <text x="880" y="450" class="viewlbl">DETAIL B — Grommet Section</text>
  <text x="880" y="462" class="note" text-anchor="middle">Scale 6:1</text>

  <!--
    Wall 10mm thick = 60px.  Front face at x=850, rear at x=910.
    Center of hole at y=540.

    Tube 6.35mm OD => half = 19.05px => y = 540 +/- 19.05 => 520.95 .. 559.05
    Hole 7mm      => half = 21px     => y = 540 +/- 21    => 519 .. 561
    Grommet 11mm  => half = 33px     => y = 540 +/- 33    => 507 .. 573
    Counterbore 12mm dia => half = 36px => y = 540 +/- 36 => 504 .. 576
    Counterbore depth 2mm = 12px from front face => x = 850 .. 862
  -->

  <!-- Wall solid above hole -->
  <rect x="850" y="480" width="60" height="39" fill="#e0e0e0" stroke="none"/>
  <!-- Wall solid below hole -->
  <rect x="850" y="561" width="60" height="39" fill="#e0e0e0" stroke="none"/>

  <!-- Counterbore pocket (from front face, clears grommet OD) -->
  <!-- Between hole and counterbore edge (above) -->
  <rect x="850" y="504" width="12" height="15" fill="white" stroke="none"/>
  <!-- Between hole and counterbore edge (below) -->
  <rect x="850" y="561" width="12" height="15" fill="white" stroke="none"/>

  <!-- 7mm through-hole (clear area) -->
  <rect x="850" y="519" width="60" height="42" fill="white" stroke="none"/>

  <!-- Counterbore walls -->
  <line x1="850" y1="504" x2="862" y2="504" class="outline"/>
  <line x1="862" y1="504" x2="862" y2="519" class="outline"/>
  <line x1="862" y1="561" x2="862" y2="576" class="outline"/>
  <line x1="850" y1="576" x2="862" y2="576" class="outline"/>

  <!-- Hole walls -->
  <line x1="862" y1="519" x2="910" y2="519" class="outline"/>
  <line x1="862" y1="561" x2="910" y2="561" class="outline"/>

  <!-- Grommet bodies (cross-hatched rubber, upper and lower lips) -->
  <!-- Upper grommet lip: from y=507 to y=519, x=851 to x=861 -->
  <rect x="851" y="507" width="10" height="12" fill="#999" stroke="#555" stroke-width="0.6"/>
  <!-- Lower grommet lip -->
  <rect x="851" y="561" width="10" height="12" fill="#999" stroke="#555" stroke-width="0.6"/>

  <!-- Tube passing through entire section -->
  <rect x="828" y="521" width="104" height="38" fill="#dde8ee" stroke="#666" stroke-width="0.8"/>

  <!-- Wall outer outline -->
  <line x1="850" y1="480" x2="850" y2="600" class="outline"/>
  <line x1="910" y1="480" x2="910" y2="600" class="outline"/>
  <line x1="850" y1="480" x2="910" y2="480" class="outline"/>
  <line x1="850" y1="600" x2="910" y2="600" class="outline"/>

  <!-- Centerline -->
  <line x1="820" y1="540" x2="920" y2="540" class="center"/>

  <!-- Detail dimensions -->
  <!-- Tube OD 6.35mm -->
  <line x1="935" y1="521" x2="955" y2="521" class="ext"/>
  <line x1="935" y1="559" x2="955" y2="559" class="ext"/>
  <line x1="950" y1="521" x2="950" y2="559" class="dim"/>
  <text x="962" y="544" class="label" text-anchor="start" font-size="9">&#x2300;6.35</text>

  <!-- Hole 7mm -->
  <line x1="916" y1="519" x2="936" y2="519" class="ext"/>
  <line x1="916" y1="561" x2="936" y2="561" class="ext"/>
  <line x1="932" y1="519" x2="932" y2="561" class="dim"/>
  <text x="962" y="525" class="label" text-anchor="start" font-size="9">&#x2300;7</text>

  <!-- Grommet OD 11mm -->
  <line x1="838" y1="507" x2="838" y2="573" class="ext"/>
  <line x1="832" y1="507" x2="844" y2="507" class="ext"/>
  <line x1="832" y1="573" x2="844" y2="573" class="ext"/>
  <line x1="838" y1="507" x2="838" y2="573" class="dim"/>
  <text x="822" y="544" class="label" font-size="9">&#x2300;11</text>

  <!-- Counterbore depth 2mm -->
  <line x1="850" y1="580" x2="850" y2="596" class="ext"/>
  <line x1="862" y1="580" x2="862" y2="596" class="ext"/>
  <line x1="850" y1="592" x2="862" y2="592" class="dim"/>
  <text x="856" y="606" class="label" font-size="9">2</text>

  <!-- Wall thickness 10mm -->
  <line x1="850" y1="604" x2="850" y2="616" class="ext"/>
  <line x1="910" y1="604" x2="910" y2="616" class="ext"/>
  <line x1="850" y1="612" x2="910" y2="612" class="dim"/>
  <text x="880" y="626" class="label" font-size="9">10</text>

  <!-- Labels -->
  <line x1="856" y1="510" x2="826" y2="496" stroke="#333" stroke-width="0.5"/>
  <text x="824" y="493" class="note" font-size="8" text-anchor="end">Rubber grommet</text>
  <text x="824" y="502" class="note" font-size="8" text-anchor="end">(7mm ID, 11mm OD)</text>

  <line x1="850" y1="535" x2="826" y2="520" stroke="#333" stroke-width="0.5"/>
  <text x="814" y="518" class="note" font-size="8" text-anchor="end">Nylon tube</text>
  <text x="814" y="527" class="note" font-size="8" text-anchor="end">&#x2300;6.35 OD</text>

  <text x="880" y="476" class="note" text-anchor="middle" font-size="8">FRONT &#x2190;</text>

  <!-- ============================================================ -->
  <!-- NOTES                                                         -->
  <!-- ============================================================ -->
  <line x1="50" y1="648" x2="1000" y2="648" stroke="#ccc" stroke-width="0.5"/>
  <text x="80" y="668" class="viewlbl" text-anchor="start">NOTES</text>
  <text x="80" y="685" class="note">1. All dimensions in mm.</text>
  <text x="80" y="699" class="note">2. Four tube stub pass-through holes: &#x2300;7mm thru with &#x2300;11mm counterbore (2mm deep) on front face for grommet seat.</text>
  <text x="80" y="713" class="note">3. Tube stubs: 1/4" OD (6.35mm nominal, 6.30mm measured) hard nylon, ~60-80mm total length.</text>
  <text x="80" y="727" class="note">4. Front protrusion ~30mm into cartridge cavity. Cartridge JG union fittings (PP0408W) slide onto bare tube stubs during dock-in.</text>
  <text x="80" y="741" class="note">5. Hole pattern: 2x2 grid, 40mm horizontal x 28mm vertical center-to-center, centered on wall face.</text>
  <text x="80" y="755" class="note">6. Lower row = inlet tubes; upper row = outlet tubes. Rear stubs connect to valve rack tubing.</text>
  <text x="80" y="769" class="note">7. Pogo pin mount area on ceiling face (top surface, Z=80-84) not shown — see separate drawing.</text>

</svg>
