<svg xmlns="http://www.w3.org/2000/svg" viewBox="0 0 1050 820" width="1050" height="820" font-family="Arial, Helvetica, sans-serif">
  <style>
    .outline { fill: none; stroke: #000; stroke-width: 1.5; }
    .hidden  { fill: none; stroke: #000; stroke-width: 0.8; stroke-dasharray: 6,3; }
    .center  { fill: none; stroke: #000; stroke-width: 0.4; stroke-dasharray: 12,3,2,3; }
    .dim     { fill: none; stroke: #333; stroke-width: 0.6; marker-end: url(#arrow); marker-start: url(#arrow); }
    .ext     { fill: none; stroke: #333; stroke-width: 0.4; }
    .label   { font-size: 10px; fill: #333; text-anchor: middle; }
    .note    { font-size: 9px; fill: #555; }
    .title   { font-size: 14px; font-weight: bold; fill: #000; text-anchor: middle; }
    .viewlbl { font-size: 12px; font-weight: bold; fill: #000; text-anchor: middle; }
    .fill-light { fill: #f0f0f0; stroke: none; }
    .fill-pin   { fill: #d4c680; stroke: none; }
    .fill-spring { fill: #c0c0c0; stroke: none; }
    .fill-pcb   { fill: #2a7a2a; stroke: none; opacity: 0.3; }
  </style>

  <defs>
    <marker id="arrow" viewBox="0 0 10 10" refX="10" refY="5"
            markerWidth="6" markerHeight="6" orient="auto-start-reverse">
      <path d="M 0 0 L 10 5 L 0 10 z" fill="#333"/>
    </marker>
  </defs>

  <!-- ============================================================ -->
  <!-- TITLE BLOCK                                                   -->
  <!-- ============================================================ -->
  <text x="525" y="30" class="title">Pogo Pin Mount (Dock Ceiling Bracket) — Engineering Drawing</text>
  <text x="525" y="48" class="note" text-anchor="middle">Material: PETG bracket + FR4 PCB | Envelope: 60W x 30D x 10H mm | 3-6 pogo pins (P75/P100) | Scale noted per view</text>
  <line x1="50" y1="56" x2="1000" y2="56" stroke="#000" stroke-width="1"/>

  <!-- ============================================================ -->
  <!-- FRONT VIEW — Looking along -Y                                -->
  <!-- Horizontal axis = X (width), Vertical axis = Z (height)      -->
  <!-- Scale 5:1 => 60mm = 300px, 10mm = 50px                      -->
  <!-- Bracket top-left at (80, 100)                                -->
  <!-- ============================================================ -->
  <text x="230" y="85" class="viewlbl">FRONT VIEW</text>
  <text x="230" y="97" class="note" text-anchor="middle">Looking along -Y (from cartridge side) | Scale 5:1</text>

  <!-- Bracket body: 60W x 10H mm => 300 x 50 px -->
  <rect x="80" y="100" width="300" height="50" class="fill-light"/>
  <rect x="80" y="100" width="300" height="50" class="outline"/>

  <!--
    Pin layout (front view — looking along -Y):
    3 required pins + 2 optional, at 10mm spacing.
    5 pins at positions: 10, 20, 30, 40, 50mm from left edge.
    SVG X: 80 + mm*5

    Pin Z center: 5mm from bottom of bracket (mid-height).
    SVG Y: 100 + (10-5)*5 = 125

    Pins are cylindrical with axis along Z => CIRCLES in front view.
    Pin pocket: 4mm dia => r=10px at 5:1.
    Pin tip: 2.5mm dia => r=6.25px.
  -->

  <!-- Required pins (filled) at 20mm, 30mm, 40mm from left -->
  <circle cx="180" cy="125" r="10" class="outline"/>
  <circle cx="180" cy="125" r="6.25" fill="#d4c680" stroke="#666" stroke-width="0.8"/>
  <circle cx="230" cy="125" r="10" class="outline"/>
  <circle cx="230" cy="125" r="6.25" fill="#d4c680" stroke="#666" stroke-width="0.8"/>
  <circle cx="280" cy="125" r="10" class="outline"/>
  <circle cx="280" cy="125" r="6.25" fill="#d4c680" stroke="#666" stroke-width="0.8"/>

  <!-- Optional pin positions (dashed) at 10mm and 50mm from left -->
  <circle cx="130" cy="125" r="10" class="hidden"/>
  <circle cx="130" cy="125" r="6.25" fill="none" stroke="#666" stroke-width="0.6" stroke-dasharray="4,2"/>
  <circle cx="330" cy="125" r="10" class="hidden"/>
  <circle cx="330" cy="125" r="6.25" fill="none" stroke="#666" stroke-width="0.6" stroke-dasharray="4,2"/>

  <!-- Centerlines through pin positions -->
  <line x1="70" y1="125" x2="390" y2="125" class="center"/>
  <line x1="180" y1="90" x2="180" y2="160" class="center"/>
  <line x1="230" y1="90" x2="230" y2="160" class="center"/>
  <line x1="280" y1="90" x2="280" y2="160" class="center"/>

  <!-- Mounting screw holes (M3, d=3mm => r=7.5px at 5:1) at X=5mm, 55mm -->
  <!-- SVG X: 80+25=105, 80+275=355; SVG Y: 125 -->
  <circle cx="105" cy="125" r="7.5" class="hidden"/>
  <circle cx="355" cy="125" r="7.5" class="hidden"/>
  <line x1="105" y1="90" x2="105" y2="160" class="center"/>
  <line x1="355" y1="90" x2="355" y2="160" class="center"/>

  <!-- === FRONT VIEW DIMENSIONS === -->

  <!-- Overall width 60mm (bottom) -->
  <line x1="80" y1="150" x2="80" y2="175" class="ext"/>
  <line x1="380" y1="150" x2="380" y2="175" class="ext"/>
  <line x1="80" y1="170" x2="380" y2="170" class="dim"/>
  <text x="230" y="184" class="label">60</text>

  <!-- Overall height 10mm (right) -->
  <line x1="390" y1="100" x2="414" y2="100" class="ext"/>
  <line x1="390" y1="150" x2="414" y2="150" class="ext"/>
  <line x1="409" y1="100" x2="409" y2="150" class="dim"/>
  <text x="424" y="129" class="label" text-anchor="start">10</text>

  <!-- Pin spacing 10mm (top) -->
  <line x1="180" y1="100" x2="180" y2="82" class="ext"/>
  <line x1="230" y1="100" x2="230" y2="82" class="ext"/>
  <line x1="280" y1="100" x2="280" y2="82" class="ext"/>
  <line x1="180" y1="85" x2="230" y2="85" class="dim"/>
  <text x="205" y="80" class="label">10</text>
  <line x1="230" y1="85" x2="280" y2="85" class="dim"/>
  <text x="255" y="80" class="label">10</text>

  <!-- Left edge to first required pin 20mm -->
  <line x1="80" y1="195" x2="80" y2="210" class="ext"/>
  <line x1="180" y1="195" x2="180" y2="210" class="ext"/>
  <line x1="80" y1="205" x2="180" y2="205" class="dim"/>
  <text x="130" y="220" class="label">20</text>

  <!-- Pin labels -->
  <text x="180" y="148" class="note" text-anchor="middle">GND</text>
  <text x="230" y="148" class="note" text-anchor="middle">MTR A</text>
  <text x="280" y="148" class="note" text-anchor="middle">MTR B</text>
  <text x="130" y="148" class="note" text-anchor="middle">(opt)</text>
  <text x="330" y="148" class="note" text-anchor="middle">(opt)</text>

  <!-- ============================================================ -->
  <!-- SIDE VIEW — Looking along -X                                 -->
  <!-- Horizontal axis = Y (depth), Vertical axis = Z (height)      -->
  <!-- Scale 5:1 => 30mm = 150px, 10mm = 50px                      -->
  <!-- Bracket top-left at (550, 100)                               -->
  <!-- ============================================================ -->
  <text x="625" y="85" class="viewlbl">SIDE VIEW (RIGHT)</text>
  <text x="625" y="97" class="note" text-anchor="middle">Looking along -X | Scale 5:1</text>

  <!-- PCB layer on top of bracket (2mm thick => 10px) -->
  <rect x="550" y="90" width="150" height="10" class="fill-pcb"/>
  <rect x="550" y="90" width="150" height="10" class="outline"/>

  <!-- Bracket body: 30D x 10H mm => 150 x 50 px -->
  <rect x="550" y="100" width="150" height="50" class="fill-light"/>
  <rect x="550" y="100" width="150" height="50" class="outline"/>

  <!--
    Side view: pin cross-section (rectangle — axis along Z).
    Pin at Y=15mm center => SVG X: 550 + 15*5 = 625
    Pocket: 4mm wide => 20px => from X=615 to X=635
    Bracket bottom: SVG Y=150
    Pin barrel: 2.5mm wide => 12.5px => from X=619 to X=631 (centered on 625)
    Barrel extends from bracket top (Y=100) to 6mm below bracket (Y=150+30=180)
    Total barrel visible below bracket: 6mm => 30px
    Plunger tip: 2mm dia => 10px wide, extends 2mm (10px) below barrel end
    Solder tail: extends 3mm (15px) above PCB top (Y=90-15=75)
  -->

  <!-- Pin pocket through bracket (white cutout) -->
  <rect x="615" y="100" width="20" height="50" fill="#fff" stroke="#000" stroke-width="0.8" stroke-dasharray="6,3"/>

  <!-- Pogo pin barrel -->
  <rect x="619" y="100" width="12" height="80" fill="#c0c0c0" stroke="#000" stroke-width="1"/>

  <!-- Spring coils inside barrel -->
  <polyline points="621,118 629,124 621,130 629,136 621,142 629,148 621,154 629,160 621,166 629,172"
            fill="none" stroke="#666" stroke-width="0.6"/>

  <!-- Plunger tip protruding below barrel -->
  <rect x="620" y="180" width="10" height="10" fill="#d4c680" stroke="#000" stroke-width="1"/>

  <!-- Solder tail above PCB -->
  <rect x="622" y="75" width="6" height="15" fill="#c0c0c0" stroke="#000" stroke-width="0.8"/>

  <!-- Bracket bottom face line (reinforce — visible edge) -->
  <line x1="550" y1="150" x2="615" y2="150" stroke="#000" stroke-width="1.5"/>
  <line x1="635" y1="150" x2="700" y2="150" stroke="#000" stroke-width="1.5"/>

  <!-- Drainage channels (V-groove on bottom face, either side of pin zone) -->
  <path d="M 567,150 L 575,160 L 583,150" fill="none" stroke="#000" stroke-width="1"/>
  <path d="M 667,150 L 675,160 L 683,150" fill="none" stroke="#000" stroke-width="1"/>

  <!-- Centerline through pin -->
  <line x1="625" y1="65" x2="625" y2="200" class="center"/>

  <!-- === SIDE VIEW DIMENSIONS === -->

  <!-- Overall depth 30mm (bottom) -->
  <line x1="550" y1="155" x2="550" y2="215" class="ext"/>
  <line x1="700" y1="155" x2="700" y2="215" class="ext"/>
  <line x1="550" y1="210" x2="700" y2="210" class="dim"/>
  <text x="625" y="224" class="label">30</text>

  <!-- Bracket height 10mm (left) -->
  <line x1="540" y1="100" x2="525" y2="100" class="ext"/>
  <line x1="540" y1="150" x2="525" y2="150" class="ext"/>
  <line x1="530" y1="100" x2="530" y2="150" class="dim"/>
  <text x="518" y="129" class="label" text-anchor="end">10</text>

  <!-- PCB thickness 2mm (left, above bracket) -->
  <line x1="540" y1="90" x2="510" y2="90" class="ext"/>
  <line x1="540" y1="100" x2="510" y2="100" class="ext"/>
  <line x1="515" y1="90" x2="515" y2="100" class="dim"/>
  <text x="503" y="99" class="label" text-anchor="end">2</text>

  <!-- Pin protrusion below bracket: 8mm total -->
  <line x1="640" y1="150" x2="660" y2="150" class="ext"/>
  <line x1="640" y1="190" x2="660" y2="190" class="ext"/>
  <line x1="655" y1="150" x2="655" y2="190" class="dim"/>
  <text x="668" y="174" class="label" text-anchor="start">8</text>

  <!-- Plunger stroke 2mm -->
  <line x1="636" y1="180" x2="648" y2="180" class="ext"/>
  <line x1="636" y1="190" x2="648" y2="190" class="ext"/>
  <line x1="643" y1="180" x2="643" y2="190" class="dim"/>
  <text x="648" y="188" class="note" text-anchor="start"> 2 stroke</text>

  <!-- Solder tail 3mm above PCB -->
  <line x1="634" y1="75" x2="648" y2="75" class="ext"/>
  <line x1="634" y1="90" x2="648" y2="90" class="ext"/>
  <line x1="643" y1="75" x2="643" y2="90" class="dim"/>
  <text x="651" y="86" class="note" text-anchor="start">3</text>

  <!-- ============================================================ -->
  <!-- TOP VIEW — Looking along -Z                                  -->
  <!-- Horizontal axis = X (width), Vertical axis = Y (depth)       -->
  <!-- Scale 5:1 => 60mm = 300px, 30mm = 150px                     -->
  <!-- Bracket top-left at (80, 310)                                -->
  <!-- Aligned below front view (same X range: 80-380)              -->
  <!-- ============================================================ -->
  <text x="230" y="295" class="viewlbl">TOP VIEW</text>
  <text x="230" y="307" class="note" text-anchor="middle">Looking along -Z (from above) | Scale 5:1</text>

  <!-- Bracket body: 60W x 30D mm => 300 x 150 px -->
  <rect x="80" y="320" width="300" height="150" class="fill-light"/>
  <rect x="80" y="320" width="300" height="150" class="outline"/>

  <!-- PCB outline (inset 2.5mm each side => 12.5px) -->
  <rect x="93" y="333" width="274" height="124" class="fill-pcb"/>
  <rect x="93" y="333" width="274" height="124" fill="none" stroke="#060" stroke-width="0.6" stroke-dasharray="4,2"/>

  <!--
    Pin holes in top view: circles (looking down pin axis along -Z).
    Pin X positions match front view: 20, 30, 40mm from left => SVG X: 180, 230, 280
    Pin Y position: 15mm from front edge => SVG Y: 320 + 15*5 = 395
  -->

  <!-- Required pin holes -->
  <circle cx="180" cy="395" r="10" class="outline"/>
  <circle cx="180" cy="395" r="6.25" fill="#d4c680" stroke="#666" stroke-width="0.8"/>
  <circle cx="230" cy="395" r="10" class="outline"/>
  <circle cx="230" cy="395" r="6.25" fill="#d4c680" stroke="#666" stroke-width="0.8"/>
  <circle cx="280" cy="395" r="10" class="outline"/>
  <circle cx="280" cy="395" r="6.25" fill="#d4c680" stroke="#666" stroke-width="0.8"/>

  <!-- Optional pin holes (dashed) -->
  <circle cx="130" cy="395" r="10" class="hidden"/>
  <circle cx="130" cy="395" r="6.25" fill="none" stroke="#666" stroke-width="0.6" stroke-dasharray="4,2"/>
  <circle cx="330" cy="395" r="10" class="hidden"/>
  <circle cx="330" cy="395" r="6.25" fill="none" stroke="#666" stroke-width="0.6" stroke-dasharray="4,2"/>

  <!-- Mounting screw holes (M3, through-holes visible in top view) -->
  <circle cx="105" cy="395" r="7.5" class="outline"/>
  <circle cx="355" cy="395" r="7.5" class="outline"/>

  <!-- Centerlines -->
  <line x1="70" y1="395" x2="390" y2="395" class="center"/>
  <line x1="180" y1="310" x2="180" y2="480" class="center"/>
  <line x1="230" y1="310" x2="230" y2="480" class="center"/>
  <line x1="280" y1="310" x2="280" y2="480" class="center"/>
  <line x1="105" y1="310" x2="105" y2="480" class="center"/>
  <line x1="355" y1="310" x2="355" y2="480" class="center"/>

  <!-- Drainage channels (hidden — on underside, parallel to X axis) -->
  <line x1="80" y1="358" x2="380" y2="358" class="hidden"/>
  <line x1="80" y1="432" x2="380" y2="432" class="hidden"/>

  <!-- === TOP VIEW DIMENSIONS === -->

  <!-- Overall width 60mm (bottom) -->
  <line x1="80" y1="470" x2="80" y2="495" class="ext"/>
  <line x1="380" y1="470" x2="380" y2="495" class="ext"/>
  <line x1="80" y1="490" x2="380" y2="490" class="dim"/>
  <text x="230" y="504" class="label">60</text>

  <!-- Overall depth 30mm (right) -->
  <line x1="390" y1="320" x2="414" y2="320" class="ext"/>
  <line x1="390" y1="470" x2="414" y2="470" class="ext"/>
  <line x1="409" y1="320" x2="409" y2="470" class="dim"/>
  <text x="424" y="399" class="label" text-anchor="start">30</text>

  <!-- Pin center Y=15mm from front edge (left side) -->
  <line x1="80" y1="320" x2="60" y2="320" class="ext"/>
  <line x1="80" y1="395" x2="60" y2="395" class="ext"/>
  <line x1="65" y1="320" x2="65" y2="395" class="dim"/>
  <text x="52" y="361" class="label" text-anchor="end">15</text>

  <!-- Screw hole to left edge 5mm -->
  <line x1="80" y1="510" x2="80" y2="525" class="ext"/>
  <line x1="105" y1="510" x2="105" y2="525" class="ext"/>
  <line x1="80" y1="520" x2="105" y2="520" class="dim"/>
  <text x="93" y="534" class="label">5</text>

  <!-- Pin labels in top view -->
  <text x="180" y="385" class="note" text-anchor="middle">GND</text>
  <text x="230" y="385" class="note" text-anchor="middle">A</text>
  <text x="280" y="385" class="note" text-anchor="middle">B</text>

  <!-- ============================================================ -->
  <!-- DETAIL VIEW — Pin Cross-Section (enlarged)                   -->
  <!-- Scale 10:1                                                   -->
  <!-- Shows single pogo pin in bracket pocket                      -->
  <!-- ============================================================ -->
  <text x="830" y="295" class="viewlbl">DETAIL: PIN SECTION</text>
  <text x="830" y="307" class="note" text-anchor="middle">Scale 10:1 | Single pin cross-section</text>

  <!--
    Single pogo pin at 10:1.
    Pin centered at SVG X=830.
    PCB top at SVG Y=330, PCB bottom/bracket top at Y=350
    Bracket bottom at Y=450 (10mm * 10 = 100px)
    Barrel: 2.5mm => 25px wide, from Y=350 down to Y=510 (16mm * 10 = 160px)
    Actually barrel length approx 12mm => 120px, so barrel bottom at Y=470
    Plunger: 2mm => 20px below barrel => plunger bottom at Y=490
    Solder tail: 3mm => 30px above PCB => from Y=300 to Y=330
  -->

  <!-- PCB (on top) -->
  <rect x="770" y="330" width="120" height="20" class="fill-pcb"/>
  <rect x="770" y="330" width="120" height="20" class="outline"/>

  <!-- Bracket body -->
  <rect x="770" y="350" width="120" height="100" class="fill-light"/>
  <rect x="770" y="350" width="120" height="100" class="outline"/>

  <!-- Pin pocket bore through bracket (4mm => 40px wide) -->
  <rect x="810" y="350" width="40" height="100" fill="#fff" stroke="#000" stroke-width="1"/>

  <!-- Pogo pin barrel (2.5mm => 25px wide, centered on 830) -->
  <rect x="818" y="355" width="25" height="115" fill="#c0c0c0" stroke="#000" stroke-width="1"/>

  <!-- Spring coils inside barrel -->
  <polyline points="821,375 838,382 821,389 838,396 821,403 838,410 821,417 838,424 821,431 838,438"
            fill="none" stroke="#666" stroke-width="0.8"/>

  <!-- Plunger (bottom portion of pin assembly) -->
  <rect x="821" y="470" width="20" height="20" fill="#d4c680" stroke="#000" stroke-width="1"/>

  <!-- Plunger tip -->
  <line x1="824" y1="490" x2="838" y2="490" stroke="#000" stroke-width="1.5"/>

  <!-- Solder tail (above PCB) -->
  <rect x="825" y="300" width="11" height="30" fill="#c0c0c0" stroke="#000" stroke-width="0.8"/>

  <!-- PCB pad / solder ring -->
  <rect x="820" y="330" width="21" height="6" fill="#c7a040" stroke="#000" stroke-width="0.6"/>

  <!-- Conformal coating zones on PCB (either side of pad) -->
  <rect x="772" y="333" width="44" height="12" fill="none" stroke="#060" stroke-width="0.5" stroke-dasharray="2,2"/>
  <rect x="845" y="333" width="42" height="12" fill="none" stroke="#060" stroke-width="0.5" stroke-dasharray="2,2"/>

  <!-- Centerline -->
  <line x1="830" y1="290" x2="830" y2="500" class="center"/>

  <!-- === DETAIL DIMENSIONS === -->

  <!-- Bracket height 10mm -->
  <line x1="900" y1="350" x2="920" y2="350" class="ext"/>
  <line x1="900" y1="450" x2="920" y2="450" class="ext"/>
  <line x1="915" y1="350" x2="915" y2="450" class="dim"/>
  <text x="930" y="404" class="label" text-anchor="start">10</text>

  <!-- PCB thickness 2mm -->
  <line x1="900" y1="330" x2="940" y2="330" class="ext"/>
  <line x1="900" y1="350" x2="940" y2="350" class="ext"/>
  <line x1="935" y1="330" x2="935" y2="350" class="dim"/>
  <text x="945" y="344" class="label" text-anchor="start">2</text>

  <!-- Pocket bore 4mm -->
  <line x1="810" y1="350" x2="810" y2="340" class="ext"/>
  <line x1="850" y1="350" x2="850" y2="340" class="ext"/>
  <line x1="810" y1="344" x2="850" y2="344" class="dim"/>
  <text x="830" y="338" class="label">4</text>

  <!-- Pin diameter 2.5mm -->
  <line x1="818" y1="455" x2="818" y2="462" class="ext"/>
  <line x1="843" y1="455" x2="843" y2="462" class="ext"/>
  <line x1="818" y1="459" x2="843" y2="459" class="dim"/>
  <text x="830" y="472" class="label">2.5</text>

  <!-- Plunger stroke 2mm -->
  <line x1="846" y1="470" x2="862" y2="470" class="ext"/>
  <line x1="846" y1="490" x2="862" y2="490" class="ext"/>
  <line x1="857" y1="470" x2="857" y2="490" class="dim"/>
  <text x="868" y="484" class="label" text-anchor="start">2</text>

  <!-- Spring clearance: bracket bottom to plunger tip = ~4mm -->
  <line x1="758" y1="450" x2="758" y2="490" class="dim"/>
  <line x1="770" y1="450" x2="752" y2="450" class="ext"/>
  <line x1="770" y1="490" x2="752" y2="490" class="ext"/>
  <text x="748" y="474" class="label" text-anchor="end">4</text>

  <!-- ============================================================ -->
  <!-- NOTES BLOCK                                                   -->
  <!-- ============================================================ -->
  <line x1="50" y1="570" x2="1000" y2="570" stroke="#000" stroke-width="0.6"/>
  <text x="60" y="590" class="viewlbl" text-anchor="start">NOTES</text>

  <text x="70" y="610" class="note">1. Material: PETG bracket, FR4 PCB (1.6mm nominal, shown as 2mm with solder mask). Conformal coating (silicone or acrylic) on all PCB traces;</text>
  <text x="75" y="622" class="note">   contact pads left bare metal for electrical contact.</text>
  <text x="70" y="638" class="note">2. Pins: 3x required (GND, Motor A 12V, Motor B 12V), up to 3x optional (cartridge ID, temp sensor, spare). P75 or P100 series, 2-3mm dia, 1-2mm stroke.</text>
  <text x="70" y="654" class="note">3. Pin spacing: 10mm center-to-center. Bracket centered at X=106 within 212mm enclosure interior (centered on 148mm cartridge width).</text>
  <text x="70" y="670" class="note">4. Target pads on cartridge top face: 8mm x 5mm each, nickel-plated brass, 10mm c-t-c. Oversized pads tolerate 2-3mm misalignment.</text>
  <text x="70" y="686" class="note">5. Wipe action: pin tip drags across elongated pad during slide-in insertion, self-cleaning oxide films and debris.</text>
  <text x="70" y="702" class="note">6. Drainage channel molded into dock ceiling slopes away from pin pockets. Electrical contacts on dock CEILING (top), water fittings on REAR — gravity separates moisture.</text>
  <text x="70" y="718" class="note">7. Current: ~0.85A typical per motor, ~3A stall transient. Even P75 probes (1-3A rated) are adequate; Mill-Max 0852 (9A) for extra margin.</text>
  <text x="70" y="734" class="note">8. Mounting: M3 screws into heat-set inserts in dock ceiling. Bracket at Z=80-84mm (top of cartridge slot).</text>
  <text x="70" y="750" class="note">9. Spring clearance: minimum 4mm below bracket bottom face to plunger tip at full extension (uncompressed). Cartridge top face contacts plunger at ~1-2mm compression.</text>
  <text x="70" y="766" class="note">10. Optional pins shown with dashed outlines. 6th pin position omitted from drawing — add if needed.</text>

  <!-- Scale and tolerance block -->
  <line x1="50" y1="780" x2="1000" y2="780" stroke="#000" stroke-width="0.4"/>
  <text x="70" y="798" class="note">Tolerances: +/- 0.2mm (3D printed bracket), +/- 0.1mm (PCB features) | All dimensions in mm | Drawing not to production scale — verify against physical parts</text>

</svg>
