<svg xmlns="http://www.w3.org/2000/svg" viewBox="0 0 1080 820" width="1080" height="820" font-family="Arial, Helvetica, sans-serif">
  <title>Valve Rack Assembly — Orthographic Drawing</title>
  <desc>
    Three-view orthographic projection of the 10-valve rack (5x2 grid).
    Scale: 3.5 px/mm. All caliper-verified dimensions in mm.
    Axis convention (valve-oriented):
      X = width (across valve body, perpendicular to tube flow)
      Y = depth (along tube flow, port-to-port)
      Z = height (vertical, bottom of white body to spade tips)
    Front view (looking along -Y): H=X, V=Z (SVG y inverted: top=Z_max)
    Side view (looking along -X): H=Y, V=Z (SVG y inverted: top=Z_max)
    Top view (looking along -Z): H=X, V=Y (SVG y = Y, increasing rearward)
  </desc>

  <style>
    .outline       { fill: none; stroke: #000; stroke-width: 1.5; }
    .outline-thin  { fill: none; stroke: #000; stroke-width: 0.75; }
    .hidden        { fill: none; stroke: #000; stroke-width: 0.75; stroke-dasharray: 6,3; }
    .center        { fill: none; stroke: #000; stroke-width: 0.4; stroke-dasharray: 14,3,3,3; }
    .dim           { fill: none; stroke: #333; stroke-width: 0.6; }
    .dim-text      { font-size: 10px; fill: #333; text-anchor: middle; }
    .dim-sm        { font-size: 9px; fill: #333; text-anchor: middle; }
    .label         { font-size: 12px; fill: #000; font-weight: bold; text-anchor: middle; }
    .note          { font-size: 9px; fill: #555; }
    .title-text    { font-size: 15px; fill: #000; font-weight: bold; text-anchor: middle; }
    .subtitle      { font-size: 10px; fill: #555; text-anchor: middle; }
    .arrow         { fill: #333; stroke: none; }
    .wht           { fill: #f0f0f0; stroke: #000; stroke-width: 1.2; }
    .mtl           { fill: #c8c8c8; stroke: #000; stroke-width: 1.2; }
    .spd           { fill: #888; stroke: #000; stroke-width: 0.8; }
    .rack          { fill: none; stroke: #000; stroke-width: 1.8; stroke-dasharray: 8,4; }
    .port          { fill: #fff; stroke: #000; stroke-width: 0.8; }
    .port-hole     { fill: #000; stroke: none; }
    .boss          { fill: none; stroke: #000; stroke-width: 0.6; }
  </style>

  <defs>
    <!-- Left-pointing arrowhead (attaches at tip, refX=8) -->
    <marker id="aL" markerWidth="8" markerHeight="6" refX="8" refY="3" orient="auto">
      <path d="M0,0 L8,3 L0,6 Z" class="arrow"/>
    </marker>
    <!-- Right-pointing arrowhead (attaches at tip, refX=0) -->
    <marker id="aR" markerWidth="8" markerHeight="6" refX="0" refY="3" orient="auto">
      <path d="M8,0 L0,3 L8,6 Z" class="arrow"/>
    </marker>
  </defs>

  <!-- ============ TITLE BLOCK ============ -->
  <text x="540" y="24" class="title-text">Valve Rack Assembly — 10x Beduan 2-Way NC Solenoid (5W x 2H)</text>
  <text x="540" y="40" class="subtitle">Scale 3.5 px/mm | Dimensions in mm (caliper-verified) | 37mm valve pitch c-c</text>

  <!-- ================================================================ -->
  <!-- FRONT VIEW  (looking along -Y, i.e. along tube flow axis)        -->
  <!--                                                                   -->
  <!-- H-axis = X (width), V-axis = Z (height, Z-up = SVG y-down)       -->
  <!-- Rack: 181mm W x 116mm H = 633.5 x 406 px                        -->
  <!--                                                                   -->
  <!-- Z mapping: svgY = (116 - Z_mm) * 3.5                             -->
  <!--   Z=116 => svgY=0  (rack top)                                    -->
  <!--   Z=0   => svgY=406 (rack bottom)                                -->
  <!--                                                                   -->
  <!-- Valve columns (left edge X in mm): 0, 37, 74, 111, 148           -->
  <!--   white body: 32.71mm wide = 114.49px                            -->
  <!--   metal centered: offset = (32.71-31.41)/2 = 0.65mm = 2.275px   -->
  <!--   metal body: 31.41mm wide = 109.94px                            -->
  <!--                                                                   -->
  <!-- Row 1 (bottom): Z=0..56                                          -->
  <!--   white:  Z=0..19.37     svgY=406..338.2  h=67.8px              -->
  <!--   metal:  Z=19.37..52.0  svgY=338.2..224.0 h=114.2px            -->
  <!--   spade:  Z=52..56       svgY=224..210     h=14px               -->
  <!--                                                                   -->
  <!-- Row 2 (top): Z=60..116                                           -->
  <!--   white:  Z=60..79.37    svgY=196..128.2   h=67.8px             -->
  <!--   metal:  Z=79.37..112   svgY=128.2..14    h=114.2px            -->
  <!--   spade:  Z=112..116     svgY=14..0         h=14px              -->
  <!-- ================================================================ -->

  <g id="front-view" transform="translate(24,62)">
    <text x="316.75" y="-10" class="label">FRONT VIEW (looking along -Y)</text>

    <!-- Rack envelope (dashed — this is the designed part) -->
    <rect x="0" y="0" width="633.5" height="406" class="rack"/>

    <!-- === ROW 1 (bottom, Z=0..56mm) === -->
    <!-- White body: 32.71W x 19.37H mm = 114.49 x 67.80 px -->
    <!-- Metal coil: 31.41W mm = 109.94px, centered offset 2.28px from white left -->
    <!-- Metal height (body only): 56-19.37-4(spade) = 32.63mm = 114.21px -->
    <!-- Spade connectors: into page along Y, show as small cross-sections ~3x4mm -->

    <!-- Col 0, Row 1 -->
    <rect x="0"      y="338.2" width="114.49" height="67.80" class="wht"/>
    <rect x="2.28"   y="224.0" width="109.94" height="114.21" class="mtl"/>
    <rect x="40"     y="210"   width="10" height="14" class="spd"/>
    <rect x="62"     y="210"   width="10" height="14" class="spd"/>

    <!-- Col 1, Row 1 -->
    <rect x="129.5"  y="338.2" width="114.49" height="67.80" class="wht"/>
    <rect x="131.78" y="224.0" width="109.94" height="114.21" class="mtl"/>
    <rect x="169.5"  y="210"   width="10" height="14" class="spd"/>
    <rect x="191.5"  y="210"   width="10" height="14" class="spd"/>

    <!-- Col 2, Row 1 -->
    <rect x="259.0"  y="338.2" width="114.49" height="67.80" class="wht"/>
    <rect x="261.28" y="224.0" width="109.94" height="114.21" class="mtl"/>
    <rect x="299"    y="210"   width="10" height="14" class="spd"/>
    <rect x="321"    y="210"   width="10" height="14" class="spd"/>

    <!-- Col 3, Row 1 -->
    <rect x="388.5"  y="338.2" width="114.49" height="67.80" class="wht"/>
    <rect x="390.78" y="224.0" width="109.94" height="114.21" class="mtl"/>
    <rect x="428.5"  y="210"   width="10" height="14" class="spd"/>
    <rect x="450.5"  y="210"   width="10" height="14" class="spd"/>

    <!-- Col 4, Row 1 -->
    <rect x="518.0"  y="338.2" width="114.49" height="67.80" class="wht"/>
    <rect x="520.28" y="224.0" width="109.94" height="114.21" class="mtl"/>
    <rect x="558"    y="210"   width="10" height="14" class="spd"/>
    <rect x="580"    y="210"   width="10" height="14" class="spd"/>

    <!-- === ROW 2 (top, Z=60..116mm) === -->
    <!-- Col 0, Row 2 -->
    <rect x="0"      y="128.2" width="114.49" height="67.80" class="wht"/>
    <rect x="2.28"   y="14.0"  width="109.94" height="114.21" class="mtl"/>
    <rect x="40"     y="0"     width="10" height="14" class="spd"/>
    <rect x="62"     y="0"     width="10" height="14" class="spd"/>

    <!-- Col 1, Row 2 -->
    <rect x="129.5"  y="128.2" width="114.49" height="67.80" class="wht"/>
    <rect x="131.78" y="14.0"  width="109.94" height="114.21" class="mtl"/>
    <rect x="169.5"  y="0"     width="10" height="14" class="spd"/>
    <rect x="191.5"  y="0"     width="10" height="14" class="spd"/>

    <!-- Col 2, Row 2 -->
    <rect x="259.0"  y="128.2" width="114.49" height="67.80" class="wht"/>
    <rect x="261.28" y="14.0"  width="109.94" height="114.21" class="mtl"/>
    <rect x="299"    y="0"     width="10" height="14" class="spd"/>
    <rect x="321"    y="0"     width="10" height="14" class="spd"/>

    <!-- Col 3, Row 2 -->
    <rect x="388.5"  y="128.2" width="114.49" height="67.80" class="wht"/>
    <rect x="390.78" y="14.0"  width="109.94" height="114.21" class="mtl"/>
    <rect x="428.5"  y="0"     width="10" height="14" class="spd"/>
    <rect x="450.5"  y="0"     width="10" height="14" class="spd"/>

    <!-- Col 4, Row 2 -->
    <rect x="518.0"  y="128.2" width="114.49" height="67.80" class="wht"/>
    <rect x="520.28" y="14.0"  width="109.94" height="114.21" class="mtl"/>
    <rect x="558"    y="0"     width="10" height="14" class="spd"/>
    <rect x="580"    y="0"     width="10" height="14" class="spd"/>

    <!-- Centerlines for columns 0 and 1 (through valve centers) -->
    <!-- Col 0 center: X = 32.71/2 = 16.355mm = 57.24px -->
    <!-- Col 1 center: X = 37 + 16.355 = 53.355mm = 186.74px -->
    <line x1="57.24" y1="-22" x2="57.24" y2="418" class="center"/>
    <line x1="186.74" y1="-22" x2="186.74" y2="418" class="center"/>

    <!-- ====== DIMENSIONS ====== -->

    <!-- Rack width 181mm (bottom) -->
    <line x1="0" y1="420" x2="0" y2="436" class="dim"/>
    <line x1="633.5" y1="420" x2="633.5" y2="436" class="dim"/>
    <line x1="0" y1="430" x2="633.5" y2="430" class="dim" marker-start="url(#aL)" marker-end="url(#aR)"/>
    <text x="316.75" y="445" class="dim-text">181mm (rack width, 5 valves)</text>

    <!-- Valve pitch 37mm (between col 0 and col 1 centers) -->
    <line x1="57.24" y1="452" x2="57.24" y2="472" class="dim"/>
    <line x1="186.74" y1="452" x2="186.74" y2="472" class="dim"/>
    <line x1="57.24" y1="466" x2="186.74" y2="466" class="dim" marker-start="url(#aL)" marker-end="url(#aR)"/>
    <text x="122" y="481" class="dim-text">37mm pitch</text>

    <!-- White body width 32.71mm (annotated on col 4, row 1) -->
    <line x1="518.0" y1="410" x2="518.0" y2="420" class="dim"/>
    <line x1="632.49" y1="410" x2="632.49" y2="420" class="dim"/>
    <line x1="518.0" y1="416" x2="632.49" y2="416" class="dim" marker-start="url(#aL)" marker-end="url(#aR)"/>
    <text x="575" y="413" class="dim-sm">32.71</text>

    <!-- Metal body width 31.41mm (annotated on col 4, row 1 metal) -->
    <text x="575" y="300" class="dim-sm" fill="#777">31.41 (metal)</text>

    <!-- Rack height 116mm (right side) -->
    <line x1="650" y1="0" x2="664" y2="0" class="dim"/>
    <line x1="650" y1="406" x2="664" y2="406" class="dim"/>
    <line x1="657" y1="0" x2="657" y2="406" class="dim" marker-start="url(#aL)" marker-end="url(#aR)"/>
    <text x="674" y="207" class="dim-text" transform="rotate(90,674,207)">116mm (rack H)</text>

    <!-- Valve total height 56mm (row 1, far right) -->
    <line x1="698" y1="210" x2="712" y2="210" class="dim"/>
    <line x1="698" y1="406" x2="712" y2="406" class="dim"/>
    <line x1="705" y1="210" x2="705" y2="406" class="dim" marker-start="url(#aL)" marker-end="url(#aR)"/>
    <text x="722" y="312" class="dim-text" transform="rotate(90,722,312)">56.00 valve H</text>

    <!-- White body height ~19.37mm (row 1, far right) -->
    <line x1="740" y1="338.2" x2="754" y2="338.2" class="dim"/>
    <line x1="740" y1="406"   x2="754" y2="406" class="dim"/>
    <line x1="747" y1="338.2" x2="747" y2="406" class="dim" marker-start="url(#aL)" marker-end="url(#aR)"/>
    <text x="763" y="376" class="dim-sm" transform="rotate(90,763,376)">~19.4 body</text>

    <!-- Metal+spade 36.63mm (row 1, far right) -->
    <line x1="778" y1="210" x2="792" y2="210" class="dim"/>
    <line x1="778" y1="338.2" x2="792" y2="338.2" class="dim"/>
    <line x1="785" y1="210" x2="785" y2="338.2" class="dim" marker-start="url(#aL)" marker-end="url(#aR)"/>
    <text x="802" y="278" class="dim-sm" transform="rotate(90,802,278)">36.63 coil+spade</text>

    <!-- 4mm gap annotation (between rows) -->
    <line x1="650" y1="196" x2="664" y2="196" class="dim"/>
    <line x1="650" y1="210" x2="664" y2="210" class="dim"/>
    <line x1="657" y1="196" x2="657" y2="210" class="dim" marker-start="url(#aL)" marker-end="url(#aR)"/>
    <text x="644" y="186" class="dim-sm">4mm gap</text>
  </g>

  <!-- ================================================================ -->
  <!-- SIDE VIEW  (looking along -X, i.e. from the right side)          -->
  <!--                                                                   -->
  <!-- H-axis = Y (depth), V-axis = Z (height, Z-up = SVG y-down)       -->
  <!-- Rack: 55mm D x 116mm H = 192.5 x 406 px                        -->
  <!--                                                                   -->
  <!-- Y mapping: svgX = Y_mm * 3.5                                     -->
  <!--   Y=0 => svgX=0 (front, port side)                              -->
  <!--   Y=55 => svgX=192.5 (rear)                                     -->
  <!--                                                                   -->
  <!-- Z mapping: same as front view (shared vertical axis)              -->
  <!--                                                                   -->
  <!-- White body centered in 55mm rack: (55-50.84)/2 = 2.08mm offset  -->
  <!--   Y=2.08..52.92 => svgX=7.28..185.22                            -->
  <!--   50.84mm = 177.94px                                             -->
  <!--                                                                   -->
  <!-- Metal coil centered on white body in Y. Estimated depth ~22mm    -->
  <!--   center at Y=27.5mm, so Y=16.5..38.5 => svgX=57.75..134.75    -->
  <!--                                                                   -->
  <!-- Spade connectors extend parallel to Y (horizontal in this view)  -->
  <!--   from top of metal body toward the rear                         -->
  <!--                                                                   -->
  <!-- All 5 columns overlap in this view — draw one T profile per row  -->
  <!-- ================================================================ -->

  <g id="side-view" transform="translate(860,62)">
    <text x="96.25" y="-10" class="label">SIDE VIEW (looking along -X)</text>

    <!-- Rack envelope -->
    <rect x="0" y="0" width="192.5" height="406" class="rack"/>

    <!-- === ROW 1 (bottom, Z=0..56mm) === -->

    <!-- White body: Y=2.08..52.92, Z=0..19.37 -->
    <rect x="7.28" y="338.2" width="177.94" height="67.80" class="wht"/>

    <!-- Metal coil housing: Y=16.5..38.5 (centered), Z=19.37..52.0 -->
    <rect x="57.75" y="224.0" width="77.0" height="114.21" class="mtl"/>

    <!-- Spade connectors: extend along Y from metal top, Z=52..56 -->
    <!-- Two thin blades extending toward rear (rightward), ~3mm tall each -->
    <rect x="96" y="213" width="30" height="3" class="spd"/>
    <rect x="96" y="220" width="30" height="3" class="spd"/>

    <!-- Tube port stubs (front and rear faces of white body) -->
    <!-- Port center at roughly Z=9.7mm (mid-height of white body) -->
    <!-- svgY for Z=9.7: (116-9.7)*3.5 = 372.05 -->
    <circle cx="7.28"   cy="372" r="5.5" class="port"/>
    <circle cx="7.28"   cy="372" r="1.8" class="port-hole"/>
    <circle cx="185.22" cy="372" r="5.5" class="port"/>
    <circle cx="185.22" cy="372" r="1.8" class="port-hole"/>

    <!-- Hidden lines: white body sides behind metal coil (dashed) -->
    <!-- Left side of white body visible below metal; top of white body hidden behind metal -->
    <line x1="7.28" y1="338.2" x2="57.75" y2="338.2" class="hidden"/>
    <line x1="134.75" y1="338.2" x2="185.22" y2="338.2" class="hidden"/>

    <!-- === ROW 2 (top, Z=60..116mm) === -->

    <!-- White body: Y=2.08..52.92, Z=60..79.37 -->
    <rect x="7.28" y="128.2" width="177.94" height="67.80" class="wht"/>

    <!-- Metal coil housing: centered, Z=79.37..112 -->
    <rect x="57.75" y="14.0" width="77.0" height="114.21" class="mtl"/>

    <!-- Spade connectors: Z=112..116, extend toward rear -->
    <rect x="96" y="3"  width="30" height="3" class="spd"/>
    <rect x="96" y="10" width="30" height="3" class="spd"/>

    <!-- Tube ports, row 2 -->
    <!-- Port center Z=69.7mm => svgY=(116-69.7)*3.5=162.05 -->
    <circle cx="7.28"   cy="162" r="5.5" class="port"/>
    <circle cx="7.28"   cy="162" r="1.8" class="port-hole"/>
    <circle cx="185.22" cy="162" r="5.5" class="port"/>
    <circle cx="185.22" cy="162" r="1.8" class="port-hole"/>

    <!-- Hidden lines: white body top behind metal, row 2 -->
    <line x1="7.28" y1="128.2" x2="57.75" y2="128.2" class="hidden"/>
    <line x1="134.75" y1="128.2" x2="185.22" y2="128.2" class="hidden"/>

    <!-- Part labels -->
    <text x="96" y="382" class="note" text-anchor="middle" font-size="8px">white body</text>
    <text x="96" y="290" class="note" text-anchor="middle" font-size="8px">metal coil</text>
    <text x="96" y="206" class="note" text-anchor="middle" font-size="8px">(centered on body)</text>

    <!-- ====== DIMENSIONS ====== -->

    <!-- Rack depth 55mm (bottom) -->
    <line x1="0" y1="420" x2="0" y2="436" class="dim"/>
    <line x1="192.5" y1="420" x2="192.5" y2="436" class="dim"/>
    <line x1="0" y1="430" x2="192.5" y2="430" class="dim" marker-start="url(#aL)" marker-end="url(#aR)"/>
    <text x="96.25" y="445" class="dim-text">55mm (rack depth)</text>

    <!-- White body depth 50.84mm -->
    <line x1="7.28" y1="450" x2="7.28" y2="466" class="dim"/>
    <line x1="185.22" y1="450" x2="185.22" y2="466" class="dim"/>
    <line x1="7.28" y1="460" x2="185.22" y2="460" class="dim" marker-start="url(#aL)" marker-end="url(#aR)"/>
    <text x="96.25" y="475" class="dim-text">50.84mm body depth</text>
  </g>

  <!-- ================================================================ -->
  <!-- TOP VIEW  (looking along -Z, downward)                          -->
  <!--                                                                   -->
  <!-- H-axis = X (width), V-axis = Y (depth, Y+ = rear = SVG y+)      -->
  <!-- Rack: 181mm W x 55mm D = 633.5 x 192.5 px                      -->
  <!--                                                                   -->
  <!-- X mapping: same as front view (shared horizontal axis)            -->
  <!-- Y mapping: svgY = Y_mm * 3.5                                     -->
  <!--   Y=0 => svgY=0 (front, ports)                                  -->
  <!--   Y=55 => svgY=192.5 (rear)                                     -->
  <!--                                                                   -->
  <!-- Row 2 (higher Z) fully occludes row 1 from above.               -->
  <!-- Draw one set of 5 valve footprints.                              -->
  <!-- From above: white body is the outermost (widest), with metal     -->
  <!--   body visible in center, and diaphragm boss on top of white.    -->
  <!-- Spade connectors extend along Y from metal body toward rear.     -->
  <!-- ================================================================ -->

  <g id="top-view" transform="translate(24,582)">
    <text x="316.75" y="-22" class="label">TOP VIEW (looking along -Z)</text>

    <!-- Rack envelope -->
    <rect x="0" y="0" width="633.5" height="192.5" class="rack"/>

    <!-- White body: centered in Y => offset 2.08mm=7.28px, depth 50.84mm=177.94px -->
    <!-- Metal body: centered in Y => Y=16.5..38.5mm = svgY 57.75..134.75, depth 77px -->
    <!--             centered in X => same offset as front view (0.65mm=2.28px from white edge) -->
    <!-- Spade connectors: thin blades extending along Y from metal body toward rear -->
    <!-- Diaphragm boss: circular feature visible on top of white body, centered -->

    <!-- Col 0 -->
    <rect x="0"      y="7.28"  width="114.49" height="177.94" class="wht"/>
    <rect x="2.28"   y="57.75" width="109.94" height="77.0"   class="mtl"/>
    <rect x="42"     y="134.75" width="3" height="22" class="spd"/>
    <rect x="68"     y="134.75" width="3" height="22" class="spd"/>
    <circle cx="57.24" cy="96.25" r="12" class="boss"/>

    <!-- Col 1 -->
    <rect x="129.5"  y="7.28"  width="114.49" height="177.94" class="wht"/>
    <rect x="131.78" y="57.75" width="109.94" height="77.0"   class="mtl"/>
    <rect x="171.5"  y="134.75" width="3" height="22" class="spd"/>
    <rect x="197.5"  y="134.75" width="3" height="22" class="spd"/>
    <circle cx="186.74" cy="96.25" r="12" class="boss"/>

    <!-- Col 2 -->
    <rect x="259.0"  y="7.28"  width="114.49" height="177.94" class="wht"/>
    <rect x="261.28" y="57.75" width="109.94" height="77.0"   class="mtl"/>
    <rect x="301"    y="134.75" width="3" height="22" class="spd"/>
    <rect x="327"    y="134.75" width="3" height="22" class="spd"/>
    <circle cx="316.24" cy="96.25" r="12" class="boss"/>

    <!-- Col 3 -->
    <rect x="388.5"  y="7.28"  width="114.49" height="177.94" class="wht"/>
    <rect x="390.78" y="57.75" width="109.94" height="77.0"   class="mtl"/>
    <rect x="430.5"  y="134.75" width="3" height="22" class="spd"/>
    <rect x="456.5"  y="134.75" width="3" height="22" class="spd"/>
    <circle cx="445.74" cy="96.25" r="12" class="boss"/>

    <!-- Col 4 -->
    <rect x="518.0"  y="7.28"  width="114.49" height="177.94" class="wht"/>
    <rect x="520.28" y="57.75" width="109.94" height="77.0"   class="mtl"/>
    <rect x="560"    y="134.75" width="3" height="22" class="spd"/>
    <rect x="586"    y="134.75" width="3" height="22" class="spd"/>
    <circle cx="575.24" cy="96.25" r="12" class="boss"/>

    <!-- Tube port hidden outlines (dashed) — ports are below top surface -->
    <!-- Front ports at Y~2.08mm (behind white body front face) -->
    <!-- Rear ports at Y~52.92mm (behind white body rear face) -->
    <!-- Show as hidden circles on cols 0 and 4 for clarity -->
    <circle cx="57.24" cy="7.28" r="5" class="hidden"/>
    <circle cx="57.24" cy="185.22" r="5" class="hidden"/>
    <circle cx="575.24" cy="7.28" r="5" class="hidden"/>
    <circle cx="575.24" cy="185.22" r="5" class="hidden"/>

    <!-- Centerlines for columns 0 and 1 (aligned with front view) -->
    <line x1="57.24"  y1="-5" x2="57.24"  y2="198" class="center"/>
    <line x1="186.74" y1="-5" x2="186.74" y2="198" class="center"/>

    <!-- Orientation label -->
    <text x="316.75" y="214" class="note" text-anchor="middle" font-style="italic" font-size="8px">front (Y=0, tube ports) at top; rear (spade connectors) at bottom</text>

    <!-- Depth dimension (right side) -->
    <line x1="648" y1="0"     x2="662" y2="0" class="dim"/>
    <line x1="648" y1="192.5" x2="662" y2="192.5" class="dim"/>
    <line x1="655" y1="0" x2="655" y2="192.5" class="dim" marker-start="url(#aL)" marker-end="url(#aR)"/>
    <text x="674" y="100" class="dim-text" transform="rotate(90,674,100)">55mm</text>
  </g>

  <!-- ================================================================ -->
  <!-- NOTES BLOCK                                                       -->
  <!-- ================================================================ -->
  <g id="notes" transform="translate(860,582)">
    <text x="0" y="0" class="label" text-anchor="start">NOTES</text>
    <text x="0" y="18" class="note">1. 10x Beduan 2-way NC solenoid (B07NWCQJK9)</text>
    <text x="0" y="32" class="note">2. 5-wide x 2-high grid, 37mm pitch (X)</text>
    <text x="0" y="46" class="note">3. 4mm gap between rows (Z direction)</text>
    <text x="0" y="60" class="note">4. T-shaped valve: horizontal white body</text>
    <text x="0" y="72" class="note">   + vertical metal coil (centered on body)</text>
    <text x="0" y="86" class="note">5. No built-in mounting features on valve</text>
    <text x="0" y="100" class="note">6. Cradle design: saddle + snap-over clips</text>
    <text x="0" y="114" class="note">7. QC tube ports along Y axis (both ends)</text>
    <text x="0" y="128" class="note">8. Spade connectors at Z-top, parallel to Y</text>
    <text x="0" y="142" class="note">9. Rack pos: Y=140-195, X=16-197, Z=0-116</text>
    <text x="0" y="166" class="note" font-weight="bold">Caliper-verified dimensions (mm):</text>
    <text x="0" y="180" class="note">  White body: 32.71W x 50.84D x ~19.4H</text>
    <text x="0" y="194" class="note">  Metal coil W: 31.41 | Coil+spade H: 36.63</text>
    <text x="0" y="208" class="note">  Total valve H: 56.00 | Pitch: 37 c-c</text>
    <text x="0" y="222" class="note">  Rack envelope: 181W x 55D x 116H</text>
  </g>

</svg>
