<?xml version="1.0" encoding="UTF-8"?>
<!--
  Valve Rack Assembly — Engineering Drawing
  Standard third-angle projection (FRONT / SIDE / TOP)
  Scale: 3px = 1mm
  Canvas: 1200 × 800 px

  AXIS LOOKUP TABLE:
    VIEW       | LOOKING ALONG | HORIZ AXIS | VERT AXIS
    Front      | -Y            | X (width)  | Z (height)
    Side       | -X            | Y (depth)  | Z (height)
    Top        | -Z            | X (width)  | Y (depth)

  Rack dimensions (mm):
    Frame envelope:  181W x 55D x 116H
    Valve body:      32.71W(X) x 50.84D(Y) x ~19.4H(Z)
    Coil housing:    31.41W(X), 36.63H(Z) above bottom of white body; total valve H=56mm
    Valve pitch X:   37mm c-t-c (5 per row)
    Valve centers X: 16.36, 53.36, 90.36, 127.36, 164.36 mm (rack-local)
    Valve centers Z: 28mm (row 1), 88mm (row 2)
    Row 1: Z=0 to 56mm;  Row 2: Z=60 to 116mm

  PIXEL COORDINATE FORMULAS (at 3px/mm):
    Front view origin top-left: (Fx=30, Fztop=80)
      px_x = 30 + rack_x_mm * 3
      px_z = 80 + (116 - rack_z_mm) * 3   [Z=116 maps to y=80, Z=0 maps to y=428]

    Side view origin top-left: (Sx=633, Sztop=80)  [shares Z pixels with front]
      px_y = 633 + rack_y_mm * 3
      px_z = 80 + (116 - rack_z_mm) * 3

    Top view origin top-left: (Tx=30, Tytop=490) [shares X pixels with front]
      px_x = 30 + rack_x_mm * 3
      px_y = 490 + rack_y_mm * 3
-->
<svg xmlns="http://www.w3.org/2000/svg"
     width="1200" height="800"
     viewBox="0 0 1200 800"
     style="background:#fff">

  <style>
    .outline  { fill:none; stroke:#000; stroke-width:1.5; }
    .thin     { fill:none; stroke:#000; stroke-width:0.9; }
    .hidden   { fill:none; stroke:#000; stroke-width:0.7; stroke-dasharray:4,3; }
    .dim-line { fill:none; stroke:#444; stroke-width:0.6; }
    .ctrline  { fill:none; stroke:#000; stroke-width:0.5; stroke-dasharray:8,3,2,3; }
    .dim-text { font-family:Arial,Helvetica,sans-serif; font-size:9px; fill:#000; }
    .label    { font-family:Arial,Helvetica,sans-serif; font-size:11px; font-weight:bold; fill:#000; }
    .title    { font-family:Arial,Helvetica,sans-serif; font-size:13px; font-weight:bold; fill:#000; }
    .subtitle { font-family:Arial,Helvetica,sans-serif; font-size:9.5px; fill:#000; }
    .annot    { font-family:Arial,Helvetica,sans-serif; font-size:8px; fill:#333; }
  </style>

  <!-- ════════════════════════════════════════════════════════
       FRONT VIEW  (looking along -Y, shows X-Z plane)
       Box: x=30..573  y=80..428   (181mm x 116mm at 3px/mm)
       Z=116 at pixel y=80, Z=0 at pixel y=428
  ════════════════════════════════════════════════════════ -->
  <text x="301.5" y="72" class="label" text-anchor="middle">FRONT VIEW</text>

  <!-- Rack outer frame -->
  <rect x="30" y="80" width="543" height="348" class="outline"/>

  <!-- Row-gap horizontal lines (Z=56 → y=428-56*3=260; Z=60 → y=428-60*3=248) -->
  <line x1="30"  y1="260" x2="573" y2="260" class="thin"/>
  <line x1="30"  y1="248" x2="573" y2="248" class="thin"/>

  <!--
    FRONT VIEW VALVE GEOMETRY (T-profile in X-Z):
      White body: width=32.71mm=98.1px, height=19.4mm=58.2px
        Row 1: bottom at Z=0 (y=428), top at Z=19.4 (y=428-58.2=369.8 -> 370)
        Row 2: bottom at Z=60 (y=248), top at Z=79.4 (y=248-58.2=189.8 -> 190)
      Coil housing: width=31.41mm=94.2px, from Z=19.4 to Z=56 (height=36.6mm=109.8px -> 110px)
        Row 1: y=260 to y=370
        Row 2: y=80 to y=190
      Spade stubs: shown as 2 small rects at top of coil (symbolic 5px wide, 6px tall)
        cx_mm values: 16.36, 53.36, 90.36, 127.36, 164.36
        body_left = 30 + (cx - 16.355)*3
        coil_left = 30 + (cx - 15.705)*3
        spade_L_cx = cx_px - 6, spade_R_cx = cx_px + 6  (approx 4mm apart each side)
      cx pixel values:
        cx1=30+16.36*3=79.1  cx2=30+53.36*3=190.1  cx3=30+90.36*3=301.1
        cx4=30+127.36*3=412.1  cx5=30+164.36*3=523.1
      body_left pixel:
        bl1=30+(16.36-16.355)*3=30.0  bl2=30+(53.36-16.355)*3=141.0
        bl3=30+(90.36-16.355)*3=252.0  bl4=30+(127.36-16.355)*3=363.0
        bl5=30+(164.36-16.355)*3=474.0
      coil_left pixel:
        cl1=30+(16.36-15.705)*3=32.0  cl2=30+(53.36-15.705)*3=143.0
        cl3=30+(90.36-15.705)*3=254.0  cl4=30+(127.36-15.705)*3=365.0
        cl5=30+(164.36-15.705)*3=476.0
  -->

  <!-- ROW 1 (bottom, Z=0–56, y=428 to y=260) -->
  <!-- V1 body -->
  <rect x="30.0"  y="370" width="98.1" height="58" class="thin"/>
  <rect x="32.0"  y="260" width="94.2" height="110" class="thin"/>
  <rect x="71.1"  y="254" width="5"    height="6"  class="thin"/>
  <rect x="83.1"  y="254" width="5"    height="6"  class="thin"/>
  <!-- V2 -->
  <rect x="141.0" y="370" width="98.1" height="58" class="thin"/>
  <rect x="143.0" y="260" width="94.2" height="110" class="thin"/>
  <rect x="182.1" y="254" width="5"    height="6"  class="thin"/>
  <rect x="194.1" y="254" width="5"    height="6"  class="thin"/>
  <!-- V3 -->
  <rect x="252.0" y="370" width="98.1" height="58" class="thin"/>
  <rect x="254.0" y="260" width="94.2" height="110" class="thin"/>
  <rect x="293.1" y="254" width="5"    height="6"  class="thin"/>
  <rect x="305.1" y="254" width="5"    height="6"  class="thin"/>
  <!-- V4 -->
  <rect x="363.0" y="370" width="98.1" height="58" class="thin"/>
  <rect x="365.0" y="260" width="94.2" height="110" class="thin"/>
  <rect x="404.1" y="254" width="5"    height="6"  class="thin"/>
  <rect x="416.1" y="254" width="5"    height="6"  class="thin"/>
  <!-- V5 -->
  <rect x="474.0" y="370" width="98.1" height="58" class="thin"/>
  <rect x="476.0" y="260" width="94.2" height="110" class="thin"/>
  <rect x="515.1" y="254" width="5"    height="6"  class="thin"/>
  <rect x="527.1" y="254" width="5"    height="6"  class="thin"/>

  <!-- ROW 2 (top, Z=60–116, y=248 to y=80) -->
  <!-- V6 body: row2 bottom at y=248, row2_body_top at y=190 -->
  <rect x="30.0"  y="190" width="98.1" height="58" class="thin"/>
  <rect x="32.0"  y="80"  width="94.2" height="110" class="thin"/>
  <rect x="71.1"  y="74"  width="5"    height="6"  class="thin"/>
  <rect x="83.1"  y="74"  width="5"    height="6"  class="thin"/>
  <!-- V7 -->
  <rect x="141.0" y="190" width="98.1" height="58" class="thin"/>
  <rect x="143.0" y="80"  width="94.2" height="110" class="thin"/>
  <rect x="182.1" y="74"  width="5"    height="6"  class="thin"/>
  <rect x="194.1" y="74"  width="5"    height="6"  class="thin"/>
  <!-- V8 -->
  <rect x="252.0" y="190" width="98.1" height="58" class="thin"/>
  <rect x="254.0" y="80"  width="94.2" height="110" class="thin"/>
  <rect x="293.1" y="74"  width="5"    height="6"  class="thin"/>
  <rect x="305.1" y="74"  width="5"    height="6"  class="thin"/>
  <!-- V9 -->
  <rect x="363.0" y="190" width="98.1" height="58" class="thin"/>
  <rect x="365.0" y="80"  width="94.2" height="110" class="thin"/>
  <rect x="404.1" y="74"  width="5"    height="6"  class="thin"/>
  <rect x="416.1" y="74"  width="5"    height="6"  class="thin"/>
  <!-- V10 -->
  <rect x="474.0" y="190" width="98.1" height="58" class="thin"/>
  <rect x="476.0" y="80"  width="94.2" height="110" class="thin"/>
  <rect x="515.1" y="74"  width="5"    height="6"  class="thin"/>
  <rect x="527.1" y="74"  width="5"    height="6"  class="thin"/>

  <!-- Valve labels -->
  <text x="79.1"  y="406" class="annot" text-anchor="middle">v1</text>
  <text x="190.1" y="406" class="annot" text-anchor="middle">v2</text>
  <text x="301.1" y="406" class="annot" text-anchor="middle">v3</text>
  <text x="412.1" y="406" class="annot" text-anchor="middle">v4</text>
  <text x="523.1" y="406" class="annot" text-anchor="middle">v5</text>
  <text x="79.1"  y="226" class="annot" text-anchor="middle">v6</text>
  <text x="190.1" y="226" class="annot" text-anchor="middle">v7</text>
  <text x="301.1" y="226" class="annot" text-anchor="middle">v8</text>
  <text x="412.1" y="226" class="annot" text-anchor="middle">v9</text>
  <text x="523.1" y="226" class="annot" text-anchor="middle">v10</text>

  <!-- Row labels -->
  <text x="15"  y="350" class="annot" text-anchor="middle" transform="rotate(-90,15,350)">ROW 1</text>
  <text x="15"  y="170" class="annot" text-anchor="middle" transform="rotate(-90,15,170)">ROW 2</text>

  <!-- ════════════════════════════════════════════════════════
       FRONT VIEW DIMENSIONS
  ════════════════════════════════════════════════════════ -->

  <!-- Overall width 181mm — below front view -->
  <line x1="30"   y1="440" x2="573"  y2="440" class="dim-line"/>
  <line x1="30"   y1="434" x2="30"   y2="446" class="dim-line"/>
  <line x1="573"  y1="434" x2="573"  y2="446" class="dim-line"/>
  <text x="301.5" y="452"  class="dim-text" text-anchor="middle">181</text>

  <!-- Overall height 116mm — left of front view -->
  <line x1="20"  y1="80"  x2="20"  y2="428" class="dim-line"/>
  <line x1="14"  y1="80"  x2="26"  y2="80"  class="dim-line"/>
  <line x1="14"  y1="428" x2="26"  y2="428" class="dim-line"/>
  <text x="9"    y="258"  class="dim-text" text-anchor="middle"
        transform="rotate(-90,9,258)">116</text>

  <!-- Valve pitch 37mm — above row 2, between V6 and V7 centers (cx1=79.1, cx2=190.1) -->
  <line x1="79.1"  y1="65" x2="190.1" y2="65" class="dim-line"/>
  <line x1="79.1"  y1="59" x2="79.1"  y2="71" class="dim-line"/>
  <line x1="190.1" y1="59" x2="190.1" y2="71" class="dim-line"/>
  <text x="134.6"  y="62"  class="dim-text" text-anchor="middle">37 PITCH</text>

  <!-- Body width 32.71mm — first valve body bottom (V1: x=30..128.1) -->
  <line x1="30"   y1="460" x2="128.1" y2="460" class="dim-line"/>
  <line x1="30"   y1="454" x2="30"    y2="466" class="dim-line"/>
  <line x1="128.1" y1="454" x2="128.1" y2="466" class="dim-line"/>
  <text x="79.1"  y="472"  class="dim-text" text-anchor="middle">32.71</text>

  <!-- Coil width 31.41mm — V1 coil (x=32..126.2 = 94.2px) -->
  <line x1="32.0"  y1="244" x2="126.2" y2="244" class="dim-line"/>
  <line x1="32.0"  y1="238" x2="32.0"  y2="250" class="dim-line"/>
  <line x1="126.2" y1="238" x2="126.2" y2="250" class="dim-line"/>
  <text x="79.1"   y="241"  class="dim-text" text-anchor="middle">31.41</text>

  <!-- Body height 19.4mm — V1 right side (y=370..428 = 58px) -->
  <line x1="580" y1="370" x2="580" y2="428" class="dim-line"/>
  <line x1="574" y1="370" x2="586" y2="370" class="dim-line"/>
  <line x1="574" y1="428" x2="586" y2="428" class="dim-line"/>
  <text x="591"  y="403"  class="dim-text" text-anchor="start">19.4</text>

  <!-- Coil height 36.63mm — V1 right side (y=260..370 = 110px) -->
  <line x1="592" y1="260" x2="592" y2="370" class="dim-line"/>
  <line x1="586" y1="260" x2="598" y2="260" class="dim-line"/>
  <line x1="586" y1="370" x2="598" y2="370" class="dim-line"/>
  <text x="602"  y="319"  class="dim-text" text-anchor="start">36.63</text>

  <!-- Total valve height 56mm — V1 far right (y=260..428 = 168px) -->
  <line x1="606" y1="260" x2="606" y2="428" class="dim-line"/>
  <line x1="600" y1="260" x2="612" y2="260" class="dim-line"/>
  <line x1="600" y1="428" x2="612" y2="428" class="dim-line"/>
  <text x="616"  y="348"  class="dim-text" text-anchor="start">56 TOT</text>

  <!-- Row gap 4mm — right side (y=248..260 = 12px) -->
  <line x1="578" y1="248" x2="578" y2="260" class="dim-line"/>
  <line x1="573" y1="248" x2="583" y2="248" class="dim-line"/>
  <line x1="573" y1="260" x2="583" y2="260" class="dim-line"/>
  <text x="586"  y="257"  class="dim-text" text-anchor="start">4</text>

  <!-- ════════════════════════════════════════════════════════
       SIDE VIEW  (looking along -X, shows Y-Z plane)
       Box: x=633..798  y=80..428   (55mm x 116mm at 3px/mm)
       Y axis: left=Y=0 (front face), right=Y=55mm
       Z axis: same pixels as front view
  ════════════════════════════════════════════════════════ -->
  <text x="715.5" y="72" class="label" text-anchor="middle">SIDE VIEW</text>

  <!-- Rack outer frame -->
  <rect x="633" y="80" width="165" height="348" class="outline"/>

  <!-- Row-gap lines (same Z pixels as front) -->
  <line x1="633" y1="260" x2="798" y2="260" class="thin"/>
  <line x1="633" y1="248" x2="798" y2="248" class="thin"/>

  <!--
    SIDE VIEW VALVE GEOMETRY (looking along -X, sees Y-Z):
      All 5 columns project onto the same Y-Z silhouette (identical geometry).
      Show the composite valve profile:
        White body: Y=0..50.84mm = x=633..785.5 (152.5px), Z same as front
        Coil housing: same Y extent as body (coil Y-depth unknown; use body depth conservatively)
          Coil: x=633..785.5, same Z as coil in front view
        QC port stubs: shown as small circles at Y=0 and Y=50.84, at body mid-height
          Z_port_center = 9.7mm (half of 19.4) → y = 428-9.7*3=398.9 ≈ 399 (row1)
          Z_port_center_row2 = 60+9.7=69.7 → y=428-69.7*3=218.9 ≈ 219 (row2)
        Spade stubs (side view): spades extend along Y (horizontal in this view)
          They protrude from top of coil along Y.
          Spade body width in Y: ~8-10mm (approx)
          Shown as short horizontal rectangles at top of coil at Z=56/116
          Two spades at ~Y=20..28mm and Y=26..34mm (symbolic, centered)
          px_y1=633+20*3=693, px_y2=633+28*3=717  (spade L)
          px_y3=633+26*3=711, px_y4=633+34*3=735  (spade R)
          px_z_row1_top = 428-56*3 = 260; spade above: y=254..260
          px_z_row2_top = 428-116*3 = 80;  spade above: y=74..80
  -->

  <!-- SIDE VIEW — ROW 1 (Z=0..56, y=428..260) -->
  <rect x="633"   y="370" width="152.5" height="58"  class="thin"/>  <!-- white body -->
  <rect x="633"   y="260" width="152.5" height="110" class="thin"/>  <!-- coil housing -->
  <!-- Spade stubs (horizontal rects in side view, at top of coil) -->
  <rect x="693"   y="254" width="20"    height="6"   class="thin"/>  <!-- spade L -->
  <rect x="722"   y="254" width="20"    height="6"   class="thin"/>  <!-- spade R -->
  <!-- QC port circles at Y=0 (x=633) and Y=50.84 (x=785.5), Z=9.7mm (y=399) -->
  <circle cx="633"   cy="399" r="5" class="thin"/>
  <circle cx="785.5" cy="399" r="5" class="thin"/>

  <!-- SIDE VIEW — ROW 2 (Z=60..116, y=248..80) -->
  <rect x="633"   y="190" width="152.5" height="58"  class="thin"/>  <!-- white body -->
  <rect x="633"   y="80"  width="152.5" height="110" class="thin"/>  <!-- coil housing -->
  <!-- Spade stubs row 2 -->
  <rect x="693"   y="74"  width="20"    height="6"   class="thin"/>
  <rect x="722"   y="74"  width="20"    height="6"   class="thin"/>
  <!-- QC port circles row 2: Z=69.7mm → y=219 -->
  <circle cx="633"   cy="219" r="5" class="thin"/>
  <circle cx="785.5" cy="219" r="5" class="thin"/>

  <!-- SIDE VIEW DIMENSIONS -->
  <!-- Rack depth 55mm — below side view -->
  <line x1="633" y1="440" x2="798" y2="440" class="dim-line"/>
  <line x1="633" y1="434" x2="633" y2="446" class="dim-line"/>
  <line x1="798" y1="434" x2="798" y2="446" class="dim-line"/>
  <text x="715.5" y="452" class="dim-text" text-anchor="middle">55</text>

  <!-- Valve depth Y=50.84mm — slightly further below -->
  <line x1="633"   y1="456" x2="785.5" y2="456" class="dim-line"/>
  <line x1="633"   y1="450" x2="633"   y2="462" class="dim-line"/>
  <line x1="785.5" y1="450" x2="785.5" y2="462" class="dim-line"/>
  <text x="709.3"  y="469"  class="dim-text" text-anchor="middle">50.84</text>

  <!-- QC port annotation (moved below the 19.4 dim text at y=403) -->
  <text x="640"  y="420" class="annot" text-anchor="start">QC PORTS</text>

  <!-- Spade connector annotation (side view, moved below row gap at y=265) -->
  <text x="725"  y="272" class="annot" text-anchor="start">SPADES (Y)</text>

  <!-- ════════════════════════════════════════════════════════
       TOP VIEW  (looking along -Z, shows X-Y plane)
       Box: x=30..573 (same X as front), y=490..655  (55mm*3=165px)
       X axis: same as front view
       Y axis: top=Y=0 (front face), bottom=Y=55mm (rear face)
  ════════════════════════════════════════════════════════ -->
  <text x="301.5" y="482" class="label" text-anchor="middle">TOP VIEW</text>

  <!-- Rack outer frame -->
  <rect x="30" y="490" width="543" height="165" class="outline"/>

  <!--
    TOP VIEW VALVE GEOMETRY (looking along -Z, sees X-Y):
      Both rows project to the same X-Y footprint (different Z, both visible from above).
      Per column, show one footprint (row 1 solid, row 2 dashed — they overlap perfectly).
      Actually from above both rows are visible; show solid lines since no occlusion in Z.
      White body footprint: width=98.1px (X), depth=152.5px (Y=50.84mm)
        body_front = 490 + 0*3 = 490  (Y=0)
        body_rear  = 490 + 50.84*3 = 642.5  (Y=50.84mm)
      Coil footprint: coil_left=cl, width=94.2px, same Y depth
      QC port stubs: circles at Y=0 (y=490) and Y=50.84 (y=642.5), centered in X on body
      Spade stubs (top view): spades extend along Y within coil footprint
        Show as small rects inside coil, at body Y-center area
        Spade pairs centered ~Y=25mm: y=490+25*3=565 ... y=490+27*3=571
  -->

  <!-- COLUMN 1: cx_mm=16.36, body_left=30.0, coil_left=32.0 -->
  <rect x="30.0"  y="490" width="98.1" height="152.5" class="thin"/>
  <rect x="32.0"  y="490" width="94.2" height="152.5" class="thin"/>
  <circle cx="79.1" cy="490"   r="4" class="thin"/>
  <circle cx="79.1" cy="642.5" r="4" class="thin"/>
  <!-- spade stubs in top view (small rects at Y~25mm = y=565) -->
  <rect x="71.1"  y="563" width="5" height="10" class="thin"/>
  <rect x="83.1"  y="563" width="5" height="10" class="thin"/>

  <!-- COLUMN 2: cx_mm=53.36, body_left=141.0, coil_left=143.0 -->
  <rect x="141.0" y="490" width="98.1" height="152.5" class="thin"/>
  <rect x="143.0" y="490" width="94.2" height="152.5" class="thin"/>
  <circle cx="190.1" cy="490"   r="4" class="thin"/>
  <circle cx="190.1" cy="642.5" r="4" class="thin"/>
  <rect x="182.1" y="563" width="5" height="10" class="thin"/>
  <rect x="194.1" y="563" width="5" height="10" class="thin"/>

  <!-- COLUMN 3: cx_mm=90.36, body_left=252.0, coil_left=254.0 -->
  <rect x="252.0" y="490" width="98.1" height="152.5" class="thin"/>
  <rect x="254.0" y="490" width="94.2" height="152.5" class="thin"/>
  <circle cx="301.1" cy="490"   r="4" class="thin"/>
  <circle cx="301.1" cy="642.5" r="4" class="thin"/>
  <rect x="293.1" y="563" width="5" height="10" class="thin"/>
  <rect x="305.1" y="563" width="5" height="10" class="thin"/>

  <!-- COLUMN 4: cx_mm=127.36, body_left=363.0, coil_left=365.0 -->
  <rect x="363.0" y="490" width="98.1" height="152.5" class="thin"/>
  <rect x="365.0" y="490" width="94.2" height="152.5" class="thin"/>
  <circle cx="412.1" cy="490"   r="4" class="thin"/>
  <circle cx="412.1" cy="642.5" r="4" class="thin"/>
  <rect x="404.1" y="563" width="5" height="10" class="thin"/>
  <rect x="416.1" y="563" width="5" height="10" class="thin"/>

  <!-- COLUMN 5: cx_mm=164.36, body_left=474.0, coil_left=476.0 -->
  <rect x="474.0" y="490" width="98.1" height="152.5" class="thin"/>
  <rect x="476.0" y="490" width="94.2" height="152.5" class="thin"/>
  <circle cx="523.1" cy="490"   r="4" class="thin"/>
  <circle cx="523.1" cy="642.5" r="4" class="thin"/>
  <rect x="515.1" y="563" width="5" height="10" class="thin"/>
  <rect x="527.1" y="563" width="5" height="10" class="thin"/>

  <!-- TOP VIEW DIMENSIONS -->
  <!-- Width 181mm — below top view -->
  <line x1="30"   y1="668" x2="573"  y2="668" class="dim-line"/>
  <line x1="30"   y1="662" x2="30"   y2="674" class="dim-line"/>
  <line x1="573"  y1="662" x2="573"  y2="674" class="dim-line"/>
  <text x="301.5" y="680"  class="dim-text" text-anchor="middle">181</text>

  <!-- Depth 55mm — right of top view -->
  <line x1="582" y1="490" x2="582" y2="655" class="dim-line"/>
  <line x1="576" y1="490" x2="588" y2="490" class="dim-line"/>
  <line x1="576" y1="655" x2="588" y2="655" class="dim-line"/>
  <text x="591"  y="576"  class="dim-text" text-anchor="start">55</text>

  <!-- Valve depth 50.84mm — right of top view, further out -->
  <line x1="598" y1="490"   x2="598" y2="642.5" class="dim-line"/>
  <line x1="592" y1="490"   x2="604" y2="490"   class="dim-line"/>
  <line x1="592" y1="642.5" x2="604" y2="642.5" class="dim-line"/>
  <text x="607"  y="570"    class="dim-text" text-anchor="start">50.84</text>

  <!-- Y-axis label for top view -->
  <text x="618" y="490" class="annot">FRONT</text>
  <text x="618" y="655" class="annot">REAR</text>

  <!-- ════════════════════════════════════════════════════════
       PROJECTION ALIGNMENT GUIDELINES (center-line style)
       Front-to-Top: share X (vertical lines connecting views)
       Front-to-Side: share Z (horizontal lines connecting views)
  ════════════════════════════════════════════════════════ -->
  <line x1="30"  y1="428" x2="30"  y2="490" class="ctrline"/>
  <line x1="573" y1="428" x2="573" y2="490" class="ctrline"/>
  <line x1="573" y1="80"  x2="633" y2="80"  class="ctrline"/>
  <line x1="573" y1="428" x2="633" y2="428" class="ctrline"/>
  <line x1="573" y1="248" x2="633" y2="248" class="ctrline"/>
  <line x1="573" y1="260" x2="633" y2="260" class="ctrline"/>

  <!-- ════════════════════════════════════════════════════════
       SPADE CONNECTOR ANNOTATION (front view callout)
  ════════════════════════════════════════════════════════ -->
  <text x="301.1" y="50"  class="annot" text-anchor="middle">SPADE CONNECTORS EXTEND ALONG Y (INTO PAGE)</text>
  <line x1="193.6" y1="52" x2="182.1" y2="70" class="dim-line"/>

  <!-- ════════════════════════════════════════════════════════
       TITLE BLOCK
  ════════════════════════════════════════════════════════ -->
  <rect x="820" y="490" width="360" height="290" class="outline"/>
  <line x1="820" y1="530" x2="1180" y2="530" class="thin"/>
  <line x1="820" y1="560" x2="1180" y2="560" class="thin"/>
  <line x1="820" y1="610" x2="1180" y2="610" class="thin"/>
  <line x1="820" y1="650" x2="1180" y2="650" class="thin"/>
  <line x1="820" y1="690" x2="1180" y2="690" class="thin"/>
  <line x1="820" y1="730" x2="1180" y2="730" class="thin"/>
  <line x1="1000" y1="560" x2="1000" y2="780" class="thin"/>

  <!-- Title -->
  <text x="1000" y="514" class="title"    text-anchor="middle">VALVE RACK ASSEMBLY</text>
  <text x="1000" y="527" class="subtitle" text-anchor="middle">3-VIEW ORTHOGRAPHIC — THIRD ANGLE PROJECTION</text>

  <!-- Row 1: Drawn By / Part No -->
  <text x="828" y="548" class="subtitle" font-weight="bold">DRAWN BY</text>
  <text x="1008" y="548" class="subtitle" font-weight="bold">PART NO.</text>
  <text x="828" y="558" class="subtitle">Claude Code</text>
  <text x="1008" y="558" class="subtitle">VR-001</text>

  <!-- Row 2: Material / Qty -->
  <text x="828" y="578" class="subtitle" font-weight="bold">MATERIAL</text>
  <text x="1008" y="578" class="subtitle" font-weight="bold">QTY</text>
  <text x="828" y="588" class="subtitle">Frame: PETG/ABS (3D printed)</text>
  <text x="1008" y="588" class="subtitle">1 frame + 10 valves</text>
  <text x="828" y="600" class="subtitle">Valves: Beduan B07NWCQJK9</text>

  <!-- Row 3: Scale / Date -->
  <text x="828" y="628" class="subtitle" font-weight="bold">SCALE</text>
  <text x="1008" y="628" class="subtitle" font-weight="bold">DATE</text>
  <text x="828" y="642" class="subtitle">3 px = 1 mm</text>
  <text x="1008" y="642" class="subtitle">2026-03-26</text>

  <!-- Row 4: Dimensions notes -->
  <text x="828" y="668" class="subtitle" font-weight="bold">KEY DIMENSIONS</text>
  <text x="828" y="682" class="subtitle">Frame: 181 x 55 x 116 mm</text>
  <text x="828" y="694" class="subtitle">5x2 grid, 37 mm X-pitch</text>
  <text x="1008" y="668" class="subtitle" font-weight="bold">UNITS</text>
  <text x="1008" y="682" class="subtitle">mm</text>

  <!-- Row 5: Valve dims -->
  <text x="828" y="710" class="subtitle" font-weight="bold">VALVE (per slot)</text>
  <text x="828" y="724" class="subtitle">Body: 32.71W x 50.84D x 19.4H</text>
  <text x="828" y="736" class="subtitle">Coil: 31.41W, 36.63H above body</text>
  <text x="1008" y="710" class="subtitle" font-weight="bold">PROJECTION</text>
  <text x="1008" y="724" class="subtitle">Third-angle</text>

  <!-- Row 6: Notes -->
  <text x="828" y="754" class="subtitle">Spade connectors extend along Y (parallel to tubes).</text>
  <text x="828" y="766" class="subtitle">QC tube ports on both Y faces. No built-in mtg features.</text>
  <text x="828" y="778" class="subtitle">Cradle: T-profile saddle + 2 snap clips per valve.</text>

</svg>
