<svg xmlns="http://www.w3.org/2000/svg" viewBox="0 0 1050 780" width="1050" height="780" font-family="Arial, Helvetica, sans-serif">
  <title>Cartridge Outer Shell — Engineering Drawing</title>

  <defs>
    <style>
      .outline { stroke: #000; stroke-width: 1.5; fill: none; }
      .hidden  { stroke: #000; stroke-width: 0.8; fill: none; stroke-dasharray: 6,3; }
      .thin    { stroke: #000; stroke-width: 0.5; fill: none; }
      .dim     { stroke: #333; stroke-width: 0.5; fill: none; }
      .dimtxt  { font-size: 9px; fill: #333; text-anchor: middle; }
      .dimtxts { font-size: 8px; fill: #333; text-anchor: start; }
      .label   { font-size: 11px; fill: #000; text-anchor: middle; font-weight: bold; }
      .note    { font-size: 8px; fill: #555; text-anchor: start; }
      .title   { font-size: 14px; fill: #000; text-anchor: middle; font-weight: bold; }
      .subtitle { font-size: 10px; fill: #444; text-anchor: middle; }
      .centerline { stroke: #666; stroke-width: 0.3; fill: none; stroke-dasharray: 12,3,2,3; }
      .hatch   { stroke: #999; stroke-width: 0.3; fill: none; }
    </style>
    <marker id="arrow" markerWidth="8" markerHeight="6" refX="8" refY="3" orient="auto">
      <path d="M0,0 L8,3 L0,6 Z" fill="#333"/>
    </marker>
    <marker id="arrowRev" markerWidth="8" markerHeight="6" refX="0" refY="3" orient="auto">
      <path d="M8,0 L0,3 L8,6 Z" fill="#333"/>
    </marker>
  </defs>

  <!-- Title block -->
  <text x="525" y="25" class="title">Cartridge Outer Shell</text>
  <text x="525" y="40" class="subtitle">148W x 130D x 80H mm  |  4mm wall  |  PETG</text>
  <line x1="30" y1="48" x2="1020" y2="48" class="thin"/>

  <!-- ============================================================ -->
  <!-- FRONT VIEW  (looking along -Y toward rear)                   -->
  <!-- Horiz = X (width 148mm)   Vert = Z (height 80mm)            -->
  <!-- Scale = 4.0 px/mm   =>  592 x 320 px                        -->
  <!-- Group origin at (70, 95)                                     -->
  <!-- Z=0 (bottom) at SVG y=320; Z=80 (top) at SVG y=0            -->
  <!-- ============================================================ -->
  <text x="366" y="72" class="label">FRONT VIEW</text>

  <g id="front-view" transform="translate(70, 85)">
    <!-- s=4.0. 148*4=592. 80*4=320 -->

    <!-- Exterior rectangle  148 x 80 mm -->
    <rect x="0" y="0" width="592" height="320" class="outline"/>

    <!-- 5mm x 45-deg chamfers: 5*4=20px -->
    <line x1="0" y1="20" x2="20" y2="0" class="outline"/>
    <line x1="572" y1="0" x2="592" y2="20" class="outline"/>
    <line x1="0" y1="300" x2="20" y2="320" class="outline"/>
    <line x1="572" y1="320" x2="592" y2="300" class="outline"/>

    <!-- Interior cavity (hidden - behind front wall) -->
    <!-- 4mm wall = 16px.  Interior 140W x 72H = 560 x 288 -->
    <rect x="16" y="16" width="560" height="288" class="hidden"/>

    <!-- ─── Front wall features ─── -->

    <!-- Cam lever pivot hole  X=74 Z=40  dia 5mm -->
    <!-- 74*4=296  Z=40 from bottom -> y=320-160=160 -->
    <!-- r=2.5*4=10 -->
    <circle cx="296" cy="160" r="10" class="outline"/>
    <line x1="296" y1="143" x2="296" y2="177" class="centerline"/>
    <line x1="279" y1="160" x2="313" y2="160" class="centerline"/>

    <!-- ─── Rear wall features (hidden) ─── -->

    <!-- 4x JG fitting pocket bores  dia 9.8mm (r=4.9*4=19.6px) -->
    <!-- X=54->216  X=94->376  Z=26->y=320-104=216  Z=54->y=320-216=104 -->
    <circle cx="216" cy="216" r="19.6" class="hidden"/>
    <circle cx="376" cy="216" r="19.6" class="hidden"/>
    <circle cx="216" cy="104" r="19.6" class="hidden"/>
    <circle cx="376" cy="104" r="19.6" class="hidden"/>

    <!-- Body end OD circles dia 15.10mm (r=7.55*4=30.2px) -->
    <circle cx="216" cy="216" r="30.2" class="hidden"/>
    <circle cx="376" cy="216" r="30.2" class="hidden"/>
    <circle cx="216" cy="104" r="30.2" class="hidden"/>
    <circle cx="376" cy="104" r="30.2" class="hidden"/>

    <!-- Pocket bore center marks -->
    <line x1="216" y1="210" x2="216" y2="222" class="centerline"/>
    <line x1="210" y1="216" x2="222" y2="216" class="centerline"/>
    <line x1="376" y1="210" x2="376" y2="222" class="centerline"/>
    <line x1="370" y1="216" x2="382" y2="216" class="centerline"/>
    <line x1="216" y1="98" x2="216" y2="110" class="centerline"/>
    <line x1="210" y1="104" x2="222" y2="104" class="centerline"/>
    <line x1="376" y1="98" x2="376" y2="110" class="centerline"/>
    <line x1="370" y1="104" x2="382" y2="104" class="centerline"/>

    <!-- Release plate cavity  63W x 51H  (hidden behind front wall) -->
    <!-- Center: X=74 Z=40.  X: 42.5..105.5 -> 170..422  Z: 14.5..65.5 -> y=262..58 -->
    <rect x="170" y="58" width="252" height="204" class="hidden"/>

    <!-- Guide pin holes  dia 3mm  at X=40 Z=40  and X=110.5 Z=40 -->
    <!-- X=40->160  X=110.5->442  Z=40->y=160  r=1.5*4=6 -->
    <circle cx="160" cy="160" r="6" class="hidden"/>
    <circle cx="442" cy="160" r="6" class="hidden"/>

    <!-- Bottom slide rails  2mm tall x 3mm wide -->
    <!-- 2*4=8px tall, 3*4=12px wide. X~35->140, X~113->452 -->
    <rect x="140" y="320" width="12" height="8" class="outline"/>
    <rect x="452" y="320" width="12" height="8" class="outline"/>

    <!-- Interior ledges at Z=4  (y=320-16=304)  2mm wide=8px from interior walls -->
    <line x1="16" y1="304" x2="24" y2="304" class="hidden"/>
    <line x1="568" y1="304" x2="576" y2="304" class="hidden"/>

    <!-- ═══════ Dimension callouts ═══════ -->

    <!-- Width 148 -->
    <line x1="0" y1="-18" x2="0" y2="-6" class="dim"/>
    <line x1="592" y1="-18" x2="592" y2="-6" class="dim"/>
    <line x1="0" y1="-12" x2="592" y2="-12" class="dim" marker-start="url(#arrowRev)" marker-end="url(#arrow)"/>
    <text x="296" y="-16" class="dimtxt">148</text>

    <!-- Height 80 -->
    <line x1="-20" y1="0" x2="-8" y2="0" class="dim"/>
    <line x1="-20" y1="320" x2="-8" y2="320" class="dim"/>
    <line x1="-14" y1="0" x2="-14" y2="320" class="dim" marker-start="url(#arrowRev)" marker-end="url(#arrow)"/>
    <text x="-16" y="165" class="dimtxt" transform="rotate(-90,-16,165)">80</text>

    <!-- Wall thickness 4 -->
    <line x1="0" y1="-34" x2="0" y2="-26" class="dim"/>
    <line x1="16" y1="-34" x2="16" y2="-26" class="dim"/>
    <line x1="0" y1="-30" x2="16" y2="-30" class="dim" marker-start="url(#arrowRev)" marker-end="url(#arrow)"/>
    <text x="8" y="-33" class="dimtxt">4</text>

    <!-- Pivot X=74 from left edge -->
    <line x1="0" y1="348" x2="0" y2="338" class="dim"/>
    <line x1="296" y1="348" x2="296" y2="338" class="dim"/>
    <line x1="0" y1="343" x2="296" y2="343" class="dim" marker-start="url(#arrowRev)" marker-end="url(#arrow)"/>
    <text x="148" y="340" class="dimtxt">74</text>

    <!-- Pivot Z=40 from bottom -->
    <line x1="614" y1="320" x2="604" y2="320" class="dim"/>
    <line x1="614" y1="160" x2="604" y2="160" class="dim"/>
    <line x1="609" y1="320" x2="609" y2="160" class="dim" marker-start="url(#arrowRev)" marker-end="url(#arrow)"/>
    <text x="622" y="245" class="dimtxt" transform="rotate(-90,622,245)">40</text>

    <!-- Fitting H spacing 40mm -->
    <line x1="216" y1="250" x2="216" y2="262" class="dim"/>
    <line x1="376" y1="250" x2="376" y2="262" class="dim"/>
    <line x1="216" y1="258" x2="376" y2="258" class="dim" marker-start="url(#arrowRev)" marker-end="url(#arrow)"/>
    <text x="296" y="273" class="dimtxt">40 H c/c</text>

    <!-- Fitting V spacing 28mm -->
    <line x1="408" y1="216" x2="420" y2="216" class="dim"/>
    <line x1="408" y1="104" x2="420" y2="104" class="dim"/>
    <line x1="415" y1="216" x2="415" y2="104" class="dim" marker-start="url(#arrowRev)" marker-end="url(#arrow)"/>
    <text x="430" y="165" class="dimtxt" transform="rotate(-90,430,165)">28 V c/c</text>

    <!-- Fitting X=54 from left -->
    <line x1="0" y1="362" x2="0" y2="354" class="dim"/>
    <line x1="216" y1="362" x2="216" y2="354" class="dim"/>
    <line x1="0" y1="358" x2="216" y2="358" class="dim" marker-start="url(#arrowRev)" marker-end="url(#arrow)"/>
    <text x="108" y="370" class="dimtxt">54</text>

    <!-- Fitting Z=26 from bottom -->
    <line x1="636" y1="320" x2="646" y2="320" class="dim"/>
    <line x1="636" y1="216" x2="646" y2="216" class="dim"/>
    <line x1="641" y1="320" x2="641" y2="216" class="dim" marker-start="url(#arrowRev)" marker-end="url(#arrow)"/>
    <text x="655" y="273" class="dimtxt" transform="rotate(-90,655,273)">26</text>

    <!-- Bore callouts -->
    <line x1="236" y1="200" x2="280" y2="186" class="dim"/>
    <text x="282" y="184" class="dimtxts" font-size="7.5">&#x2300;9.8 pocket bore (4x)</text>
    <text x="282" y="194" class="dimtxts" font-size="7.5">&#x2300;15.10 body end (protruding)</text>

    <!-- Pivot dia -->
    <line x1="304" y1="152" x2="328" y2="128" class="dim"/>
    <text x="330" y="126" class="dimtxts" font-size="7.5">&#x2300;5 pivot hole</text>

    <!-- Chamfer callout -->
    <line x1="14" y1="10" x2="48" y2="26" class="dim"/>
    <text x="50" y="24" class="dimtxts" font-size="7.5">5x45&#xb0; chamfer (4 edges)</text>

    <!-- Guide pin callout -->
    <line x1="160" y1="152" x2="140" y2="129" class="dim"/>
    <text x="85" y="126" class="dimtxts" font-size="7.5">&#x2300;3 guide pin (2x)</text>
  </g>

  <!-- ============================================================ -->
  <!-- SIDE VIEW  (looking along -X from right)                     -->
  <!-- Horiz = Y (depth 130mm)   Vert = Z (height 80mm)            -->
  <!-- Scale = 2.5 px/mm   =>  325 x 200 px                        -->
  <!-- Group origin at (50, 500)                                    -->
  <!-- Y=0 (front) at SVG x=0; Y=130 (rear) at SVG x=325          -->
  <!-- Z=0 (bottom) at SVG y=200; Z=80 (top) at SVG y=0            -->
  <!-- ============================================================ -->
  <text x="212" y="490" class="label">SIDE VIEW (RIGHT)</text>

  <g id="side-view" transform="translate(50, 500)">
    <!-- s=2.5  130*2.5=325  80*2.5=200 -->

    <!-- Exterior -->
    <rect x="0" y="0" width="325" height="200" class="outline"/>

    <!-- Front wall inner face Y=4 -> x=10 -->
    <line x1="10" y1="0" x2="10" y2="200" class="thin"/>
    <!-- Rear wall inner face Y=126 -> x=315 -->
    <line x1="315" y1="0" x2="315" y2="200" class="thin"/>

    <!-- Interior cavity -->
    <rect x="10" y="10" width="305" height="180" class="hidden"/>

    <!-- ─── Fitting barbell profiles ─── -->
    <!-- Rear wall x=315 to x=325 (Y=126..130) -->
    <!-- Z=26: y=200-65=135   Z=54: y=200-135=65 -->
    <!-- Body end: 15.10/2*2.5=18.875px half-h, 12.08*2.5=30.2px long -->
    <!-- Center body: 9.31/2*2.5=11.64px half-h, wall=10px -->

    <!-- Lower fitting Z=26 (y=135) -->
    <!-- Interior body end: x=315-30.2=284.8 to 315 -->
    <rect x="284.8" y="116.1" width="30.2" height="37.75" rx="1.2" class="hidden"/>
    <!-- Center body in wall -->
    <rect x="315" y="123.4" width="10" height="23.3" class="thin"/>
    <!-- Exterior body end: x=325 to 355.2 -->
    <rect x="325" y="116.1" width="30.2" height="37.75" rx="1.2" class="outline"/>

    <!-- Upper fitting Z=54 (y=65) -->
    <rect x="284.8" y="46.1" width="30.2" height="37.75" rx="1.2" class="hidden"/>
    <rect x="315" y="53.4" width="10" height="23.3" class="thin"/>
    <rect x="325" y="46.1" width="30.2" height="37.75" rx="1.2" class="outline"/>

    <!-- Centerlines through fittings -->
    <line x1="275" y1="135" x2="362" y2="135" class="centerline"/>
    <line x1="275" y1="65" x2="362" y2="65" class="centerline"/>

    <!-- Release plate cavity: 6mm deep from interior face -->
    <!-- x=315-15=300 to 315.  51mm tall: Z=14.5..65.5 -> y=163.75..36.25 -->
    <rect x="300" y="36.25" width="15" height="127.5" class="hidden"/>
    <!-- Hatching -->
    <line x1="300" y1="46" x2="308" y2="36.25" class="hatch"/>
    <line x1="300" y1="60" x2="315" y2="45" class="hatch"/>
    <line x1="300" y1="78" x2="315" y2="63" class="hatch"/>
    <line x1="300" y1="96" x2="315" y2="81" class="hatch"/>
    <line x1="300" y1="114" x2="315" y2="99" class="hatch"/>
    <line x1="300" y1="132" x2="315" y2="117" class="hatch"/>
    <line x1="300" y1="150" x2="315" y2="135" class="hatch"/>
    <line x1="304" y1="163.75" x2="315" y2="152.75" class="hatch"/>

    <!-- Pivot hole: Z=40 -> y=100, r=2.5*2.5=6.25 -->
    <circle cx="5" cy="100" r="6.25" class="outline"/>
    <line x1="5" y1="88" x2="5" y2="112" class="centerline"/>

    <!-- Push rod (hidden): 5mm dia = 12.5px, Z=40 center at y=100 -->
    <line x1="10" y1="93.75" x2="300" y2="93.75" class="hidden"/>
    <line x1="10" y1="106.25" x2="300" y2="106.25" class="hidden"/>

    <!-- Slide rail on bottom -->
    <rect x="0" y="200" width="325" height="5" class="outline"/>

    <!-- Interior ledge at Z=4 (y=190) -->
    <line x1="10" y1="190" x2="315" y2="190" class="hidden"/>

    <!-- Pogo pocket on top: 30*2.5=75px, 1.5*2.5=3.75px deep -->
    <rect x="125" y="0" width="75" height="3.75" class="thin"/>

    <!-- ═══════ Dimensions ═══════ -->

    <!-- Depth 130 -->
    <line x1="0" y1="-30" x2="0" y2="-6" class="dim"/>
    <line x1="325" y1="-30" x2="325" y2="-6" class="dim"/>
    <line x1="0" y1="-24" x2="325" y2="-24" class="dim" marker-start="url(#arrowRev)" marker-end="url(#arrow)"/>
    <text x="162.5" y="-28" class="dimtxt">130</text>

    <!-- Height 80 -->
    <line x1="-20" y1="0" x2="-8" y2="0" class="dim"/>
    <line x1="-20" y1="200" x2="-8" y2="200" class="dim"/>
    <line x1="-14" y1="0" x2="-14" y2="200" class="dim" marker-start="url(#arrowRev)" marker-end="url(#arrow)"/>
    <text x="-16" y="105" class="dimtxt" transform="rotate(-90,-16,105)">80</text>

    <!-- Front wall 4mm -->
    <line x1="0" y1="218" x2="0" y2="210" class="dim"/>
    <line x1="10" y1="218" x2="10" y2="210" class="dim"/>
    <line x1="0" y1="214" x2="10" y2="214" class="dim" marker-start="url(#arrowRev)" marker-end="url(#arrow)"/>
    <text x="5" y="228" class="dimtxt">4</text>

    <!-- Rear wall 4mm -->
    <line x1="315" y1="218" x2="315" y2="210" class="dim"/>
    <line x1="325" y1="218" x2="325" y2="210" class="dim"/>
    <line x1="315" y1="214" x2="325" y2="214" class="dim" marker-start="url(#arrowRev)" marker-end="url(#arrow)"/>
    <text x="320" y="228" class="dimtxt">4</text>

    <!-- Body end protrusion 12.08 -->
    <line x1="325" y1="38" x2="325" y2="30" class="dim"/>
    <line x1="355.2" y1="38" x2="355.2" y2="30" class="dim"/>
    <line x1="325" y1="34" x2="355.2" y2="34" class="dim" marker-start="url(#arrowRev)" marker-end="url(#arrow)"/>
    <text x="340" y="27" class="dimtxt">12.08</text>

    <!-- Body end dia -->
    <line x1="348" y1="47" x2="368" y2="35" class="dim"/>
    <text x="370" y="33" class="dimtxts" font-size="7.5">&#x2300;15.10</text>

    <!-- Cavity depth 6 -->
    <line x1="300" y1="172" x2="300" y2="182" class="dim"/>
    <line x1="315" y1="172" x2="315" y2="182" class="dim"/>
    <line x1="300" y1="177" x2="315" y2="177" class="dim" marker-start="url(#arrowRev)" marker-end="url(#arrow)"/>
    <text x="307.5" y="204" class="dimtxt">6</text>

    <!-- Pivot callout -->
    <line x1="10" y1="94" x2="25" y2="82" class="dim"/>
    <text x="27" y="80" class="dimtxts" font-size="7.5">&#x2300;5 pivot</text>

    <!-- Push rod -->
    <text x="155" y="88" class="dimtxt" font-size="7">push rod &#x2300;5</text>

    <!-- Center body -->
    <text x="342" y="148" class="dimtxt" font-size="6.5" transform="rotate(-90,342,148)">&#x2300;9.31</text>
  </g>

  <!-- ============================================================ -->
  <!-- TOP VIEW  (looking along -Z from above)                      -->
  <!-- Horiz = X (width 148mm)   Vert = Y (depth 130mm)            -->
  <!-- Scale = 2.0 px/mm   =>  296 x 260 px                        -->
  <!-- Group origin at (530, 500)                                   -->
  <!-- X=0 left, X=148 right.  Y=0 front (top), Y=130 rear (btm)  -->
  <!-- ============================================================ -->
  <text x="678" y="465" class="label">TOP VIEW</text>

  <g id="top-view" transform="translate(530, 475)">
    <!-- s=2.0  148*2=296  130*2=260 -->

    <!-- Exterior -->
    <rect x="0" y="0" width="296" height="260" class="outline"/>

    <!-- Interior (visible — open top box) -->
    <rect x="8" y="8" width="280" height="244" class="outline"/>

    <!-- Front chamfers 5mm=10px -->
    <line x1="0" y1="10" x2="10" y2="0" class="outline"/>
    <line x1="286" y1="0" x2="296" y2="10" class="outline"/>

    <!-- Rear wall: Y=126..130 -> y=252..260 -->

    <!-- Fitting pocket bores through rear wall (4 project to 2 in top view) -->
    <!-- X=54->108  X=94->188  Y=128->y=256 -->
    <!-- Bore 9.8mm -> r=9.8px -->
    <circle cx="108" cy="256" r="9.8" class="outline"/>
    <circle cx="188" cy="256" r="9.8" class="outline"/>

    <!-- Body end circles 15.10mm -> r=15.1px (hidden, projecting within wall) -->
    <circle cx="108" cy="256" r="15.1" class="hidden"/>
    <circle cx="188" cy="256" r="15.1" class="hidden"/>

    <!-- Exterior body end protrusions (beyond shell rear) -->
    <!-- 12.08mm = 24.16px past y=260 -->
    <rect x="92.9" y="260" width="30.2" height="24.16" rx="1" class="outline"/>
    <rect x="172.9" y="260" width="30.2" height="24.16" rx="1" class="outline"/>

    <!-- Interior body end protrusions -->
    <!-- From y=252 upward 24.16px -> y=227.84 -->
    <rect x="92.9" y="227.84" width="30.2" height="24.16" rx="1" class="hidden"/>
    <rect x="172.9" y="227.84" width="30.2" height="24.16" rx="1" class="hidden"/>

    <!-- Center body bore in wall (9.8mm wide rects) -->
    <rect x="98.2" y="252" width="19.6" height="8" class="thin"/>
    <rect x="178.2" y="252" width="19.6" height="8" class="thin"/>

    <!-- Fitting centerlines -->
    <line x1="108" y1="220" x2="108" y2="290" class="centerline"/>
    <line x1="188" y1="220" x2="188" y2="290" class="centerline"/>

    <!-- Guide pin holes  X=40->80  X=110.5->221  Y=128->y=256 -->
    <circle cx="80" cy="256" r="3" class="hidden"/>
    <circle cx="221" cy="256" r="3" class="hidden"/>

    <!-- Pogo PCB pocket: 15W=30px x 30L=60px -->
    <!-- X=74->148 center.  Y~65->130 center -->
    <rect x="133" y="100" width="30" height="60" class="outline"/>

    <!-- Pivot hole in front wall X=74->148, Y=2->4 -->
    <circle cx="148" cy="4" r="5" class="outline"/>

    <!-- Slide rails (hidden, underside) -->
    <rect x="70" y="0" width="6" height="260" class="hidden"/>
    <rect x="226" y="0" width="6" height="260" class="hidden"/>

    <!-- ═══════ Dimensions ═══════ -->

    <!-- Width 148 -->
    <line x1="0" y1="-18" x2="0" y2="-6" class="dim"/>
    <line x1="296" y1="-18" x2="296" y2="-6" class="dim"/>
    <line x1="0" y1="-12" x2="296" y2="-12" class="dim" marker-start="url(#arrowRev)" marker-end="url(#arrow)"/>
    <text x="148" y="-16" class="dimtxt">148</text>

    <!-- Depth 130 -->
    <line x1="312" y1="0" x2="302" y2="0" class="dim"/>
    <line x1="312" y1="260" x2="302" y2="260" class="dim"/>
    <line x1="307" y1="0" x2="307" y2="260" class="dim" marker-start="url(#arrowRev)" marker-end="url(#arrow)"/>
    <text x="320" y="135" class="dimtxt" transform="rotate(-90,320,135)">130</text>

    <!-- Fitting X=54 -->
    <line x1="0" y1="280" x2="0" y2="272" class="dim"/>
    <line x1="108" y1="280" x2="108" y2="272" class="dim"/>
    <line x1="0" y1="276" x2="108" y2="276" class="dim" marker-start="url(#arrowRev)" marker-end="url(#arrow)"/>
    <text x="54" y="289" class="dimtxt">54</text>

    <!-- Fitting H spacing 40 -->
    <line x1="188" y1="280" x2="188" y2="272" class="dim"/>
    <line x1="108" y1="286" x2="188" y2="286" class="dim" marker-start="url(#arrowRev)" marker-end="url(#arrow)"/>
    <text x="148" y="299" class="dimtxt">40 c/c</text>

    <!-- Bore callout -->
    <line x1="120" y1="246" x2="145" y2="232" class="dim"/>
    <text x="147" y="230" class="dimtxts" font-size="7">&#x2300;9.8 bore (4x)</text>

    <!-- Pogo pocket -->
    <text x="148" y="135" class="dimtxt" font-size="7">pogo pocket</text>
    <text x="148" y="145" class="dimtxt" font-size="7">15x30x1.5D</text>

    <!-- Protrusion label -->
    <line x1="130" y1="270" x2="155" y2="270" class="dim"/>
    <text x="157" y="273" class="dimtxts" font-size="7">body end 12.08 protrusion</text>
  </g>

  <!-- ============================================================ -->
  <!-- Notes                                                         -->
  <!-- ============================================================ -->
  <g transform="translate(30, 760)">
    <text x="0" y="0" class="note">NOTES: All dims in mm. Fitting pockets: 9.8mm bore grips 9.31mm JG center body (0.25mm clearance/side). 15.10mm body ends protrude ~12mm each side of 4mm rear wall.</text>
    <text x="0" y="12" class="note">Release plate cavity 6mm deep x 63W x 51H behind fittings. Guide pins 3mm press-fit. Cam pivot 5mm. Front 4.0:1, Side/Top 2.5/2.0:1 (px:mm).</text>
  </g>

</svg>