<svg xmlns="http://www.w3.org/2000/svg" width="1680" height="1100" viewBox="0 0 1680 1100">
  <style>
    text { font-family: 'Helvetica Neue', Arial, sans-serif; }
    .title { font-size: 16px; font-weight: bold; }
    .subtitle { font-size: 12px; }
    .label { font-size: 11px; }
    .dim { font-size: 10px; }
    .note { font-size: 9.5px; }
    .visible { stroke: #000; stroke-width: 1.5; fill: none; }
    .hidden { stroke: #000; stroke-width: 0.8; fill: none; stroke-dasharray: 6,3; }
    .center { stroke: #666; stroke-width: 0.5; fill: none; stroke-dasharray: 12,3,3,3; }
    .dim-line { stroke: #333; stroke-width: 0.6; fill: none; }
    .dim-ext { stroke: #333; stroke-width: 0.4; fill: none; }
    .hatch { stroke: #999; stroke-width: 0.4; fill: none; }
    .wall-fill { fill: #e8e8e8; stroke: none; }
    .fitting { stroke: #06c; stroke-width: 1.2; fill: none; }
  </style>
  <defs>
    <marker id="arr" markerWidth="8" markerHeight="6" refX="8" refY="3" orient="auto">
      <path d="M0,0 L8,3 L0,6 Z" fill="#333"/>
    </marker>
    <marker id="arr-r" markerWidth="8" markerHeight="6" refX="0" refY="3" orient="auto">
      <path d="M8,0 L0,3 L8,6 Z" fill="#333"/>
    </marker>
  </defs>

  <!-- Border -->
  <rect x="10" y="10" width="1660" height="1080" fill="none" stroke="#000" stroke-width="1.5"/>

  <!-- ================================================================ -->
  <!-- FRONT VIEW  (looking along -Y)                                    -->
  <!-- H-axis = X (right+), V-axis = Z (up+, pixel down-)               -->
  <!-- Shell exterior: 148W x 80H mm.  Scale 3 px/mm.                   -->
  <!-- Pixel origin (exterior bottom-left): px(80, 560)                  -->
  <!--   X  mm -> px = 80 + X*3        (0..148 -> 80..524)              -->
  <!--   Z  mm -> px = 560 - Z*3       (0..80  -> 560..320)             -->
  <!-- ================================================================ -->
  <text x="302" y="290" text-anchor="middle" class="label" font-weight="bold">FRONT VIEW</text>
  <text x="302" y="304" text-anchor="middle" class="note">(looking along -Y)</text>

  <!-- Exterior outline with 5mm/45deg chamfers on all 4 front edges -->
  <!-- Chamfer = 15px at 45 deg -->
  <path d="M95,320 L509,320 L524,335 L524,545 L509,560 L95,560 L80,545 L80,335 Z" class="visible"/>

  <!-- Interior outline (4mm=12px wall) -->
  <rect x="92" y="332" width="420" height="216" class="hidden"/>

  <!-- Slide rails on bottom face: 2mm tall(6px) x 3mm wide(9px) -->
  <!-- Approx at X~40mm and X~108mm (symmetric about center, matching dock) -->
  <rect x="200" y="554" width="9" height="6" class="visible"/>
  <rect x="395" y="554" width="9" height="6" class="visible"/>

  <!-- Cam lever pivot hole: dia 5mm(15px) at X=74,Z=40 => px(302,440) -->
  <circle cx="302" cy="440" r="7.5" class="visible"/>

  <!-- Interior ledges at Z=4 (px 548), 2mm(6px) wide shelves -->
  <line x1="92" y1="536" x2="98" y2="536" class="hidden"/>
  <line x1="98" y1="536" x2="98" y2="548" class="hidden"/>
  <line x1="506" y1="536" x2="512" y2="536" class="hidden"/>
  <line x1="506" y1="536" x2="506" y2="548" class="hidden"/>

  <!-- Hidden: 4x JG fitting pocket bores (9.8mm dia = r14.7) in rear wall -->
  <!-- Centers: X=54->px242, X=94->px362, Z=26->px482, Z=54->px398 -->
  <circle cx="242" cy="482" r="14.7" class="hidden"/>
  <circle cx="362" cy="482" r="14.7" class="hidden"/>
  <circle cx="242" cy="398" r="14.7" class="hidden"/>
  <circle cx="362" cy="398" r="14.7" class="hidden"/>

  <!-- Hidden: body end OD 15.10mm (r22.65) protrusion outlines -->
  <circle cx="242" cy="482" r="22.65" class="hidden" stroke-dasharray="4,2"/>
  <circle cx="362" cy="482" r="22.65" class="hidden" stroke-dasharray="4,2"/>
  <circle cx="242" cy="398" r="22.65" class="hidden" stroke-dasharray="4,2"/>
  <circle cx="362" cy="398" r="22.65" class="hidden" stroke-dasharray="4,2"/>

  <!-- Hidden: 2x guide pin holes (dia 3mm=r4.5) at X=40,Z=40 & X=110.5,Z=40 -->
  <circle cx="200" cy="440" r="4.5" class="hidden"/>
  <circle cx="411.5" cy="440" r="4.5" class="hidden"/>

  <!-- Hidden: pogo PCB recess on top face 15Wx30L => front view shows 15mm(45px) width -->
  <rect x="280" y="320" width="45" height="4.5" class="hidden"/>

  <!-- FRONT DIMENSIONS -->
  <!-- Width 148mm -->
  <line x1="80" y1="578" x2="80" y2="588" class="dim-ext"/>
  <line x1="524" y1="578" x2="524" y2="588" class="dim-ext"/>
  <line x1="80" y1="584" x2="524" y2="584" class="dim-line" marker-start="url(#arr-r)" marker-end="url(#arr)"/>
  <text x="302" y="598" text-anchor="middle" class="dim">148</text>

  <!-- Height 80mm -->
  <line x1="540" y1="320" x2="556" y2="320" class="dim-ext"/>
  <line x1="540" y1="560" x2="556" y2="560" class="dim-ext"/>
  <line x1="550" y1="320" x2="550" y2="560" class="dim-line" marker-start="url(#arr-r)" marker-end="url(#arr)"/>
  <text x="564" y="444" text-anchor="start" class="dim">80</text>

  <!-- Wall 4mm (top) -->
  <line x1="80" y1="312" x2="80" y2="318" class="dim-ext"/>
  <line x1="92" y1="312" x2="92" y2="318" class="dim-ext"/>
  <line x1="80" y1="315" x2="92" y2="315" class="dim-line"/>
  <text x="86" y="310" text-anchor="middle" class="dim">4</text>

  <!-- X=54 to first fitting center -->
  <line x1="80" y1="606" x2="80" y2="616" class="dim-ext"/>
  <line x1="242" y1="606" x2="242" y2="616" class="dim-ext"/>
  <line x1="80" y1="612" x2="242" y2="612" class="dim-line" marker-start="url(#arr-r)" marker-end="url(#arr)"/>
  <text x="161" y="624" text-anchor="middle" class="dim">54</text>

  <!-- 40mm fitting c-t-c horizontal -->
  <line x1="242" y1="606" x2="242" y2="616" class="dim-ext"/>
  <line x1="362" y1="606" x2="362" y2="616" class="dim-ext"/>
  <line x1="242" y1="612" x2="362" y2="612" class="dim-line" marker-start="url(#arr-r)" marker-end="url(#arr)"/>
  <text x="302" y="624" text-anchor="middle" class="dim">40</text>

  <!-- Z=26 from bottom to lower fitting row -->
  <line x1="58" y1="560" x2="70" y2="560" class="dim-ext"/>
  <line x1="58" y1="482" x2="70" y2="482" class="dim-ext"/>
  <line x1="64" y1="560" x2="64" y2="482" class="dim-line" marker-start="url(#arr-r)" marker-end="url(#arr)"/>
  <text x="50" y="525" text-anchor="middle" class="dim">26</text>

  <!-- 28mm fitting c-t-c vertical -->
  <line x1="58" y1="482" x2="70" y2="482" class="dim-ext"/>
  <line x1="58" y1="398" x2="70" y2="398" class="dim-ext"/>
  <line x1="64" y1="482" x2="64" y2="398" class="dim-line" marker-start="url(#arr-r)" marker-end="url(#arr)"/>
  <text x="50" y="444" text-anchor="middle" class="dim">28</text>

  <!-- Callouts -->
  <line x1="95" y1="557" x2="130" y2="574" class="dim-ext"/>
  <text x="132" y="574" class="note">5x45 chamfer (4x)</text>

  <line x1="209" y1="556" x2="245" y2="546" class="dim-ext"/>
  <text x="247" y="546" class="note">rail 2x3</text>

  <line x1="310" y1="440" x2="350" y2="418" class="dim-ext"/>
  <text x="352" y="416" class="note">pivot dia 5</text>

  <!-- Pocket bore callout -->
  <line x1="377" y1="398" x2="420" y2="380" class="dim-ext"/>
  <text x="422" y="378" class="note">pocket bore dia 9.8 (hidden)</text>
  <text x="422" y="390" class="note">body end dia 15.10 (hidden)</text>

  <!-- ================================================================ -->
  <!-- RIGHT SIDE VIEW  (looking along -X)                              -->
  <!-- H-axis = Y (right+), V-axis = Z (up+, pixel down-)              -->
  <!-- Shell: 130D x 80H mm.  Front(Y=0) at left.                      -->
  <!-- Pixel origin: px(620, 560)                                       -->
  <!--   Y  mm -> px = 620 + Y*3       (0..130 -> 620..1010)           -->
  <!--   Z  mm -> px = 560 - Z*3       (same Z as front view)          -->
  <!-- ================================================================ -->
  <text x="815" y="290" text-anchor="middle" class="label" font-weight="bold">RIGHT SIDE VIEW</text>
  <text x="815" y="304" text-anchor="middle" class="note">(looking along -X)</text>

  <!-- Exterior with front chamfers only (front = left side) -->
  <path d="M635,320 L1010,320 L1010,560 L635,560 L620,545 L620,335 Z" class="visible"/>

  <!-- Interior -->
  <rect x="632" y="332" width="366" height="216" class="hidden"/>

  <!-- Rear wall inner face at Y=126 -> px998 shown as slightly heavier hidden line -->
  <!-- (wall from px998 to px1010 is the rear wall thickness) -->

  <!-- Slide rail on bottom: full depth, 2mm tall -->
  <rect x="620" y="554" width="390" height="6" class="visible"/>

  <!-- Hidden: fitting pocket bores in rear wall (side view = rectangles) -->
  <!-- 9.8mm(29.4px) tall, 4mm(12px) wide from Y=126 to Y=130 => px998..1010 -->
  <!-- Lower row Z=26 -> px482 center, Upper row Z=54 -> px398 center -->
  <rect x="998" y="467.3" width="12" height="29.4" class="hidden"/>
  <rect x="998" y="383.3" width="12" height="29.4" class="hidden"/>

  <!-- Hidden: interior body end protrusions (15.10mm = 45.3px tall) -->
  <!-- From inner wall Y=126 inward 12.08mm(36.24px) => px998-36.24=961.8 -->
  <rect x="961.8" y="459.4" width="36.2" height="45.3" class="hidden" stroke-dasharray="4,2"/>
  <rect x="961.8" y="375.4" width="36.2" height="45.3" class="hidden" stroke-dasharray="4,2"/>
  <!-- Exterior body end protrusions past shell -->
  <rect x="1010" y="459.4" width="36.2" height="45.3" class="hidden" stroke-dasharray="4,2"/>
  <rect x="1010" y="375.4" width="36.2" height="45.3" class="hidden" stroke-dasharray="4,2"/>

  <!-- Release plate cavity: 6mm(18px) deep, 51mm(153px) tall -->
  <!-- From Y=120 to Y=126 => px980..998, Z centered on fittings: Z=14.5..65.5 => px516.5..363.5 -->
  <rect x="980" y="363.5" width="18" height="153" class="hidden"/>

  <!-- Guide pin (side view): horizontal line at Z=40 -> px440, from cavity to wall -->
  <line x1="968" y1="438.5" x2="998" y2="438.5" class="hidden"/>
  <line x1="968" y1="441.5" x2="998" y2="441.5" class="hidden"/>

  <!-- Cam lever pivot in front wall: Y=0..4 => px620..632, Z=40 => px440 -->
  <circle cx="626" cy="440" r="7.5" class="hidden"/>

  <!-- Pogo PCB recess on top: 30L(90px) along Y, 1.5D(4.5px) -->
  <rect x="770" y="320" width="90" height="4.5" class="hidden"/>

  <!-- Interior ledge at Z=4: line from front to rear wall -->
  <line x1="632" y1="548" x2="998" y2="548" class="hidden"/>

  <!-- SIDE DIMENSIONS -->
  <!-- Depth 130mm -->
  <line x1="620" y1="578" x2="620" y2="588" class="dim-ext"/>
  <line x1="1010" y1="578" x2="1010" y2="588" class="dim-ext"/>
  <line x1="620" y1="584" x2="1010" y2="584" class="dim-line" marker-start="url(#arr-r)" marker-end="url(#arr)"/>
  <text x="815" y="598" text-anchor="middle" class="dim">130</text>

  <!-- Rear wall 4mm -->
  <line x1="998" y1="312" x2="998" y2="318" class="dim-ext"/>
  <line x1="1010" y1="312" x2="1010" y2="318" class="dim-ext"/>
  <line x1="998" y1="315" x2="1010" y2="315" class="dim-line"/>
  <text x="1004" y="310" text-anchor="middle" class="dim">4</text>

  <!-- Cavity depth 6mm -->
  <line x1="980" y1="350" x2="980" y2="356" class="dim-ext"/>
  <line x1="998" y1="350" x2="998" y2="356" class="dim-ext"/>
  <line x1="980" y1="353" x2="998" y2="353" class="dim-line"/>
  <text x="989" y="345" text-anchor="middle" class="dim">6</text>

  <!-- Rail height 2mm -->
  <line x1="1028" y1="554" x2="1040" y2="554" class="dim-ext"/>
  <line x1="1028" y1="560" x2="1040" y2="560" class="dim-ext"/>
  <line x1="1035" y1="554" x2="1035" y2="560" class="dim-line"/>
  <text x="1044" y="560" class="dim">2</text>

  <!-- Callouts -->
  <line x1="962" y1="456" x2="890" y2="418" class="dim-ext"/>
  <text x="750" y="416" class="note">body end 15.10 OD protrudes</text>
  <text x="750" y="428" class="note">~12mm each side of wall</text>

  <line x1="989" y1="363.5" x2="920" y2="334" class="dim-ext"/>
  <line x1="920" y1="334" x2="720" y2="334" class="dim-ext"/>
  <text x="720" y="330" class="note">release plate cavity 63x51x6</text>

  <!-- ================================================================ -->
  <!-- TOP VIEW  (looking along -Z, downward)                           -->
  <!-- H-axis = X (right+), V-axis = Y (rear+, pixel down+)            -->
  <!-- Shares X range with front view (px 80..524).                     -->
  <!-- Pixel origin: px(80, 680) = front-left corner.                   -->
  <!--   X  mm -> px = 80 + X*3                                        -->
  <!--   Y  mm -> px = 680 + Y*3       (0..130 -> 680..1070)           -->
  <!-- ================================================================ -->
  <text x="302" y="650" text-anchor="middle" class="label" font-weight="bold">TOP VIEW</text>
  <text x="302" y="664" text-anchor="middle" class="note">(looking along -Z)</text>

  <!-- Exterior with front chamfers -->
  <path d="M95,680 L509,680 L524,695 L524,1070 L80,1070 L80,695 Z" class="visible"/>

  <!-- Interior -->
  <rect x="92" y="692" width="420" height="366" class="hidden"/>

  <!-- Slide rails: full depth, 3mm(9px) wide -->
  <rect x="200" y="680" width="9" height="390" class="visible"/>
  <rect x="395" y="680" width="9" height="390" class="visible"/>

  <!-- JG pocket bores in rear wall (top view: rectangles through wall) -->
  <!-- X=54->px242, X=94->px362. Y=126..130 -> px1058..1070 -->
  <!-- 9.8mm(29.4px) wide -->
  <rect x="227.3" y="1058" width="29.4" height="12" class="visible"/>
  <rect x="347.3" y="1058" width="29.4" height="12" class="visible"/>

  <!-- Body end protrusions (interior side): 15.10mm(45.3px) wide -->
  <!-- From inner wall Y=126 inward 12.08mm(36.24px) => row px1058-36.24=1021.8 -->
  <rect x="219.4" y="1021.8" width="45.3" height="36.2" class="hidden" stroke-dasharray="4,2"/>
  <rect x="339.4" y="1021.8" width="45.3" height="36.2" class="hidden" stroke-dasharray="4,2"/>
  <!-- Exterior protrusions beyond shell -->
  <rect x="219.4" y="1070" width="45.3" height="36.2" class="hidden" stroke-dasharray="4,2"/>
  <rect x="339.4" y="1070" width="45.3" height="36.2" class="hidden" stroke-dasharray="4,2"/>

  <!-- Pogo PCB recess (visible from top): 15W(45px) x 30L(90px) -->
  <!-- Centered at ~X=74 => px302, Y=50..80 => px830..920 -->
  <rect x="280" y="830" width="45" height="90" class="visible"/>
  <text x="302.5" y="878" text-anchor="middle" class="note" font-size="7">PCB</text>

  <!-- Release plate cavity (hidden below top face) -->
  <!-- 63mm(189px) wide: center X=74 => X=42.5..105.5 => px207.5..396.5 -->
  <!-- 6mm deep: Y=120..126 => px1040..1058 -->
  <rect x="207.5" y="1040" width="189" height="18" class="hidden"/>

  <!-- Guide pin holes (top view: small circles in rear wall) -->
  <!-- X=40->px200, X=110.5->px411.5, Y=128->px1064 -->
  <circle cx="200" cy="1064" r="4.5" class="visible"/>
  <circle cx="411.5" cy="1064" r="4.5" class="visible"/>

  <!-- Cam lever pivot on front wall: X=74->px302, Y=2->px686 -->
  <circle cx="302" cy="686" r="7.5" class="visible"/>

  <!-- TOP DIMENSIONS -->
  <!-- Width 148mm (aligned with front view) -->
  <line x1="80" y1="1082" x2="80" y2="1090" class="dim-ext"/>
  <line x1="524" y1="1082" x2="524" y2="1090" class="dim-ext"/>
  <line x1="80" y1="1086" x2="524" y2="1086" class="dim-line" marker-start="url(#arr-r)" marker-end="url(#arr)"/>
  <text x="302" y="1098" text-anchor="middle" class="dim">148</text>

  <!-- Depth 130mm -->
  <line x1="540" y1="680" x2="556" y2="680" class="dim-ext"/>
  <line x1="540" y1="1070" x2="556" y2="1070" class="dim-ext"/>
  <line x1="550" y1="680" x2="550" y2="1070" class="dim-line" marker-start="url(#arr-r)" marker-end="url(#arr)"/>
  <text x="564" y="880" text-anchor="start" class="dim">130</text>

  <!-- Callouts (outside border, below protrusion rects y>1107) -->
  <!-- These are outside the drawing border, but necessary -->
  <!-- Actually place right of the exterior protrusion rects -->
  <line x1="362" y1="1064" x2="490" y2="1064" class="dim-ext"/>
  <text x="492" y="1068" class="note">JG pocket dia 9.8 (4x)</text>

  <line x1="205" y1="1064" x2="205" y2="1080" class="dim-ext"/>
  <line x1="205" y1="1080" x2="490" y2="1080" class="dim-ext"/>
  <text x="492" y="1084" class="note">guide pin dia 3.0 (2x)</text>

  <!-- ================================================================ -->
  <!-- DETAIL A — Rear wall section through one fitting pocket          -->
  <!-- Horizontal section, 6 px/mm detail scale                         -->
  <!-- ================================================================ -->
  <rect x="1100" y="320" width="400" height="320" fill="#fff" stroke="#000" stroke-width="1.2"/>
  <text x="1300" y="310" text-anchor="middle" class="label" font-weight="bold">DETAIL A: REAR WALL SECTION</text>
  <text x="1300" y="324" text-anchor="middle" class="note">(section through one fitting pocket, 6 px/mm)</text>

  <!-- At 6px/mm: wall 4mm=24px, bore 9.8mm=58.8px -->
  <!-- center body 9.31mm=55.86px, 12.16mm long=72.96px -->
  <!-- body end 15.10mm=90.6px, 12.08mm long=72.48px -->
  <!-- collet OD 9.57mm=57.42px, protrusion 1.4mm=8.4px -->

  <!-- Wall exterior(dock) face at py=460, interior face at py=484 -->
  <!-- Wall spans px 1140..1460 in X (wide enough for context) -->
  <!-- Bore centered at px=1300 => bore edges at 1300-29.4=1270.6, 1300+29.4=1329.4 -->

  <!-- Wall left section (solid with hatch) -->
  <rect x="1140" y="460" width="130.6" height="24" class="wall-fill"/>
  <rect x="1140" y="460" width="130.6" height="24" class="visible"/>
  <!-- Wall right section -->
  <rect x="1329.4" y="460" width="130.6" height="24" class="wall-fill"/>
  <rect x="1329.4" y="460" width="130.6" height="24" class="visible"/>

  <!-- Hatch lines (45-deg, 12px spacing) -->
  <g class="hatch">
    <line x1="1146" y1="484" x2="1164" y2="460"/><line x1="1158" y1="484" x2="1176" y2="460"/>
    <line x1="1170" y1="484" x2="1188" y2="460"/><line x1="1182" y1="484" x2="1200" y2="460"/>
    <line x1="1194" y1="484" x2="1212" y2="460"/><line x1="1206" y1="484" x2="1224" y2="460"/>
    <line x1="1218" y1="484" x2="1236" y2="460"/><line x1="1230" y1="484" x2="1248" y2="460"/>
    <line x1="1242" y1="484" x2="1260" y2="460"/><line x1="1254" y1="484" x2="1270.6" y2="464"/>
    <line x1="1140" y1="480" x2="1152" y2="460"/>
    <line x1="1335" y1="484" x2="1353" y2="460"/><line x1="1347" y1="484" x2="1365" y2="460"/>
    <line x1="1359" y1="484" x2="1377" y2="460"/><line x1="1371" y1="484" x2="1389" y2="460"/>
    <line x1="1383" y1="484" x2="1401" y2="460"/><line x1="1395" y1="484" x2="1413" y2="460"/>
    <line x1="1407" y1="484" x2="1425" y2="460"/><line x1="1419" y1="484" x2="1437" y2="460"/>
    <line x1="1431" y1="484" x2="1449" y2="460"/><line x1="1443" y1="484" x2="1460" y2="464"/>
    <line x1="1329.4" y1="480" x2="1341" y2="460"/>
  </g>

  <!-- Bore edges through wall -->
  <line x1="1270.6" y1="460" x2="1270.6" y2="484" class="visible"/>
  <line x1="1329.4" y1="460" x2="1329.4" y2="484" class="visible"/>

  <!-- JG FITTING — barbell profile (blue) -->
  <!-- Center body: 55.86px wide, 72.96px long, centered on wall center py=472 -->
  <!-- From py=472-36.48=435.52 to py=472+36.48=508.48 -->
  <rect x="1272.1" y="435.5" width="55.9" height="73" class="fitting"/>

  <!-- Exterior body end (dock side): 90.6px wide, 72.48px long -->
  <!-- From center body top py=435.5 upward => py=435.5-72.48=363 -->
  <rect x="1254.7" y="363" width="90.6" height="72.5" class="fitting"/>

  <!-- Interior body end (cartridge side): from center body bottom py=508.5 downward -->
  <rect x="1254.7" y="508.5" width="90.6" height="72.5" class="fitting"/>

  <!-- Collet sleeves (compressed, ~1.4mm=8.4px protrusion) -->
  <!-- Collet OD 9.57mm=57.42px wide -->
  <!-- Exterior collet: from body end top py=363 upward 8.4px => py354.6 -->
  <rect x="1271.3" y="354.6" width="57.4" height="8.4" class="fitting" stroke-dasharray="3,2"/>
  <!-- Interior collet -->
  <rect x="1271.3" y="581" width="57.4" height="8.4" class="fitting" stroke-dasharray="3,2"/>

  <!-- Tube centerline -->
  <line x1="1300" y1="345" x2="1300" y2="600" class="center"/>

  <!-- Shoulder labels -->
  <line x1="1271" y1="460" x2="1271" y2="452" class="dim-ext"/>
  <line x1="1271" y1="452" x2="1112" y2="452" class="dim-ext"/>
  <text x="1112" y="448" class="note">shoulder seats against wall face</text>

  <!-- Bore diameter annotation (placed below interior body end + collet, py>590) -->
  <line x1="1270.6" y1="484" x2="1270.6" y2="596" class="dim-ext"/>
  <line x1="1329.4" y1="484" x2="1329.4" y2="596" class="dim-ext"/>
  <line x1="1270.6" y1="594" x2="1329.4" y2="594" class="dim-line" marker-start="url(#arr-r)" marker-end="url(#arr)"/>
  <text x="1300" y="606" text-anchor="middle" class="dim">bore dia 9.8</text>

  <!-- Center body OD (right side leader, clear of hatch) -->
  <line x1="1328" y1="508.5" x2="1380" y2="508.5" class="dim-ext"/>
  <text x="1385" y="512" class="dim" fill="#06c">center body 9.31</text>

  <!-- Body end OD (right side leader) -->
  <line x1="1345.3" y1="530" x2="1380" y2="530" class="dim-ext"/>
  <text x="1385" y="534" class="dim" fill="#06c">body end 15.10</text>

  <!-- Wall thickness in detail -->
  <line x1="1130" y1="460" x2="1130" y2="484" class="dim-ext"/>
  <line x1="1124" y1="460" x2="1136" y2="460" class="dim-ext"/>
  <line x1="1124" y1="484" x2="1136" y2="484" class="dim-ext"/>
  <line x1="1130" y1="460" x2="1130" y2="484" class="dim-line" marker-start="url(#arr-r)" marker-end="url(#arr)"/>
  <text x="1120" y="476" text-anchor="end" class="dim">4</text>

  <!-- Side labels -->
  <text x="1300" y="342" text-anchor="middle" class="note" font-weight="bold">DOCK SIDE</text>
  <text x="1300" y="620" text-anchor="middle" class="note" font-weight="bold">INTERIOR</text>

  <!-- Collet label -->
  <line x1="1329" y1="358.6" x2="1370" y2="345" class="dim-ext"/>
  <text x="1372" y="345" class="note" fill="#06c">collet (9.57 OD)</text>

  <!-- ================================================================ -->
  <!-- NOTES BLOCK                                                       -->
  <!-- ================================================================ -->
  <rect x="1100" y="660" width="400" height="310" fill="#fafafa" stroke="#000" stroke-width="0.8"/>
  <text x="1112" y="680" class="label" font-weight="bold">NOTES</text>
  <text x="1112" y="698" class="note">1. Rectangular box, open top (lid closes). Material: PETG.</text>
  <text x="1112" y="713" class="note">2. 4mm solid walls all sides, no ribs.</text>
  <text x="1112" y="728" class="note">3. Exterior envelope: 148W x 130D x 80H mm.</text>
  <text x="1112" y="743" class="note">4. Interior volume: 140W x 122D x 72H mm.</text>
  <text x="1112" y="758" class="note">5. Rear wall (Y=126..130): 4x JG PP0408W pockets,</text>
  <text x="1125" y="773" class="note">2x2 grid, 40mm H x 28mm V c-t-c.</text>
  <text x="1112" y="788" class="note">6. Pocket bore dia 9.8 (sliding fit for 9.31 center body,</text>
  <text x="1125" y="803" class="note">~0.25mm clearance/side).</text>
  <text x="1112" y="818" class="note">7. Body ends (15.10 OD) protrude ~12mm each side of wall.</text>
  <text x="1112" y="833" class="note">8. Release plate cavity: 63W x 51H x 6D behind pockets.</text>
  <text x="1112" y="848" class="note">9. Guide pins: dia 3.0, 10mm deep, at X=40 &amp; X=110.5, Z=40.</text>
  <text x="1112" y="863" class="note">10. Cam lever pivot: dia 5 at X=74, Z=40 in front wall.</text>
  <text x="1112" y="878" class="note">11. Bottom slide rails: 2x3mm x full 130mm depth.</text>
  <text x="1112" y="893" class="note">12. 5mm x 45-deg chamfer on 4 front leading edges.</text>
  <text x="1112" y="908" class="note">13. Interior ledges at Z=4 (2mm wide shelves) for pump tray.</text>
  <text x="1112" y="923" class="note">14. Pogo PCB recess on top face: 15W x 30L x 1.5D mm.</text>
  <text x="1112" y="938" class="note">15. Fitting pocket centers: X=54, X=94, Z=26, Z=54.</text>
  <text x="1112" y="953" class="note">16. Detail A: barbell profile section at 6 px/mm.</text>

  <!-- ================================================================ -->
  <!-- TITLE BLOCK                                                       -->
  <!-- ================================================================ -->
  <rect x="620" y="660" width="460" height="110" fill="#f9f9f9" stroke="#000" stroke-width="1.2"/>
  <line x1="620" y1="690" x2="1080" y2="690" stroke="#000" stroke-width="0.8"/>
  <line x1="620" y1="715" x2="1080" y2="715" stroke="#000" stroke-width="0.8"/>
  <line x1="620" y1="740" x2="1080" y2="740" stroke="#000" stroke-width="0.8"/>
  <text x="850" y="682" text-anchor="middle" class="title">CARTRIDGE OUTER SHELL</text>
  <text x="850" y="708" text-anchor="middle" class="subtitle">Pump Cartridge Module — Soda Flavor Injector</text>
  <text x="632" y="733" class="dim">Material: PETG (3D printed)</text>
  <text x="850" y="733" class="dim">Scale: 3 px/mm (views) | 6 px/mm (detail)</text>
  <text x="632" y="755" class="dim">Exterior: 148W x 130D x 80H mm</text>
  <text x="850" y="755" class="dim">Wall: 4mm solid (all sides)</text>
  <text x="632" y="768" class="dim">Interior: 140W x 122D x 72H mm</text>

</svg>