<svg xmlns="http://www.w3.org/2000/svg" viewBox="0 0 1100 950" width="1100" height="950" font-family="Arial, Helvetica, sans-serif">
  <title>Pump Tray — Engineering Drawing</title>

  <defs>
    <style>
      .outline { stroke: #000; stroke-width: 1.5; fill: none; }
      .thin { stroke: #000; stroke-width: 0.5; fill: none; }
      .hidden { stroke: #000; stroke-width: 0.8; stroke-dasharray: 4,3; fill: none; }
      .hidden-thin { stroke: #000; stroke-width: 0.8; stroke-dasharray: 2,2; fill: none; }
      .center { stroke: #000; stroke-width: 0.35; stroke-dasharray: 12,3,2,3; fill: none; }
      .dim { stroke: #333; stroke-width: 0.5; fill: none; }
      .dimtext { font-size: 9px; fill: #333; text-anchor: middle; }
      .label { font-size: 11px; font-weight: bold; fill: #000; text-anchor: middle; }
      .note { font-size: 9px; fill: #000; }
      .title { font-size: 14px; font-weight: bold; fill: #000; }
      .titletext { font-size: 10px; fill: #000; }
      .hatch { stroke: #666; stroke-width: 0.3; fill: none; }
      .detail-frame { stroke: #000; stroke-width: 0.5; fill: none; }
      .arrow { fill: #333; stroke: none; }
    </style>
    <marker id="arrowL" markerWidth="6" markerHeight="4" refX="0" refY="2" orient="auto">
      <path d="M6,0 L0,2 L6,4 Z" class="arrow"/>
    </marker>
    <marker id="arrowR" markerWidth="6" markerHeight="4" refX="6" refY="2" orient="auto">
      <path d="M0,0 L6,2 L0,4 Z" class="arrow"/>
    </marker>
  </defs>

  <!-- ==================== TOP VIEW ==================== -->
  <!-- Scale: 3 px/mm. Origin at (60, 55). Tray: 138W x 120D = 414 x 360 px -->
  <!-- Looking along -Z: Horizontal = X (width), Vertical = Y (depth) -->
  <!-- Y increases downward in SVG = toward rear -->
  <text x="267" y="30" class="label">TOP VIEW</text>
  <text x="267" y="44" class="dimtext">(Scale 3:1 px/mm)</text>

  <g transform="translate(60, 55)">
    <!-- Tray outline -->
    <rect x="0" y="0" width="414" height="360" class="outline"/>

    <!-- Locating tabs: 2 per side, 10mm long x 3mm wide protrusions -->
    <!-- Left side tabs at Y=35mm and Y=75mm -->
    <rect x="-9" y="105" width="9" height="30" class="outline"/>
    <rect x="-9" y="225" width="9" height="30" class="outline"/>
    <!-- Right side tabs at Y=35mm and Y=75mm -->
    <rect x="414" y="105" width="9" height="30" class="outline"/>
    <rect x="414" y="225" width="9" height="30" class="outline"/>

    <!-- Wire routing channel along front edge (Y=0 side): 5mm wide x full width, 3mm deep -->
    <!-- In top view: open groove visible from above, shown as solid boundary -->
    <rect x="0" y="0" width="414" height="15" class="thin"/>
    <!-- Channel bottom visible (open from top) - no hidden lines needed -->

    <!-- 4x corner M3 through-holes (3.4mm dia) at 5mm inset -->
    <!-- 3.4mm * 3 px/mm = 10.2px diameter, r=5.1 -->
    <circle cx="15" cy="15" r="5.1" class="outline"/>
    <circle cx="399" cy="15" r="5.1" class="outline"/>
    <circle cx="15" cy="345" r="5.1" class="outline"/>
    <circle cx="399" cy="345" r="5.1" class="outline"/>
    <!-- Centerlines for corner holes -->
    <line x1="7" y1="15" x2="23" y2="15" class="center"/>
    <line x1="15" y1="7" x2="15" y2="23" class="center"/>
    <line x1="391" y1="15" x2="407" y2="15" class="center"/>
    <line x1="399" y1="7" x2="399" y2="23" class="center"/>
    <line x1="7" y1="345" x2="23" y2="345" class="center"/>
    <line x1="15" y1="337" x2="15" y2="353" class="center"/>
    <line x1="391" y1="345" x2="407" y2="345" class="center"/>
    <line x1="399" y1="337" x2="399" y2="353" class="center"/>

    <!-- ===== Pump 1 heat-set insert bosses (left pump) ===== -->
    <!-- Pump 1 center ~X=35mm, Y=60mm. Pattern 60mm x 45mm -->
    <!-- Holes at: (5, 37.5), (65, 37.5), (5, 82.5), (65, 82.5) mm -->
    <!-- Boss OD=8mm -> r=12px at 3px/mm. Pilot hole=4mm -> r=6px -->
    <!-- These are cylinders along Z axis. Top view looking along Z -> CIRCLES (correct) -->
    <circle cx="15" cy="112.5" r="12" class="thin"/>
    <circle cx="15" cy="112.5" r="6" class="outline"/>
    <circle cx="195" cy="112.5" r="12" class="thin"/>
    <circle cx="195" cy="112.5" r="6" class="outline"/>
    <circle cx="15" cy="247.5" r="12" class="thin"/>
    <circle cx="15" cy="247.5" r="6" class="outline"/>
    <circle cx="195" cy="247.5" r="12" class="thin"/>
    <circle cx="195" cy="247.5" r="6" class="outline"/>

    <!-- Pump 1 centerlines -->
    <line x1="0" y1="112.5" x2="30" y2="112.5" class="center"/>
    <line x1="15" y1="97" x2="15" y2="128" class="center"/>
    <line x1="180" y1="112.5" x2="210" y2="112.5" class="center"/>
    <line x1="195" y1="97" x2="195" y2="128" class="center"/>
    <line x1="0" y1="247.5" x2="30" y2="247.5" class="center"/>
    <line x1="15" y1="232" x2="15" y2="263" class="center"/>
    <line x1="180" y1="247.5" x2="210" y2="247.5" class="center"/>
    <line x1="195" y1="232" x2="195" y2="263" class="center"/>

    <!-- ===== Pump 2 heat-set insert bosses (right pump) ===== -->
    <!-- Pump 2 center ~X=103mm. Holes at: (73, 37.5), (133, 37.5), (73, 82.5), (133, 82.5) mm -->
    <circle cx="219" cy="112.5" r="12" class="thin"/>
    <circle cx="219" cy="112.5" r="6" class="outline"/>
    <circle cx="399" cy="112.5" r="12" class="thin"/>
    <circle cx="399" cy="112.5" r="6" class="outline"/>
    <circle cx="219" cy="247.5" r="12" class="thin"/>
    <circle cx="219" cy="247.5" r="6" class="outline"/>
    <circle cx="399" cy="247.5" r="12" class="thin"/>
    <circle cx="399" cy="247.5" r="6" class="outline"/>

    <!-- Pump 2 centerlines -->
    <line x1="204" y1="112.5" x2="234" y2="112.5" class="center"/>
    <line x1="219" y1="97" x2="219" y2="128" class="center"/>
    <line x1="384" y1="112.5" x2="414" y2="112.5" class="center"/>
    <line x1="399" y1="97" x2="399" y2="128" class="center"/>
    <line x1="204" y1="247.5" x2="234" y2="247.5" class="center"/>
    <line x1="219" y1="232" x2="219" y2="263" class="center"/>
    <line x1="384" y1="247.5" x2="414" y2="247.5" class="center"/>
    <line x1="399" y1="232" x2="399" y2="263" class="center"/>

    <!-- ===== BPT tubing C-clips (4x) near rear ===== -->
    <!-- At Y=105mm=315px. Spaced at X=20, 52, 86, 118 mm -->
    <!-- Clip OD~11.3mm -> r=16.95px. ID=8.3mm -> r=12.45px -->
    <!-- Clips are cylinders along Z. Top view -> CIRCLES (correct) -->
    <!-- Show as concentric circles with opening gap -->
    <circle cx="60" cy="315" r="12.45" class="thin"/>
    <circle cx="60" cy="315" r="16.95" class="outline"/>
    <circle cx="156" cy="315" r="12.45" class="thin"/>
    <circle cx="156" cy="315" r="16.95" class="outline"/>
    <circle cx="258" cy="315" r="12.45" class="thin"/>
    <circle cx="258" cy="315" r="16.95" class="outline"/>
    <circle cx="354" cy="315" r="12.45" class="thin"/>
    <circle cx="354" cy="315" r="16.95" class="outline"/>

    <!-- ===== 1/4" hard tubing C-clips (4x) ===== -->
    <!-- At Y=113mm=339px. Same X spacing. -->
    <!-- Clip OD~9.65mm -> r=14.475px. ID=6.65mm -> r=9.975px -->
    <circle cx="60" cy="339" r="9.975" class="thin"/>
    <circle cx="60" cy="339" r="14.475" class="outline"/>
    <circle cx="156" cy="339" r="9.975" class="thin"/>
    <circle cx="156" cy="339" r="14.475" class="outline"/>
    <circle cx="258" cy="339" r="9.975" class="thin"/>
    <circle cx="258" cy="339" r="14.475" class="outline"/>
    <circle cx="354" cy="339" r="9.975" class="thin"/>
    <circle cx="354" cy="339" r="14.475" class="outline"/>

    <!-- Labels for clip rows -->
    <text x="430" y="318" class="note" text-anchor="start">BPT clips (4x)</text>
    <text x="430" y="342" class="note" text-anchor="start">1/4" clips (4x)</text>
  </g>

  <!-- TOP VIEW DIMENSIONS -->
  <g transform="translate(60, 55)">
    <!-- Overall width: 138mm -->
    <line x1="0" y1="-8" x2="0" y2="-25" class="dim"/>
    <line x1="414" y1="-8" x2="414" y2="-25" class="dim"/>
    <line x1="0" y1="-20" x2="414" y2="-20" class="dim" marker-start="url(#arrowL)" marker-end="url(#arrowR)"/>
    <text x="207" y="-24" class="dimtext">138</text>

    <!-- Overall depth: 120mm -->
    <line x1="-18" y1="0" x2="-38" y2="0" class="dim"/>
    <line x1="-18" y1="360" x2="-38" y2="360" class="dim"/>
    <line x1="-33" y1="0" x2="-33" y2="360" class="dim" marker-start="url(#arrowL)" marker-end="url(#arrowR)"/>
    <text x="-37" y="184" class="dimtext" transform="rotate(-90,-37,184)">120</text>

    <!-- Wire channel width: 5mm -->
    <line x1="420" y1="0" x2="445" y2="0" class="dim"/>
    <line x1="420" y1="15" x2="445" y2="15" class="dim"/>
    <line x1="440" y1="0" x2="440" y2="15" class="dim" marker-start="url(#arrowL)" marker-end="url(#arrowR)"/>
    <text x="455" y="11" class="dimtext">5</text>

    <!-- Corner hole inset: 5mm from edges -->
    <line x1="0" y1="370" x2="0" y2="388" class="dim"/>
    <line x1="15" y1="370" x2="15" y2="388" class="dim"/>
    <line x1="0" y1="383" x2="15" y2="383" class="dim" marker-start="url(#arrowL)" marker-end="url(#arrowR)"/>
    <text x="7.5" y="398" class="dimtext">5</text>

    <!-- Pump 1 hole spacing horizontal: 60mm -->
    <line x1="15" y1="260" x2="15" y2="282" class="dim"/>
    <line x1="195" y1="260" x2="195" y2="282" class="dim"/>
    <line x1="15" y1="277" x2="195" y2="277" class="dim" marker-start="url(#arrowL)" marker-end="url(#arrowR)"/>
    <text x="105" y="291" class="dimtext">60</text>

    <!-- Pump hole spacing vertical: 45mm -->
    <line x1="200" y1="112.5" x2="216" y2="112.5" class="dim"/>
    <line x1="200" y1="247.5" x2="216" y2="247.5" class="dim"/>
    <line x1="211" y1="112.5" x2="211" y2="247.5" class="dim" marker-start="url(#arrowL)" marker-end="url(#arrowR)"/>
    <text x="211" y="185" class="dimtext" transform="rotate(-90,211,185)">45</text>

    <!-- Tab dimensions: 10mm long x 3mm wide -->
    <line x1="-9" y1="98" x2="-9" y2="87" class="dim"/>
    <line x1="0" y1="98" x2="0" y2="87" class="dim"/>
    <line x1="-9" y1="91" x2="0" y2="91" class="dim" marker-start="url(#arrowL)" marker-end="url(#arrowR)"/>
    <text x="-4.5" y="85" class="dimtext">3</text>

    <!-- Boss OD callout -->
    <line x1="207" y1="112.5" x2="240" y2="90" class="dim"/>
    <text x="242" y="88" class="note" text-anchor="start">Boss OD 8, Pilot 4.0</text>

    <!-- Through-hole callout -->
    <line x1="20" y1="10" x2="50" y2="-8" class="dim"/>
    <text x="52" y="-10" class="note" text-anchor="start">4x M3 thru 3.4</text>
  </g>

  <!-- ==================== FRONT VIEW ==================== -->
  <!-- Scale: 3 px/mm horizontal (X), 3 px/mm vertical (Z) -->
  <!-- Looking along -Y: Horizontal = X (width=138), Vertical = Z (height=6) -->
  <!-- Aligned with top view X range. Very thin: 6mm * 3 = 18px -->
  <text x="267" y="470" class="label">FRONT VIEW</text>
  <text x="267" y="484" class="dimtext">(Scale 3:1 px/mm)</text>

  <g transform="translate(60, 495)">
    <!-- Tray outline: 414 x 18 px -->
    <rect x="0" y="0" width="414" height="18" class="outline"/>

    <!-- Wire channel on top-front: 5mm wide x 3mm deep = visible as notch -->
    <!-- Full width, top 3mm (9px) is the channel depth -->
    <line x1="0" y1="9" x2="414" y2="9" class="outline"/>

    <!-- Locating tabs on left/right sides (visible, full height) -->
    <rect x="-9" y="0" width="9" height="18" class="outline"/>
    <rect x="414" y="0" width="9" height="18" class="outline"/>

    <!-- Heat-set insert bosses: cylinders along Z. Front view along Y -> RECTANGLES (correct) -->
    <!-- Front row (Y=37.5mm): visible as rectangles. 8mm wide = 24px, full height -->
    <!-- At X=5mm(15px), X=65mm(195px), X=73mm(219px), X=133mm(399px) -->
    <rect x="3" y="0" width="24" height="18" class="hidden-thin"/>
    <rect x="183" y="0" width="24" height="18" class="hidden-thin"/>
    <rect x="207" y="0" width="24" height="18" class="hidden-thin"/>
    <rect x="387" y="0" width="24" height="18" class="hidden-thin"/>

    <!-- Corner through-holes: at X=5mm, visible as hidden vertical lines -->
    <!-- 3.4mm dia hole -> edges at (5-1.7)=3.3mm and (5+1.7)=6.7mm -> 9.9px, 20.1px -->
    <line x1="9.9" y1="0" x2="9.9" y2="18" class="hidden-thin"/>
    <line x1="20.1" y1="0" x2="20.1" y2="18" class="hidden-thin"/>
    <line x1="393.9" y1="0" x2="393.9" y2="18" class="hidden-thin"/>
    <line x1="404.1" y1="0" x2="404.1" y2="18" class="hidden-thin"/>

    <!-- Dimensions -->
    <!-- Height: 6mm -->
    <line x1="430" y1="0" x2="455" y2="0" class="dim"/>
    <line x1="430" y1="18" x2="455" y2="18" class="dim"/>
    <line x1="450" y1="0" x2="450" y2="18" class="dim" marker-start="url(#arrowL)" marker-end="url(#arrowR)"/>
    <text x="463" y="12" class="dimtext">6</text>

    <!-- Wire channel depth: 3mm -->
    <line x1="418" y1="0" x2="430" y2="0" class="dim"/>
    <line x1="418" y1="9" x2="430" y2="9" class="dim"/>
    <line x1="425" y1="0" x2="425" y2="9" class="dim" marker-start="url(#arrowL)" marker-end="url(#arrowR)"/>
    <text x="425" y="-4" class="dimtext">3</text>
  </g>

  <!-- ==================== SIDE VIEW (RIGHT) ==================== -->
  <!-- Scale: 3 px/mm horizontal (Y=depth), 3 px/mm vertical (Z=height) -->
  <!-- Looking along +X (right side): Horizontal = Y (depth=120), Vertical = Z (height=6) -->
  <!-- Aligned with front view Z range (both share Z axis) -->
  <text x="770" y="470" class="label">RIGHT SIDE VIEW</text>
  <text x="770" y="484" class="dimtext">(Scale 3:1 px/mm)</text>

  <g transform="translate(560, 495)">
    <!-- Tray outline: 360 x 18 px -->
    <!-- In right side view looking along +X: Y increases to the LEFT (rear at left), front at right -->
    <!-- Actually in third-angle projection, side view right of front: looking from right (+X) -->
    <!-- Horizontal axis = Y with front (Y=0) at LEFT, rear (Y=120) at RIGHT -->
    <rect x="0" y="0" width="360" height="18" class="outline"/>

    <!-- Wire channel: at front edge (Y=0, left side of this view): 5mm=15px wide, 3mm=9px deep -->
    <line x1="0" y1="9" x2="15" y2="9" class="outline"/>
    <line x1="15" y1="0" x2="15" y2="9" class="outline"/>

    <!-- Locating tabs: on the right wall (facing viewer), at Y=35mm and Y=75mm -->
    <!-- These are on the wall we're looking at (right wall), so they protrude toward us -->
    <!-- Not visible in side profile view — they're in the plane of the edge we see -->
    <!-- Actually tabs protrude outward from the tray edge, perpendicular to the view -->
    <!-- In side view, the tab AT this side would appear as a bump extending outward -->
    <!-- But since we look along X, the tab extends in X, we see it as a rectangle protruding below/above -->
    <!-- Tabs are on left/right edges extending outward in X — in side view they'd protrude toward viewer = not visible in orthographic -->
    <!-- The tabs on the NEAR wall (right wall when looking from right) would be invisible (extending toward viewer) -->
    <!-- The tabs on the FAR wall (left wall) would be hidden behind the tray -->

    <!-- Bosses behind surface: at Y=37.5mm=112.5px and Y=82.5mm=247.5px -->
    <!-- Boss OD 8mm = 24px. Bosses are at X=5mm and X=133mm (far and near sides) -->
    <!-- In right side view: bosses along Z axis, seen from side -> rectangles (correct) -->
    <!-- Near-side bosses (X=133mm) visible, far-side (X=5mm) hidden behind -->
    <rect x="100.5" y="0" width="24" height="18" class="hidden-thin"/>
    <rect x="235.5" y="0" width="24" height="18" class="hidden-thin"/>

    <!-- C-clips at rear: BPT at Y=105mm=315px, 1/4" at Y=113mm=339px -->
    <!-- These are circles in top view but rectangles in side view -->
    <rect x="298.05" y="0" width="33.9" height="18" class="hidden-thin"/>
    <rect x="324.025" y="0" width="28.95" height="18" class="hidden-thin"/>

    <!-- Dimensions -->
    <!-- Depth: 120mm -->
    <line x1="0" y1="25" x2="0" y2="42" class="dim"/>
    <line x1="360" y1="25" x2="360" y2="42" class="dim"/>
    <line x1="0" y1="37" x2="360" y2="37" class="dim" marker-start="url(#arrowL)" marker-end="url(#arrowR)"/>
    <text x="180" y="51" class="dimtext">120</text>
  </g>

  <!-- ==================== DETAIL A: BOSS CROSS-SECTION (enlarged) ==================== -->
  <!-- Scale: 10 px/mm for better visibility of 6mm height -->
  <text x="770" y="55" class="label">DETAIL A — Boss Cross-Section</text>
  <text x="770" y="69" class="dimtext">(Scale 10:1 px/mm, section through boss)</text>

  <g transform="translate(540, 80)">
    <!-- Frame: 460 x 195 -->
    <rect x="0" y="0" width="460" height="195" class="detail-frame"/>

    <!-- Show ~40mm wide section of tray centered on a boss, at 10px/mm -->
    <!-- 40mm = 400px wide, 6mm = 60px tall -->
    <g transform="translate(30, 65)">
      <!-- Tray section outline -->
      <rect x="0" y="0" width="400" height="60" class="outline"/>

      <!-- Boss region: 8mm = 80px wide, centered at 200px -->
      <!-- Boss edges at 160px and 240px -->
      <line x1="160" y1="0" x2="160" y2="60" class="thin"/>
      <line x1="240" y1="0" x2="240" y2="60" class="thin"/>

      <!-- Pilot hole: 4mm = 40px, centered at 200px -->
      <!-- Hole edges at 180px and 220px -->
      <rect x="180" y="0" width="40" height="60" fill="#fff" stroke="#000" stroke-width="1"/>

      <!-- Section hatching -->
      <clipPath id="hatch-left">
        <rect x="0" y="0" width="180" height="60"/>
      </clipPath>
      <g clip-path="url(#hatch-left)">
        <line x1="-20" y1="60" x2="40" y2="0" class="hatch"/>
        <line x1="-10" y1="60" x2="50" y2="0" class="hatch"/>
        <line x1="0" y1="60" x2="60" y2="0" class="hatch"/>
        <line x1="10" y1="60" x2="70" y2="0" class="hatch"/>
        <line x1="20" y1="60" x2="80" y2="0" class="hatch"/>
        <line x1="30" y1="60" x2="90" y2="0" class="hatch"/>
        <line x1="40" y1="60" x2="100" y2="0" class="hatch"/>
        <line x1="50" y1="60" x2="110" y2="0" class="hatch"/>
        <line x1="60" y1="60" x2="120" y2="0" class="hatch"/>
        <line x1="70" y1="60" x2="130" y2="0" class="hatch"/>
        <line x1="80" y1="60" x2="140" y2="0" class="hatch"/>
        <line x1="90" y1="60" x2="150" y2="0" class="hatch"/>
        <line x1="100" y1="60" x2="160" y2="0" class="hatch"/>
        <line x1="110" y1="60" x2="170" y2="0" class="hatch"/>
        <line x1="120" y1="60" x2="180" y2="0" class="hatch"/>
        <line x1="130" y1="60" x2="190" y2="0" class="hatch"/>
        <line x1="140" y1="60" x2="200" y2="0" class="hatch"/>
        <line x1="150" y1="60" x2="210" y2="0" class="hatch"/>
        <line x1="160" y1="60" x2="220" y2="0" class="hatch"/>
      </g>

      <clipPath id="hatch-right">
        <rect x="220" y="0" width="180" height="60"/>
      </clipPath>
      <g clip-path="url(#hatch-right)">
        <line x1="200" y1="60" x2="260" y2="0" class="hatch"/>
        <line x1="210" y1="60" x2="270" y2="0" class="hatch"/>
        <line x1="220" y1="60" x2="280" y2="0" class="hatch"/>
        <line x1="230" y1="60" x2="290" y2="0" class="hatch"/>
        <line x1="240" y1="60" x2="300" y2="0" class="hatch"/>
        <line x1="250" y1="60" x2="310" y2="0" class="hatch"/>
        <line x1="260" y1="60" x2="320" y2="0" class="hatch"/>
        <line x1="270" y1="60" x2="330" y2="0" class="hatch"/>
        <line x1="280" y1="60" x2="340" y2="0" class="hatch"/>
        <line x1="290" y1="60" x2="350" y2="0" class="hatch"/>
        <line x1="300" y1="60" x2="360" y2="0" class="hatch"/>
        <line x1="310" y1="60" x2="370" y2="0" class="hatch"/>
        <line x1="320" y1="60" x2="380" y2="0" class="hatch"/>
        <line x1="330" y1="60" x2="390" y2="0" class="hatch"/>
        <line x1="340" y1="60" x2="400" y2="0" class="hatch"/>
        <line x1="350" y1="60" x2="410" y2="0" class="hatch"/>
      </g>

      <!-- Dimensions -->
      <!-- Boss OD: 8mm = 80px (160 to 240) -->
      <line x1="160" y1="-5" x2="160" y2="-25" class="dim"/>
      <line x1="240" y1="-5" x2="240" y2="-25" class="dim"/>
      <line x1="160" y1="-20" x2="240" y2="-20" class="dim" marker-start="url(#arrowL)" marker-end="url(#arrowR)"/>
      <text x="200" y="-25" class="dimtext">8 (Boss OD)</text>

      <!-- Pilot hole: 4mm = 40px (180 to 220) -->
      <line x1="180" y1="65" x2="180" y2="85" class="dim"/>
      <line x1="220" y1="65" x2="220" y2="85" class="dim"/>
      <line x1="180" y1="80" x2="220" y2="80" class="dim" marker-start="url(#arrowL)" marker-end="url(#arrowR)"/>
      <text x="200" y="95" class="dimtext">4.0 (Pilot)</text>

      <!-- Height: 6mm = 60px -->
      <line x1="405" y1="0" x2="425" y2="0" class="dim"/>
      <line x1="405" y1="60" x2="425" y2="60" class="dim"/>
      <line x1="420" y1="0" x2="420" y2="60" class="dim" marker-start="url(#arrowL)" marker-end="url(#arrowR)"/>
      <text x="420" y="-5" class="dimtext">6</text>
    </g>
  </g>

  <!-- ==================== DETAIL B: WIRE CHANNEL SECTION ==================== -->
  <text x="770" y="310" class="label">DETAIL B — Wire Channel Section</text>
  <text x="770" y="324" class="dimtext">(Scale 10:1 px/mm)</text>

  <g transform="translate(580, 340)">
    <rect x="0" y="0" width="200" height="120" class="detail-frame"/>

    <!-- Section showing wire channel profile at 10px/mm -->
    <!-- Show 12mm depth x 6mm height = 120px x 60px -->
    <g transform="translate(40, 20)">
      <!-- Full tray section outline: 12mm wide = 120px, 6mm tall = 60px -->
      <!-- Channel notch: front 5mm=50px, depth 3mm=30px from top -->
      <path d="M0,30 L0,60 L120,60 L120,0 L50,0 L50,30 Z" class="outline"/>

      <!-- Hatching -->
      <clipPath id="hatch-wc">
        <path d="M0,30 L0,60 L120,60 L120,0 L50,0 L50,30 Z"/>
      </clipPath>
      <g clip-path="url(#hatch-wc)">
        <line x1="-30" y1="60" x2="30" y2="0" class="hatch"/>
        <line x1="-20" y1="60" x2="40" y2="0" class="hatch"/>
        <line x1="-10" y1="60" x2="50" y2="0" class="hatch"/>
        <line x1="0" y1="60" x2="60" y2="0" class="hatch"/>
        <line x1="10" y1="60" x2="70" y2="0" class="hatch"/>
        <line x1="20" y1="60" x2="80" y2="0" class="hatch"/>
        <line x1="30" y1="60" x2="90" y2="0" class="hatch"/>
        <line x1="40" y1="60" x2="100" y2="0" class="hatch"/>
        <line x1="50" y1="60" x2="110" y2="0" class="hatch"/>
        <line x1="60" y1="60" x2="120" y2="0" class="hatch"/>
        <line x1="70" y1="60" x2="130" y2="0" class="hatch"/>
        <line x1="80" y1="60" x2="140" y2="0" class="hatch"/>
      </g>

      <!-- Dimensions -->
      <!-- Channel width: 5mm = 50px -->
      <line x1="0" y1="65" x2="0" y2="80" class="dim"/>
      <line x1="50" y1="65" x2="50" y2="80" class="dim"/>
      <line x1="0" y1="75" x2="50" y2="75" class="dim" marker-start="url(#arrowL)" marker-end="url(#arrowR)"/>
      <text x="25" y="89" class="dimtext">5</text>

      <!-- Channel depth: 3mm = 30px -->
      <line x1="-5" y1="0" x2="-20" y2="0" class="dim"/>
      <line x1="-5" y1="30" x2="-20" y2="30" class="dim"/>
      <line x1="-15" y1="0" x2="-15" y2="30" class="dim" marker-start="url(#arrowL)" marker-end="url(#arrowR)"/>
      <text x="-15" y="-5" class="dimtext">3</text>

      <!-- Total height: 6mm = 60px -->
      <line x1="125" y1="0" x2="140" y2="0" class="dim"/>
      <line x1="125" y1="60" x2="140" y2="60" class="dim"/>
      <line x1="135" y1="0" x2="135" y2="60" class="dim" marker-start="url(#arrowL)" marker-end="url(#arrowR)"/>
      <text x="135" y="-5" class="dimtext">6</text>
    </g>
  </g>

  <!-- ==================== DETAIL C: C-CLIP TOP VIEW ==================== -->
  <text x="267" y="558" class="label">DETAIL C — C-Clip Profiles (Top View)</text>
  <text x="267" y="572" class="dimtext">(Scale 8:1 px/mm)</text>

  <g transform="translate(50, 585)">
    <rect x="0" y="0" width="420" height="160" class="detail-frame"/>

    <!-- BPT C-clip: ID=8.3mm, opening=6.5mm, wall~1.5mm, OD~11.3mm -->
    <g transform="translate(30, 25)">
      <!-- At 8px/mm: ID r=33.2px, OD r=45.2px -->
      <!-- Draw C-shape: circle with gap at top -->
      <!-- Opening = 6.5mm = 52px. Half-opening = 26px. -->
      <!-- At OD radius 45.2: sin(theta) = 26/45.2 -> theta = 35.1 deg -->
      <!-- Arc from 35.1 deg to 324.9 deg (CCW from top) -->
      <!-- Use path for C-clip outer -->
      <!-- Start angle = -54.9 deg from +X (= 90-35.1), end angle = 234.9 deg -->
      <!-- Actually easier: opening at top. Gap edges at angle 90-35.1=54.9 and 90+35.1=125.1 from +X -->
      <!-- Hmm, let me just draw full circles and mask the opening -->

      <!-- Outer circle, inner circle, with opening gap -->
      <circle cx="55" cy="55" r="33.2" class="thin"/>
      <circle cx="55" cy="55" r="45.2" class="outline"/>
      <!-- Mask opening at top: white rect over gap, then redraw gap edges -->
      <rect x="29" y="0" width="52" height="22" fill="#fff" stroke="none"/>
      <!-- Gap edge lines (vertical slots for snap-in) -->
      <line x1="29" y1="22" x2="29" y2="10" class="outline"/>
      <line x1="81" y1="22" x2="81" y2="10" class="outline"/>

      <!-- ID dimension -->
      <line x1="21.8" y1="55" x2="88.2" y2="55" class="dim" marker-start="url(#arrowL)" marker-end="url(#arrowR)"/>
      <text x="55" y="68" class="dimtext">ID 8.3</text>
      <!-- Opening dimension -->
      <line x1="29" y1="5" x2="81" y2="5" class="dim" marker-start="url(#arrowL)" marker-end="url(#arrowR)"/>
      <text x="55" y="-3" class="dimtext">6.5 opening</text>

      <text x="55" y="115" class="dimtext">BPT Clip (4x)</text>
    </g>

    <!-- 1/4" tube C-clip: ID=6.65mm, opening=4.85mm, wall~1.5mm, OD~9.65mm -->
    <g transform="translate(230, 25)">
      <!-- At 8px/mm: ID r=26.6px, OD r=38.6px -->
      <circle cx="55" cy="55" r="26.6" class="thin"/>
      <circle cx="55" cy="55" r="38.6" class="outline"/>
      <!-- Opening mask -->
      <rect x="35.6" y="0" width="38.8" height="22" fill="#fff" stroke="none"/>
      <line x1="35.6" y1="22" x2="35.6" y2="10" class="outline"/>
      <line x1="74.4" y1="22" x2="74.4" y2="10" class="outline"/>

      <!-- ID dimension -->
      <line x1="28.4" y1="55" x2="81.6" y2="55" class="dim" marker-start="url(#arrowL)" marker-end="url(#arrowR)"/>
      <text x="55" y="68" class="dimtext">ID 6.65</text>
      <!-- Opening dimension -->
      <line x1="35.6" y1="5" x2="74.4" y2="5" class="dim" marker-start="url(#arrowL)" marker-end="url(#arrowR)"/>
      <text x="55" y="-3" class="dimtext">4.85 opening</text>

      <text x="55" y="115" class="dimtext">1/4" Tube Clip (4x)</text>
    </g>
  </g>

  <!-- ==================== NOTES ==================== -->
  <g transform="translate(50, 775)">
    <text x="0" y="0" class="title">NOTES:</text>
    <text x="0" y="18" class="note">1. Material: PETG, 3D printed flat (horizontal orientation).</text>
    <text x="0" y="32" class="note">2. All heat-set insert bosses: M3 x 5mm brass knurled inserts, installed at 245C.</text>
    <text x="0" y="46" class="note">3. Pilot holes for inserts: 4.0mm diameter, through full tray thickness.</text>
    <text x="0" y="60" class="note">4. Corner through-holes: 3.4mm clearance for M3 screws (tray-to-shell mounting).</text>
    <text x="0" y="74" class="note">5. Pump mounting pattern estimated at 60x45mm (TBD — measure KPHM400 bracket).</text>
    <text x="0" y="88" class="note">6. C-clips are integral printed features with snap-in openings for strain relief.</text>
    <text x="0" y="102" class="note">7. Wire routing channel: U-shaped, 5mm wide x 3mm deep, runs full width along front edge.</text>
    <text x="0" y="116" class="note">8. Locating tabs (4x) key into mating slots on shell interior walls.</text>
    <text x="0" y="130" class="note">9. Dims in mm. Tolerances: +/-0.3mm general, +/-0.1mm insert pilot bores.</text>
  </g>

  <!-- ==================== TITLE BLOCK ==================== -->
  <g transform="translate(600, 775)">
    <rect x="0" y="0" width="450" height="130" stroke="#000" stroke-width="1" fill="none"/>
    <line x1="0" y1="32" x2="450" y2="32" stroke="#000" stroke-width="0.5"/>
    <line x1="0" y1="64" x2="450" y2="64" stroke="#000" stroke-width="0.5"/>
    <line x1="0" y1="96" x2="450" y2="96" stroke="#000" stroke-width="0.5"/>
    <line x1="150" y1="0" x2="150" y2="130" stroke="#000" stroke-width="0.5"/>

    <text x="75" y="22" class="titletext" text-anchor="middle">Part Name</text>
    <text x="300" y="22" class="title" text-anchor="middle">PUMP TRAY</text>

    <text x="75" y="52" class="titletext" text-anchor="middle">Material</text>
    <text x="300" y="52" class="titletext" text-anchor="middle">PETG -- 3D Printed</text>

    <text x="75" y="84" class="titletext" text-anchor="middle">Envelope</text>
    <text x="300" y="84" class="titletext" text-anchor="middle">138W x 120D x 6H mm</text>

    <text x="75" y="116" class="titletext" text-anchor="middle">Project</text>
    <text x="300" y="116" class="titletext" text-anchor="middle">Soda Flavor Injector -- Pump Cartridge</text>
  </g>

</svg>
