<svg xmlns="http://www.w3.org/2000/svg" viewBox="0 0 1050 780" width="1050" height="780" font-family="Arial, sans-serif">
  <style>
    .thick { stroke: #000; stroke-width: 2; fill: none; }
    .medium { stroke: #000; stroke-width: 1.5; fill: none; }
    .thin { stroke: #000; stroke-width: 0.8; fill: none; }
    .hidden { stroke: #000; stroke-width: 0.8; fill: none; stroke-dasharray: 4,3; }
    .hidden-top { stroke: #000; stroke-width: 0.8; fill: none; stroke-dasharray: 2,2; }
    .center { stroke: #666; stroke-width: 0.5; fill: none; stroke-dasharray: 8,2,2,2; }
    .dim { stroke: #000; stroke-width: 0.5; fill: none; }
    .dim-text { font-size: 11px; fill: #000; text-anchor: middle; }
    .label { font-size: 12px; fill: #000; text-anchor: middle; }
    .label-left { font-size: 12px; fill: #000; text-anchor: start; }
    .title { font-size: 14px; fill: #000; font-weight: bold; text-anchor: middle; }
    .hatch { stroke: #000; stroke-width: 0.5; fill: none; }
    .note { font-size: 10px; fill: #000; }
  </style>

  <rect width="1050" height="780" fill="#fff"/>

  <!-- ========================================== -->
  <!-- FRONT VIEW (center-left)                   -->
  <!-- Origin: fx0=110, fy0=560                   -->
  <!-- px = 110 + X*8, py = 560 - Z*8             -->
  <!-- ========================================== -->

  <text x="360" y="590" class="label">FRONT VIEW</text>

  <!-- Main plate outline -->
  <rect x="110" y="216" width="440" height="344" class="thick"/>

  <!-- Left ear: X=-7.5..0, Z=16.5..26.5 -->
  <rect x="50" y="348" width="60" height="80" class="thick"/>

  <!-- Right ear: X=55..62.5, Z=16.5..26.5 -->
  <rect x="550" y="348" width="60" height="80" class="thick"/>

  <!-- Bore circles (front view: looking along Y, so circles) -->
  <!-- Bottom-left bore (7.5, 7.5) center=(170, 500) -->
  <circle cx="170" cy="500" r="50" class="medium"/>
  <circle cx="170" cy="500" r="42" class="medium"/>
  <circle cx="170" cy="500" r="32" class="hidden"/>

  <!-- Bottom-right bore (47.5, 7.5) center=(490, 500) -->
  <circle cx="490" cy="500" r="50" class="medium"/>
  <circle cx="490" cy="500" r="42" class="medium"/>
  <circle cx="490" cy="500" r="32" class="hidden"/>

  <!-- Top-left bore (7.5, 35.5) center=(170, 276) -->
  <circle cx="170" cy="276" r="50" class="medium"/>
  <circle cx="170" cy="276" r="42" class="medium"/>
  <circle cx="170" cy="276" r="32" class="hidden"/>

  <!-- Top-right bore (47.5, 35.5) center=(490, 276) -->
  <circle cx="490" cy="276" r="50" class="medium"/>
  <circle cx="490" cy="276" r="42" class="medium"/>
  <circle cx="490" cy="276" r="32" class="hidden"/>

  <!-- Guide pin holes: front view circles -->
  <!-- Left: (-5.5, 21.5) center=(66, 388) r=1.65*8=13.2 -->
  <circle cx="66" cy="388" r="13.2" class="medium"/>

  <!-- Right: (60.5, 21.5) center=(594, 388) r=13.2 -->
  <circle cx="594" cy="388" r="13.2" class="medium"/>

  <!-- Push rod boss: (27.5, 21.5) center=(330, 388) r=4*8=32 dashed (back face) -->
  <circle cx="330" cy="388" r="32" class="hidden"/>

  <!-- Center lines for bores -->
  <!-- Bottom-left bore -->
  <line x1="110" y1="500" x2="230" y2="500" class="center"/>
  <line x1="170" y1="440" x2="170" y2="560" class="center"/>
  <!-- Bottom-right bore -->
  <line x1="430" y1="500" x2="550" y2="500" class="center"/>
  <line x1="490" y1="440" x2="490" y2="560" class="center"/>
  <!-- Top-left bore -->
  <line x1="110" y1="276" x2="230" y2="276" class="center"/>
  <line x1="170" y1="216" x2="170" y2="336" class="center"/>
  <!-- Top-right bore -->
  <line x1="430" y1="276" x2="550" y2="276" class="center"/>
  <line x1="490" y1="216" x2="490" y2="336" class="center"/>
  <!-- Guide pin centers -->
  <line x1="50" y1="388" x2="82" y2="388" class="center"/>
  <line x1="66" y1="348" x2="66" y2="428" class="center"/>
  <line x1="578" y1="388" x2="610" y2="388" class="center"/>
  <line x1="594" y1="348" x2="594" y2="428" class="center"/>
  <!-- Push rod boss center -->
  <line x1="290" y1="388" x2="370" y2="388" class="center"/>
  <line x1="330" y1="348" x2="330" y2="428" class="center"/>

  <!-- Section cut line A-A through X=7.5 (front view x=170) -->
  <line x1="170" y1="200" x2="170" y2="210" stroke="#000" stroke-width="1.5"/>
  <line x1="170" y1="210" x2="170" y2="566" stroke="#000" stroke-width="1" stroke-dasharray="12,3,3,3"/>
  <line x1="170" y1="566" x2="170" y2="576" stroke="#000" stroke-width="1.5"/>
  <!-- A labels -->
  <text x="170" y="194" class="label">A</text>
  <text x="170" y="590" class="label">A</text>
  <!-- Arrows on section cut line -->
  <polygon points="178,210 170,200 162,210" fill="#000"/>
  <polygon points="178,566 170,576 162,566" fill="#000"/>

  <!-- FRONT VIEW DIMENSIONS -->

  <!-- Width 55mm -->
  <line x1="110" y1="580" x2="110" y2="610" class="dim"/>
  <line x1="550" y1="580" x2="550" y2="610" class="dim"/>
  <line x1="110" y1="605" x2="550" y2="605" class="dim"/>
  <polygon points="110,605 118,608 118,602" fill="#000"/>
  <polygon points="550,605 542,608 542,602" fill="#000"/>
  <text x="330" y="618" class="dim-text">55</text>

  <!-- Height 43mm -->
  <line x1="90" y1="560" x2="60" y2="560" class="dim"/>
  <line x1="90" y1="216" x2="60" y2="216" class="dim"/>
  <line x1="65" y1="560" x2="65" y2="216" class="dim"/>
  <polygon points="65,560 68,552 62,552" fill="#000"/>
  <polygon points="65,216 68,224 62,224" fill="#000"/>
  <text x="50" y="392" class="dim-text" transform="rotate(-90,50,392)">43</text>

  <!-- Vertical bore spacing 28mm -->
  <line x1="555" y1="500" x2="580" y2="500" class="dim"/>
  <line x1="555" y1="276" x2="580" y2="276" class="dim"/>
  <line x1="575" y1="500" x2="575" y2="276" class="dim"/>
  <polygon points="575,500 578,492 572,492" fill="#000"/>
  <polygon points="575,276 578,284 572,284" fill="#000"/>
  <text x="590" y="392" class="dim-text" transform="rotate(-90,590,392)">28</text>

  <!-- Horizontal bore spacing 40mm -->
  <line x1="170" y1="210" x2="170" y2="198" class="dim"/>
  <line x1="490" y1="210" x2="490" y2="198" class="dim"/>
  <line x1="170" y1="200" x2="490" y2="200" class="dim"/>
  <polygon points="170,200 178,203 178,197" fill="#000"/>
  <polygon points="490,200 482,203 482,197" fill="#000"/>
  <text x="330" y="196" class="dim-text">40</text>

  <!-- Edge to bore 7.5mm bottom -->
  <line x1="110" y1="630" x2="110" y2="640" class="dim"/>
  <line x1="170" y1="630" x2="170" y2="640" class="dim"/>
  <line x1="110" y1="635" x2="170" y2="635" class="dim"/>
  <polygon points="110,635 118,638 118,632" fill="#000"/>
  <polygon points="170,635 162,638 162,632" fill="#000"/>
  <text x="140" y="650" class="dim-text">7.5</text>

  <!-- Ear width 7.5mm -->
  <line x1="50" y1="340" x2="50" y2="330" class="dim"/>
  <line x1="110" y1="340" x2="110" y2="330" class="dim"/>
  <line x1="50" y1="335" x2="110" y2="335" class="dim"/>
  <polygon points="50,335 58,338 58,332" fill="#000"/>
  <polygon points="110,335 102,338 102,332" fill="#000"/>
  <text x="80" y="328" class="dim-text">7.5</text>

  <!-- ========================================== -->
  <!-- TOP VIEW (above front view)                -->
  <!-- Origin: tx0=110, ty0=195                   -->
  <!-- px = 110 + X*8, py = 195 - Y*8             -->
  <!-- Y=0 → 195, Y=6 → 147                      -->
  <!-- ========================================== -->

  <text x="360" y="130" class="label">TOP VIEW</text>

  <!-- Main plate outline: 55mm wide, 6mm deep -->
  <rect x="110" y="147" width="440" height="48" class="thick"/>

  <!-- Left ear -->
  <rect x="50" y="147" width="60" height="48" class="thick"/>

  <!-- Right ear -->
  <rect x="550" y="147" width="60" height="48" class="thick"/>

  <!-- Bore projections as dashed vertical lines (Y-axis cylinders seen from top = pairs of vertical lines) -->
  <!-- Bottom-left bore at X=7.5: outer r=6.25 → X=1.25 and 13.75 → tx=120,220 -->
  <line x1="120" y1="195" x2="120" y2="147" class="hidden-top"/>
  <line x1="220" y1="195" x2="220" y2="147" class="hidden-top"/>
  <!-- Inner lip r=5.25 → X=2.25,12.75 → tx=128,212 -->
  <line x1="128" y1="195" x2="128" y2="147" class="hidden-top"/>
  <line x1="212" y1="195" x2="212" y2="147" class="hidden-top"/>
  <!-- Tube r=4.0 → X=3.5,11.5 → tx=138,202 -->
  <line x1="138" y1="195" x2="138" y2="147" class="hidden-top"/>
  <line x1="202" y1="195" x2="202" y2="147" class="hidden-top"/>

  <!-- Bottom-right bore at X=47.5: outer → X=41.25,53.75 → tx=440,540 -->
  <line x1="440" y1="195" x2="440" y2="147" class="hidden-top"/>
  <line x1="540" y1="195" x2="540" y2="147" class="hidden-top"/>
  <!-- Inner lip → X=42.25,52.75 → tx=448,532 -->
  <line x1="448" y1="195" x2="448" y2="147" class="hidden-top"/>
  <line x1="532" y1="195" x2="532" y2="147" class="hidden-top"/>
  <!-- Tube → X=43.5,51.5 → tx=458,522 -->
  <line x1="458" y1="195" x2="458" y2="147" class="hidden-top"/>
  <line x1="522" y1="195" x2="522" y2="147" class="hidden-top"/>

  <!-- Guide pin slot projections: through-holes at X=-5.5 r=1.65 → X=-7.15,-3.85 → tx=52.8,79.2 -->
  <line x1="52.8" y1="195" x2="52.8" y2="147" class="hidden-top"/>
  <line x1="79.2" y1="195" x2="79.2" y2="147" class="hidden-top"/>
  <!-- Right: X=60.5 r=1.65 → X=58.85,62.15 → tx=580.8,607.2 -->
  <line x1="580.8" y1="195" x2="580.8" y2="147" class="hidden-top"/>
  <line x1="607.2" y1="195" x2="607.2" y2="147" class="hidden-top"/>

  <!-- Push rod boss: X=27.5, r=4 → X=23.5,31.5 → tx=298,362; Y=6..7 → ty=147..139 -->
  <!-- Boss extends beyond back face as rectangle -->
  <line x1="298" y1="147" x2="298" y2="139" class="thick"/>
  <line x1="362" y1="147" x2="362" y2="139" class="thick"/>
  <line x1="298" y1="139" x2="362" y2="139" class="thick"/>

  <!-- Center lines in top view -->
  <line x1="170" y1="135" x2="170" y2="200" class="center"/>
  <line x1="490" y1="135" x2="490" y2="200" class="center"/>
  <line x1="330" y1="133" x2="330" y2="200" class="center"/>

  <!-- Top view depth dimension: 6mm -->
  <line x1="100" y1="195" x2="100" y2="147" class="dim"/>
  <line x1="95" y1="195" x2="105" y2="195" class="dim"/>
  <line x1="95" y1="147" x2="105" y2="147" class="dim"/>
  <polygon points="100,195 103,187 97,187" fill="#000"/>
  <polygon points="100,147 103,155 97,155" fill="#000"/>
  <text x="85" y="175" class="dim-text" transform="rotate(-90,85,175)">6</text>

  <!-- Push rod boss 1mm proud -->
  <line x1="365" y1="147" x2="375" y2="147" class="dim"/>
  <line x1="365" y1="139" x2="375" y2="139" class="dim"/>
  <line x1="372" y1="147" x2="372" y2="139" class="dim"/>
  <text x="388" y="145" class="dim-text" font-size="9">1</text>

  <!-- ========================================== -->
  <!-- SECTION A-A (right of front view)          -->
  <!-- Origin: sx0=670, sy0=560                   -->
  <!-- px = 670 + Y*8, py = 560 - Z*8             -->
  <!-- Y=0 → 670, Y=6 → 718, Y=7 → 726          -->
  <!-- ========================================== -->

  <text x="694" y="590" class="label">SECTION A-A</text>

  <!-- Define hatching pattern -->
  <defs>
    <pattern id="hatch" width="6" height="6" patternUnits="userSpaceOnUse" patternTransform="rotate(45)">
      <line x1="0" y1="0" x2="0" y2="6" stroke="#000" stroke-width="0.5"/>
    </pattern>
  </defs>

  <!-- Section plate outline: Y=0..6, Z=0..43 -->
  <!-- Draw the full plate cross-section with hatching, then overlay white cutouts for bores -->
  <rect x="670" y="216" width="48" height="344" fill="url(#hatch)" stroke="#000" stroke-width="2"/>

  <!-- Bottom bore at Z=7.5 (cut at X=7.5) - stepped profile cutouts -->
  <!-- Outer bore: Y=0..2 (670..686), Z=1.25..13.75 → sy: 560-1.25*8=550, 560-13.75*8=450 -->
  <rect x="670" y="450" width="16" height="100" fill="#fff" stroke="none"/>
  <!-- Inner lip: Y=2..4 (686..702), Z=2.25..12.75 → sy: 542, 458 -->
  <rect x="686" y="458" width="16" height="84" fill="#fff" stroke="none"/>
  <!-- Tube: Y=4..6 (702..718), Z=3.5..11.5 → sy: 532, 468 -->
  <rect x="702" y="468" width="16" height="64" fill="#fff" stroke="none"/>

  <!-- Top bore at Z=35.5 - stepped profile cutouts -->
  <!-- Outer bore: Y=0..2, Z=29.25..41.75 → sy: 560-29.25*8=326, 560-41.75*8=226 -->
  <rect x="670" y="226" width="16" height="100" fill="#fff" stroke="none"/>
  <!-- Inner lip: Y=2..4, Z=30.25..40.75 → sy: 318, 234 -->
  <rect x="686" y="234" width="16" height="84" fill="#fff" stroke="none"/>
  <!-- Tube: Y=4..6, Z=31.5..39.5 → sy: 308, 244 -->
  <rect x="702" y="244" width="16" height="64" fill="#fff" stroke="none"/>

  <!-- Re-draw section outline edges -->
  <line x1="670" y1="216" x2="670" y2="560" stroke="#000" stroke-width="2"/>
  <line x1="718" y1="216" x2="718" y2="560" stroke="#000" stroke-width="2"/>
  <line x1="670" y1="216" x2="718" y2="216" stroke="#000" stroke-width="2"/>
  <line x1="670" y1="560" x2="718" y2="560" stroke="#000" stroke-width="2"/>

  <!-- Bottom bore profile outline -->
  <!-- Top of outer bore: Z=13.75 → sy=450 -->
  <line x1="670" y1="450" x2="686" y2="450" stroke="#000" stroke-width="1.5"/>
  <line x1="686" y1="450" x2="686" y2="458" stroke="#000" stroke-width="1.5"/>
  <line x1="686" y1="458" x2="702" y2="458" stroke="#000" stroke-width="1.5"/>
  <line x1="702" y1="458" x2="702" y2="468" stroke="#000" stroke-width="1.5"/>
  <line x1="702" y1="468" x2="718" y2="468" stroke="#000" stroke-width="1.5"/>
  <!-- Bottom of tube: Z=3.5 → sy=532 -->
  <line x1="718" y1="532" x2="702" y2="532" stroke="#000" stroke-width="1.5"/>
  <line x1="702" y1="532" x2="702" y2="542" stroke="#000" stroke-width="1.5"/>
  <line x1="702" y1="542" x2="686" y2="542" stroke="#000" stroke-width="1.5"/>
  <line x1="686" y1="542" x2="686" y2="550" stroke="#000" stroke-width="1.5"/>
  <line x1="686" y1="550" x2="670" y2="550" stroke="#000" stroke-width="1.5"/>

  <!-- Top bore profile outline -->
  <line x1="670" y1="226" x2="686" y2="226" stroke="#000" stroke-width="1.5"/>
  <line x1="686" y1="226" x2="686" y2="234" stroke="#000" stroke-width="1.5"/>
  <line x1="686" y1="234" x2="702" y2="234" stroke="#000" stroke-width="1.5"/>
  <line x1="702" y1="234" x2="702" y2="244" stroke="#000" stroke-width="1.5"/>
  <line x1="702" y1="244" x2="718" y2="244" stroke="#000" stroke-width="1.5"/>
  <line x1="718" y1="308" x2="702" y2="308" stroke="#000" stroke-width="1.5"/>
  <line x1="702" y1="308" x2="702" y2="318" stroke="#000" stroke-width="1.5"/>
  <line x1="702" y1="318" x2="686" y2="318" stroke="#000" stroke-width="1.5"/>
  <line x1="686" y1="318" x2="686" y2="326" stroke="#000" stroke-width="1.5"/>
  <line x1="686" y1="326" x2="670" y2="326" stroke="#000" stroke-width="1.5"/>

  <!-- Guide pin hole: dashed lines in section (behind cut plane at X=7.5, hole at X=-5.5) -->
  <!-- Center Z=21.5 → sy=388, r=1.65mm → Z=19.85..23.15 → sy=401.2,374.8 -->
  <line x1="670" y1="374.8" x2="718" y2="374.8" class="hidden"/>
  <line x1="670" y1="401.2" x2="718" y2="401.2" class="hidden"/>

  <!-- Push rod boss: dashed (behind cut plane at X=7.5, boss at X=27.5) -->
  <!-- Z=17.5..25.5 → sy=420..356, Y=6..7 → sx=718..726 -->
  <line x1="718" y1="356" x2="726" y2="356" class="hidden"/>
  <line x1="718" y1="420" x2="726" y2="420" class="hidden"/>
  <line x1="726" y1="356" x2="726" y2="420" class="hidden"/>

  <!-- Section center lines -->
  <line x1="660" y1="500" x2="730" y2="500" class="center"/>
  <line x1="660" y1="276" x2="730" y2="276" class="center"/>
  <line x1="660" y1="388" x2="730" y2="388" class="center"/>

  <!-- Section dimensions -->
  <!-- Depth 6mm -->
  <line x1="670" y1="210" x2="670" y2="200" class="dim"/>
  <line x1="718" y1="210" x2="718" y2="200" class="dim"/>
  <line x1="670" y1="205" x2="718" y2="205" class="dim"/>
  <polygon points="670,205 678,208 678,202" fill="#000"/>
  <polygon points="718,205 710,208 710,202" fill="#000"/>
  <text x="694" y="198" class="dim-text">6</text>

  <!-- Bore tier depths: 2mm each -->
  <line x1="670" y1="445" x2="670" y2="435" class="dim"/>
  <line x1="686" y1="445" x2="686" y2="435" class="dim"/>
  <line x1="670" y1="440" x2="686" y2="440" class="dim"/>
  <text x="678" y="433" class="dim-text" font-size="9">2</text>

  <line x1="686" y1="453" x2="686" y2="443" class="dim"/>
  <line x1="702" y1="453" x2="702" y2="443" class="dim"/>
  <line x1="686" y1="448" x2="702" y2="448" class="dim"/>
  <text x="694" y="445" class="dim-text" font-size="9">2</text>

  <line x1="702" y1="463" x2="702" y2="453" class="dim"/>
  <line x1="718" y1="463" x2="718" y2="453" class="dim"/>
  <line x1="702" y1="458" x2="718" y2="458" class="dim"/>
  <text x="710" y="455" class="dim-text" font-size="9">2</text>

  <!-- ========================================== -->
  <!-- BORE DETAIL INSET (bottom-right)           -->
  <!-- Scale 10:1, half-section of stepped bore   -->
  <!-- ========================================== -->

  <!-- Bounding frame for bore detail inset (Rubric 6A) -->
  <rect x="755" y="370" width="190" height="255" fill="none" stroke="#000" stroke-width="0.5"/>

  <text x="880" y="398" class="title">BORE DETAIL</text>
  <text x="880" y="412" class="dim-text">(Scale 10:1)</text>

  <!-- 10px/mm. Front face x=800. Center line y=505 -->
  <!-- Y: 0->800, 2->820, 4->840, 6->860 -->
  <!-- Radii: outer 6.25=62.5px, inner 5.25=52.5px, tube 4.0=40px -->

  <!-- Center line -->
  <line x1="793" y1="505" x2="868" y2="505" class="center"/>

  <!-- Upper bore profile with hatching -->
  <!-- Plate top surface at y=425 (arbitrary, 17.5px=1.75mm above outer bore edge) -->
  <path d="M800,425 L860,425 L860,465 L840,465 L840,452.5 L820,452.5 L820,442.5 L800,442.5 Z" fill="url(#hatch)" stroke="#000" stroke-width="1.5"/>

  <!-- Lower bore profile with hatching (mirror) -->
  <path d="M800,585 L860,585 L860,545 L840,545 L840,557.5 L820,557.5 L820,567.5 L800,567.5 Z" fill="url(#hatch)" stroke="#000" stroke-width="1.5"/>

  <!-- Bore detail dimensions -->
  <!-- Outer diameter: d=12.5 shown between y=442.5 and y=567.5 -->
  <line x1="795" y1="442.5" x2="783" y2="442.5" class="dim"/>
  <line x1="795" y1="567.5" x2="783" y2="567.5" class="dim"/>
  <line x1="786" y1="442.5" x2="786" y2="567.5" class="dim"/>
  <polygon points="786,442.5 789,450.5 783,450.5" fill="#000"/>
  <polygon points="786,567.5 789,559.5 783,559.5" fill="#000"/>
  <text x="774" y="509" class="dim-text" font-size="9" transform="rotate(-90,774,509)">&#x2300;12.5</text>

  <!-- Inner diameter: d=10.5 -->
  <line x1="815" y1="452.5" x2="806" y2="452.5" class="dim"/>
  <line x1="815" y1="557.5" x2="806" y2="557.5" class="dim"/>
  <line x1="808" y1="452.5" x2="808" y2="557.5" class="dim"/>
  <polygon points="808,452.5 811,460.5 805,460.5" fill="#000"/>
  <polygon points="808,557.5 811,549.5 805,549.5" fill="#000"/>
  <text x="798" y="509" class="dim-text" font-size="9" transform="rotate(-90,798,509)">&#x2300;10.5</text>

  <!-- Tube diameter: d=8.0 -->
  <line x1="835" y1="465" x2="826" y2="465" class="dim"/>
  <line x1="835" y1="545" x2="826" y2="545" class="dim"/>
  <line x1="828" y1="465" x2="828" y2="545" class="dim"/>
  <polygon points="828,465 831,473 825,473" fill="#000"/>
  <polygon points="828,545 831,537 825,537" fill="#000"/>
  <text x="818" y="509" class="dim-text" font-size="9" transform="rotate(-90,818,509)">&#x2300;8.0</text>

  <!-- Tier depth dimensions (horizontal) -->
  <line x1="800" y1="590" x2="800" y2="600" class="dim"/>
  <line x1="820" y1="590" x2="820" y2="600" class="dim"/>
  <line x1="840" y1="590" x2="840" y2="600" class="dim"/>
  <line x1="860" y1="590" x2="860" y2="600" class="dim"/>
  <line x1="800" y1="597" x2="820" y2="597" class="dim"/>
  <line x1="820" y1="597" x2="840" y2="597" class="dim"/>
  <line x1="840" y1="597" x2="860" y2="597" class="dim"/>
  <text x="810" y="612" class="dim-text" font-size="9">2</text>
  <text x="830" y="612" class="dim-text" font-size="9">2</text>
  <text x="850" y="612" class="dim-text" font-size="9">2</text>

  <!-- ========================================== -->
  <!-- NOTES                                      -->
  <!-- ========================================== -->

  <text x="670" y="640" class="note" font-weight="bold">NOTES:</text>
  <text x="670" y="655" class="note">1. All dimensions in mm</text>
  <text x="670" y="668" class="note">2. Tolerances: +/- 0.3mm (3D print)</text>
  <text x="670" y="681" class="note">3. Print orientation: front face down (Y=0 on bed)</text>
  <text x="670" y="694" class="note">4. Material: PETG</text>
  <text x="670" y="707" class="note">5. 4x stepped bores for cartridge tube retention</text>
  <text x="670" y="720" class="note">6. Guide pin slots engage frame rails</text>

  <!-- ========================================== -->
  <!-- TITLE BLOCK                                -->
  <!-- ========================================== -->

  <rect x="670" y="730" width="360" height="40" stroke="#000" stroke-width="2" fill="none"/>
  <line x1="670" y1="750" x2="1030" y2="750" stroke="#000" stroke-width="1"/>
  <text x="850" y="746" class="title">RELEASE PLATE</text>
  <text x="750" y="764" class="dim-text">PETG | 55 x 43 x 6 mm</text>
  <text x="960" y="764" class="dim-text">Scale 8:1</text>

  <!-- Bore diameter labels on front view -->
  <text x="230" y="492" class="dim-text" font-size="9">&#x2300;12.5</text>
  <text x="230" y="505" class="dim-text" font-size="9">&#x2300;10.5</text>
  <text x="230" y="518" class="dim-text" font-size="9">&#x2300;8.0 (hidden)</text>

  <!-- Guide pin diameter label -->
  <text x="66" y="420" class="dim-text" font-size="9">&#x2300;3.3</text>

  <!-- Push rod boss label -->
  <text x="330" y="430" class="dim-text" font-size="9">&#x2300;8.0 boss</text>
  <text x="330" y="442" class="dim-text" font-size="9">(back face)</text>

</svg>