<?xml version="1.0" encoding="UTF-8"?>
<svg xmlns="http://www.w3.org/2000/svg" viewBox="0 0 1050 780" width="1050" height="780"
     font-family="Helvetica, Arial, sans-serif" font-size="9">
  <defs>
    <marker id="as" viewBox="0 0 10 6" refX="0" refY="3" markerWidth="7" markerHeight="4.5" orient="auto">
      <path d="M10,0 L0,3 L10,6 Z" fill="#333"/>
    </marker>
    <marker id="ae" viewBox="0 0 10 6" refX="10" refY="3" markerWidth="7" markerHeight="4.5" orient="auto">
      <path d="M0,0 L10,3 L0,6 Z" fill="#333"/>
    </marker>
  </defs>

  <!-- Background and border -->
  <rect width="1050" height="780" fill="white"/>
  <rect x="10" y="10" width="1030" height="760" fill="none" stroke="#000" stroke-width="1.5"/>

  <!--
    SCALE: 8 px/mm (8:1)

    RELEASE PLATE DIMENSIONS (corrected — bores fully contained):
    - Envelope: 55W x 43H x 6D mm
    - 4x stepped bores, 2x2 grid, 40mm H x 28mm V center-to-center
    - Bore centers relative to plate bottom-left: (7.5,7.5), (47.5,7.5), (7.5,35.5), (47.5,35.5)
    - Edge-to-bore-center: 7.5mm (gives 1.25mm wall around 12.5mm outer bore)
    - Bore tiers (from front/collet face):
        Outer bore (collet cradle): dia 12.5mm, 2mm deep
        Inner lip (collet pusher): dia 10.5mm, 2mm deep
        Tube clearance: dia 8.0mm, through remaining 2mm
    - Guide pin slots: 3.3W x 7.3L mm at X=-5.5,Z=21.5 and X=60.5,Z=21.5 (ears extend beyond main plate)
    - Push rod boss: centered at (27.5,21.5) on back face, 8mm dia x 1mm proud

    COORDINATE TRANSFORMS:
    s = 8 (px per mm)

    FRONT VIEW: plate bottom-left at (fx0, fy0) = (110, 560)
      px = fx0 + X*s = 110 + X*8
      py = fy0 - Z*s = 560 - Z*8

    TOP VIEW: plate front-left at (tx0, ty0) = (110, 195)  (above front view)
      px = tx0 + X*s = 110 + X*8
      py = ty0 - Y*s = 195 - Y*8   (Y=0 is front face, Y=6 is back)

    SIDE VIEW: plate front-bottom at (sx0, sy0) = (670, 560)  (right of front view)
      px = sx0 + Y*s = 670 + Y*8
      py = sy0 - Z*s = 560 - Z*8
  -->

  <!-- ================================================================ -->
  <!-- FRONT VIEW (center-left) -->
  <!-- Looking along depth axis at collet-engagement face -->
  <!-- Shows width (X) horizontal, height (Z) vertical -->
  <!-- ================================================================ -->

  <text x="330" y="208" text-anchor="middle" font-size="11" font-weight="bold" fill="#000">FRONT VIEW</text>

  <!-- Main plate outline: X=0..55, Z=0..43 -->
  <!-- (110, 560) to (110+440, 560-344) = (550, 216) -->
  <rect x="110" y="216" width="440" height="344" fill="none" stroke="#000" stroke-width="2"/>

  <!-- Left ear tab for guide pin slot -->
  <!-- Ear: X=-7.5 to X=0, Z=16.5 to Z=26.5 (10mm tall centered at Z=21.5) -->
  <!-- px: 110+(-7.5)*8=50 to 110, py: 560-26.5*8=348 to 560-16.5*8=428 -->
  <path d="M110,348 L50,348 L50,428 L110,428" fill="none" stroke="#000" stroke-width="2"/>

  <!-- Right ear tab -->
  <!-- Ear: X=55 to X=62.5, Z=16.5 to Z=26.5 -->
  <!-- px: 550 to 550+7.5*8=610, py: 348 to 428 -->
  <path d="M550,348 L610,348 L610,428 L550,428" fill="none" stroke="#000" stroke-width="2"/>

  <!-- Left guide pin slot: circle at X=-5.5, Z=21.5 (3.3mm dia shown end-on) -->
  <!-- px=110+(-5.5)*8=66, py=560-21.5*8=388, r=1.65*8=13.2 -->
  <circle cx="66" cy="388" r="13.2" fill="none" stroke="#000" stroke-width="1.5"/>
  <!-- Center mark -->
  <line x1="58" y1="388" x2="74" y2="388" stroke="#666" stroke-width="0.4" stroke-dasharray="8,2,2,2"/>
  <line x1="66" y1="380" x2="66" y2="396" stroke="#666" stroke-width="0.4" stroke-dasharray="8,2,2,2"/>

  <!-- Right guide pin slot: circle at X=60.5, Z=21.5 -->
  <!-- px=110+60.5*8=594, py=388, r=13.2 -->
  <circle cx="594" cy="388" r="13.2" fill="none" stroke="#000" stroke-width="1.5"/>
  <line x1="586" y1="388" x2="602" y2="388" stroke="#666" stroke-width="0.4" stroke-dasharray="8,2,2,2"/>
  <line x1="594" y1="380" x2="594" y2="396" stroke="#666" stroke-width="0.4" stroke-dasharray="8,2,2,2"/>

  <!-- 4x Stepped Bores -->
  <!-- Bore 1: bottom-left (7.5, 7.5) -> px=110+7.5*8=170, py=560-7.5*8=500 -->
  <!-- Bore 2: bottom-right (47.5, 7.5) -> px=110+47.5*8=490, py=500 -->
  <!-- Bore 3: top-left (7.5, 35.5) -> px=170, py=560-35.5*8=276 -->
  <!-- Bore 4: top-right (47.5, 35.5) -> px=490, py=276 -->
  <!-- Radii: outer 6.25*8=50, inner 5.25*8=42, tube 4.0*8=32 -->

  <!-- Bore 1 (7.5,7.5) -->
  <circle cx="170" cy="500" r="50" fill="none" stroke="#000" stroke-width="1.5"/>
  <circle cx="170" cy="500" r="42" fill="none" stroke="#000" stroke-width="1.2"/>
  <circle cx="170" cy="500" r="32" fill="none" stroke="#000" stroke-width="1.2"/>
  <line x1="160" y1="500" x2="180" y2="500" stroke="#666" stroke-width="0.4" stroke-dasharray="8,2,2,2"/>
  <line x1="170" y1="490" x2="170" y2="510" stroke="#666" stroke-width="0.4" stroke-dasharray="8,2,2,2"/>

  <!-- Bore 2 (47.5,7.5) -->
  <circle cx="490" cy="500" r="50" fill="none" stroke="#000" stroke-width="1.5"/>
  <circle cx="490" cy="500" r="42" fill="none" stroke="#000" stroke-width="1.2"/>
  <circle cx="490" cy="500" r="32" fill="none" stroke="#000" stroke-width="1.2"/>
  <line x1="480" y1="500" x2="500" y2="500" stroke="#666" stroke-width="0.4" stroke-dasharray="8,2,2,2"/>
  <line x1="490" y1="490" x2="490" y2="510" stroke="#666" stroke-width="0.4" stroke-dasharray="8,2,2,2"/>

  <!-- Bore 3 (7.5,35.5) -->
  <circle cx="170" cy="276" r="50" fill="none" stroke="#000" stroke-width="1.5"/>
  <circle cx="170" cy="276" r="42" fill="none" stroke="#000" stroke-width="1.2"/>
  <circle cx="170" cy="276" r="32" fill="none" stroke="#000" stroke-width="1.2"/>
  <line x1="160" y1="276" x2="180" y2="276" stroke="#666" stroke-width="0.4" stroke-dasharray="8,2,2,2"/>
  <line x1="170" y1="266" x2="170" y2="286" stroke="#666" stroke-width="0.4" stroke-dasharray="8,2,2,2"/>

  <!-- Bore 4 (47.5,35.5) -->
  <circle cx="490" cy="276" r="50" fill="none" stroke="#000" stroke-width="1.5"/>
  <circle cx="490" cy="276" r="42" fill="none" stroke="#000" stroke-width="1.2"/>
  <circle cx="490" cy="276" r="32" fill="none" stroke="#000" stroke-width="1.2"/>
  <line x1="480" y1="276" x2="500" y2="276" stroke="#666" stroke-width="0.4" stroke-dasharray="8,2,2,2"/>
  <line x1="490" y1="266" x2="490" y2="286" stroke="#666" stroke-width="0.4" stroke-dasharray="8,2,2,2"/>

  <!-- Push rod boss (hidden, on back face): (27.5,21.5), 8mm dia -->
  <!-- px=110+27.5*8=330, py=560-21.5*8=388, r=4*8=32 -->
  <circle cx="330" cy="388" r="32" fill="none" stroke="#000" stroke-width="0.8"
          stroke-dasharray="6,3"/>

  <!-- ================================================================ -->
  <!-- FRONT VIEW DIMENSIONS -->
  <!-- ================================================================ -->

  <!-- Overall width: 55mm, below plate -->
  <line x1="110" y1="565" x2="110" y2="598" stroke="#333" stroke-width="0.5"/>
  <line x1="550" y1="565" x2="550" y2="598" stroke="#333" stroke-width="0.5"/>
  <line x1="110" y1="593" x2="550" y2="593" stroke="#333" stroke-width="0.5"
        marker-start="url(#as)" marker-end="url(#ae)"/>
  <text x="330" y="590" text-anchor="middle" fill="#333" font-size="9">55</text>

  <!-- Overall height: 43mm, right of plate -->
  <line x1="555" y1="216" x2="585" y2="216" stroke="#333" stroke-width="0.5"/>
  <line x1="555" y1="560" x2="585" y2="560" stroke="#333" stroke-width="0.5"/>
  <line x1="580" y1="216" x2="580" y2="560" stroke="#333" stroke-width="0.5"
        marker-start="url(#as)" marker-end="url(#ae)"/>
  <text x="580" y="388" text-anchor="middle" fill="#333" font-size="9"
        transform="rotate(-90,580,388)">43</text>

  <!-- Horizontal bore spacing: 40mm, above top bores -->
  <line x1="170" y1="209" x2="170" y2="221" stroke="#333" stroke-width="0.5"/>
  <line x1="490" y1="209" x2="490" y2="221" stroke="#333" stroke-width="0.5"/>
  <line x1="170" y1="213" x2="490" y2="213" stroke="#333" stroke-width="0.5"
        marker-start="url(#as)" marker-end="url(#ae)"/>
  <text x="330" y="210" text-anchor="middle" fill="#333" font-size="9">40</text>

  <!-- Vertical bore spacing: 28mm, left of plate (clear of guide pin feature) -->
  <line x1="30" y1="276" x2="165" y2="276" stroke="#333" stroke-width="0.5"/>
  <line x1="30" y1="500" x2="165" y2="500" stroke="#333" stroke-width="0.5"/>
  <line x1="35" y1="276" x2="35" y2="500" stroke="#333" stroke-width="0.5"
        marker-start="url(#as)" marker-end="url(#ae)"/>
  <text x="35" y="388" text-anchor="middle" fill="#333" font-size="9"
        transform="rotate(-90,35,388)">28</text>

  <!-- Left edge to left bore center: 7.5mm -->
  <line x1="110" y1="600" x2="110" y2="616" stroke="#333" stroke-width="0.4"/>
  <line x1="170" y1="600" x2="170" y2="616" stroke="#333" stroke-width="0.4"/>
  <line x1="110" y1="610" x2="170" y2="610" stroke="#333" stroke-width="0.5"
        marker-start="url(#as)" marker-end="url(#ae)"/>
  <text x="140" y="607" text-anchor="middle" fill="#333" font-size="8">7.5</text>

  <!-- Right bore center to right edge: 7.5mm -->
  <line x1="490" y1="600" x2="490" y2="616" stroke="#333" stroke-width="0.4"/>
  <line x1="550" y1="600" x2="550" y2="616" stroke="#333" stroke-width="0.4"/>
  <line x1="490" y1="610" x2="550" y2="610" stroke="#333" stroke-width="0.5"
        marker-start="url(#as)" marker-end="url(#ae)"/>
  <text x="520" y="607" text-anchor="middle" fill="#333" font-size="8">7.5</text>

  <!-- Bottom edge to bottom bore center: 7.5mm -->
  <line x1="588" y1="500" x2="604" y2="500" stroke="#333" stroke-width="0.4"/>
  <line x1="588" y1="560" x2="604" y2="560" stroke="#333" stroke-width="0.4"/>
  <line x1="598" y1="500" x2="598" y2="560" stroke="#333" stroke-width="0.5"
        marker-start="url(#as)" marker-end="url(#ae)"/>
  <text x="612" y="530" text-anchor="start" fill="#333" font-size="8">7.5</text>

  <!-- Top edge to top bore center: 7.5mm -->
  <line x1="588" y1="216" x2="604" y2="216" stroke="#333" stroke-width="0.4"/>
  <line x1="588" y1="276" x2="604" y2="276" stroke="#333" stroke-width="0.4"/>
  <line x1="598" y1="216" x2="598" y2="276" stroke="#333" stroke-width="0.5"
        marker-start="url(#as)" marker-end="url(#ae)"/>
  <text x="612" y="246" text-anchor="start" fill="#333" font-size="8">7.5</text>

  <!-- Bore diameter callouts with leader lines from bore 1 (bottom-left) -->
  <!-- Leader from outer bore circle -->
  <line x1="206" y1="465" x2="240" y2="435" stroke="#333" stroke-width="0.5"/>
  <circle cx="206" cy="465" r="1.5" fill="#333"/>
  <text x="243" y="433" text-anchor="start" fill="#333" font-size="8">&#x2300;12.5 OUTER BORE</text>

  <line x1="200" y1="470" x2="240" y2="448" stroke="#333" stroke-width="0.5"/>
  <circle cx="200" cy="470" r="1.5" fill="#333"/>
  <text x="243" y="446" text-anchor="start" fill="#333" font-size="8">&#x2300;10.5 INNER LIP</text>

  <line x1="193" y1="475" x2="240" y2="461" stroke="#333" stroke-width="0.5"/>
  <circle cx="193" cy="475" r="1.5" fill="#333"/>
  <text x="243" y="459" text-anchor="start" fill="#333" font-size="8">&#x2300;8.0 TUBE CLEARANCE</text>

  <!-- Guide pin slot callout -->
  <line x1="66" y1="372" x2="66" y2="342" stroke="#333" stroke-width="0.5"/>
  <text x="66" y="337" text-anchor="middle" fill="#333" font-size="8">&#x2300;3.3 SLOT</text>
  <text x="66" y="327" text-anchor="middle" fill="#333" font-size="7">(7.3 LONG, TYP x2)</text>

  <!-- Push rod boss callout -->
  <line x1="352" y1="365" x2="390" y2="347" stroke="#333" stroke-width="0.5"/>
  <text x="393" y="345" text-anchor="start" fill="#333" font-size="8">&#x2300;8 BOSS</text>
  <text x="393" y="355" text-anchor="start" fill="#333" font-size="7">(BACK FACE, 1mm PROUD)</text>

  <!-- Section cut line A-A through left bore column X=7.5 -->
  <line x1="170" y1="200" x2="170" y2="585" stroke="#333" stroke-width="0.8"
        stroke-dasharray="18,3,3,3"/>
  <text x="160" y="203" font-size="11" font-weight="bold" fill="#333">A</text>
  <text x="160" y="585" font-size="11" font-weight="bold" fill="#333">A</text>

  <!-- ================================================================ -->
  <!-- TOP VIEW (above front view) -->
  <!-- Looking down (along -Z) -->
  <!-- Shows width (X) horizontal, depth (Y) vertical (Y=0 front at bottom, Y=6 back at top) -->
  <!-- Top view: px = 110 + X*8, py = 195 - Y*8 -->
  <!-- Plate: X=0..55, Y=0..6 -->
  <!-- px: 110..550, py: 195..195-48=147 -->
  <!-- ================================================================ -->

  <text x="330" y="128" text-anchor="middle" font-size="11" font-weight="bold" fill="#000">TOP VIEW</text>

  <!-- Main plate rectangle -->
  <rect x="110" y="147" width="440" height="48" fill="none" stroke="#000" stroke-width="2"/>

  <!-- Left ear: X=-7.5 to 0, narrower Y band for ear -->
  <!-- Ear py: center at py=195-3*8=171, half-height ~4mm*8=32px -> py=155 to 187 (approx same depth as plate) -->
  <path d="M110,155 L50,155 L50,187 L110,187" fill="none" stroke="#000" stroke-width="2"/>

  <!-- Right ear -->
  <path d="M550,155 L610,155 L610,187 L550,187" fill="none" stroke="#000" stroke-width="2"/>

  <!-- Guide pin slots in top view - elongated along Y (vertical in this view) -->
  <!-- Left slot at X=-5.5: px=110+(-5.5)*8=66. Slot 3.3mm wide in X: half-width=1.65*8=13.2 -->
  <!-- px: 66-13.2=52.8 to 66+13.2=79.2 -->
  <rect x="52.8" y="145" width="26.4" height="52" fill="white" stroke="none"/>
  <line x1="52.8" y1="147" x2="52.8" y2="195" fill="none" stroke="#000" stroke-width="1.5"/>
  <line x1="79.2" y1="147" x2="79.2" y2="195" fill="none" stroke="#000" stroke-width="1.5"/>

  <!-- Right slot at X=60.5: px=110+60.5*8=594. px: 594-13.2=580.8 to 594+13.2=607.2 -->
  <rect x="580.8" y="145" width="26.4" height="52" fill="white" stroke="none"/>
  <line x1="580.8" y1="147" x2="580.8" y2="195" fill="none" stroke="#000" stroke-width="1.5"/>
  <line x1="607.2" y1="147" x2="607.2" y2="195" fill="none" stroke="#000" stroke-width="1.5"/>

  <!-- Bore positions as hidden lines (tube clearance 8mm dia) -->
  <!-- Bore column at X=7.5: tube hole edges at X=3.5 and X=11.5 -->
  <!-- px: 110+3.5*8=138 and 110+11.5*8=202 -->
  <line x1="138" y1="147" x2="138" y2="195" fill="none" stroke="#000" stroke-width="0.7"
        stroke-dasharray="5,3"/>
  <line x1="202" y1="147" x2="202" y2="195" fill="none" stroke="#000" stroke-width="0.7"
        stroke-dasharray="5,3"/>

  <!-- Bore column at X=47.5: tube hole edges at X=43.5 and X=51.5 -->
  <!-- px: 110+43.5*8=458 and 110+51.5*8=522 -->
  <line x1="458" y1="147" x2="458" y2="195" fill="none" stroke="#000" stroke-width="0.7"
        stroke-dasharray="5,3"/>
  <line x1="522" y1="147" x2="522" y2="195" fill="none" stroke="#000" stroke-width="0.7"
        stroke-dasharray="5,3"/>

  <!-- Bore centerlines -->
  <line x1="170" y1="143" x2="170" y2="199" stroke="#666" stroke-width="0.4" stroke-dasharray="8,2,2,2"/>
  <line x1="490" y1="143" x2="490" y2="199" stroke="#666" stroke-width="0.4" stroke-dasharray="8,2,2,2"/>

  <!-- Top view dimensions -->
  <!-- Depth: 6mm -->
  <line x1="555" y1="147" x2="570" y2="147" stroke="#333" stroke-width="0.4"/>
  <line x1="555" y1="195" x2="570" y2="195" stroke="#333" stroke-width="0.4"/>
  <line x1="565" y1="147" x2="565" y2="195" stroke="#333" stroke-width="0.5"
        marker-start="url(#as)" marker-end="url(#ae)"/>
  <text x="578" y="171" text-anchor="start" fill="#333" font-size="9">6</text>

  <!-- ================================================================ -->
  <!-- SIDE VIEW / SECTION A-A (right of front view) -->
  <!-- Looking along -X axis (from right side) -->
  <!-- Shows depth (Y) horizontal, height (Z) vertical -->
  <!-- Section cut through bore column at X=7.5, showing bore profiles -->
  <!-- px = 670 + Y*8, py = 560 - Z*8 -->
  <!-- Plate: Y=0..6 (px: 670..718), Z=0..43 (py: 560..216) -->
  <!-- ================================================================ -->

  <text x="694" y="148" text-anchor="middle" font-size="11" font-weight="bold" fill="#000">SECTION A-A</text>

  <!-- Plate outline -->
  <rect x="670" y="216" width="48" height="344" fill="none" stroke="#000" stroke-width="2"/>

  <!-- Section shows two bores cut through their centers -->
  <!-- Bore at Z=7.5 (py=500) and Z=35.5 (py=276) -->

  <!-- DEPTH STACK (from front face Y=0, left side of section): -->
  <!--   Y=0..2: Outer bore (collet cradle) dia 12.5mm, half-height 6.25mm = 50px -->
  <!--   Y=2..4: Inner lip (collet pusher) dia 10.5mm, half-height 5.25mm = 42px -->
  <!--   Y=4..6: Tube clearance dia 8.0mm, half-height 4.0mm = 32px -->

  <!-- px positions: Y=0->670, Y=2->686, Y=4->702, Y=6->718 -->

  <!-- Solid fill for the whole plate cross-section first -->
  <rect x="670" y="216" width="48" height="344" fill="#ddd" stroke="none"/>

  <!-- BOTTOM BORE cutout (center at Z=7.5, py=500) -->
  <!-- Outer bore: py=500-50=450 to py=500+50=550 (within plate: 216..560) -->
  <rect x="670" y="450" width="16" height="100" fill="white" stroke="none"/>
  <!-- Inner lip: py=500-42=458 to py=500+42=542 -->
  <rect x="686" y="458" width="16" height="84" fill="white" stroke="none"/>
  <!-- Tube: py=500-32=468 to py=500+32=532 -->
  <rect x="702" y="468" width="16" height="64" fill="white" stroke="none"/>

  <!-- TOP BORE cutout (center at Z=35.5, py=276) -->
  <!-- Outer bore: py=276-50=226 to py=276+50=326 -->
  <rect x="670" y="226" width="16" height="100" fill="white" stroke="none"/>
  <!-- Inner lip: py=276-42=234 to py=276+42=318 -->
  <rect x="686" y="234" width="16" height="84" fill="white" stroke="none"/>
  <!-- Tube: py=276-32=244 to py=276+32=308 -->
  <rect x="702" y="244" width="16" height="64" fill="white" stroke="none"/>

  <!-- Section cross-hatching on remaining solid areas -->
  <defs>
    <pattern id="hatch" patternUnits="userSpaceOnUse" width="8" height="8" patternTransform="rotate(45)">
      <line x1="0" y1="0" x2="0" y2="8" stroke="#999" stroke-width="0.5"/>
    </pattern>
    <clipPath id="solid-clip">
      <!-- Top solid strip: plate top (py=216) to top bore outer top (py=226) -->
      <rect x="670" y="216" width="48" height="10"/>
      <!-- Left sliver at top bore: between outer top (226) and inner top (234), Y=2..6 is solid -->
      <rect x="686" y="226" width="32" height="8"/>
      <!-- Between inner top (234) and tube top (244), Y=4..6 solid -->
      <rect x="702" y="234" width="16" height="10"/>

      <!-- Band between bores: top bore outer bottom (326) to bottom bore outer top (450) -->
      <rect x="670" y="326" width="48" height="124"/>
      <!-- Step solids at bottom of top bore -->
      <rect x="686" y="318" width="32" height="8"/>
      <rect x="702" y="308" width="16" height="10"/>

      <!-- Step solids at top of bottom bore -->
      <rect x="686" y="450" width="32" height="8"/>
      <rect x="702" y="458" width="16" height="10"/>

      <!-- Bottom solid strip: bottom bore outer bottom (550) to plate bottom (560) -->
      <rect x="670" y="550" width="48" height="10"/>
      <!-- Step solids at bottom of bottom bore -->
      <rect x="686" y="542" width="32" height="8"/>
      <rect x="702" y="532" width="16" height="10"/>
    </clipPath>
  </defs>
  <rect x="668" y="214" width="52" height="348" fill="url(#hatch)" clip-path="url(#solid-clip)"/>

  <!-- Bore profile outlines (stepped edges) -->
  <!-- Bottom bore - upper profile -->
  <path d="M670,450 L686,450 L686,458 L702,458 L702,468 L718,468"
        fill="none" stroke="#000" stroke-width="1.5"/>
  <!-- Bottom bore - lower profile -->
  <path d="M670,550 L686,550 L686,542 L702,542 L702,532 L718,532"
        fill="none" stroke="#000" stroke-width="1.5"/>

  <!-- Top bore - lower profile -->
  <path d="M670,326 L686,326 L686,318 L702,318 L702,308 L718,308"
        fill="none" stroke="#000" stroke-width="1.5"/>
  <!-- Top bore - upper profile -->
  <path d="M670,226 L686,226 L686,234 L702,234 L702,244 L718,244"
        fill="none" stroke="#000" stroke-width="1.5"/>

  <!-- Vertical step lines (bore tier boundaries) -->
  <!-- Bottom bore at Y=2 (px=686) -->
  <line x1="686" y1="450" x2="686" y2="458" stroke="#000" stroke-width="1.5"/>
  <line x1="686" y1="550" x2="686" y2="542" stroke="#000" stroke-width="1.5"/>
  <!-- Bottom bore at Y=4 (px=702) -->
  <line x1="702" y1="458" x2="702" y2="468" stroke="#000" stroke-width="1.5"/>
  <line x1="702" y1="542" x2="702" y2="532" stroke="#000" stroke-width="1.5"/>
  <!-- Top bore at Y=2 (px=686) -->
  <line x1="686" y1="326" x2="686" y2="318" stroke="#000" stroke-width="1.5"/>
  <line x1="686" y1="226" x2="686" y2="234" stroke="#000" stroke-width="1.5"/>
  <!-- Top bore at Y=4 (px=702) -->
  <line x1="702" y1="318" x2="702" y2="308" stroke="#000" stroke-width="1.5"/>
  <line x1="702" y1="234" x2="702" y2="244" stroke="#000" stroke-width="1.5"/>

  <!-- Guide pin slot in section view -->
  <!-- Slot at Z=21.5, py=560-21.5*8=388. Slot 3.3mm tall in Z (half=1.65*8=13.2px) -->
  <!-- Through-slot across full depth. Upper edge py=374.8, lower py=401.2 -->
  <rect x="668" y="374.8" width="52" height="26.4" fill="white" stroke="none"/>
  <line x1="670" y1="374.8" x2="718" y2="374.8" stroke="#000" stroke-width="1.5"/>
  <line x1="670" y1="401.2" x2="718" y2="401.2" stroke="#000" stroke-width="1.5"/>

  <!-- Redraw plate outline on top -->
  <rect x="670" y="216" width="48" height="344" fill="none" stroke="#000" stroke-width="2"/>

  <!-- ================================================================ -->
  <!-- SIDE VIEW DIMENSIONS -->
  <!-- ================================================================ -->

  <!-- Total depth: 6mm -->
  <line x1="670" y1="565" x2="670" y2="590" stroke="#333" stroke-width="0.4"/>
  <line x1="718" y1="565" x2="718" y2="590" stroke="#333" stroke-width="0.4"/>
  <line x1="670" y1="585" x2="718" y2="585" stroke="#333" stroke-width="0.5"
        marker-start="url(#as)" marker-end="url(#ae)"/>
  <text x="694" y="600" text-anchor="middle" fill="#333" font-size="9">6</text>

  <!-- Tier depth dimensions above plate -->
  <line x1="670" y1="212" x2="670" y2="189" stroke="#333" stroke-width="0.4"/>
  <line x1="686" y1="212" x2="686" y2="189" stroke="#333" stroke-width="0.4"/>
  <line x1="702" y1="212" x2="702" y2="189" stroke="#333" stroke-width="0.4"/>
  <line x1="718" y1="212" x2="718" y2="189" stroke="#333" stroke-width="0.4"/>

  <!-- 2mm outer bore depth -->
  <line x1="670" y1="204" x2="686" y2="204" stroke="#333" stroke-width="0.5"
        marker-start="url(#as)" marker-end="url(#ae)"/>
  <text x="678" y="200" text-anchor="middle" fill="#333" font-size="7">2</text>

  <!-- 2mm inner lip depth -->
  <line x1="686" y1="196" x2="702" y2="196" stroke="#333" stroke-width="0.5"
        marker-start="url(#as)" marker-end="url(#ae)"/>
  <text x="694" y="192" text-anchor="middle" fill="#333" font-size="7">2</text>

  <!-- 2mm tube depth -->
  <line x1="702" y1="188" x2="718" y2="188" stroke="#333" stroke-width="0.5"
        marker-start="url(#as)" marker-end="url(#ae)"/>
  <text x="710" y="184" text-anchor="middle" fill="#333" font-size="7">2</text>

  <!-- Tier labels -->
  <text x="678" y="176" text-anchor="middle" fill="#555" font-size="7">OUTER</text>
  <text x="694" y="168" text-anchor="middle" fill="#555" font-size="7">INNER</text>
  <text x="710" y="160" text-anchor="middle" fill="#555" font-size="7">TUBE</text>

  <!-- Tier diameter leader lines from bore profile -->
  <!-- Bottom bore upper profile: outer at py=450, inner at py=458, tube at py=468 -->
  <line x1="670" y1="450" x2="645" y2="432" stroke="#333" stroke-width="0.5"/>
  <circle cx="670" cy="450" r="1.5" fill="#333"/>
  <text x="642" y="430" text-anchor="end" fill="#333" font-size="8">&#x2300;12.5</text>

  <line x1="686" y1="458" x2="645" y2="447" stroke="#333" stroke-width="0.5"/>
  <circle cx="686" cy="458" r="1.5" fill="#333"/>
  <text x="642" y="445" text-anchor="end" fill="#333" font-size="8">&#x2300;10.5</text>

  <line x1="702" y1="468" x2="645" y2="462" stroke="#333" stroke-width="0.5"/>
  <circle cx="702" cy="468" r="1.5" fill="#333"/>
  <text x="642" y="460" text-anchor="end" fill="#333" font-size="8">&#x2300;8.0</text>

  <!-- Guide pin slot width in section -->
  <line x1="723" y1="374.8" x2="740" y2="374.8" stroke="#333" stroke-width="0.4"/>
  <line x1="723" y1="401.2" x2="740" y2="401.2" stroke="#333" stroke-width="0.4"/>
  <line x1="735" y1="374.8" x2="735" y2="401.2" stroke="#333" stroke-width="0.5"
        marker-start="url(#as)" marker-end="url(#ae)"/>
  <text x="748" y="388" text-anchor="start" fill="#333" font-size="8">3.3</text>

  <!-- ================================================================ -->
  <!-- BORE DETAIL INSET (bottom right, above title block) -->
  <!-- ================================================================ -->
  <rect x="760" y="272" width="260" height="130" fill="none" stroke="#000" stroke-width="0.8"/>
  <text x="890" y="290" text-anchor="middle" font-size="10" font-weight="bold" fill="#000">BORE DETAIL (TYP x4)</text>

  <!-- Mini section at 6px/mm scale -->
  <!-- Outer r=6.25*6=37.5, inner r=5.25*6=31.5, tube r=4*6=24 -->
  <!-- Depth: 6mm=36px per tier: 2mm=12px -->
  <!-- Center line py=365 -->
  <!-- Start px=815 -->

  <!-- Solid block -->
  <rect x="815" y="303" width="36" height="124" fill="#eee" stroke="#000" stroke-width="1"/>

  <!-- Outer bore cutout: px=815..827, half-height=37.5 => py=365-37.5=327.5 to py=365+37.5=402.5 -->
  <rect x="815" y="327.5" width="12" height="75" fill="white" stroke="none"/>
  <line x1="815" y1="327.5" x2="827" y2="327.5" stroke="#000" stroke-width="1"/>
  <line x1="827" y1="327.5" x2="827" y2="333.5" stroke="#000" stroke-width="1"/>
  <line x1="815" y1="402.5" x2="827" y2="402.5" stroke="#000" stroke-width="1"/>
  <line x1="827" y1="402.5" x2="827" y2="396.5" stroke="#000" stroke-width="1"/>

  <!-- Inner lip cutout: px=827..839, half-height=31.5 => py=333.5 to py=396.5 -->
  <rect x="827" y="333.5" width="12" height="63" fill="white" stroke="none"/>
  <line x1="827" y1="333.5" x2="839" y2="333.5" stroke="#000" stroke-width="1"/>
  <line x1="839" y1="333.5" x2="839" y2="341" stroke="#000" stroke-width="1"/>
  <line x1="827" y1="396.5" x2="839" y2="396.5" stroke="#000" stroke-width="1"/>
  <line x1="839" y1="396.5" x2="839" y2="389" stroke="#000" stroke-width="1"/>

  <!-- Tube clearance cutout: px=839..851, half-height=24 => py=341 to py=389 -->
  <rect x="839" y="341" width="12" height="48" fill="white" stroke="none"/>
  <line x1="839" y1="341" x2="851" y2="341" stroke="#000" stroke-width="1"/>
  <line x1="839" y1="389" x2="851" y2="389" stroke="#000" stroke-width="1"/>

  <!-- Center line -->
  <line x1="810" y1="365" x2="856" y2="365" stroke="#666" stroke-width="0.4" stroke-dasharray="6,2,2,2"/>

  <!-- Labels for detail -->
  <text x="860" y="330" text-anchor="start" fill="#333" font-size="8">&#x2300;12.5 x 2 deep</text>
  <line x1="858" y1="328" x2="821" y2="328" stroke="#333" stroke-width="0.4"/>

  <text x="860" y="342" text-anchor="start" fill="#333" font-size="8">&#x2300;10.5 x 2 deep</text>
  <line x1="858" y1="340" x2="833" y2="334" stroke="#333" stroke-width="0.4"/>

  <text x="860" y="354" text-anchor="start" fill="#333" font-size="8">&#x2300;8.0 THRU</text>
  <line x1="858" y1="352" x2="845" y2="345" stroke="#333" stroke-width="0.4"/>

  <!-- Depth dimensions below detail -->
  <line x1="815" y1="430" x2="815" y2="440" stroke="#333" stroke-width="0.4"/>
  <line x1="827" y1="430" x2="827" y2="440" stroke="#333" stroke-width="0.4"/>
  <line x1="839" y1="430" x2="839" y2="440" stroke="#333" stroke-width="0.4"/>
  <line x1="851" y1="430" x2="851" y2="440" stroke="#333" stroke-width="0.4"/>

  <line x1="815" y1="436" x2="827" y2="436" stroke="#333" stroke-width="0.5"
        marker-start="url(#as)" marker-end="url(#ae)"/>
  <text x="821" y="433" text-anchor="middle" fill="#333" font-size="7">2</text>

  <line x1="827" y1="436" x2="839" y2="436" stroke="#333" stroke-width="0.5"
        marker-start="url(#as)" marker-end="url(#ae)"/>
  <text x="833" y="433" text-anchor="middle" fill="#333" font-size="7">2</text>

  <line x1="839" y1="436" x2="851" y2="436" stroke="#333" stroke-width="0.5"
        marker-start="url(#as)" marker-end="url(#ae)"/>
  <text x="845" y="433" text-anchor="middle" fill="#333" font-size="7">2</text>

  <!-- Face labels -->
  <text x="815" y="420" text-anchor="middle" fill="#555" font-size="7">FRONT</text>
  <text x="851" y="420" text-anchor="middle" fill="#555" font-size="7">BACK</text>

  <!-- ================================================================ -->
  <!-- TITLE BLOCK -->
  <!-- ================================================================ -->
  <rect x="760" y="670" width="260" height="90" fill="none" stroke="#000" stroke-width="1.2"/>
  <line x1="760" y1="695" x2="1020" y2="695" stroke="#000" stroke-width="0.6"/>
  <line x1="760" y1="714" x2="1020" y2="714" stroke="#000" stroke-width="0.6"/>
  <line x1="760" y1="733" x2="1020" y2="733" stroke="#000" stroke-width="0.6"/>

  <text x="890" y="688" text-anchor="middle" font-size="14" font-weight="bold" fill="#000">RELEASE PLATE</text>
  <text x="775" y="709" fill="#333" font-size="10">Material: PETG</text>
  <text x="775" y="728" fill="#333" font-size="10">Envelope: 55W x 43H x 6D mm</text>
  <text x="775" y="747" fill="#333" font-size="10">Scale: 8:1</text>
  <text x="900" y="747" fill="#333" font-size="10">Projection: Third Angle</text>
  <text x="775" y="758" fill="#333" font-size="9">4x stepped bores, 2x2 grid, 40H x 28V mm c-c</text>

  <!-- ================================================================ -->
  <!-- NOTES -->
  <!-- ================================================================ -->
  <text x="760" y="470" font-size="10" font-weight="bold" fill="#000">NOTES:</text>
  <text x="760" y="485" fill="#555" font-size="8">1. All dimensions in mm.</text>
  <text x="760" y="497" fill="#555" font-size="8">2. 4x identical stepped bores in 2x2 grid.</text>
  <text x="760" y="509" fill="#555" font-size="8">3. Depth stack: 2mm outer + 2mm inner + 2mm tube = 6mm total.</text>
  <text x="760" y="521" fill="#555" font-size="8">4. Guide pin slots: 3.3W x 7.3L mm (through-slot along travel axis).</text>
  <text x="760" y="533" fill="#555" font-size="8">5. Tube clearance: +0.5/-0 mm tolerance.</text>
  <text x="760" y="545" fill="#555" font-size="8">6. Inner lip: +/-0.25mm tolerance. Outer bore: +/-0.5mm tolerance.</text>
  <text x="760" y="557" fill="#555" font-size="8">7. 0.2mm chamfer at tube hole entry edge.</text>
  <text x="760" y="569" fill="#555" font-size="8">8. 0.3mm x 45-deg lead-in chamfer at outer bore entry.</text>
  <text x="760" y="581" fill="#555" font-size="8">9. Push rod boss: 8mm dia x 1mm proud, centered on back face at (27.5, 21.5).</text>
  <text x="760" y="593" fill="#555" font-size="8">10. Print orientation: bore axis perpendicular to build plate (Z-axis).</text>
  <text x="760" y="605" fill="#555" font-size="8">11. Min 1.25mm wall between outer bore and plate edge (all sides).</text>

</svg>
