<svg xmlns="http://www.w3.org/2000/svg" viewBox="0 0 1400 1050" width="1400" height="1050" font-family="Arial, Helvetica, sans-serif">
  <title>Release Plate — Three-View Orthographic + Section</title>

  <defs>
    <style>
      .outline { fill: none; stroke: #000; stroke-width: 1.5; }
      .hidden { fill: none; stroke: #000; stroke-width: 0.8; stroke-dasharray: 6,3; }
      .center { fill: none; stroke: #000; stroke-width: 0.5; stroke-dasharray: 14,3,3,3; }
      .dim { fill: none; stroke: #333; stroke-width: 0.7; }
      .dimtext { font-size: 11px; fill: #333; text-anchor: middle; }
      .label { font-size: 12px; fill: #000; font-weight: bold; }
      .note { font-size: 10px; fill: #333; }
      .section-hatch { fill: none; stroke: #666; stroke-width: 0.4; }
      .section-fill { fill: #e8e8e8; stroke: #000; stroke-width: 1.5; }
      .section-outline { fill: none; stroke: #000; stroke-width: 1.5; }
      .cut-plane { fill: none; stroke: #000; stroke-width: 1.2; stroke-dasharray: 18,4,4,4,4,4; }
      .ext { fill: none; stroke: #333; stroke-width: 0.5; }
      .arrowhead { fill: #333; stroke: none; }
    </style>
    <marker id="arr" markerWidth="8" markerHeight="6" refX="8" refY="3" orient="auto">
      <path d="M0,0 L8,3 L0,6 Z" class="arrowhead"/>
    </marker>
    <marker id="arr-rev" markerWidth="8" markerHeight="6" refX="0" refY="3" orient="auto">
      <path d="M8,0 L0,3 L8,6 Z" class="arrowhead"/>
    </marker>
  </defs>

  <!-- Background -->
  <rect width="1400" height="1050" fill="#fff"/>

  <!-- Title block -->
  <text x="700" y="30" text-anchor="middle" font-size="18" font-weight="bold" fill="#000">Release Plate — Orthographic Drawing</text>
  <text x="700" y="48" text-anchor="middle" font-size="11" fill="#555">Material: PETG | Scale: 8 px/mm | Dims in mm | All bores concentric per hole</text>

  <!--
    AXIS LOOKUP TABLE (Rubric 1):
    VIEW          | LOOKING ALONG | HORIZONTAL AXIS | VERTICAL AXIS
    Front view    | -Y            | X               | Z
    Side view     | -X            | Y               | Z
    Top view      | -Z            | X               | Y

    Plate: 59W(X) x 6D(Y) x 47H(Z) mm
    At 8px/mm: 472 x 48 x 376 px

    Cylindrical bores along Y axis:
      Front view (looking -Y) -> CIRCLES
      Side view (looking -X) -> RECTANGLES (hidden)
      Top view (looking -Z) -> RECTANGLES (hidden, showing bore edges)
  -->

  <!-- ============================================================ -->
  <!-- FRONT VIEW (looking along -Y): X horizontal, Z vertical      -->
  <!-- Origin at plate top-left corner in view space                 -->
  <!-- Z increases downward in SVG (top of plate = Z_max = top of SVG) -->
  <!-- ============================================================ -->
  <text x="310" y="78" class="label" text-anchor="middle">FRONT VIEW</text>

  <g id="front-view" transform="translate(74, 90)">
    <!-- Plate outline: 472w x 376h px (59 x 47 mm) -->
    <rect x="0" y="0" width="472" height="376" class="outline"/>

    <!-- Bore positions (from plate bottom-left corner):
         BL corner = (0, 47) in plate coords = (0, 376) in SVG within this group
         Bore 1 (top-left):  plate (9.5, 37.5) -> SVG (76, 376-300) = (76, 76)
         Bore 2 (top-right): plate (49.5, 37.5) -> SVG (396, 76)
         Bore 3 (bot-left):  plate (9.5, 9.5) -> SVG (76, 300)
         Bore 4 (bot-right): plate (49.5, 9.5) -> SVG (396, 300)
    -->

    <!-- Bore 1 (top-left) -->
    <circle cx="76" cy="76" r="62.4" class="hidden"/>
    <circle cx="76" cy="76" r="40" class="hidden"/>
    <circle cx="76" cy="76" r="26" class="outline"/>
    <line x1="46" y1="76" x2="106" y2="76" class="center"/>
    <line x1="76" y1="46" x2="76" y2="106" class="center"/>

    <!-- Bore 2 (top-right) -->
    <circle cx="396" cy="76" r="62.4" class="hidden"/>
    <circle cx="396" cy="76" r="40" class="hidden"/>
    <circle cx="396" cy="76" r="26" class="outline"/>
    <line x1="366" y1="76" x2="426" y2="76" class="center"/>
    <line x1="396" y1="46" x2="396" y2="106" class="center"/>

    <!-- Bore 3 (bottom-left) -->
    <circle cx="76" cy="300" r="62.4" class="hidden"/>
    <circle cx="76" cy="300" r="40" class="hidden"/>
    <circle cx="76" cy="300" r="26" class="outline"/>
    <line x1="46" y1="300" x2="106" y2="300" class="center"/>
    <line x1="76" y1="270" x2="76" y2="330" class="center"/>

    <!-- Bore 4 (bottom-right) -->
    <circle cx="396" cy="300" r="62.4" class="hidden"/>
    <circle cx="396" cy="300" r="40" class="hidden"/>
    <circle cx="396" cy="300" r="26" class="outline"/>
    <line x1="366" y1="300" x2="426" y2="300" class="center"/>
    <line x1="396" y1="270" x2="396" y2="330" class="center"/>

    <!-- Push rod boss (hidden, on back face): plate (29.5, 23.5) from BL -->
    <!-- SVG: (236, 376-188) = (236, 188) -->
    <circle cx="236" cy="188" r="32" class="hidden"/>

    <!-- Guide pin tab extensions -->
    <!-- Left tab: slot center at plate X=-5.5, Z=23.5 from BL -> SVG (-44, 188) -->
    <!-- Tab extends from plate left edge leftward to contain slot -->
    <!-- Slot: 3.3mm wide = 26.4px (X), 7.3mm long = 58.4px (Z) -->
    <rect x="-52" y="151" width="52" height="74" class="outline"/>
    <rect x="-44" y="159" width="26.4" height="58.4" rx="13.2" ry="13.2" class="outline"/>

    <!-- Right tab: slot center at plate X=64.5 -> SVG (516, 188) -->
    <rect x="472" y="151" width="52" height="74" class="outline"/>
    <rect x="489.6" y="159" width="26.4" height="58.4" rx="13.2" ry="13.2" class="outline"/>

    <!-- Section cut line A-A through top bore row (Z=37.5mm from BL = SVG y=76) -->
    <line x1="-65" y1="76" x2="537" y2="76" class="cut-plane"/>
    <text x="-73" y="80" font-size="14" font-weight="bold" fill="#000">A</text>
    <text x="545" y="80" font-size="14" font-weight="bold" fill="#000">A</text>

    <!-- ===== FRONT VIEW DIMENSIONS ===== -->

    <!-- Overall width: 59mm -->
    <line x1="0" y1="-8" x2="0" y2="-28" class="ext"/>
    <line x1="472" y1="-8" x2="472" y2="-28" class="ext"/>
    <line x1="0" y1="-20" x2="472" y2="-20" class="dim" marker-start="url(#arr-rev)" marker-end="url(#arr)"/>
    <text x="236" y="-25" class="dimtext">59</text>

    <!-- Overall height: 47mm (right side) -->
    <line x1="540" y1="0" x2="556" y2="0" class="ext"/>
    <line x1="540" y1="376" x2="556" y2="376" class="ext"/>
    <line x1="548" y1="0" x2="548" y2="376" class="dim" marker-start="url(#arr-rev)" marker-end="url(#arr)"/>
    <text x="564" y="192" class="dimtext" text-anchor="start">47</text>

    <!-- Horizontal bore spacing: 40mm -->
    <line x1="76" y1="394" x2="76" y2="414" class="ext"/>
    <line x1="396" y1="394" x2="396" y2="414" class="ext"/>
    <line x1="76" y1="406" x2="396" y2="406" class="dim" marker-start="url(#arr-rev)" marker-end="url(#arr)"/>
    <text x="236" y="402" class="dimtext">40</text>

    <!-- Vertical bore spacing: 28mm (left side) -->
    <line x1="-65" y1="76" x2="-80" y2="76" class="ext"/>
    <line x1="-65" y1="300" x2="-80" y2="300" class="ext"/>
    <line x1="-72" y1="76" x2="-72" y2="300" class="dim" marker-start="url(#arr-rev)" marker-end="url(#arr)"/>
    <text x="-86" y="192" class="dimtext" text-anchor="end">28</text>

    <!-- Edge to bore center: 9.5mm (bottom-left) -->
    <line x1="0" y1="340" x2="0" y2="360" class="ext"/>
    <line x1="76" y1="340" x2="76" y2="360" class="ext"/>
    <line x1="0" y1="352" x2="76" y2="352" class="dim" marker-start="url(#arr-rev)" marker-end="url(#arr)"/>
    <text x="38" y="348" class="dimtext">9.5</text>

    <!-- Edge to bore center: 9.5mm vertical -->
    <line x1="445" y1="300" x2="460" y2="300" class="ext"/>
    <line x1="445" y1="376" x2="460" y2="376" class="ext"/>
    <line x1="452" y1="300" x2="452" y2="376" class="dim" marker-start="url(#arr-rev)" marker-end="url(#arr)"/>
    <text x="468" y="342" class="dimtext" text-anchor="start">9.5</text>

    <!-- Bore diameter labels (on bore 2, top-right, less congested) -->
    <line x1="440" y1="30" x2="457" y2="60" class="dim"/>
    <text x="440" y="24" class="dimtext">&#x2300;15.6 outer bore</text>

    <line x1="420" y1="48" x2="432" y2="60" class="dim"/>
    <text x="460" y="48" class="dimtext" text-anchor="start">&#x2300;10.0 inner lip</text>

    <line x1="413" y1="65" x2="418" y2="70" class="dim"/>
    <text x="460" y="65" class="dimtext" text-anchor="start">&#x2300;6.5 thru</text>

    <!-- Push rod boss label -->
    <line x1="268" y1="188" x2="310" y2="160" class="dim"/>
    <text x="315" y="158" class="dimtext" text-anchor="start">&#x2300;8 boss (back face)</text>

    <!-- Guide pin slot label -->
    <line x1="-31" y1="151" x2="-31" y2="136" class="dim"/>
    <text x="-31" y="130" class="dimtext">3.3 x 7.3 slot (2x)</text>
  </g>

  <!-- ============================================================ -->
  <!-- TOP VIEW (looking along -Z): X horizontal, Y vertical        -->
  <!-- Below front view, shares X range with front view              -->
  <!-- Y=0 at top = fitting side, Y=6mm at bottom = back side       -->
  <!-- ============================================================ -->
  <text x="310" y="528" class="label" text-anchor="middle">TOP VIEW</text>

  <g id="top-view" transform="translate(74, 542)">
    <!-- Plate: 472w x 48h px (59 x 6 mm) -->
    <rect x="0" y="0" width="472" height="48" class="outline"/>

    <!-- Guide tabs -->
    <rect x="-52" y="0" width="52" height="48" class="outline"/>
    <rect x="472" y="0" width="52" height="48" class="outline"/>

    <!-- Bore projections (top view: bores along Y appear as rectangles) -->
    <!-- Left column center X=76px. Through-holes: 6.5mm = 52px wide -->
    <!-- Tube holes go through full depth -->
    <line x1="50" y1="0" x2="50" y2="48" class="hidden"/>
    <line x1="102" y1="0" x2="102" y2="48" class="hidden"/>

    <!-- Right column center X=396px -->
    <line x1="370" y1="0" x2="370" y2="48" class="hidden"/>
    <line x1="422" y1="0" x2="422" y2="48" class="hidden"/>

    <!-- Outer bore (2mm deep from fitting side = Y 0..16px) -->
    <!-- Left column -->
    <line x1="13.6" y1="0" x2="13.6" y2="16" class="hidden"/>
    <line x1="138.4" y1="0" x2="138.4" y2="16" class="hidden"/>
    <line x1="13.6" y1="16" x2="36" y2="16" class="hidden"/>
    <line x1="116" y1="16" x2="138.4" y2="16" class="hidden"/>

    <!-- Right column -->
    <line x1="333.6" y1="0" x2="333.6" y2="16" class="hidden"/>
    <line x1="458.4" y1="0" x2="458.4" y2="16" class="hidden"/>
    <line x1="333.6" y1="16" x2="356" y2="16" class="hidden"/>
    <line x1="436" y1="16" x2="458.4" y2="16" class="hidden"/>

    <!-- Inner lip (2mm deep from 16..32px) -->
    <line x1="36" y1="16" x2="36" y2="32" class="hidden"/>
    <line x1="116" y1="16" x2="116" y2="32" class="hidden"/>
    <line x1="36" y1="32" x2="50" y2="32" class="hidden"/>
    <line x1="102" y1="32" x2="116" y2="32" class="hidden"/>

    <line x1="356" y1="16" x2="356" y2="32" class="hidden"/>
    <line x1="436" y1="16" x2="436" y2="32" class="hidden"/>
    <line x1="356" y1="32" x2="370" y2="32" class="hidden"/>
    <line x1="422" y1="32" x2="436" y2="32" class="hidden"/>

    <!-- Push rod boss on back face (Y=48px, 8mm dia = 64px, 1mm proud = 8px) -->
    <!-- Center at X=236px -->
    <line x1="204" y1="48" x2="204" y2="40" class="hidden"/>
    <line x1="268" y1="48" x2="268" y2="40" class="hidden"/>
    <line x1="204" y1="40" x2="268" y2="40" class="hidden"/>

    <!-- Guide pin slots in tabs (through-features) -->
    <line x1="-44" y1="0" x2="-44" y2="48" class="hidden"/>
    <line x1="-17.6" y1="0" x2="-17.6" y2="48" class="hidden"/>
    <line x1="489.6" y1="0" x2="489.6" y2="48" class="hidden"/>
    <line x1="516" y1="0" x2="516" y2="48" class="hidden"/>

    <!-- Dimensions -->
    <!-- Plate depth: 6mm -->
    <line x1="-60" y1="0" x2="-72" y2="0" class="ext"/>
    <line x1="-60" y1="48" x2="-72" y2="48" class="ext"/>
    <line x1="-66" y1="0" x2="-66" y2="48" class="dim" marker-start="url(#arr-rev)" marker-end="url(#arr)"/>
    <text x="-80" y="28" class="dimtext" text-anchor="end">6</text>

    <!-- Boss annotation -->
    <line x1="236" y1="56" x2="290" y2="70" class="dim"/>
    <text x="295" y="74" class="dimtext" text-anchor="start">&#x2300;8 boss, 1mm proud</text>

    <!-- Label fitting side / back side -->
    <text x="500" y="-4" class="note" text-anchor="start">fitting side</text>
    <text x="500" y="56" class="note" text-anchor="start">back side</text>
  </g>

  <!-- ============================================================ -->
  <!-- RIGHT SIDE VIEW (looking along -X): Y horizontal, Z vertical -->
  <!-- Right of front view, shares Z range with front view           -->
  <!-- Y=0 at left = fitting side, Y=48px at right = back side      -->
  <!-- ============================================================ -->
  <text x="680" y="78" class="label" text-anchor="middle">RIGHT SIDE VIEW</text>

  <g id="side-view" transform="translate(634, 90)">
    <!-- Plate: 48w x 376h px (6 x 47 mm) -->
    <rect x="0" y="0" width="48" height="376" class="outline"/>

    <!-- Top bore row (Z=37.5mm from BL = SVG y=76):
         From side view, bores along Y appear as rectangles.
         Outer bore: 15.6mm tall = 124.8px, from Y=0..16px -->
    <line x1="0" y1="13.6" x2="16" y2="13.6" class="hidden"/>
    <line x1="0" y1="138.4" x2="16" y2="138.4" class="hidden"/>
    <line x1="16" y1="13.6" x2="16" y2="36" class="hidden"/>
    <line x1="16" y1="138.4" x2="16" y2="116" class="hidden"/>

    <!-- Inner lip -->
    <line x1="16" y1="36" x2="32" y2="36" class="hidden"/>
    <line x1="16" y1="116" x2="32" y2="116" class="hidden"/>
    <line x1="32" y1="36" x2="32" y2="50" class="hidden"/>
    <line x1="32" y1="116" x2="32" y2="102" class="hidden"/>

    <!-- Tube hole -->
    <line x1="32" y1="50" x2="48" y2="50" class="hidden"/>
    <line x1="32" y1="102" x2="48" y2="102" class="hidden"/>

    <!-- Bottom bore row (Z=9.5mm from BL = SVG y=300) -->
    <line x1="0" y1="237.6" x2="16" y2="237.6" class="hidden"/>
    <line x1="0" y1="362.4" x2="16" y2="362.4" class="hidden"/>
    <line x1="16" y1="237.6" x2="16" y2="260" class="hidden"/>
    <line x1="16" y1="362.4" x2="16" y2="340" class="hidden"/>

    <line x1="16" y1="260" x2="32" y2="260" class="hidden"/>
    <line x1="16" y1="340" x2="32" y2="340" class="hidden"/>
    <line x1="32" y1="260" x2="32" y2="274" class="hidden"/>
    <line x1="32" y1="340" x2="32" y2="326" class="hidden"/>

    <line x1="32" y1="274" x2="48" y2="274" class="hidden"/>
    <line x1="32" y1="326" x2="48" y2="326" class="hidden"/>

    <!-- Push rod boss on back face: Z=23.5mm from BL = SVG y=188, 8mm=64px tall, 1mm=8px proud -->
    <rect x="48" y="156" width="8" height="64" rx="4" class="outline"/>

    <!-- Depth zone dimensions across top -->
    <line x1="0" y1="-8" x2="0" y2="-28" class="ext"/>
    <line x1="16" y1="-8" x2="16" y2="-28" class="ext"/>
    <line x1="32" y1="-8" x2="32" y2="-28" class="ext"/>
    <line x1="48" y1="-8" x2="48" y2="-28" class="ext"/>

    <line x1="0" y1="-20" x2="16" y2="-20" class="dim" marker-start="url(#arr-rev)" marker-end="url(#arr)"/>
    <text x="8" y="-24" class="dimtext">2</text>

    <line x1="16" y1="-20" x2="32" y2="-20" class="dim" marker-start="url(#arr-rev)" marker-end="url(#arr)"/>
    <text x="24" y="-24" class="dimtext">2</text>

    <line x1="32" y1="-20" x2="48" y2="-20" class="dim" marker-start="url(#arr-rev)" marker-end="url(#arr)"/>
    <text x="40" y="-24" class="dimtext">2</text>

    <!-- Zone labels (at bottom to avoid subtitle collision) -->
    <text x="8" y="394" class="note" text-anchor="middle" font-size="8">outer</text>
    <text x="24" y="406" class="note" text-anchor="middle" font-size="8">lip</text>
    <text x="40" y="394" class="note" text-anchor="middle" font-size="8">back</text>

    <!-- Boss protrusion label -->
    <line x1="56" y1="156" x2="68" y2="142" class="dim"/>
    <text x="72" y="140" class="dimtext" text-anchor="start">1mm proud</text>
  </g>

  <!-- ============================================================ -->
  <!-- SECTION A-A: Stepped bore cross-section                       -->
  <!-- Cut through top bore row at Z=37.5mm, looking down (-Z)       -->
  <!-- Shows X horizontal, Y vertical (fitting side at top)          -->
  <!-- Vertical scale 2x for readability (16 px/mm for Y)            -->
  <!-- ============================================================ -->
  <text x="1090" y="78" class="label" text-anchor="middle">SECTION A-A</text>
  <text x="1090" y="94" font-size="10" fill="#555" text-anchor="middle">Through top bore row — Y axis 2x scale</text>

  <g id="section-aa" transform="translate(810, 120)">
    <!-- Frame -->
    <rect x="-10" y="-50" width="590" height="230" fill="none" stroke="#000" stroke-width="0.8"/>

    <!-- Plate cross-section: 59mm (X) = 472px wide, 6mm (Y) at 2x = 96px tall -->
    <!-- Y=0 at top = fitting side, Y=96 at bottom = back side -->

    <!-- Bore profiles (two bores in this cut):
         Left bore center X=76px
           outer bore r=62.4px, depth 2mm=32px (Y: 0..32)
           inner lip r=40px, depth 2mm=32px (Y: 32..64)
           tube hole r=26px, through remainder (Y: 64..96)
         Right bore center X=396px (same profile)
    -->

    <!-- Solid material path (section profile with cutouts) -->
    <path d="
      M 0,0
      L 13.6,0 L 13.6,32 L 36,32 L 36,64 L 50,64 L 50,96
      L 102,96 L 102,64 L 116,64 L 116,32 L 138.4,32 L 138.4,0
      L 333.6,0 L 333.6,32 L 356,32 L 356,64 L 370,64 L 370,96
      L 422,96 L 422,64 L 436,64 L 436,32 L 458.4,32 L 458.4,0
      L 472,0 L 472,96 L 0,96 Z
    " class="section-fill"/>

    <!-- Hatch pattern -->
    <clipPath id="sect-clip">
      <path d="
        M 0,0
        L 13.6,0 L 13.6,32 L 36,32 L 36,64 L 50,64 L 50,96
        L 102,96 L 102,64 L 116,64 L 116,32 L 138.4,32 L 138.4,0
        L 333.6,0 L 333.6,32 L 356,32 L 356,64 L 370,64 L 370,96
        L 422,96 L 422,64 L 436,64 L 436,32 L 458.4,32 L 458.4,0
        L 472,0 L 472,96 L 0,96 Z
      "/>
    </clipPath>
    <g clip-path="url(#sect-clip)">
      <!-- 45-degree hatch lines, 16px spacing -->
      <line x1="-10" y1="16" x2="16" y2="-10" class="section-hatch"/>
      <line x1="-10" y1="32" x2="32" y2="-10" class="section-hatch"/>
      <line x1="-10" y1="48" x2="48" y2="-10" class="section-hatch"/>
      <line x1="-10" y1="64" x2="64" y2="-10" class="section-hatch"/>
      <line x1="-10" y1="80" x2="80" y2="-10" class="section-hatch"/>
      <line x1="-10" y1="96" x2="96" y2="-10" class="section-hatch"/>
      <line x1="6" y1="96" x2="112" y2="-10" class="section-hatch"/>
      <line x1="22" y1="96" x2="128" y2="-10" class="section-hatch"/>
      <line x1="38" y1="96" x2="144" y2="-10" class="section-hatch"/>
      <line x1="54" y1="96" x2="160" y2="-10" class="section-hatch"/>
      <line x1="70" y1="96" x2="176" y2="-10" class="section-hatch"/>
      <line x1="86" y1="96" x2="192" y2="-10" class="section-hatch"/>
      <line x1="102" y1="96" x2="208" y2="-10" class="section-hatch"/>
      <line x1="118" y1="96" x2="224" y2="-10" class="section-hatch"/>
      <line x1="134" y1="96" x2="240" y2="-10" class="section-hatch"/>
      <line x1="150" y1="96" x2="256" y2="-10" class="section-hatch"/>
      <line x1="166" y1="96" x2="272" y2="-10" class="section-hatch"/>
      <line x1="182" y1="96" x2="288" y2="-10" class="section-hatch"/>
      <line x1="198" y1="96" x2="304" y2="-10" class="section-hatch"/>
      <line x1="214" y1="96" x2="320" y2="-10" class="section-hatch"/>
      <line x1="230" y1="96" x2="336" y2="-10" class="section-hatch"/>
      <line x1="246" y1="96" x2="352" y2="-10" class="section-hatch"/>
      <line x1="262" y1="96" x2="368" y2="-10" class="section-hatch"/>
      <line x1="278" y1="96" x2="384" y2="-10" class="section-hatch"/>
      <line x1="294" y1="96" x2="400" y2="-10" class="section-hatch"/>
      <line x1="310" y1="96" x2="416" y2="-10" class="section-hatch"/>
      <line x1="326" y1="96" x2="432" y2="-10" class="section-hatch"/>
      <line x1="342" y1="96" x2="448" y2="-10" class="section-hatch"/>
      <line x1="358" y1="96" x2="464" y2="-10" class="section-hatch"/>
      <line x1="374" y1="96" x2="480" y2="-10" class="section-hatch"/>
      <line x1="390" y1="96" x2="496" y2="-10" class="section-hatch"/>
      <line x1="406" y1="96" x2="512" y2="-10" class="section-hatch"/>
      <line x1="422" y1="96" x2="528" y2="-10" class="section-hatch"/>
    </g>

    <!-- Section bold outline -->
    <path d="
      M 0,0
      L 13.6,0 L 13.6,32 L 36,32 L 36,64 L 50,64 L 50,96
      L 102,96 L 102,64 L 116,64 L 116,32 L 138.4,32 L 138.4,0
      L 333.6,0 L 333.6,32 L 356,32 L 356,64 L 370,64 L 370,96
      L 422,96 L 422,64 L 436,64 L 436,32 L 458.4,32 L 458.4,0
      L 472,0 L 472,96 L 0,96 Z
    " class="section-outline"/>

    <!-- Bore center lines -->
    <line x1="76" y1="-8" x2="76" y2="106" class="center"/>
    <line x1="396" y1="-8" x2="396" y2="106" class="center"/>

    <!-- ===== SECTION DIMENSIONS ===== -->

    <!-- Bore spacing: 40mm -->
    <line x1="76" y1="110" x2="76" y2="128" class="ext"/>
    <line x1="396" y1="110" x2="396" y2="128" class="ext"/>
    <line x1="76" y1="122" x2="396" y2="122" class="dim" marker-start="url(#arr-rev)" marker-end="url(#arr)"/>
    <text x="236" y="118" class="dimtext">40</text>

    <!-- Left bore: outer bore dia 15.6mm -->
    <line x1="13.6" y1="-5" x2="13.6" y2="-18" class="ext"/>
    <line x1="138.4" y1="-5" x2="138.4" y2="-18" class="ext"/>
    <line x1="13.6" y1="-12" x2="138.4" y2="-12" class="dim" marker-start="url(#arr-rev)" marker-end="url(#arr)"/>
    <text x="76" y="-16" class="dimtext">&#x2300;15.6</text>

    <!-- Inner lip dia 10.0mm -->
    <line x1="36" y1="28" x2="20" y2="18" class="ext"/>
    <line x1="116" y1="28" x2="132" y2="18" class="ext"/>
    <line x1="20" y1="20" x2="132" y2="20" class="dim" marker-start="url(#arr-rev)" marker-end="url(#arr)"/>
    <text x="76" y="16" class="dimtext">&#x2300;10.0</text>

    <!-- Tube hole dia 6.5mm -->
    <line x1="50" y1="60" x2="36" y2="52" class="ext"/>
    <line x1="102" y1="60" x2="116" y2="52" class="ext"/>
    <line x1="36" y1="54" x2="116" y2="54" class="dim" marker-start="url(#arr-rev)" marker-end="url(#arr)"/>
    <text x="76" y="50" class="dimtext">&#x2300;6.5</text>

    <!-- Depth dimensions (right side) -->
    <line x1="480" y1="0" x2="496" y2="0" class="ext"/>
    <line x1="480" y1="32" x2="496" y2="32" class="ext"/>
    <line x1="480" y1="64" x2="496" y2="64" class="ext"/>
    <line x1="480" y1="96" x2="496" y2="96" class="ext"/>

    <line x1="490" y1="0" x2="490" y2="32" class="dim" marker-start="url(#arr-rev)" marker-end="url(#arr)"/>
    <text x="504" y="20" class="dimtext" text-anchor="start">2 outer</text>

    <line x1="490" y1="32" x2="490" y2="64" class="dim" marker-start="url(#arr-rev)" marker-end="url(#arr)"/>
    <text x="504" y="52" class="dimtext" text-anchor="start">2 lip</text>

    <line x1="490" y1="64" x2="490" y2="96" class="dim" marker-start="url(#arr-rev)" marker-end="url(#arr)"/>
    <text x="504" y="84" class="dimtext" text-anchor="start">2 back</text>

    <!-- Total depth -->
    <line x1="542" y1="0" x2="542" y2="96" class="dim" marker-start="url(#arr-rev)" marker-end="url(#arr)"/>
    <text x="556" y="52" class="dimtext" text-anchor="start">6 total</text>

    <!-- Contact annulus highlight (red) on left bore -->
    <line x1="36" y1="0" x2="50" y2="0" stroke="#c00" stroke-width="3"/>
    <line x1="102" y1="0" x2="116" y2="0" stroke="#c00" stroke-width="3"/>
    <text x="76" y="-26" font-size="9" fill="#c00" text-anchor="middle">contact annulus</text>
    <text x="76" y="-36" font-size="9" fill="#c00" text-anchor="middle">(pushes collet face)</text>

    <!-- Side labels (outside frame, left of section) -->
    <text x="-16" y="8" class="note" text-anchor="end">fitting side</text>
    <text x="-16" y="92" class="note" text-anchor="end">back side</text>

    <!-- Right bore: just label the diameters with leaders -->
    <line x1="396" y1="140" x2="396" y2="148" class="ext"/>
    <text x="396" y="156" class="note" text-anchor="middle">(identical bore)</text>
  </g>

  <!-- ============================================================ -->
  <!-- NOTES BLOCK                                                   -->
  <!-- ============================================================ -->
  <g transform="translate(810, 420)">
    <rect x="-10" y="-16" width="580" height="200" fill="none" stroke="#000" stroke-width="0.8"/>
    <text x="0" y="0" class="label">NOTES</text>
    <text x="0" y="18" class="note">1. Material: PETG, bore-axis vertical print orientation (Z-up)</text>
    <text x="0" y="34" class="note">2. Tube clearance bore: 6.30mm &lt; D &lt; 6.69mm (only 0.39mm design window)</text>
    <text x="0" y="50" class="note">3. Inner lip hugs collet OD (9.57mm caliper-verified) for lateral constraint</text>
    <text x="0" y="66" class="note">4. Outer bore cradles body end OD (15.10mm caliper-verified)</text>
    <text x="0" y="82" class="note">5. All bore clearances as tight as FDM manufacturing allows</text>
    <text x="0" y="98" class="note">6. 0.1mm chamfer at tube hole entry; 0.3mm x 45&#xb0; lead-in at outer bore entry</text>
    <text x="0" y="114" class="note">7. Plate stroke: 3.0mm (collet travel ~1.3mm/side + 1.7mm margin)</text>
    <text x="0" y="130" class="note">8. Guide pin slots: 3.3 x 7.3mm for 3mm steel dowel pins, in edge tabs</text>
    <text x="0" y="146" class="note">9. Push rod boss: &#x2300;8mm x 1mm proud, centered on back face at (29.5, 23.5)</text>
    <text x="0" y="162" class="note">10. Bore grid: 2x2, 40mm H x 28mm V center-to-center</text>
    <text x="0" y="178" class="note">11. Validate all bore diameters with single-bore test print before full plate</text>
  </g>

</svg>
