<svg xmlns="http://www.w3.org/2000/svg" viewBox="0 0 1050 780" width="1050" height="780" font-family="Arial, sans-serif" font-size="11">
  <title>Release Plate — Engineering Drawing</title>

  <defs>
    <marker id="arrow" markerWidth="8" markerHeight="6" refX="8" refY="3" orient="auto">
      <path d="M0,0 L8,3 L0,6 Z" fill="#333"/>
    </marker>
    <marker id="arrow-rev" markerWidth="8" markerHeight="6" refX="0" refY="3" orient="auto">
      <path d="M8,0 L0,3 L8,6 Z" fill="#333"/>
    </marker>
    <pattern id="hatch" patternUnits="userSpaceOnUse" width="6" height="6" patternTransform="rotate(45)">
      <line x1="0" y1="0" x2="0" y2="6" stroke="#999" stroke-width="0.5"/>
    </pattern>
  </defs>

  <style>
    .outline { fill: none; stroke: #000; stroke-width: 1.2; }
    .hidden { fill: none; stroke: #000; stroke-width: 0.8; stroke-dasharray: 4,3; }
    .center { fill: none; stroke: #000; stroke-width: 0.5; stroke-dasharray: 12,3,2,3; }
    .dim { stroke: #333; stroke-width: 0.6; }
    .dim-text { font-size: 10px; fill: #333; text-anchor: middle; }
    .dim-text-left { font-size: 10px; fill: #333; text-anchor: end; }
    .dim-text-right { font-size: 10px; fill: #333; text-anchor: start; }
    .label { font-size: 13px; font-weight: bold; fill: #000; text-anchor: middle; }
    .note { font-size: 9px; fill: #555; }
    .section-outline { fill: none; stroke: #000; stroke-width: 1.2; }
    .thin-hidden { fill: none; stroke: #000; stroke-width: 0.8; stroke-dasharray: 2,2; }
  </style>

  <!-- Title block -->
  <text x="525" y="28" font-size="18" font-weight="bold" text-anchor="middle">Release Plate — Orthographic Drawing</text>
  <text x="525" y="46" font-size="11" text-anchor="middle" fill="#555">59W x 47H x 6D mm | Scale 8:1 (8 px/mm) | Material: PETG</text>
  <text x="525" y="62" font-size="11" text-anchor="middle" fill="#555">4x Stepped Bores (2x2 grid, 40mm H x 28mm V) for JG PP0408W Union</text>

  <!-- ============================================================ -->
  <!-- FRONT VIEW (looking along -Y): X horizontal, Z vertical       -->
  <!-- Plate: 59W x 47H = 472px x 376px                              -->
  <!-- Plate top-left SVG: (40, 115), bottom-right: (512, 491)       -->
  <!-- Plate bottom-left (real coords) = SVG (40, 491)               -->
  <!-- Z up = SVG y decreasing                                       -->
  <!-- ============================================================ -->

  <text x="276" y="90" class="label">FRONT VIEW</text>
  <text x="276" y="104" font-size="9" fill="#666" text-anchor="middle">(looking along -Y / depth axis)</text>

  <!-- Plate outline -->
  <rect x="40" y="115" width="472" height="376" class="outline"/>

  <!-- Guide pin slot notches on left/right edges -->
  <!-- Slot at Z=23.5mm from plate bottom, 3.3mm tall (Z) -->
  <!-- SVG: plate bottom = y=491. Z=23.5mm => y = 491 - 23.5*8 = 303 -->
  <!-- 3.3mm/2 = 1.65mm = 13.2px half-height -->
  <!-- Notch depth into plate: 4mm = 32px (shows the slot opening from edge) -->
  <!-- Left slot -->
  <line x1="40" y1="289.8" x2="72" y2="289.8" class="outline"/>
  <line x1="72" y1="289.8" x2="72" y2="316.2" class="outline"/>
  <line x1="72" y1="316.2" x2="40" y2="316.2" class="outline"/>
  <!-- Right slot -->
  <line x1="512" y1="289.8" x2="480" y2="289.8" class="outline"/>
  <line x1="480" y1="289.8" x2="480" y2="316.2" class="outline"/>
  <line x1="480" y1="316.2" x2="512" y2="316.2" class="outline"/>

  <!-- Bore centers (relative to plate BL = (40,491) in SVG):           -->
  <!--   Bore 1 (BL): (9.5, 9.5)  => SVG (116, 415)                   -->
  <!--   Bore 2 (BR): (49.5, 9.5) => SVG (436, 415)                   -->
  <!--   Bore 3 (TL): (9.5, 37.5) => SVG (116, 191)                   -->
  <!--   Bore 4 (TR): (49.5,37.5) => SVG (436, 191)                   -->
  <!-- Radii: outer=7.65mm=61.2px, inner=4.9mm=39.2px, tube=3.25mm=26px -->

  <!-- Center lines -->
  <line x1="116" y1="108" x2="116" y2="498" class="center"/>
  <line x1="436" y1="108" x2="436" y2="498" class="center"/>
  <line x1="33" y1="415" x2="519" y2="415" class="center"/>
  <line x1="33" y1="191" x2="519" y2="191" class="center"/>

  <!-- Bore 1 (bottom-left) -->
  <circle cx="116" cy="415" r="61.2" class="outline"/>
  <circle cx="116" cy="415" r="39.2" class="outline"/>
  <circle cx="116" cy="415" r="26" class="outline"/>

  <!-- Bore 2 (bottom-right) -->
  <circle cx="436" cy="415" r="61.2" class="outline"/>
  <circle cx="436" cy="415" r="39.2" class="outline"/>
  <circle cx="436" cy="415" r="26" class="outline"/>

  <!-- Bore 3 (top-left) -->
  <circle cx="116" cy="191" r="61.2" class="outline"/>
  <circle cx="116" cy="191" r="39.2" class="outline"/>
  <circle cx="116" cy="191" r="26" class="outline"/>

  <!-- Bore 4 (top-right) -->
  <circle cx="436" cy="191" r="61.2" class="outline"/>
  <circle cx="436" cy="191" r="39.2" class="outline"/>
  <circle cx="436" cy="191" r="26" class="outline"/>

  <!-- Push rod boss (on back face, hidden): dia 8mm at plate center (29.5, 23.5) -->
  <!-- SVG: x = 40 + 29.5*8 = 276, y = 491 - 23.5*8 = 303. r = 4*8 = 32px -->
  <circle cx="276" cy="303" r="32" class="hidden"/>

  <!-- ===================== FRONT VIEW DIMENSIONS ===================== -->

  <!-- Overall width: 59mm -->
  <line x1="40" y1="505" x2="40" y2="515" class="dim"/>
  <line x1="512" y1="505" x2="512" y2="515" class="dim"/>
  <line x1="40" y1="511" x2="512" y2="511" class="dim" marker-start="url(#arrow-rev)" marker-end="url(#arrow)"/>
  <text x="276" y="524" class="dim-text">59.0</text>

  <!-- Overall height: 47mm -->
  <line x1="524" y1="115" x2="534" y2="115" class="dim"/>
  <line x1="524" y1="491" x2="534" y2="491" class="dim"/>
  <line x1="530" y1="115" x2="530" y2="491" class="dim" marker-start="url(#arrow-rev)" marker-end="url(#arrow)"/>
  <text x="546" y="307" class="dim-text-right" transform="rotate(-90,546,307)">47.0</text>

  <!-- Horizontal bore spacing: 40mm -->
  <line x1="116" y1="455" x2="116" y2="468" class="dim"/>
  <line x1="436" y1="455" x2="436" y2="468" class="dim"/>
  <line x1="116" y1="463" x2="436" y2="463" class="dim" marker-start="url(#arrow-rev)" marker-end="url(#arrow)"/>
  <text x="276" y="476" class="dim-text">40.0</text>

  <!-- Vertical bore spacing: 28mm -->
  <line x1="20" y1="191" x2="33" y2="191" class="dim"/>
  <line x1="20" y1="415" x2="33" y2="415" class="dim"/>
  <line x1="26" y1="191" x2="26" y2="415" class="dim" marker-start="url(#arrow-rev)" marker-end="url(#arrow)"/>
  <text x="18" y="307" class="dim-text" transform="rotate(-90,18,307)">28.0</text>

  <!-- Bore diameter callouts on bore 4 (top-right) -->
  <line x1="479" y1="158" x2="515" y2="138" class="dim"/>
  <text x="517" y="141" class="dim-text-right" font-size="9">&#x2300;15.3 outer bore</text>
  <line x1="465" y1="160" x2="515" y2="150" class="dim"/>
  <text x="517" y="153" class="dim-text-right" font-size="9">&#x2300;9.8 inner lip</text>
  <line x1="454" y1="168" x2="515" y2="165" class="dim"/>
  <text x="517" y="168" class="dim-text-right" font-size="9">&#x2300;6.5 tube hole</text>

  <!-- Edge to bore center: 9.5mm -->
  <line x1="40" y1="128" x2="40" y2="138" class="dim"/>
  <line x1="116" y1="128" x2="116" y2="138" class="dim"/>
  <line x1="40" y1="134" x2="116" y2="134" class="dim" marker-start="url(#arrow-rev)" marker-end="url(#arrow)"/>
  <text x="78" y="130" class="dim-text">9.5</text>

  <!-- Guide slot label -->
  <text x="70" y="274" class="note" text-anchor="middle">Guide slot</text>
  <text x="70" y="284" class="note" text-anchor="middle">3.3 x 7.3</text>

  <!-- Push rod boss label -->
  <text x="276" y="348" class="note" text-anchor="middle">Push rod boss</text>
  <text x="276" y="358" class="note" text-anchor="middle">&#x2300;8 x 1mm (back face)</text>

  <!-- ============================================================ -->
  <!-- SIDE VIEW (looking along -X): Y horizontal, Z vertical        -->
  <!-- Plate: 6D x 47H mm = 48px x 376px                             -->
  <!-- Shares Z range with front view: top at y=115, bottom at y=491 -->
  <!-- Y-axis: front face (Y=0) at left, back face (Y=6mm) at right  -->
  <!-- Left edge at x=600, right edge at x=648                       -->
  <!-- ============================================================ -->

  <text x="700" y="90" class="label">SIDE VIEW</text>
  <text x="700" y="104" font-size="9" fill="#666" text-anchor="middle">(looking along -X / width axis)</text>

  <!-- Plate outline: 48px wide x 376px tall -->
  <rect x="626" y="115" width="48" height="376" class="outline"/>

  <!-- Bore hidden lines (looking along -X, see left column: bores 3 and 1) -->
  <!-- Bores are along Y axis => in side view appear as horizontal line pairs -->

  <!-- Bore 3 (upper, center at SVG y=191) -->
  <!-- Outer bore: r=61.2px => lines at y=129.8 and y=252.2 -->
  <line x1="626" y1="129.8" x2="674" y2="129.8" class="thin-hidden"/>
  <line x1="626" y1="252.2" x2="674" y2="252.2" class="thin-hidden"/>
  <!-- Inner lip: r=39.2px => lines at y=151.8 and y=230.2, depth 0-2mm (x=626 to 642) -->
  <line x1="626" y1="151.8" x2="642" y2="151.8" class="thin-hidden"/>
  <line x1="626" y1="230.2" x2="642" y2="230.2" class="thin-hidden"/>
  <!-- Tube hole: r=26px => lines at y=165 and y=217, full depth -->
  <line x1="626" y1="165" x2="674" y2="165" class="thin-hidden"/>
  <line x1="626" y1="217" x2="674" y2="217" class="thin-hidden"/>
  <!-- Step lines at depth boundaries -->
  <line x1="642" y1="129.8" x2="642" y2="151.8" class="thin-hidden"/>
  <line x1="642" y1="230.2" x2="642" y2="252.2" class="thin-hidden"/>
  <line x1="658" y1="151.8" x2="658" y2="165" class="thin-hidden"/>
  <line x1="658" y1="217" x2="658" y2="230.2" class="thin-hidden"/>

  <!-- Bore 1 (lower, center at SVG y=415) -->
  <line x1="626" y1="353.8" x2="674" y2="353.8" class="thin-hidden"/>
  <line x1="626" y1="476.2" x2="674" y2="476.2" class="thin-hidden"/>
  <line x1="626" y1="375.8" x2="642" y2="375.8" class="thin-hidden"/>
  <line x1="626" y1="454.2" x2="642" y2="454.2" class="thin-hidden"/>
  <line x1="626" y1="389" x2="674" y2="389" class="thin-hidden"/>
  <line x1="626" y1="441" x2="674" y2="441" class="thin-hidden"/>
  <line x1="642" y1="353.8" x2="642" y2="375.8" class="thin-hidden"/>
  <line x1="642" y1="454.2" x2="642" y2="476.2" class="thin-hidden"/>
  <line x1="658" y1="375.8" x2="658" y2="389" class="thin-hidden"/>
  <line x1="658" y1="441" x2="658" y2="454.2" class="thin-hidden"/>

  <!-- Guide pin slot: through-slot at Z=23.5mm, 3.3mm tall -->
  <!-- SVG: center y=303, half-height 13.2px -->
  <rect x="626" y="289.8" width="48" height="26.4" fill="none" class="thin-hidden"/>

  <!-- Push rod boss on back face: 8mm dia = 64px tall, 1mm proud = 8px -->
  <!-- Centered at y=303 -->
  <rect x="674" y="271" width="8" height="64" class="outline"/>

  <!-- Center lines -->
  <line x1="619" y1="191" x2="690" y2="191" class="center"/>
  <line x1="619" y1="415" x2="690" y2="415" class="center"/>

  <!-- Depth: 6mm -->
  <line x1="626" y1="505" x2="626" y2="515" class="dim"/>
  <line x1="674" y1="505" x2="674" y2="515" class="dim"/>
  <line x1="626" y1="511" x2="674" y2="511" class="dim" marker-start="url(#arrow-rev)" marker-end="url(#arrow)"/>
  <text x="650" y="524" class="dim-text">6.0</text>

  <!-- Push rod boss callout -->
  <line x1="682" y1="303" x2="682" y2="497" class="dim"/>
  <text x="682" y="507" class="dim-text" font-size="9" text-anchor="middle">Boss &#x2300;8 x 1mm</text>

  <!-- Depth stack dimensions -->
  <line x1="626" y1="255" x2="626" y2="265" class="dim"/>
  <line x1="642" y1="255" x2="642" y2="265" class="dim"/>
  <line x1="658" y1="255" x2="658" y2="265" class="dim"/>
  <line x1="674" y1="255" x2="674" y2="265" class="dim"/>
  <line x1="626" y1="261" x2="642" y2="261" class="dim" marker-start="url(#arrow-rev)" marker-end="url(#arrow)"/>
  <line x1="642" y1="261" x2="658" y2="261" class="dim" marker-start="url(#arrow-rev)" marker-end="url(#arrow)"/>
  <line x1="658" y1="261" x2="674" y2="261" class="dim" marker-start="url(#arrow-rev)" marker-end="url(#arrow)"/>
  <text x="634" y="277" class="dim-text" font-size="8">2.0</text>
  <text x="650" y="277" class="dim-text" font-size="8">2.0</text>
  <text x="666" y="277" class="dim-text" font-size="8">2.0</text>

  <!-- Height (shares Z with front view) -->
  <line x1="696" y1="115" x2="706" y2="115" class="dim"/>
  <line x1="696" y1="491" x2="706" y2="491" class="dim"/>
  <line x1="702" y1="115" x2="702" y2="491" class="dim" marker-start="url(#arrow-rev)" marker-end="url(#arrow)"/>
  <text x="716" y="307" class="dim-text-right" transform="rotate(-90,716,307)">47.0</text>

  <!-- ============================================================ -->
  <!-- TOP VIEW (looking along -Z): X horizontal, Y vertical         -->
  <!-- Plate: 59W x 6D = 472px x 48px                                -->
  <!-- Shares X range with front view: x from 40 to 512              -->
  <!-- Y-axis: front face at top, back face at bottom                 -->
  <!-- Top edge at y=575, bottom edge at y=623                        -->
  <!-- ============================================================ -->

  <text x="276" y="548" class="label">TOP VIEW</text>
  <text x="276" y="562" font-size="9" fill="#666" text-anchor="middle">(looking along -Z / height axis)</text>

  <!-- Plate outline -->
  <rect x="40" y="575" width="472" height="48" class="outline"/>

  <!-- Bore hidden lines: bores along Y, in top view appear as vertical line pairs -->
  <!-- Left bore column at x=116 -->
  <!-- Outer bore: x = 116 +/- 61.2 = 54.8 and 177.2 -->
  <line x1="54.8" y1="575" x2="54.8" y2="623" class="thin-hidden"/>
  <line x1="177.2" y1="575" x2="177.2" y2="623" class="thin-hidden"/>
  <!-- Inner lip: x = 116 +/- 39.2 = 76.8 and 155.2, depth 0-2mm (y=575 to 591) -->
  <line x1="76.8" y1="575" x2="76.8" y2="591" class="thin-hidden"/>
  <line x1="155.2" y1="575" x2="155.2" y2="591" class="thin-hidden"/>
  <!-- Tube hole: x = 116 +/- 26 = 90 and 142, full depth -->
  <line x1="90" y1="575" x2="90" y2="623" class="thin-hidden"/>
  <line x1="142" y1="575" x2="142" y2="623" class="thin-hidden"/>
  <!-- Step lines at y=591 (2mm depth) and y=607 (4mm depth) -->
  <line x1="54.8" y1="591" x2="76.8" y2="591" class="thin-hidden"/>
  <line x1="155.2" y1="591" x2="177.2" y2="591" class="thin-hidden"/>
  <line x1="76.8" y1="607" x2="90" y2="607" class="thin-hidden"/>
  <line x1="142" y1="607" x2="155.2" y2="607" class="thin-hidden"/>

  <!-- Right bore column at x=436 -->
  <line x1="374.8" y1="575" x2="374.8" y2="623" class="thin-hidden"/>
  <line x1="497.2" y1="575" x2="497.2" y2="623" class="thin-hidden"/>
  <line x1="396.8" y1="575" x2="396.8" y2="591" class="thin-hidden"/>
  <line x1="475.2" y1="575" x2="475.2" y2="591" class="thin-hidden"/>
  <line x1="410" y1="575" x2="410" y2="623" class="thin-hidden"/>
  <line x1="462" y1="575" x2="462" y2="623" class="thin-hidden"/>
  <line x1="374.8" y1="591" x2="396.8" y2="591" class="thin-hidden"/>
  <line x1="475.2" y1="591" x2="497.2" y2="591" class="thin-hidden"/>
  <line x1="396.8" y1="607" x2="410" y2="607" class="thin-hidden"/>
  <line x1="462" y1="607" x2="475.2" y2="607" class="thin-hidden"/>

  <!-- Guide slot notches on left/right edges (consistent with front view) -->
  <rect x="40" y="575" width="32" height="48" fill="none" class="thin-hidden"/>
  <rect x="480" y="575" width="32" height="48" fill="none" class="thin-hidden"/>

  <!-- Push rod boss on back face (hidden) -->
  <rect x="244" y="623" width="64" height="8" class="hidden"/>

  <!-- Center lines -->
  <line x1="116" y1="568" x2="116" y2="636" class="center"/>
  <line x1="436" y1="568" x2="436" y2="636" class="center"/>

  <!-- Depth dimension -->
  <line x1="524" y1="575" x2="534" y2="575" class="dim"/>
  <line x1="524" y1="623" x2="534" y2="623" class="dim"/>
  <line x1="530" y1="575" x2="530" y2="623" class="dim" marker-start="url(#arrow-rev)" marker-end="url(#arrow)"/>
  <text x="544" y="603" class="dim-text-right" font-size="9">6.0</text>

  <!-- Front/back face labels -->
  <text x="36" y="572" class="note" text-anchor="end">Front</text>
  <text x="36" y="582" class="note" text-anchor="end">(fitting)</text>
  <text x="36" y="628" class="note" text-anchor="end">Back</text>

  <!-- ============================================================ -->
  <!-- SECTION VIEW A-A through bore 1                                -->
  <!-- Cross-section along Y, looking along X                        -->
  <!-- Shows stepped bore profile with hatched solid material         -->
  <!-- Scale: 8 px/mm (same as main views)                           -->
  <!-- ============================================================ -->

  <text x="860" y="548" class="label">SECTION A-A</text>
  <text x="860" y="562" font-size="9" fill="#666" text-anchor="middle">(through bore, looking along X)</text>

  <!-- Section bounding frame -->
  <rect x="745" y="575" width="230" height="170" fill="none" stroke="#000" stroke-width="1.0"/>

  <!-- Coordinates: bore center at (834, 660) -->
  <!-- Front face (fitting side) at x = 834 - 3*8 = 810 -->
  <!-- Back face at x = 834 + 3*8 = 858 -->
  <!-- Scale: 8px/mm -->

  <!-- Hatch fill for solid material (extends to contain full bore profile) -->
  <rect x="810" y="595" width="48" height="130" fill="url(#hatch)" stroke="none"/>

  <!-- Cut out bore (white fill for each step) -->
  <!-- Outer bore: dia 15.3mm = 61.2px radius. y = 660 +/- 61.2. Depth 0-2mm: x=810 to 826 -->
  <rect x="810" y="598.8" width="16" height="122.4" fill="#fff" stroke="none"/>
  <!-- Inner lip: dia 9.8mm = 39.2px radius. y = 660 +/- 39.2. Depth 2-4mm: x=826 to 842 -->
  <rect x="826" y="620.8" width="16" height="78.4" fill="#fff" stroke="none"/>
  <!-- Tube hole: dia 6.5mm = 26px radius. y = 660 +/- 26. Depth 4-6mm: x=842 to 858 -->
  <rect x="842" y="634" width="16" height="52" fill="#fff" stroke="none"/>

  <!-- Bore profile outlines -->
  <!-- Top profile (stepping from large to small going right) -->
  <polyline points="810,598.8 826,598.8 826,620.8 842,620.8 842,634 858,634"
            fill="none" stroke="#000" stroke-width="1.2"/>
  <!-- Bottom profile (mirror) -->
  <polyline points="810,721.2 826,721.2 826,699.2 842,699.2 842,686 858,686"
            fill="none" stroke="#000" stroke-width="1.2"/>
  <!-- Vertical closing lines at front face (connects bore top/bottom to plate material) -->
  <line x1="810" y1="595" x2="810" y2="598.8" stroke="#000" stroke-width="1.2"/>
  <line x1="810" y1="721.2" x2="810" y2="725" stroke="#000" stroke-width="1.2"/>
  <!-- Back face closing line through tube hole -->
  <line x1="858" y1="634" x2="858" y2="686" stroke="#000" stroke-width="1.2"/>
  <!-- Back face plate material above and below tube hole -->
  <line x1="858" y1="595" x2="858" y2="634" stroke="#000" stroke-width="1.2"/>
  <line x1="858" y1="686" x2="858" y2="725" stroke="#000" stroke-width="1.2"/>

  <!-- Plate outline for section -->
  <rect x="810" y="595" width="48" height="130" class="section-outline"/>

  <!-- Center line -->
  <line x1="800" y1="660" x2="868" y2="660" class="center"/>

  <!-- Section dimensions -->
  <!-- Outer bore dia: 15.3mm = 122.4px (y 598.8 to 721.2) -->
  <line x1="797" y1="598.8" x2="808" y2="598.8" class="dim"/>
  <line x1="797" y1="721.2" x2="808" y2="721.2" class="dim"/>
  <line x1="802" y1="598.8" x2="802" y2="721.2" class="dim" marker-start="url(#arrow-rev)" marker-end="url(#arrow)"/>
  <text x="790" y="664" class="dim-text" transform="rotate(-90,790,664)" font-size="9">&#x2300;15.3</text>

  <!-- Inner lip dia label -->
  <text x="834" y="615" class="dim-text" font-size="8">&#x2300;9.8</text>

  <!-- Tube hole dia: 6.5mm = 52px (y 634 to 686) -->
  <line x1="868" y1="634" x2="878" y2="634" class="dim"/>
  <line x1="868" y1="686" x2="878" y2="686" class="dim"/>
  <line x1="874" y1="634" x2="874" y2="686" class="dim" marker-start="url(#arrow-rev)" marker-end="url(#arrow)"/>
  <text x="888" y="664" class="dim-text-right" font-size="9">&#x2300;6.5</text>

  <!-- Depth steps along top edge -->
  <line x1="810" y1="590" x2="810" y2="596" class="dim"/>
  <line x1="826" y1="590" x2="826" y2="596" class="dim"/>
  <line x1="842" y1="590" x2="842" y2="596" class="dim"/>
  <line x1="858" y1="590" x2="858" y2="596" class="dim"/>
  <line x1="810" y1="593" x2="826" y2="593" class="dim" marker-start="url(#arrow-rev)" marker-end="url(#arrow)"/>
  <line x1="826" y1="593" x2="842" y2="593" class="dim" marker-start="url(#arrow-rev)" marker-end="url(#arrow)"/>
  <line x1="842" y1="593" x2="858" y2="593" class="dim" marker-start="url(#arrow-rev)" marker-end="url(#arrow)"/>
  <text x="818" y="587" class="dim-text" font-size="8">2.0</text>
  <text x="834" y="587" class="dim-text" font-size="8">2.0</text>
  <text x="850" y="587" class="dim-text" font-size="8">2.0</text>

  <!-- Zone labels below section (spaced to avoid overlap) -->
  <text x="802" y="754" class="note" text-anchor="middle">Outer</text>
  <text x="802" y="763" class="note" text-anchor="middle">bore</text>
  <text x="834" y="754" class="note" text-anchor="middle">Inner</text>
  <text x="834" y="763" class="note" text-anchor="middle">lip</text>
  <text x="870" y="754" class="note" text-anchor="middle">Struct.</text>
  <text x="870" y="763" class="note" text-anchor="middle">back</text>

  <!-- Fitting side arrow -->
  <text x="740" y="648" font-size="9" fill="#555" text-anchor="end">Fitting</text>
  <text x="740" y="658" font-size="9" fill="#555" text-anchor="end">side</text>
  <line x1="741" y1="654" x2="808" y2="660" class="dim"/>

  <!-- Section cut line on front view (through bore 1, vertical) -->
  <line x1="116" y1="353" x2="116" y2="477" stroke="#000" stroke-width="0.8" stroke-dasharray="12,3,2,3"/>
  <text x="106" y="358" font-size="10" font-weight="bold">A</text>
  <text x="106" y="481" font-size="10" font-weight="bold">A</text>

  <!-- ============================================================ -->
  <!-- NOTES PANEL                                                    -->
  <!-- ============================================================ -->

  <text x="745" y="130" font-size="11" font-weight="bold">NOTES:</text>
  <text x="745" y="148" class="note">1. All dimensions in mm</text>
  <text x="745" y="164" class="note">2. Bore diameters are constraint-based:</text>
  <text x="757" y="178" class="note">- Tube hole: 6.30 &lt; d &lt; 6.69 (shown as 6.5)</text>
  <text x="757" y="192" class="note">- Inner lip: just over 9.57 (shown as 9.8)</text>
  <text x="757" y="206" class="note">- Outer bore: just over 15.10 (shown as 15.3)</text>
  <text x="745" y="224" class="note">3. Guide pin slots: 3.3W x 7.3L mm</text>
  <text x="757" y="238" class="note">for 3.0mm steel dowel pins</text>
  <text x="745" y="256" class="note">4. Push rod boss: &#x2300;8 x 1mm proud, back face</text>
  <text x="745" y="274" class="note">5. 0.3mm x 45&#xb0; lead-in chamfer at outer bore entry</text>
  <text x="745" y="288" class="note">6. 0.1mm chamfer at tube hole entry edge</text>
  <text x="745" y="306" class="note">7. Material: PETG, FDM printed</text>
  <text x="745" y="320" class="note">8. Print orientation: bore axis vertical (Z-axis)</text>
  <text x="745" y="340" class="note">9. JG PP0408W interface dimensions (caliper-verified):</text>
  <text x="757" y="354" class="note">- Collet OD: 9.57mm</text>
  <text x="757" y="368" class="note">- Body end OD: 15.10mm</text>
  <text x="757" y="382" class="note">- Tube OD: 6.30mm (nominal 6.35mm)</text>
  <text x="757" y="396" class="note">- Collet ID: 6.69mm (derived)</text>
  <text x="757" y="410" class="note">- Collet travel: ~1.3mm per side</text>

  <!-- Scale bar: 10mm = 80px -->
  <text x="745" y="440" font-size="10" font-weight="bold">SCALE BAR (10mm):</text>
  <rect x="745" y="448" width="80" height="6" fill="#000" stroke="none"/>
  <rect x="825" y="448" width="80" height="6" fill="none" stroke="#000" stroke-width="0.8"/>
  <text x="745" y="466" class="note">0</text>
  <text x="825" y="466" class="note">10</text>
  <text x="905" y="466" class="note">20mm</text>

</svg>