<svg xmlns="http://www.w3.org/2000/svg" viewBox="0 0 1400 1050" width="1400" height="1050" font-family="Arial, Helvetica, sans-serif">
  <title>Bag Cradle Tray — Engineering Drawing</title>

  <defs>
    <marker id="arrow" markerWidth="8" markerHeight="6" refX="8" refY="3" orient="auto">
      <path d="M0,0 L8,3 L0,6 Z" fill="#333"/>
    </marker>
    <marker id="arrow-rev" markerWidth="8" markerHeight="6" refX="0" refY="3" orient="auto">
      <path d="M8,0 L0,3 L8,6 Z" fill="#333"/>
    </marker>
    <style>
      .dim-line { stroke: #333; stroke-width: 0.7; marker-start: url(#arrow-rev); marker-end: url(#arrow); }
      .ext-line { stroke: #333; stroke-width: 0.5; }
      .dim-text { font-size: 10px; fill: #333; text-anchor: middle; }
      .dim-text-s { font-size: 9px; fill: #333; text-anchor: middle; }
      .label { font-size: 13px; font-weight: bold; fill: #222; }
      .outline { stroke: #000; stroke-width: 1.2; fill: none; }
      .hidden { stroke: #000; stroke-width: 0.8; fill: none; stroke-dasharray: 4,3; }
      .hidden-thin { stroke: #000; stroke-width: 0.8; fill: none; stroke-dasharray: 2,2; }
      .center { stroke: #666; stroke-width: 0.5; fill: none; stroke-dasharray: 8,3,2,3; }
      .detail-frame { stroke: #444; stroke-width: 1; fill: none; }
      .note { font-size: 10px; fill: #555; }
      .title-block { font-size: 16px; font-weight: bold; fill: #111; }
      .title-sub { font-size: 11px; fill: #333; }
    </style>
  </defs>

  <!-- Title Block -->
  <text x="700" y="30" class="title-block" text-anchor="middle">BAG CRADLE TRAY</text>
  <text x="700" y="46" class="title-sub" text-anchor="middle">Material: PETG | Quantity: 2 | Scale noted per view | Dimensions in mm</text>
  <line x1="200" y1="52" x2="1200" y2="52" stroke="#999" stroke-width="0.5"/>

  <!-- ============================================================ -->
  <!-- FRONT VIEW (looking along -Y): shows X (horiz) x Z (vert)   -->
  <!-- Scale: 2 px/mm. Origin pixel at (80, 130) = X=0, Z=0        -->
  <!-- px_x = 80 + X*2,  px_y = 130 - Z*2                          -->
  <!-- X: 0..206mm -> px 80..492,  Z: 0..30mm -> py 130..70        -->
  <!-- ============================================================ -->
  <text x="286" y="62" class="label" text-anchor="middle">FRONT VIEW (along -Y) -- 2 px/mm</text>

  <g id="front-view">
    <!-- Left mounting tab body: X=-6..0, Z=0..2.8 -> px(68..80), py(130..124.4) -->
    <rect x="68" y="124.4" width="12" height="5.6" class="outline"/>
    <!-- Left barb: X=-6..-4, Z=0..-0.8 -> px(68..72), py(130..131.6) -->
    <polygon points="68,130 72,130 68,131.6" class="outline"/>

    <!-- Right mounting tab body: X=206..212 -> px(492..504) -->
    <rect x="492" y="124.4" width="12" height="5.6" class="outline"/>
    <!-- Right barb -->
    <polygon points="504,130 500,130 504,131.6" class="outline"/>

    <!-- Tray body exterior -->
    <rect x="80" y="70" width="412" height="60" class="outline"/>

    <!-- Interior sidewalls -->
    <line x1="86" y1="70" x2="86" y2="116" class="outline"/>
    <line x1="486" y1="70" x2="486" y2="116" class="outline"/>

    <!-- Concave floor arc: edge Z=7(py116) to center Z=3(py124) -->
    <path d="M86,116 Q286,132 486,116" class="outline" fill="none"/>

    <!-- Interior fillets (3mm radius) -->
    <path d="M86,116 Q86,122 92,122" class="hidden-thin" fill="none"/>
    <path d="M486,116 Q486,122 480,122" class="hidden-thin" fill="none"/>

    <!-- Tube clip behind tray (hidden): X=103->px286, Z=-5->py140 -->
    <circle cx="286" cy="140" r="10" class="hidden"/>

    <!-- Centerline -->
    <line x1="286" y1="65" x2="286" y2="148" class="center"/>

    <!-- FRONT VIEW DIMENSIONS -->

    <!-- Overall width: 206mm -->
    <line x1="80" y1="155" x2="80" y2="162" class="ext-line"/>
    <line x1="492" y1="155" x2="492" y2="162" class="ext-line"/>
    <line x1="80" y1="160" x2="492" y2="160" class="dim-line"/>
    <text x="286" y="172" class="dim-text">206</text>

    <!-- Width with tabs: 218mm -->
    <line x1="68" y1="178" x2="68" y2="186" class="ext-line"/>
    <line x1="504" y1="178" x2="504" y2="186" class="ext-line"/>
    <line x1="68" y1="184" x2="504" y2="184" class="dim-line"/>
    <text x="286" y="196" class="dim-text">218 (with tabs)</text>

    <!-- Overall height: 30mm -->
    <line x1="510" y1="70" x2="524" y2="70" class="ext-line"/>
    <line x1="510" y1="130" x2="524" y2="130" class="ext-line"/>
    <line x1="522" y1="70" x2="522" y2="130" class="dim-line"/>
    <text x="540" y="104" class="dim-text" text-anchor="start">30</text>

    <!-- Sidewall thickness: 3mm -->
    <line x1="80" y1="62" x2="80" y2="56" class="ext-line"/>
    <line x1="86" y1="62" x2="86" y2="56" class="ext-line"/>
    <line x1="80" y1="58" x2="86" y2="58" class="dim-line"/>
    <text x="83" y="53" class="dim-text-s">3</text>

    <!-- Floor center thickness: 3mm -->
    <line x1="286" y1="124" x2="258" y2="140" class="ext-line"/>
    <text x="228" y="144" class="dim-text-s" text-anchor="end">3 (floor ctr)</text>

    <!-- Floor edge thickness: 7mm -->
    <line x1="86" y1="116" x2="54" y2="106" class="ext-line"/>
    <text x="38" y="102" class="dim-text-s" text-anchor="end">7 (floor</text>
    <text x="38" y="112" class="dim-text-s" text-anchor="end">edge)</text>

    <!-- Tab width: 6mm -->
    <line x1="68" y1="118" x2="68" y2="112" class="ext-line"/>
    <line x1="80" y1="118" x2="80" y2="112" class="ext-line"/>
    <line x1="68" y1="114" x2="80" y2="114" class="dim-line"/>
    <text x="56" y="112" class="dim-text-s" text-anchor="end">6</text>

    <!-- Tab thickness: 2.8mm -->
    <line x1="56" y1="124.4" x2="64" y2="124.4" class="ext-line"/>
    <line x1="56" y1="130" x2="64" y2="130" class="ext-line"/>
    <line x1="60" y1="124.4" x2="60" y2="130" class="dim-line"/>
    <text x="44" y="129" class="dim-text-s" text-anchor="end">2.8</text>

    <!-- Sagitta: 4mm -->
    <line x1="86" y1="116" x2="486" y2="116" stroke="#999" stroke-width="0.4" stroke-dasharray="2,4"/>
    <line x1="350" y1="116" x2="350" y2="124" class="ext-line"/>
    <text x="368" y="122" class="dim-text-s" text-anchor="start">4 (sagitta)</text>
  </g>

  <!-- ============================================================ -->
  <!-- SIDE VIEW (looking along -X): shows Y (horiz) x Z (vert)    -->
  <!-- Scale: 1.5 px/mm. Origin pixel at (560, 130) = Y=0, Z=0     -->
  <!-- px_x = 560 + Y*1.5,  px_y = 130 - Z*1.5                     -->
  <!-- Y: 0..370mm -> px 560..1115,  Z: 0..30mm -> py 130..85      -->
  <!-- ============================================================ -->
  <text x="837" y="62" class="label" text-anchor="middle">SIDE VIEW (along -X) -- 1.5 px/mm</text>

  <g id="side-view">
    <!-- Exterior outline -->
    <line x1="560" y1="130" x2="1115" y2="130" class="outline"/>
    <line x1="560" y1="85" x2="1115" y2="85" class="outline"/>
    <line x1="560" y1="85" x2="560" y2="130" class="outline"/>
    <line x1="1115" y1="85" x2="1115" y2="130" class="outline"/>

    <!-- Interior floor line: Z=7 -> py=119.5 -->
    <line x1="564.5" y1="119.5" x2="1115" y2="119.5" class="outline"/>

    <!-- Front wall interior: Y=3 -> px 564.5 -->
    <line x1="564.5" y1="85" x2="564.5" y2="119.5" class="outline"/>

    <!-- Interior fillet -->
    <path d="M564.5,119.5 Q564.5,123 569,123.5" class="hidden-thin" fill="none"/>

    <!-- Spout notch (hidden): Y=338->px1067 to Y=370->px1115 -->
    <line x1="1067" y1="130" x2="1067" y2="125.5" class="hidden"/>
    <line x1="1067" y1="125.5" x2="1092.5" y2="125.5" class="hidden"/>

    <!-- Mounting tab: Y=10..360 -> px 575..1100, Z=0..2.8 -> py 130..125.8 -->
    <rect x="575" y="125.8" width="525" height="4.2" class="outline"/>

    <!-- Front barb detent: Y=90..110 -> px 695..725 -->
    <line x1="694" y1="131.2" x2="695" y2="130" class="outline"/>
    <line x1="694" y1="131.2" x2="725" y2="131.2" class="outline"/>
    <line x1="725" y1="130" x2="725" y2="131.2" class="outline"/>

    <!-- Rear barb detent: Y=270..290 -> px 965..995 -->
    <line x1="964" y1="131.2" x2="965" y2="130" class="outline"/>
    <line x1="964" y1="131.2" x2="995" y2="131.2" class="outline"/>
    <line x1="995" y1="130" x2="995" y2="131.2" class="outline"/>

    <!-- Tube clip (hidden): Y=350->px1085, Z=0..-10 -> py 130..145 -->
    <rect x="1077.5" y="130" width="15" height="15" class="hidden"/>

    <!-- SIDE VIEW DIMENSIONS -->

    <!-- Overall length: 370mm -->
    <line x1="560" y1="150" x2="560" y2="158" class="ext-line"/>
    <line x1="1115" y1="150" x2="1115" y2="158" class="ext-line"/>
    <line x1="560" y1="156" x2="1115" y2="156" class="dim-line"/>
    <text x="837" y="168" class="dim-text">370</text>

    <!-- Front wall thickness: 3mm -->
    <line x1="560" y1="78" x2="560" y2="72" class="ext-line"/>
    <line x1="564.5" y1="78" x2="564.5" y2="72" class="ext-line"/>
    <line x1="560" y1="74" x2="564.5" y2="74" class="dim-line"/>
    <text x="562" y="69" class="dim-text-s">3</text>

    <!-- Tab length: 350mm -->
    <line x1="575" y1="120" x2="575" y2="114" class="ext-line"/>
    <line x1="1100" y1="120" x2="1100" y2="114" class="ext-line"/>
    <line x1="575" y1="116" x2="1100" y2="116" class="dim-line"/>
    <text x="837" y="112" class="dim-text-s">350 (tab)</text>

    <!-- Front detent Y=100 -->
    <line x1="560" y1="138" x2="560" y2="142" class="ext-line"/>
    <line x1="710" y1="138" x2="710" y2="142" class="ext-line"/>
    <line x1="560" y1="140" x2="710" y2="140" class="dim-line"/>
    <text x="635" y="148" class="dim-text-s">100</text>

    <!-- Distance between detents: 180mm -->
    <line x1="710" y1="138" x2="710" y2="142" class="ext-line"/>
    <line x1="980" y1="138" x2="980" y2="142" class="ext-line"/>
    <line x1="710" y1="140" x2="980" y2="140" class="dim-line"/>
    <text x="845" y="148" class="dim-text-s">180</text>

    <!-- Spout notch position -->
    <line x1="1092.5" y1="119.5" x2="1092.5" y2="100" class="ext-line"/>
    <text x="1068" y="96" class="dim-text-s" text-anchor="end">Y=355 (notch ctr)</text>

    <!-- Height: 30mm -->
    <line x1="1122" y1="85" x2="1136" y2="85" class="ext-line"/>
    <line x1="1122" y1="130" x2="1136" y2="130" class="ext-line"/>
    <line x1="1134" y1="85" x2="1134" y2="130" class="dim-line"/>
    <text x="1148" y="112" class="dim-text" text-anchor="start">30</text>
  </g>

  <!-- ============================================================ -->
  <!-- TOP VIEW (looking along -Z): shows X (horiz) x Y (vert)     -->
  <!-- Scale: 1.5 px/mm. Origin pixel at (80, 220) = X=0, Y=0      -->
  <!-- px_x = 80 + X*1.5,  px_y = 220 + Y*1.5                      -->
  <!-- X: 0..206mm -> px 80..389,  Y: 0..370mm -> py 220..775      -->
  <!-- ============================================================ -->
  <text x="234.5" y="212" class="label" text-anchor="middle">TOP VIEW (along -Z) -- 1.5 px/mm</text>

  <g id="top-view">
    <!-- Exterior outline -->
    <rect x="80" y="220" width="309" height="555" class="outline"/>

    <!-- Interior walls -->
    <line x1="84.5" y1="224.5" x2="84.5" y2="775" class="outline"/>
    <line x1="384.5" y1="224.5" x2="384.5" y2="775" class="outline"/>
    <line x1="84.5" y1="224.5" x2="384.5" y2="224.5" class="outline"/>

    <!-- Spout notch semicircle: R=25.5px, center (234.5, 752.5), open toward +Y -->
    <path d="M209,752.5 A25.5,25.5 0 0,1 260,752.5" class="outline" fill="white"/>
    <line x1="209" y1="752.5" x2="209" y2="775" class="outline"/>
    <line x1="260" y1="752.5" x2="260" y2="775" class="outline"/>

    <!-- Left mounting tab: X=-6..0 -> px(71..80), Y=10..360 -> py(235..760) -->
    <rect x="71" y="235" width="9" height="525" class="outline"/>
    <!-- Right mounting tab -->
    <rect x="389" y="235" width="9" height="525" class="outline"/>

    <!-- Barb detent indicators on tabs -->
    <rect x="71" y="355" width="3" height="30" class="outline" fill="none"/>
    <rect x="71" y="625" width="3" height="30" class="outline" fill="none"/>
    <rect x="395" y="355" width="3" height="30" class="outline" fill="none"/>
    <rect x="395" y="625" width="3" height="30" class="outline" fill="none"/>

    <!-- Tube clip (hidden below floor) -->
    <circle cx="234.5" cy="745" r="7.5" class="hidden"/>
    <circle cx="234.5" cy="745" r="5.25" class="hidden"/>

    <!-- Centerlines -->
    <line x1="234.5" y1="215" x2="234.5" y2="785" class="center"/>
    <line x1="70" y1="497.5" x2="400" y2="497.5" class="center"/>

    <!-- Interior fillets at front corners -->
    <path d="M84.5,229 Q84.5,224.5 89,224.5" class="hidden-thin" fill="none"/>
    <path d="M384.5,229 Q384.5,224.5 380,224.5" class="hidden-thin" fill="none"/>

    <!-- TOP VIEW DIMENSIONS -->

    <!-- Overall width: 206mm -->
    <line x1="80" y1="790" x2="80" y2="800" class="ext-line"/>
    <line x1="389" y1="790" x2="389" y2="800" class="ext-line"/>
    <line x1="80" y1="798" x2="389" y2="798" class="dim-line"/>
    <text x="234.5" y="812" class="dim-text">206</text>

    <!-- Overall length: 370mm -->
    <line x1="405" y1="220" x2="418" y2="220" class="ext-line"/>
    <line x1="405" y1="775" x2="418" y2="775" class="ext-line"/>
    <line x1="416" y1="220" x2="416" y2="775" class="dim-line"/>
    <text x="440" y="502" class="dim-text" text-anchor="start" transform="rotate(90,440,502)">370</text>

    <!-- Interior width: 200mm -->
    <line x1="84.5" y1="820" x2="84.5" y2="830" class="ext-line"/>
    <line x1="384.5" y1="820" x2="384.5" y2="830" class="ext-line"/>
    <line x1="84.5" y1="828" x2="384.5" y2="828" class="dim-line"/>
    <text x="234.5" y="842" class="dim-text">200 (interior)</text>

    <!-- Spout notch diameter: 34mm -->
    <line x1="209" y1="752.5" x2="209" y2="738" class="ext-line"/>
    <line x1="260" y1="752.5" x2="260" y2="738" class="ext-line"/>
    <line x1="209" y1="740" x2="260" y2="740" class="dim-line"/>
    <text x="234.5" y="735" class="dim-text-s">34</text>

    <!-- Tab width: 6mm -->
    <line x1="71" y1="228" x2="71" y2="222" class="ext-line"/>
    <line x1="80" y1="228" x2="80" y2="222" class="ext-line"/>
    <line x1="71" y1="224" x2="80" y2="224" class="dim-line"/>
    <text x="62" y="224" class="dim-text-s" text-anchor="end">6</text>

    <!-- Clip location label -->
    <line x1="234.5" y1="745" x2="192" y2="726" class="ext-line"/>
    <text x="160" y="722" class="dim-text-s" text-anchor="end">Clip Y=350</text>

    <!-- Detent length: 20mm -->
    <line x1="58" y1="355" x2="68" y2="355" class="ext-line"/>
    <line x1="58" y1="385" x2="68" y2="385" class="ext-line"/>
    <line x1="62" y1="355" x2="62" y2="385" class="dim-line"/>
    <text x="52" y="374" class="dim-text-s" text-anchor="end">20</text>
  </g>

  <!-- ============================================================ -->
  <!-- DETAIL A: Mounting Tab / Barb Cross-Section (X-Z plane)      -->
  <!-- Scale: 10 px/mm.                                              -->
  <!-- Origin: X=0 at px 660, Z=0 at py 410                         -->
  <!-- ============================================================ -->
  <text x="770" y="212" class="label" text-anchor="middle">DETAIL A: TAB CROSS-SECTION -- 10 px/mm</text>

  <g id="detail-a">
    <rect x="560" y="220" width="380" height="260" class="detail-frame"/>

    <!-- Sidewall section: X=0..3 -> px(660..690), partial Z=0..16 -> py(410..250) -->
    <rect x="660" y="250" width="30" height="160" fill="#ddd" stroke="#000" stroke-width="1.2"/>
    <!-- Cross-hatch -->
    <line x1="660" y1="260" x2="690" y2="250" stroke="#999" stroke-width="0.4"/>
    <line x1="660" y1="280" x2="690" y2="270" stroke="#999" stroke-width="0.4"/>
    <line x1="660" y1="300" x2="690" y2="290" stroke="#999" stroke-width="0.4"/>
    <line x1="660" y1="320" x2="690" y2="310" stroke="#999" stroke-width="0.4"/>
    <line x1="660" y1="340" x2="690" y2="330" stroke="#999" stroke-width="0.4"/>
    <line x1="660" y1="360" x2="690" y2="350" stroke="#999" stroke-width="0.4"/>
    <line x1="660" y1="380" x2="690" y2="370" stroke="#999" stroke-width="0.4"/>
    <line x1="660" y1="400" x2="690" y2="390" stroke="#999" stroke-width="0.4"/>
    <line x1="660" y1="410" x2="690" y2="400" stroke="#999" stroke-width="0.4"/>

    <!-- Tab body: X=-6..0 -> px(600..660), Z=0..2.8 -> py(410..382) -->
    <rect x="600" y="382" width="60" height="28" fill="#ddd" stroke="#000" stroke-width="1.2"/>
    <!-- Cross-hatch -->
    <line x1="600" y1="395" x2="660" y2="385" stroke="#999" stroke-width="0.4"/>
    <line x1="600" y1="410" x2="650" y2="400" stroke="#999" stroke-width="0.4"/>
    <line x1="620" y1="410" x2="660" y2="404" stroke="#999" stroke-width="0.4"/>

    <!-- Barb: X=-6..-4 -> px(600..620), Z=0..-0.8 -> py(410..418) -->
    <polygon points="600,410 620,410 620,418 608,418" fill="#ddd" stroke="#000" stroke-width="1.2"/>
    <line x1="600" y1="410" x2="608" y2="418" stroke="#000" stroke-width="1.2"/>

    <!-- Floor line hint at Z=7 -> py=340 -->
    <line x1="690" y1="340" x2="820" y2="340" stroke="#000" stroke-width="0.6" stroke-dasharray="4,3"/>
    <text x="826" y="344" class="dim-text-s" text-anchor="start">Z=7 (floor)</text>

    <!-- Enclosure channel (reference, dashed blue) -->
    <rect x="610" y="378" width="50" height="32" stroke="#0066cc" stroke-width="0.8" stroke-dasharray="3,2" fill="none"/>
    <text x="750" y="398" class="dim-text-s" fill="#0066cc" text-anchor="start">Channel: 3.2H x 5.0D</text>

    <!-- DETAIL A DIMENSIONS -->

    <!-- Tab width: 6.0mm -->
    <line x1="600" y1="438" x2="600" y2="450" class="ext-line"/>
    <line x1="660" y1="438" x2="660" y2="450" class="ext-line"/>
    <line x1="600" y1="448" x2="660" y2="448" class="dim-line"/>
    <text x="630" y="462" class="dim-text">6.0</text>

    <!-- Tab thickness: 2.8mm -->
    <line x1="578" y1="382" x2="592" y2="382" class="ext-line"/>
    <line x1="578" y1="410" x2="592" y2="410" class="ext-line"/>
    <line x1="585" y1="382" x2="585" y2="410" class="dim-line"/>
    <text x="571" y="400" class="dim-text" text-anchor="end">2.8</text>

    <!-- Barb height: 0.8mm -->
    <line x1="578" y1="410" x2="592" y2="410" class="ext-line"/>
    <line x1="578" y1="418" x2="592" y2="418" class="ext-line"/>
    <line x1="585" y1="410" x2="585" y2="418" class="dim-line"/>
    <text x="571" y="418" class="dim-text" text-anchor="end">0.8</text>

    <!-- Barb position: 2.0mm -->
    <line x1="600" y1="424" x2="600" y2="432" class="ext-line"/>
    <line x1="620" y1="424" x2="620" y2="432" class="ext-line"/>
    <line x1="600" y1="430" x2="620" y2="430" class="dim-line"/>
    <text x="610" y="442" class="dim-text-s">2.0</text>

    <!-- Wall thickness: 3.0mm -->
    <line x1="700" y1="260" x2="710" y2="260" class="ext-line"/>
    <line x1="700" y1="290" x2="710" y2="290" class="ext-line"/>
    <line x1="708" y1="260" x2="708" y2="290" class="dim-line"/>
    <text x="722" y="279" class="dim-text-s" text-anchor="start">3.0 wall</text>

    <!-- Angle labels -->
    <text x="590" y="430" class="dim-text-s" text-anchor="end">45deg</text>
    <text x="630" y="424" class="dim-text-s" text-anchor="start">90deg</text>
  </g>

  <!-- ============================================================ -->
  <!-- DETAIL B: Tube Routing Clip Cross-Section                    -->
  <!-- Scale: 8 px/mm. Center at (1100, 624).                       -->
  <!-- ============================================================ -->
  <text x="1100" y="510" class="label" text-anchor="middle">DETAIL B: TUBE CLIP -- 8 px/mm</text>

  <g id="detail-b">
    <rect x="990" y="520" width="230" height="200" class="detail-frame"/>

    <!-- Tray floor: 3mm=24px thick -->
    <rect x="1020" y="560" width="160" height="24" fill="#ddd" stroke="#000" stroke-width="1.2"/>
    <text x="1100" y="576" class="dim-text-s">Floor (3mm)</text>

    <!-- Clip center: (1100, 624). OD r=40px, ID r=28px -->
    <!-- 270-deg arc, opening at bottom -->

    <!-- Outer arc -->
    <path d="M1128.3,652.3 A40,40 0 1,0 1071.7,652.3" class="outline" fill="none"/>
    <!-- Inner arc -->
    <path d="M1119.8,643.8 A28,28 0 1,0 1080.2,643.8" class="outline" fill="none"/>

    <!-- Connection to floor (clip top at 624-40=584, floor bottom at 584) -->
    <line x1="1060" y1="584" x2="1060" y2="596" class="outline"/>
    <line x1="1140" y1="584" x2="1140" y2="596" class="outline"/>
    <line x1="1072" y1="584" x2="1072" y2="598" class="outline"/>
    <line x1="1128" y1="584" x2="1128" y2="598" class="outline"/>

    <!-- DETAIL B DIMENSIONS -->

    <!-- OD: 10mm -->
    <line x1="1060" y1="624" x2="1140" y2="624" class="dim-line"/>
    <text x="1042" y="628" class="dim-text" text-anchor="end">OD 10</text>

    <!-- ID: 7mm -->
    <line x1="1072" y1="612" x2="1128" y2="612" class="dim-line"/>
    <text x="1100" y="608" class="dim-text-s">ID 7</text>

    <!-- Opening: 4.5mm -->
    <line x1="1071.7" y1="658" x2="1071.7" y2="668" class="ext-line"/>
    <line x1="1128.3" y1="658" x2="1128.3" y2="668" class="ext-line"/>
    <line x1="1071.7" y1="666" x2="1128.3" y2="666" class="dim-line"/>
    <text x="1100" y="680" class="dim-text-s">Opening 4.5</text>

    <!-- Clip height: 10mm -->
    <line x1="1150" y1="584" x2="1162" y2="584" class="ext-line"/>
    <line x1="1150" y1="664" x2="1162" y2="664" class="ext-line"/>
    <line x1="1160" y1="584" x2="1160" y2="664" class="dim-line"/>
    <text x="1176" y="628" class="dim-text" text-anchor="start">Ht 10</text>

    <!-- Wall thickness: 1.5mm -->
    <line x1="1060" y1="610" x2="1046" y2="600" class="ext-line"/>
    <text x="1038" y="596" class="dim-text-s" text-anchor="end">1.5 wall</text>
  </g>

  <!-- Notes -->
  <text x="560" y="770" class="note">NOTES:</text>
  <text x="560" y="784" class="note">1. All interior floor-to-wall junctions: 3.0mm fillet radius</text>
  <text x="560" y="798" class="note">2. Sidewall draft angle: 3 deg outward (not shown in orthographic views)</text>
  <text x="560" y="812" class="note">3. Spout notch edge: 1.0mm chamfer on top edge</text>
  <text x="560" y="826" class="note">4. Print: PETG, 0.2mm layers, 15-20% infill, 3 walls, no supports</text>
  <text x="560" y="840" class="note">5. Floor profile: circular arc, 4mm sagitta over 200mm interior width</text>
  <text x="560" y="854" class="note">6. Two barb detents per tab at Y=90-110 and Y=270-290 (20mm each)</text>
  <text x="560" y="868" class="note">7. Cap end (+Y) is open -- no end wall</text>

  <!-- Coordinate system reference -->
  <g transform="translate(1120,920)">
    <text x="0" y="-20" class="note" font-weight="bold">COORDINATE SYSTEM</text>
    <line x1="0" y1="0" x2="40" y2="0" stroke="#c00" stroke-width="1.5" marker-end="url(#arrow)"/>
    <text x="50" y="4" class="note" fill="#c00">+X (width)</text>
    <line x1="0" y1="0" x2="0" y2="40" stroke="#090" stroke-width="1.5" marker-end="url(#arrow)"/>
    <text x="4" y="52" class="note" fill="#090">+Y (length)</text>
    <line x1="0" y1="0" x2="-25" y2="-25" stroke="#00c" stroke-width="1.5" marker-end="url(#arrow)"/>
    <text x="-28" y="-36" class="note" fill="#00c">+Z (height)</text>
    <circle cx="0" cy="0" r="2" fill="#333"/>
    <text x="-90" y="20" class="note">Origin: front-left-bottom</text>
  </g>
</svg>
