<svg xmlns="http://www.w3.org/2000/svg" viewBox="0 0 1200 950" width="1200" height="950" font-family="Arial, sans-serif">
  <title>Release Plate with Integral Strut and Guide Pins — Engineering Drawing</title>

  <defs>
    <style>
      .visible { stroke: #000; stroke-width: 1.2; fill: none; }
      .hidden { stroke: #000; stroke-width: 0.8; fill: none; stroke-dasharray: 4,3; }
      .hidden-thin { stroke: #000; stroke-width: 0.8; fill: none; stroke-dasharray: 2,2; }
      .center { stroke: #d00; stroke-width: 0.5; fill: none; stroke-dasharray: 12,3,3,3; }
      .dim { stroke: #333; stroke-width: 0.6; fill: none; }
      .dim-text { font-size: 10px; fill: #333; text-anchor: middle; }
      .dim-text-small { font-size: 8px; fill: #333; text-anchor: middle; }
      .label { font-size: 12px; fill: #000; font-weight: bold; text-anchor: middle; }
      .note { font-size: 9px; fill: #333; text-anchor: start; }
      .note-center { font-size: 9px; fill: #333; text-anchor: middle; }
      .section-fill { fill: #e8e8e8; stroke: none; }
      .hatch { stroke: #999; stroke-width: 0.4; fill: none; }
      .cutplane { stroke: #000; stroke-width: 1.0; fill: none; stroke-dasharray: 16,4,4,4; }
      .thread-hatch { stroke: #666; stroke-width: 0.5; fill: none; }
      .ext-line { stroke: #333; stroke-width: 0.4; fill: none; }
      .arrow { fill: #333; stroke: none; }
    </style>
    <marker id="arrow-start" markerWidth="8" markerHeight="6" refX="0" refY="3" orient="auto">
      <path d="M8,0 L0,3 L8,6 Z" class="arrow"/>
    </marker>
    <marker id="arrow-end" markerWidth="8" markerHeight="6" refX="8" refY="3" orient="auto">
      <path d="M0,0 L8,3 L0,6 Z" class="arrow"/>
    </marker>
  </defs>

  <!-- Title block -->
  <rect x="10" y="10" width="1180" height="35" fill="#f0f0f0" stroke="#000" stroke-width="1"/>
  <text x="600" y="33" font-size="16" font-weight="bold" text-anchor="middle" fill="#000">RELEASE PLATE WITH INTEGRAL STRUT AND GUIDE PINS</text>

  <!-- ============================================================ -->
  <!-- FRONT VIEW — looking along -Y at the dock-facing face        -->
  <!-- Scale: 3 px/mm                                               -->
  <!-- Origin: plate bottom-left corner at (80, 340)                -->
  <!-- Horizontal = X (width), Vertical = Z (height, +Z = up)      -->
  <!-- SVG Y is inverted: plate top is lower SVG-y                  -->
  <!-- ============================================================ -->

  <text x="257" y="75" class="label">FRONT VIEW</text>
  <text x="257" y="90" class="note-center">Looking along -Y (dock-facing face)</text>
  <text x="257" y="103" class="note-center">Scale: 3 px/mm</text>

  <!-- Plate outline: 59W x 47H mm => 177 x 141 px -->
  <!-- Bottom-left at (80, 340), top-left at (80, 199) -->
  <rect x="80" y="199" width="177" height="141" class="visible"/>

  <!-- Bore centers in plate-local coords (X,Z):
       BL: (9.5, 9.5)  -> px: (80+28.5, 340-28.5) = (108.5, 311.5)
       BR: (49.5, 9.5)  -> px: (80+148.5, 340-28.5) = (228.5, 311.5)
       TL: (9.5, 37.5)  -> px: (80+28.5, 340-112.5) = (108.5, 227.5)
       TR: (49.5, 37.5) -> px: (80+148.5, 340-112.5) = (228.5, 227.5)
  -->

  <!-- Bottom-left bore -->
  <circle cx="108.5" cy="311.5" r="22.95" class="visible"/> <!-- Outer bore: 15.30mm dia = 7.65mm r => 22.95px -->
  <circle cx="108.5" cy="311.5" r="14.55" class="hidden"/> <!-- Inner lip: 9.70mm dia = 4.85mm r => 14.55px -->
  <circle cx="108.5" cy="311.5" r="9.75" class="hidden"/> <!-- Tube hole: 6.50mm dia = 3.25mm r => 9.75px -->

  <!-- Bottom-right bore -->
  <circle cx="228.5" cy="311.5" r="22.95" class="visible"/>
  <circle cx="228.5" cy="311.5" r="14.55" class="hidden"/>
  <circle cx="228.5" cy="311.5" r="9.75" class="hidden"/>

  <!-- Top-left bore -->
  <circle cx="108.5" cy="227.5" r="22.95" class="visible"/>
  <circle cx="108.5" cy="227.5" r="14.55" class="hidden"/>
  <circle cx="108.5" cy="227.5" r="9.75" class="hidden"/>

  <!-- Top-right bore -->
  <circle cx="228.5" cy="227.5" r="22.95" class="visible"/>
  <circle cx="228.5" cy="227.5" r="14.55" class="hidden"/>
  <circle cx="228.5" cy="227.5" r="9.75" class="hidden"/>

  <!-- Bore center lines (short cross-hairs) -->
  <g>
    <!-- BL -->
    <line x1="93.5" y1="311.5" x2="123.5" y2="311.5" class="center"/>
    <line x1="108.5" y1="296.5" x2="108.5" y2="326.5" class="center"/>
    <!-- BR -->
    <line x1="213.5" y1="311.5" x2="243.5" y2="311.5" class="center"/>
    <line x1="228.5" y1="296.5" x2="228.5" y2="326.5" class="center"/>
    <!-- TL -->
    <line x1="93.5" y1="227.5" x2="123.5" y2="227.5" class="center"/>
    <line x1="108.5" y1="212.5" x2="108.5" y2="242.5" class="center"/>
    <!-- TR -->
    <line x1="213.5" y1="227.5" x2="243.5" y2="227.5" class="center"/>
    <line x1="228.5" y1="212.5" x2="228.5" y2="242.5" class="center"/>
  </g>

  <!-- Central strut circle: 12mm dia = 6mm r => 18px r -->
  <!-- Plate center: X=29.5, Z=23.5 => px: (80+88.5, 340-70.5) = (168.5, 269.5) -->
  <circle cx="168.5" cy="269.5" r="18" class="visible"/>
  <line x1="148.5" y1="269.5" x2="188.5" y2="269.5" class="center"/>
  <line x1="168.5" y1="249.5" x2="168.5" y2="289.5" class="center"/>

  <!-- Guide pin circles: 6mm dia = 3mm r => 9px r -->
  <!-- Left pin: X=12, Z=23.5 => px: (80+36, 340-70.5) = (116, 269.5) -->
  <!-- Right pin: X=47, Z=23.5 => px: (80+141, 340-70.5) = (221, 269.5) -->
  <circle cx="116" cy="269.5" r="9" class="visible"/>
  <line x1="104" y1="269.5" x2="128" y2="269.5" class="center"/>
  <line x1="116" y1="257.5" x2="116" y2="281.5" class="center"/>

  <circle cx="221" cy="269.5" r="9" class="visible"/>
  <line x1="209" y1="269.5" x2="233" y2="269.5" class="center"/>
  <line x1="221" y1="257.5" x2="221" y2="281.5" class="center"/>

  <!-- ===== FRONT VIEW DIMENSIONS ===== -->

  <!-- Plate width: 59mm -->
  <line x1="80" y1="199" x2="80" y2="182" class="ext-line"/>
  <line x1="257" y1="199" x2="257" y2="182" class="ext-line"/>
  <line x1="80" y1="186" x2="257" y2="186" class="dim" marker-start="url(#arrow-start)" marker-end="url(#arrow-end)"/>
  <text x="168.5" y="183" class="dim-text">59</text>

  <!-- Plate height: 47mm -->
  <line x1="257" y1="199" x2="274" y2="199" class="ext-line"/>
  <line x1="257" y1="340" x2="274" y2="340" class="ext-line"/>
  <line x1="270" y1="199" x2="270" y2="340" class="dim" marker-start="url(#arrow-start)" marker-end="url(#arrow-end)"/>
  <text x="283" y="274" class="dim-text" text-anchor="start">47</text>

  <!-- Horizontal bore spacing: 40mm (center-to-center) -->
  <line x1="108.5" y1="340" x2="108.5" y2="357" class="ext-line"/>
  <line x1="228.5" y1="340" x2="228.5" y2="357" class="ext-line"/>
  <line x1="108.5" y1="353" x2="228.5" y2="353" class="dim" marker-start="url(#arrow-start)" marker-end="url(#arrow-end)"/>
  <text x="168.5" y="365" class="dim-text">40</text>

  <!-- Vertical bore spacing: 28mm (center-to-center) -->
  <line x1="80" y1="311.5" x2="63" y2="311.5" class="ext-line"/>
  <line x1="80" y1="227.5" x2="63" y2="227.5" class="ext-line"/>
  <line x1="67" y1="311.5" x2="67" y2="227.5" class="dim" marker-start="url(#arrow-start)" marker-end="url(#arrow-end)"/>
  <text x="55" y="274" class="dim-text">28</text>

  <!-- Strut diameter label -->
  <line x1="181" y1="257" x2="198" y2="242" class="dim"/>
  <text x="199" y="240" class="dim-text" text-anchor="start">&#x2300;12</text>

  <!-- Guide pin diameter label -->
  <line x1="124" y1="263" x2="139" y2="250" class="dim"/>
  <text x="140" y="248" class="dim-text" text-anchor="start">&#x2300;6 (x2)</text>

  <!-- Section cut line A-A through bottom bore row -->
  <line x1="55" y1="311.5" x2="80" y2="311.5" class="cutplane"/>
  <line x1="257" y1="311.5" x2="282" y2="311.5" class="cutplane"/>
  <text x="50" y="315" font-size="11" font-weight="bold" fill="#000" text-anchor="end">A</text>
  <text x="287" y="315" font-size="11" font-weight="bold" fill="#000" text-anchor="start">A</text>

  <!-- ============================================================ -->
  <!-- SIDE VIEW — looking along -X                                 -->
  <!-- Scale: 1.5 px/mm                                             -->
  <!-- Horizontal = Y (depth), Vertical = Z (height, +Z = up)      -->
  <!--                                                               -->
  <!-- Layout in Y from left to right:                               -->
  <!--   Guide pins (15mm, toward dock)                              -->
  <!--   Plate body (6mm thick)                                      -->
  <!--   Strut (130mm, toward front wall)                            -->
  <!--                                                               -->
  <!-- Guide pin tip at x=520                                        -->
  <!-- Plate dock face at x=542.5 (520 + 15*1.5)                    -->
  <!-- Plate rear face at x=551.5 (542.5 + 6*1.5)                   -->
  <!-- Strut tip at x=746.5 (551.5 + 130*1.5)                       -->
  <!--                                                               -->
  <!-- Plate center Z at SVG-y=269.5 (aligned with front view)      -->
  <!-- Plate top: 269.5 - 23.5*1.5 = 234.25                         -->
  <!-- Plate bottom: 269.5 + 23.5*1.5 = 304.75                      -->
  <!-- ============================================================ -->

  <text x="640" y="75" class="label">SIDE VIEW</text>
  <text x="640" y="90" class="note-center">Looking along -X</text>
  <text x="640" y="103" class="note-center">Scale: 1.5 px/mm</text>

  <!-- Guide pins (side profile): 6mm dia x 15mm long -->
  <!-- Center SVG-y = 269.5, half-height = 3*1.5 = 4.5px -->
  <rect x="520" y="265" width="22.5" height="9" class="visible" fill="none"/>

  <!-- Plate body: 6mm deep x 47mm tall -->
  <rect x="542.5" y="234.25" width="9" height="70.5" class="visible"/>

  <!-- Strut: 12mm dia x 130mm long -->
  <!-- Half-height = 6*1.5 = 9px, center at 269.5 -->
  <line x1="551.5" y1="260.5" x2="746.5" y2="260.5" class="visible"/>
  <line x1="551.5" y1="278.5" x2="746.5" y2="278.5" class="visible"/>
  <line x1="746.5" y1="260.5" x2="746.5" y2="278.5" class="visible"/>

  <!-- Thread hatching: front end 20mm = 30px (from x=716.5 to 746.5) -->
  <g>
    <line x1="718" y1="260.5" x2="718" y2="278.5" class="thread-hatch"/>
    <line x1="721" y1="260.5" x2="721" y2="278.5" class="thread-hatch"/>
    <line x1="724" y1="260.5" x2="724" y2="278.5" class="thread-hatch"/>
    <line x1="727" y1="260.5" x2="727" y2="278.5" class="thread-hatch"/>
    <line x1="730" y1="260.5" x2="730" y2="278.5" class="thread-hatch"/>
    <line x1="733" y1="260.5" x2="733" y2="278.5" class="thread-hatch"/>
    <line x1="736" y1="260.5" x2="736" y2="278.5" class="thread-hatch"/>
    <line x1="739" y1="260.5" x2="739" y2="278.5" class="thread-hatch"/>
    <line x1="742" y1="260.5" x2="742" y2="278.5" class="thread-hatch"/>
    <line x1="745" y1="260.5" x2="745" y2="278.5" class="thread-hatch"/>
  </g>
  <!-- Thread minor diameter dashed lines -->
  <line x1="716.5" y1="262.75" x2="746.5" y2="262.75" class="hidden-thin"/>
  <line x1="716.5" y1="276.25" x2="746.5" y2="276.25" class="hidden-thin"/>

  <!-- Thread hatching: plate end 20mm = 30px (from x=551.5 to 581.5) -->
  <g>
    <line x1="553" y1="260.5" x2="553" y2="278.5" class="thread-hatch"/>
    <line x1="556" y1="260.5" x2="556" y2="278.5" class="thread-hatch"/>
    <line x1="559" y1="260.5" x2="559" y2="278.5" class="thread-hatch"/>
    <line x1="562" y1="260.5" x2="562" y2="278.5" class="thread-hatch"/>
    <line x1="565" y1="260.5" x2="565" y2="278.5" class="thread-hatch"/>
    <line x1="568" y1="260.5" x2="568" y2="278.5" class="thread-hatch"/>
    <line x1="571" y1="260.5" x2="571" y2="278.5" class="thread-hatch"/>
    <line x1="574" y1="260.5" x2="574" y2="278.5" class="thread-hatch"/>
    <line x1="577" y1="260.5" x2="577" y2="278.5" class="thread-hatch"/>
    <line x1="580" y1="260.5" x2="580" y2="278.5" class="thread-hatch"/>
  </g>
  <line x1="551.5" y1="262.75" x2="581.5" y2="262.75" class="hidden-thin"/>
  <line x1="551.5" y1="276.25" x2="581.5" y2="276.25" class="hidden-thin"/>

  <!-- Strut centerline -->
  <line x1="510" y1="269.5" x2="756" y2="269.5" class="center"/>

  <!-- Hidden bore outlines in side view (Y-axis bores seen from -X) -->
  <!-- Bottom bore row Z=9.5mm: center SVG-y = 269.5 + (23.5-9.5)*1.5 = 290.5 -->
  <!-- Outer bore 15.30 dia => 7.65r => 11.475px half-height -->
  <line x1="542.5" y1="279" x2="551.5" y2="279" class="hidden-thin"/>
  <line x1="542.5" y1="302" x2="551.5" y2="302" class="hidden-thin"/>

  <!-- Top bore row Z=37.5mm: center SVG-y = 269.5 - (37.5-23.5)*1.5 = 248.5 -->
  <line x1="542.5" y1="237" x2="551.5" y2="237" class="hidden-thin"/>
  <line x1="542.5" y1="260" x2="551.5" y2="260" class="hidden-thin"/>

  <!-- ===== SIDE VIEW DIMENSIONS ===== -->

  <!-- Guide pin length: 15mm -->
  <line x1="520" y1="265" x2="520" y2="222" class="ext-line"/>
  <line x1="542.5" y1="234.25" x2="542.5" y2="222" class="ext-line"/>
  <line x1="520" y1="226" x2="542.5" y2="226" class="dim" marker-start="url(#arrow-start)" marker-end="url(#arrow-end)"/>
  <text x="531" y="222" class="dim-text">15</text>

  <!-- Plate thickness: 6mm -->
  <line x1="542.5" y1="234.25" x2="542.5" y2="212" class="ext-line"/>
  <line x1="551.5" y1="234.25" x2="551.5" y2="212" class="ext-line"/>
  <line x1="542.5" y1="216" x2="551.5" y2="216" class="dim" marker-start="url(#arrow-start)" marker-end="url(#arrow-end)"/>
  <text x="547" y="210" class="dim-text-small">6</text>

  <!-- Total strut length: 130mm -->
  <line x1="551.5" y1="304.75" x2="551.5" y2="320" class="ext-line"/>
  <line x1="746.5" y1="278.5" x2="746.5" y2="320" class="ext-line"/>
  <line x1="551.5" y1="316" x2="746.5" y2="316" class="dim" marker-start="url(#arrow-start)" marker-end="url(#arrow-end)"/>
  <text x="649" y="329" class="dim-text">130</text>

  <!-- Threaded section front end: 20mm -->
  <line x1="716.5" y1="278.5" x2="716.5" y2="340" class="ext-line"/>
  <line x1="746.5" y1="320" x2="746.5" y2="340" class="ext-line"/>
  <line x1="716.5" y1="336" x2="746.5" y2="336" class="dim" marker-start="url(#arrow-start)" marker-end="url(#arrow-end)"/>
  <text x="731.5" y="349" class="dim-text-small">20</text>

  <!-- Threaded section plate end: 20mm -->
  <line x1="551.5" y1="320" x2="551.5" y2="340" class="ext-line"/>
  <line x1="581.5" y1="278.5" x2="581.5" y2="340" class="ext-line"/>
  <line x1="551.5" y1="336" x2="581.5" y2="336" class="dim" marker-start="url(#arrow-start)" marker-end="url(#arrow-end)"/>
  <text x="566.5" y="349" class="dim-text-small">20</text>

  <!-- Strut diameter callout -->
  <line x1="640" y1="260.5" x2="640" y2="248" class="ext-line"/>
  <line x1="640" y1="278.5" x2="640" y2="291" class="ext-line"/>
  <line x1="636" y1="260.5" x2="644" y2="260.5" class="dim"/>
  <line x1="636" y1="278.5" x2="644" y2="278.5" class="dim"/>
  <line x1="640" y1="248" x2="657" y2="238" class="dim"/>
  <text x="658" y="236" class="dim-text" text-anchor="start">&#x2300;12</text>

  <!-- Guide pin diameter callout -->
  <line x1="530" y1="265" x2="530" y2="254" class="ext-line"/>
  <line x1="530" y1="274" x2="530" y2="285" class="ext-line"/>
  <line x1="526" y1="265" x2="534" y2="265" class="dim"/>
  <line x1="526" y1="274" x2="534" y2="274" class="dim"/>
  <line x1="530" y1="254" x2="510" y2="248" class="dim"/>
  <text x="509" y="245" class="dim-text" text-anchor="end">&#x2300;6</text>

  <!-- Thread spec callout -->
  <line x1="735" y1="260.5" x2="760" y2="240" class="dim"/>
  <text x="762" y="238" class="note">Tr12x3 2-start</text>
  <text x="762" y="249" class="note">(6mm lead)</text>

  <!-- ============================================================ -->
  <!-- SECTION A-A — Through bore at Z=9.5mm, looking along +Z     -->
  <!-- Shows stepped bore profile along Y depth                      -->
  <!-- Scale: 5 px/mm                                               -->
  <!--                                                               -->
  <!-- Dock face (bore entry) on LEFT, rear face on RIGHT            -->
  <!-- Showing a +-12mm Z-range around bore center = 24mm = 120px   -->
  <!-- Plate depth: 6mm = 30px                                       -->
  <!-- Dock face at x=65, rear face at x=95                          -->
  <!-- Bore center at y=555                                          -->
  <!--                                                               -->
  <!-- Bore depth stack (from dock face, left to right):             -->
  <!--   0-2mm (x 65-75): outer bore 15.30mm dia                    -->
  <!--   2-4mm (x 75-85): inner lip 9.70mm dia                      -->
  <!--   4-6mm (x 85-95): solid + tube hole 6.50mm dia              -->
  <!-- ============================================================ -->

  <text x="200" y="420" class="label">SECTION A-A</text>
  <text x="200" y="435" class="note-center">Through bore centerline (Z=9.5mm)</text>
  <text x="200" y="448" class="note-center">Scale: 5 px/mm</text>

  <!-- Material fill -->
  <rect x="65" y="495" width="30" height="120" class="section-fill"/>

  <!-- Bore cutouts (white) -->
  <!-- Outer bore: 15.30 dia = 7.65r = 38.25px, x 65-75 -->
  <rect x="65" y="516.75" width="10" height="76.5" fill="white" stroke="none"/>
  <!-- Inner lip: 9.70 dia = 4.85r = 24.25px, x 75-85 -->
  <rect x="75" y="530.75" width="10" height="48.5" fill="white" stroke="none"/>
  <!-- Tube hole: 6.50 dia = 3.25r = 16.25px, x 85-95 -->
  <rect x="85" y="538.75" width="10" height="32.5" fill="white" stroke="none"/>

  <!-- Hatch: top solid (y 495 to 516.75) -->
  <g>
    <line x1="65" y1="501" x2="71" y2="495" class="hatch"/>
    <line x1="65" y1="507" x2="77" y2="495" class="hatch"/>
    <line x1="65" y1="513" x2="83" y2="495" class="hatch"/>
    <line x1="68" y1="517" x2="89" y2="495" class="hatch"/>
    <line x1="75" y1="517" x2="95" y2="497" class="hatch"/>
    <line x1="82" y1="517" x2="95" y2="504" class="hatch"/>
    <line x1="89" y1="517" x2="95" y2="511" class="hatch"/>
  </g>

  <!-- Hatch: bottom solid (y 593.25 to 615) -->
  <g>
    <line x1="65" y1="599" x2="71" y2="593" class="hatch"/>
    <line x1="65" y1="605" x2="77" y2="593" class="hatch"/>
    <line x1="65" y1="611" x2="83" y2="593" class="hatch"/>
    <line x1="68" y1="615" x2="89" y2="593" class="hatch"/>
    <line x1="75" y1="615" x2="95" y2="595" class="hatch"/>
    <line x1="82" y1="615" x2="95" y2="602" class="hatch"/>
    <line x1="89" y1="615" x2="95" y2="609" class="hatch"/>
  </g>

  <!-- Hatch: outer-to-inner lip step top (x 75-95, y 516.75-530.75) -->
  <g>
    <line x1="75" y1="523" x2="81" y2="517" class="hatch"/>
    <line x1="75" y1="529" x2="87" y2="517" class="hatch"/>
    <line x1="80" y1="531" x2="93" y2="517" class="hatch"/>
    <line x1="86" y1="531" x2="95" y2="522" class="hatch"/>
    <line x1="92" y1="531" x2="95" y2="528" class="hatch"/>
  </g>

  <!-- Hatch: outer-to-inner lip step bottom (x 75-95, y 579.25-593.25) -->
  <g>
    <line x1="75" y1="585" x2="81" y2="579" class="hatch"/>
    <line x1="75" y1="591" x2="87" y2="579" class="hatch"/>
    <line x1="80" y1="593" x2="93" y2="579" class="hatch"/>
    <line x1="86" y1="593" x2="95" y2="584" class="hatch"/>
    <line x1="92" y1="593" x2="95" y2="590" class="hatch"/>
  </g>

  <!-- Hatch: inner-lip-to-tube step top (x 85-95, y 530.75-538.75) -->
  <g>
    <line x1="85" y1="537" x2="91" y2="531" class="hatch"/>
    <line x1="89" y1="539" x2="95" y2="533" class="hatch"/>
  </g>

  <!-- Hatch: inner-lip-to-tube step bottom (x 85-95, y 571.25-579.25) -->
  <g>
    <line x1="85" y1="577" x2="91" y2="571" class="hatch"/>
    <line x1="89" y1="579" x2="95" y2="573" class="hatch"/>
  </g>

  <!-- Section outline -->
  <line x1="65" y1="495" x2="95" y2="495" class="visible"/>
  <line x1="65" y1="615" x2="95" y2="615" class="visible"/>
  <line x1="65" y1="495" x2="65" y2="615" class="visible"/>
  <line x1="95" y1="495" x2="95" y2="615" class="visible"/>

  <!-- Stepped bore profile edges -->
  <!-- Top -->
  <line x1="65" y1="516.75" x2="75" y2="516.75" class="visible"/>
  <line x1="75" y1="516.75" x2="75" y2="530.75" class="visible"/>
  <line x1="75" y1="530.75" x2="85" y2="530.75" class="visible"/>
  <line x1="85" y1="530.75" x2="85" y2="538.75" class="visible"/>
  <line x1="85" y1="538.75" x2="95" y2="538.75" class="visible"/>
  <!-- Bottom -->
  <line x1="65" y1="593.25" x2="75" y2="593.25" class="visible"/>
  <line x1="75" y1="593.25" x2="75" y2="579.25" class="visible"/>
  <line x1="75" y1="579.25" x2="85" y2="579.25" class="visible"/>
  <line x1="85" y1="579.25" x2="85" y2="571.25" class="visible"/>
  <line x1="85" y1="571.25" x2="95" y2="571.25" class="visible"/>

  <!-- Bore centerline -->
  <line x1="55" y1="555" x2="105" y2="555" class="center"/>

  <!-- Section dimensions -->
  <!-- Outer bore diameter: 15.30mm -->
  <line x1="65" y1="516.75" x2="42" y2="516.75" class="ext-line"/>
  <line x1="65" y1="593.25" x2="42" y2="593.25" class="ext-line"/>
  <line x1="46" y1="516.75" x2="46" y2="593.25" class="dim" marker-start="url(#arrow-start)" marker-end="url(#arrow-end)"/>
  <text x="32" y="559" class="dim-text">&#x2300;15.30</text>

  <!-- Inner lip diameter: 9.70mm (leader to right) -->
  <line x1="75" y1="530.75" x2="108" y2="513" class="dim"/>
  <text x="110" y="511" class="dim-text" text-anchor="start">&#x2300;9.70</text>

  <!-- Tube hole diameter: 6.50mm (leader further right) -->
  <line x1="90" y1="538.75" x2="108" y2="528" class="dim"/>
  <text x="110" y="526" class="dim-text" text-anchor="start">&#x2300;6.50</text>

  <!-- Depth dimensions: staggered to avoid TEXT-TEXT collisions -->
  <!-- Outer bore 2.0mm (lowest) -->
  <line x1="65" y1="495" x2="65" y2="483" class="ext-line"/>
  <line x1="75" y1="495" x2="75" y2="483" class="ext-line"/>
  <line x1="65" y1="487" x2="75" y2="487" class="dim" marker-start="url(#arrow-start)" marker-end="url(#arrow-end)"/>
  <text x="70" y="481" class="dim-text-small">2.0</text>

  <!-- Inner lip 2.0mm (leader to middle height) -->
  <line x1="85" y1="495" x2="85" y2="468" class="ext-line"/>
  <line x1="75" y1="495" x2="75" y2="468" class="ext-line"/>
  <line x1="75" y1="472" x2="85" y2="472" class="dim" marker-start="url(#arrow-start)" marker-end="url(#arrow-end)"/>
  <text x="80" y="466" class="dim-text-small">2.0</text>

  <!-- Back 2.0mm (leader to highest) -->
  <line x1="95" y1="495" x2="95" y2="455" class="ext-line"/>
  <line x1="85" y1="468" x2="85" y2="455" class="ext-line"/>
  <line x1="85" y1="459" x2="95" y2="459" class="dim" marker-start="url(#arrow-start)" marker-end="url(#arrow-end)"/>
  <text x="90" y="453" class="dim-text-small">2.0</text>

  <!-- Chamfer callout (positioned clear of hatch lines) -->
  <line x1="66" y1="518" x2="30" y2="525" class="dim"/>
  <text x="17" y="523" class="dim-text-small">0.3x45&#xB0;</text>

  <!-- ============================================================ -->
  <!-- DETAIL B — Single bore at higher magnification               -->
  <!-- Scale: 8 px/mm                                               -->
  <!-- ============================================================ -->

  <text x="530" y="420" class="label">DETAIL B</text>
  <text x="530" y="435" class="note-center">Single bore cross-section</text>
  <text x="530" y="448" class="note-center">Scale: 8 px/mm</text>

  <!-- Frame -->
  <rect x="390" y="455" width="280" height="230" fill="white" stroke="#000" stroke-width="1"/>

  <!-- Detail at 8px/mm:
       Plate depth 6mm = 48px
       Dock face at x_d = 415
       Rear face at x_d = 463

       Bore center y_d = 570

       Outer bore: 15.30 dia = 7.65r = 61.2px
       y range: 570-61.2=508.8 to 570+61.2=631.2
       Frame: 455 to 685 => fits fine
  -->

  <!-- Material fill -->
  <rect x="415" y="465" width="48" height="210" fill="#e8e8e8" stroke="none"/>

  <!-- Bore cutouts (white) -->
  <!-- Outer bore 0-2mm (x 415-431), 15.30 dia = 61.2r -->
  <rect x="415" y="508.8" width="16" height="122.4" fill="white" stroke="none"/>
  <!-- Inner lip 2-4mm (x 431-447), 9.70 dia = 38.8r -->
  <rect x="431" y="531.2" width="16" height="77.6" fill="white" stroke="none"/>
  <!-- Tube hole 4-6mm (x 447-463), 6.50 dia = 26r -->
  <rect x="447" y="544" width="16" height="52" fill="white" stroke="none"/>

  <!-- Hatch: top solid (y 465 to 508.8) -->
  <g>
    <line x1="415" y1="473" x2="423" y2="465" class="hatch"/>
    <line x1="415" y1="481" x2="431" y2="465" class="hatch"/>
    <line x1="415" y1="489" x2="439" y2="465" class="hatch"/>
    <line x1="415" y1="497" x2="447" y2="465" class="hatch"/>
    <line x1="415" y1="505" x2="455" y2="465" class="hatch"/>
    <line x1="419" y1="509" x2="463" y2="465" class="hatch"/>
    <line x1="427" y1="509" x2="463" y2="473" class="hatch"/>
    <line x1="435" y1="509" x2="463" y2="481" class="hatch"/>
    <line x1="443" y1="509" x2="463" y2="489" class="hatch"/>
    <line x1="451" y1="509" x2="463" y2="497" class="hatch"/>
    <line x1="459" y1="509" x2="463" y2="505" class="hatch"/>
  </g>

  <!-- Hatch: bottom solid (y 631.2 to 675) -->
  <g>
    <line x1="415" y1="639" x2="423" y2="631" class="hatch"/>
    <line x1="415" y1="647" x2="431" y2="631" class="hatch"/>
    <line x1="415" y1="655" x2="439" y2="631" class="hatch"/>
    <line x1="415" y1="663" x2="447" y2="631" class="hatch"/>
    <line x1="415" y1="671" x2="455" y2="631" class="hatch"/>
    <line x1="419" y1="675" x2="463" y2="631" class="hatch"/>
    <line x1="427" y1="675" x2="463" y2="639" class="hatch"/>
    <line x1="435" y1="675" x2="463" y2="647" class="hatch"/>
    <line x1="443" y1="675" x2="463" y2="655" class="hatch"/>
    <line x1="451" y1="675" x2="463" y2="663" class="hatch"/>
    <line x1="459" y1="675" x2="463" y2="671" class="hatch"/>
  </g>

  <!-- Hatch: outer-to-inner step top (x 431-463, y 508.8-531.2) -->
  <g>
    <line x1="431" y1="517" x2="439" y2="509" class="hatch"/>
    <line x1="431" y1="525" x2="447" y2="509" class="hatch"/>
    <line x1="435" y1="531" x2="455" y2="509" class="hatch"/>
    <line x1="443" y1="531" x2="463" y2="511" class="hatch"/>
    <line x1="451" y1="531" x2="463" y2="519" class="hatch"/>
    <line x1="459" y1="531" x2="463" y2="527" class="hatch"/>
  </g>

  <!-- Hatch: outer-to-inner step bottom (x 431-463, y 608.8-631.2) -->
  <g>
    <line x1="431" y1="617" x2="439" y2="609" class="hatch"/>
    <line x1="431" y1="625" x2="447" y2="609" class="hatch"/>
    <line x1="435" y1="631" x2="455" y2="609" class="hatch"/>
    <line x1="443" y1="631" x2="463" y2="611" class="hatch"/>
    <line x1="451" y1="631" x2="463" y2="619" class="hatch"/>
    <line x1="459" y1="631" x2="463" y2="627" class="hatch"/>
  </g>

  <!-- Hatch: inner-to-tube step top (x 447-463, y 531.2-544) -->
  <g>
    <line x1="447" y1="539" x2="455" y2="531" class="hatch"/>
    <line x1="451" y1="544" x2="463" y2="532" class="hatch"/>
    <line x1="459" y1="544" x2="463" y2="540" class="hatch"/>
  </g>

  <!-- Hatch: inner-to-tube step bottom (x 447-463, y 596-608.8) -->
  <g>
    <line x1="447" y1="604" x2="455" y2="596" class="hatch"/>
    <line x1="451" y1="609" x2="463" y2="597" class="hatch"/>
    <line x1="459" y1="609" x2="463" y2="605" class="hatch"/>
  </g>

  <!-- Detail visible edges -->
  <line x1="415" y1="465" x2="463" y2="465" class="visible"/>
  <line x1="415" y1="675" x2="463" y2="675" class="visible"/>
  <line x1="415" y1="465" x2="415" y2="675" class="visible"/>
  <line x1="463" y1="465" x2="463" y2="675" class="visible"/>

  <!-- Stepped bore edges - top -->
  <line x1="415" y1="508.8" x2="431" y2="508.8" class="visible"/>
  <line x1="431" y1="508.8" x2="431" y2="531.2" class="visible"/>
  <line x1="431" y1="531.2" x2="447" y2="531.2" class="visible"/>
  <line x1="447" y1="531.2" x2="447" y2="544" class="visible"/>
  <line x1="447" y1="544" x2="463" y2="544" class="visible"/>
  <!-- Bottom -->
  <line x1="415" y1="631.2" x2="431" y2="631.2" class="visible"/>
  <line x1="431" y1="631.2" x2="431" y2="608.8" class="visible"/>
  <line x1="431" y1="608.8" x2="447" y2="608.8" class="visible"/>
  <line x1="447" y1="608.8" x2="447" y2="596" class="visible"/>
  <line x1="447" y1="596" x2="463" y2="596" class="visible"/>

  <!-- Bore centerline -->
  <line x1="405" y1="570" x2="473" y2="570" class="center"/>

  <!-- Detail dimensions -->
  <!-- Outer bore dia: 15.30mm -->
  <line x1="415" y1="508.8" x2="396" y2="508.8" class="ext-line"/>
  <line x1="415" y1="631.2" x2="396" y2="631.2" class="ext-line"/>
  <line x1="400" y1="508.8" x2="400" y2="631.2" class="dim" marker-start="url(#arrow-start)" marker-end="url(#arrow-end)"/>
  <text x="400" y="503" class="dim-text">&#x2300;15.30</text>

  <!-- Inner lip dia: 9.70mm -->
  <line x1="431" y1="531.2" x2="475" y2="531.2" class="ext-line"/>
  <line x1="431" y1="608.8" x2="475" y2="608.8" class="ext-line"/>
  <line x1="471" y1="531.2" x2="471" y2="608.8" class="dim" marker-start="url(#arrow-start)" marker-end="url(#arrow-end)"/>
  <text x="471" y="525" class="dim-text">&#x2300;9.70</text>

  <!-- Tube hole dia: 6.50mm -->
  <line x1="463" y1="544" x2="486" y2="544" class="ext-line"/>
  <line x1="463" y1="596" x2="486" y2="596" class="ext-line"/>
  <line x1="483" y1="544" x2="483" y2="596" class="dim" marker-start="url(#arrow-start)" marker-end="url(#arrow-end)"/>
  <text x="483" y="538" class="dim-text">&#x2300;6.50</text>

  <!-- Depth dims along top -->
  <line x1="415" y1="465" x2="415" y2="495" class="ext-line"/>
  <line x1="431" y1="465" x2="431" y2="495" class="ext-line"/>
  <line x1="415" y1="498" x2="431" y2="498" class="dim" marker-start="url(#arrow-start)" marker-end="url(#arrow-end)"/>
  <text x="423" y="494" class="dim-text-small">2.0</text>

  <line x1="447" y1="465" x2="447" y2="495" class="ext-line"/>
  <line x1="431" y1="498" x2="447" y2="498" class="dim" marker-start="url(#arrow-start)" marker-end="url(#arrow-end)"/>
  <text x="439" y="494" class="dim-text-small">2.0</text>

  <line x1="463" y1="465" x2="463" y2="495" class="ext-line"/>
  <line x1="447" y1="498" x2="463" y2="498" class="dim" marker-start="url(#arrow-start)" marker-end="url(#arrow-end)"/>
  <text x="455" y="494" class="dim-text-small">2.0</text>

  <!-- Chamfer callout at outer bore entry -->
  <line x1="416" y1="510" x2="398" y2="497" class="dim"/>
  <text x="395" y="494" class="dim-text-small" text-anchor="end">0.3x45&#xB0;</text>

  <!-- Labels -->
  <text x="500" y="478" class="note">Dock face</text>
  <text x="500" y="488" class="note">(bore entry)</text>
  <line x1="498" y1="483" x2="416" y2="508" class="dim"/>

  <text x="500" y="518" class="note">Outer bore</text>
  <text x="500" y="528" class="note">(body end cradle)</text>

  <text x="500" y="556" class="note">Inner lip</text>
  <text x="500" y="566" class="note">(collet hugger)</text>

  <text x="500" y="588" class="note">Tube hole</text>
  <text x="500" y="598" class="note">(through)</text>

  <!-- Leader lines from labels to bore regions -->
  <line x1="498" y1="523" x2="423" y2="523" class="dim"/>
  <line x1="498" y1="561" x2="439" y2="561" class="dim"/>
  <line x1="498" y1="593" x2="455" y2="580" class="dim"/>

  <!-- ============================================================ -->
  <!-- NOTES AND SPECIFICATIONS                                      -->
  <!-- ============================================================ -->

  <text x="730" y="415" class="label">NOTES</text>
  <text x="730" y="436" class="note">1. Material: PETG (3D printed, single piece)</text>
  <text x="730" y="451" class="note">2. Thread: Tr12x3 2-start trapezoidal (6mm lead)</text>
  <text x="730" y="466" class="note">3. Thread major dia: 12.0mm, minor dia: 9.0mm</text>
  <text x="730" y="481" class="note">4. All bore diameters are constraint-based:</text>
  <text x="745" y="494" class="note">Tube hole: 6.30 &lt; &#x2300; &lt; 6.69mm (0.39mm window)</text>
  <text x="745" y="507" class="note">Inner lip: clears collet OD 9.57mm</text>
  <text x="745" y="520" class="note">Outer bore: clears body end OD 15.10mm</text>
  <text x="730" y="536" class="note">5. Bore grid: 2x2, 40mm H x 28mm V c-to-c</text>
  <text x="730" y="551" class="note">6. Bore centers (plate-local X,Z from BL):</text>
  <text x="745" y="564" class="note">(9.5, 9.5), (49.5, 9.5),</text>
  <text x="745" y="577" class="note">(9.5, 37.5), (49.5, 37.5)</text>
  <text x="730" y="593" class="note">7. Guide pins: 2x &#x2300;6 x 15mm long,</text>
  <text x="745" y="606" class="note">slide in &#x2300;6.5mm bushings</text>
  <text x="730" y="622" class="note">8. Chamfers: 0.3x45&#xB0; outer bore entry,</text>
  <text x="745" y="635" class="note">0.1mm at tube hole entry</text>
  <text x="730" y="651" class="note">9. Print: plate flat on bed, strut vertical</text>
  <text x="730" y="667" class="note">10. Stroke: 3.0mm total Y-axis travel</text>

  <!-- Drawing border -->
  <rect x="5" y="5" width="1190" height="940" fill="none" stroke="#000" stroke-width="1.5"/>

</svg>