<svg xmlns="http://www.w3.org/2000/svg" viewBox="0 0 1250 820" width="1250" height="820" font-family="Arial, Helvetica, sans-serif">
  <title>Release Plate — Engineering Drawing</title>
  <style>
    .outline { fill: none; stroke: #000; stroke-width: 1.5; }
    .thin { fill: none; stroke: #000; stroke-width: 0.8; }
    .hidden { fill: none; stroke: #000; stroke-width: 0.8; stroke-dasharray: 2,2; }
    .center { fill: none; stroke: #000; stroke-width: 0.4; stroke-dasharray: 12,3,2,3; }
    .dim { fill: none; stroke: #333; stroke-width: 0.5; }
    .dim-text { font-size: 10px; fill: #333; text-anchor: middle; }
    .dim-text-s { font-size: 9px; fill: #333; text-anchor: middle; }
    .dim-text-left { font-size: 10px; fill: #333; text-anchor: start; }
    .dim-text-right { font-size: 10px; fill: #333; text-anchor: end; }
    .label { font-size: 11px; fill: #000; font-weight: bold; text-anchor: middle; }
    .note { font-size: 9px; fill: #555; }
    .note-center { font-size: 8px; fill: #555; text-anchor: middle; }
    .title-text { font-size: 16px; fill: #000; font-weight: bold; text-anchor: middle; }
    .subtitle { font-size: 11px; fill: #444; text-anchor: middle; }
    .arrow { fill: #333; stroke: none; }
    .section-fill { fill: #e8e8e8; stroke: none; }
    .section-outline { fill: none; stroke: #000; stroke-width: 1.5; }
    .section-hatch { fill: none; stroke: #999; stroke-width: 0.3; }
    .detail-frame { fill: #fff; stroke: #000; stroke-width: 1.0; }
  </style>

  <!--
    AXIS LOOKUP TABLE (Rubric 1):
    VIEW          | LOOKING ALONG | HORIZONTAL AXIS | VERTICAL AXIS
    Front view    | -Y            | X (width)       | Z (height)
    Side view     | -X            | Y (depth)       | Z (height)

    FEATURE CHECKLIST:
    1. Plate body (box 59Wx47Hx6D): Front=rect 59x47, Side=rect 6x47  CHECK
    2. Bores (cylinders along Y): Front=circles, Side=parallel lines   CHECK
    3. Strut (cylinder along Y, 12mm dia): Front=circle, Side=rect     CHECK
    4. Guide pins (cylinders along Y, 6mm dia): Front=circles, Side=rects CHECK

    SCALES:
      Front view: 4 px/mm
      Side view: 3 px/mm horizontal (Y), 4 px/mm vertical (Z) for Z-alignment
      Section A-A: 8 px/mm
      Detail inset: 8 px/mm

    PLATE DIMENSIONS: 59W x 47H x 6D mm
    Bore centers (from plate bottom-left corner, X-Z plane):
      (9.5, 9.5), (49.5, 9.5), (9.5, 37.5), (49.5, 37.5)
    Bore diameters: outer 15.6, inner 10.0, tube 6.5 (all mm)
    Each bore zone: 2mm deep (outer, inner, structural back = 6mm total)
    Strut: 12mm dia, 126mm total from plate rear face. Tr12x3 2-start.
      ~20mm threaded at each end, smooth middle.
    Guide pins: 2x 6mm dia, 15mm long from dock face.
      Positions: (29.5, 5.0) and (29.5, 42.0) relative to plate BL corner.

    FRONT VIEW PIXEL MAP (S=4):
      Plate left edge Fx=80, top edge Fy=100
      Plate right edge: 80+59*4=316
      Plate bottom edge: 100+47*4=288
      Feature at (Xmm, Zmm from BL) => SVG (80+Xmm*4, 288-Zmm*4)
      Bore (9.5,9.5) => (118, 250)
      Bore (49.5,9.5) => (278, 250)
      Bore (9.5,37.5) => (118, 138)
      Bore (49.5,37.5) => (278, 138)
      Strut center (29.5,23.5) => (198, 194)
      Guide pin (29.5,5.0) => (198, 268)
      Guide pin (29.5,42.0) => (198, 120)

    SIDE VIEW PIXEL MAP:
      Z-aligned with front: plate top at y=100, bottom at y=288 (4px/mm vertical)
      Horizontal: 3 px/mm
      Plate dock face at Sx=500
      Plate rear face at 500+6*3=518
      Strut end at 518+126*3=896
      Guide pin tips at 500-15*3=455
  -->

  <!-- Title block -->
  <text x="625" y="28" class="title-text">Release Plate (with Integral Strut and Guide Pins)</text>
  <text x="625" y="44" class="subtitle">59W x 47H x 6D mm plate — PETG — Qty 1 — Tr12x3 2-start trapezoidal thread</text>
  <text x="625" y="58" class="subtitle">Dimensions in mm</text>
  <line x1="30" y1="65" x2="1220" y2="65" stroke="#999" stroke-width="0.5"/>

  <!-- ============================================================ -->
  <!-- FRONT VIEW (looking along -Y): X horizontal, Z vertical      -->
  <!-- Scale: 4 px/mm                                                -->
  <!-- ============================================================ -->

  <text x="130" y="88" class="label">FRONT VIEW</text>
  <text x="130" y="97" class="note-center">(looking along -Y, dock-side face, 4 px/mm)</text>

  <!-- Plate outline -->
  <rect x="80" y="100" width="236" height="188" class="outline"/>

  <!-- Bore 1: center (9.5, 37.5) => SVG (118, 138) — top-left -->
  <circle cx="118" cy="138" r="31.2" class="thin"/>
  <circle cx="118" cy="138" r="20" class="thin"/>
  <circle cx="118" cy="138" r="13" class="thin"/>
  <line x1="118" y1="100" x2="118" y2="176" class="center"/>
  <line x1="80" y1="138" x2="156" y2="138" class="center"/>

  <!-- Bore 2: center (49.5, 37.5) => SVG (278, 138) — top-right -->
  <circle cx="278" cy="138" r="31.2" class="thin"/>
  <circle cx="278" cy="138" r="20" class="thin"/>
  <circle cx="278" cy="138" r="13" class="thin"/>
  <line x1="278" y1="100" x2="278" y2="176" class="center"/>
  <line x1="240" y1="138" x2="316" y2="138" class="center"/>

  <!-- Bore 3: center (9.5, 9.5) => SVG (118, 250) — bottom-left -->
  <circle cx="118" cy="250" r="31.2" class="thin"/>
  <circle cx="118" cy="250" r="20" class="thin"/>
  <circle cx="118" cy="250" r="13" class="thin"/>
  <line x1="118" y1="212" x2="118" y2="288" class="center"/>
  <line x1="80" y1="250" x2="156" y2="250" class="center"/>

  <!-- Bore 4: center (49.5, 9.5) => SVG (278, 250) — bottom-right -->
  <circle cx="278" cy="250" r="31.2" class="thin"/>
  <circle cx="278" cy="250" r="20" class="thin"/>
  <circle cx="278" cy="250" r="13" class="thin"/>
  <line x1="278" y1="212" x2="278" y2="288" class="center"/>
  <line x1="240" y1="250" x2="316" y2="250" class="center"/>

  <!-- Strut circle (hidden — on rear face): center (29.5, 23.5) => SVG (198, 194), r=24 -->
  <circle cx="198" cy="194" r="24" class="hidden"/>
  <line x1="198" y1="162" x2="198" y2="226" class="center"/>
  <line x1="166" y1="194" x2="230" y2="194" class="center"/>

  <!-- Guide pin 1 (hidden — rear face): (29.5, 5.0) => SVG (198, 268), r=12 -->
  <circle cx="198" cy="268" r="12" class="hidden"/>
  <line x1="198" y1="254" x2="198" y2="282" class="center"/>
  <!-- Guide pin 2 (hidden — rear face): (29.5, 42.0) => SVG (198, 120), r=12 -->
  <circle cx="198" cy="120" r="12" class="hidden"/>
  <line x1="198" y1="106" x2="198" y2="134" class="center"/>

  <!-- FRONT VIEW DIMENSIONS -->

  <!-- Plate width: 59mm -->
  <line x1="80" y1="302" x2="80" y2="293" class="dim"/>
  <line x1="316" y1="302" x2="316" y2="293" class="dim"/>
  <line x1="80" y1="299" x2="316" y2="299" class="dim"/>
  <polygon points="80,299 86,296.5 86,301.5" class="arrow"/>
  <polygon points="316,299 310,296.5 310,301.5" class="arrow"/>
  <text x="198" y="312" class="dim-text">59</text>

  <!-- Plate height: 47mm -->
  <line x1="328" y1="100" x2="338" y2="100" class="dim"/>
  <line x1="328" y1="288" x2="338" y2="288" class="dim"/>
  <line x1="334" y1="100" x2="334" y2="288" class="dim"/>
  <polygon points="334,100 331.5,106 336.5,106" class="arrow"/>
  <polygon points="334,288 331.5,282 336.5,282" class="arrow"/>
  <text x="347" y="198" class="dim-text-left">47</text>

  <!-- Horizontal bore spacing: 40mm -->
  <line x1="118" y1="325" x2="118" y2="318" class="dim"/>
  <line x1="278" y1="325" x2="278" y2="318" class="dim"/>
  <line x1="118" y1="322" x2="278" y2="322" class="dim"/>
  <polygon points="118,322 124,319.5 124,324.5" class="arrow"/>
  <polygon points="278,322 272,319.5 272,324.5" class="arrow"/>
  <text x="198" y="335" class="dim-text">40</text>

  <!-- Vertical bore spacing: 28mm -->
  <line x1="58" y1="138" x2="68" y2="138" class="dim"/>
  <line x1="58" y1="250" x2="68" y2="250" class="dim"/>
  <line x1="63" y1="138" x2="63" y2="250" class="dim"/>
  <polygon points="63,138 60.5,144 65.5,144" class="arrow"/>
  <polygon points="63,250 60.5,244 65.5,244" class="arrow"/>
  <text x="50" y="198" class="dim-text-right">28</text>

  <!-- Bore diameter leaders from bore 4 (bottom-right) -->
  <line x1="300" y1="230" x2="355" y2="210" class="dim"/>
  <text x="357" y="208" class="dim-text-s" text-anchor="start">&#x2300;15.6 outer (x4)</text>
  <line x1="294" y1="238" x2="355" y2="222" class="dim"/>
  <text x="357" y="220" class="dim-text-s" text-anchor="start">&#x2300;10.0 inner lip (x4)</text>
  <line x1="289" y1="246" x2="355" y2="234" class="dim"/>
  <text x="357" y="232" class="dim-text-s" text-anchor="start">&#x2300;6.5 thru (x4)</text>

  <!-- Strut label -->
  <line x1="216" y1="178" x2="255" y2="168" class="dim"/>
  <text x="257" y="167" class="dim-text-s" text-anchor="start">&#x2300;12 strut (Tr12x3)</text>

  <!-- Guide pin label -->
  <line x1="208" y1="260" x2="247" y2="252" class="dim"/>
  <text x="249" y="250" class="dim-text-s" text-anchor="start">&#x2300;6 guide pin (x2)</text>

  <!-- Section cut line A-A through upper bore row at SVG y=138 -->
  <line x1="50" y1="138" x2="72" y2="138" stroke="#000" stroke-width="1.2"/>
  <line x1="324" y1="138" x2="346" y2="138" stroke="#000" stroke-width="1.2"/>
  <text x="44" y="142" style="font-size:10px; font-weight:bold; text-anchor:end;">A</text>
  <text x="352" y="142" style="font-size:10px; font-weight:bold; text-anchor:start;">A</text>


  <!-- ============================================================ -->
  <!-- SIDE VIEW (looking along -X): Y horizontal, Z vertical       -->
  <!-- Scale: 3 px/mm (H), 4 px/mm (V) for Z-alignment              -->
  <!-- Plate dock face Sx=500, rear face 518, strut end 896          -->
  <!-- Guide pin tips at 455                                         -->
  <!-- Z-aligned: top=100, bottom=288                                -->
  <!-- ============================================================ -->

  <text x="680" y="88" class="label">SIDE VIEW</text>
  <text x="680" y="97" class="note-center">(looking along -X, 3 px/mm horiz)</text>

  <!-- Plate outline: dock face x=500, rear face x=518, top y=100, bottom y=288 -->
  <rect x="500" y="100" width="18" height="188" class="outline"/>

  <!-- Hidden bores (top row bore at Z=37.5 => y=138, bottom bore at Z=9.5 => y=250) -->
  <!-- In side view looking along -X, we see the bore that is nearest (-X side). -->
  <!-- Both columns of bores overlap in this view; show the pair at each Z level. -->

  <!-- Top bore level (y=138): outer bore 15.6mm dia = 7.8*4=31.2px half-height -->
  <!-- Outer bore step: 2mm deep from dock face => x=500 to x=500+2*3=506 -->
  <line x1="500" y1="106.8" x2="506" y2="106.8" class="hidden"/>
  <line x1="500" y1="169.2" x2="506" y2="169.2" class="hidden"/>
  <line x1="506" y1="106.8" x2="506" y2="169.2" class="hidden"/>
  <!-- Inner lip step: x=506 to x=506+2*3=512, 10mm dia = 5*4=20px half -->
  <line x1="506" y1="118" x2="512" y2="118" class="hidden"/>
  <line x1="506" y1="158" x2="512" y2="158" class="hidden"/>
  <line x1="512" y1="118" x2="512" y2="158" class="hidden"/>
  <!-- Tube hole: x=512 to x=518, 6.5mm dia = 3.25*4=13px half -->
  <line x1="512" y1="125" x2="518" y2="125" class="hidden"/>
  <line x1="512" y1="151" x2="518" y2="151" class="hidden"/>

  <!-- Bottom bore level (y=250) -->
  <line x1="500" y1="218.8" x2="506" y2="218.8" class="hidden"/>
  <line x1="500" y1="281.2" x2="506" y2="281.2" class="hidden"/>
  <line x1="506" y1="218.8" x2="506" y2="281.2" class="hidden"/>
  <line x1="506" y1="230" x2="512" y2="230" class="hidden"/>
  <line x1="506" y1="270" x2="512" y2="270" class="hidden"/>
  <line x1="512" y1="230" x2="512" y2="270" class="hidden"/>
  <line x1="512" y1="237" x2="518" y2="237" class="hidden"/>
  <line x1="512" y1="263" x2="518" y2="263" class="hidden"/>

  <!-- Strut: 12mm dia, center at Z=23.5 => y=194, extends from rear face x=518 -->
  <!-- Strut end at x=518+126*3=896. Half-height = 6*4=24px -->
  <rect x="518" y="170" width="378" height="48" fill="none" stroke="#000" stroke-width="1.5"/>
  <!-- Strut centerline -->
  <line x1="490" y1="194" x2="910" y2="194" class="center"/>

  <!-- Thread zone markers (dashed) -->
  <!-- Rear thread: x=518 to 518+20*3=578 -->
  <line x1="578" y1="170" x2="578" y2="218" stroke="#000" stroke-width="0.5" stroke-dasharray="3,2"/>
  <!-- Front thread: x=896-20*3=836 to 896 -->
  <line x1="836" y1="170" x2="836" y2="218" stroke="#000" stroke-width="0.5" stroke-dasharray="3,2"/>

  <!-- Thread indication lines (angled, suggesting thread profile) -->
  <!-- Rear threaded section (x=518..578) -->
  <line x1="522" y1="170" x2="528" y2="218" stroke="#777" stroke-width="0.5"/>
  <line x1="531" y1="170" x2="537" y2="218" stroke="#777" stroke-width="0.5"/>
  <line x1="540" y1="170" x2="546" y2="218" stroke="#777" stroke-width="0.5"/>
  <line x1="549" y1="170" x2="555" y2="218" stroke="#777" stroke-width="0.5"/>
  <line x1="558" y1="170" x2="564" y2="218" stroke="#777" stroke-width="0.5"/>
  <line x1="567" y1="170" x2="573" y2="218" stroke="#777" stroke-width="0.5"/>
  <!-- Front threaded section (x=836..896) -->
  <line x1="840" y1="170" x2="846" y2="218" stroke="#777" stroke-width="0.5"/>
  <line x1="849" y1="170" x2="855" y2="218" stroke="#777" stroke-width="0.5"/>
  <line x1="858" y1="170" x2="864" y2="218" stroke="#777" stroke-width="0.5"/>
  <line x1="867" y1="170" x2="873" y2="218" stroke="#777" stroke-width="0.5"/>
  <line x1="876" y1="170" x2="882" y2="218" stroke="#777" stroke-width="0.5"/>
  <line x1="885" y1="170" x2="891" y2="218" stroke="#777" stroke-width="0.5"/>

  <!-- Guide pins: 6mm dia, 15mm long from dock face (left) -->
  <!-- Pin 1: Z=42 => y=120, half-height=3*4=12. Tip x=500-15*3=455, base x=500 -->
  <rect x="455" y="108" width="45" height="24" fill="none" stroke="#000" stroke-width="1.5"/>
  <!-- Pin 2: Z=5 => y=268 -->
  <rect x="455" y="256" width="45" height="24" fill="none" stroke="#000" stroke-width="1.5"/>
  <!-- Pin centerlines -->
  <line x1="445" y1="120" x2="510" y2="120" class="center"/>
  <line x1="445" y1="268" x2="510" y2="268" class="center"/>

  <!-- SIDE VIEW DIMENSIONS -->

  <!-- Plate depth: 6mm -->
  <line x1="500" y1="302" x2="500" y2="293" class="dim"/>
  <line x1="518" y1="302" x2="518" y2="293" class="dim"/>
  <line x1="500" y1="299" x2="518" y2="299" class="dim"/>
  <polygon points="500,299 506,296.5 506,301.5" class="arrow"/>
  <polygon points="518,299 512,296.5 512,301.5" class="arrow"/>
  <text x="509" y="312" class="dim-text">6</text>

  <!-- Strut length: 126mm -->
  <line x1="518" y1="230" x2="518" y2="238" class="dim"/>
  <line x1="896" y1="230" x2="896" y2="238" class="dim"/>
  <line x1="518" y1="235" x2="896" y2="235" class="dim"/>
  <polygon points="518,235 524,232.5 524,237.5" class="arrow"/>
  <polygon points="896,235 890,232.5 890,237.5" class="arrow"/>
  <text x="707" y="248" class="dim-text">126</text>

  <!-- Strut diameter: 12mm -->
  <line x1="908" y1="170" x2="922" y2="170" class="dim"/>
  <line x1="908" y1="218" x2="922" y2="218" class="dim"/>
  <line x1="916" y1="170" x2="916" y2="218" class="dim"/>
  <polygon points="916,170 913.5,176 918.5,176" class="arrow"/>
  <polygon points="916,218 913.5,212 918.5,212" class="arrow"/>
  <text x="928" y="198" class="dim-text-left">12</text>

  <!-- Guide pin length: 15mm -->
  <line x1="455" y1="140" x2="455" y2="137" class="dim"/>
  <line x1="500" y1="140" x2="500" y2="137" class="dim"/>
  <line x1="455" y1="138" x2="500" y2="138" class="dim"/>
  <polygon points="455,138 461,135.5 461,140.5" class="arrow"/>
  <polygon points="500,138 494,135.5 494,140.5" class="arrow"/>
  <text x="477" y="148" class="dim-text">15</text>

  <!-- Guide pin diameter: 6mm -->
  <line x1="442" y1="108" x2="437" y2="108" class="dim"/>
  <line x1="442" y1="132" x2="437" y2="132" class="dim"/>
  <line x1="439" y1="108" x2="439" y2="132" class="dim"/>
  <polygon points="439,108 436.5,114 441.5,114" class="arrow"/>
  <polygon points="439,132 436.5,126 441.5,126" class="arrow"/>
  <text x="430" y="124" class="dim-text-right">6</text>

  <!-- Thread section labels -->
  <text x="548" y="163" class="dim-text-s">~20 threaded</text>
  <text x="866" y="163" class="dim-text-s">~20 threaded</text>
  <text x="707" y="163" class="dim-text-s">Tr12x3 2-start</text>

  <!-- Plate height (side): 47mm -->
  <line x1="440" y1="100" x2="447" y2="100" class="dim"/>
  <line x1="440" y1="288" x2="447" y2="288" class="dim"/>
  <line x1="443" y1="100" x2="443" y2="288" class="dim"/>
  <polygon points="443,100 440.5,106 445.5,106" class="arrow"/>
  <polygon points="443,288 440.5,282 445.5,282" class="arrow"/>
  <text x="432" y="198" class="dim-text-right">47</text>


  <!-- ============================================================ -->
  <!-- SECTION A-A (through upper bore row, looking along -Z)        -->
  <!-- Scale: 8 px/mm                                                -->
  <!-- Horizontal: X (width). Vertical: Y (depth, dock face at top) -->
  <!-- Plate: 59*8=472 wide, 6*8=48 tall                            -->
  <!-- Origin: Cx=80 (plate left), Cy=430 (dock face = top)         -->
  <!-- Bore 1 X center: 9.5*8+80=156                                -->
  <!-- Bore 2 X center: 49.5*8+80=476                               -->
  <!-- ============================================================ -->

  <text x="316" y="390" class="label">SECTION A-A</text>
  <text x="316" y="399" class="note-center">(through upper bore row, 8 px/mm)</text>

  <!-- Plate material (solid fill) -->
  <rect x="80" y="430" width="472" height="48" class="section-fill"/>
  <rect x="80" y="430" width="472" height="48" class="section-outline"/>

  <!-- Bore 1 cutouts (center x=156) -->
  <!-- Outer bore: 15.6/2*8=62.4px half => x=156-62.4=93.6 to 156+62.4=218.4, depth 2*8=16px -->
  <rect x="93.6" y="430" width="124.8" height="16" fill="white" stroke="#000" stroke-width="1.0"/>
  <!-- Inner lip: 10/2*8=40px half => x=116 to 196, next 16px deep -->
  <rect x="116" y="446" width="80" height="16" fill="white" stroke="#000" stroke-width="1.0"/>
  <!-- Tube hole: 6.5/2*8=26px half => x=130 to 182, remaining 16px -->
  <rect x="130" y="462" width="52" height="16" fill="white" stroke="#000" stroke-width="1.0"/>

  <!-- Bore 2 cutouts (center x=476) -->
  <rect x="413.6" y="430" width="124.8" height="16" fill="white" stroke="#000" stroke-width="1.0"/>
  <rect x="436" y="446" width="80" height="16" fill="white" stroke="#000" stroke-width="1.0"/>
  <rect x="450" y="462" width="52" height="16" fill="white" stroke="#000" stroke-width="1.0"/>

  <!-- Hatch lines for solid material sections -->
  <!-- Left edge strip: x=80..93.6 -->
  <line x1="82" y1="432" x2="91" y2="476" class="section-hatch"/>
  <line x1="86" y1="430" x2="93" y2="460" class="section-hatch"/>
  <!-- Between bores top strip: x=218.4..413.6 -->
  <line x1="230" y1="430" x2="246" y2="446" class="section-hatch"/>
  <line x1="260" y1="430" x2="276" y2="446" class="section-hatch"/>
  <line x1="290" y1="430" x2="306" y2="446" class="section-hatch"/>
  <line x1="320" y1="430" x2="336" y2="446" class="section-hatch"/>
  <line x1="350" y1="430" x2="366" y2="446" class="section-hatch"/>
  <line x1="380" y1="430" x2="396" y2="446" class="section-hatch"/>
  <!-- Between bores bottom strip: x=218.4..413.6, y=462..478 -->
  <line x1="230" y1="462" x2="246" y2="478" class="section-hatch"/>
  <line x1="260" y1="462" x2="276" y2="478" class="section-hatch"/>
  <line x1="290" y1="462" x2="306" y2="478" class="section-hatch"/>
  <line x1="320" y1="462" x2="336" y2="478" class="section-hatch"/>
  <line x1="350" y1="462" x2="366" y2="478" class="section-hatch"/>
  <line x1="380" y1="462" x2="396" y2="478" class="section-hatch"/>
  <!-- Right edge strip: x=538.4..552 -->
  <line x1="540" y1="430" x2="550" y2="472" class="section-hatch"/>
  <line x1="544" y1="430" x2="552" y2="462" class="section-hatch"/>
  <!-- Between bores middle strip: x=218.4..413.6, y=446..462 -->
  <line x1="230" y1="446" x2="246" y2="462" class="section-hatch"/>
  <line x1="260" y1="446" x2="276" y2="462" class="section-hatch"/>
  <line x1="290" y1="446" x2="306" y2="462" class="section-hatch"/>
  <line x1="320" y1="446" x2="336" y2="462" class="section-hatch"/>
  <line x1="350" y1="446" x2="366" y2="462" class="section-hatch"/>
  <line x1="380" y1="446" x2="396" y2="462" class="section-hatch"/>
  <!-- Bore 1 shoulder walls -->
  <line x1="95" y1="447" x2="114" y2="478" class="section-hatch"/>
  <line x1="105" y1="447" x2="115" y2="462" class="section-hatch"/>
  <line x1="196" y1="447" x2="218" y2="478" class="section-hatch"/>
  <line x1="206" y1="447" x2="218" y2="462" class="section-hatch"/>
  <!-- Bore 2 shoulder walls -->
  <line x1="415" y1="447" x2="434" y2="478" class="section-hatch"/>
  <line x1="425" y1="447" x2="436" y2="462" class="section-hatch"/>
  <line x1="516" y1="447" x2="538" y2="478" class="section-hatch"/>
  <line x1="526" y1="447" x2="538" y2="462" class="section-hatch"/>
  <!-- Bore 1 inner lip to tube walls -->
  <line x1="117" y1="463" x2="129" y2="478" class="section-hatch"/>
  <line x1="183" y1="463" x2="195" y2="478" class="section-hatch"/>
  <!-- Bore 2 inner lip to tube walls -->
  <line x1="437" y1="463" x2="449" y2="478" class="section-hatch"/>
  <line x1="503" y1="463" x2="515" y2="478" class="section-hatch"/>

  <!-- Bore center lines -->
  <line x1="156" y1="420" x2="156" y2="488" class="center"/>
  <line x1="476" y1="420" x2="476" y2="488" class="center"/>

  <!-- SECTION DIMENSIONS -->

  <!-- Outer bore dia: 15.6mm (above bore 1) -->
  <line x1="93.6" y1="420" x2="93.6" y2="395" class="dim"/>
  <line x1="218.4" y1="420" x2="218.4" y2="395" class="dim"/>
  <line x1="93.6" y1="397" x2="218.4" y2="397" class="dim"/>
  <polygon points="93.6,397 99.6,394.5 99.6,399.5" class="arrow"/>
  <polygon points="218.4,397 212.4,394.5 212.4,399.5" class="arrow"/>
  <text x="156" y="392" class="dim-text">&#x2300;15.6</text>

  <!-- Inner lip dia: 10.0mm (above bore 2) -->
  <line x1="436" y1="420" x2="436" y2="388" class="dim"/>
  <line x1="516" y1="420" x2="516" y2="388" class="dim"/>
  <line x1="436" y1="390" x2="516" y2="390" class="dim"/>
  <polygon points="436,390 442,387.5 442,392.5" class="arrow"/>
  <polygon points="516,390 510,387.5 510,392.5" class="arrow"/>
  <text x="476" y="385" class="dim-text">&#x2300;10.0</text>

  <!-- Tube hole dia: 6.5mm (below bore 2) -->
  <line x1="450" y1="488" x2="450" y2="493" class="dim"/>
  <line x1="502" y1="488" x2="502" y2="493" class="dim"/>
  <line x1="450" y1="491" x2="502" y2="491" class="dim"/>
  <polygon points="450,491 456,488.5 456,493.5" class="arrow"/>
  <polygon points="502,491 496,488.5 496,493.5" class="arrow"/>
  <text x="476" y="503" class="dim-text">&#x2300;6.5</text>

  <!-- Depth dimensions on right side -->
  <!-- Outer bore depth: 2mm -->
  <line x1="560" y1="430" x2="576" y2="430" class="dim"/>
  <line x1="560" y1="446" x2="576" y2="446" class="dim"/>
  <line x1="572" y1="430" x2="572" y2="446" class="dim"/>
  <polygon points="572,430 569.5,436 574.5,436" class="arrow"/>
  <polygon points="572,446 569.5,440 574.5,440" class="arrow"/>
  <text x="582" y="441" class="dim-text-left">2</text>

  <!-- Inner lip depth: 2mm -->
  <line x1="560" y1="446" x2="576" y2="446" class="dim"/>
  <line x1="560" y1="462" x2="576" y2="462" class="dim"/>
  <line x1="572" y1="446" x2="572" y2="462" class="dim"/>
  <polygon points="572,446 569.5,452 574.5,452" class="arrow"/>
  <polygon points="572,462 569.5,456 574.5,456" class="arrow"/>
  <text x="582" y="457" class="dim-text-left">2</text>

  <!-- Structural back: 2mm -->
  <line x1="560" y1="462" x2="576" y2="462" class="dim"/>
  <line x1="560" y1="478" x2="576" y2="478" class="dim"/>
  <line x1="572" y1="462" x2="572" y2="478" class="dim"/>
  <polygon points="572,462 569.5,468 574.5,468" class="arrow"/>
  <polygon points="572,478 569.5,472 574.5,472" class="arrow"/>
  <text x="582" y="473" class="dim-text-left">2</text>

  <!-- Total plate depth: 6mm -->
  <line x1="594" y1="430" x2="608" y2="430" class="dim"/>
  <line x1="594" y1="478" x2="608" y2="478" class="dim"/>
  <line x1="602" y1="430" x2="602" y2="478" class="dim"/>
  <polygon points="602,430 599.5,436 604.5,436" class="arrow"/>
  <polygon points="602,478 599.5,472 604.5,472" class="arrow"/>
  <text x="614" y="458" class="dim-text-left">6</text>

  <!-- Bore zone labels (positioned outside plate, left side) -->
  <text x="72" y="441" class="dim-text-s" text-anchor="end">outer</text>
  <text x="72" y="457" class="dim-text-s" text-anchor="end">inner lip</text>
  <text x="72" y="475" class="dim-text-s" text-anchor="end">thru</text>
  <!-- Leader lines from labels into bore zones -->
  <line x1="74" y1="438" x2="80" y2="438" class="dim"/>
  <line x1="74" y1="454" x2="80" y2="454" class="dim"/>
  <line x1="74" y1="472" x2="80" y2="472" class="dim"/>

  <!-- Section width: 59mm -->
  <line x1="80" y1="498" x2="80" y2="492" class="dim"/>
  <line x1="552" y1="498" x2="552" y2="492" class="dim"/>
  <line x1="80" y1="495" x2="552" y2="495" class="dim"/>
  <polygon points="80,495 86,492.5 86,497.5" class="arrow"/>
  <polygon points="552,495 546,492.5 546,497.5" class="arrow"/>
  <text x="316" y="508" class="dim-text">59</text>

  <!-- Bore center spacing in section: 40mm = 320px -->
  <line x1="156" y1="515" x2="156" y2="510" class="dim"/>
  <line x1="476" y1="515" x2="476" y2="510" class="dim"/>
  <line x1="156" y1="513" x2="476" y2="513" class="dim"/>
  <polygon points="156,513 162,510.5 162,515.5" class="arrow"/>
  <polygon points="476,513 470,510.5 470,515.5" class="arrow"/>
  <text x="316" y="524" class="dim-text">40</text>


  <!-- ============================================================ -->
  <!-- DETAIL INSET: Single bore profile (axial section)             -->
  <!-- Scale: 10 px/mm                                               -->
  <!-- Shows one bore in axial cross-section with dimensions         -->
  <!-- Frame position: lower right                                   -->
  <!-- ============================================================ -->

  <text x="900" y="400" class="label">DETAIL: BORE PROFILE</text>
  <text x="900" y="412" class="note-center">(single bore, axial section, 10 px/mm)</text>

  <!-- Detail frame -->
  <rect x="730" y="420" width="340" height="240" class="detail-frame"/>

  <!-- Bore axial section at 10 px/mm -->
  <!-- Dock face at left. Plate depth 6mm = 60px. -->
  <!-- Local origin: Dx=760 (dock face), Dy=540 (bore center) -->
  <!-- Outer bore half: 7.8*10=78px. Total outer height=156px -->
  <!-- Inner lip half: 5.0*10=50px. Total=100px -->
  <!-- Tube hole half: 3.25*10=32.5px. Total=65px -->
  <!-- Outer bore: x=760..760+20=780 -->
  <!-- Inner lip: x=780..800 -->
  <!-- Structural back: x=800..820 -->

  <!-- Full plate material rectangle -->
  <rect x="760" y="462" width="60" height="156" fill="#e8e8e8" stroke="#000" stroke-width="1.5"/>

  <!-- Outer bore cutout: 15.6mm dia, 2mm deep -->
  <rect x="760" y="462" width="20" height="156" fill="white" stroke="none"/>
  <!-- Outer bore edges -->
  <line x1="760" y1="462" x2="780" y2="462" stroke="#000" stroke-width="1.5"/>
  <line x1="760" y1="618" x2="780" y2="618" stroke="#000" stroke-width="1.5"/>
  <line x1="780" y1="462" x2="780" y2="490" stroke="#000" stroke-width="1.5"/>
  <line x1="780" y1="590" x2="780" y2="618" stroke="#000" stroke-width="1.5"/>

  <!-- Inner lip cutout: 10mm dia, 2mm deep -->
  <rect x="780" y="490" width="20" height="100" fill="white" stroke="none"/>
  <line x1="780" y1="490" x2="800" y2="490" stroke="#000" stroke-width="1.5"/>
  <line x1="780" y1="590" x2="800" y2="590" stroke="#000" stroke-width="1.5"/>
  <line x1="800" y1="490" x2="800" y2="507.5" stroke="#000" stroke-width="1.5"/>
  <line x1="800" y1="572.5" x2="800" y2="590" stroke="#000" stroke-width="1.5"/>

  <!-- Tube hole cutout: 6.5mm dia, through remaining 2mm -->
  <rect x="800" y="507.5" width="20" height="65" fill="white" stroke="none"/>
  <line x1="800" y1="507.5" x2="820" y2="507.5" stroke="#000" stroke-width="1.5"/>
  <line x1="800" y1="572.5" x2="820" y2="572.5" stroke="#000" stroke-width="1.5"/>

  <!-- Hatch lines for remaining solid material -->
  <!-- Top shoulder outer to inner -->
  <line x1="781" y1="463" x2="798" y2="489" class="section-hatch"/>
  <line x1="788" y1="463" x2="799" y2="480" class="section-hatch"/>
  <!-- Bottom shoulder outer to inner -->
  <line x1="781" y1="591" x2="798" y2="617" class="section-hatch"/>
  <line x1="788" y1="591" x2="799" y2="610" class="section-hatch"/>
  <!-- Top shoulder inner to tube -->
  <line x1="801" y1="463" x2="818" y2="489" class="section-hatch"/>
  <line x1="808" y1="463" x2="819" y2="480" class="section-hatch"/>
  <!-- Bottom shoulder inner to tube -->
  <line x1="801" y1="591" x2="818" y2="617" class="section-hatch"/>
  <line x1="808" y1="591" x2="819" y2="610" class="section-hatch"/>
  <!-- Structural back (right of tube hole) -->
  <line x1="821" y1="463" x2="838" y2="617" class="section-hatch"/>
  <line x1="826" y1="463" x2="838" y2="580" class="section-hatch"/>
  <line x1="831" y1="463" x2="838" y2="530" class="section-hatch"/>

  <!-- Bore centerline -->
  <line x1="745" y1="540" x2="845" y2="540" class="center"/>

  <!-- DETAIL DIMENSIONS -->

  <!-- Diameter leaders (left side) -->
  <!-- Outer bore: 15.6mm -->
  <line x1="755" y1="462" x2="737" y2="462" class="dim"/>
  <line x1="755" y1="618" x2="737" y2="618" class="dim"/>
  <line x1="740" y1="462" x2="740" y2="618" class="dim"/>
  <polygon points="740,462 737.5,468 742.5,468" class="arrow"/>
  <polygon points="740,618 737.5,612 742.5,612" class="arrow"/>
  <text x="735" y="544" class="dim-text-right" style="font-size:9px">&#x2300;15.6</text>

  <!-- Inner lip: 10.0mm -->
  <line x1="855" y1="490" x2="870" y2="490" class="dim"/>
  <line x1="855" y1="590" x2="870" y2="590" class="dim"/>
  <line x1="865" y1="490" x2="865" y2="590" class="dim"/>
  <polygon points="865,490 862.5,496 867.5,496" class="arrow"/>
  <polygon points="865,590 862.5,584 867.5,584" class="arrow"/>
  <text x="875" y="544" class="dim-text-left" style="font-size:9px">&#x2300;10.0</text>

  <!-- Tube hole: 6.5mm -->
  <line x1="880" y1="507.5" x2="895" y2="507.5" class="dim"/>
  <line x1="880" y1="572.5" x2="895" y2="572.5" class="dim"/>
  <line x1="890" y1="507.5" x2="890" y2="572.5" class="dim"/>
  <polygon points="890,507.5 887.5,513.5 892.5,513.5" class="arrow"/>
  <polygon points="890,572.5 887.5,566.5 892.5,566.5" class="arrow"/>
  <text x="900" y="544" class="dim-text-left" style="font-size:9px">&#x2300;6.5</text>

  <!-- Depth dimensions (below) -->
  <!-- Outer bore depth: 2mm -->
  <line x1="760" y1="628" x2="760" y2="636" class="dim"/>
  <line x1="780" y1="628" x2="780" y2="636" class="dim"/>
  <line x1="760" y1="633" x2="780" y2="633" class="dim"/>
  <polygon points="760,633 766,630.5 766,635.5" class="arrow"/>
  <polygon points="780,633 774,630.5 774,635.5" class="arrow"/>
  <text x="770" y="645" class="dim-text">2</text>

  <!-- Inner lip depth: 2mm -->
  <line x1="780" y1="628" x2="780" y2="636" class="dim"/>
  <line x1="800" y1="628" x2="800" y2="636" class="dim"/>
  <line x1="780" y1="633" x2="800" y2="633" class="dim"/>
  <polygon points="780,633 786,630.5 786,635.5" class="arrow"/>
  <polygon points="800,633 794,630.5 794,635.5" class="arrow"/>
  <text x="790" y="645" class="dim-text">2</text>

  <!-- Structural back: 2mm -->
  <line x1="800" y1="628" x2="800" y2="636" class="dim"/>
  <line x1="820" y1="628" x2="820" y2="636" class="dim"/>
  <line x1="800" y1="633" x2="820" y2="633" class="dim"/>
  <polygon points="800,633 806,630.5 806,635.5" class="arrow"/>
  <polygon points="820,633 814,630.5 814,635.5" class="arrow"/>
  <text x="810" y="645" class="dim-text">2</text>

  <!-- Total depth: 6mm -->
  <line x1="760" y1="652" x2="760" y2="659" class="dim"/>
  <line x1="820" y1="652" x2="820" y2="659" class="dim"/>
  <line x1="760" y1="656" x2="820" y2="656" class="dim"/>
  <polygon points="760,656 766,653.5 766,658.5" class="arrow"/>
  <polygon points="820,656 814,653.5 814,658.5" class="arrow"/>
  <text x="790" y="668" class="dim-text">6 total</text>

  <!-- Chamfer annotations -->
  <line x1="764" y1="618" x2="747" y2="632" class="dim"/>
  <text x="745" y="636" class="dim-text-s" text-anchor="end">0.3x45&#xb0;</text>

  <line x1="805" y1="572.5" x2="845" y2="582" class="dim"/>
  <text x="847" y="581" class="dim-text-s" text-anchor="start">0.1 chamfer</text>

  <!-- Zone labels (below bore cutout in solid material) -->
  <text x="770" y="626" class="note-center" style="font-size:7px">outer</text>
  <text x="790" y="626" class="note-center" style="font-size:7px">lip</text>
  <text x="810" y="626" class="note-center" style="font-size:7px">back</text>

  <!-- Arrow indicating dock/fitting direction -->
  <line x1="745" y1="452" x2="760" y2="452" class="dim"/>
  <polygon points="745,452 751,449.5 751,454.5" class="arrow"/>
  <text x="762" y="450" class="dim-text-s" text-anchor="start">dock side</text>

  <!-- ============================================================ -->
  <!-- NOTES BLOCK                                                   -->
  <!-- ============================================================ -->
  <line x1="30" y1="690" x2="1220" y2="690" stroke="#999" stroke-width="0.5"/>
  <text x="50" y="712" class="note" style="font-size:10px; font-weight:bold">NOTES:</text>
  <text x="50" y="727" class="note">1. Material: PETG. Print plate flat on build plate, strut vertical. 4+ perimeter walls, 30%+ infill.</text>
  <text x="50" y="740" class="note">2. Thread: Tr12x3 2-start trapezoidal, 0.3mm radial clearance. Validate with 15-min test print before full part.</text>
  <text x="50" y="753" class="note">3. Layer height: 0.12-0.16mm for threaded sections, 0.20mm for smooth shaft (variable layer height).</text>
  <text x="50" y="766" class="note">4. Bore diameters are constraint-based ranges. Validate with single-bore test prints against physical JG fitting.</text>
  <text x="50" y="779" class="note">5. Tube clearance hole design window: 6.30mm (tube OD) to 6.69mm (collet ID) = 0.39mm total.</text>
  <text x="50" y="792" class="note">6. Guide pins: sand with 400+ grit, apply silicone grease if binding. 0.25mm radial clearance to 6.5mm bushings.</text>

  <!-- Scales summary -->
  <text x="750" y="712" class="note" style="font-size:10px; font-weight:bold">SCALES:</text>
  <text x="750" y="727" class="note">Front view: 4 px/mm</text>
  <text x="750" y="740" class="note">Side view: 3 px/mm (horiz) / 4 px/mm (vert, Z-aligned)</text>
  <text x="750" y="753" class="note">Section A-A: 8 px/mm</text>
  <text x="750" y="766" class="note">Detail inset: 10 px/mm</text>

</svg>
