<svg xmlns="http://www.w3.org/2000/svg" viewBox="0 0 1400 1100" width="1400" height="1100" font-family="Arial, Helvetica, sans-serif">
  <title>Wing Knob — Three-View Orthographic + Section</title>

  <defs>
    <style>
      .outline { fill: none; stroke: #000; stroke-width: 1.5; }
      .hidden { fill: none; stroke: #000; stroke-width: 0.8; stroke-dasharray: 6,3; }
      .center { fill: none; stroke: #000; stroke-width: 0.5; stroke-dasharray: 14,3,3,3; }
      .dim { fill: none; stroke: #333; stroke-width: 0.7; }
      .dimtext { font-size: 11px; fill: #333; text-anchor: middle; }
      .label { font-size: 12px; fill: #000; font-weight: bold; }
      .note { font-size: 10px; fill: #333; }
      .section-hatch { fill: none; stroke: #666; stroke-width: 0.4; }
      .section-fill { fill: #e8e8e8; stroke: #000; stroke-width: 1.5; }
      .section-outline { fill: none; stroke: #000; stroke-width: 1.5; }
      .cut-plane { fill: none; stroke: #000; stroke-width: 1.2; stroke-dasharray: 18,4,4,4,4,4; }
      .ext { fill: none; stroke: #333; stroke-width: 0.5; }
      .arrowhead { fill: #333; stroke: none; }
      .knurl { fill: none; stroke: #888; stroke-width: 0.3; }
    </style>
    <marker id="arr" markerWidth="8" markerHeight="6" refX="8" refY="3" orient="auto">
      <path d="M0,0 L8,3 L0,6 Z" class="arrowhead"/>
    </marker>
    <marker id="arr-rev" markerWidth="8" markerHeight="6" refX="0" refY="3" orient="auto">
      <path d="M8,0 L0,3 L8,6 Z" class="arrowhead"/>
    </marker>
  </defs>

  <!-- Background -->
  <rect width="1400" height="1100" fill="#fff"/>

  <!-- Title block -->
  <text x="700" y="30" text-anchor="middle" font-size="18" font-weight="bold" fill="#000">Wing Knob — Orthographic Drawing</text>
  <text x="700" y="48" text-anchor="middle" font-size="11" fill="#555">Material: PETG | Scale: 5 px/mm | Dims in mm | UX-critical grip part</text>

  <!--
    AXIS LOOKUP TABLE (Rubric 1):
    VIEW          | LOOKING ALONG | HORIZONTAL AXIS | VERTICAL AXIS
    Front view    | -Y            | X (width)       | Z (height)
    Section A-A   | -Y (cut)      | X (width)       | Z (height)
    Rear view     | +Y            | X (width, mirr) | Z (height)

    Part coordinate system (from parts.md):
    Origin at exterior front-bottom-left corner of shell.
    X = width (positive right), Y = depth (positive toward rear), Z = height (positive up).
    Knob sits at front wall (Y=0 face), axis along Y.

    Part geometry:
    Body: 40mm dia cylinder, 25mm deep, axis along Y
    Wings: extend 15mm beyond body radius (20mm) each side along X, total tip-to-tip 70mm
    Internal thread: Tr12x3 2-start female, engagement 20mm from rear face
    Front 5mm of bore: smooth (no thread)
    Wall thickness at body: (40 - 12.6) / 2 = 13.7mm
    Wing thickness (Z extent): 18mm at root tapering to 12mm at tip
    Wing tip: rounded R6

    At 5px/mm: body dia 200px (r=100), depth 125px, wing span 350px (175 each side)
    Thread bore: 12.6mm minor dia = 63px dia (r=31.5px)
    Thread root: 15.6mm major dia = 78px dia (r=39px)

    Per-feature checklist:
    - Body cylinder: axis=Y. Front(along -Y)=circle 200px dia. Section=rect walls. Rear(along +Y)=circle 200px dia. MATCH.
    - Thread bore: axis=Y. Front=hidden circle 63px dia. Section=thread profile. Rear=visible circle 63px dia. MATCH.
    - Wings: extend along X. Front=wing profile horizontal. Section=wing cross-section rect. Rear=wing profile. MATCH.
    - Knurl: on body exterior. Front=texture on circle band. Section=sawtooth on outer wall. MATCH.
    - Thumb dish: concave on front face. Front=subtle ring. Section=dip at top center. MATCH.
    - Rear chamfer: 1x45 at bore entry. Rear=ring. Section=angled line. MATCH.
  -->

  <!-- ============================================================ -->
  <!-- FRONT VIEW (looking along -Y): X horizontal, Z vertical      -->
  <!-- What the user sees — circular body with wings, knurl texture  -->
  <!-- Center of body at SVG (300, 310)                              -->
  <!-- ============================================================ -->
  <text x="300" y="78" class="label" text-anchor="middle">FRONT VIEW (user side)</text>

  <g id="front-view" transform="translate(300, 310)">
    <!-- Scale: 5 px/mm. Body center at origin. -->

    <!-- Body circle: 40mm dia = r=100px -->
    <circle cx="0" cy="0" r="100" class="outline"/>

    <!-- Knurl band: inner ring at r=90px (2mm depth = 10px) -->
    <circle cx="0" cy="0" r="90" stroke="#aaa" stroke-width="0.4" fill="none" stroke-dasharray="1.5,2"/>

    <!-- Thumb dish indication: concentric ring at ~24mm dia = r=60px -->
    <circle cx="0" cy="0" r="60" stroke="#999" stroke-width="0.5" fill="none" stroke-dasharray="4,2"/>

    <!-- Internal thread bore — hidden (behind front face) -->
    <!-- Female minor dia = 12.6mm = r=31.5px -->
    <circle cx="0" cy="0" r="31.5" class="hidden"/>

    <!-- Center lines -->
    <line x1="-195" y1="0" x2="195" y2="0" class="center"/>
    <line x1="0" y1="-130" x2="0" y2="130" class="center"/>

    <!-- Left wing profile -->
    <!-- Wing extends from body (r=100px at junction, ~86.6px on circle edge at wing root angle) -->
    <!-- Wing root at body: Z = +/-45px (9mm each side of center = 18mm root height) -->
    <!-- Wing tip at X=-175px: Z = +/-30px (6mm each side = 12mm tip height) -->
    <!-- Wing junction blends into body circle via R3=15px fillet -->
    <!-- Body circle at Z=+/-45: X = sqrt(100^2 - 45^2) = sqrt(7975) = 89.3px -->
    <path d="M-89.3,-45 L-175,-30" class="outline"/>
    <path d="M-89.3,45 L-175,30" class="outline"/>
    <!-- Wing tip (rounded, R6=30px) -->
    <path d="M-175,-30 A30,30 0 0,0 -175,30" class="outline"/>

    <!-- Right wing profile (mirror) -->
    <path d="M89.3,-45 L175,-30" class="outline"/>
    <path d="M89.3,45 L175,30" class="outline"/>
    <path d="M175,-30 A30,30 0 0,1 175,30" class="outline"/>

    <!-- Grip ridges on wings (3 per side) -->
    <!-- Left wing: at X=-120, -140, -160 -->
    <line x1="-120" y1="-41" x2="-120" y2="41" class="knurl" stroke-width="0.6"/>
    <line x1="-140" y1="-37" x2="-140" y2="37" class="knurl" stroke-width="0.6"/>
    <line x1="-160" y1="-33" x2="-160" y2="33" class="knurl" stroke-width="0.6"/>
    <!-- Right wing -->
    <line x1="120" y1="-41" x2="120" y2="41" class="knurl" stroke-width="0.6"/>
    <line x1="140" y1="-37" x2="140" y2="37" class="knurl" stroke-width="0.6"/>
    <line x1="160" y1="-33" x2="160" y2="33" class="knurl" stroke-width="0.6"/>

    <!-- Section cut line A-A (horizontal through center) -->
    <line x1="-200" y1="0" x2="-195" y2="0" class="cut-plane"/>
    <line x1="195" y1="0" x2="200" y2="0" class="cut-plane"/>
    <text x="-210" y="4" font-size="14" font-weight="bold" fill="#000">A</text>
    <text x="206" y="4" font-size="14" font-weight="bold" fill="#000">A</text>

    <!-- ===== FRONT VIEW DIMENSIONS ===== -->

    <!-- Body diameter: 40mm (top) -->
    <line x1="-100" y1="-108" x2="-100" y2="-135" class="ext"/>
    <line x1="100" y1="-108" x2="100" y2="-135" class="ext"/>
    <line x1="-100" y1="-125" x2="100" y2="-125" class="dim" marker-start="url(#arr-rev)" marker-end="url(#arr)"/>
    <text x="0" y="-130" class="dimtext">&#x2300;40</text>

    <!-- Wing tip-to-tip: 70mm (above body dim) -->
    <line x1="-175" y1="-145" x2="-175" y2="-168" class="ext"/>
    <line x1="175" y1="-145" x2="175" y2="-168" class="ext"/>
    <line x1="-175" y1="-158" x2="175" y2="-158" class="dim" marker-start="url(#arr-rev)" marker-end="url(#arr)"/>
    <text x="0" y="-163" class="dimtext">70 (tip to tip)</text>

    <!-- Wing extension: 15mm (right side) -->
    <line x1="100" y1="60" x2="100" y2="78" class="ext"/>
    <line x1="175" y1="60" x2="175" y2="78" class="ext"/>
    <line x1="100" y1="70" x2="175" y2="70" class="dim" marker-start="url(#arr-rev)" marker-end="url(#arr)"/>
    <text x="137.5" y="65" class="dimtext">15</text>

    <!-- Thread bore hidden diameter: 12.6mm -->
    <line x1="22" y1="-22" x2="55" y2="-58" class="dim"/>
    <text x="59" y="-60" class="dimtext" text-anchor="start">&#x2300;12.6 bore (hidden)</text>

    <!-- Knurl note (upper right) -->
    <line x1="71" y1="-71" x2="108" y2="-108" class="dim"/>
    <text x="112" y="-110" class="note" text-anchor="start">Knurl: diamond, 1mm deep, 2mm pitch</text>

    <!-- Thumb dish note -->
    <line x1="42" y1="42" x2="78" y2="88" class="dim"/>
    <text x="82" y="87" class="note" text-anchor="start">Thumb dish &#x2300;24, 1mm deep</text>

    <!-- Wing root height: 18mm (left side) -->
    <line x1="-193" y1="-45" x2="-210" y2="-45" class="ext"/>
    <line x1="-193" y1="45" x2="-210" y2="45" class="ext"/>
    <line x1="-204" y1="-45" x2="-204" y2="45" class="dim" marker-start="url(#arr-rev)" marker-end="url(#arr)"/>
    <text x="-224" y="4" class="dimtext">18</text>
  </g>

  <!-- ============================================================ -->
  <!-- SECTION VIEW A-A (cut through horizontal center)              -->
  <!-- Looking along -Y (same orientation as front view)             -->
  <!-- Shows internal thread profile, wall thickness, wing profile   -->
  <!-- Horizontal = X (radial), Vertical = Y (depth)                 -->
  <!-- Front face (user side, Y=0) at top, rear (thread entry) at bottom -->
  <!-- Center at SVG (300, 740)                                      -->
  <!-- ============================================================ -->
  <text x="300" y="548" class="label" text-anchor="middle">SECTION A-A</text>

  <g id="section-view" transform="translate(300, 570)">
    <!-- Scale: 5 px/mm. -->
    <!-- Width: wing tip-to-tip 70mm = 350px, X from -175 to +175 -->
    <!-- Height: depth 25mm = 125px, Y from 0 (front/user) to 125 (rear/thread entry) -->

    <!-- Material fill regions (gray background for hatching) -->
    <!-- Left wall + wing: X -175 to -31.5 -->
    <rect x="-175" y="0" width="143.5" height="125" fill="#e8e8e8" stroke="none"/>
    <!-- Right wall + wing: X 31.5 to 175 -->
    <rect x="31.5" y="0" width="143.5" height="125" fill="#e8e8e8" stroke="none"/>
    <!-- Front face bridge (over bore): X -31.5 to 31.5, Y 0 to 25px (5mm solid) -->
    <rect x="-31.5" y="0" width="63" height="25" fill="#e8e8e8" stroke="none"/>

    <!-- Bore void (white) -->
    <rect x="-31.5" y="25" width="63" height="100" fill="#fff" stroke="none"/>

    <!-- Section hatching — left material (45-degree lines, 15px spacing) -->
    <clipPath id="hatch-left">
      <rect x="-175" y="0" width="143.5" height="125"/>
    </clipPath>
    <g clip-path="url(#hatch-left)">
      <line x1="-190" y1="15" x2="-175" y2="0" class="section-hatch"/>
      <line x1="-190" y1="30" x2="-160" y2="0" class="section-hatch"/>
      <line x1="-190" y1="45" x2="-145" y2="0" class="section-hatch"/>
      <line x1="-190" y1="60" x2="-130" y2="0" class="section-hatch"/>
      <line x1="-190" y1="75" x2="-115" y2="0" class="section-hatch"/>
      <line x1="-190" y1="90" x2="-100" y2="0" class="section-hatch"/>
      <line x1="-190" y1="105" x2="-85" y2="0" class="section-hatch"/>
      <line x1="-190" y1="120" x2="-70" y2="0" class="section-hatch"/>
      <line x1="-190" y1="135" x2="-55" y2="0" class="section-hatch"/>
      <line x1="-175" y1="135" x2="-40" y2="0" class="section-hatch"/>
      <line x1="-160" y1="135" x2="-25" y2="0" class="section-hatch"/>
      <line x1="-145" y1="135" x2="-10" y2="0" class="section-hatch"/>
      <line x1="-130" y1="135" x2="5" y2="0" class="section-hatch"/>
      <line x1="-115" y1="135" x2="20" y2="0" class="section-hatch"/>
      <line x1="-100" y1="135" x2="35" y2="0" class="section-hatch"/>
      <line x1="-85" y1="135" x2="50" y2="0" class="section-hatch"/>
    </g>

    <!-- Section hatching — right material -->
    <clipPath id="hatch-right">
      <rect x="31.5" y="0" width="143.5" height="125"/>
    </clipPath>
    <g clip-path="url(#hatch-right)">
      <line x1="16" y1="15" x2="31" y2="0" class="section-hatch"/>
      <line x1="16" y1="30" x2="46" y2="0" class="section-hatch"/>
      <line x1="16" y1="45" x2="61" y2="0" class="section-hatch"/>
      <line x1="16" y1="60" x2="76" y2="0" class="section-hatch"/>
      <line x1="16" y1="75" x2="91" y2="0" class="section-hatch"/>
      <line x1="16" y1="90" x2="106" y2="0" class="section-hatch"/>
      <line x1="16" y1="105" x2="121" y2="0" class="section-hatch"/>
      <line x1="16" y1="120" x2="136" y2="0" class="section-hatch"/>
      <line x1="16" y1="135" x2="151" y2="0" class="section-hatch"/>
      <line x1="31" y1="135" x2="166" y2="0" class="section-hatch"/>
      <line x1="46" y1="135" x2="181" y2="0" class="section-hatch"/>
      <line x1="61" y1="135" x2="196" y2="0" class="section-hatch"/>
      <line x1="76" y1="135" x2="211" y2="0" class="section-hatch"/>
      <line x1="91" y1="135" x2="226" y2="0" class="section-hatch"/>
      <line x1="106" y1="135" x2="241" y2="0" class="section-hatch"/>
      <line x1="121" y1="135" x2="256" y2="0" class="section-hatch"/>
    </g>

    <!-- Section hatching — front face bridge -->
    <clipPath id="hatch-bridge">
      <rect x="-31.5" y="0" width="63" height="25"/>
    </clipPath>
    <g clip-path="url(#hatch-bridge)">
      <line x1="-47" y1="15" x2="-32" y2="0" class="section-hatch"/>
      <line x1="-47" y1="30" x2="-17" y2="0" class="section-hatch"/>
      <line x1="-32" y1="30" x2="-2" y2="0" class="section-hatch"/>
      <line x1="-17" y1="30" x2="13" y2="0" class="section-hatch"/>
      <line x1="-2" y1="30" x2="28" y2="0" class="section-hatch"/>
      <line x1="13" y1="30" x2="43" y2="0" class="section-hatch"/>
    </g>

    <!-- Outer profile outline -->
    <!-- Front face (top edge, Y=0) with thumb dish -->
    <line x1="-175" y1="0" x2="-60" y2="0" class="section-outline"/>
    <path d="M-60,0 Q0,5 60,0" class="section-outline" fill="none"/>
    <line x1="60" y1="0" x2="175" y2="0" class="section-outline"/>

    <!-- Right side outer edge -->
    <line x1="175" y1="0" x2="175" y2="125" class="section-outline"/>
    <!-- Rear face (bottom edge, Y=25mm=125px) -->
    <line x1="175" y1="125" x2="41.5" y2="125" class="section-outline"/>

    <!-- Right chamfer at bore entry: 1mm x 45deg = 5px x 5px -->
    <line x1="41.5" y1="125" x2="31.5" y2="120" class="section-outline"/>

    <!-- Right bore wall — thread profile (sawtooth) -->
    <!-- Thread zone: Y from 25px (5mm from front) to 120px (chamfer start) -->
    <!-- Pitch 3mm = 15px. Thread depth 1.5mm = 7.5px -->
    <!-- Female thread: minor dia wall at X=31.5, grooves cut to X=39 -->
    <path d="M31.5,120 L39,115 L31.5,110 L39,105 L31.5,100
             L39,95 L31.5,90 L39,85 L31.5,80
             L39,75 L31.5,70 L39,65 L31.5,60
             L39,55 L31.5,50 L39,45 L31.5,40
             L39,35 L31.5,30 L31.5,25"
          class="section-outline" fill="none"/>

    <!-- Smooth bore wall above thread (right): Y 0 to 25 -->
    <line x1="31.5" y1="25" x2="31.5" y2="0" class="section-outline"/>

    <!-- Left side (mirror) -->
    <line x1="-175" y1="0" x2="-175" y2="125" class="section-outline"/>
    <line x1="-175" y1="125" x2="-41.5" y2="125" class="section-outline"/>
    <!-- Left chamfer -->
    <line x1="-41.5" y1="125" x2="-31.5" y2="120" class="section-outline"/>

    <!-- Left bore wall — thread profile -->
    <path d="M-31.5,120 L-39,115 L-31.5,110 L-39,105 L-31.5,100
             L-39,95 L-31.5,90 L-39,85 L-31.5,80
             L-39,75 L-31.5,70 L-39,65 L-31.5,60
             L-39,55 L-31.5,50 L-39,45 L-31.5,40
             L-39,35 L-31.5,30 L-31.5,25"
          class="section-outline" fill="none"/>

    <!-- Smooth bore wall above thread (left) -->
    <line x1="-31.5" y1="25" x2="-31.5" y2="0" class="section-outline"/>

    <!-- Wing-body junction lines (dashed to show boundary) -->
    <line x1="-100" y1="0" x2="-100" y2="125" stroke="#000" stroke-width="0.6" stroke-dasharray="3,5"/>
    <line x1="100" y1="0" x2="100" y2="125" stroke="#000" stroke-width="0.6" stroke-dasharray="3,5"/>

    <!-- Knurl texture on body exterior (sawtooth on outer wall) -->
    <path d="M100,5 L105,10 L100,15 L105,20 L100,25 L105,30 L100,35
             L105,40 L100,45 L105,50 L100,55 L105,60 L100,65
             L105,70 L100,75 L105,80 L100,85 L105,90 L100,95
             L105,100 L100,105 L105,110 L100,115 L105,120 L100,125"
          stroke="#888" stroke-width="0.5" fill="none"/>
    <path d="M-100,5 L-105,10 L-100,15 L-105,20 L-100,25 L-105,30 L-100,35
             L-105,40 L-100,45 L-105,50 L-100,55 L-105,60 L-100,65
             L-105,70 L-100,75 L-105,80 L-100,85 L-105,90 L-100,95
             L-105,100 L-100,105 L-105,110 L-100,115 L-105,120 L-100,125"
          stroke="#888" stroke-width="0.5" fill="none"/>

    <!-- Center line (vertical through bore center) -->
    <line x1="0" y1="-15" x2="0" y2="140" class="center"/>

    <!-- ===== SECTION VIEW DIMENSIONS ===== -->

    <!-- Overall depth: 25mm (right side) -->
    <line x1="185" y1="0" x2="202" y2="0" class="ext"/>
    <line x1="185" y1="125" x2="202" y2="125" class="ext"/>
    <line x1="195" y1="0" x2="195" y2="125" class="dim" marker-start="url(#arr-rev)" marker-end="url(#arr)"/>
    <text x="212" y="66" class="dimtext" text-anchor="start">25</text>

    <!-- Thread engagement depth: 20mm (bore interior, right side) -->
    <!-- From Y=25 (thread start) to Y=125 (rear face) = 100px = 20mm -->
    <line x1="48" y1="25" x2="62" y2="25" class="ext"/>
    <line x1="48" y1="125" x2="62" y2="125" class="ext"/>
    <line x1="55" y1="25" x2="55" y2="125" class="dim" marker-start="url(#arr-rev)" marker-end="url(#arr)"/>
    <text x="70" y="78" class="dimtext" text-anchor="start">20</text>

    <!-- Wall thickness: 13.7mm (right wall) -->
    <!-- From bore at X=31.5 to body outer at X=100 = 68.5px / 5 = 13.7mm -->
    <line x1="31.5" y1="137" x2="31.5" y2="152" class="ext"/>
    <line x1="100" y1="137" x2="100" y2="152" class="ext"/>
    <line x1="31.5" y1="145" x2="100" y2="145" class="dim" marker-start="url(#arr-rev)" marker-end="url(#arr)"/>
    <text x="65.75" y="141" class="dimtext">13.7</text>

    <!-- Thread label in bore center (white background to clear hatching lines) -->
    <rect x="-22" y="65" width="44" height="28" fill="#fff" stroke="none"/>
    <text x="0" y="76" class="note" text-anchor="middle">Tr12&#xD7;3</text>
    <text x="0" y="88" class="note" text-anchor="middle">2-start</text>

    <!-- Front/rear face labels -->
    <text x="-140" y="-10" class="note" text-anchor="middle">Front (user side)</text>
    <path d="M-140,-6 L-140,0" class="dim" marker-end="url(#arr)"/>
    <text x="-140" y="142" class="note" text-anchor="middle">Rear (thread entry)</text>
    <path d="M-140,137 L-140,125" class="dim" marker-end="url(#arr)"/>

    <!-- Chamfer callout -->
    <line x1="41.5" y1="120" x2="58" y2="110" class="dim"/>
    <text x="62" y="108" class="note" text-anchor="start">1&#xD7;45&#xB0; chamfer</text>

    <!-- Thumb dish callout -->
    <line x1="5" y1="5" x2="15" y2="14" class="dim"/>
    <text x="18" y="13" class="note" text-anchor="start">1mm dish</text>

    <!-- Fillet callout at wing-body junction -->
    <text x="-108" y="-22" class="note" text-anchor="start">R3 fillet</text>
  </g>

  <!-- ============================================================ -->
  <!-- REAR VIEW (looking along +Y): X horizontal, Z vertical       -->
  <!-- Shows thread opening with chamfer                             -->
  <!-- Center at SVG (900, 310)                                      -->
  <!-- ============================================================ -->
  <text x="900" y="78" class="label" text-anchor="middle">REAR VIEW (thread entry)</text>

  <g id="rear-view" transform="translate(900, 310)">
    <!-- Body circle: 40mm dia = r=100px -->
    <circle cx="0" cy="0" r="100" class="outline"/>

    <!-- Knurl band inner ring -->
    <circle cx="0" cy="0" r="90" stroke="#aaa" stroke-width="0.4" fill="none" stroke-dasharray="1.5,2"/>

    <!-- Thread bore — visible (open end) -->
    <!-- Chamfer outer ring: transitions from 15.6mm to 12.6mm -->
    <!-- Female thread major dia (root): 15.6mm = r=39px -->
    <circle cx="0" cy="0" r="39" class="outline"/>
    <!-- Female thread minor dia (crest): 12.6mm = r=31.5px -->
    <circle cx="0" cy="0" r="31.5" class="outline"/>

    <!-- Center lines -->
    <line x1="-195" y1="0" x2="195" y2="0" class="center"/>
    <line x1="0" y1="-130" x2="0" y2="130" class="center"/>

    <!-- Wing profiles (same shape, this is symmetric front/rear) -->
    <!-- Left wing -->
    <path d="M-89.3,-45 L-175,-30" class="outline"/>
    <path d="M-89.3,45 L-175,30" class="outline"/>
    <path d="M-175,-30 A30,30 0 0,0 -175,30" class="outline"/>

    <!-- Right wing -->
    <path d="M89.3,-45 L175,-30" class="outline"/>
    <path d="M89.3,45 L175,30" class="outline"/>
    <path d="M175,-30 A30,30 0 0,1 175,30" class="outline"/>

    <!-- Grip ridges -->
    <line x1="-120" y1="-41" x2="-120" y2="41" class="knurl" stroke-width="0.6"/>
    <line x1="-140" y1="-37" x2="-140" y2="37" class="knurl" stroke-width="0.6"/>
    <line x1="-160" y1="-33" x2="-160" y2="33" class="knurl" stroke-width="0.6"/>
    <line x1="120" y1="-41" x2="120" y2="41" class="knurl" stroke-width="0.6"/>
    <line x1="140" y1="-37" x2="140" y2="37" class="knurl" stroke-width="0.6"/>
    <line x1="160" y1="-33" x2="160" y2="33" class="knurl" stroke-width="0.6"/>

    <!-- ===== REAR VIEW DIMENSIONS ===== -->

    <!-- Thread bore minor dia: 12.6mm -->
    <line x1="22" y1="-22" x2="60" y2="-62" class="dim"/>
    <text x="64" y="-64" class="dimtext" text-anchor="start">&#x2300;12.6 minor</text>

    <!-- Thread bore major dia: 15.6mm -->
    <line x1="32" y1="-20" x2="74" y2="-46" class="dim"/>
    <text x="78" y="-48" class="dimtext" text-anchor="start">&#x2300;15.6 major</text>

    <!-- Wing tip-to-tip: 70mm (top) -->
    <line x1="-175" y1="-145" x2="-175" y2="-165" class="ext"/>
    <line x1="175" y1="-145" x2="175" y2="-165" class="ext"/>
    <line x1="-175" y1="-158" x2="175" y2="-158" class="dim" marker-start="url(#arr-rev)" marker-end="url(#arr)"/>
    <text x="0" y="-163" class="dimtext">70</text>

    <!-- Chamfer note -->
    <line x1="-22" y1="28" x2="-56" y2="60" class="dim"/>
    <text x="-60" y="58" class="note" text-anchor="end">1&#xD7;45&#xB0; entry chamfer</text>
  </g>

  <!-- ============================================================ -->
  <!-- NOTES BOX                                                     -->
  <!-- ============================================================ -->
  <g id="notes" transform="translate(720, 548)">
    <rect x="0" y="0" width="400" height="160" fill="none" stroke="#999" stroke-width="0.5" rx="3"/>
    <text x="10" y="18" class="label">NOTES</text>
    <text x="10" y="36" class="note">1. Material: PETG (impact resistant, food safe)</text>
    <text x="10" y="50" class="note">2. Thread: Tr12&#xD7;3 2-start, 0.3mm radial clearance</text>
    <text x="10" y="64" class="note">3. Print upright, open thread end on build plate</text>
    <text x="10" y="78" class="note">4. Layer height: 0.12-0.16mm on threaded sections</text>
    <text x="10" y="92" class="note">5. Perimeters: 4+ walls for thread strength</text>
    <text x="10" y="106" class="note">6. Knurl: diamond pattern, 1mm deep, 2mm pitch</text>
    <text x="10" y="120" class="note">7. UX-critical part: smooth fillets, comfortable grip</text>
    <text x="10" y="134" class="note">8. Half turn (180&#xB0;) = 3mm plate travel (6mm lead)</text>
    <text x="10" y="148" class="note">9. All fillet radii R3 unless noted</text>
  </g>

  <!-- ============================================================ -->
  <!-- DETAIL B: Wing Profile (enlarged)                             -->
  <!-- ============================================================ -->
  <text x="940" y="748" class="label" text-anchor="middle">DETAIL B &#x2014; Wing Profile (10 px/mm)</text>
  <rect x="750" y="758" width="380" height="230" fill="#fff" stroke="#999" stroke-width="0.5"/>

  <g id="detail-wing" transform="translate(940, 873)">
    <!-- Scale: 10 px/mm (2x main views) -->
    <!-- Wing extends 15mm from body junction to tip -->
    <!-- At 10px/mm: 150px horizontal extent -->
    <!-- Root height 18mm = 180px (90 each side of center) -->
    <!-- Tip height 12mm = 120px (60 each side) -->

    <!-- Wing outline profile -->
    <path d="M0,-90 L150,-60" class="outline"/>
    <path d="M0,90 L150,60" class="outline"/>
    <!-- Tip rounding R6 = 60px -->
    <path d="M150,-60 A60,60 0 0,1 150,60" class="outline"/>
    <!-- Body junction edge -->
    <line x1="0" y1="-90" x2="0" y2="90" class="outline"/>

    <!-- Grip ridges (3x) -->
    <line x1="30" y1="-84" x2="30" y2="84" stroke="#888" stroke-width="0.8"/>
    <line x1="70" y1="-74" x2="70" y2="74" stroke="#888" stroke-width="0.8"/>
    <line x1="110" y1="-64" x2="110" y2="64" stroke="#888" stroke-width="0.8"/>

    <!-- Dimension: wing length 15mm -->
    <line x1="0" y1="-98" x2="0" y2="-112" class="ext"/>
    <line x1="150" y1="-98" x2="150" y2="-112" class="ext"/>
    <line x1="0" y1="-106" x2="150" y2="-106" class="dim" marker-start="url(#arr-rev)" marker-end="url(#arr)"/>
    <text x="75" y="-111" class="dimtext">15</text>

    <!-- Dimension: root height 18mm (left side) -->
    <line x1="-8" y1="-90" x2="-22" y2="-90" class="ext"/>
    <line x1="-8" y1="90" x2="-22" y2="90" class="ext"/>
    <line x1="-15" y1="-90" x2="-15" y2="90" class="dim" marker-start="url(#arr-rev)" marker-end="url(#arr)"/>
    <text x="-32" y="4" class="dimtext">18</text>

    <!-- Dimension: tip height 12mm (right side) -->
    <line x1="158" y1="-60" x2="172" y2="-60" class="ext"/>
    <line x1="158" y1="60" x2="172" y2="60" class="ext"/>
    <line x1="165" y1="-60" x2="165" y2="60" class="dim" marker-start="url(#arr-rev)" marker-end="url(#arr)"/>
    <text x="180" y="4" class="dimtext">12</text>

    <!-- Tip radius callout -->
    <line x1="152" y1="-25" x2="130" y2="-50" class="dim"/>
    <text x="95" y="-52" class="dimtext">R6 tip</text>

    <!-- Body junction label -->
    <text x="-5" y="105" class="note" text-anchor="end">body &#x2192;</text>

    <!-- Grip ridge spacing note -->
    <text x="90" y="118" class="note" text-anchor="middle">Grip ridges: 1.5 deep, 4 spacing (3x)</text>
  </g>

</svg>