<svg xmlns="http://www.w3.org/2000/svg" viewBox="0 0 1200 780" width="1200" height="780" font-family="Arial, Helvetica, sans-serif">
  <title>Wing Knob — Engineering Drawing</title>
  <style>
    .outline { fill: none; stroke: #000; stroke-width: 1.5; }
    .thin { fill: none; stroke: #000; stroke-width: 0.8; }
    .hidden { fill: none; stroke: #000; stroke-width: 0.8; stroke-dasharray: 2,2; }
    .center { fill: none; stroke: #000; stroke-width: 0.4; stroke-dasharray: 12,3,2,3; }
    .dim { fill: none; stroke: #333; stroke-width: 0.5; }
    .ext { fill: none; stroke: #333; stroke-width: 0.3; }
    .dim-text { font-size: 10px; fill: #333; text-anchor: middle; }
    .dim-text-s { font-size: 9px; fill: #333; text-anchor: middle; }
    .dim-text-left { font-size: 10px; fill: #333; text-anchor: start; }
    .dim-text-right { font-size: 10px; fill: #333; text-anchor: end; }
    .label { font-size: 11px; fill: #000; font-weight: bold; text-anchor: middle; }
    .note { font-size: 9px; fill: #555; }
    .note-center { font-size: 8px; fill: #555; text-anchor: middle; }
    .title-text { font-size: 16px; fill: #000; font-weight: bold; text-anchor: middle; }
    .subtitle { font-size: 11px; fill: #444; text-anchor: middle; }
    .arrow { fill: #333; stroke: none; }
    .section-fill { fill: #e8e8e8; stroke: none; }
    .section-outline { fill: none; stroke: #000; stroke-width: 1.5; }
    .section-hatch { fill: none; stroke: #999; stroke-width: 0.3; }
    .detail-frame { fill: #fff; stroke: #000; stroke-width: 1.0; }
  </style>

  <defs>
    <marker id="arrow-start" markerWidth="8" markerHeight="6" refX="0" refY="3" orient="auto">
      <polygon points="8,0 0,3 8,6" class="arrow"/>
    </marker>
    <marker id="arrow-end" markerWidth="8" markerHeight="6" refX="8" refY="3" orient="auto">
      <polygon points="0,0 8,3 0,6" class="arrow"/>
    </marker>
  </defs>

  <!--
    AXIS LOOKUP TABLE (Rubric 1):
    VIEW          | LOOKING ALONG | HORIZONTAL AXIS | VERTICAL AXIS
    Front view    | -Y            | X (width)       | Z (height)
    Side view     | -X            | Y (depth)       | Z (height)
    Section A-A   | -X            | Y (depth)       | Z (height)

    FEATURE CHECKLIST:
    1. Body cylinder (along Y, 40mm dia, 25mm deep):
       Front view: circle 40mm dia.  Side view: rect 25W x 40H.  CHECK
    2. Wings (extend along X, 10mm thick along Y):
       Front view: rectangular extensions left/right beyond body circle.
       Side view: rect 10W x wing-height, offset at front face.  CHECK
    3. Internal bore (along Y, 12.6mm minor dia):
       Front view: circle 12.6mm dia.  Side view: hidden parallel lines.  CHECK
    4. Thread region (along Y, 15.6mm major dia, 20mm engagement):
       Front view: hidden circle 15.6mm dia.  Side view: hidden lines.  CHECK
    5. Flat rear annular face (40mm OD x 12.5mm ID):
       Front view: not visible (rear face).  Side view: visible edge at rear.  CHECK

    WING KNOB DIMENSIONS:
      Body: 40mm dia cylinder, 25mm deep (Y-axis)
      Wings: 45mm tip-to-tip (2.5mm beyond body each side), 10mm Y-depth
      Wing profile: rounded rectangular lobes, R5 tip radius
      Internal bore minor dia: 12.6mm (smooth section + thread minor)
      Female thread major dia (root): 15.6mm
      Thread engagement: 20mm (from rear face inward)
      Smooth bore: 5mm (from front face to thread start)
      Entry chamfer: 1mm x 45 deg at front bore opening
      Rear annular face: 40mm OD, 12.5mm ID

    FRONT VIEW (along -Y, looking at front face):
      Scale: 5 px/mm
      Center: Fx=200, Fz=310
      Body circle: r=20mm*5=100px
      Wing tips at X=+/-22.5mm => +/-112.5px from center
      Wing half-height = 5mm => 25px from center
      Bore circle: r=6.3mm*5=31.5px
      Thread root circle (hidden): r=7.8mm*5=39px

    SIDE VIEW (along -X):
      Scale: 5 px/mm
      Z aligned with front view: center Z at 310
      Knob front face (Y=0): Sx=530
      Knob rear face (Y=25mm): 530+125=655
      Body top: 310-100=210. Body bottom: 310+100=410
      Wing Y-extent: 530 to 530+50=580 (10mm*5)
      Wing top: 310-112.5=197.5. Wing bottom: 310+112.5=422.5

    SECTION A-A (cut through Y-Z centerline, looking along -X):
      Scale: 6 px/mm
      Center Z at 640
      Knob front face: Sx2=120. Rear face: 120+150=270
      Body top: 640-120=520. Body bottom: 640+120=760
      Bore (12.6mm): +/-6.3*6=37.8px => top=602.2, bottom=677.8
      Thread root (15.6mm): +/-7.8*6=46.8px => top=593.2, bottom=686.8
      Thread region: 270 inward 120px (20mm*6) to x=150
      Smooth bore: x=120 to 150 (5mm*6=30px)
      Chamfer: 1mm*6=6px at front face
  -->

  <!-- Title block -->
  <text x="600" y="28" class="title-text">Wing Knob</text>
  <text x="600" y="44" class="subtitle">40mm body dia x 25mm deep — PETG — Qty 1 — Internal Tr12x3 2-start trapezoidal thread</text>
  <text x="600" y="58" class="subtitle">Dimensions in mm</text>
  <line x1="30" y1="65" x2="1170" y2="65" stroke="#999" stroke-width="0.5"/>

  <!-- ============================================================ -->
  <!-- FRONT VIEW (looking along -Y): X horizontal, Z vertical      -->
  <!-- Scale: 5 px/mm   Center: (200, 310)                          -->
  <!-- ============================================================ -->

  <text x="200" y="88" class="label">FRONT VIEW</text>
  <text x="200" y="99" class="note-center">(looking along -Y, front face, 5 px/mm)</text>

  <!-- Body circle: 40mm dia = r=100px -->
  <circle cx="200" cy="310" r="100" class="outline"/>

  <!-- Wing extensions — rounded rectangular lobes beyond body circle -->
  <!-- Left wing: body edge at x=100, wing tip at 200-22.5*5=87.5 -->
  <!-- Wing half-height: 5mm*5=25px. Top: 310-25=285, Bottom: 310+25=335 -->
  <!-- Wing tip radius: R5mm*5=25px — but the wing tab is only 12.5px wide so R is limited -->
  <!-- With 2.5mm radial extent and 10mm height, tip radius = 2.5mm (full semicircle at tip) -->
  <!-- Wing tip R = 2.5mm*5 = 12.5px (semicircle connecting top and bottom wing edges) -->
  <path d="M 100,285 L 100,335" class="outline" fill="none"/>
  <path d="M 100,285 L 87.5,285 A 12.5,12.5 0 0,0 87.5,335 L 100,335" class="outline" fill="none"/>

  <!-- Right wing: mirror -->
  <path d="M 300,285 L 300,335" class="outline" fill="none"/>
  <path d="M 300,285 L 312.5,285 A 12.5,12.5 0 0,1 312.5,335 L 300,335" class="outline" fill="none"/>

  <!-- Internal bore circle (visible at front face): 12.6mm dia = r=31.5px -->
  <circle cx="200" cy="310" r="31.5" class="thin"/>

  <!-- Thread root circle (hidden — behind smooth bore, inside body): 15.6mm dia = r=39px -->
  <circle cx="200" cy="310" r="39" class="hidden"/>

  <!-- Centerlines -->
  <line x1="200" y1="175" x2="200" y2="445" class="center"/>
  <line x1="65" y1="310" x2="335" y2="310" class="center"/>

  <!-- Section cut line A-A -->
  <line x1="60" y1="310" x2="80" y2="310" stroke="#000" stroke-width="1.2"/>
  <line x1="320" y1="310" x2="340" y2="310" stroke="#000" stroke-width="1.2"/>
  <text x="55" y="314" font-size="12" fill="#000" font-weight="bold" text-anchor="end">A</text>
  <text x="345" y="314" font-size="12" fill="#000" font-weight="bold" text-anchor="start">A</text>

  <!-- FRONT VIEW DIMENSIONS -->

  <!-- Body diameter: 40mm — vertical dim on left side -->
  <line x1="68" y1="210" x2="78" y2="210" class="ext"/>
  <line x1="68" y1="410" x2="78" y2="410" class="ext"/>
  <line x1="73" y1="210" x2="73" y2="300" class="dim" marker-start="url(#arrow-start)"/>
  <line x1="73" y1="410" x2="73" y2="320" class="dim" marker-end="url(#arrow-end)"/>
  <text x="45" y="314" class="dim-text" transform="rotate(-90,45,314)">⌀40</text>

  <!-- Total wingspan: 45mm — horizontal dim below -->
  <line x1="87.5" y1="340" x2="87.5" y2="460" class="ext"/>
  <line x1="312.5" y1="340" x2="312.5" y2="460" class="ext"/>
  <line x1="87.5" y1="450" x2="190" y2="450" class="dim" marker-start="url(#arrow-start)"/>
  <line x1="312.5" y1="450" x2="210" y2="450" class="dim" marker-end="url(#arrow-end)"/>
  <text x="200" y="447" class="dim-text">45</text>

  <!-- Bore diameter: 12.6mm — leader from bore circle -->
  <line x1="222" y1="288" x2="270" y2="245" class="dim"/>
  <text x="272" y="243" class="dim-text-left" font-size="9">⌀12.6 bore</text>

  <!-- Thread root diameter: 15.6mm — leader from hidden circle -->
  <line x1="227" y1="283" x2="270" y2="230" class="dim"/>
  <text x="272" y="228" class="dim-text-left" font-size="9">⌀15.6 thread root (hidden)</text>

  <!-- Wing tip radius -->
  <line x1="87.5" y1="310" x2="55" y2="275" class="dim"/>
  <text x="45" y="270" class="dim-text-s" text-anchor="end">R2.5</text>

  <!-- ============================================================ -->
  <!-- SIDE VIEW (looking along -X): Y horizontal, Z vertical       -->
  <!-- Scale: 5 px/mm                                                -->
  <!-- Front face: Sx=530. Rear face: 655                           -->
  <!-- Body center Z: 310 (aligned with front view)                 -->
  <!-- ============================================================ -->

  <text x="592" y="88" class="label">SIDE VIEW</text>
  <text x="592" y="99" class="note-center">(looking along -X, 5 px/mm)</text>

  <!-- Body outline: 25mm wide x 40mm tall = 125px x 200px -->
  <rect x="530" y="210" width="125" height="200" class="outline"/>

  <!-- Wing profiles (extend above and below body rectangle) -->
  <!-- Wings are 10mm deep along Y from front face => 50px from x=530 to 580 -->
  <!-- Wings extend 2.5mm beyond body radius = 12.5px beyond body top/bottom edges -->
  <!-- Top wing: from y=210 upward to y=210-12.5=197.5 -->
  <rect x="530" y="197.5" width="50" height="12.5" class="outline"/>
  <!-- Bottom wing: from y=410 downward to y=410+12.5=422.5 -->
  <rect x="530" y="410" width="50" height="12.5" class="outline"/>

  <!-- Internal bore (hidden lines): 12.6mm dia => +/-31.5px from center -->
  <line x1="530" y1="278.5" x2="655" y2="278.5" class="hidden"/>
  <line x1="530" y1="341.5" x2="655" y2="341.5" class="hidden"/>

  <!-- Thread root lines (hidden): 15.6mm dia => +/-39px from center -->
  <!-- Thread region: from rear face (655) inward 20mm*5=100px to x=555 -->
  <line x1="555" y1="271" x2="655" y2="271" class="hidden"/>
  <line x1="555" y1="349" x2="655" y2="349" class="hidden"/>

  <!-- Centerline -->
  <line x1="515" y1="310" x2="670" y2="310" class="center"/>

  <!-- SIDE VIEW DIMENSIONS -->

  <!-- Knob depth: 25mm — horizontal dim above -->
  <line x1="530" y1="197.5" x2="530" y2="170" class="ext"/>
  <line x1="655" y1="210" x2="655" y2="170" class="ext"/>
  <line x1="530" y1="175" x2="585" y2="175" class="dim" marker-start="url(#arrow-start)"/>
  <line x1="655" y1="175" x2="600" y2="175" class="dim" marker-end="url(#arrow-end)"/>
  <text x="592" y="172" class="dim-text">25</text>

  <!-- Wing Y-depth: 10mm — horizontal dim at bottom -->
  <line x1="530" y1="422.5" x2="530" y2="455" class="ext"/>
  <line x1="580" y1="422.5" x2="580" y2="455" class="ext"/>
  <line x1="530" y1="448" x2="548" y2="448" class="dim" marker-start="url(#arrow-start)"/>
  <line x1="580" y1="448" x2="562" y2="448" class="dim" marker-end="url(#arrow-end)"/>
  <text x="555" y="445" class="dim-text">10</text>

  <!-- Thread engagement: 20mm from rear face -->
  <line x1="555" y1="349" x2="555" y2="380" class="ext"/>
  <line x1="655" y1="349" x2="655" y2="380" class="ext"/>
  <line x1="555" y1="375" x2="598" y2="375" class="dim" marker-start="url(#arrow-start)"/>
  <line x1="655" y1="375" x2="612" y2="375" class="dim" marker-end="url(#arrow-end)"/>
  <text x="605" y="372" class="dim-text">20</text>
  <text x="605" y="420" class="note-center">thread engagement</text>

  <!-- Smooth bore: 5mm from front face -->
  <line x1="530" y1="355" x2="530" y2="400" class="ext"/>
  <line x1="555" y1="380" x2="555" y2="400" class="ext"/>
  <line x1="530" y1="396" x2="537" y2="396" class="dim" marker-start="url(#arrow-start)"/>
  <line x1="555" y1="396" x2="548" y2="396" class="dim" marker-end="url(#arrow-end)"/>
  <text x="543" y="410" class="dim-text-s">5</text>

  <!-- ============================================================ -->
  <!-- SECTION A-A (cut through Y-Z centerline)                     -->
  <!-- Scale: 6 px/mm                                                -->
  <!-- Front face: Sx2=120. Rear face: 270                          -->
  <!-- Center Z: 640                                                 -->
  <!-- ============================================================ -->

  <text x="195" y="498" class="label">SECTION A-A</text>
  <text x="195" y="509" class="note-center">(6 px/mm)</text>

  <!-- Section view frame -->
  <rect x="70" y="515" width="250" height="250" class="detail-frame"/>

  <!-- Section fill: material cross-section (body minus bore) -->
  <!-- Top material block (body top to bore top) -->
  <rect x="120" y="520" width="150" height="82.2" class="section-fill"/>
  <!-- Bottom material block (bore bottom to body bottom) -->
  <rect x="120" y="677.8" width="150" height="82.2" class="section-fill"/>
  <!-- Left side wall smooth bore region (between bore and thread root heights) -->
  <rect x="120" y="602.2" width="30" height="75.6" class="section-fill"/>
  <!-- Thread region walls — top strip between thread root and bore -->
  <rect x="150" y="593.2" width="120" height="9" class="section-fill"/>
  <!-- Thread region walls — bottom strip -->
  <rect x="150" y="677.8" width="120" height="9" class="section-fill"/>

  <!-- Hatch lines (diagonal lines at 45 degrees for section fill) -->
  <g class="section-hatch">
    <!-- Top material block -->
    <line x1="120" y1="535" x2="135" y2="520"/>
    <line x1="120" y1="550" x2="150" y2="520"/>
    <line x1="120" y1="565" x2="165" y2="520"/>
    <line x1="120" y1="580" x2="180" y2="520"/>
    <line x1="120" y1="595" x2="195" y2="520"/>
    <line x1="125" y1="602" x2="210" y2="520"/>
    <line x1="140" y1="602" x2="225" y2="520"/>
    <line x1="155" y1="602" x2="240" y2="520"/>
    <line x1="170" y1="602" x2="255" y2="520"/>
    <line x1="185" y1="602" x2="270" y2="520"/>
    <line x1="200" y1="602" x2="270" y2="535"/>
    <line x1="215" y1="602" x2="270" y2="550"/>
    <line x1="230" y1="602" x2="270" y2="565"/>
    <line x1="245" y1="602" x2="270" y2="580"/>
    <line x1="260" y1="602" x2="270" y2="595"/>
    <!-- Bottom material block -->
    <line x1="120" y1="693" x2="135" y2="678"/>
    <line x1="120" y1="708" x2="150" y2="678"/>
    <line x1="120" y1="723" x2="165" y2="678"/>
    <line x1="120" y1="738" x2="180" y2="678"/>
    <line x1="120" y1="753" x2="195" y2="678"/>
    <line x1="130" y1="760" x2="210" y2="678"/>
    <line x1="145" y1="760" x2="225" y2="678"/>
    <line x1="160" y1="760" x2="240" y2="678"/>
    <line x1="175" y1="760" x2="255" y2="678"/>
    <line x1="190" y1="760" x2="270" y2="678"/>
    <line x1="205" y1="760" x2="270" y2="693"/>
    <line x1="220" y1="760" x2="270" y2="708"/>
    <line x1="235" y1="760" x2="270" y2="723"/>
    <line x1="250" y1="760" x2="270" y2="738"/>
    <line x1="265" y1="760" x2="270" y2="753"/>
  </g>

  <!-- Section outline: outer body profile -->
  <line x1="120" y1="520" x2="270" y2="520" class="section-outline"/>
  <line x1="270" y1="520" x2="270" y2="760" class="section-outline"/>
  <line x1="270" y1="760" x2="120" y2="760" class="section-outline"/>
  <line x1="120" y1="760" x2="120" y2="520" class="section-outline"/>

  <!-- Internal bore profile — smooth bore section (front face to thread start) -->
  <!-- Bore at minor dia 12.6mm: top wall at y=602.2, bottom at y=677.8 -->
  <line x1="126" y1="602.2" x2="150" y2="602.2" class="section-outline"/>
  <line x1="126" y1="677.8" x2="150" y2="677.8" class="section-outline"/>

  <!-- Thread region bore walls (minor dia 12.6mm): from x=150 to x=270 -->
  <line x1="150" y1="602.2" x2="270" y2="602.2" class="section-outline"/>
  <line x1="150" y1="677.8" x2="270" y2="677.8" class="section-outline"/>

  <!-- Thread root walls (major dia 15.6mm): from thread start to rear face -->
  <line x1="150" y1="593.2" x2="270" y2="593.2" class="thin"/>
  <line x1="150" y1="686.8" x2="270" y2="686.8" class="thin"/>

  <!-- Thread profile zigzag (simplified representation of trapezoidal threads) -->
  <!-- Top thread profile -->
  <polyline points="150,602.2 156,593.2 162,602.2 168,593.2 174,602.2 180,593.2 186,602.2 192,593.2 198,602.2 204,593.2 210,602.2 216,593.2 222,602.2 228,593.2 234,602.2 240,593.2 246,602.2 252,593.2 258,602.2 264,593.2 270,602.2" class="thin" fill="none"/>
  <!-- Bottom thread profile -->
  <polyline points="150,677.8 156,686.8 162,677.8 168,686.8 174,677.8 180,686.8 186,677.8 192,686.8 198,677.8 204,686.8 210,677.8 216,686.8 222,677.8 228,686.8 234,677.8 240,686.8 246,677.8 252,686.8 258,677.8 264,686.8 270,677.8" class="thin" fill="none"/>

  <!-- Step line at smooth-to-thread transition -->
  <line x1="150" y1="593.2" x2="150" y2="602.2" class="section-outline"/>
  <line x1="150" y1="677.8" x2="150" y2="686.8" class="section-outline"/>

  <!-- Entry chamfer at front face (1mm x 45 deg) -->
  <!-- At front face (x=120), chamfered opening is 12.6+2=14.6mm dia => 7.3mm radius => 43.8px -->
  <!-- Chamfer top: from (120, 640-43.8)=(120,596.2) to (126, 602.2) -->
  <!-- Chamfer bottom: from (120, 640+43.8)=(120,683.8) to (126, 677.8) -->
  <line x1="120" y1="596.2" x2="126" y2="602.2" class="section-outline"/>
  <line x1="120" y1="683.8" x2="126" y2="677.8" class="section-outline"/>

  <!-- Centerline through section -->
  <line x1="105" y1="640" x2="285" y2="640" class="center"/>

  <!-- SECTION A-A DIMENSIONS -->

  <!-- Knob depth: 25mm — horizontal dim above section -->
  <line x1="120" y1="520" x2="120" y2="483" class="ext"/>
  <line x1="270" y1="520" x2="270" y2="483" class="ext"/>
  <line x1="120" y1="488" x2="188" y2="488" class="dim" marker-start="url(#arrow-start)"/>
  <line x1="270" y1="488" x2="202" y2="488" class="dim" marker-end="url(#arrow-end)"/>
  <text x="195" y="485" class="dim-text">25</text>

  <!-- Thread engagement: 20mm -->
  <line x1="150" y1="686.8" x2="150" y2="720" class="ext"/>
  <line x1="270" y1="686.8" x2="270" y2="720" class="ext"/>
  <line x1="150" y1="715" x2="203" y2="715" class="dim" marker-start="url(#arrow-start)"/>
  <line x1="270" y1="715" x2="217" y2="715" class="dim" marker-end="url(#arrow-end)"/>
  <text x="210" y="712" class="dim-text">20</text>

  <!-- Smooth bore depth: 5mm -->
  <line x1="120" y1="700" x2="120" y2="720" class="ext"/>
  <line x1="120" y1="715" x2="131" y2="715" class="dim" marker-start="url(#arrow-start)"/>
  <line x1="150" y1="715" x2="139" y2="715" class="dim" marker-end="url(#arrow-end)"/>
  <text x="135" y="730" class="dim-text-s">5</text>

  <!-- Bore diameter: 12.6mm — vertical dim on left -->
  <line x1="126" y1="602.2" x2="96" y2="602.2" class="ext"/>
  <line x1="126" y1="677.8" x2="96" y2="677.8" class="ext"/>
  <line x1="100" y1="602.2" x2="100" y2="633" class="dim" marker-start="url(#arrow-start)"/>
  <line x1="100" y1="677.8" x2="100" y2="647" class="dim" marker-end="url(#arrow-end)"/>
  <text x="88" y="644" class="dim-text-s" transform="rotate(-90,88,644)">⌀12.6</text>

  <!-- Thread root diameter: 15.6mm — leader from top thread root -->
  <line x1="260" y1="593.2" x2="295" y2="570" class="dim"/>
  <text x="297" y="568" class="dim-text-left" font-size="9">⌀15.6</text>

  <!-- Entry chamfer callout -->
  <line x1="123" y1="596.2" x2="90" y2="570" class="dim"/>
  <text x="88" y="567" class="dim-text-s" text-anchor="end">1x45°</text>

  <!-- Thread spec note below section -->
  <text x="195" y="775" class="note-center">Tr12x3 2-start</text>

  <!-- ============================================================ -->
  <!-- NOTES                                                         -->
  <!-- ============================================================ -->

  <text x="490" y="530" class="note" font-weight="bold">Notes:</text>
  <text x="490" y="545" class="note">1. Material: PETG, 4+ walls, 30%+ infill</text>
  <text x="490" y="560" class="note">2. Thread: Tr12x3 2-start trapezoidal (internal female)</text>
  <text x="490" y="575" class="note">    Lead: 6.0mm, 180° rotation = 3.0mm travel</text>
  <text x="490" y="590" class="note">3. Thread clearance: 0.3mm radial (0.6mm diametral)</text>
  <text x="490" y="605" class="note">4. Print upright, threaded end up, 0.12-0.16mm layers</text>
  <text x="490" y="620" class="note">5. Flat rear annular face bears against shell front wall</text>
  <text x="490" y="635" class="note">    Annular contact: 40mm OD x 12.5mm ID</text>
  <text x="490" y="650" class="note">6. Knurled exterior: diamond pattern, ~1mm depth, ~2mm pitch</text>
  <text x="490" y="665" class="note">7. Wing tip profile: half-stadium (R2.5 at tip)</text>

</svg>
