<svg xmlns="http://www.w3.org/2000/svg" viewBox="0 0 1700 1050" width="1700" height="1050" font-family="Arial, Helvetica, sans-serif">
  <title>Valve Rack — 5x2 Solenoid Valve Array</title>
  <desc>
    Three-view orthographic projection of the 10-valve rack (5x2 grid).
    Scale: 3.5 px/mm. Beduan 2-Way NC solenoid valves (B07NWCQJK9).
    All caliper-verified dimensions in mm.
  </desc>

  <defs>
    <!-- Arrowhead markers for dimension lines -->
    <marker id="arrow" markerWidth="8" markerHeight="6" refX="8" refY="3" orient="auto">
      <path d="M0,0 L8,3 L0,6 Z" fill="#333"/>
    </marker>
    <marker id="arrow-rev" markerWidth="8" markerHeight="6" refX="0" refY="3" orient="auto">
      <path d="M8,0 L0,3 L8,6 Z" fill="#333"/>
    </marker>

    <style>
      .dim-line { stroke: #333; stroke-width: 0.7; fill: none; marker-start: url(#arrow-rev); marker-end: url(#arrow); }
      .dim-ext { stroke: #333; stroke-width: 0.5; fill: none; }
      .dim-text { font-size: 11px; fill: #333; text-anchor: middle; }
      .dim-text-sm { font-size: 9.5px; fill: #333; text-anchor: middle; }
      .label { font-size: 14px; font-weight: bold; fill: #222; }
      .note { font-size: 10px; fill: #444; }
      .title-text { font-size: 18px; font-weight: bold; fill: #111; }
      .subtitle { font-size: 12px; fill: #444; }
      .hidden { stroke: #555; stroke-width: 0.8; stroke-dasharray: 6,3; fill: none; }
      .visible { stroke: #222; stroke-width: 1.2; fill: none; }
      .centerline { stroke: #888; stroke-width: 0.5; stroke-dasharray: 16,3,3,3; fill: none; }
      .rack-env { stroke: #666; stroke-width: 1; stroke-dasharray: 8,4; fill: none; }
      .white-body { fill: #e0e0e0; stroke: #222; stroke-width: 1; }
      .metal-body { fill: #999; stroke: #222; stroke-width: 1; }
      .spade { fill: #666; stroke: #222; stroke-width: 0.8; }
    </style>
  </defs>

  <!-- ============================================================ -->
  <!-- TITLE BLOCK                                                   -->
  <!-- ============================================================ -->
  <rect x="1300" y="940" width="380" height="95" fill="#f8f8f8" stroke="#222" stroke-width="1.2"/>
  <text x="1490" y="963" class="title-text" text-anchor="middle">Valve Rack Assembly</text>
  <text x="1490" y="980" class="subtitle" text-anchor="middle">5-Wide x 2-High Solenoid Valve Array</text>
  <text x="1310" y="1000" class="note">Scale: 3.5 px/mm | Beduan 2-Way NC (B07NWCQJK9)</text>
  <text x="1310" y="1015" class="note">All dimensions in mm | Caliper-verified where noted</text>
  <text x="1310" y="1030" class="note">Rack envelope: 181W x 55D x 116H mm</text>

  <!-- ============================================================ -->
  <!-- FRONT VIEW (looking along -Y): X horizontal, Z vertical      -->
  <!-- Rack envelope: 181mm W x 116mm H = 633.5px x 406px           -->
  <!-- Rack top-left corner at SVG (60, 84)                          -->
  <!-- Rack bottom-left corner at SVG (60, 490)                      -->
  <!--                                                               -->
  <!-- Row 1 (bottom): valve bottoms at rack Z=0 (SVG y=490)        -->
  <!--   valve tops at rack Z=56mm (SVG y=490-196=294)               -->
  <!-- Row 2 (top): valve bottoms at rack Z=60mm (SVG y=490-210=280) -->
  <!--   valve tops at rack Z=116mm (SVG y=490-406=84)               -->
  <!--                                                               -->
  <!-- Per valve (front view):                                       -->
  <!--   White body: 32.71W x 19.37H = 114.5px x 67.8px (bottom)    -->
  <!--   Metal body: 31.41W x 24H = 109.9px x 84px (middle)         -->
  <!--   Spade connectors: ~3mm x 12.63H = 10.5px x 44.2px (top)    -->
  <!--                                                               -->
  <!-- Valve pitch: 37mm = 129.5px center-to-center                  -->
  <!-- 5 valves: centers at rack-X = 16.355, 53.355, 90.355,        -->
  <!--   127.355, 164.355 mm                                         -->
  <!-- SVG x positions: 60+0=60, 60+129.5=189.5, etc.               -->
  <!-- ============================================================ -->
  <text x="375" y="55" class="label" text-anchor="middle">FRONT VIEW (looking along -Y)</text>
  <text x="375" y="72" class="note" text-anchor="middle">X horizontal, Z vertical</text>

  <!-- Rack envelope (dashed) -->
  <rect x="60" y="84" width="633.5" height="406" class="rack-env"/>

  <!-- ROW 1 (bottom): 5 valves, bottom at SVG y=490 -->
  <g id="valve-r1-v1">
    <rect x="60" y="422.2" width="114.5" height="67.8" class="white-body"/>
    <rect x="62.3" y="338.2" width="109.9" height="84" class="metal-body"/>
    <rect x="92.3" y="294" width="10.5" height="44.2" class="spade"/>
    <rect x="131.7" y="294" width="10.5" height="44.2" class="spade"/>
  </g>
  <g id="valve-r1-v2" transform="translate(129.5, 0)">
    <rect x="60" y="422.2" width="114.5" height="67.8" class="white-body"/>
    <rect x="62.3" y="338.2" width="109.9" height="84" class="metal-body"/>
    <rect x="92.3" y="294" width="10.5" height="44.2" class="spade"/>
    <rect x="131.7" y="294" width="10.5" height="44.2" class="spade"/>
  </g>
  <g id="valve-r1-v3" transform="translate(259, 0)">
    <rect x="60" y="422.2" width="114.5" height="67.8" class="white-body"/>
    <rect x="62.3" y="338.2" width="109.9" height="84" class="metal-body"/>
    <rect x="92.3" y="294" width="10.5" height="44.2" class="spade"/>
    <rect x="131.7" y="294" width="10.5" height="44.2" class="spade"/>
  </g>
  <g id="valve-r1-v4" transform="translate(388.5, 0)">
    <rect x="60" y="422.2" width="114.5" height="67.8" class="white-body"/>
    <rect x="62.3" y="338.2" width="109.9" height="84" class="metal-body"/>
    <rect x="92.3" y="294" width="10.5" height="44.2" class="spade"/>
    <rect x="131.7" y="294" width="10.5" height="44.2" class="spade"/>
  </g>
  <g id="valve-r1-v5" transform="translate(518, 0)">
    <rect x="60" y="422.2" width="114.5" height="67.8" class="white-body"/>
    <rect x="62.3" y="338.2" width="109.9" height="84" class="metal-body"/>
    <rect x="92.3" y="294" width="10.5" height="44.2" class="spade"/>
    <rect x="131.7" y="294" width="10.5" height="44.2" class="spade"/>
  </g>

  <!-- ROW 2 (top): shifted up by (56+4)*3.5 = 210px -->
  <g id="valve-r2-v1" transform="translate(0, -210)">
    <rect x="60" y="422.2" width="114.5" height="67.8" class="white-body"/>
    <rect x="62.3" y="338.2" width="109.9" height="84" class="metal-body"/>
    <rect x="92.3" y="294" width="10.5" height="44.2" class="spade"/>
    <rect x="131.7" y="294" width="10.5" height="44.2" class="spade"/>
  </g>
  <g id="valve-r2-v2" transform="translate(129.5, -210)">
    <rect x="60" y="422.2" width="114.5" height="67.8" class="white-body"/>
    <rect x="62.3" y="338.2" width="109.9" height="84" class="metal-body"/>
    <rect x="92.3" y="294" width="10.5" height="44.2" class="spade"/>
    <rect x="131.7" y="294" width="10.5" height="44.2" class="spade"/>
  </g>
  <g id="valve-r2-v3" transform="translate(259, -210)">
    <rect x="60" y="422.2" width="114.5" height="67.8" class="white-body"/>
    <rect x="62.3" y="338.2" width="109.9" height="84" class="metal-body"/>
    <rect x="92.3" y="294" width="10.5" height="44.2" class="spade"/>
    <rect x="131.7" y="294" width="10.5" height="44.2" class="spade"/>
  </g>
  <g id="valve-r2-v4" transform="translate(388.5, -210)">
    <rect x="60" y="422.2" width="114.5" height="67.8" class="white-body"/>
    <rect x="62.3" y="338.2" width="109.9" height="84" class="metal-body"/>
    <rect x="92.3" y="294" width="10.5" height="44.2" class="spade"/>
    <rect x="131.7" y="294" width="10.5" height="44.2" class="spade"/>
  </g>
  <g id="valve-r2-v5" transform="translate(518, -210)">
    <rect x="60" y="422.2" width="114.5" height="67.8" class="white-body"/>
    <rect x="62.3" y="338.2" width="109.9" height="84" class="metal-body"/>
    <rect x="92.3" y="294" width="10.5" height="44.2" class="spade"/>
    <rect x="131.7" y="294" width="10.5" height="44.2" class="spade"/>
  </g>

  <!-- Centerlines through valve centers (front view) -->
  <line x1="117.25" y1="78" x2="117.25" y2="496" class="centerline"/>
  <line x1="246.75" y1="78" x2="246.75" y2="496" class="centerline"/>
  <line x1="376.25" y1="78" x2="376.25" y2="496" class="centerline"/>
  <line x1="505.75" y1="78" x2="505.75" y2="496" class="centerline"/>
  <line x1="635.25" y1="78" x2="635.25" y2="496" class="centerline"/>

  <!-- FRONT VIEW DIMENSIONS -->
  <!-- Rack overall width: 181mm -->
  <line x1="60" y1="506" x2="60" y2="522" class="dim-ext"/>
  <line x1="693.5" y1="506" x2="693.5" y2="522" class="dim-ext"/>
  <line x1="60" y1="518" x2="693.5" y2="518" class="dim-line"/>
  <text x="376.75" y="533" class="dim-text">181</text>

  <!-- Rack overall height: 116mm (right side) -->
  <line x1="706" y1="490" x2="722" y2="490" class="dim-ext"/>
  <line x1="706" y1="84" x2="722" y2="84" class="dim-ext"/>
  <line x1="718" y1="490" x2="718" y2="84" class="dim-line"/>
  <text x="732" y="291" class="dim-text" text-anchor="start">116</text>

  <!-- Single valve total height: 56mm (far right, row 1) -->
  <line x1="748" y1="490" x2="764" y2="490" class="dim-ext"/>
  <line x1="748" y1="294" x2="764" y2="294" class="dim-ext"/>
  <line x1="760" y1="490" x2="760" y2="294" class="dim-line"/>
  <text x="774" y="396" class="dim-text" text-anchor="start">56.00</text>

  <!-- White body height: ~19.37mm -->
  <line x1="790" y1="490" x2="806" y2="490" class="dim-ext"/>
  <line x1="790" y1="422.2" x2="806" y2="422.2" class="dim-ext"/>
  <line x1="802" y1="490" x2="802" y2="422.2" class="dim-line"/>
  <text x="816" y="460" class="dim-text-sm" text-anchor="start">~19.4</text>

  <!-- Metal+spade height: 36.63mm -->
  <line x1="790" y1="422.2" x2="806" y2="422.2" class="dim-ext"/>
  <line x1="790" y1="294" x2="806" y2="294" class="dim-ext"/>
  <line x1="802" y1="422.2" x2="802" y2="294" class="dim-line"/>
  <text x="816" y="362" class="dim-text-sm" text-anchor="start">36.63</text>

  <!-- Inter-row gap: 4mm -->
  <line x1="748" y1="294" x2="764" y2="294" class="dim-ext"/>
  <line x1="748" y1="280" x2="764" y2="280" class="dim-ext"/>
  <line x1="760" y1="294" x2="760" y2="280" class="dim-line"/>
  <text x="774" y="291" class="dim-text-sm" text-anchor="start">4</text>

  <!-- Valve pitch: 37mm c-c -->
  <line x1="117.25" y1="548" x2="117.25" y2="562" class="dim-ext"/>
  <line x1="246.75" y1="548" x2="246.75" y2="562" class="dim-ext"/>
  <line x1="117.25" y1="558" x2="246.75" y2="558" class="dim-line"/>
  <text x="182" y="573" class="dim-text">37 c-c</text>

  <!-- Single valve width: 32.71mm -->
  <line x1="60" y1="582" x2="60" y2="596" class="dim-ext"/>
  <line x1="174.5" y1="582" x2="174.5" y2="596" class="dim-ext"/>
  <line x1="60" y1="592" x2="174.5" y2="592" class="dim-line"/>
  <text x="117.25" y="609" class="dim-text-sm">32.71</text>

  <!-- Metal body width: 31.41mm -->
  <line x1="62.3" y1="618" x2="62.3" y2="632" class="dim-ext"/>
  <line x1="172.2" y1="618" x2="172.2" y2="632" class="dim-ext"/>
  <line x1="62.3" y1="628" x2="172.2" y2="628" class="dim-line"/>
  <text x="117.25" y="645" class="dim-text-sm">31.41</text>

  <!-- ============================================================ -->
  <!-- SIDE VIEW (looking along -X): Y horizontal, Z vertical       -->
  <!-- Shares Z pixel range with front view (84..490)               -->
  <!-- Rack: 55mm D x 116mm H = 192.5px x 406px                    -->
  <!-- Side view origin at SVG (900, 490) bottom-left               -->
  <!-- ============================================================ -->
  <text x="996" y="55" class="label" text-anchor="middle">SIDE VIEW (looking along -X)</text>
  <text x="996" y="72" class="note" text-anchor="middle">Y horizontal, Z vertical</text>

  <!-- Rack envelope (dashed) -->
  <rect x="900" y="84" width="192.5" height="406" class="rack-env"/>

  <!-- Side view shows T-shaped profile of one valve column -->
  <!-- White body: 50.84mm depth x 19.37mm H = 177.9px x 67.8px -->
  <!-- Center in rack depth: (192.5-177.9)/2 = 7.3px offset -->

  <!-- Row 1 (bottom) side profile -->
  <rect x="907.3" y="422.2" width="177.9" height="67.8" class="white-body"/>
  <!-- Metal body: ~25mm depth = 87.5px, centered -->
  <rect x="952.5" y="338.2" width="87.5" height="84" class="metal-body"/>
  <!-- Spade connectors extending along Y (toward back) -->
  <rect x="1010" y="294" width="10.5" height="44.2" class="spade"/>
  <rect x="1025" y="294" width="10.5" height="44.2" class="spade"/>
  <!-- Tube port stubs (dashed circles at Y ends) -->
  <circle cx="907.3" cy="456.1" r="10.5" class="hidden"/>
  <circle cx="1085.2" cy="456.1" r="10.5" class="hidden"/>

  <!-- Row 2 (top) side profile -->
  <rect x="907.3" y="212.2" width="177.9" height="67.8" class="white-body"/>
  <rect x="952.5" y="128.2" width="87.5" height="84" class="metal-body"/>
  <rect x="1010" y="84" width="10.5" height="44.2" class="spade"/>
  <rect x="1025" y="84" width="10.5" height="44.2" class="spade"/>
  <circle cx="907.3" cy="246.1" r="10.5" class="hidden"/>
  <circle cx="1085.2" cy="246.1" r="10.5" class="hidden"/>

  <!-- SIDE VIEW DIMENSIONS -->
  <!-- Valve depth: 50.84mm -->
  <line x1="907.3" y1="506" x2="907.3" y2="522" class="dim-ext"/>
  <line x1="1085.2" y1="506" x2="1085.2" y2="522" class="dim-ext"/>
  <line x1="907.3" y1="518" x2="1085.2" y2="518" class="dim-line"/>
  <text x="996.25" y="533" class="dim-text">50.84</text>

  <!-- Rack depth: 55mm -->
  <line x1="900" y1="548" x2="900" y2="562" class="dim-ext"/>
  <line x1="1092.5" y1="548" x2="1092.5" y2="562" class="dim-ext"/>
  <line x1="900" y1="558" x2="1092.5" y2="558" class="dim-line"/>
  <text x="996.25" y="573" class="dim-text">55 (rack)</text>

  <!-- ============================================================ -->
  <!-- TOP VIEW (looking along -Z): X horizontal, Y vertical        -->
  <!-- Shares X pixel range with front view (60..693.5)             -->
  <!-- Rack: 181mm W x 55mm D = 633.5px x 192.5px                   -->
  <!-- Top view origin at SVG (60, 730) top-left                     -->
  <!-- Both rows stacked in Z share same XY footprint; from top     -->
  <!-- we see only the top row (row 2); row 1 is hidden below       -->
  <!-- ============================================================ -->
  <text x="375" y="700" class="label" text-anchor="middle">TOP VIEW (looking along -Z)</text>
  <text x="375" y="717" class="note" text-anchor="middle">X horizontal, Y vertical</text>

  <!-- Rack envelope (dashed) -->
  <rect x="60" y="730" width="633.5" height="192.5" class="rack-env"/>

  <!-- Center valves in rack depth: (192.5-177.9)/2 = 7.3px offset from rack top edge -->
  <!-- Each valve top view: white body rect 114.5W x 177.9D, metal rect centered -->

  <!-- Valve 1 (top row visible, bottom row hidden) -->
  <rect x="60" y="737.3" width="114.5" height="177.9" class="white-body"/>
  <rect x="62.3" y="782.5" width="109.9" height="87.5" class="metal-body"/>
  <circle cx="117.25" cy="826.25" r="18" fill="none" stroke="#222" stroke-width="0.8"/>
  <rect x="92.3" y="857.7" width="10.5" height="10" class="spade"/>
  <rect x="131.7" y="857.7" width="10.5" height="10" class="spade"/>
  <circle cx="117.25" cy="737.3" r="10.5" class="visible"/>
  <circle cx="117.25" cy="915.2" r="10.5" class="visible"/>

  <!-- Valve 2 -->
  <g transform="translate(129.5, 0)">
    <rect x="60" y="737.3" width="114.5" height="177.9" class="white-body"/>
    <rect x="62.3" y="782.5" width="109.9" height="87.5" class="metal-body"/>
    <circle cx="117.25" cy="826.25" r="18" fill="none" stroke="#222" stroke-width="0.8"/>
    <rect x="92.3" y="857.7" width="10.5" height="10" class="spade"/>
    <rect x="131.7" y="857.7" width="10.5" height="10" class="spade"/>
    <circle cx="117.25" cy="737.3" r="10.5" class="visible"/>
    <circle cx="117.25" cy="915.2" r="10.5" class="visible"/>
  </g>

  <!-- Valve 3 -->
  <g transform="translate(259, 0)">
    <rect x="60" y="737.3" width="114.5" height="177.9" class="white-body"/>
    <rect x="62.3" y="782.5" width="109.9" height="87.5" class="metal-body"/>
    <circle cx="117.25" cy="826.25" r="18" fill="none" stroke="#222" stroke-width="0.8"/>
    <rect x="92.3" y="857.7" width="10.5" height="10" class="spade"/>
    <rect x="131.7" y="857.7" width="10.5" height="10" class="spade"/>
    <circle cx="117.25" cy="737.3" r="10.5" class="visible"/>
    <circle cx="117.25" cy="915.2" r="10.5" class="visible"/>
  </g>

  <!-- Valve 4 -->
  <g transform="translate(388.5, 0)">
    <rect x="60" y="737.3" width="114.5" height="177.9" class="white-body"/>
    <rect x="62.3" y="782.5" width="109.9" height="87.5" class="metal-body"/>
    <circle cx="117.25" cy="826.25" r="18" fill="none" stroke="#222" stroke-width="0.8"/>
    <rect x="92.3" y="857.7" width="10.5" height="10" class="spade"/>
    <rect x="131.7" y="857.7" width="10.5" height="10" class="spade"/>
    <circle cx="117.25" cy="737.3" r="10.5" class="visible"/>
    <circle cx="117.25" cy="915.2" r="10.5" class="visible"/>
  </g>

  <!-- Valve 5 -->
  <g transform="translate(518, 0)">
    <rect x="60" y="737.3" width="114.5" height="177.9" class="white-body"/>
    <rect x="62.3" y="782.5" width="109.9" height="87.5" class="metal-body"/>
    <circle cx="117.25" cy="826.25" r="18" fill="none" stroke="#222" stroke-width="0.8"/>
    <rect x="92.3" y="857.7" width="10.5" height="10" class="spade"/>
    <rect x="131.7" y="857.7" width="10.5" height="10" class="spade"/>
    <circle cx="117.25" cy="737.3" r="10.5" class="visible"/>
    <circle cx="117.25" cy="915.2" r="10.5" class="visible"/>
  </g>

  <!-- Hidden row 1 outlines (dashed, same XY footprint) -->
  <rect x="60" y="737.3" width="114.5" height="177.9" class="hidden"/>
  <g transform="translate(129.5, 0)"><rect x="60" y="737.3" width="114.5" height="177.9" class="hidden"/></g>
  <g transform="translate(259, 0)"><rect x="60" y="737.3" width="114.5" height="177.9" class="hidden"/></g>
  <g transform="translate(388.5, 0)"><rect x="60" y="737.3" width="114.5" height="177.9" class="hidden"/></g>
  <g transform="translate(518, 0)"><rect x="60" y="737.3" width="114.5" height="177.9" class="hidden"/></g>

  <!-- Centerlines in top view -->
  <line x1="117.25" y1="724" x2="117.25" y2="930" class="centerline"/>
  <line x1="246.75" y1="724" x2="246.75" y2="930" class="centerline"/>
  <line x1="376.25" y1="724" x2="376.25" y2="930" class="centerline"/>
  <line x1="505.75" y1="724" x2="505.75" y2="930" class="centerline"/>
  <line x1="635.25" y1="724" x2="635.25" y2="930" class="centerline"/>

  <!-- TOP VIEW DIMENSIONS -->
  <!-- Valve pitch -->
  <line x1="117.25" y1="938" x2="117.25" y2="952" class="dim-ext"/>
  <line x1="246.75" y1="938" x2="246.75" y2="952" class="dim-ext"/>
  <line x1="117.25" y1="948" x2="246.75" y2="948" class="dim-line"/>
  <text x="182" y="965" class="dim-text">37 c-c</text>

  <!-- Rack depth (right side) -->
  <line x1="708" y1="730" x2="722" y2="730" class="dim-ext"/>
  <line x1="708" y1="922.5" x2="722" y2="922.5" class="dim-ext"/>
  <line x1="718" y1="730" x2="718" y2="922.5" class="dim-line"/>
  <text x="732" y="830" class="dim-text" text-anchor="start">55</text>

  <!-- Valve depth (further right) -->
  <line x1="748" y1="737.3" x2="764" y2="737.3" class="dim-ext"/>
  <line x1="748" y1="915.2" x2="764" y2="915.2" class="dim-ext"/>
  <line x1="760" y1="737.3" x2="760" y2="915.2" class="dim-line"/>
  <text x="774" y="830" class="dim-text" text-anchor="start">50.84</text>

  <!-- ============================================================ -->
  <!-- NOTES BLOCK                                                   -->
  <!-- ============================================================ -->
  <rect x="1200" y="84" width="470" height="280" fill="#fafafa" stroke="#999" stroke-width="0.8"/>
  <text x="1210" y="104" class="label">NOTES</text>
  <text x="1210" y="124" class="note">1. 10x Beduan 2-way NC solenoid valves (12V DC)</text>
  <text x="1210" y="140" class="note">2. 5-wide x 2-high grid, 37mm center-to-center pitch</text>
  <text x="1210" y="156" class="note">3. Valve is T-shaped: white body + centered metal coil</text>
  <text x="1210" y="172" class="note">4. No built-in mounting features -- rack cradle required</text>
  <text x="1210" y="188" class="note">5. Spade connectors parallel to tube flow axis (Y)</text>
  <text x="1210" y="204" class="note">6. QC fittings on both Y ends for 1/4" OD tubing</text>
  <text x="1210" y="220" class="note">7. Metal coil ~0.65mm narrower than white body per side</text>
  <text x="1210" y="236" class="note">8. Working pressure: 0.02-0.8 MPa</text>
  <text x="1210" y="252" class="note">9. Rack at Y=140-195 in enclosure (behind dock)</text>
  <text x="1210" y="268" class="note">10. 4mm inter-row gap between bottom and top rows</text>

  <text x="1210" y="296" class="label" font-size="12">KEY DIMENSIONS (caliper-verified)</text>
  <text x="1210" y="314" class="note">Valve body width (X): 32.71mm</text>
  <text x="1210" y="330" class="note">Valve depth (Y, port-to-port): 50.84mm</text>
  <text x="1210" y="346" class="note">Valve total height (Z): 56.00mm</text>
  <text x="1210" y="362" class="note">Metal+spade height: 36.63mm, White body: ~19.4mm</text>

  <!-- ============================================================ -->
  <!-- LEGEND                                                        -->
  <!-- ============================================================ -->
  <rect x="1200" y="390" width="470" height="120" fill="#fafafa" stroke="#999" stroke-width="0.8"/>
  <text x="1210" y="410" class="label">LEGEND</text>
  <rect x="1210" y="420" width="20" height="12" class="white-body"/>
  <text x="1240" y="431" class="note">White plastic valve body (fluid section)</text>
  <rect x="1210" y="440" width="20" height="12" class="metal-body"/>
  <text x="1240" y="451" class="note">Metal solenoid coil housing</text>
  <rect x="1210" y="460" width="20" height="12" class="spade"/>
  <text x="1240" y="471" class="note">Spade connector terminals</text>
  <rect x="1210" y="480" width="20" height="12" fill="none" stroke="#666" stroke-width="1" stroke-dasharray="8,4"/>
  <text x="1240" y="491" class="note">Rack envelope (dashed)</text>

</svg>