<svg xmlns="http://www.w3.org/2000/svg" viewBox="0 0 1600 1350" width="1600" height="1350" font-family="Arial, sans-serif">
  <title>Enclosure Cap — Third-Angle Orthographic Projection</title>
  <desc>Scale: 2 px/mm (main views), 6 px/mm (detail insets). All dimensions in mm.</desc>

  <defs>
    <marker id="arrowR" markerWidth="8" markerHeight="6" refX="8" refY="3" orient="auto">
      <path d="M 0 0 L 8 3 L 0 6" fill="none" stroke="black" stroke-width="0.8"/>
    </marker>
    <marker id="arrowL" markerWidth="8" markerHeight="6" refX="0" refY="3" orient="auto">
      <path d="M 8 0 L 0 3 L 8 6" fill="none" stroke="black" stroke-width="0.8"/>
    </marker>
    <marker id="arrowU" markerWidth="6" markerHeight="8" refX="3" refY="0" orient="auto">
      <path d="M 0 8 L 3 0 L 6 8" fill="none" stroke="black" stroke-width="0.8"/>
    </marker>
    <marker id="arrowD" markerWidth="6" markerHeight="8" refX="3" refY="8" orient="auto">
      <path d="M 0 0 L 3 8 L 6 0" fill="none" stroke="black" stroke-width="0.8"/>
    </marker>
  </defs>

  <rect width="1600" height="1350" fill="white"/>

  <!-- Title block -->
  <text x="800" y="28" text-anchor="middle" font-size="18" font-weight="bold">ENCLOSURE CAP — Engineering Drawing</text>
  <text x="800" y="46" text-anchor="middle" font-size="11">Third-Angle Orthographic Projection | Scale: 2 px/mm (main), 6 px/mm (details) | Dims in mm</text>
  <text x="800" y="60" text-anchor="middle" font-size="10">Material: ASA | Wall: 4.0 mm | Draft: 3 deg inward | Vertical edge R8, Top edge R5</text>

  <!--
    COORDINATE MAPPING (2 px/mm):
    FRONT VIEW: SVG(100, 80). X right, Z up. Z=400->y=80, Z=200->y=480.
    SIDE VIEW:  SVG(680, 80). Y right, Z up. Shares Z axis with front.
    TOP VIEW:   SVG(100, 560). X right, Y down. Shares X axis with front.

    Cap at Z=200: X=0.8..219.2, Y=0.8..299.2 (reveal step).
    Draft 3deg over 200mm = 10.48mm/side.
    Cap at Z=400: X=11.28..208.72, Y=11.28..288.72.
  -->

  <!-- ==================== FRONT VIEW (looking along -Y) ==================== -->
  <text x="320" y="74" text-anchor="middle" font-size="13" font-weight="bold">FRONT VIEW (looking along -Y)</text>

  <g id="front-view">
    <!-- Exterior outline as single continuous path (fixes adjacency: all segments connected) -->
    <!-- Bottom-left (101.6,480) -> top-left with R5 corner -> top edge -> top-right with R5 -> bottom-right -->
    <path d="M 101.6 480 L 122.6 90 Q 122.6 80 132.6 80 L 507.4 80 Q 517.4 80 518.2 90 L 538.4 480 Z"
          fill="none" stroke="black" stroke-width="1.5"/>

    <!-- Interior walls (dashed, hidden) -->
    <line x1="130.6" y1="88" x2="109.6" y2="480" stroke="black" stroke-width="0.6" stroke-dasharray="4,3"/>
    <line x1="509.4" y1="88" x2="530.4" y2="480" stroke="black" stroke-width="0.6" stroke-dasharray="4,3"/>
    <line x1="130.6" y1="88" x2="509.4" y2="88" stroke="black" stroke-width="0.6" stroke-dasharray="4,3"/>

    <!-- Air switch: X=50, Z=225 -> cx=200, cy=430. dia=33 -> r=33px. Pocket dia=39. -->
    <circle cx="200" cy="430" r="33" fill="none" stroke="black" stroke-width="1.2"/>
    <circle cx="200" cy="430" r="39" fill="none" stroke="black" stroke-width="0.6" stroke-dasharray="3,2"/>

    <!-- RP2040: X=110, Z=245 -> cx=320, cy=390. dia=26 -> r=26. Pocket dia=34. -->
    <circle cx="320" cy="390" r="26" fill="none" stroke="black" stroke-width="1.2"/>
    <circle cx="320" cy="390" r="34" fill="none" stroke="black" stroke-width="0.6" stroke-dasharray="3,2"/>

    <!-- S3: X=170, Z=245 -> cx=440, cy=390. dia=43 -> r=43. Pocket dia=46. -->
    <circle cx="440" cy="390" r="43" fill="none" stroke="black" stroke-width="1.2"/>
    <circle cx="440" cy="390" r="46" fill="none" stroke="black" stroke-width="0.6" stroke-dasharray="3,2"/>

    <!-- Snap-fit ledges (dashed, on inner wall) -->
    <!-- X=60 center, 15mm wide: x=205..235 at y=466..470 -->
    <rect x="205" y="466" width="30" height="4" fill="none" stroke="black" stroke-width="0.5" stroke-dasharray="2,2"/>
    <!-- X=160 center: x=405..435 at y=466..470 -->
    <rect x="405" y="466" width="30" height="4" fill="none" stroke="black" stroke-width="0.5" stroke-dasharray="2,2"/>

    <!-- DIMENSIONS -->
    <!-- Width at rim (218.4mm) -->
    <line x1="101.6" y1="498" x2="538.4" y2="498" stroke="black" stroke-width="0.5" marker-start="url(#arrowL)" marker-end="url(#arrowR)"/>
    <line x1="101.6" y1="482" x2="101.6" y2="502" stroke="black" stroke-width="0.3"/>
    <line x1="538.4" y1="482" x2="538.4" y2="502" stroke="black" stroke-width="0.3"/>
    <text x="320" y="495" text-anchor="middle" font-size="9">218.4</text>

    <!-- Height (200mm) -->
    <line x1="556" y1="80" x2="556" y2="480" stroke="black" stroke-width="0.5" marker-start="url(#arrowU)" marker-end="url(#arrowD)"/>
    <line x1="540" y1="80" x2="560" y2="80" stroke="black" stroke-width="0.3"/>
    <line x1="540" y1="480" x2="560" y2="480" stroke="black" stroke-width="0.3"/>
    <text x="570" y="284" font-size="9" transform="rotate(90,570,284)">200</text>

    <!-- Width at top (197.4mm) -->
    <line x1="132.6" y1="92" x2="507.4" y2="92" stroke="black" stroke-width="0.5" marker-start="url(#arrowL)" marker-end="url(#arrowR)"/>
    <text x="320" y="102" text-anchor="middle" font-size="8">197.4 (top)</text>

    <!-- Aperture diameter callouts (repositioned to avoid collisions) -->
    <line x1="223" y1="408" x2="254" y2="398" stroke="black" stroke-width="0.4"/>
    <text x="256" y="400" font-size="8">dia 33</text>

    <line x1="340" y1="370" x2="365" y2="358" stroke="black" stroke-width="0.4"/>
    <text x="367" y="360" font-size="8">dia 26</text>

    <!-- dia 43 moved left to avoid right wall line collision -->
    <line x1="408" y1="352" x2="380" y2="340" stroke="black" stroke-width="0.4"/>
    <text x="354" y="338" font-size="8">dia 43</text>

    <!-- X position dims -->
    <line x1="100" y1="456" x2="200" y2="456" stroke="#555" stroke-width="0.4" marker-start="url(#arrowL)" marker-end="url(#arrowR)"/>
    <text x="150" y="454" text-anchor="middle" font-size="7" fill="#555">50</text>

    <line x1="100" y1="416" x2="320" y2="416" stroke="#555" stroke-width="0.4" marker-start="url(#arrowL)" marker-end="url(#arrowR)"/>
    <text x="210" y="414" text-anchor="middle" font-size="7" fill="#555">110</text>

    <line x1="100" y1="374" x2="440" y2="374" stroke="#555" stroke-width="0.4" marker-start="url(#arrowL)" marker-end="url(#arrowR)"/>
    <text x="270" y="372" text-anchor="middle" font-size="7" fill="#555">170</text>

    <!-- Z position dims from seam -->
    <line x1="82" y1="430" x2="82" y2="480" stroke="#555" stroke-width="0.4" marker-start="url(#arrowU)" marker-end="url(#arrowD)"/>
    <line x1="78" y1="430" x2="86" y2="430" stroke="#555" stroke-width="0.3"/>
    <text x="76" y="458" font-size="7" fill="#555" text-anchor="end">25</text>

    <line x1="90" y1="390" x2="90" y2="480" stroke="#555" stroke-width="0.4" marker-start="url(#arrowU)" marker-end="url(#arrowD)"/>
    <line x1="86" y1="390" x2="94" y2="390" stroke="#555" stroke-width="0.3"/>
    <text x="84" y="438" font-size="7" fill="#555" text-anchor="end">45</text>

    <!-- Corner radius annotations (moved away from wall lines) -->
    <text x="140" y="100" font-size="7" fill="#555">R5</text>
    <text x="100" y="180" font-size="7" fill="#555">R8</text>
  </g>

  <!-- ==================== SIDE VIEW (looking along -X) ==================== -->
  <text x="980" y="74" text-anchor="middle" font-size="13" font-weight="bold">SIDE VIEW (looking along -X)</text>

  <g id="side-view">
    <!-- Exterior outline as continuous path with funnel gap in top edge -->
    <!-- Draw everything except the funnel gap region of top edge as one path -->
    <!-- Then draw funnel lip structures connected to the main wall geometry -->

    <!-- Main exterior: bottom-left up front wall, across top to funnel gap left edge -->
    <!-- funnel gap, then from funnel gap right edge across to rear top, down rear wall to bottom-right, bottom -->
    <!-- At Z=400 (y=80): Y=0.8+10.48=11.28 -> x=702.6. Funnel Y=20 -> x=720. Funnel Y=90 -> x=860. -->
    <!-- Y=288.72 -> x=1257.4. At Z=200 (y=480): Y=0.8->x=681.6, Y=299.2->x=1278.4 -->

    <!-- Left section: bottom rim to top, along top to funnel left edge -->
    <path d="M 681.6 480 L 702.6 90 Q 702.6 80 712.6 80 L 714 80"
          fill="none" stroke="black" stroke-width="1.5"/>
    <!-- Funnel left lip (connects to the path above at x=714, y=80) -->
    <path d="M 714 80 L 714 76 L 720 76 L 720 80" fill="none" stroke="black" stroke-width="0.8"/>
    <!-- Funnel opening floor at Z=396 -> y=88 -->
    <line x1="720" y1="88" x2="860" y2="88" stroke="black" stroke-width="0.6"/>
    <!-- Funnel right lip (connects to main path at x=866, y=80) -->
    <path d="M 860 80 L 860 76 L 866 76 L 866 80" fill="none" stroke="black" stroke-width="0.8"/>
    <!-- Right section: from funnel right edge along top to rear corner and down -->
    <path d="M 866 80 L 1247.4 80 Q 1257.4 80 1258.2 90 L 1278.4 480"
          fill="none" stroke="black" stroke-width="1.5"/>
    <!-- Bottom rim -->
    <line x1="681.6" y1="480" x2="1278.4" y2="480" stroke="black" stroke-width="1.5"/>

    <!-- Interior walls (dashed) -->
    <line x1="710.6" y1="88" x2="689.6" y2="480" stroke="black" stroke-width="0.6" stroke-dasharray="4,3"/>
    <line x1="1249.4" y1="88" x2="1270.4" y2="480" stroke="black" stroke-width="0.6" stroke-dasharray="4,3"/>
    <line x1="710.6" y1="88" x2="1249.4" y2="88" stroke="black" stroke-width="0.6" stroke-dasharray="4,3"/>

    <!-- Bag cradle centerlines (35 deg tilt, center-line dash pattern) -->
    <!-- Lower bag: outlet Y=280, Z=210 -> (1240, 460) to front Y=10, Z=399 -> (700, 82) -->
    <line x1="700" y1="82" x2="1240" y2="460" stroke="black" stroke-width="0.5" stroke-dasharray="8,3,2,3"/>
    <!-- Upper bag: roughly from (700, 88) to (1240, 390) -->
    <line x1="700" y1="88" x2="1240" y2="390" stroke="black" stroke-width="0.5" stroke-dasharray="8,3,2,3"/>

    <!-- Electronics shelf at Z=380 (y=120), Y=220..292 -> x=1120..1264, hidden -->
    <line x1="1120" y1="120" x2="1264" y2="120" stroke="black" stroke-width="0.7" stroke-dasharray="4,3"/>
    <line x1="1120" y1="126" x2="1264" y2="126" stroke="black" stroke-width="0.5" stroke-dasharray="3,2"/>
    <line x1="1120" y1="120" x2="1120" y2="126" stroke="black" stroke-width="0.5" stroke-dasharray="3,2"/>

    <!-- Display aperture marks on front face (thin marks at front wall) -->
    <line x1="681.6" y1="388" x2="686.6" y2="388" stroke="black" stroke-width="0.6" stroke-dasharray="2,1"/>
    <line x1="681.6" y1="392" x2="686.6" y2="392" stroke="black" stroke-width="0.6" stroke-dasharray="2,1"/>

    <!-- Snap-fit ledges on left wall (visible, protrude in X, shown as dashed) -->
    <!-- Y=100 -> x=880, Y=200 -> x=1080. At y=466..470 -->
    <rect x="865" y="466" width="30" height="4" fill="none" stroke="black" stroke-width="0.5" stroke-dasharray="2,2"/>
    <rect x="1065" y="466" width="30" height="4" fill="none" stroke="black" stroke-width="0.5" stroke-dasharray="2,2"/>

    <!-- Tube pass-through at bottom rim (Y=280, dia=8mm=16px) -->
    <circle cx="1240" cy="480" r="8" fill="none" stroke="black" stroke-width="0.5" stroke-dasharray="2,2"/>

    <!-- DIMENSIONS -->
    <!-- Depth at rim (298.4mm) -->
    <line x1="681.6" y1="498" x2="1278.4" y2="498" stroke="black" stroke-width="0.5" marker-start="url(#arrowL)" marker-end="url(#arrowR)"/>
    <line x1="681.6" y1="482" x2="681.6" y2="502" stroke="black" stroke-width="0.3"/>
    <line x1="1278.4" y1="482" x2="1278.4" y2="502" stroke="black" stroke-width="0.3"/>
    <text x="980" y="495" text-anchor="middle" font-size="9">298.4</text>

    <!-- Depth at top (277.4mm) -->
    <line x1="702.6" y1="92" x2="1257.4" y2="92" stroke="black" stroke-width="0.5" marker-start="url(#arrowL)" marker-end="url(#arrowR)"/>
    <text x="980" y="102" text-anchor="middle" font-size="8">277.4 (top)</text>

    <!-- Height (200mm) -->
    <line x1="1296" y1="80" x2="1296" y2="480" stroke="black" stroke-width="0.5" marker-start="url(#arrowU)" marker-end="url(#arrowD)"/>
    <line x1="1280" y1="80" x2="1300" y2="80" stroke="black" stroke-width="0.3"/>
    <line x1="1280" y1="480" x2="1300" y2="480" stroke="black" stroke-width="0.3"/>
    <text x="1310" y="284" font-size="9" transform="rotate(90,1310,284)">200</text>

    <!-- Funnel Y span (70mm) -->
    <line x1="720" y1="70" x2="860" y2="70" stroke="#555" stroke-width="0.4" marker-start="url(#arrowL)" marker-end="url(#arrowR)"/>
    <text x="790" y="68" text-anchor="middle" font-size="7" fill="#555">70</text>

    <!-- Shelf depth (72mm) -->
    <line x1="1120" y1="114" x2="1264" y2="114" stroke="#555" stroke-width="0.4" marker-start="url(#arrowL)" marker-end="url(#arrowR)"/>
    <text x="1192" y="112" text-anchor="middle" font-size="7" fill="#555">72</text>

    <!-- Shelf Z from top (20mm) -->
    <line x1="1272" y1="80" x2="1272" y2="120" stroke="#555" stroke-width="0.4" marker-start="url(#arrowU)" marker-end="url(#arrowD)"/>
    <text x="1282" y="104" font-size="7" fill="#555">20</text>

    <!-- Bag tilt angle -->
    <text x="950" y="300" font-size="8" fill="#555" transform="rotate(-35,950,300)">35 deg bag tilt</text>
  </g>

  <!-- ==================== TOP VIEW (looking along -Z) ==================== -->
  <text x="310" y="554" text-anchor="middle" font-size="13" font-weight="bold">TOP VIEW (looking along -Z)</text>

  <g id="top-view">
    <!-- Top face exterior at Z=400. X: 11.28..208.72 -> x=122.6..517.4. Y: 11.28..288.72 -> y=582.6..1137.4. R5=10px -->
    <rect x="122.6" y="582.6" width="394.8" height="554.8" rx="10" ry="10"
          fill="none" stroke="black" stroke-width="1.5"/>

    <!-- Interior (4mm inset) -->
    <rect x="130.6" y="590.6" width="378.8" height="538.8" rx="6" ry="6"
          fill="none" stroke="black" stroke-width="0.6" stroke-dasharray="4,3"/>

    <!-- Funnel opening: X=60..139, Y=20..90 -> x=220..378, y=600..740. R5=10px -->
    <rect x="220" y="600" width="158" height="140" rx="10" ry="10"
          fill="none" stroke="black" stroke-width="1.2"/>

    <!-- Funnel lip inner edge: X=63..136, Y=23..87 -> x=226..372, y=606..734 -->
    <rect x="226" y="606" width="146" height="128" rx="8" ry="8"
          fill="none" stroke="black" stroke-width="0.5"/>

    <!-- Electronics shelf (Y=220..292, X=8..211) hidden below surface -->
    <rect x="116" y="1000" width="406" height="144" fill="none" stroke="black" stroke-width="0.6" stroke-dasharray="4,3"/>

    <!-- Component pockets on shelf (all dashed) -->
    <!-- ESP32: X=6..64, Y=240.5..271.5 -> x=112..228, y=1041..1103 -->
    <rect x="112" y="1041" width="116" height="62" fill="none" stroke="black" stroke-width="0.4" stroke-dasharray="2,2"/>
    <text x="170" y="1080" text-anchor="middle" font-size="6" fill="#555">ESP32</text>

    <!-- L298N #1: X=77..123, Y=233..279 -> x=254..346, y=1026..1118 -->
    <rect x="254" y="1026" width="92" height="92" fill="none" stroke="black" stroke-width="0.4" stroke-dasharray="2,2"/>
    <text x="300" y="1060" text-anchor="middle" font-size="6" fill="#555">L298N #1</text>

    <!-- L298N #2: X=127..173, Y=233..279 -> x=354..446, y=1026..1118 -->
    <rect x="354" y="1026" width="92" height="92" fill="none" stroke="black" stroke-width="0.4" stroke-dasharray="2,2"/>
    <text x="400" y="1060" text-anchor="middle" font-size="6" fill="#555">L298N #2</text>

    <!-- L298N #3: X=77..123, Y=212..258 -> x=254..346, y=984..1076 -->
    <rect x="254" y="984" width="92" height="92" fill="none" stroke="black" stroke-width="0.4" stroke-dasharray="2,2"/>
    <text x="300" y="1018" text-anchor="middle" font-size="6" fill="#555">L298N #3</text>

    <!-- DS3231 RTC: X=149.5..190.5, Y=222.5..247.5 -> x=399..481, y=1005..1055 -->
    <rect x="399" y="1005" width="82" height="50" fill="none" stroke="black" stroke-width="0.4" stroke-dasharray="2,2"/>
    <text x="460" y="1034" text-anchor="middle" font-size="6" fill="#555">DS3231</text>

    <!-- Shelf label moved below shelf area to avoid overlap with pockets -->
    <text x="320" y="1158" text-anchor="middle" font-size="8" fill="#555">Electronics Shelf (Z=380)</text>

    <!-- Bag cradle footprint (dashed outline) -->
    <rect x="136" y="580" width="368" height="540" fill="none" stroke="black" stroke-width="0.4" stroke-dasharray="6,4"/>
    <text x="320" y="860" text-anchor="middle" font-size="8" fill="#555">Bag Cradle Zone</text>

    <!-- Tube pass-throughs at bottom rim (X=70, Y=280 and X=150, Y=280) -->
    <circle cx="240" cy="1120" r="8" fill="none" stroke="black" stroke-width="0.5" stroke-dasharray="2,2"/>
    <circle cx="400" cy="1120" r="8" fill="none" stroke="black" stroke-width="0.5" stroke-dasharray="2,2"/>

    <!-- Wire pass-throughs (12x6mm at Y=290, X=40 and X=180) -->
    <rect x="168" y="1134" width="24" height="12" fill="none" stroke="black" stroke-width="0.5" stroke-dasharray="2,2"/>
    <rect x="448" y="1134" width="24" height="12" fill="none" stroke="black" stroke-width="0.5" stroke-dasharray="2,2"/>

    <!-- DIMENSIONS -->
    <!-- Top face width (197.4mm) -->
    <line x1="122.6" y1="572" x2="517.4" y2="572" stroke="black" stroke-width="0.5" marker-start="url(#arrowL)" marker-end="url(#arrowR)"/>
    <text x="320" y="570" text-anchor="middle" font-size="9">197.4</text>

    <!-- Top face depth (277.4mm) -->
    <line x1="534" y1="582.6" x2="534" y2="1137.4" stroke="black" stroke-width="0.5" marker-start="url(#arrowU)" marker-end="url(#arrowD)"/>
    <text x="548" y="864" font-size="9" transform="rotate(90,548,864)">277.4</text>

    <!-- Funnel opening width (79mm) -->
    <line x1="220" y1="748" x2="378" y2="748" stroke="#555" stroke-width="0.4" marker-start="url(#arrowL)" marker-end="url(#arrowR)"/>
    <text x="299" y="758" text-anchor="middle" font-size="7" fill="#555">79</text>

    <!-- Funnel opening depth (70mm) -->
    <line x1="386" y1="600" x2="386" y2="740" stroke="#555" stroke-width="0.4" marker-start="url(#arrowU)" marker-end="url(#arrowD)"/>
    <text x="396" y="674" font-size="7" fill="#555">70</text>
  </g>

  <!-- ==================== DETAIL A: Groove Profile ==================== -->
  <text x="740" y="554" text-anchor="middle" font-size="12" font-weight="bold">DETAIL A: Groove Profile</text>
  <text x="740" y="568" text-anchor="middle" font-size="9">(Section through bottom rim | 6 px/mm)</text>

  <g id="detail-a">
    <rect x="640" y="578" width="200" height="190" fill="none" stroke="black" stroke-width="1"/>

    <!-- Wall cross-section. Exterior at left. Scale 6px/mm. -->
    <!-- Outer face x=666. Inner face x=666+24=690. Bottom (seam) y=746. -->

    <!-- Outer face -->
    <line x1="666" y1="600" x2="666" y2="746" stroke="black" stroke-width="1.2"/>
    <!-- Inner face -->
    <line x1="690" y1="600" x2="690" y2="746" stroke="black" stroke-width="1.2"/>
    <!-- Bottom face with groove gap -->
    <!-- Groove: 1.7mm = 10.2px wide, centered. Center at x=666+12=678. -->
    <!-- Left edge: 678-5.1=672.9. Right edge: 678+5.1=683.1 -->
    <line x1="666" y1="746" x2="672.9" y2="746" stroke="black" stroke-width="1.2"/>
    <line x1="683.1" y1="746" x2="690" y2="746" stroke="black" stroke-width="1.2"/>
    <!-- Groove walls (3.2mm deep = 19.2px up from bottom) -->
    <line x1="672.9" y1="746" x2="672.9" y2="726.8" stroke="black" stroke-width="1"/>
    <line x1="683.1" y1="746" x2="683.1" y2="726.8" stroke="black" stroke-width="1"/>
    <line x1="672.9" y1="726.8" x2="683.1" y2="726.8" stroke="black" stroke-width="1"/>

    <!-- Reveal step reference (tub wall 0.8mm=4.8px further out) -->
    <line x1="661.2" y1="746" x2="666" y2="746" stroke="gray" stroke-width="0.6" stroke-dasharray="2,1"/>
    <line x1="661.2" y1="746" x2="661.2" y2="734" stroke="gray" stroke-width="0.6" stroke-dasharray="2,1"/>
    <text x="656" y="738" font-size="5" fill="gray" text-anchor="end">tub</text>

    <!-- Tongue phantom: 1.5mm=9px wide, 3.0mm=18px tall, centered in groove -->
    <!-- Left: 672.9+(10.2-9)/2 = 672.9+0.6=673.5. Right: 683.1-0.6=682.5 -->
    <!-- Top of tongue: y=746-18=728. Groove ceiling at 726.8. 0.2mm=1.2px clearance. -->
    <rect x="673.5" y="728" width="9" height="18" fill="none" stroke="gray" stroke-width="0.5" stroke-dasharray="2,1"/>

    <!-- Section hatching -->
    <!-- Left material (x=666..672.9, below groove ceiling) -->
    <line x1="667" y1="746" x2="672.9" y2="740.1" stroke="black" stroke-width="0.3"/>
    <line x1="667" y1="740" x2="672.9" y2="734.1" stroke="black" stroke-width="0.3"/>
    <line x1="667" y1="734" x2="672.9" y2="728.1" stroke="black" stroke-width="0.3"/>
    <!-- Right material (x=683.1..690) -->
    <line x1="683.1" y1="746" x2="690" y2="739.1" stroke="black" stroke-width="0.3"/>
    <line x1="683.1" y1="740" x2="690" y2="733.1" stroke="black" stroke-width="0.3"/>
    <line x1="683.1" y1="734" x2="690" y2="727.1" stroke="black" stroke-width="0.3"/>
    <!-- Upper wall (above groove) -->
    <line x1="666" y1="724" x2="690" y2="700" stroke="black" stroke-width="0.3"/>
    <line x1="666" y1="718" x2="690" y2="694" stroke="black" stroke-width="0.3"/>
    <line x1="666" y1="712" x2="690" y2="688" stroke="black" stroke-width="0.3"/>
    <line x1="666" y1="706" x2="690" y2="682" stroke="black" stroke-width="0.3"/>

    <!-- Dimensions -->
    <!-- Groove width 1.7mm -->
    <line x1="672.9" y1="754" x2="683.1" y2="754" stroke="black" stroke-width="0.4" marker-start="url(#arrowL)" marker-end="url(#arrowR)"/>
    <text x="678" y="763" text-anchor="middle" font-size="7">1.7</text>

    <!-- Groove depth 3.2mm -->
    <line x1="696" y1="726.8" x2="696" y2="746" stroke="black" stroke-width="0.4" marker-start="url(#arrowU)" marker-end="url(#arrowD)"/>
    <line x1="690" y1="726.8" x2="700" y2="726.8" stroke="black" stroke-width="0.3"/>
    <line x1="690" y1="746" x2="700" y2="746" stroke="black" stroke-width="0.3"/>
    <text x="702" y="738" font-size="7">3.2</text>

    <!-- Wall thickness 4.0mm -->
    <line x1="666" y1="614" x2="690" y2="614" stroke="black" stroke-width="0.4" marker-start="url(#arrowL)" marker-end="url(#arrowR)"/>
    <text x="678" y="610" text-anchor="middle" font-size="7">4.0</text>

    <!-- Reveal 0.8mm -->
    <line x1="661.2" y1="754" x2="666" y2="754" stroke="gray" stroke-width="0.4"/>
    <text x="663.6" y="762" text-anchor="middle" font-size="6" fill="gray">0.8</text>

    <!-- Labels (repositioned inside frame boundary) -->
    <text x="654" y="660" font-size="7" text-anchor="end">Ext</text>
    <text x="702" y="660" font-size="7">Int</text>
  </g>

  <!-- ==================== DETAIL B: Display Snap Retention ==================== -->
  <text x="1060" y="554" text-anchor="middle" font-size="12" font-weight="bold">DETAIL B: Display Retention</text>
  <text x="1060" y="568" text-anchor="middle" font-size="9">(Section through RP2040 aperture | 6 px/mm)</text>

  <g id="detail-b">
    <rect x="940" y="578" width="240" height="190" fill="none" stroke="black" stroke-width="1"/>

    <!-- Section through front wall. Exterior at top. Scale 6px/mm. -->
    <!-- Aperture centered at x=1060. Wall 4mm=24px. Exterior y=610. Interior y=634. -->
    <!-- Ext aperture: 26mm dia, radius 13mm=78px. Edge: x=982..1138. -->
    <!-- Pocket: 34mm dia, radius 17mm=102px. Edge: x=958..1162. -->
    <!-- Pocket depth: 2.5mm=15px from exterior. y=610..625. -->

    <!-- Exterior surface -->
    <line x1="955" y1="610" x2="982" y2="610" stroke="black" stroke-width="1.2"/>
    <line x1="1138" y1="610" x2="1165" y2="610" stroke="black" stroke-width="1.2"/>

    <!-- Interior surface -->
    <line x1="955" y1="634" x2="958" y2="634" stroke="black" stroke-width="1.2"/>
    <line x1="1162" y1="634" x2="1165" y2="634" stroke="black" stroke-width="1.2"/>

    <!-- Left pocket/aperture step -->
    <path d="M 958 634 L 958 625 L 982 625 L 982 610" fill="none" stroke="black" stroke-width="1"/>
    <!-- Right pocket/aperture step (mirror) -->
    <path d="M 1162 634 L 1162 625 L 1138 625 L 1138 610" fill="none" stroke="black" stroke-width="1"/>

    <!-- Section hatching -->
    <line x1="957" y1="634" x2="967" y2="624" stroke="black" stroke-width="0.3"/>
    <line x1="957" y1="628" x2="967" y2="618" stroke="black" stroke-width="0.3"/>
    <line x1="957" y1="622" x2="967" y2="612" stroke="black" stroke-width="0.3"/>
    <line x1="1153" y1="634" x2="1163" y2="624" stroke="black" stroke-width="0.3"/>
    <line x1="1153" y1="628" x2="1163" y2="618" stroke="black" stroke-width="0.3"/>
    <line x1="1153" y1="622" x2="1163" y2="612" stroke="black" stroke-width="0.3"/>

    <!-- Display PCB phantom -->
    <rect x="960" y="616" width="200" height="9" fill="none" stroke="gray" stroke-width="0.5" stroke-dasharray="2,1"/>
    <text x="1060" y="623" text-anchor="middle" font-size="5" fill="gray">PCB (33mm dia)</text>

    <!-- Display glass phantom -->
    <rect x="984" y="607" width="152" height="4" fill="none" stroke="gray" stroke-width="0.5" stroke-dasharray="2,1"/>
    <text x="1060" y="604" text-anchor="middle" font-size="5" fill="gray">display glass</text>

    <!-- Snap tabs -->
    <path d="M 958 637 L 958 634 L 990 634 L 994 628" fill="none" stroke="black" stroke-width="0.8"/>
    <path d="M 1162 637 L 1162 634 L 1130 634 L 1126 628" fill="none" stroke="black" stroke-width="0.8"/>
    <text x="976" y="646" text-anchor="middle" font-size="5" fill="#555">snap tab</text>
    <text x="1144" y="646" text-anchor="middle" font-size="5" fill="#555">snap tab</text>

    <!-- Dimensions -->
    <!-- Wall thickness 4.0mm -->
    <line x1="948" y1="610" x2="948" y2="634" stroke="black" stroke-width="0.4" marker-start="url(#arrowU)" marker-end="url(#arrowD)"/>
    <text x="942" y="624" font-size="7" text-anchor="end">4.0</text>

    <!-- Pocket depth 2.5mm -->
    <line x1="1170" y1="610" x2="1170" y2="625" stroke="black" stroke-width="0.4" marker-start="url(#arrowU)" marker-end="url(#arrowD)"/>
    <line x1="1165" y1="625" x2="1174" y2="625" stroke="black" stroke-width="0.3"/>
    <text x="1174" y="620" font-size="7">2.5</text>

    <!-- Ext aperture (26mm) -->
    <line x1="982" y1="652" x2="1138" y2="652" stroke="black" stroke-width="0.4" marker-start="url(#arrowL)" marker-end="url(#arrowR)"/>
    <text x="1060" y="662" text-anchor="middle" font-size="7">26 (ext. aperture)</text>

    <!-- Pocket (34mm) -->
    <line x1="958" y1="670" x2="1162" y2="670" stroke="black" stroke-width="0.4" marker-start="url(#arrowL)" marker-end="url(#arrowR)"/>
    <text x="1060" y="680" text-anchor="middle" font-size="7">34 (pocket)</text>

    <!-- Tab overhang -->
    <text x="1002" y="630" font-size="5" fill="#555">1.0 overhang</text>

    <!-- Labels (inside frame) -->
    <text x="960" y="602" font-size="7">Exterior</text>
    <text x="960" y="754" font-size="7">Interior</text>
  </g>

  <!-- ==================== DETAIL C: Snap-Fit Ledge ==================== -->
  <text x="1060" y="784" text-anchor="middle" font-size="12" font-weight="bold">DETAIL C: Snap-Fit Ledge</text>
  <text x="1060" y="798" text-anchor="middle" font-size="9">(Section through side wall at ledge | 6 px/mm)</text>

  <g id="detail-c">
    <rect x="940" y="808" width="240" height="170" fill="none" stroke="black" stroke-width="1"/>

    <!-- Interior at left, exterior at right. Scale 6px/mm. -->
    <!-- Wall interior x=1116. Wall exterior x=1140. Seam Z=200 at y=950. -->
    <!-- Ledge Z=205..207 -> y=920..908. Protrusion 2mm=12px left from x=1116 to x=1104. -->

    <!-- Wall faces -->
    <line x1="1116" y1="830" x2="1116" y2="950" stroke="black" stroke-width="1.2"/>
    <line x1="1140" y1="830" x2="1140" y2="950" stroke="black" stroke-width="1.2"/>
    <!-- Seam plane -->
    <line x1="970" y1="950" x2="1160" y2="950" stroke="black" stroke-width="1"/>

    <!-- Ledge -->
    <path d="M 1116 920 L 1104 920 L 1104 908 L 1116 908" fill="none" stroke="black" stroke-width="1"/>

    <!-- Groove: outer wall at x=1140-1.15*6=1133.1, inner wall at x=1116+1.15*6=1122.9 -->
    <!-- Depth 3.2mm up: y=950 to y=930.8 -->
    <line x1="1122.9" y1="950" x2="1122.9" y2="930.8" stroke="black" stroke-width="0.8"/>
    <line x1="1133.1" y1="950" x2="1133.1" y2="930.8" stroke="black" stroke-width="0.8"/>
    <line x1="1122.9" y1="930.8" x2="1133.1" y2="930.8" stroke="black" stroke-width="0.8"/>

    <!-- Section hatching (upper wall) -->
    <line x1="1118" y1="900" x2="1140" y2="878" stroke="black" stroke-width="0.3"/>
    <line x1="1118" y1="892" x2="1140" y2="870" stroke="black" stroke-width="0.3"/>
    <line x1="1118" y1="884" x2="1140" y2="862" stroke="black" stroke-width="0.3"/>
    <line x1="1118" y1="876" x2="1140" y2="854" stroke="black" stroke-width="0.3"/>
    <line x1="1118" y1="868" x2="1140" y2="846" stroke="black" stroke-width="0.3"/>
    <line x1="1118" y1="860" x2="1140" y2="838" stroke="black" stroke-width="0.3"/>

    <!-- Tub catch phantom -->
    <path d="M 1104 955 L 1092 955 L 1092 920 L 1098 914 L 1098 908 L 1104 908"
          fill="none" stroke="gray" stroke-width="0.5" stroke-dasharray="2,1"/>
    <text x="1076" y="938" font-size="5" fill="gray" text-anchor="end">tub catch</text>

    <!-- Dimensions -->
    <!-- Ledge protrusion 2.0mm -->
    <line x1="1104" y1="904" x2="1116" y2="904" stroke="black" stroke-width="0.4" marker-start="url(#arrowL)" marker-end="url(#arrowR)"/>
    <text x="1110" y="902" text-anchor="middle" font-size="6">2.0</text>

    <!-- Ledge thickness 2.0mm -->
    <line x1="1098" y1="908" x2="1098" y2="920" stroke="black" stroke-width="0.4" marker-start="url(#arrowU)" marker-end="url(#arrowD)"/>
    <text x="1088" y="916" font-size="6" text-anchor="end">2.0</text>

    <!-- Z above seam: 5mm -->
    <line x1="1148" y1="920" x2="1148" y2="950" stroke="black" stroke-width="0.4" marker-start="url(#arrowU)" marker-end="url(#arrowD)"/>
    <line x1="1140" y1="920" x2="1152" y2="920" stroke="black" stroke-width="0.3"/>
    <line x1="1140" y1="950" x2="1152" y2="950" stroke="black" stroke-width="0.3"/>
    <text x="1156" y="938" font-size="6">5.0</text>

    <!-- Labels (inside frame) -->
    <text x="1080" y="840" font-size="7" text-anchor="end">Int</text>
    <text x="1150" y="840" font-size="7">Ext</text>
    <text x="970" y="964" font-size="7">Seam (Z=200)</text>
  </g>

  <!-- ==================== NOTES ==================== -->
  <g id="notes">
    <text x="100" y="1200" font-size="11" font-weight="bold">Notes:</text>
    <text x="100" y="1218" font-size="9">1. Material: ASA (matte charcoal). All walls 4.0 mm uniform.</text>
    <text x="100" y="1234" font-size="9">2. Draft: 3 deg inward on all four sides. Cap widest at bottom rim (Z=200), narrowest at top (Z=400).</text>
    <text x="100" y="1250" font-size="9">3. Radii: R8 on all 4 vertical edges, R5 on all 4 top-face-to-side transitions, 1.0 mm chamfer on aperture edges.</text>
    <text x="100" y="1266" font-size="9">4. Reveal step: 0.8 mm inset per side at bottom rim relative to tub exterior.</text>
    <text x="100" y="1282" font-size="9">5. Groove: 1.7 mm wide x 3.2 mm deep, centered in wall, continuous around perimeter.</text>
    <text x="100" y="1298" font-size="9">6. Snap-fit ledges: 8 total (2 per side), 15 x 2 x 2 mm, bottom face at Z=205. Permanent 90-deg catch.</text>
    <text x="100" y="1314" font-size="9">7. Bag tilt: 35 deg from horizontal. Two bags stacked vertically. Print orientation: inverted (top face on build plate).</text>
    <text x="100" y="1330" font-size="9">8. Funnel lip: 2.0 mm tall, 3.0 mm wide raised rim on top exterior. Funnel insert: gravity-retained, removable.</text>
  </g>
</svg>