<svg xmlns="http://www.w3.org/2000/svg" viewBox="0 0 1500 1500" width="1500" height="1500" font-family="Arial, Helvetica, sans-serif">
  <title>Enclosure Tub — Third-Angle Orthographic Projection</title>

  <defs>
    <marker id="arrow" markerWidth="8" markerHeight="6" refX="8" refY="3" orient="auto">
      <path d="M0,0 L8,3 L0,6 Z" fill="#333"/>
    </marker>
    <marker id="arrow-rev" markerWidth="8" markerHeight="6" refX="0" refY="3" orient="auto">
      <path d="M8,0 L0,3 L8,6 Z" fill="#333"/>
    </marker>
    <style>
      .dim-line { stroke: #333; stroke-width: 0.5; marker-start: url(#arrow-rev); marker-end: url(#arrow); }
      .ext-line { stroke: #333; stroke-width: 0.3; }
      .dim-text { font-size: 9px; fill: #333; text-anchor: middle; }
      .dim-text-s { font-size: 7px; fill: #333; text-anchor: middle; }
      .label { font-size: 11px; fill: #000; font-weight: bold; text-anchor: middle; }
      .note { font-size: 8px; fill: #555; }
      .title-text { font-size: 14px; fill: #000; font-weight: bold; }
      .visible { stroke: #000; stroke-width: 1.2; fill: none; }
      .hidden { stroke: #000; stroke-width: 0.6; fill: none; stroke-dasharray: 4,2; }
      .hidden-thin { stroke: #000; stroke-width: 0.5; fill: none; stroke-dasharray: 2,2; }
      .center { stroke: #666; stroke-width: 0.3; fill: none; stroke-dasharray: 8,2,2,2; }
      .detail-frame { stroke: #000; stroke-width: 0.8; fill: #fff; }
      .section-fill { fill: #e8e8e8; stroke: none; }
      .hatch { stroke: #999; stroke-width: 0.3; }
    </style>
  </defs>

  <!-- Title block -->
  <text x="750" y="30" class="title-text" text-anchor="middle">ENCLOSURE TUB — Third-Angle Orthographic Projection</text>
  <text x="750" y="46" class="note" text-anchor="middle">Material: ASA | All dimensions in mm | Scale as noted per view</text>

  <!-- ============================================================ -->
  <!-- FRONT VIEW (looking along -Y): X horizontal, Z vertical     -->
  <!-- Scale: 2 px/mm. Origin (80,520) = exterior bottom-left      -->
  <!-- px_x = X_mm * 2,  px_y = (200 - Z_mm) * 2                  -->
  <!-- ============================================================ -->

  <text x="300" y="72" class="label">FRONT VIEW (looking along -Y)</text>
  <text x="300" y="85" class="note" text-anchor="middle">Scale: 2 px/mm</text>

  <g id="front-view" transform="translate(80,520)">
    <!-- Exterior outline: 220x200mm = 440x400px -->
    <!-- Top corners R8=16px, bottom corners R2=4px -->
    <path d="M16,0 L424,0 Q440,0 440,16 L440,396 Q440,400 436,400 L4,400 Q0,400 0,396 L0,16 Q0,0 16,0 Z" class="visible"/>

    <!-- Inner wall (4mm=8px inset). Hidden behind front wall face. -->
    <rect x="8" y="0" width="424" height="392" class="hidden"/>

    <!-- Tongue: 3mm=6px tall protrusion above rim (Z=200..203) -->
    <line x1="0" y1="-6" x2="440" y2="-6" class="visible"/>
    <line x1="0" y1="0" x2="0" y2="-6" class="visible"/>
    <line x1="440" y1="0" x2="440" y2="-6" class="visible"/>

    <!-- Cartridge opening: X=34..186mm(68..372px), Z=20..95mm(py210..360) -->
    <rect x="68" y="210" width="304" height="150" class="visible"/>

    <!-- Finger scoop at bottom of opening centre -->
    <path d="M180,360 Q220,366 260,360" class="visible"/>

    <!-- Snap catches on front wall (hidden, on inner face) -->
    <!-- X=60 centre, 15mm=30px wide, Z=165..200 -> py0..70 -->
    <rect x="105" y="0" width="30" height="70" class="hidden"/>
    <!-- X=160 -->
    <rect x="305" y="0" width="30" height="70" class="hidden"/>

    <!-- Valve rows (hidden, deep inside): -->
    <!-- Lower row white body bottom Z=95 -> py210 (coincides with cart ceiling) -->
    <!-- Upper row white body bottom Z=155 -> py90 -->
    <line x1="8" y1="90" x2="432" y2="90" class="hidden-thin"/>

    <!-- Dock JG stubs (hidden, at Y=134): circles 15.1mm OD = 15.1*2=30.2px dia -->
    <!-- X=75 -> px150, X=145 -> px290 -->
    <!-- Z=55 -> py(200-55)*2=290, Z=75 -> py(200-75)*2=250 -->
    <circle cx="150" cy="290" r="15" class="hidden-thin"/>
    <circle cx="150" cy="250" r="15" class="hidden-thin"/>
    <circle cx="290" cy="290" r="15" class="hidden-thin"/>
    <circle cx="290" cy="250" r="15" class="hidden-thin"/>

    <!-- Guide rails (hidden): X=48..52(96..104px), Z=20..25(360..350px) -->
    <rect x="96" y="350" width="8" height="10" class="hidden-thin"/>
    <rect x="336" y="350" width="8" height="10" class="hidden-thin"/>

    <!-- Rubber foot recesses (hidden, bottom face): centres X=30,190 -->
    <circle cx="60" cy="400" r="15" class="hidden-thin"/>
    <circle cx="380" cy="400" r="15" class="hidden-thin"/>

    <!-- ===== DIMENSIONS ===== -->

    <!-- Overall width 220mm -->
    <line x1="0" y1="430" x2="0" y2="418" class="ext-line"/>
    <line x1="440" y1="430" x2="440" y2="418" class="ext-line"/>
    <line x1="0" y1="425" x2="440" y2="425" class="dim-line"/>
    <text x="220" y="440" class="dim-text">220</text>

    <!-- Overall height 200mm -->
    <line x1="-30" y1="0" x2="-18" y2="0" class="ext-line"/>
    <line x1="-30" y1="400" x2="-18" y2="400" class="ext-line"/>
    <line x1="-24" y1="0" x2="-24" y2="400" class="dim-line"/>
    <text x="-40" y="204" class="dim-text" transform="rotate(-90,-40,204)">200</text>

    <!-- Cartridge opening width 152mm -->
    <line x1="68" y1="375" x2="68" y2="388" class="ext-line"/>
    <line x1="372" y1="375" x2="372" y2="388" class="ext-line"/>
    <line x1="68" y1="384" x2="372" y2="384" class="dim-line"/>
    <text x="220" y="398" class="dim-text">152</text>

    <!-- Cartridge opening height 75mm -->
    <line x1="385" y1="210" x2="398" y2="210" class="ext-line"/>
    <line x1="385" y1="360" x2="398" y2="360" class="ext-line"/>
    <line x1="394" y1="210" x2="394" y2="360" class="dim-line"/>
    <text x="412" y="289" class="dim-text" transform="rotate(-90,412,289)">75</text>

    <!-- Cartridge Z=20 from bottom -->
    <line x1="452" y1="360" x2="466" y2="360" class="ext-line"/>
    <line x1="452" y1="400" x2="466" y2="400" class="ext-line"/>
    <line x1="460" y1="360" x2="460" y2="400" class="dim-line"/>
    <text x="476" y="384" class="dim-text-s">20</text>

    <!-- Tongue height 3mm -->
    <line x1="452" y1="0" x2="466" y2="0" class="ext-line"/>
    <line x1="452" y1="-6" x2="466" y2="-6" class="ext-line"/>
    <line x1="460" y1="-6" x2="460" y2="0" class="dim-line"/>
    <text x="476" y="0" class="dim-text-s">3</text>

    <!-- Wall thickness 4mm at top edge -->
    <line x1="0" y1="-20" x2="0" y2="-12" class="ext-line"/>
    <line x1="8" y1="-20" x2="8" y2="-12" class="ext-line"/>
    <line x1="0" y1="-16" x2="8" y2="-16" class="dim-line"/>
    <text x="4" y="-22" class="dim-text-s">4</text>

    <!-- Corner radius R8 leader -->
    <line x1="16" y1="4" x2="35" y2="-12" class="ext-line"/>
    <text x="48" y="-9" class="dim-text-s">R8</text>

    <!-- Bottom corner R2 leader -->
    <line x1="3" y1="397" x2="18" y2="410" class="ext-line"/>
    <text x="28" y="413" class="dim-text-s">R2</text>

    <!-- Snap catch callout -->
    <line x1="120" y1="35" x2="140" y2="20" class="ext-line"/>
    <text x="200" y="24" class="dim-text-s">Snap catch (typ. 2 per side)</text>
  </g>

  <!-- ============================================================ -->
  <!-- SIDE VIEW (looking along -X): Y horizontal, Z vertical      -->
  <!-- Scale: 2 px/mm. Origin (600,520) = exterior front-bottom    -->
  <!-- px_x = Y_mm * 2,  px_y = (200 - Z_mm) * 2                  -->
  <!-- ============================================================ -->

  <text x="900" y="72" class="label">SIDE VIEW (looking along -X)</text>
  <text x="900" y="85" class="note" text-anchor="middle">Scale: 2 px/mm</text>

  <g id="side-view" transform="translate(600,520)">
    <!-- Exterior: 300x200mm = 600x400px -->
    <rect x="0" y="0" width="600" height="400" class="visible"/>

    <!-- Tongue 3mm=6px above rim -->
    <line x1="0" y1="-6" x2="600" y2="-6" class="visible"/>
    <line x1="0" y1="0" x2="0" y2="-6" class="visible"/>
    <line x1="600" y1="0" x2="600" y2="-6" class="visible"/>

    <!-- Inner wall (hidden) -->
    <rect x="8" y="0" width="584" height="392" class="hidden"/>

    <!-- Dock floor Z=20 -> py360. Y=4..134mm -> px8..268 -->
    <line x1="8" y1="360" x2="268" y2="360" class="hidden"/>
    <!-- Dock floor bottom Z=16 -> py368 -->
    <line x1="8" y1="368" x2="268" y2="368" class="hidden-thin"/>

    <!-- Dock ceiling Z=95 -> py210.  Y=4..134 -> px8..268 -->
    <line x1="8" y1="210" x2="268" y2="210" class="hidden"/>

    <!-- Dock rear wall: Y=134..140 -> px268..280, Z=16..95 -> py210..368 -->
    <line x1="268" y1="210" x2="268" y2="368" class="hidden"/>
    <line x1="280" y1="210" x2="280" y2="368" class="hidden"/>
    <!-- Top of dock rear wall -->
    <line x1="268" y1="210" x2="280" y2="210" class="hidden"/>

    <!-- Cartridge opening visible as gap in front wall Z=20..95 -->
    <!-- Front wall (Y=0): from exterior this shows a rectangular hole -->
    <!-- The opening is in the XZ plane at Y=0; in side view the front wall is the left edge -->
    <!-- Show opening edges as visible breaks in the left wall line -->
    <!-- Actually in the side view, looking along -X, we see the right wall of the tub -->
    <!-- The cartridge opening is on the FRONT face, so it appears as a hidden feature -->
    <!-- But the right side wall is solid — no opening. The dock interior is behind the side wall -->

    <!-- JG stubs on dock rear wall (side profile, axis along Y) -->
    <!-- At Z=55: py=(200-55)*2=290. 15.1mm OD: py=290-15=275 to 290+15=305 -->
    <!-- Protrude from Y=134 toward front: body-end 12.08mm + center 3.08mm = 15.16mm -->
    <!-- Y=134-15.16=118.84 -> px237.7 to px268 -->
    <rect x="238" y="275" width="30" height="30" class="hidden-thin"/>
    <!-- Z=75: py=(200-75)*2=250. py=250-15=235 to 250+15=265 -->
    <rect x="238" y="235" width="30" height="30" class="hidden-thin"/>

    <!-- Behind dock rear wall: stubs protrude toward valve zone too -->
    <!-- Y=140+15.16=155.16 -> px280 to ~310. Same Z as above -->
    <rect x="280" y="275" width="30" height="30" class="hidden-thin"/>
    <rect x="280" y="235" width="30" height="30" class="hidden-thin"/>

    <!-- Valve rows (hidden): -->
    <!-- Lower row white body Z=95..114.4 -> py210..171. Cradles at Y~193..247 -> px386..494 -->
    <line x1="386" y1="171" x2="494" y2="171" class="hidden-thin"/>
    <line x1="386" y1="210" x2="494" y2="210" class="hidden-thin"/>
    <!-- Coil top Z=151 -> py98 -->
    <line x1="406" y1="98" x2="474" y2="98" class="hidden-thin"/>

    <!-- Upper row white body Z=155..174.4 -> py90..51 -->
    <line x1="386" y1="51" x2="494" y2="51" class="hidden-thin"/>
    <line x1="386" y1="90" x2="494" y2="90" class="hidden-thin"/>

    <!-- Rear bulkhead fittings (side profile): on rear wall Y=294..300 (local 6mm thick) -->
    <!-- At Z=120 -> py160. 15.1mm OD: py=160-15=145 to 160+15=175 -->
    <!-- Interior protrusion: Y=~284..294 -> px568..588 -->
    <rect x="568" y="145" width="32" height="30" class="hidden-thin"/>
    <!-- Exterior protrusion: Y=300..~315 -> px600..630 (beyond wall) -->
    <rect x="600" y="145" width="30" height="30" class="visible"/>
    <!-- At Z=150 -> py100. py=85..115 -->
    <rect x="568" y="85" width="32" height="30" class="hidden-thin"/>
    <rect x="600" y="85" width="30" height="30" class="visible"/>

    <!-- Wire pass-through: Z=30(py340), 8mm tall(16px), on rear wall Y=296..300(px592..600) -->
    <rect x="592" y="332" width="8" height="16" class="visible"/>

    <!-- Snap catches on left wall (visible on this side): Y=100,200 -->
    <!-- Y=100 centre, 15mm wide: Y=92.5..107.5 -> px185..215 -->
    <!-- Z=165..200 -> py0..70 -->
    <rect x="185" y="0" width="30" height="70" class="hidden"/>
    <rect x="385" y="0" width="30" height="70" class="hidden"/>

    <!-- Rubber feet at Y=30,270 -> px60,540 -->
    <circle cx="60" cy="400" r="15" class="hidden-thin"/>
    <circle cx="540" cy="400" r="15" class="hidden-thin"/>

    <!-- Valve block support ribs at Y=200,220,240 -> px400,440,480 -->
    <!-- Z=95..200 -> py0..210 -->
    <line x1="400" y1="0" x2="400" y2="210" class="hidden-thin"/>
    <line x1="440" y1="0" x2="440" y2="210" class="hidden-thin"/>
    <line x1="480" y1="0" x2="480" y2="210" class="hidden-thin"/>

    <!-- ===== DIMENSIONS ===== -->

    <!-- Overall depth 300mm -->
    <line x1="0" y1="430" x2="0" y2="418" class="ext-line"/>
    <line x1="600" y1="430" x2="600" y2="418" class="ext-line"/>
    <line x1="0" y1="425" x2="600" y2="425" class="dim-line"/>
    <text x="300" y="440" class="dim-text">300</text>

    <!-- Dock depth 130mm (Y=4..134 interior) -->
    <line x1="8" y1="378" x2="8" y2="388" class="ext-line"/>
    <line x1="268" y1="378" x2="268" y2="388" class="ext-line"/>
    <line x1="8" y1="385" x2="268" y2="385" class="dim-line"/>
    <text x="138" y="399" class="dim-text">130</text>

    <!-- Dock rear wall 6mm -->
    <line x1="268" y1="373" x2="268" y2="378" class="ext-line"/>
    <line x1="280" y1="373" x2="280" y2="378" class="ext-line"/>
    <line x1="268" y1="375" x2="280" y2="375" class="dim-line"/>
    <text x="274" y="370" class="dim-text-s">6</text>

    <!-- Height 200mm (shared Z with front view) -->
    <line x1="-18" y1="0" x2="-8" y2="0" class="ext-line"/>
    <line x1="-18" y1="400" x2="-8" y2="400" class="ext-line"/>
    <line x1="-12" y1="0" x2="-12" y2="400" class="dim-line"/>
    <text x="-26" y="204" class="dim-text" transform="rotate(-90,-26,204)">200</text>

    <!-- Dock floor Z=20 from bottom -->
    <line x1="618" y1="360" x2="630" y2="360" class="ext-line"/>
    <line x1="618" y1="400" x2="630" y2="400" class="ext-line"/>
    <line x1="625" y1="360" x2="625" y2="400" class="dim-line"/>
    <text x="640" y="384" class="dim-text-s">20</text>

    <!-- Dock ceiling Z=95: dock height 75mm from floor -->
    <line x1="648" y1="210" x2="660" y2="210" class="ext-line"/>
    <line x1="648" y1="360" x2="660" y2="360" class="ext-line"/>
    <line x1="655" y1="210" x2="655" y2="360" class="dim-line"/>
    <text x="670" y="289" class="dim-text-s" transform="rotate(-90,670,289)">75</text>

    <!-- Rear bulkhead Z callouts -->
    <line x1="630" y1="160" x2="646" y2="160" class="ext-line"/>
    <text x="666" y="164" class="dim-text-s">Z=120</text>
    <line x1="630" y1="100" x2="646" y2="100" class="ext-line"/>
    <text x="666" y="104" class="dim-text-s">Z=150</text>
  </g>

  <!-- ============================================================ -->
  <!-- TOP VIEW (looking along -Z, into tub): X horiz, Y vert      -->
  <!-- Scale: 2 px/mm. Origin (80,1160) = exterior front-left      -->
  <!-- px_x = X_mm * 2,  px_y = Y_mm * 2                          -->
  <!-- ============================================================ -->

  <text x="300" y="560" class="label">TOP VIEW (looking along -Z, into tub)</text>
  <text x="300" y="573" class="note" text-anchor="middle">Scale: 2 px/mm</text>

  <g id="top-view" transform="translate(80,1160)">
    <!-- Exterior: 220x300mm = 440x600px. R8=16px corners. -->
    <rect x="0" y="0" width="440" height="600" rx="16" ry="16" class="visible"/>

    <!-- Inner wall -->
    <rect x="8" y="8" width="424" height="584" class="visible"/>

    <!-- Tongue outlines (between inner and outer wall) -->
    <!-- Outer tongue edge: 1.25mm=2.5px from exterior -->
    <!-- Inner tongue edge: 2.75mm=5.5px from exterior -->
    <rect x="3" y="3" width="434" height="594" rx="14" ry="14" style="stroke:#000; stroke-width:0.5; fill:none;"/>
    <rect x="6" y="6" width="428" height="588" rx="12" ry="12" style="stroke:#000; stroke-width:0.5; fill:none;"/>

    <!-- Cartridge dock outline (hidden, below top surface) -->
    <!-- X=30..190(px60..380), Y=4..134(px8..268) -->
    <rect x="60" y="8" width="320" height="260" class="hidden-thin"/>

    <!-- Guide rails: solid (visible from above) -->
    <!-- Left: X=48..52(px96..104), Y=4..130(px8..260) -->
    <rect x="96" y="8" width="8" height="252" class="visible"/>
    <!-- Right: X=168..172(px336..344) -->
    <rect x="336" y="8" width="8" height="252" class="visible"/>

    <!-- Dock rear wall: Y=134..140(px268..280), X=30..190(px60..380) -->
    <rect x="60" y="268" width="320" height="12" class="visible"/>

    <!-- JG tube stubs on dock rear wall (circles, axis along Y) -->
    <!-- X=75->px150, X=145->px290 at Y=134->px268 -->
    <!-- 9.1mm bore = 18.2px dia, 15.1mm shoulder visible -->
    <circle cx="150" cy="268" r="9" class="visible"/>
    <circle cx="290" cy="268" r="9" class="visible"/>

    <!-- Valve cradles (visible from above): 5 per row, overlapping in top view -->
    <!-- Each cradle: 34mm(68px) wide x 54mm(108px) deep -->
    <!-- Valve 1: X centre=22mm. X=5..39->px10..78. Y centre=220mm->440px. Y=193..247->px386..494 -->
    <rect x="10" y="386" width="68" height="108" style="stroke:#000; stroke-width:0.6; fill:none;"/>
    <!-- V2: X=41..75->px82..150 -->
    <rect x="82" y="386" width="68" height="108" style="stroke:#000; stroke-width:0.6; fill:none;"/>
    <!-- V3: X=77..111->px154..222 -->
    <rect x="154" y="386" width="68" height="108" style="stroke:#000; stroke-width:0.6; fill:none;"/>
    <!-- V4: X=113..147->px226..294 -->
    <rect x="226" y="386" width="68" height="108" style="stroke:#000; stroke-width:0.6; fill:none;"/>
    <!-- V5: X=149..183->px298..366 -->
    <rect x="298" y="386" width="68" height="108" style="stroke:#000; stroke-width:0.6; fill:none;"/>

    <!-- Valve block support ribs: Y=200,220,240->px400,440,480 -->
    <line x1="8" y1="400" x2="432" y2="400" style="stroke:#000; stroke-width:0.4;"/>
    <line x1="8" y1="440" x2="432" y2="440" style="stroke:#000; stroke-width:0.4;"/>
    <line x1="8" y1="480" x2="432" y2="480" style="stroke:#000; stroke-width:0.4;"/>

    <!-- Rear bulkhead fittings on rear wall (circles, axis along Y) -->
    <!-- All at Y~296->px592 -->
    <!-- RB-1: X=40->px80 -->
    <circle cx="80" cy="592" r="9" class="visible"/>
    <!-- RB-3: X=110->px220 -->
    <circle cx="220" cy="592" r="9" class="visible"/>
    <!-- RB-4: X=150->px300 -->
    <circle cx="300" cy="592" r="9" class="visible"/>
    <!-- RB-5: X=180->px360 -->
    <circle cx="360" cy="592" r="9" class="visible"/>

    <!-- Bag tube pass-throughs at rim: X=70,150 Y=280 -->
    <!-- 8mm dia=16px dia at px(140,560) and (300,560) -->
    <circle cx="140" cy="560" r="8" class="visible"/>
    <circle cx="300" cy="560" r="8" class="visible"/>

    <!-- Wire harness pass-throughs: 12x6mm at X=40,Y=290 and X=180,Y=290 -->
    <!-- px(68..92, 568..580) and (348..372, 568..580) -->
    <rect x="68" y="568" width="24" height="12" class="visible"/>
    <rect x="348" y="568" width="24" height="12" class="visible"/>

    <!-- Snap catches (visible from above, protruding from inner walls) -->
    <!-- Front wall: X=60,160 at Y=4 inner, 2.5mm=5px inward -->
    <rect x="105" y="8" width="30" height="5" class="visible"/>
    <rect x="305" y="8" width="30" height="5" class="visible"/>
    <!-- Back wall: X=60,160 at Y=296, 5px inward toward front -->
    <rect x="105" y="587" width="30" height="5" class="visible"/>
    <rect x="305" y="587" width="30" height="5" class="visible"/>
    <!-- Left wall: Y=100,200 at X=4 inner, 5px inward -->
    <rect x="8" y="185" width="5" height="30" class="visible"/>
    <rect x="8" y="385" width="5" height="30" class="visible"/>
    <!-- Right wall: Y=100,200 at X=216 inner, 5px inward from X=432 -->
    <rect x="427" y="185" width="5" height="30" class="visible"/>
    <rect x="427" y="385" width="5" height="30" class="visible"/>

    <!-- ===== DIMENSIONS ===== -->

    <!-- Width 220mm (shared X with front view) -->
    <line x1="0" y1="-16" x2="0" y2="-6" class="ext-line"/>
    <line x1="440" y1="-16" x2="440" y2="-6" class="ext-line"/>
    <line x1="0" y1="-11" x2="440" y2="-11" class="dim-line"/>
    <text x="220" y="-16" class="dim-text">220</text>

    <!-- Depth 300mm -->
    <line x1="-30" y1="0" x2="-18" y2="0" class="ext-line"/>
    <line x1="-30" y1="600" x2="-18" y2="600" class="ext-line"/>
    <line x1="-24" y1="0" x2="-24" y2="600" class="dim-line"/>
    <text x="-40" y="304" class="dim-text" transform="rotate(-90,-40,304)">300</text>

    <!-- Valve cradle pitch 36mm typ -->
    <line x1="44" y1="500" x2="44" y2="512" class="ext-line"/>
    <line x1="116" y1="500" x2="116" y2="512" class="ext-line"/>
    <line x1="44" y1="508" x2="116" y2="508" class="dim-line"/>
    <text x="80" y="524" class="dim-text-s">36 (typ.)</text>

    <!-- Dock width 160mm -->
    <line x1="60" y1="275" x2="60" y2="286" class="ext-line"/>
    <line x1="380" y1="275" x2="380" y2="286" class="ext-line"/>
    <line x1="60" y1="282" x2="380" y2="282" class="dim-line"/>
    <text x="220" y="296" class="dim-text">160</text>

    <!-- Rail position callouts -->
    <line x1="100" y1="265" x2="116" y2="240" class="ext-line"/>
    <text x="126" y="238" class="dim-text-s">X=50</text>
    <line x1="340" y1="265" x2="320" y2="240" class="ext-line"/>
    <text x="308" y="238" class="dim-text-s">X=170</text>

    <!-- Tongue annotation -->
    <line x1="4" y1="300" x2="-16" y2="310" class="ext-line"/>
    <text x="-22" y="314" class="dim-text-s" text-anchor="end">Tongue (1.5w)</text>
  </g>

  <!-- ============================================================ -->
  <!-- DETAIL A: Tongue Profile (section through rim)               -->
  <!-- Scale: 8 px/mm. Frame: (640,590) 200x180                    -->
  <!-- ============================================================ -->

  <text x="740" y="600" class="label">DETAIL A: Tongue Profile</text>
  <text x="740" y="613" class="note" text-anchor="middle">Scale: 8 px/mm (section through rim)</text>

  <g id="detail-a">
    <rect x="640" y="620" width="200" height="180" class="detail-frame"/>

    <!-- Wall section: 4mm=32px wide, shown as ~50px tall piece of wall -->
    <!-- Place outer face at x=670, rim face at y=750 -->
    <rect x="670" y="750" width="32" height="40" class="section-fill"/>
    <rect x="670" y="750" width="32" height="40" style="stroke:#000; stroke-width:1; fill:none;"/>

    <!-- Tongue: 1.5mm=12px wide, 3mm=24px tall, centred in wall -->
    <!-- Outer edge: 1.25mm=10px from outer face -> x=680 -->
    <rect x="680" y="726" width="12" height="24" class="section-fill"/>
    <rect x="680" y="726" width="12" height="24" style="stroke:#000; stroke-width:1; fill:none;"/>

    <!-- Hatch -->
    <line x1="672" y1="788" x2="684" y2="750" class="hatch"/>
    <line x1="678" y1="788" x2="696" y2="750" class="hatch"/>
    <line x1="688" y1="788" x2="702" y2="758" class="hatch"/>
    <line x1="682" y1="746" x2="690" y2="726" class="hatch"/>

    <!-- Tongue width 1.5 -->
    <line x1="680" y1="720" x2="680" y2="714" class="ext-line"/>
    <line x1="692" y1="720" x2="692" y2="714" class="ext-line"/>
    <line x1="680" y1="716" x2="692" y2="716" class="dim-line"/>
    <text x="686" y="710" class="dim-text-s">1.5</text>

    <!-- Tongue height 3.0 -->
    <line x1="698" y1="726" x2="708" y2="726" class="ext-line"/>
    <line x1="698" y1="750" x2="708" y2="750" class="ext-line"/>
    <line x1="704" y1="726" x2="704" y2="750" class="dim-line"/>
    <text x="720" y="742" class="dim-text-s">3.0</text>

    <!-- Wall thickness 4.0 -->
    <line x1="670" y1="794" x2="670" y2="800" class="ext-line"/>
    <line x1="702" y1="794" x2="702" y2="800" class="ext-line"/>
    <line x1="670" y1="797" x2="702" y2="797" class="dim-line"/>
    <text x="686" y="793" class="dim-text-s">4.0</text>

    <!-- Labels -->
    <text x="730" y="774" class="note">Wall</text>
    <text x="730" y="734" class="note">Tongue</text>
    <text x="658" y="748" class="note">Out</text>
    <text x="706" y="748" class="note">In</text>
  </g>

  <!-- ============================================================ -->
  <!-- DETAIL B: Snap Catch Profile (section along wall)            -->
  <!-- Scale: 5 px/mm. Frame: (880,600) 340x240                    -->
  <!-- ============================================================ -->

  <text x="1050" y="580" class="label">DETAIL B: Snap Catch</text>
  <text x="1050" y="593" class="note" text-anchor="middle">Scale: 5 px/mm (section, looking along wall)</text>

  <g id="detail-b">
    <rect x="880" y="600" width="340" height="240" class="detail-frame"/>

    <!-- Catch beam extends from inner wall face inward -->
    <!-- Wall: 4mm thick at 5px/mm = 20px -->
    <!-- Beam: 35mm long (Z) = 175px, root thickness 2.5mm=12.5px, tip 2.0mm=10px -->
    <!-- Hook: 2mm overhang = 10px, 2mm tall = 10px -->

    <!-- Wall at x=900, Z=200 at y=620, Z going down -->
    <!-- Wall -->
    <rect x="900" y="620" width="20" height="185" class="section-fill"/>
    <rect x="900" y="620" width="20" height="185" style="stroke:#000; stroke-width:1; fill:none;"/>

    <!-- Beam: from wall inner face (x=920) inward, Z=200(y620) to Z=165(y795) -->
    <!-- Root width 12.5px, tip width 10px -->
    <polygon points="920,620 933,620 930,785 920,785" style="stroke:#000; stroke-width:1; fill:#e8e8e8;"/>

    <!-- Hook: 2mm=10px overhang, 2mm=10px tall at tip -->
    <polygon points="920,785 940,785 940,795 920,795" style="stroke:#000; stroke-width:1; fill:#e8e8e8;"/>

    <!-- Wall hatch -->
    <line x1="902" y1="650" x2="918" y2="624" class="hatch"/>
    <line x1="902" y1="680" x2="918" y2="654" class="hatch"/>
    <line x1="902" y1="710" x2="918" y2="684" class="hatch"/>
    <line x1="902" y1="740" x2="918" y2="714" class="hatch"/>
    <line x1="902" y1="770" x2="918" y2="744" class="hatch"/>
    <line x1="902" y1="800" x2="918" y2="774" class="hatch"/>

    <!-- Dimensions -->
    <!-- Beam length 35mm -->
    <line x1="950" y1="620" x2="960" y2="620" class="ext-line"/>
    <line x1="950" y1="795" x2="960" y2="795" class="ext-line"/>
    <line x1="956" y1="620" x2="956" y2="795" class="dim-line"/>
    <text x="972" y="712" class="dim-text-s" transform="rotate(-90,972,712)">35.0</text>

    <!-- Root thickness 2.5 -->
    <line x1="920" y1="612" x2="920" y2="606" class="ext-line"/>
    <line x1="933" y1="612" x2="933" y2="606" class="ext-line"/>
    <line x1="920" y1="609" x2="933" y2="609" class="dim-line"/>
    <text x="927" y="604" class="dim-text-s">2.5</text>

    <!-- Hook overhang 2.0 -->
    <line x1="930" y1="802" x2="930" y2="810" class="ext-line"/>
    <line x1="940" y1="802" x2="940" y2="810" class="ext-line"/>
    <line x1="930" y1="807" x2="940" y2="807" class="dim-line"/>
    <text x="935" y="820" class="dim-text-s">2.0</text>

    <!-- Hook height 2.0 -->
    <line x1="946" y1="785" x2="952" y2="785" class="ext-line"/>
    <line x1="946" y1="795" x2="952" y2="795" class="ext-line"/>
    <line x1="949" y1="785" x2="949" y2="795" class="dim-line"/>
    <text x="960" y="793" class="dim-text-s">2.0</text>

    <!-- Labels -->
    <text x="985" y="660" class="note">Cantilever beam</text>
    <text x="985" y="672" class="note">(tapers 2.5 to 2.0)</text>
    <text x="985" y="800" class="note">90-deg hook</text>
    <text x="985" y="630" class="note">Root: Z=200 (rim)</text>
    <text x="985" y="816" class="note">Tip: Z=165</text>
    <text x="910" y="832" class="note">Wall</text>
  </g>

  <!-- ============================================================ -->
  <!-- NOTES                                                        -->
  <!-- ============================================================ -->

  <g id="notes" transform="translate(640,1000)">
    <text x="0" y="0" class="note">NOTES:</text>
    <text x="0" y="14" class="note">1. Exterior vertical edges: R8 (all 4). Bottom edges: R2 (all 4).</text>
    <text x="0" y="28" class="note">2. All aperture edges chamfered 1.0 mm on exterior side.</text>
    <text x="0" y="42" class="note">3. Tongue runs continuous around full perimeter, following corner radii.</text>
    <text x="0" y="56" class="note">4. 8 snap catches total: 2 per side (front, back, left, right).</text>
    <text x="0" y="70" class="note">5. Valve cradles: 2 rows of 5, 36 mm X pitch, Y centre = 220 mm.</text>
    <text x="0" y="84" class="note">6. Rear bulkhead: 5 JG PP0408W fittings, 9.1 mm press-fit bore, 6 mm local wall thickness.</text>
    <text x="0" y="98" class="note">7. Dock JG stubs: 4 fittings at X=75/145, Z=55/75 in dock rear wall.</text>
    <text x="0" y="112" class="note">8. Walls vertical (no draft). Cap provides all taper.</text>
  </g>

</svg>