<svg xmlns="http://www.w3.org/2000/svg" viewBox="0 0 1024 1024" width="1024" height="1024">
  <defs>
    <linearGradient id="bg" x1="0" y1="0" x2="0" y2="1">
      <stop offset="0%" stop-color="#1a1a2e"/>
      <stop offset="100%" stop-color="#16213e"/>
    </linearGradient>
    <linearGradient id="liquid" x1="0" y1="0" x2="1" y2="1">
      <stop offset="0%" stop-color="#e94560"/>
      <stop offset="50%" stop-color="#c23373"/>
      <stop offset="100%" stop-color="#7b2ff7"/>
    </linearGradient>
    <linearGradient id="glassHighlight" x1="0" y1="0" x2="1" y2="0">
      <stop offset="0%" stop-color="rgba(255,255,255,0.15)"/>
      <stop offset="40%" stop-color="rgba(255,255,255,0)"/>
    </linearGradient>
    <radialGradient id="bubbleGlow">
      <stop offset="0%" stop-color="rgba(255,255,255,0.5)"/>
      <stop offset="100%" stop-color="rgba(255,255,255,0.1)"/>
    </radialGradient>
    <clipPath id="glassClip">
      <path d="M310 247 L340 747 Q345 777 380 777 L644 777 Q679 777 684 747 L714 247 Z"/>
    </clipPath>
  </defs>

  <!-- Background -->
  <rect width="1024" height="1024" fill="#1a1a2e"/>

  <!-- Glass body -->
  <path d="M310 247 L340 747 Q345 777 380 777 L644 777 Q679 777 684 747 L714 247 Z"
        fill="rgba(255,255,255,0.06)"
        stroke="rgba(255,255,255,0.25)"
        stroke-width="4"/>

  <!-- Liquid fill with wavy surface -->
  <g clip-path="url(#glassClip)">
    <path d="M310.0 353.3 L320.1 352.9 L330.2 352.2 L340.3 351.3 L350.4 350.3 L360.5 349.1 L370.6 347.8 L380.7 346.5 L390.8 345.1 L400.9 343.8 L411.0 342.5 L421.1 341.3 L431.2 340.3 L441.3 339.5 L451.4 338.8 L461.5 338.4 L471.6 338.3 L481.7 338.4 L491.8 338.8 L501.9 339.5 L512.0 340.3 L522.1 341.4 L532.2 342.6 L542.3 344.0 L552.4 345.5 L562.5 347.0 L572.6 348.5 L582.7 350.0 L592.8 351.4 L602.9 352.6 L613.0 353.7 L623.1 354.5 L633.2 355.2 L643.3 355.6 L653.4 355.7 L663.5 355.6 L673.6 355.2 L683.7 354.5 L693.8 353.7 L703.9 352.7 L714.0 351.5 L714 800 L310 800 Z" fill="url(#liquid)"/>
    <path d="M310.0 348.3 L320.1 347.9 L330.2 347.2 L340.3 346.3 L350.4 345.3 L360.5 344.1 L370.6 342.8 L380.7 341.5 L390.8 340.1 L400.9 338.8 L411.0 337.5 L421.1 336.3 L431.2 335.3 L441.3 334.5 L451.4 333.8 L461.5 333.4 L471.6 333.3 L481.7 333.4 L491.8 333.8 L501.9 334.5 L512.0 335.3 L522.1 336.4 L532.2 337.6 L542.3 339.0 L552.4 340.5 L562.5 342.0 L572.6 343.5 L582.7 345.0 L592.8 346.4 L602.9 347.6 L613.0 348.7 L623.1 349.5 L633.2 350.2 L643.3 350.6 L653.4 350.7 L663.5 350.6 L673.6 350.2 L683.7 349.5 L693.8 348.7 L703.9 347.7 L714.0 346.5 L714.0 369.5 L703.9 370.7 L693.8 371.7 L683.7 372.5 L673.6 373.2 L663.5 373.6 L653.4 373.7 L643.3 373.6 L633.2 373.2 L623.1 372.5 L613.0 371.7 L602.9 370.6 L592.8 369.4 L582.7 368.0 L572.6 366.5 L562.5 365.0 L552.4 363.5 L542.3 362.0 L532.2 360.6 L522.1 359.4 L512.0 358.3 L501.9 357.5 L491.8 356.8 L481.7 356.4 L471.6 356.3 L461.5 356.4 L451.4 356.8 L441.3 357.5 L431.2 358.3 L421.1 359.3 L411.0 360.5 L400.9 361.8 L390.8 363.1 L380.7 364.5 L370.6 365.8 L360.5 367.1 L350.4 368.3 L340.3 369.3 L330.2 370.2 L320.1 370.9 L310.0 371.3 Z" fill="rgba(255,255,255,0.12)"/>
    <circle cx="440.0" cy="584.2" r="44.1" fill="url(#bubbleGlow)" stroke="rgba(255,255,255,0.20)" stroke-width="2.5" opacity="0.80"/>
    <circle cx="587.8" cy="479.3" r="38.2" fill="url(#bubbleGlow)" stroke="rgba(255,255,255,0.20)" stroke-width="2.5" opacity="0.80"/>
    <circle cx="500.4" cy="398.3" r="34.0" fill="url(#bubbleGlow)" stroke="rgba(255,255,255,0.20)" stroke-width="2.5" opacity="0.80"/>
  </g>

  <!-- Glass rim highlight -->
  <path d="M310 247 L714 247"
        stroke="rgba(255,255,255,0.35)"
        stroke-width="5"
        stroke-linecap="round"/>

  <!-- Glass left edge highlight -->
  <path d="M314 257 L342 737"
        stroke="rgba(255,255,255,0.1)"
        stroke-width="8"
        stroke-linecap="round"/>

  <!-- Glass surface highlight overlay -->
  <path d="M310 247 L340 747 Q345 777 380 777 L644 777 Q679 777 684 747 L714 247 Z"
        fill="url(#glassHighlight)"/>
</svg>