<svg xmlns="http://www.w3.org/2000/svg" viewBox="0 0 1024 1024" width="1024" height="1024">
  <defs>
    <linearGradient id="bg" x1="0" y1="0" x2="0" y2="1">
      <stop offset="0%" stop-color="#1a1a2e"/>
      <stop offset="100%" stop-color="#16213e"/>
    </linearGradient>
    <linearGradient id="liquid" x1="0" y1="0" x2="1" y2="1">
      <stop offset="0%" stop-color="#e94560"/>
      <stop offset="50%" stop-color="#c23373"/>
      <stop offset="100%" stop-color="#7b2ff7"/>
    </linearGradient>
    <linearGradient id="glassHighlight" x1="0" y1="0" x2="1" y2="0">
      <stop offset="0%" stop-color="rgba(255,255,255,0.15)"/>
      <stop offset="40%" stop-color="rgba(255,255,255,0)"/>
    </linearGradient>
    <radialGradient id="bubbleGlow">
      <stop offset="0%" stop-color="rgba(255,255,255,0.5)"/>
      <stop offset="100%" stop-color="rgba(255,255,255,0.1)"/>
    </radialGradient>
    <clipPath id="glassClip">
      <path d="M310 247 L340 747 Q345 777 380 777 L644 777 Q679 777 684 747 L714 247 Z"/>
    </clipPath>
  </defs>

  <!-- Background -->
  <rect width="1024" height="1024" fill="#1a1a2e"/>

  <!-- Glass body -->
  <path d="M310 247 L340 747 Q345 777 380 777 L644 777 Q679 777 684 747 L714 247 Z"
        fill="rgba(255,255,255,0.06)"
        stroke="rgba(255,255,255,0.25)"
        stroke-width="4"/>

  <!-- Liquid fill with wavy surface -->
  <g clip-path="url(#glassClip)">
    <path d="M310.0 354.7 L320.1 353.9 L330.2 352.9 L340.3 351.7 L350.4 350.3 L360.5 348.9 L370.6 347.4 L380.7 345.9 L390.8 344.4 L400.9 343.0 L411.0 341.7 L421.1 340.6 L431.2 339.6 L441.3 339.0 L451.4 338.5 L461.5 338.3 L471.6 338.4 L481.7 338.7 L491.8 339.3 L501.9 340.1 L512.0 341.0 L522.1 342.2 L532.2 343.4 L542.3 344.8 L552.4 346.1 L562.5 347.5 L572.6 348.8 L582.7 350.0 L592.8 351.1 L602.9 352.0 L613.0 352.7 L623.1 353.2 L633.2 353.5 L643.3 353.5 L653.4 353.4 L663.5 353.0 L673.6 352.5 L683.7 351.7 L693.8 350.9 L703.9 349.9 L714.0 348.9 L714 800 L310 800 Z" fill="url(#liquid)"/>
    <path d="M310.0 349.7 L320.1 348.9 L330.2 347.9 L340.3 346.7 L350.4 345.3 L360.5 343.9 L370.6 342.4 L380.7 340.9 L390.8 339.4 L400.9 338.0 L411.0 336.7 L421.1 335.6 L431.2 334.6 L441.3 334.0 L451.4 333.5 L461.5 333.3 L471.6 333.4 L481.7 333.7 L491.8 334.3 L501.9 335.1 L512.0 336.0 L522.1 337.2 L532.2 338.4 L542.3 339.8 L552.4 341.1 L562.5 342.5 L572.6 343.8 L582.7 345.0 L592.8 346.1 L602.9 347.0 L613.0 347.7 L623.1 348.2 L633.2 348.5 L643.3 348.5 L653.4 348.4 L663.5 348.0 L673.6 347.5 L683.7 346.7 L693.8 345.9 L703.9 344.9 L714.0 343.9 L714.0 366.9 L703.9 367.9 L693.8 368.9 L683.7 369.7 L673.6 370.5 L663.5 371.0 L653.4 371.4 L643.3 371.5 L633.2 371.5 L623.1 371.2 L613.0 370.7 L602.9 370.0 L592.8 369.1 L582.7 368.0 L572.6 366.8 L562.5 365.5 L552.4 364.1 L542.3 362.8 L532.2 361.4 L522.1 360.2 L512.0 359.0 L501.9 358.1 L491.8 357.3 L481.7 356.7 L471.6 356.4 L461.5 356.3 L451.4 356.5 L441.3 357.0 L431.2 357.6 L421.1 358.6 L411.0 359.7 L400.9 361.0 L390.8 362.4 L380.7 363.9 L370.6 365.4 L360.5 366.9 L350.4 368.3 L340.3 369.7 L330.2 370.9 L320.1 371.9 L310.0 372.7 Z" fill="rgba(255,255,255,0.12)"/>
    <circle cx="434.3" cy="550.4" r="44.6" fill="url(#bubbleGlow)" stroke="rgba(255,255,255,0.20)" stroke-width="2.5" opacity="0.80"/>
    <circle cx="578.9" cy="434.6" r="38.9" fill="url(#bubbleGlow)" stroke="rgba(255,255,255,0.20)" stroke-width="2.5" opacity="0.80"/>
    <circle cx="500.0" cy="386.0" r="25.1" fill="url(#bubbleGlow)" stroke="rgba(255,255,255,0.08)" stroke-width="2.5" opacity="0.30"/>
    <circle cx="627.3" cy="696.2" r="26.3" fill="url(#bubbleGlow)" stroke="rgba(255,255,255,0.20)" stroke-width="2.5" opacity="0.80"/>
    <circle cx="382.8" cy="476.3" r="21.7" fill="url(#bubbleGlow)" stroke="rgba(255,255,255,0.20)" stroke-width="2.5" opacity="0.80"/>
    <circle cx="467.7" cy="383.9" r="20.5" fill="url(#bubbleGlow)" stroke="rgba(255,255,255,0.20)" stroke-width="2.5" opacity="0.80"/>
    <circle cx="642.8" cy="627.1" r="16.5" fill="url(#bubbleGlow)" stroke="rgba(255,255,255,0.20)" stroke-width="2.5" opacity="0.80"/>
  </g>

  <!-- Glass rim highlight -->
  <path d="M310 247 L714 247"
        stroke="rgba(255,255,255,0.35)"
        stroke-width="5"
        stroke-linecap="round"/>

  <!-- Glass left edge highlight -->
  <path d="M314 257 L342 737"
        stroke="rgba(255,255,255,0.1)"
        stroke-width="8"
        stroke-linecap="round"/>

  <!-- Glass surface highlight overlay -->
  <path d="M310 247 L340 747 Q345 777 380 777 L644 777 Q679 777 684 747 L714 247 Z"
        fill="url(#glassHighlight)"/>
</svg>