<svg xmlns="http://www.w3.org/2000/svg" viewBox="0 0 1024 1024" width="1024" height="1024">
  <defs>
    <linearGradient id="bg" x1="0" y1="0" x2="0" y2="1">
      <stop offset="0%" stop-color="#1a1a2e"/>
      <stop offset="100%" stop-color="#16213e"/>
    </linearGradient>
    <linearGradient id="liquid" x1="0" y1="0" x2="1" y2="1">
      <stop offset="0%" stop-color="#e94560"/>
      <stop offset="50%" stop-color="#c23373"/>
      <stop offset="100%" stop-color="#7b2ff7"/>
    </linearGradient>
    <linearGradient id="glassHighlight" x1="0" y1="0" x2="1" y2="0">
      <stop offset="0%" stop-color="rgba(255,255,255,0.15)"/>
      <stop offset="40%" stop-color="rgba(255,255,255,0)"/>
    </linearGradient>
    <radialGradient id="bubbleGlow">
      <stop offset="0%" stop-color="rgba(255,255,255,0.5)"/>
      <stop offset="100%" stop-color="rgba(255,255,255,0.1)"/>
    </radialGradient>
    <clipPath id="glassClip">
      <path d="M310 247 L340 747 Q345 777 380 777 L644 777 Q679 777 684 747 L714 247 Z"/>
    </clipPath>
  </defs>

  <!-- Background -->
  <rect width="1024" height="1024" fill="#1a1a2e"/>

  <!-- Glass body -->
  <path d="M310 247 L340 747 Q345 777 380 777 L644 777 Q679 777 684 747 L714 247 Z"
        fill="rgba(255,255,255,0.06)"
        stroke="rgba(255,255,255,0.25)"
        stroke-width="4"/>

  <!-- Liquid fill with wavy surface -->
  <g clip-path="url(#glassClip)">
    <path d="M310.0 346.5 L320.1 347.9 L330.2 349.2 L340.3 350.6 L350.4 351.8 L360.5 353.0 L370.6 353.9 L380.7 354.7 L390.8 355.3 L400.9 355.6 L411.0 355.7 L421.1 355.5 L431.2 355.0 L441.3 354.4 L451.4 353.4 L461.5 352.3 L471.6 351.0 L481.7 349.6 L491.8 348.1 L501.9 346.6 L512.0 345.1 L522.1 343.7 L532.2 342.3 L542.3 341.1 L552.4 340.1 L562.5 339.3 L572.6 338.7 L582.7 338.4 L592.8 338.3 L602.9 338.5 L613.0 339.0 L623.1 339.6 L633.2 340.5 L643.3 341.6 L653.4 342.8 L663.5 344.1 L673.6 345.5 L683.7 346.8 L693.8 348.2 L703.9 349.4 L714.0 350.6 L714 800 L310 800 Z" fill="url(#liquid)"/>
    <path d="M310.0 341.5 L320.1 342.9 L330.2 344.2 L340.3 345.6 L350.4 346.8 L360.5 348.0 L370.6 348.9 L380.7 349.7 L390.8 350.3 L400.9 350.6 L411.0 350.7 L421.1 350.5 L431.2 350.0 L441.3 349.4 L451.4 348.4 L461.5 347.3 L471.6 346.0 L481.7 344.6 L491.8 343.1 L501.9 341.6 L512.0 340.1 L522.1 338.7 L532.2 337.3 L542.3 336.1 L552.4 335.1 L562.5 334.3 L572.6 333.7 L582.7 333.4 L592.8 333.3 L602.9 333.5 L613.0 334.0 L623.1 334.6 L633.2 335.5 L643.3 336.6 L653.4 337.8 L663.5 339.1 L673.6 340.5 L683.7 341.8 L693.8 343.2 L703.9 344.4 L714.0 345.6 L714.0 368.6 L703.9 367.4 L693.8 366.2 L683.7 364.8 L673.6 363.5 L663.5 362.1 L653.4 360.8 L643.3 359.6 L633.2 358.5 L623.1 357.6 L613.0 357.0 L602.9 356.5 L592.8 356.3 L582.7 356.4 L572.6 356.7 L562.5 357.3 L552.4 358.1 L542.3 359.1 L532.2 360.3 L522.1 361.7 L512.0 363.1 L501.9 364.6 L491.8 366.1 L481.7 367.6 L471.6 369.0 L461.5 370.3 L451.4 371.4 L441.3 372.4 L431.2 373.0 L421.1 373.5 L411.0 373.7 L400.9 373.6 L390.8 373.3 L380.7 372.7 L370.6 371.9 L360.5 371.0 L350.4 369.8 L340.3 368.6 L330.2 367.2 L320.1 365.9 L310.0 364.5 Z" fill="rgba(255,255,255,0.12)"/>
    <circle cx="572.1" cy="617.7" r="36.3" fill="url(#bubbleGlow)" stroke="rgba(255,255,255,0.20)" stroke-width="2.5" opacity="0.80"/>
    <circle cx="493.0" cy="481.2" r="32.6" fill="url(#bubbleGlow)" stroke="rgba(255,255,255,0.20)" stroke-width="2.5" opacity="0.80"/>
    <circle cx="616.7" cy="390.6" r="29.6" fill="url(#bubbleGlow)" stroke="rgba(255,255,255,0.20)" stroke-width="2.5" opacity="0.80"/>
    <circle cx="387.5" cy="699.0" r="20.2" fill="url(#bubbleGlow)" stroke="rgba(255,255,255,0.20)" stroke-width="2.5" opacity="0.80"/>
    <circle cx="551.5" cy="432.6" r="24.4" fill="url(#bubbleGlow)" stroke="rgba(255,255,255,0.20)" stroke-width="2.5" opacity="0.80"/>
    <circle cx="477.7" cy="539.9" r="19.1" fill="url(#bubbleGlow)" stroke="rgba(255,255,255,0.20)" stroke-width="2.5" opacity="0.80"/>
    <circle cx="650.0" cy="372.0" r="15.4" fill="url(#bubbleGlow)" stroke="rgba(255,255,255,0.12)" stroke-width="2.5" opacity="0.50"/>
  </g>

  <!-- Glass rim highlight -->
  <path d="M310 247 L714 247"
        stroke="rgba(255,255,255,0.35)"
        stroke-width="5"
        stroke-linecap="round"/>

  <!-- Glass left edge highlight -->
  <path d="M314 257 L342 737"
        stroke="rgba(255,255,255,0.1)"
        stroke-width="8"
        stroke-linecap="round"/>

  <!-- Glass surface highlight overlay -->
  <path d="M310 247 L340 747 Q345 777 380 777 L644 777 Q679 777 684 747 L714 247 Z"
        fill="url(#glassHighlight)"/>
</svg>