<svg xmlns="http://www.w3.org/2000/svg" viewBox="0 0 1024 1024" width="1024" height="1024">
  <defs>
    <linearGradient id="bg" x1="0" y1="0" x2="0" y2="1">
      <stop offset="0%" stop-color="#1a1a2e"/>
      <stop offset="100%" stop-color="#16213e"/>
    </linearGradient>
    <linearGradient id="liquid" x1="0" y1="0" x2="1" y2="1">
      <stop offset="0%" stop-color="#e94560"/>
      <stop offset="50%" stop-color="#c23373"/>
      <stop offset="100%" stop-color="#7b2ff7"/>
    </linearGradient>
    <linearGradient id="glassHighlight" x1="0" y1="0" x2="1" y2="0">
      <stop offset="0%" stop-color="rgba(255,255,255,0.15)"/>
      <stop offset="40%" stop-color="rgba(255,255,255,0)"/>
    </linearGradient>
    <radialGradient id="bubbleGlow">
      <stop offset="0%" stop-color="rgba(255,255,255,0.5)"/>
      <stop offset="100%" stop-color="rgba(255,255,255,0.1)"/>
    </radialGradient>
    <clipPath id="glassClip">
      <path d="M310 247 L340 747 Q345 777 380 777 L644 777 Q679 777 684 747 L714 247 Z"/>
    </clipPath>
  </defs>

  <!-- Background -->
  <rect width="1024" height="1024" fill="#1a1a2e"/>

  <!-- Glass body -->
  <path d="M310 247 L340 747 Q345 777 380 777 L644 777 Q679 777 684 747 L714 247 Z"
        fill="rgba(255,255,255,0.06)"
        stroke="rgba(255,255,255,0.25)"
        stroke-width="4"/>

  <!-- Liquid fill with wavy surface -->
  <g clip-path="url(#glassClip)">
    <path d="M310.0 350.9 L320.1 351.0 L330.2 351.0 L340.3 350.7 L350.4 350.3 L360.5 349.7 L370.6 349.0 L380.7 348.1 L390.8 347.1 L400.9 346.1 L411.0 345.1 L421.1 344.1 L431.2 343.1 L441.3 342.3 L451.4 341.5 L461.5 341.0 L471.6 340.6 L481.7 340.5 L491.8 340.5 L501.9 340.8 L512.0 341.3 L522.1 342.0 L532.2 342.9 L542.3 344.0 L552.4 345.2 L562.5 346.5 L572.6 347.9 L582.7 349.2 L592.8 350.6 L602.9 351.8 L613.0 353.0 L623.1 353.9 L633.2 354.7 L643.3 355.3 L653.4 355.6 L663.5 355.7 L673.6 355.5 L683.7 355.0 L693.8 354.4 L703.9 353.4 L714.0 352.3 L714 800 L310 800 Z" fill="url(#liquid)"/>
    <path d="M310.0 345.9 L320.1 346.0 L330.2 346.0 L340.3 345.7 L350.4 345.3 L360.5 344.7 L370.6 344.0 L380.7 343.1 L390.8 342.1 L400.9 341.1 L411.0 340.1 L421.1 339.1 L431.2 338.1 L441.3 337.3 L451.4 336.5 L461.5 336.0 L471.6 335.6 L481.7 335.5 L491.8 335.5 L501.9 335.8 L512.0 336.3 L522.1 337.0 L532.2 337.9 L542.3 339.0 L552.4 340.2 L562.5 341.5 L572.6 342.9 L582.7 344.2 L592.8 345.6 L602.9 346.8 L613.0 348.0 L623.1 348.9 L633.2 349.7 L643.3 350.3 L653.4 350.6 L663.5 350.7 L673.6 350.5 L683.7 350.0 L693.8 349.4 L703.9 348.4 L714.0 347.3 L714.0 370.3 L703.9 371.4 L693.8 372.4 L683.7 373.0 L673.6 373.5 L663.5 373.7 L653.4 373.6 L643.3 373.3 L633.2 372.7 L623.1 371.9 L613.0 371.0 L602.9 369.8 L592.8 368.6 L582.7 367.2 L572.6 365.9 L562.5 364.5 L552.4 363.2 L542.3 362.0 L532.2 360.9 L522.1 360.0 L512.0 359.3 L501.9 358.8 L491.8 358.5 L481.7 358.5 L471.6 358.6 L461.5 359.0 L451.4 359.5 L441.3 360.3 L431.2 361.1 L421.1 362.1 L411.0 363.1 L400.9 364.1 L390.8 365.1 L380.7 366.1 L370.6 367.0 L360.5 367.7 L350.4 368.3 L340.3 368.7 L330.2 369.0 L320.1 369.0 L310.0 368.9 Z" fill="rgba(255,255,255,0.12)"/>
    <circle cx="445.7" cy="620.1" r="43.6" fill="url(#bubbleGlow)" stroke="rgba(255,255,255,0.20)" stroke-width="2.5" opacity="0.80"/>
    <circle cx="587.9" cy="484.9" r="38.1" fill="url(#bubbleGlow)" stroke="rgba(255,255,255,0.20)" stroke-width="2.5" opacity="0.80"/>
    <circle cx="507.0" cy="394.5" r="34.1" fill="url(#bubbleGlow)" stroke="rgba(255,255,255,0.20)" stroke-width="2.5" opacity="0.80"/>
    <circle cx="372.5" cy="541.0" r="21.2" fill="url(#bubbleGlow)" stroke="rgba(255,255,255,0.20)" stroke-width="2.5" opacity="0.80"/>
    <circle cx="550.0" cy="378.0" r="21.2" fill="url(#bubbleGlow)" stroke="rgba(255,255,255,0.13)" stroke-width="2.5" opacity="0.50"/>
    <circle cx="462.3" cy="421.6" r="20.0" fill="url(#bubbleGlow)" stroke="rgba(255,255,255,0.20)" stroke-width="2.5" opacity="0.80"/>
    <circle cx="653.5" cy="712.7" r="16.1" fill="url(#bubbleGlow)" stroke="rgba(255,255,255,0.20)" stroke-width="2.5" opacity="0.80"/>
  </g>

  <!-- Glass rim highlight -->
  <path d="M310 247 L714 247"
        stroke="rgba(255,255,255,0.35)"
        stroke-width="5"
        stroke-linecap="round"/>

  <!-- Glass left edge highlight -->
  <path d="M314 257 L342 737"
        stroke="rgba(255,255,255,0.1)"
        stroke-width="8"
        stroke-linecap="round"/>

  <!-- Glass surface highlight overlay -->
  <path d="M310 247 L340 747 Q345 777 380 777 L644 777 Q679 777 684 747 L714 247 Z"
        fill="url(#glassHighlight)"/>
</svg>