<svg xmlns="http://www.w3.org/2000/svg" viewBox="0 0 1024 1024" width="1024" height="1024">
  <defs>
    <linearGradient id="bg" x1="0" y1="0" x2="0" y2="1">
      <stop offset="0%" stop-color="#1a1a2e"/>
      <stop offset="100%" stop-color="#16213e"/>
    </linearGradient>
    <linearGradient id="liquid" x1="0" y1="0" x2="1" y2="1">
      <stop offset="0%" stop-color="#e94560"/>
      <stop offset="50%" stop-color="#c23373"/>
      <stop offset="100%" stop-color="#7b2ff7"/>
    </linearGradient>
    <linearGradient id="glassHighlight" x1="0" y1="0" x2="1" y2="0">
      <stop offset="0%" stop-color="rgba(255,255,255,0.15)"/>
      <stop offset="40%" stop-color="rgba(255,255,255,0)"/>
    </linearGradient>
    <radialGradient id="bubbleGlow">
      <stop offset="0%" stop-color="rgba(255,255,255,0.5)"/>
      <stop offset="100%" stop-color="rgba(255,255,255,0.1)"/>
    </radialGradient>
    <clipPath id="glassClip">
      <path d="M310 247 L340 747 Q345 777 380 777 L644 777 Q679 777 684 747 L714 247 Z"/>
    </clipPath>
  </defs>

  <!-- Background -->
  <rect width="1024" height="1024" fill="#1a1a2e"/>

  <!-- Glass body -->
  <path d="M310 247 L340 747 Q345 777 380 777 L644 777 Q679 777 684 747 L714 247 Z"
        fill="rgba(255,255,255,0.06)"
        stroke="rgba(255,255,255,0.25)"
        stroke-width="4"/>

  <!-- Liquid fill with wavy surface -->
  <g clip-path="url(#glassClip)">
    <path d="M310.0 354.2 L320.1 353.2 L330.2 352.1 L340.3 350.9 L350.4 349.6 L360.5 348.2 L370.6 346.8 L380.7 345.5 L390.8 344.3 L400.9 343.2 L411.0 342.2 L421.1 341.5 L431.2 340.9 L441.3 340.6 L451.4 340.4 L461.5 340.6 L471.6 340.9 L481.7 341.4 L491.8 342.1 L501.9 342.9 L512.0 343.8 L522.1 344.8 L532.2 345.9 L542.3 346.9 L552.4 347.9 L562.5 348.8 L572.6 349.5 L582.7 350.2 L592.8 350.6 L602.9 350.9 L613.0 351.0 L623.1 351.0 L633.2 350.7 L643.3 350.3 L653.4 349.7 L663.5 349.0 L673.6 348.3 L683.7 347.4 L693.8 346.6 L703.9 345.7 L714.0 345.0 L714 800 L310 800 Z" fill="url(#liquid)"/>
    <path d="M310.0 349.2 L320.1 348.2 L330.2 347.1 L340.3 345.9 L350.4 344.6 L360.5 343.2 L370.6 341.8 L380.7 340.5 L390.8 339.3 L400.9 338.2 L411.0 337.2 L421.1 336.5 L431.2 335.9 L441.3 335.6 L451.4 335.4 L461.5 335.6 L471.6 335.9 L481.7 336.4 L491.8 337.1 L501.9 337.9 L512.0 338.8 L522.1 339.8 L532.2 340.9 L542.3 341.9 L552.4 342.9 L562.5 343.8 L572.6 344.5 L582.7 345.2 L592.8 345.6 L602.9 345.9 L613.0 346.0 L623.1 346.0 L633.2 345.7 L643.3 345.3 L653.4 344.7 L663.5 344.0 L673.6 343.3 L683.7 342.4 L693.8 341.6 L703.9 340.7 L714.0 340.0 L714.0 363.0 L703.9 363.7 L693.8 364.6 L683.7 365.4 L673.6 366.3 L663.5 367.0 L653.4 367.7 L643.3 368.3 L633.2 368.7 L623.1 369.0 L613.0 369.0 L602.9 368.9 L592.8 368.6 L582.7 368.2 L572.6 367.5 L562.5 366.8 L552.4 365.9 L542.3 364.9 L532.2 363.9 L522.1 362.8 L512.0 361.8 L501.9 360.9 L491.8 360.1 L481.7 359.4 L471.6 358.9 L461.5 358.6 L451.4 358.4 L441.3 358.6 L431.2 358.9 L421.1 359.5 L411.0 360.2 L400.9 361.2 L390.8 362.3 L380.7 363.5 L370.6 364.8 L360.5 366.2 L350.4 367.6 L340.3 368.9 L330.2 370.1 L320.1 371.2 L310.0 372.2 Z" fill="rgba(255,255,255,0.12)"/>
    <circle cx="432.0" cy="518.9" r="45.1" fill="url(#bubbleGlow)" stroke="rgba(255,255,255,0.20)" stroke-width="2.5" opacity="0.80"/>
    <circle cx="573.6" cy="414.7" r="39.4" fill="url(#bubbleGlow)" stroke="rgba(255,255,255,0.20)" stroke-width="2.5" opacity="0.80"/>
    <circle cx="622.8" cy="654.3" r="26.6" fill="url(#bubbleGlow)" stroke="rgba(255,255,255,0.20)" stroke-width="2.5" opacity="0.80"/>
    <circle cx="387.3" cy="448.2" r="22.0" fill="url(#bubbleGlow)" stroke="rgba(255,255,255,0.20)" stroke-width="2.5" opacity="0.80"/>
    <circle cx="473.8" cy="374.2" r="20.7" fill="url(#bubbleGlow)" stroke="rgba(255,255,255,0.20)" stroke-width="2.5" opacity="0.80"/>
    <circle cx="642.4" cy="587.5" r="16.7" fill="url(#bubbleGlow)" stroke="rgba(255,255,255,0.20)" stroke-width="2.5" opacity="0.80"/>
  </g>

  <!-- Glass rim highlight -->
  <path d="M310 247 L714 247"
        stroke="rgba(255,255,255,0.35)"
        stroke-width="5"
        stroke-linecap="round"/>

  <!-- Glass left edge highlight -->
  <path d="M314 257 L342 737"
        stroke="rgba(255,255,255,0.1)"
        stroke-width="8"
        stroke-linecap="round"/>

  <!-- Glass surface highlight overlay -->
  <path d="M310 247 L340 747 Q345 777 380 777 L644 777 Q679 777 684 747 L714 247 Z"
        fill="url(#glassHighlight)"/>
</svg>