<svg xmlns="http://www.w3.org/2000/svg" viewBox="0 0 1024 1024" width="1024" height="1024">
  <defs>
    <linearGradient id="bg" x1="0" y1="0" x2="0" y2="1">
      <stop offset="0%" stop-color="#1a1a2e"/>
      <stop offset="100%" stop-color="#16213e"/>
    </linearGradient>
    <linearGradient id="liquid" x1="0" y1="0" x2="1" y2="1">
      <stop offset="0%" stop-color="#e94560"/>
      <stop offset="50%" stop-color="#c23373"/>
      <stop offset="100%" stop-color="#7b2ff7"/>
    </linearGradient>
    <linearGradient id="glassHighlight" x1="0" y1="0" x2="1" y2="0">
      <stop offset="0%" stop-color="rgba(255,255,255,0.15)"/>
      <stop offset="40%" stop-color="rgba(255,255,255,0)"/>
    </linearGradient>
    <radialGradient id="bubbleGlow">
      <stop offset="0%" stop-color="rgba(255,255,255,0.5)"/>
      <stop offset="100%" stop-color="rgba(255,255,255,0.1)"/>
    </radialGradient>
    <clipPath id="glassClip">
      <path d="M310 247 L340 747 Q345 777 380 777 L644 777 Q679 777 684 747 L714 247 Z"/>
    </clipPath>
  </defs>

  <!-- Background -->
  <rect width="1024" height="1024" fill="#1a1a2e"/>

  <!-- Glass body -->
  <path d="M310 247 L340 747 Q345 777 380 777 L644 777 Q679 777 684 747 L714 247 Z"
        fill="rgba(255,255,255,0.06)"
        stroke="rgba(255,255,255,0.25)"
        stroke-width="4"/>

  <!-- Liquid fill with wavy surface -->
  <g clip-path="url(#glassClip)">
    <path d="M310.0 351.3 L320.1 350.4 L330.2 349.4 L340.3 348.4 L350.4 347.4 L360.5 346.4 L370.6 345.5 L380.7 344.7 L390.8 344.0 L400.9 343.5 L411.0 343.1 L421.1 343.0 L431.2 343.0 L441.3 343.2 L451.4 343.6 L461.5 344.1 L471.6 344.8 L481.7 345.5 L491.8 346.4 L501.9 347.2 L512.0 348.0 L522.1 348.8 L532.2 349.6 L542.3 350.1 L552.4 350.6 L562.5 350.9 L572.6 351.0 L582.7 351.0 L592.8 350.7 L602.9 350.3 L613.0 349.7 L623.1 349.0 L633.2 348.1 L643.3 347.1 L653.4 346.1 L663.5 345.1 L673.6 344.1 L683.7 343.1 L693.8 342.3 L703.9 341.5 L714.0 341.0 L714 800 L310 800 Z" fill="url(#liquid)"/>
    <path d="M310.0 346.3 L320.1 345.4 L330.2 344.4 L340.3 343.4 L350.4 342.4 L360.5 341.4 L370.6 340.5 L380.7 339.7 L390.8 339.0 L400.9 338.5 L411.0 338.1 L421.1 338.0 L431.2 338.0 L441.3 338.2 L451.4 338.6 L461.5 339.1 L471.6 339.8 L481.7 340.5 L491.8 341.4 L501.9 342.2 L512.0 343.0 L522.1 343.8 L532.2 344.6 L542.3 345.1 L552.4 345.6 L562.5 345.9 L572.6 346.0 L582.7 346.0 L592.8 345.7 L602.9 345.3 L613.0 344.7 L623.1 344.0 L633.2 343.1 L643.3 342.1 L653.4 341.1 L663.5 340.1 L673.6 339.1 L683.7 338.1 L693.8 337.3 L703.9 336.5 L714.0 336.0 L714.0 359.0 L703.9 359.5 L693.8 360.3 L683.7 361.1 L673.6 362.1 L663.5 363.1 L653.4 364.1 L643.3 365.1 L633.2 366.1 L623.1 367.0 L613.0 367.7 L602.9 368.3 L592.8 368.7 L582.7 369.0 L572.6 369.0 L562.5 368.9 L552.4 368.6 L542.3 368.1 L532.2 367.6 L522.1 366.8 L512.0 366.0 L501.9 365.2 L491.8 364.4 L481.7 363.5 L471.6 362.8 L461.5 362.1 L451.4 361.6 L441.3 361.2 L431.2 361.0 L421.1 361.0 L411.0 361.1 L400.9 361.5 L390.8 362.0 L380.7 362.7 L370.6 363.5 L360.5 364.4 L350.4 365.4 L340.3 366.4 L330.2 367.4 L320.1 368.4 L310.0 369.3 Z" fill="rgba(255,255,255,0.12)"/>
    <circle cx="434.3" cy="490.0" r="45.7" fill="url(#bubbleGlow)" stroke="rgba(255,255,255,0.20)" stroke-width="2.5" opacity="0.80"/>
    <circle cx="572.1" cy="399.4" r="39.8" fill="url(#bubbleGlow)" stroke="rgba(255,255,255,0.20)" stroke-width="2.5" opacity="0.80"/>
    <circle cx="616.7" cy="614.5" r="27.0" fill="url(#bubbleGlow)" stroke="rgba(255,255,255,0.20)" stroke-width="2.5" opacity="0.80"/>
    <circle cx="387.5" cy="423.3" r="22.2" fill="url(#bubbleGlow)" stroke="rgba(255,255,255,0.20)" stroke-width="2.5" opacity="0.80"/>
    <circle cx="551.5" cy="713.2" r="22.2" fill="url(#bubbleGlow)" stroke="rgba(255,255,255,0.20)" stroke-width="2.5" opacity="0.80"/>
    <circle cx="470.0" cy="374.0" r="15.5" fill="url(#bubbleGlow)" stroke="rgba(255,255,255,0.09)" stroke-width="2.5" opacity="0.34"/>
    <circle cx="646.5" cy="550.2" r="16.9" fill="url(#bubbleGlow)" stroke="rgba(255,255,255,0.20)" stroke-width="2.5" opacity="0.80"/>
  </g>

  <!-- Glass rim highlight -->
  <path d="M310 247 L714 247"
        stroke="rgba(255,255,255,0.35)"
        stroke-width="5"
        stroke-linecap="round"/>

  <!-- Glass left edge highlight -->
  <path d="M314 257 L342 737"
        stroke="rgba(255,255,255,0.1)"
        stroke-width="8"
        stroke-linecap="round"/>

  <!-- Glass surface highlight overlay -->
  <path d="M310 247 L340 747 Q345 777 380 777 L644 777 Q679 777 684 747 L714 247 Z"
        fill="url(#glassHighlight)"/>
</svg>