<svg xmlns="http://www.w3.org/2000/svg" viewBox="0 0 1024 1024" width="1024" height="1024">
  <defs>
    <linearGradient id="bg" x1="0" y1="0" x2="0" y2="1">
      <stop offset="0%" stop-color="#1a1a2e"/>
      <stop offset="100%" stop-color="#16213e"/>
    </linearGradient>
    <linearGradient id="liquid" x1="0" y1="0" x2="1" y2="1">
      <stop offset="0%" stop-color="#e94560"/>
      <stop offset="50%" stop-color="#c23373"/>
      <stop offset="100%" stop-color="#7b2ff7"/>
    </linearGradient>
    <linearGradient id="glassHighlight" x1="0" y1="0" x2="1" y2="0">
      <stop offset="0%" stop-color="rgba(255,255,255,0.15)"/>
      <stop offset="40%" stop-color="rgba(255,255,255,0)"/>
    </linearGradient>
    <radialGradient id="bubbleGlow">
      <stop offset="0%" stop-color="rgba(255,255,255,0.5)"/>
      <stop offset="100%" stop-color="rgba(255,255,255,0.1)"/>
    </radialGradient>
    <clipPath id="glassClip">
      <path d="M310 247 L340 747 Q345 777 380 777 L644 777 Q679 777 684 747 L714 247 Z"/>
    </clipPath>
  </defs>

  <!-- Background -->
  <rect width="1024" height="1024" fill="#1a1a2e"/>

  <!-- Glass body -->
  <path d="M310 247 L340 747 Q345 777 380 777 L644 777 Q679 777 684 747 L714 247 Z"
        fill="rgba(255,255,255,0.06)"
        stroke="rgba(255,255,255,0.25)"
        stroke-width="4"/>

  <!-- Liquid fill with wavy surface -->
  <g clip-path="url(#glassClip)">
    <path d="M310.0 348.8 L320.1 349.5 L330.2 350.2 L340.3 350.6 L350.4 350.9 L360.5 351.0 L370.6 351.0 L380.7 350.7 L390.8 350.3 L400.9 349.7 L411.0 349.0 L421.1 348.3 L431.2 347.4 L441.3 346.6 L451.4 345.7 L461.5 345.0 L471.6 344.3 L481.7 343.7 L491.8 343.3 L501.9 343.0 L512.0 343.0 L522.1 343.1 L532.2 343.4 L542.3 343.8 L552.4 344.5 L562.5 345.2 L572.6 346.1 L582.7 347.1 L592.8 348.1 L602.9 349.2 L613.0 350.2 L623.1 351.1 L633.2 351.9 L643.3 352.6 L653.4 353.1 L663.5 353.4 L673.6 353.6 L683.7 353.4 L693.8 353.1 L703.9 352.5 L714.0 351.8 L714 800 L310 800 Z" fill="url(#liquid)"/>
    <path d="M310.0 343.8 L320.1 344.5 L330.2 345.2 L340.3 345.6 L350.4 345.9 L360.5 346.0 L370.6 346.0 L380.7 345.7 L390.8 345.3 L400.9 344.7 L411.0 344.0 L421.1 343.3 L431.2 342.4 L441.3 341.6 L451.4 340.7 L461.5 340.0 L471.6 339.3 L481.7 338.7 L491.8 338.3 L501.9 338.0 L512.0 338.0 L522.1 338.1 L532.2 338.4 L542.3 338.8 L552.4 339.5 L562.5 340.2 L572.6 341.1 L582.7 342.1 L592.8 343.1 L602.9 344.2 L613.0 345.2 L623.1 346.1 L633.2 346.9 L643.3 347.6 L653.4 348.1 L663.5 348.4 L673.6 348.6 L683.7 348.4 L693.8 348.1 L703.9 347.5 L714.0 346.8 L714.0 369.8 L703.9 370.5 L693.8 371.1 L683.7 371.4 L673.6 371.6 L663.5 371.4 L653.4 371.1 L643.3 370.6 L633.2 369.9 L623.1 369.1 L613.0 368.2 L602.9 367.2 L592.8 366.1 L582.7 365.1 L572.6 364.1 L562.5 363.2 L552.4 362.5 L542.3 361.8 L532.2 361.4 L522.1 361.1 L512.0 361.0 L501.9 361.0 L491.8 361.3 L481.7 361.7 L471.6 362.3 L461.5 363.0 L451.4 363.7 L441.3 364.6 L431.2 365.4 L421.1 366.3 L411.0 367.0 L400.9 367.7 L390.8 368.3 L380.7 368.7 L370.6 369.0 L360.5 369.0 L350.4 368.9 L340.3 368.6 L330.2 368.2 L320.1 367.5 L310.0 366.8 Z" fill="rgba(255,255,255,0.12)"/>
    <circle cx="448.0" cy="658.2" r="43.0" fill="url(#bubbleGlow)" stroke="rgba(255,255,255,0.20)" stroke-width="2.5" opacity="0.80"/>
    <circle cx="578.4" cy="539.9" r="37.3" fill="url(#bubbleGlow)" stroke="rgba(255,255,255,0.20)" stroke-width="2.5" opacity="0.80"/>
    <circle cx="492.0" cy="436.6" r="33.3" fill="url(#bubbleGlow)" stroke="rgba(255,255,255,0.20)" stroke-width="2.5" opacity="0.80"/>
    <circle cx="621.2" cy="382.2" r="29.9" fill="url(#bubbleGlow)" stroke="rgba(255,255,255,0.20)" stroke-width="2.5" opacity="0.80"/>
  </g>

  <!-- Glass rim highlight -->
  <path d="M310 247 L714 247"
        stroke="rgba(255,255,255,0.35)"
        stroke-width="5"
        stroke-linecap="round"/>

  <!-- Glass left edge highlight -->
  <path d="M314 257 L342 737"
        stroke="rgba(255,255,255,0.1)"
        stroke-width="8"
        stroke-linecap="round"/>

  <!-- Glass surface highlight overlay -->
  <path d="M310 247 L340 747 Q345 777 380 777 L644 777 Q679 777 684 747 L714 247 Z"
        fill="url(#glassHighlight)"/>
</svg>