<svg xmlns="http://www.w3.org/2000/svg" viewBox="0 0 1024 1024" width="1024" height="1024">
  <defs>
    <linearGradient id="bg" x1="0" y1="0" x2="0" y2="1">
      <stop offset="0%" stop-color="#1a1a2e"/>
      <stop offset="100%" stop-color="#16213e"/>
    </linearGradient>
    <linearGradient id="liquid" x1="0" y1="0" x2="1" y2="1">
      <stop offset="0%" stop-color="#e94560"/>
      <stop offset="50%" stop-color="#c23373"/>
      <stop offset="100%" stop-color="#7b2ff7"/>
    </linearGradient>
    <linearGradient id="glassHighlight" x1="0" y1="0" x2="1" y2="0">
      <stop offset="0%" stop-color="rgba(255,255,255,0.15)"/>
      <stop offset="40%" stop-color="rgba(255,255,255,0)"/>
    </linearGradient>
    <radialGradient id="bubbleGlow">
      <stop offset="0%" stop-color="rgba(255,255,255,0.5)"/>
      <stop offset="100%" stop-color="rgba(255,255,255,0.1)"/>
    </radialGradient>
    <clipPath id="glassClip">
      <path d="M310 247 L340 747 Q345 777 380 777 L644 777 Q679 777 684 747 L714 247 Z"/>
    </clipPath>
  </defs>

  <!-- Background -->
  <rect width="1024" height="1024" fill="#1a1a2e"/>

  <!-- Glass body -->
  <path d="M310 247 L340 747 Q345 777 380 777 L644 777 Q679 777 684 747 L714 247 Z"
        fill="rgba(255,255,255,0.06)"
        stroke="rgba(255,255,255,0.25)"
        stroke-width="4"/>

  <!-- Liquid fill with wavy surface -->
  <g clip-path="url(#glassClip)">
    <path d="M310.0 339.3 L320.1 338.7 L330.2 338.4 L340.3 338.3 L350.4 338.5 L360.5 339.0 L370.6 339.6 L380.7 340.5 L390.8 341.6 L400.9 342.8 L411.0 344.1 L421.1 345.5 L431.2 346.8 L441.3 348.2 L451.4 349.4 L461.5 350.6 L471.6 351.6 L481.7 352.4 L491.8 353.0 L501.9 353.4 L512.0 353.5 L522.1 353.5 L532.2 353.2 L542.3 352.8 L552.4 352.1 L562.5 351.3 L572.6 350.4 L582.7 349.4 L592.8 348.4 L602.9 347.4 L613.0 346.4 L623.1 345.5 L633.2 344.7 L643.3 344.0 L653.4 343.5 L663.5 343.1 L673.6 343.0 L683.7 343.0 L693.8 343.2 L703.9 343.6 L714.0 344.1 L714 800 L310 800 Z" fill="url(#liquid)"/>
    <path d="M310.0 334.3 L320.1 333.7 L330.2 333.4 L340.3 333.3 L350.4 333.5 L360.5 334.0 L370.6 334.6 L380.7 335.5 L390.8 336.6 L400.9 337.8 L411.0 339.1 L421.1 340.5 L431.2 341.8 L441.3 343.2 L451.4 344.4 L461.5 345.6 L471.6 346.6 L481.7 347.4 L491.8 348.0 L501.9 348.4 L512.0 348.5 L522.1 348.5 L532.2 348.2 L542.3 347.8 L552.4 347.1 L562.5 346.3 L572.6 345.4 L582.7 344.4 L592.8 343.4 L602.9 342.4 L613.0 341.4 L623.1 340.5 L633.2 339.7 L643.3 339.0 L653.4 338.5 L663.5 338.1 L673.6 338.0 L683.7 338.0 L693.8 338.2 L703.9 338.6 L714.0 339.1 L714.0 362.1 L703.9 361.6 L693.8 361.2 L683.7 361.0 L673.6 361.0 L663.5 361.1 L653.4 361.5 L643.3 362.0 L633.2 362.7 L623.1 363.5 L613.0 364.4 L602.9 365.4 L592.8 366.4 L582.7 367.4 L572.6 368.4 L562.5 369.3 L552.4 370.1 L542.3 370.8 L532.2 371.2 L522.1 371.5 L512.0 371.5 L501.9 371.4 L491.8 371.0 L481.7 370.4 L471.6 369.6 L461.5 368.6 L451.4 367.4 L441.3 366.2 L431.2 364.8 L421.1 363.5 L411.0 362.1 L400.9 360.8 L390.8 359.6 L380.7 358.5 L370.6 357.6 L360.5 357.0 L350.4 356.5 L340.3 356.3 L330.2 356.4 L320.1 356.7 L310.0 357.3 Z" fill="rgba(255,255,255,0.12)"/>
    <circle cx="445.7" cy="406.2" r="47.8" fill="url(#bubbleGlow)" stroke="rgba(255,255,255,0.20)" stroke-width="2.5" opacity="0.80"/>
    <circle cx="494.7" cy="666.7" r="30.6" fill="url(#bubbleGlow)" stroke="rgba(255,255,255,0.20)" stroke-width="2.5" opacity="0.80"/>
    <circle cx="615.2" cy="544.2" r="27.6" fill="url(#bubbleGlow)" stroke="rgba(255,255,255,0.20)" stroke-width="2.5" opacity="0.80"/>
  </g>

  <!-- Glass rim highlight -->
  <path d="M310 247 L714 247"
        stroke="rgba(255,255,255,0.35)"
        stroke-width="5"
        stroke-linecap="round"/>

  <!-- Glass left edge highlight -->
  <path d="M314 257 L342 737"
        stroke="rgba(255,255,255,0.1)"
        stroke-width="8"
        stroke-linecap="round"/>

  <!-- Glass surface highlight overlay -->
  <path d="M310 247 L340 747 Q345 777 380 777 L644 777 Q679 777 684 747 L714 247 Z"
        fill="url(#glassHighlight)"/>
</svg>