<svg xmlns="http://www.w3.org/2000/svg" viewBox="0 0 1024 1024" width="1024" height="1024">
  <defs>
    <linearGradient id="bg" x1="0" y1="0" x2="0" y2="1">
      <stop offset="0%" stop-color="#1a1a2e"/>
      <stop offset="100%" stop-color="#16213e"/>
    </linearGradient>
    <linearGradient id="liquid" x1="0" y1="0" x2="1" y2="1">
      <stop offset="0%" stop-color="#e94560"/>
      <stop offset="50%" stop-color="#c23373"/>
      <stop offset="100%" stop-color="#7b2ff7"/>
    </linearGradient>
    <linearGradient id="glassHighlight" x1="0" y1="0" x2="1" y2="0">
      <stop offset="0%" stop-color="rgba(255,255,255,0.15)"/>
      <stop offset="40%" stop-color="rgba(255,255,255,0)"/>
    </linearGradient>
    <radialGradient id="bubbleGlow">
      <stop offset="0%" stop-color="rgba(255,255,255,0.5)"/>
      <stop offset="100%" stop-color="rgba(255,255,255,0.1)"/>
    </radialGradient>
    <clipPath id="glassClip">
      <path d="M310 247 L340 747 Q345 777 380 777 L644 777 Q679 777 684 747 L714 247 Z"/>
    </clipPath>
  </defs>

  <!-- Background -->
  <rect width="1024" height="1024" fill="#1a1a2e"/>

  <!-- Glass body -->
  <path d="M310 247 L340 747 Q345 777 380 777 L644 777 Q679 777 684 747 L714 247 Z"
        fill="rgba(255,255,255,0.06)"
        stroke="rgba(255,255,255,0.25)"
        stroke-width="4"/>

  <!-- Liquid fill with wavy surface -->
  <g clip-path="url(#glassClip)">
    <path d="M310.0 342.7 L320.1 341.9 L330.2 341.2 L340.3 340.8 L350.4 340.5 L360.5 340.5 L370.6 340.6 L380.7 341.0 L390.8 341.6 L400.9 342.4 L411.0 343.4 L421.1 344.6 L431.2 345.8 L441.3 347.2 L451.4 348.5 L461.5 349.9 L471.6 351.2 L481.7 352.4 L491.8 353.5 L501.9 354.4 L512.0 355.0 L522.1 355.5 L532.2 355.7 L542.3 355.6 L552.4 355.3 L562.5 354.7 L572.6 353.9 L582.7 352.9 L592.8 351.7 L602.9 350.3 L613.0 348.9 L623.1 347.4 L633.2 345.9 L643.3 344.4 L653.4 343.0 L663.5 341.7 L673.6 340.6 L683.7 339.6 L693.8 339.0 L703.9 338.5 L714.0 338.3 L714 800 L310 800 Z" fill="url(#liquid)"/>
    <path d="M310.0 337.7 L320.1 336.9 L330.2 336.2 L340.3 335.8 L350.4 335.5 L360.5 335.5 L370.6 335.6 L380.7 336.0 L390.8 336.6 L400.9 337.4 L411.0 338.4 L421.1 339.6 L431.2 340.8 L441.3 342.2 L451.4 343.5 L461.5 344.9 L471.6 346.2 L481.7 347.4 L491.8 348.5 L501.9 349.4 L512.0 350.0 L522.1 350.5 L532.2 350.7 L542.3 350.6 L552.4 350.3 L562.5 349.7 L572.6 348.9 L582.7 347.9 L592.8 346.7 L602.9 345.3 L613.0 343.9 L623.1 342.4 L633.2 340.9 L643.3 339.4 L653.4 338.0 L663.5 336.7 L673.6 335.6 L683.7 334.6 L693.8 334.0 L703.9 333.5 L714.0 333.3 L714.0 356.3 L703.9 356.5 L693.8 357.0 L683.7 357.6 L673.6 358.6 L663.5 359.7 L653.4 361.0 L643.3 362.4 L633.2 363.9 L623.1 365.4 L613.0 366.9 L602.9 368.3 L592.8 369.7 L582.7 370.9 L572.6 371.9 L562.5 372.7 L552.4 373.3 L542.3 373.6 L532.2 373.7 L522.1 373.5 L512.0 373.0 L501.9 372.4 L491.8 371.5 L481.7 370.4 L471.6 369.2 L461.5 367.9 L451.4 366.5 L441.3 365.2 L431.2 363.8 L421.1 362.6 L411.0 361.4 L400.9 360.4 L390.8 359.6 L380.7 359.0 L370.6 358.6 L360.5 358.5 L350.4 358.5 L340.3 358.8 L330.2 359.2 L320.1 359.9 L310.0 360.7 Z" fill="rgba(255,255,255,0.12)"/>
    <circle cx="445.7" cy="440.8" r="46.7" fill="url(#bubbleGlow)" stroke="rgba(255,255,255,0.20)" stroke-width="2.5" opacity="0.80"/>
    <circle cx="580.0" cy="391.0" r="38.1" fill="url(#bubbleGlow)" stroke="rgba(255,255,255,0.18)" stroke-width="2.5" opacity="0.70"/>
    <circle cx="626.4" cy="617.6" r="26.9" fill="url(#bubbleGlow)" stroke="rgba(255,255,255,0.20)" stroke-width="2.5" opacity="0.80"/>
  </g>

  <!-- Glass rim highlight -->
  <path d="M310 247 L714 247"
        stroke="rgba(255,255,255,0.35)"
        stroke-width="5"
        stroke-linecap="round"/>

  <!-- Glass left edge highlight -->
  <path d="M314 257 L342 737"
        stroke="rgba(255,255,255,0.1)"
        stroke-width="8"
        stroke-linecap="round"/>

  <!-- Glass surface highlight overlay -->
  <path d="M310 247 L340 747 Q345 777 380 777 L644 777 Q679 777 684 747 L714 247 Z"
        fill="url(#glassHighlight)"/>
</svg>