<svg xmlns="http://www.w3.org/2000/svg" viewBox="0 0 1024 1024" width="1024" height="1024">
  <defs>
    <linearGradient id="bg" x1="0" y1="0" x2="0" y2="1">
      <stop offset="0%" stop-color="#1a1a2e"/>
      <stop offset="100%" stop-color="#16213e"/>
    </linearGradient>
    <linearGradient id="liquid" x1="0" y1="0" x2="1" y2="1">
      <stop offset="0%" stop-color="#e94560"/>
      <stop offset="50%" stop-color="#c23373"/>
      <stop offset="100%" stop-color="#7b2ff7"/>
    </linearGradient>
    <linearGradient id="glassHighlight" x1="0" y1="0" x2="1" y2="0">
      <stop offset="0%" stop-color="rgba(255,255,255,0.15)"/>
      <stop offset="40%" stop-color="rgba(255,255,255,0)"/>
    </linearGradient>
    <radialGradient id="bubbleGlow">
      <stop offset="0%" stop-color="rgba(255,255,255,0.5)"/>
      <stop offset="100%" stop-color="rgba(255,255,255,0.1)"/>
    </radialGradient>
    <clipPath id="glassClip">
      <path d="M310 247 L340 747 Q345 777 380 777 L644 777 Q679 777 684 747 L714 247 Z"/>
    </clipPath>
  </defs>

  <!-- Background -->
  <rect width="1024" height="1024" fill="#1a1a2e"/>

  <!-- Glass body -->
  <path d="M310 247 L340 747 Q345 777 380 777 L644 777 Q679 777 684 747 L714 247 Z"
        fill="rgba(255,255,255,0.06)"
        stroke="rgba(255,255,255,0.25)"
        stroke-width="4"/>

  <!-- Liquid fill with wavy surface -->
  <g clip-path="url(#glassClip)">
    <path d="M310.0 347.0 L320.1 348.5 L330.2 350.0 L340.3 351.4 L350.4 352.6 L360.5 353.7 L370.6 354.5 L380.7 355.2 L390.8 355.6 L400.9 355.7 L411.0 355.6 L421.1 355.2 L431.2 354.5 L441.3 353.7 L451.4 352.7 L461.5 351.5 L471.6 350.2 L481.7 348.9 L491.8 347.5 L501.9 346.2 L512.0 344.9 L522.1 343.7 L532.2 342.7 L542.3 341.8 L552.4 341.1 L562.5 340.7 L572.6 340.5 L582.7 340.5 L592.8 340.7 L602.9 341.1 L613.0 341.7 L623.1 342.5 L633.2 343.4 L643.3 344.3 L653.4 345.3 L663.5 346.4 L673.6 347.4 L683.7 348.3 L693.8 349.2 L703.9 349.9 L714.0 350.4 L714 800 L310 800 Z" fill="url(#liquid)"/>
    <path d="M310.0 342.0 L320.1 343.5 L330.2 345.0 L340.3 346.4 L350.4 347.6 L360.5 348.7 L370.6 349.5 L380.7 350.2 L390.8 350.6 L400.9 350.7 L411.0 350.6 L421.1 350.2 L431.2 349.5 L441.3 348.7 L451.4 347.7 L461.5 346.5 L471.6 345.2 L481.7 343.9 L491.8 342.5 L501.9 341.2 L512.0 339.9 L522.1 338.7 L532.2 337.7 L542.3 336.8 L552.4 336.1 L562.5 335.7 L572.6 335.5 L582.7 335.5 L592.8 335.7 L602.9 336.1 L613.0 336.7 L623.1 337.5 L633.2 338.4 L643.3 339.3 L653.4 340.3 L663.5 341.4 L673.6 342.4 L683.7 343.3 L693.8 344.2 L703.9 344.9 L714.0 345.4 L714.0 368.4 L703.9 367.9 L693.8 367.2 L683.7 366.3 L673.6 365.4 L663.5 364.4 L653.4 363.3 L643.3 362.3 L633.2 361.4 L623.1 360.5 L613.0 359.7 L602.9 359.1 L592.8 358.7 L582.7 358.5 L572.6 358.5 L562.5 358.7 L552.4 359.1 L542.3 359.8 L532.2 360.7 L522.1 361.7 L512.0 362.9 L501.9 364.2 L491.8 365.5 L481.7 366.9 L471.6 368.2 L461.5 369.5 L451.4 370.7 L441.3 371.7 L431.2 372.5 L421.1 373.2 L411.0 373.6 L400.9 373.7 L390.8 373.6 L380.7 373.2 L370.6 372.5 L360.5 371.7 L350.4 370.6 L340.3 369.4 L330.2 368.0 L320.1 366.5 L310.0 365.0 Z" fill="rgba(255,255,255,0.12)"/>
    <circle cx="440.0" cy="740.0" r="42.0" fill="url(#bubbleGlow)" stroke="rgba(255,255,255,0.20)" stroke-width="2.5" opacity="0.80"/>
    <circle cx="575.2" cy="581.0" r="36.8" fill="url(#bubbleGlow)" stroke="rgba(255,255,255,0.20)" stroke-width="2.5" opacity="0.80"/>
    <circle cx="492.3" cy="454.1" r="33.0" fill="url(#bubbleGlow)" stroke="rgba(255,255,255,0.20)" stroke-width="2.5" opacity="0.80"/>
    <circle cx="620.0" cy="382.0" r="29.9" fill="url(#bubbleGlow)" stroke="rgba(255,255,255,0.20)" stroke-width="2.5" opacity="0.80"/>
    <circle cx="383.4" cy="656.2" r="20.5" fill="url(#bubbleGlow)" stroke="rgba(255,255,255,0.20)" stroke-width="2.5" opacity="0.80"/>
    <circle cx="556.6" cy="410.4" r="24.6" fill="url(#bubbleGlow)" stroke="rgba(255,255,255,0.20)" stroke-width="2.5" opacity="0.80"/>
    <circle cx="477.0" cy="506.0" r="19.3" fill="url(#bubbleGlow)" stroke="rgba(255,255,255,0.20)" stroke-width="2.5" opacity="0.80"/>
  </g>

  <!-- Glass rim highlight -->
  <path d="M310 247 L714 247"
        stroke="rgba(255,255,255,0.35)"
        stroke-width="5"
        stroke-linecap="round"/>

  <!-- Glass left edge highlight -->
  <path d="M314 257 L342 737"
        stroke="rgba(255,255,255,0.1)"
        stroke-width="8"
        stroke-linecap="round"/>

  <!-- Glass surface highlight overlay -->
  <path d="M310 247 L340 747 Q345 777 380 777 L644 777 Q679 777 684 747 L714 247 Z"
        fill="url(#glassHighlight)"/>
</svg>