<svg xmlns="http://www.w3.org/2000/svg" viewBox="0 0 1024 1024" width="1024" height="1024">
  <defs>
    <linearGradient id="bg" x1="0" y1="0" x2="0" y2="1">
      <stop offset="0%" stop-color="#1a1a2e"/>
      <stop offset="100%" stop-color="#16213e"/>
    </linearGradient>
    <linearGradient id="liquid" x1="0" y1="0" x2="1" y2="1">
      <stop offset="0%" stop-color="#e94560"/>
      <stop offset="50%" stop-color="#c23373"/>
      <stop offset="100%" stop-color="#7b2ff7"/>
    </linearGradient>
    <linearGradient id="glassHighlight" x1="0" y1="0" x2="1" y2="0">
      <stop offset="0%" stop-color="rgba(255,255,255,0.15)"/>
      <stop offset="40%" stop-color="rgba(255,255,255,0)"/>
    </linearGradient>
    <radialGradient id="bubbleGlow">
      <stop offset="0%" stop-color="rgba(255,255,255,0.5)"/>
      <stop offset="100%" stop-color="rgba(255,255,255,0.1)"/>
    </radialGradient>
    <clipPath id="glassClip">
      <path d="M310 247 L340 747 Q345 777 380 777 L644 777 Q679 777 684 747 L714 247 Z"/>
    </clipPath>
  </defs>

  <!-- Background -->
  <rect width="1024" height="1024" fill="#1a1a2e"/>

  <!-- Glass body -->
  <path d="M310 247 L340 747 Q345 777 380 777 L644 777 Q679 777 684 747 L714 247 Z"
        fill="rgba(255,255,255,0.06)"
        stroke="rgba(255,255,255,0.25)"
        stroke-width="4"/>

  <!-- Liquid fill with wavy surface -->
  <g clip-path="url(#glassClip)">
    <path d="M310.0 339.8 L320.1 339.1 L330.2 338.6 L340.3 338.3 L350.4 338.3 L360.5 338.6 L370.6 339.1 L380.7 339.9 L390.8 340.8 L400.9 342.0 L411.0 343.3 L421.1 344.7 L431.2 346.2 L441.3 347.8 L451.4 349.3 L461.5 350.7 L471.6 352.0 L481.7 353.2 L491.8 354.1 L501.9 354.9 L512.0 355.4 L522.1 355.7 L532.2 355.7 L542.3 355.4 L552.4 354.9 L562.5 354.2 L572.6 353.2 L582.7 352.1 L592.8 350.9 L602.9 349.6 L613.0 348.2 L623.1 346.8 L633.2 345.5 L643.3 344.3 L653.4 343.2 L663.5 342.2 L673.6 341.5 L683.7 340.9 L693.8 340.6 L703.9 340.4 L714.0 340.6 L714 800 L310 800 Z" fill="url(#liquid)"/>
    <path d="M310.0 334.8 L320.1 334.1 L330.2 333.6 L340.3 333.3 L350.4 333.3 L360.5 333.6 L370.6 334.1 L380.7 334.9 L390.8 335.8 L400.9 337.0 L411.0 338.3 L421.1 339.7 L431.2 341.2 L441.3 342.8 L451.4 344.3 L461.5 345.7 L471.6 347.0 L481.7 348.2 L491.8 349.1 L501.9 349.9 L512.0 350.4 L522.1 350.7 L532.2 350.7 L542.3 350.4 L552.4 349.9 L562.5 349.2 L572.6 348.2 L582.7 347.1 L592.8 345.9 L602.9 344.6 L613.0 343.2 L623.1 341.8 L633.2 340.5 L643.3 339.3 L653.4 338.2 L663.5 337.2 L673.6 336.5 L683.7 335.9 L693.8 335.6 L703.9 335.4 L714.0 335.6 L714.0 358.6 L703.9 358.4 L693.8 358.6 L683.7 358.9 L673.6 359.5 L663.5 360.2 L653.4 361.2 L643.3 362.3 L633.2 363.5 L623.1 364.8 L613.0 366.2 L602.9 367.6 L592.8 368.9 L582.7 370.1 L572.6 371.2 L562.5 372.2 L552.4 372.9 L542.3 373.4 L532.2 373.7 L522.1 373.7 L512.0 373.4 L501.9 372.9 L491.8 372.1 L481.7 371.2 L471.6 370.0 L461.5 368.7 L451.4 367.3 L441.3 365.8 L431.2 364.2 L421.1 362.7 L411.0 361.3 L400.9 360.0 L390.8 358.8 L380.7 357.9 L370.6 357.1 L360.5 356.6 L350.4 356.3 L340.3 356.3 L330.2 356.6 L320.1 357.1 L310.0 357.8 Z" fill="rgba(255,255,255,0.12)"/>
    <circle cx="448.0" cy="421.3" r="47.2" fill="url(#bubbleGlow)" stroke="rgba(255,255,255,0.20)" stroke-width="2.5" opacity="0.80"/>
    <circle cx="580.0" cy="391.0" r="27.1" fill="url(#bubbleGlow)" stroke="rgba(255,255,255,0.05)" stroke-width="2.5" opacity="0.20"/>
    <circle cx="492.0" cy="708.6" r="30.3" fill="url(#bubbleGlow)" stroke="rgba(255,255,255,0.20)" stroke-width="2.5" opacity="0.80"/>
    <circle cx="621.2" cy="579.8" r="27.3" fill="url(#bubbleGlow)" stroke="rgba(255,255,255,0.20)" stroke-width="2.5" opacity="0.80"/>
  </g>

  <!-- Glass rim highlight -->
  <path d="M310 247 L714 247"
        stroke="rgba(255,255,255,0.35)"
        stroke-width="5"
        stroke-linecap="round"/>

  <!-- Glass left edge highlight -->
  <path d="M314 257 L342 737"
        stroke="rgba(255,255,255,0.1)"
        stroke-width="8"
        stroke-linecap="round"/>

  <!-- Glass surface highlight overlay -->
  <path d="M310 247 L340 747 Q345 777 380 777 L644 777 Q679 777 684 747 L714 247 Z"
        fill="url(#glassHighlight)"/>
</svg>