<svg xmlns="http://www.w3.org/2000/svg" viewBox="0 0 1024 1024" width="1024" height="1024">
  <defs>
    <linearGradient id="bg" x1="0" y1="0" x2="0" y2="1">
      <stop offset="0%" stop-color="#1a1a2e"/>
      <stop offset="100%" stop-color="#16213e"/>
    </linearGradient>
    <linearGradient id="liquid" x1="0" y1="0" x2="1" y2="1">
      <stop offset="0%" stop-color="#e94560"/>
      <stop offset="50%" stop-color="#c23373"/>
      <stop offset="100%" stop-color="#7b2ff7"/>
    </linearGradient>
    <linearGradient id="glassHighlight" x1="0" y1="0" x2="1" y2="0">
      <stop offset="0%" stop-color="rgba(255,255,255,0.15)"/>
      <stop offset="40%" stop-color="rgba(255,255,255,0)"/>
    </linearGradient>
    <radialGradient id="bubbleGlow">
      <stop offset="0%" stop-color="rgba(255,255,255,0.5)"/>
      <stop offset="100%" stop-color="rgba(255,255,255,0.1)"/>
    </radialGradient>
    <clipPath id="glassClip">
      <path d="M310 247 L340 747 Q345 777 380 777 L644 777 Q679 777 684 747 L714 247 Z"/>
    </clipPath>
  </defs>

  <!-- Background -->
  <rect width="1024" height="1024" fill="#1a1a2e"/>

  <!-- Glass body -->
  <path d="M310 247 L340 747 Q345 777 380 777 L644 777 Q679 777 684 747 L714 247 Z"
        fill="rgba(255,255,255,0.06)"
        stroke="rgba(255,255,255,0.25)"
        stroke-width="4"/>

  <!-- Liquid fill with wavy surface -->
  <g clip-path="url(#glassClip)">
    <path d="M310.0 347.5 L320.1 348.8 L330.2 350.0 L340.3 351.1 L350.4 352.0 L360.5 352.7 L370.6 353.2 L380.7 353.5 L390.8 353.5 L400.9 353.4 L411.0 353.0 L421.1 352.5 L431.2 351.7 L441.3 350.9 L451.4 349.9 L461.5 348.9 L471.6 347.9 L481.7 346.9 L491.8 345.9 L501.9 345.0 L512.0 344.3 L522.1 343.7 L532.2 343.3 L542.3 343.0 L552.4 343.0 L562.5 343.1 L572.6 343.4 L582.7 343.9 L592.8 344.4 L602.9 345.2 L613.0 346.0 L623.1 346.8 L633.2 347.6 L643.3 348.5 L653.4 349.2 L663.5 349.9 L673.6 350.4 L683.7 350.8 L693.8 351.0 L703.9 351.0 L714.0 350.9 L714 800 L310 800 Z" fill="url(#liquid)"/>
    <path d="M310.0 342.5 L320.1 343.8 L330.2 345.0 L340.3 346.1 L350.4 347.0 L360.5 347.7 L370.6 348.2 L380.7 348.5 L390.8 348.5 L400.9 348.4 L411.0 348.0 L421.1 347.5 L431.2 346.7 L441.3 345.9 L451.4 344.9 L461.5 343.9 L471.6 342.9 L481.7 341.9 L491.8 340.9 L501.9 340.0 L512.0 339.3 L522.1 338.7 L532.2 338.3 L542.3 338.0 L552.4 338.0 L562.5 338.1 L572.6 338.4 L582.7 338.9 L592.8 339.4 L602.9 340.2 L613.0 341.0 L623.1 341.8 L633.2 342.6 L643.3 343.5 L653.4 344.2 L663.5 344.9 L673.6 345.4 L683.7 345.8 L693.8 346.0 L703.9 346.0 L714.0 345.9 L714.0 368.9 L703.9 369.0 L693.8 369.0 L683.7 368.8 L673.6 368.4 L663.5 367.9 L653.4 367.2 L643.3 366.5 L633.2 365.6 L623.1 364.8 L613.0 364.0 L602.9 363.2 L592.8 362.4 L582.7 361.9 L572.6 361.4 L562.5 361.1 L552.4 361.0 L542.3 361.0 L532.2 361.3 L522.1 361.7 L512.0 362.3 L501.9 363.0 L491.8 363.9 L481.7 364.9 L471.6 365.9 L461.5 366.9 L451.4 367.9 L441.3 368.9 L431.2 369.7 L421.1 370.5 L411.0 371.0 L400.9 371.4 L390.8 371.5 L380.7 371.5 L370.6 371.2 L360.5 370.7 L350.4 370.0 L340.3 369.1 L330.2 368.0 L320.1 366.8 L310.0 365.5 Z" fill="rgba(255,255,255,0.12)"/>
    <circle cx="445.7" cy="698.2" r="42.5" fill="url(#bubbleGlow)" stroke="rgba(255,255,255,0.20)" stroke-width="2.5" opacity="0.80"/>
    <circle cx="573.3" cy="573.9" r="36.8" fill="url(#bubbleGlow)" stroke="rgba(255,255,255,0.20)" stroke-width="2.5" opacity="0.80"/>
    <circle cx="494.1" cy="461.4" r="32.9" fill="url(#bubbleGlow)" stroke="rgba(255,255,255,0.20)" stroke-width="2.5" opacity="0.80"/>
    <circle cx="626.4" cy="391.7" r="29.5" fill="url(#bubbleGlow)" stroke="rgba(255,255,255,0.20)" stroke-width="2.5" opacity="0.80"/>
  </g>

  <!-- Glass rim highlight -->
  <path d="M310 247 L714 247"
        stroke="rgba(255,255,255,0.35)"
        stroke-width="5"
        stroke-linecap="round"/>

  <!-- Glass left edge highlight -->
  <path d="M314 257 L342 737"
        stroke="rgba(255,255,255,0.1)"
        stroke-width="8"
        stroke-linecap="round"/>

  <!-- Glass surface highlight overlay -->
  <path d="M310 247 L340 747 Q345 777 380 777 L644 777 Q679 777 684 747 L714 247 Z"
        fill="url(#glassHighlight)"/>
</svg>