<svg xmlns="http://www.w3.org/2000/svg" viewBox="0 0 1024 1024" width="1024" height="1024">
  <defs>
    <linearGradient id="bg" x1="0" y1="0" x2="0" y2="1">
      <stop offset="0%" stop-color="#1a1a2e"/>
      <stop offset="100%" stop-color="#16213e"/>
    </linearGradient>
    <linearGradient id="liquid" x1="0" y1="0" x2="1" y2="1">
      <stop offset="0%" stop-color="#e94560"/>
      <stop offset="50%" stop-color="#c23373"/>
      <stop offset="100%" stop-color="#7b2ff7"/>
    </linearGradient>
    <linearGradient id="glassHighlight" x1="0" y1="0" x2="1" y2="0">
      <stop offset="0%" stop-color="rgba(255,255,255,0.15)"/>
      <stop offset="40%" stop-color="rgba(255,255,255,0)"/>
    </linearGradient>
    <radialGradient id="bubbleGlow">
      <stop offset="0%" stop-color="rgba(255,255,255,0.5)"/>
      <stop offset="100%" stop-color="rgba(255,255,255,0.1)"/>
    </radialGradient>
    <clipPath id="glassClip">
      <path d="M310 247 L340 747 Q345 777 380 777 L644 777 Q679 777 684 747 L714 247 Z"/>
    </clipPath>
  </defs>

  <!-- Background -->
  <rect width="1024" height="1024" fill="#1a1a2e"/>

  <!-- Glass body -->
  <path d="M310 247 L340 747 Q345 777 380 777 L644 777 Q679 777 684 747 L714 247 Z"
        fill="rgba(255,255,255,0.06)"
        stroke="rgba(255,255,255,0.25)"
        stroke-width="4"/>

  <!-- Liquid fill with wavy surface -->
  <g clip-path="url(#glassClip)">
    <path d="M310.0 347.0 L320.1 346.2 L330.2 345.4 L340.3 344.6 L350.4 344.0 L360.5 343.5 L370.6 343.1 L380.7 343.0 L390.8 343.0 L400.9 343.2 L411.0 343.6 L421.1 344.1 L431.2 344.8 L441.3 345.7 L451.4 346.6 L461.5 347.6 L471.6 348.7 L481.7 349.7 L491.8 350.6 L501.9 351.5 L512.0 352.3 L522.1 352.9 L532.2 353.3 L542.3 353.5 L552.4 353.5 L562.5 353.3 L572.6 352.9 L582.7 352.2 L592.8 351.3 L602.9 350.3 L613.0 349.1 L623.1 347.8 L633.2 346.5 L643.3 345.1 L653.4 343.8 L663.5 342.5 L673.6 341.3 L683.7 340.3 L693.8 339.5 L703.9 338.8 L714.0 338.4 L714 800 L310 800 Z" fill="url(#liquid)"/>
    <path d="M310.0 342.0 L320.1 341.2 L330.2 340.4 L340.3 339.6 L350.4 339.0 L360.5 338.5 L370.6 338.1 L380.7 338.0 L390.8 338.0 L400.9 338.2 L411.0 338.6 L421.1 339.1 L431.2 339.8 L441.3 340.7 L451.4 341.6 L461.5 342.6 L471.6 343.7 L481.7 344.7 L491.8 345.6 L501.9 346.5 L512.0 347.3 L522.1 347.9 L532.2 348.3 L542.3 348.5 L552.4 348.5 L562.5 348.3 L572.6 347.9 L582.7 347.2 L592.8 346.3 L602.9 345.3 L613.0 344.1 L623.1 342.8 L633.2 341.5 L643.3 340.1 L653.4 338.8 L663.5 337.5 L673.6 336.3 L683.7 335.3 L693.8 334.5 L703.9 333.8 L714.0 333.4 L714.0 356.4 L703.9 356.8 L693.8 357.5 L683.7 358.3 L673.6 359.3 L663.5 360.5 L653.4 361.8 L643.3 363.1 L633.2 364.5 L623.1 365.8 L613.0 367.1 L602.9 368.3 L592.8 369.3 L582.7 370.2 L572.6 370.9 L562.5 371.3 L552.4 371.5 L542.3 371.5 L532.2 371.3 L522.1 370.9 L512.0 370.3 L501.9 369.5 L491.8 368.6 L481.7 367.7 L471.6 366.7 L461.5 365.6 L451.4 364.6 L441.3 363.7 L431.2 362.8 L421.1 362.1 L411.0 361.6 L400.9 361.2 L390.8 361.0 L380.7 361.0 L370.6 361.1 L360.5 361.5 L350.4 362.0 L340.3 362.6 L330.2 363.4 L320.1 364.2 L310.0 365.0 Z" fill="rgba(255,255,255,0.12)"/>
    <circle cx="440.0" cy="463.8" r="46.2" fill="url(#bubbleGlow)" stroke="rgba(255,255,255,0.20)" stroke-width="2.5" opacity="0.80"/>
    <circle cx="572.2" cy="397.0" r="39.9" fill="url(#bubbleGlow)" stroke="rgba(255,255,255,0.20)" stroke-width="2.5" opacity="0.80"/>
    <circle cx="627.9" cy="657.6" r="26.6" fill="url(#bubbleGlow)" stroke="rgba(255,255,255,0.20)" stroke-width="2.5" opacity="0.80"/>
  </g>

  <!-- Glass rim highlight -->
  <path d="M310 247 L714 247"
        stroke="rgba(255,255,255,0.35)"
        stroke-width="5"
        stroke-linecap="round"/>

  <!-- Glass left edge highlight -->
  <path d="M314 257 L342 737"
        stroke="rgba(255,255,255,0.1)"
        stroke-width="8"
        stroke-linecap="round"/>

  <!-- Glass surface highlight overlay -->
  <path d="M310 247 L340 747 Q345 777 380 777 L644 777 Q679 777 684 747 L714 247 Z"
        fill="url(#glassHighlight)"/>
</svg>