<svg xmlns="http://www.w3.org/2000/svg" viewBox="0 0 1024 1024" width="1024" height="1024">
  <defs>
    <linearGradient id="bg" x1="0" y1="0" x2="0" y2="1">
      <stop offset="0%" stop-color="#1a1a2e"/>
      <stop offset="100%" stop-color="#16213e"/>
    </linearGradient>
    <linearGradient id="liquid" x1="0" y1="0" x2="1" y2="1">
      <stop offset="0%" stop-color="#e94560"/>
      <stop offset="50%" stop-color="#c23373"/>
      <stop offset="100%" stop-color="#7b2ff7"/>
    </linearGradient>
    <linearGradient id="glassHighlight" x1="0" y1="0" x2="1" y2="0">
      <stop offset="0%" stop-color="rgba(255,255,255,0.15)"/>
      <stop offset="40%" stop-color="rgba(255,255,255,0)"/>
    </linearGradient>
    <radialGradient id="bubbleGlow">
      <stop offset="0%" stop-color="rgba(255,255,255,0.5)"/>
      <stop offset="100%" stop-color="rgba(255,255,255,0.1)"/>
    </radialGradient>
    <clipPath id="glassClip">
      <path d="M310 247 L340 747 Q345 777 380 777 L644 777 Q679 777 684 747 L714 247 Z"/>
    </clipPath>
  </defs>

  <!-- Background -->
  <rect width="1024" height="1024" fill="#1a1a2e"/>

  <!-- Glass body -->
  <path d="M310 247 L340 747 Q345 777 380 777 L644 777 Q679 777 684 747 L714 247 Z"
        fill="rgba(255,255,255,0.06)"
        stroke="rgba(255,255,255,0.25)"
        stroke-width="4"/>

  <!-- Liquid fill with wavy surface -->
  <g clip-path="url(#glassClip)">
    <path d="M310.0 340.7 L320.1 340.5 L330.2 340.5 L340.3 340.7 L350.4 341.1 L360.5 341.7 L370.6 342.5 L380.7 343.4 L390.8 344.3 L400.9 345.3 L411.0 346.4 L421.1 347.4 L431.2 348.3 L441.3 349.2 L451.4 349.9 L461.5 350.4 L471.6 350.8 L481.7 351.0 L491.8 351.0 L501.9 350.9 L512.0 350.5 L522.1 350.0 L532.2 349.4 L542.3 348.6 L552.4 347.8 L562.5 347.0 L572.6 346.2 L582.7 345.4 L592.8 344.6 L602.9 344.0 L613.0 343.5 L623.1 343.1 L633.2 343.0 L643.3 343.0 L653.4 343.2 L663.5 343.6 L673.6 344.1 L683.7 344.8 L693.8 345.7 L703.9 346.6 L714.0 347.6 L714 800 L310 800 Z" fill="url(#liquid)"/>
    <path d="M310.0 335.7 L320.1 335.5 L330.2 335.5 L340.3 335.7 L350.4 336.1 L360.5 336.7 L370.6 337.5 L380.7 338.4 L390.8 339.3 L400.9 340.3 L411.0 341.4 L421.1 342.4 L431.2 343.3 L441.3 344.2 L451.4 344.9 L461.5 345.4 L471.6 345.8 L481.7 346.0 L491.8 346.0 L501.9 345.9 L512.0 345.5 L522.1 345.0 L532.2 344.4 L542.3 343.6 L552.4 342.8 L562.5 342.0 L572.6 341.2 L582.7 340.4 L592.8 339.6 L602.9 339.0 L613.0 338.5 L623.1 338.1 L633.2 338.0 L643.3 338.0 L653.4 338.2 L663.5 338.6 L673.6 339.1 L683.7 339.8 L693.8 340.7 L703.9 341.6 L714.0 342.6 L714.0 365.6 L703.9 364.6 L693.8 363.7 L683.7 362.8 L673.6 362.1 L663.5 361.6 L653.4 361.2 L643.3 361.0 L633.2 361.0 L623.1 361.1 L613.0 361.5 L602.9 362.0 L592.8 362.6 L582.7 363.4 L572.6 364.2 L562.5 365.0 L552.4 365.8 L542.3 366.6 L532.2 367.4 L522.1 368.0 L512.0 368.5 L501.9 368.9 L491.8 369.0 L481.7 369.0 L471.6 368.8 L461.5 368.4 L451.4 367.9 L441.3 367.2 L431.2 366.3 L421.1 365.4 L411.0 364.4 L400.9 363.3 L390.8 362.3 L380.7 361.4 L370.6 360.5 L360.5 359.7 L350.4 359.1 L340.3 358.7 L330.2 358.5 L320.1 358.5 L310.0 358.7 Z" fill="rgba(255,255,255,0.12)"/>
    <circle cx="440.0" cy="398.0" r="48.3" fill="url(#bubbleGlow)" stroke="rgba(255,255,255,0.20)" stroke-width="2.5" opacity="0.80"/>
    <circle cx="584.8" cy="740.0" r="35.0" fill="url(#bubbleGlow)" stroke="rgba(255,255,255,0.20)" stroke-width="2.5" opacity="0.80"/>
    <circle cx="507.7" cy="578.7" r="31.5" fill="url(#bubbleGlow)" stroke="rgba(255,255,255,0.20)" stroke-width="2.5" opacity="0.80"/>
    <circle cx="627.5" cy="450.9" r="28.6" fill="url(#bubbleGlow)" stroke="rgba(255,255,255,0.20)" stroke-width="2.5" opacity="0.80"/>
    <circle cx="543.4" cy="519.0" r="23.5" fill="url(#bubbleGlow)" stroke="rgba(255,255,255,0.20)" stroke-width="2.5" opacity="0.80"/>
    <circle cx="463.0" cy="655.8" r="18.4" fill="url(#bubbleGlow)" stroke="rgba(255,255,255,0.20)" stroke-width="2.5" opacity="0.80"/>
    <circle cx="647.4" cy="404.9" r="17.9" fill="url(#bubbleGlow)" stroke="rgba(255,255,255,0.20)" stroke-width="2.5" opacity="0.80"/>
  </g>

  <!-- Glass rim highlight -->
  <path d="M310 247 L714 247"
        stroke="rgba(255,255,255,0.35)"
        stroke-width="5"
        stroke-linecap="round"/>

  <!-- Glass left edge highlight -->
  <path d="M314 257 L342 737"
        stroke="rgba(255,255,255,0.1)"
        stroke-width="8"
        stroke-linecap="round"/>

  <!-- Glass surface highlight overlay -->
  <path d="M310 247 L340 747 Q345 777 380 777 L644 777 Q679 777 684 747 L714 247 Z"
        fill="url(#glassHighlight)"/>
</svg>