<svg xmlns="http://www.w3.org/2000/svg" viewBox="0 0 1024 1024" width="1024" height="1024">
  <defs>
    <linearGradient id="bg" x1="0" y1="0" x2="0" y2="1">
      <stop offset="0%" stop-color="#1a1a2e"/>
      <stop offset="100%" stop-color="#16213e"/>
    </linearGradient>
    <linearGradient id="liquid" x1="0" y1="0" x2="1" y2="1">
      <stop offset="0%" stop-color="#e94560"/>
      <stop offset="50%" stop-color="#c23373"/>
      <stop offset="100%" stop-color="#7b2ff7"/>
    </linearGradient>
    <linearGradient id="glassHighlight" x1="0" y1="0" x2="1" y2="0">
      <stop offset="0%" stop-color="rgba(255,255,255,0.15)"/>
      <stop offset="40%" stop-color="rgba(255,255,255,0)"/>
    </linearGradient>
    <radialGradient id="bubbleGlow">
      <stop offset="0%" stop-color="rgba(255,255,255,0.5)"/>
      <stop offset="100%" stop-color="rgba(255,255,255,0.1)"/>
    </radialGradient>
    <clipPath id="glassClip">
      <path d="M310 247 L340 747 Q345 777 380 777 L644 777 Q679 777 684 747 L714 247 Z"/>
    </clipPath>
  </defs>

  <!-- Background -->
  <rect width="1024" height="1024" fill="#1a1a2e"/>

  <!-- Glass body -->
  <path d="M310 247 L340 747 Q345 777 380 777 L644 777 Q679 777 684 747 L714 247 Z"
        fill="rgba(255,255,255,0.06)"
        stroke="rgba(255,255,255,0.25)"
        stroke-width="4"/>

  <!-- Liquid fill with wavy surface -->
  <g clip-path="url(#glassClip)">
    <path d="M310.0 345.2 L320.1 346.1 L330.2 347.1 L340.3 348.1 L350.4 349.2 L360.5 350.2 L370.6 351.1 L380.7 351.9 L390.8 352.6 L400.9 353.1 L411.0 353.4 L421.1 353.6 L431.2 353.4 L441.3 353.1 L451.4 352.5 L461.5 351.8 L471.6 350.8 L481.7 349.7 L491.8 348.5 L501.9 347.2 L512.0 345.8 L522.1 344.4 L532.2 343.1 L542.3 341.9 L552.4 340.8 L562.5 339.8 L572.6 339.1 L582.7 338.6 L592.8 338.3 L602.9 338.3 L613.0 338.6 L623.1 339.1 L633.2 339.9 L643.3 340.8 L653.4 342.0 L663.5 343.3 L673.6 344.7 L683.7 346.2 L693.8 347.8 L703.9 349.3 L714.0 350.7 L714 800 L310 800 Z" fill="url(#liquid)"/>
    <path d="M310.0 340.2 L320.1 341.1 L330.2 342.1 L340.3 343.1 L350.4 344.2 L360.5 345.2 L370.6 346.1 L380.7 346.9 L390.8 347.6 L400.9 348.1 L411.0 348.4 L421.1 348.6 L431.2 348.4 L441.3 348.1 L451.4 347.5 L461.5 346.8 L471.6 345.8 L481.7 344.7 L491.8 343.5 L501.9 342.2 L512.0 340.8 L522.1 339.4 L532.2 338.1 L542.3 336.9 L552.4 335.8 L562.5 334.8 L572.6 334.1 L582.7 333.6 L592.8 333.3 L602.9 333.3 L613.0 333.6 L623.1 334.1 L633.2 334.9 L643.3 335.8 L653.4 337.0 L663.5 338.3 L673.6 339.7 L683.7 341.2 L693.8 342.8 L703.9 344.3 L714.0 345.7 L714.0 368.7 L703.9 367.3 L693.8 365.8 L683.7 364.2 L673.6 362.7 L663.5 361.3 L653.4 360.0 L643.3 358.8 L633.2 357.9 L623.1 357.1 L613.0 356.6 L602.9 356.3 L592.8 356.3 L582.7 356.6 L572.6 357.1 L562.5 357.8 L552.4 358.8 L542.3 359.9 L532.2 361.1 L522.1 362.4 L512.0 363.8 L501.9 365.2 L491.8 366.5 L481.7 367.7 L471.6 368.8 L461.5 369.8 L451.4 370.5 L441.3 371.1 L431.2 371.4 L421.1 371.6 L411.0 371.4 L400.9 371.1 L390.8 370.6 L380.7 369.9 L370.6 369.1 L360.5 368.2 L350.4 367.2 L340.3 366.1 L330.2 365.1 L320.1 364.1 L310.0 363.2 Z" fill="rgba(255,255,255,0.12)"/>
    <circle cx="573.6" cy="656.5" r="35.9" fill="url(#bubbleGlow)" stroke="rgba(255,255,255,0.20)" stroke-width="2.5" opacity="0.80"/>
    <circle cx="497.7" cy="511.2" r="32.2" fill="url(#bubbleGlow)" stroke="rgba(255,255,255,0.20)" stroke-width="2.5" opacity="0.80"/>
    <circle cx="622.8" cy="406.4" r="29.2" fill="url(#bubbleGlow)" stroke="rgba(255,255,255,0.20)" stroke-width="2.5" opacity="0.80"/>
    <circle cx="545.5" cy="458.4" r="24.1" fill="url(#bubbleGlow)" stroke="rgba(255,255,255,0.20)" stroke-width="2.5" opacity="0.80"/>
    <circle cx="473.8" cy="576.2" r="18.9" fill="url(#bubbleGlow)" stroke="rgba(255,255,255,0.20)" stroke-width="2.5" opacity="0.80"/>
    <circle cx="642.4" cy="374.2" r="18.3" fill="url(#bubbleGlow)" stroke="rgba(255,255,255,0.20)" stroke-width="2.5" opacity="0.80"/>
  </g>

  <!-- Glass rim highlight -->
  <path d="M310 247 L714 247"
        stroke="rgba(255,255,255,0.35)"
        stroke-width="5"
        stroke-linecap="round"/>

  <!-- Glass left edge highlight -->
  <path d="M314 257 L342 737"
        stroke="rgba(255,255,255,0.1)"
        stroke-width="8"
        stroke-linecap="round"/>

  <!-- Glass surface highlight overlay -->
  <path d="M310 247 L340 747 Q345 777 380 777 L644 777 Q679 777 684 747 L714 247 Z"
        fill="url(#glassHighlight)"/>
</svg>