<svg xmlns="http://www.w3.org/2000/svg" viewBox="0 0 1024 1024" width="1024" height="1024">
  <defs>
    <linearGradient id="bg" x1="0" y1="0" x2="0" y2="1">
      <stop offset="0%" stop-color="#1a1a2e"/>
      <stop offset="100%" stop-color="#16213e"/>
    </linearGradient>
    <linearGradient id="liquid" x1="0" y1="0" x2="1" y2="1">
      <stop offset="0%" stop-color="#e94560"/>
      <stop offset="50%" stop-color="#c23373"/>
      <stop offset="100%" stop-color="#7b2ff7"/>
    </linearGradient>
    <linearGradient id="glassHighlight" x1="0" y1="0" x2="1" y2="0">
      <stop offset="0%" stop-color="rgba(255,255,255,0.15)"/>
      <stop offset="40%" stop-color="rgba(255,255,255,0)"/>
    </linearGradient>
    <radialGradient id="bubbleGlow">
      <stop offset="0%" stop-color="rgba(255,255,255,0.5)"/>
      <stop offset="100%" stop-color="rgba(255,255,255,0.1)"/>
    </radialGradient>
    <clipPath id="glassClip">
      <path d="M310 247 L340 747 Q345 777 380 777 L644 777 Q679 777 684 747 L714 247 Z"/>
    </clipPath>
  </defs>

  <!-- Background -->
  <rect width="1024" height="1024" fill="#1a1a2e"/>

  <!-- Glass body -->
  <path d="M310 247 L340 747 Q345 777 380 777 L644 777 Q679 777 684 747 L714 247 Z"
        fill="rgba(255,255,255,0.06)"
        stroke="rgba(255,255,255,0.25)"
        stroke-width="4"/>

  <!-- Liquid fill with wavy surface -->
  <g clip-path="url(#glassClip)">
    <path d="M310.0 343.1 L320.1 343.4 L330.2 343.9 L340.3 344.4 L350.4 345.2 L360.5 346.0 L370.6 346.8 L380.7 347.6 L390.8 348.5 L400.9 349.2 L411.0 349.9 L421.1 350.4 L431.2 350.8 L441.3 351.0 L451.4 351.0 L461.5 350.9 L471.6 350.5 L481.7 350.0 L491.8 349.3 L501.9 348.5 L512.0 347.6 L522.1 346.6 L532.2 345.6 L542.3 344.6 L552.4 343.6 L562.5 342.7 L572.6 341.9 L582.7 341.2 L592.8 340.8 L602.9 340.5 L613.0 340.5 L623.1 340.6 L633.2 341.0 L643.3 341.6 L653.4 342.4 L663.5 343.4 L673.6 344.6 L683.7 345.8 L693.8 347.2 L703.9 348.5 L714.0 349.9 L714 800 L310 800 Z" fill="url(#liquid)"/>
    <path d="M310.0 338.1 L320.1 338.4 L330.2 338.9 L340.3 339.4 L350.4 340.2 L360.5 341.0 L370.6 341.8 L380.7 342.6 L390.8 343.5 L400.9 344.2 L411.0 344.9 L421.1 345.4 L431.2 345.8 L441.3 346.0 L451.4 346.0 L461.5 345.9 L471.6 345.5 L481.7 345.0 L491.8 344.3 L501.9 343.5 L512.0 342.6 L522.1 341.6 L532.2 340.6 L542.3 339.6 L552.4 338.6 L562.5 337.7 L572.6 336.9 L582.7 336.2 L592.8 335.8 L602.9 335.5 L613.0 335.5 L623.1 335.6 L633.2 336.0 L643.3 336.6 L653.4 337.4 L663.5 338.4 L673.6 339.6 L683.7 340.8 L693.8 342.2 L703.9 343.5 L714.0 344.9 L714.0 367.9 L703.9 366.5 L693.8 365.2 L683.7 363.8 L673.6 362.6 L663.5 361.4 L653.4 360.4 L643.3 359.6 L633.2 359.0 L623.1 358.6 L613.0 358.5 L602.9 358.5 L592.8 358.8 L582.7 359.2 L572.6 359.9 L562.5 360.7 L552.4 361.6 L542.3 362.6 L532.2 363.6 L522.1 364.6 L512.0 365.6 L501.9 366.5 L491.8 367.3 L481.7 368.0 L471.6 368.5 L461.5 368.9 L451.4 369.0 L441.3 369.0 L431.2 368.8 L421.1 368.4 L411.0 367.9 L400.9 367.2 L390.8 366.5 L380.7 365.6 L370.6 364.8 L360.5 364.0 L350.4 363.2 L340.3 362.4 L330.2 361.9 L320.1 361.4 L310.0 361.1 Z" fill="rgba(255,255,255,0.12)"/>
    <circle cx="440.0" cy="398.0" r="35.2" fill="url(#bubbleGlow)" stroke="rgba(255,255,255,0.08)" stroke-width="2.5" opacity="0.30"/>
    <circle cx="586.7" cy="731.3" r="35.1" fill="url(#bubbleGlow)" stroke="rgba(255,255,255,0.20)" stroke-width="2.5" opacity="0.80"/>
    <circle cx="505.9" cy="588.9" r="31.4" fill="url(#bubbleGlow)" stroke="rgba(255,255,255,0.20)" stroke-width="2.5" opacity="0.80"/>
    <circle cx="613.6" cy="480.6" r="28.2" fill="url(#bubbleGlow)" stroke="rgba(255,255,255,0.20)" stroke-width="2.5" opacity="0.80"/>
  </g>

  <!-- Glass rim highlight -->
  <path d="M310 247 L714 247"
        stroke="rgba(255,255,255,0.35)"
        stroke-width="5"
        stroke-linecap="round"/>

  <!-- Glass left edge highlight -->
  <path d="M314 257 L342 737"
        stroke="rgba(255,255,255,0.1)"
        stroke-width="8"
        stroke-linecap="round"/>

  <!-- Glass surface highlight overlay -->
  <path d="M310 247 L340 747 Q345 777 380 777 L644 777 Q679 777 684 747 L714 247 Z"
        fill="url(#glassHighlight)"/>
</svg>