<svg xmlns="http://www.w3.org/2000/svg" viewBox="0 0 1900 2500" width="1900" height="2500" font-family="Arial, sans-serif" font-size="11" fill="black" stroke="black">

  <title>Pump Cartridge Assembly — Engineering Drawing</title>

  <defs>
    <marker id="arrow" markerWidth="8" markerHeight="6" refX="8" refY="3" orient="auto">
      <path d="M0,0 L8,3 L0,6 Z" fill="black"/>
    </marker>
    <marker id="arrow-rev" markerWidth="8" markerHeight="6" refX="0" refY="3" orient="auto">
      <path d="M8,0 L0,3 L8,6 Z" fill="black"/>
    </marker>
    <style>
      .dim { font-size: 10px; fill: black; text-anchor: middle; }
      .dim-small { font-size: 9px; fill: black; text-anchor: middle; }
      .label { font-size: 12px; fill: black; font-weight: bold; text-anchor: middle; }
      .note { font-size: 9px; fill: black; }
      .note-c { font-size: 9px; fill: black; text-anchor: middle; }
      .title { font-size: 16px; fill: black; font-weight: bold; }
      .subtitle { font-size: 12px; fill: black; }
      .hidden { stroke-dasharray: 3,2; stroke-width: 0.8; fill: none; stroke: black; }
      .center { stroke-dasharray: 12,3,3,3; stroke-width: 0.5; stroke: #555; fill: none; }
      .outline { stroke: black; stroke-width: 1.2; fill: none; }
      .thin { stroke: black; stroke-width: 0.6; fill: none; }
      .dimline { stroke: black; stroke-width: 0.5; fill: none; }
      .extline { stroke: black; stroke-width: 0.4; fill: none; }
      .section { stroke: black; stroke-width: 0.8; fill: #e8e8e8; }
      .section-dark { stroke: black; stroke-width: 0.8; fill: #d0d0d0; }
      .detail-frame { stroke: black; stroke-width: 1.0; fill: white; }
      .hatch { stroke: #888; stroke-width: 0.4; fill: none; }
    </style>
  </defs>

  <!-- Title Block -->
  <text x="950" y="30" class="title" text-anchor="middle">Pump Cartridge Assembly</text>
  <text x="950" y="48" class="subtitle" text-anchor="middle">5 Parts: Tray + Lid + Lever + Release Plate + Front Bezel — Third-Angle Orthographic Projection</text>
  <text x="950" y="64" class="note" text-anchor="middle">Material: PETG | All dimensions in mm | Scale noted per view</text>
  <line x1="100" y1="72" x2="1800" y2="72" stroke="black" stroke-width="0.5"/>

  <!-- ============================================================ -->
  <!-- FRONT VIEW (looking along -Y, toward user-facing front)      -->
  <!-- Horizontal: X (width 0..140mm), Vertical: Z (height 0..70mm) -->
  <!-- Scale: 3 px/mm                                                -->
  <!-- Origin pixel: (100, 350) maps to tray (X=0, Z=70)            -->
  <!--   fX(mm) = 100 + mm*3                                        -->
  <!--   fZ(mm) = 350 + (70-mm)*3 = 350 + 210 - mm*3 = 560 - mm*3  -->
  <!-- So Z=0 -> y=560, Z=70 -> y=350                               -->
  <!-- ============================================================ -->

  <text x="310" y="95" class="label">FRONT VIEW (looking along -Y)</text>
  <text x="310" y="110" class="dim-small">Scale: 3 px/mm</text>

  <!-- Front Bezel outer outline: X=0..140, Z=0..70 -->
  <rect x="100" y="350" width="420" height="210" class="outline"/>

  <!-- Lever paddle cutout in bezel: X=10..130, Z=18..58 -->
  <!-- Rebate step: 0.5mm recess around cutout -->
  <rect x="130" y="376" width="360" height="120" class="outline"/>

  <!-- Lever paddle face (inside cutout, 0.5mm recessed) -->
  <!-- Paddle: X=10..130, Z=18..58 in tray frame -->
  <rect x="131" y="377" width="358" height="118" stroke="black" stroke-width="0.6" fill="none"/>

  <!-- Lid top edge: visible as a line at Z=70 + 4mm lid = Z=74 in assembled -->
  <!-- Lid sits on top of tray, lid Z=0 at tray Z=70, so lid top at tray Z=74 -->
  <rect x="100" y="338" width="420" height="12" class="outline"/>
  <text x="560" y="346" class="dim-small">Lid (4mm)</text>

  <!-- Rail ribs (hidden behind bezel in front view - dashed) -->
  <!-- Left rib: X=-2..0, Z=25..45 -->
  <rect x="94" y="425" width="6" height="60" class="hidden"/>
  <!-- Right rib: X=140..142, Z=25..45 -->
  <rect x="520" y="425" width="6" height="60" class="hidden"/>

  <!-- Pump 1 silhouette (hidden): pump head front face at Y=0.6, visible as hidden -->
  <!-- Pump 1: X=5.2..67.8, Z=3.5..66.1 -->
  <rect x="115.6" y="361.7" width="187.8" height="187.8" class="hidden" style="stroke-dasharray:5,3"/>
  <!-- Pump 2: X=72.2..134.8, Z=3.5..66.1 -->
  <rect x="316.6" y="361.7" width="187.8" height="187.8" class="hidden" style="stroke-dasharray:5,3"/>

  <!-- Pump center lines -->
  <!-- Pump 1 center: X=36.5, Z=34.8 -->
  <line x1="209.5" y1="360" x2="209.5" y2="562" class="center"/>
  <line x1="114" y1="455.6" x2="306" y2="455.6" class="center"/>
  <!-- Pump 2 center: X=103.5, Z=34.8 -->
  <line x1="410.5" y1="360" x2="410.5" y2="562" class="center"/>
  <line x1="315" y1="455.6" x2="507" y2="455.6" class="center"/>

  <!-- Lever pivot axis: Y=9, Z=58, shown as center mark at Z=58 -->
  <!-- Pivot runs full width at Z=58 -->
  <line x1="98" y1="386" x2="522" y2="386" class="center"/>

  <!-- Mounting holes as hidden circles (at Y=48.6, behind front face) -->
  <!-- P1-L: X=11.8, Z=34.8 => px (135.4, 455.6) r=3.13/2*3=4.7 -->
  <circle cx="135.4" cy="455.6" r="4.7" class="hidden"/>
  <!-- P1-R: X=61.2 => px 283.6 -->
  <circle cx="283.6" cy="455.6" r="4.7" class="hidden"/>
  <!-- P2-L: X=78.8 => px 336.4 -->
  <circle cx="336.4" cy="455.6" r="4.7" class="hidden"/>
  <!-- P2-R: X=128.2 => px 484.6 -->
  <circle cx="484.6" cy="455.6" r="4.7" class="hidden"/>

  <!-- Detent V-notch positions: bezel X=70, Z=18 (locked) and Z=58 (unlocked) -->
  <!-- Small V marks on bezel inner face -->
  <line x1="308" y1="386" x2="312" y2="384" stroke="black" stroke-width="0.6"/>
  <line x1="312" y1="384" x2="316" y2="386" stroke="black" stroke-width="0.6"/>
  <line x1="308" y1="506" x2="312" y2="504" stroke="black" stroke-width="0.6"/>
  <line x1="312" y1="504" x2="316" y2="506" stroke="black" stroke-width="0.6"/>

  <!-- FRONT VIEW DIMENSIONS -->

  <!-- Overall width: 140mm -->
  <line x1="100" y1="560" x2="100" y2="580" class="extline"/>
  <line x1="520" y1="560" x2="520" y2="580" class="extline"/>
  <line x1="100" y1="575" x2="520" y2="575" class="dimline" marker-start="url(#arrow-rev)" marker-end="url(#arrow)"/>
  <text x="310" y="572" class="dim">140</text>

  <!-- Overall width with ribs: 144mm -->
  <line x1="94" y1="485" x2="94" y2="595" class="extline"/>
  <line x1="526" y1="485" x2="526" y2="595" class="extline"/>
  <line x1="94" y1="590" x2="526" y2="590" class="dimline" marker-start="url(#arrow-rev)" marker-end="url(#arrow)"/>
  <text x="310" y="587" class="dim">144 (incl. rail ribs)</text>

  <!-- Overall height: 70mm (tray) -->
  <line x1="100" y1="350" x2="78" y2="350" class="extline"/>
  <line x1="100" y1="560" x2="78" y2="560" class="extline"/>
  <line x1="82" y1="350" x2="82" y2="560" class="dimline" marker-start="url(#arrow-rev)" marker-end="url(#arrow)"/>
  <text x="72" y="458" class="dim" transform="rotate(-90,72,458)">70</text>

  <!-- Paddle cutout: Z=18..58 (40mm) -->
  <line x1="520" y1="376" x2="548" y2="376" class="extline"/>
  <line x1="520" y1="496" x2="548" y2="496" class="extline"/>
  <line x1="543" y1="376" x2="543" y2="496" class="dimline" marker-start="url(#arrow-rev)" marker-end="url(#arrow)"/>
  <text x="555" y="440" class="dim" transform="rotate(-90,555,440)">40</text>

  <!-- Cutout X: 10..130 (120mm) -->
  <line x1="130" y1="350" x2="130" y2="338" class="extline"/>
  <line x1="490" y1="350" x2="490" y2="338" class="extline"/>
  <line x1="130" y1="340" x2="490" y2="340" class="dimline" marker-start="url(#arrow-rev)" marker-end="url(#arrow)"/>
  <text x="310" y="337" class="dim">120</text>

  <!-- Z=18 from bottom -->
  <line x1="520" y1="506" x2="548" y2="506" class="extline"/>
  <line x1="543" y1="496" x2="543" y2="560" class="extline" style="stroke-width:0"/>
  <line x1="548" y1="506" x2="548" y2="560" class="extline"/>
  <line x1="543" y1="506" x2="543" y2="560" class="dimline" marker-start="url(#arrow-rev)" marker-end="url(#arrow)"/>
  <text x="559" y="536" class="dim-small">18</text>

  <!-- Pump mounting hole spacing: 49.45mm -->
  <line x1="135.4" y1="455.6" x2="135.4" y2="470" class="extline"/>
  <line x1="283.6" y1="455.6" x2="283.6" y2="470" class="extline"/>
  <line x1="135.4" y1="467" x2="283.6" y2="467" class="dimline" marker-start="url(#arrow-rev)" marker-end="url(#arrow)"/>
  <text x="209.5" y="464" class="dim-small">49.45</text>

  <!-- Pump center spacing: 67mm -->
  <line x1="209.5" y1="360" x2="209.5" y2="326" class="extline"/>
  <line x1="410.5" y1="360" x2="410.5" y2="326" class="extline"/>
  <line x1="209.5" y1="328" x2="410.5" y2="328" class="dimline" marker-start="url(#arrow-rev)" marker-end="url(#arrow)"/>
  <text x="310" y="325" class="dim">67 (pump c-c)</text>

  <!-- Rail rib height: Z=25..45 (20mm) -->
  <line x1="94" y1="425" x2="82" y2="425" class="extline"/>
  <line x1="94" y1="485" x2="82" y2="485" class="extline"/>
  <line x1="86" y1="425" x2="86" y2="485" class="dimline" marker-start="url(#arrow-rev)" marker-end="url(#arrow)"/>
  <text x="72" y="458" class="dim-small" transform="rotate(-90,72,458)"> </text>
  <text x="80" y="458" class="dim-small" transform="rotate(-90,80,458)">20</text>

  <!-- ============================================================ -->
  <!-- SIDE VIEW (looking along -X, from the right)                  -->
  <!-- Horizontal: Y (depth 0..121mm), Vertical: Z (height 0..70mm) -->
  <!-- Scale: 3 px/mm                                                -->
  <!-- Origin pixel: (620, 350) maps to tray (Y=0, Z=70)            -->
  <!--   sY(mm) = 620 + mm*3                                        -->
  <!--   sZ(mm) = 560 - mm*3                                        -->
  <!-- Y=0 -> x=620, Y=121 -> x=983                                 -->
  <!-- Z=0 -> y=560, Z=70 -> y=350                                  -->
  <!-- ============================================================ -->

  <text x="800" y="95" class="label">SIDE VIEW (looking along -X)</text>
  <text x="800" y="110" class="dim-small">Scale: 3 px/mm</text>

  <!-- Tray outline (side wall): Y=0..121, Z=0..70 -->
  <!-- Side wall is 5mm thick. We see the full tray depth and height. -->
  <rect x="620" y="350" width="363" height="210" class="outline"/>

  <!-- Lid on top: Z=70..74 -->
  <rect x="620" y="338" width="363" height="12" class="outline"/>

  <!-- Front bezel: Y=0..5, Z=0..70 -->
  <rect x="620" y="350" width="15" height="210" class="outline"/>
  <!-- Bezel inner edge at Y=5 -->
  <line x1="635" y1="350" x2="635" y2="560" stroke="black" stroke-width="0.6"/>

  <!-- Rear wall: Y=112.5..121, Z=0..70 -->
  <rect x="957.5" y="350" width="25.5" height="210" class="outline"/>

  <!-- Tray floor: Z=0..3, Y=0..112.5 -->
  <line x1="620" y1="551" x2="957.5" y2="551" stroke="black" stroke-width="0.6"/>

  <!-- Pump silhouette (hidden lines) -->
  <!-- Pump head: Y=0.6..48.6, Z=3.5..66.1 -->
  <rect x="621.8" y="361.7" width="144" height="187.8" class="hidden"/>
  <!-- Motor body (cylindrical, ~35mm dia): Y=52.6..111, centered at Z=34.8 -->
  <!-- Side view shows rectangle: Y=52.6..111, Z=34.8-17.5=17.3 .. 34.8+17.5=52.3 -->
  <rect x="777.8" y="403.6" width="175.2" height="105" class="hidden"/>
  <!-- Motor bracket: Y=48.6, Z range wider -->
  <line x1="765.8" y1="361.7" x2="765.8" y2="549.5" class="hidden"/>

  <!-- Mounting boss hidden: at Y=48.6, Z=3..8 (boss) then standoff rib to Z=34.8 -->
  <line x1="765.8" y1="551" x2="765.8" y2="535.6" class="hidden"/>

  <!-- Lever pivot: Y=9, Z=58 -->
  <!-- Pivot circle (end view): 6mm dia = 9px radius at 3px/mm -->
  <circle cx="647" cy="386" r="9" class="outline"/>
  <!-- Cross mark for center -->
  <line x1="643" y1="386" x2="651" y2="386" class="center"/>
  <line x1="647" y1="382" x2="647" y2="390" class="center"/>

  <!-- Cam lobe (locked position): disc center at Y=9, Z=55, radius 8mm -->
  <!-- Circle: center px (647, 395), r=24 -->
  <circle cx="647" cy="395" r="24" class="outline"/>
  <!-- Cam center mark -->
  <line x1="644" y1="395" x2="650" y2="395" stroke="black" stroke-width="0.4"/>
  <line x1="647" y1="392" x2="647" y2="398" stroke="black" stroke-width="0.4"/>

  <!-- Lever paddle (locked): Y=5..9, Z=18..58 -->
  <rect x="635" y="386" width="12" height="120" class="outline"/>
  <!-- Grip edge fillet at Z=18 (bottom of paddle) -->
  <!-- Small arc indication -->

  <!-- Push rod channel: Y=0..112.5, Z=56..60 (hidden, inside wall) -->
  <line x1="620" y1="392" x2="957.5" y2="392" class="hidden"/>
  <line x1="620" y1="380" x2="957.5" y2="380" class="hidden"/>

  <!-- Push rod (hidden): Y=9..121+, Z=58, 3.5mm dia -->
  <line x1="647" y1="384.75" x2="983" y2="384.75" class="hidden" style="stroke-dasharray:2,2"/>
  <line x1="647" y1="387.25" x2="983" y2="387.25" class="hidden" style="stroke-dasharray:2,2"/>

  <!-- Transfer slot in rear wall: Y=112.5..121, Z=55.5..60.5 -->
  <rect x="957.5" y="378.5" width="25.5" height="15" stroke="black" stroke-width="0.6" fill="none"/>

  <!-- Fitting bores in rear wall (hidden in side view - circles become rectangles) -->
  <!-- F1/F3 at Z=49.8: bore 9.5mm dia shows as hidden lines at Z=49.8-4.75..49.8+4.75 = 45.05..54.55 -->
  <line x1="957.5" y1="396.85" x2="983" y2="396.85" class="hidden" style="stroke-dasharray:2,2"/>
  <line x1="957.5" y1="425.35" x2="983" y2="425.35" class="hidden" style="stroke-dasharray:2,2"/>
  <!-- F2/F4 at Z=19.8: Z=19.8-4.75=15.05..19.8+4.75=24.55 -->
  <line x1="957.5" y1="486.85" x2="983" y2="486.85" class="hidden" style="stroke-dasharray:2,2"/>
  <line x1="957.5" y1="515.35" x2="983" y2="515.35" class="hidden" style="stroke-dasharray:2,2"/>

  <!-- Fitting body ends protruding outboard: Y=121..133.1 -->
  <!-- Upper fitting body end: Z=49.8, OD 15.1mm (7.55mm half) -->
  <!-- Body end: Y=121..133.1, Z=49.8+/-7.55 = 42.25..57.35 -->
  <rect x="983" y="387.95" width="36.3" height="45.3" class="outline"/>
  <!-- Lower fitting body end: Z=19.8+/-7.55 = 12.25..27.35 -->
  <rect x="983" y="477.95" width="36.3" height="45.3" class="outline"/>

  <!-- Collet protrusions: Y=133.1..134.5, OD 9.57 -->
  <!-- Upper: Z=49.8+/-4.785 = 45.015..54.585 -->
  <rect x="1019.3" y="400.245" width="4.2" height="28.71" class="outline"/>
  <!-- Lower: Z=19.8+/-4.785 = 15.015..24.585 -->
  <rect x="1019.3" y="490.245" width="4.2" height="28.71" class="outline"/>

  <!-- Release plate: thickness 3mm at Y=136..139 (at rest), Z=9.8..59.8 -->
  <!-- px: Y=136 -> 620+136*3=1028, Y=139 -> 1037, Z=9.8..59.8 -> 560-59.8*3=380.6 .. 560-9.8*3=530.6 -->
  <rect x="1028" y="380.6" width="9" height="150" class="outline"/>

  <!-- Guide posts: Y=121..143, Z=34.8, dia 4mm (2mm half) -->
  <!-- px: Y=121->983, Y=143->1049, Z=34.8+/-2 = 32.8..36.8 -> y=560-36.8*3=449.6..560-32.8*3=461.6 -->
  <line x1="983" y1="449.6" x2="1049" y2="449.6" stroke="black" stroke-width="0.8"/>
  <line x1="983" y1="461.6" x2="1049" y2="461.6" stroke="black" stroke-width="0.8"/>
  <!-- Guide post ends -->
  <line x1="1049" y1="449.6" x2="1049" y2="461.6" stroke="black" stroke-width="0.8"/>

  <!-- Registration boss sockets: hidden in rear wall -->
  <!-- Socket A: X=21.5,Z=9.8 and B: X=118.5,Z=59.8 -->
  <!-- In side view (along -X), we see socket B (nearer right side) as hidden -->
  <!-- Socket depth: Y=121..106, dia ~10.3 -> hidden lines in rear wall -->

  <!-- Entry funnels around fitting bores (outboard face) -->
  <!-- Funnel: Y=121..129, tapering from 12mm to 9.5mm -->

  <!-- SIDE VIEW DIMENSIONS -->

  <!-- Overall depth: 121mm -->
  <line x1="620" y1="560" x2="620" y2="580" class="extline"/>
  <line x1="983" y1="560" x2="983" y2="580" class="extline"/>
  <line x1="620" y1="575" x2="983" y2="575" class="dimline" marker-start="url(#arrow-rev)" marker-end="url(#arrow)"/>
  <text x="800" y="572" class="dim">121</text>

  <!-- Rear wall thickness: 8.5mm -->
  <line x1="957.5" y1="350" x2="957.5" y2="338" class="extline"/>
  <line x1="983" y1="350" x2="983" y2="338" class="extline"/>
  <line x1="957.5" y1="340" x2="983" y2="340" class="dimline" marker-start="url(#arrow-rev)" marker-end="url(#arrow)"/>
  <text x="970" y="337" class="dim-small">8.5</text>

  <!-- Bezel depth: 5mm -->
  <line x1="620" y1="350" x2="620" y2="338" class="extline"/>
  <line x1="635" y1="350" x2="635" y2="338" class="extline"/>
  <line x1="620" y1="340" x2="635" y2="340" class="dimline" marker-start="url(#arrow-rev)" marker-end="url(#arrow)"/>
  <text x="627" y="337" class="dim-small">5</text>

  <!-- Floor thickness: 3mm -->
  <line x1="620" y1="560" x2="607" y2="560" class="extline"/>
  <line x1="620" y1="551" x2="607" y2="551" class="extline"/>
  <line x1="610" y1="551" x2="610" y2="560" class="dimline" marker-start="url(#arrow-rev)" marker-end="url(#arrow)"/>
  <text x="601" y="558" class="dim-small">3</text>

  <!-- Pivot Y=9 from front -->
  <line x1="647" y1="380" x2="647" y2="370" class="extline"/>
  <line x1="620" y1="370" x2="620" y2="370" class="extline"/>
  <line x1="620" y1="370" x2="647" y2="370" class="dimline" marker-start="url(#arrow-rev)" marker-end="url(#arrow)"/>
  <text x="633" y="367" class="dim-small">9</text>

  <!-- Pivot Z=58 from bottom -->
  <line x1="620" y1="386" x2="607" y2="386" class="extline"/>
  <line x1="610" y1="386" x2="610" y2="551" class="dimline" marker-start="url(#arrow-rev)" marker-end="url(#arrow)"/>
  <text x="601" y="472" class="dim" transform="rotate(-90,601,472)">58</text>

  <!-- Height: 70mm -->
  <line x1="620" y1="350" x2="600" y2="350" class="extline"/>
  <line x1="600" y1="350" x2="600" y2="560" class="dimline" marker-start="url(#arrow-rev)" marker-end="url(#arrow)"/>
  <text x="591" y="458" class="dim" transform="rotate(-90,591,458)">70</text>

  <!-- Release plate Y position: Y=136 from front -->
  <line x1="1028" y1="380.6" x2="1028" y2="370" class="extline"/>
  <line x1="620" y1="370" x2="620" y2="370" class="extline"/>
  <text x="1028" y="610" class="dim-small">Y=136</text>

  <!-- Guide post length annotation -->
  <line x1="983" y1="449.6" x2="983" y2="440" class="extline"/>
  <line x1="1049" y1="449.6" x2="1049" y2="440" class="extline"/>
  <line x1="983" y1="442" x2="1049" y2="442" class="dimline" marker-start="url(#arrow-rev)" marker-end="url(#arrow)"/>
  <text x="1016" y="439" class="dim-small">22</text>

  <!-- Body end protrusion -->
  <line x1="983" y1="387.95" x2="983" y2="378" class="extline"/>
  <line x1="1019.3" y1="387.95" x2="1019.3" y2="378" class="extline"/>
  <line x1="983" y1="380" x2="1019.3" y2="380" class="dimline" marker-start="url(#arrow-rev)" marker-end="url(#arrow)"/>
  <text x="1001" y="377" class="dim-small">12.1</text>

  <!-- ============================================================ -->
  <!-- TOP VIEW (looking along -Z, from above)                       -->
  <!-- Horizontal: X (width 0..140mm), Vertical: Y (depth 0..121mm) -->
  <!-- Scale: 3 px/mm                                                -->
  <!-- Aligned with front view X range                               -->
  <!-- Origin pixel: (100, 660) maps to tray (X=0, Y=0)             -->
  <!--   tX(mm) = 100 + mm*3                                        -->
  <!--   tY(mm) = 660 + mm*3                                        -->
  <!-- Y=0 -> y=660, Y=121 -> y=1023                                -->
  <!-- ============================================================ -->

  <text x="310" y="635" class="label">TOP VIEW (looking along -Z)</text>
  <text x="310" y="650" class="dim-small">Scale: 3 px/mm</text>

  <!-- Lid top surface (what we see from above): X=0..140, Y=0..121 -->
  <rect x="100" y="660" width="420" height="363" class="outline"/>

  <!-- Rail ribs visible on sides -->
  <!-- Left rib: X=-2..0, Y=0..121 -->
  <rect x="94" y="660" width="6" height="363" class="outline"/>
  <!-- Right rib: X=140..142, Y=0..121 -->
  <rect x="520" y="660" width="6" height="363" class="outline"/>

  <!-- Pump positions (hidden, below lid) -->
  <!-- Pump 1: X=5.2..67.8, Y=0.6..48.6 -->
  <rect x="115.6" y="661.8" width="187.8" height="144" class="hidden"/>
  <!-- Pump 2: X=72.2..134.8, Y=0.6..48.6 -->
  <rect x="316.6" y="661.8" width="187.8" height="144" class="hidden"/>

  <!-- Pump center lines -->
  <line x1="209.5" y1="658" x2="209.5" y2="1025" class="center"/>
  <line x1="410.5" y1="658" x2="410.5" y2="1025" class="center"/>

  <!-- Rear wall: Y=112.5..121 -->
  <line x1="100" y1="997.5" x2="520" y2="997.5" stroke="black" stroke-width="0.6"/>

  <!-- Fitting positions in rear wall (hidden circles - axis along Y, so circles in top view) -->
  <!-- F1: X=36.5, Z=49.8 -> px x=209.5. Bore 9.5mm dia -> r=14.25 -->
  <!-- In top view, fittings run along Y axis, so they show as circles at rear wall -->
  <circle cx="209.5" cy="1023" r="14.25" class="hidden"/>
  <circle cx="410.5" cy="1023" r="14.25" class="hidden"/>
  <!-- Lower fittings at same X but different Z (not visible differently in top view) -->
  <!-- They overlap in top view since Z is collapsed. Show offset slightly for clarity -->

  <!-- Lever paddle position: X=10..130, Y=5..9 (thickness 4mm at pivot Y) -->
  <!-- Hidden below lid -->
  <rect x="130" y="675" width="360" height="12" class="hidden"/>

  <!-- Front bezel: Y=0..5 -->
  <line x1="100" y1="675" x2="520" y2="675" stroke="black" stroke-width="0.6"/>

  <!-- Snap-fit hooks on lid sides (2 per side) -->
  <!-- H1: X=0, Y=30 -->
  <rect x="96" y="750" width="4" height="6" stroke="black" stroke-width="0.5" fill="none"/>
  <!-- H2: X=0, Y=91 -->
  <rect x="96" y="933" width="4" height="6" stroke="black" stroke-width="0.5" fill="none"/>
  <!-- H3: X=140, Y=30 -->
  <rect x="520" y="750" width="4" height="6" stroke="black" stroke-width="0.5" fill="none"/>
  <!-- H4: X=140, Y=91 -->
  <rect x="520" y="933" width="4" height="6" stroke="black" stroke-width="0.5" fill="none"/>

  <!-- Body ends protruding past rear wall: Y=121..133.1 -->
  <!-- F1 body: centered at X=36.5, OD 15.1 -> X=36.5-7.55..36.5+7.55 = 28.95..44.05 -->
  <rect x="186.85" y="1023" width="45.3" height="36.3" class="outline"/>
  <!-- F3 body: centered at X=103.5 -->
  <rect x="387.85" y="1023" width="45.3" height="36.3" class="outline"/>
  <!-- F2 body: overlaps with F1 in top view (same X, different Z - collapsed) -->
  <!-- F4 body: overlaps with F3 -->

  <!-- Release plate: X=10..130 at Y=136..139 -->
  <rect x="130" y="1068" width="360" height="9" class="outline"/>

  <!-- Guide posts: X=8, X=132, Y=121..143 -->
  <!-- Left post: X=8, dia 4mm -> X=6..10 -> px 118..130 -->
  <rect x="118" y="1023" width="12" height="66" stroke="black" stroke-width="0.8" fill="none"/>
  <!-- Right post: X=132 -> px 496..508 -->
  <rect x="496" y="1023" width="12" height="66" stroke="black" stroke-width="0.8" fill="none"/>

  <!-- TOP VIEW DIMENSIONS -->

  <!-- Width: 140mm (same axis as front view, reuse alignment) -->
  <line x1="100" y1="1023" x2="100" y2="1045" class="extline"/>
  <line x1="520" y1="1023" x2="520" y2="1045" class="extline"/>
  <line x1="100" y1="1040" x2="520" y2="1040" class="dimline" marker-start="url(#arrow-rev)" marker-end="url(#arrow)"/>
  <text x="310" y="1037" class="dim">140</text>

  <!-- Depth: 121mm -->
  <line x1="520" y1="660" x2="540" y2="660" class="extline"/>
  <line x1="520" y1="1023" x2="540" y2="1023" class="extline"/>
  <line x1="535" y1="660" x2="535" y2="1023" class="dimline" marker-start="url(#arrow-rev)" marker-end="url(#arrow)"/>
  <text x="549" y="845" class="dim" transform="rotate(-90,549,845)">121</text>

  <!-- Fitting X positions -->
  <line x1="209.5" y1="1023" x2="209.5" y2="1055" class="extline"/>
  <line x1="410.5" y1="1023" x2="410.5" y2="1055" class="extline"/>
  <line x1="209.5" y1="1052" x2="410.5" y2="1052" class="dimline" marker-start="url(#arrow-rev)" marker-end="url(#arrow)"/>
  <text x="310" y="1049" class="dim">67</text>

  <!-- Pump 1 X center from left wall -->
  <line x1="100" y1="1055" x2="100" y2="1070" class="extline"/>
  <line x1="209.5" y1="1055" x2="209.5" y2="1070" class="extline"/>
  <line x1="100" y1="1065" x2="209.5" y2="1065" class="dimline" marker-start="url(#arrow-rev)" marker-end="url(#arrow)"/>
  <text x="155" y="1062" class="dim-small">36.5</text>

  <!-- ============================================================ -->
  <!-- DETAIL A — Cam/Lever Mechanism (cross-section through pivot)  -->
  <!-- Shows Y (horizontal) vs Z (vertical) at X = 7.0 (left cam)   -->
  <!-- Scale: 6 px/mm                                                -->
  <!-- Two states: Locked (left) and Unlocked (right)                -->
  <!-- ============================================================ -->

  <text x="350" y="1120" class="label">DETAIL A — Cam/Lever Mechanism (section at X = 7)</text>
  <text x="350" y="1135" class="dim-small">Scale: 6 px/mm | Cross-section through left cam lobe</text>

  <!-- Detail A frame -->
  <rect x="50" y="1005" width="640" height="520" class="detail-frame"/>

  <!-- === LOCKED STATE (left half of detail A) === -->
  <text x="210" y="1170" class="dim" style="font-weight:bold">LOCKED</text>

  <!-- Local coordinate origin for locked state: px (130, 1460) = tray (Y=0, Z=0) -->
  <!-- aY(mm) = 130 + mm*6 -->
  <!-- aZ(mm) = 1460 - mm*6 -->

  <!-- Tray side wall section (Z=0..70, Y=0..5 inner wall) -->
  <!-- We show a slice at X=7 which is inside the left wall (X=0..5) -->
  <!-- At X=7, we're in tray interior. Show floor and ceiling -->
  <!-- Floor: Z=0..3 -->
  <rect x="130" y="1442" width="120" height="18" class="section"/>
  <!-- Ceiling (lid bottom edge): Z=70..74 -->
  <rect x="130" y="1016" width="120" height="24" class="section"/>

  <!-- Rear wall slice at X=7 (inside push rod slot area): Y=112.5..121 -->
  <!-- Y=112.5 -> 130+112.5*6=805, Y=121 -> 856 — outside frame. Omit rear wall from this detail -->

  <!-- Pivot bearing at Y=9, Z=58 -->
  <!-- Pivot center: px (130+9*6, 1460-58*6) = (184, 1112) -->
  <!-- Bearing hole 6.1mm dia: r=6.1/2*6=18.3 -->
  <circle cx="184" cy="1112" r="18.3" stroke="black" stroke-width="0.8" fill="none"/>
  <!-- Pivot stub 6mm dia: r=6/2*6=18 -->
  <circle cx="184" cy="1112" r="18" class="section"/>

  <!-- Cam lobe (locked): center at Y=9, Z=55 (eccentricity -3 in Z) -->
  <!-- Center px: (184, 1112+3*6) = (184, 1130) -->
  <!-- Radius 8mm = 48px -->
  <circle cx="184" cy="1130" r="48" class="section-dark"/>
  <!-- Pivot axis mark -->
  <line x1="178" y1="1112" x2="190" y2="1112" stroke="black" stroke-width="0.5"/>
  <line x1="184" y1="1106" x2="184" y2="1118" stroke="black" stroke-width="0.5"/>
  <!-- Cam center mark -->
  <line x1="180" y1="1130" x2="188" y2="1130" stroke="red" stroke-width="0.5"/>
  <line x1="184" y1="1126" x2="184" y2="1134" stroke="red" stroke-width="0.5"/>

  <!-- Eccentricity dimension: 3mm -->
  <line x1="190" y1="1112" x2="210" y2="1112" class="extline"/>
  <line x1="190" y1="1130" x2="210" y2="1130" class="extline"/>
  <line x1="205" y1="1112" x2="205" y2="1130" class="dimline" marker-start="url(#arrow-rev)" marker-end="url(#arrow)"/>
  <text x="220" y="1124" class="dim-small">3 (ecc.)</text>

  <!-- Cam radius dimension: 8mm -->
  <line x1="184" y1="1130" x2="184" y2="1178" class="dimline" marker-end="url(#arrow)"/>
  <text x="200" y="1168" class="dim-small">R8</text>

  <!-- Push rod in channel: at Z=58, channel Z=56..60 -->
  <!-- Rod: 3.5mm dia, center at Z=58. At Y ~ 15 (just past cam contact) -->
  <!-- In locked state, cam lowest point at Z=55-8=47, doesn't push rod at Z=58 -->
  <!-- Rod channel: Y extends from ~9 to 112.5 -->
  <!-- Show channel walls at Z=56 and Z=60 -->
  <line x1="184" y1="1124" x2="250" y2="1124" stroke="black" stroke-width="0.6"/>
  <line x1="184" y1="1100" x2="250" y2="1100" stroke="black" stroke-width="0.6"/>
  <!-- Rod cross-section (circle at section cut, 3.5mm dia = 21px dia) -->
  <circle cx="220" cy="1112" r="10.5" class="section"/>

  <!-- Paddle (locked, hanging down from pivot): Y=5..9, Z=18..58 -->
  <!-- Paddle: Y=5->160, Y=9->184, Z=18->1352, Z=58->1112 -->
  <rect x="160" y="1112" width="24" height="240" class="section"/>

  <!-- Bezel: Y=0..5, Z=0..70 -->
  <!-- At the section level, show bezel as wall -->
  <rect x="130" y="1040" width="30" height="420" class="section" style="fill:#ddd"/>

  <!-- Detent notch at Z=18 (locked position) on bezel inner face Y=5 -->
  <!-- Z=18 -> 1460-18*6=1352, Y=5 -> 160 -->
  <!-- V-notch: 2mm wide (12px), 0.5mm deep (3px) -->
  <polygon points="160,1346 163,1352 160,1358" fill="white" stroke="black" stroke-width="0.5"/>

  <!-- Spring tab on paddle engaging notch -->
  <!-- Tab extends from paddle bottom (Z=18, Y=5 face) downward 12mm -->
  <!-- Tab at Y=5-1.5/2 (on paddle face edge), extending from Z=18 down to Z=6 -->
  <rect x="157" y="1352" width="3" height="72" stroke="black" stroke-width="0.5" fill="#e8e8e8"/>
  <!-- Tab tip engaging V-notch -->
  <circle cx="158.5" cy="1352" r="2" fill="#e8e8e8" stroke="black" stroke-width="0.5"/>

  <!-- Annotations -->
  <text x="260" y="1180" class="dim-small">Cam eccentricity</text>
  <text x="260" y="1192" class="dim-small">points downward</text>
  <text x="260" y="1204" class="dim-small">(no rod contact)</text>

  <!-- === UNLOCKED STATE (right half of detail A) === -->
  <text x="520" y="1170" class="dim" style="font-weight:bold">UNLOCKED</text>

  <!-- Origin for unlocked state: px (420, 1460) = tray (Y=0, Z=0) -->
  <!-- uY(mm) = 420 + mm*6 -->
  <!-- uZ(mm) = 1460 - mm*6 -->

  <!-- Floor -->
  <rect x="420" y="1442" width="120" height="18" class="section"/>
  <!-- Ceiling (lid) -->
  <rect x="420" y="1016" width="120" height="24" class="section"/>

  <!-- Pivot: Y=9, Z=58 -> px (474, 1112) -->
  <circle cx="474" cy="1112" r="18.3" stroke="black" stroke-width="0.8" fill="none"/>
  <circle cx="474" cy="1112" r="18" class="section"/>

  <!-- Cam lobe (unlocked): center at Y=6, Z=58 (eccentricity shifted to -Y) -->
  <!-- Center px: (420+6*6, 1460-58*6) = (456, 1112) -->
  <circle cx="456" cy="1112" r="48" class="section-dark"/>
  <!-- Pivot axis mark -->
  <line x1="468" y1="1112" x2="480" y2="1112" stroke="black" stroke-width="0.5"/>
  <line x1="474" y1="1106" x2="474" y2="1118" stroke="black" stroke-width="0.5"/>
  <!-- Cam center mark -->
  <line x1="452" y1="1112" x2="460" y2="1112" stroke="red" stroke-width="0.5"/>
  <line x1="456" y1="1108" x2="456" y2="1116" stroke="red" stroke-width="0.5"/>

  <!-- Eccentricity dimension: 3mm in -Y direction -->
  <line x1="456" y1="1100" x2="456" y2="1090" class="extline"/>
  <line x1="474" y1="1100" x2="474" y2="1090" class="extline"/>
  <line x1="456" y1="1093" x2="474" y2="1093" class="dimline" marker-start="url(#arrow-rev)" marker-end="url(#arrow)"/>
  <text x="465" y="1088" class="dim-small">3</text>

  <!-- Push rod (shifted 3mm in -Y): rod at Y~6 now, Z=58 -->
  <!-- Rod channel -->
  <line x1="474" y1="1124" x2="550" y2="1124" stroke="black" stroke-width="0.6"/>
  <line x1="474" y1="1100" x2="550" y2="1100" stroke="black" stroke-width="0.6"/>
  <!-- Rod cross-section (shifted -3mm in Y compared to locked) -->
  <!-- Locked rod was at Y~15 (px 220). Here rod shifted to Y~12 -->
  <circle cx="502" cy="1112" r="10.5" class="section"/>

  <!-- Arrow showing 3mm rod travel -->
  <line x1="530" y1="1112" x2="514" y2="1112" stroke="red" stroke-width="1.0" marker-end="url(#arrow)"/>
  <!-- leader line removed to avoid text-line collisions -->
  <text x="570" y="1230" class="dim-small" style="fill:red">3mm travel</text>

  <!-- Paddle (unlocked, rotated 90 deg - now pointing up): Y=-20..+20 around pivot, above pivot -->
  <!-- Unlocked: paddle swings up. In tray frame, paddle now at Z=58..58+40=98 (above tray) -->
  <!-- Actually above the tray. Show it at Y=9-20..9+20 = Y=-11..29, Z=58..62 (4mm thick going +Z) -->
  <!-- Paddle: Y=-11->420+(-11)*6=354, Y=29->420+29*6=594, Z=58->1112, Z=62->1088 -->
  <rect x="354" y="1088" width="240" height="24" class="section"/>

  <!-- Bezel -->
  <rect x="420" y="1040" width="30" height="420" class="section" style="fill:#ddd"/>

  <!-- Detent notch at Z=58 (unlocked position) -->
  <!-- Z=58 -> 1112, Y=5 -> 450 -->
  <polygon points="450,1106 453,1112 450,1118" fill="white" stroke="black" stroke-width="0.5"/>

  <!-- Annotations -->
  <text x="550" y="1180" class="dim-small">Cam eccentricity</text>
  <text x="550" y="1192" class="dim-small">points toward user (-Y)</text>
  <text x="550" y="1204" class="dim-small">Rod pulled 3mm in -Y</text>

  <!-- ============================================================ -->
  <!-- DETAIL B — John Guest Fitting Bore (section through fitting)  -->
  <!-- Shows Y (horizontal) vs radial profile                        -->
  <!-- Scale: 8 px/mm                                                -->
  <!-- ============================================================ -->

  <text x="1200" y="1120" class="label">DETAIL B — JG Fitting Bore (section at F1)</text>
  <text x="1200" y="1135" class="dim-small">Scale: 8 px/mm | Half-section through fitting centerline</text>

  <!-- Detail B frame -->
  <rect x="860" y="1145" width="680" height="380" class="detail-frame"/>

  <!-- Fitting axis is along Y. Show Y horizontal, radial vertical (half-section, upper half). -->
  <!-- Reference: fitting center at Y=121 in tray frame (rear wall outboard face) -->
  <!-- bY(mm relative to Y=95) = mm_from_95 * 8 -->
  <!-- Origin pixel: px (920, 1440) maps to (Y=95, R=0) in tray frame -->
  <!-- bY(mm) = 920 + (tray_Y - 95)*8 -->
  <!-- bR(mm) = 1440 - R*8 (R = radial distance from axis, upward) -->

  <!-- Centerline -->
  <line x1="880" y1="1440" x2="1520" y2="1440" class="center"/>

  <!-- Rear wall section: Y=112.5 to Y=121 -->
  <!-- Y=112.5 -> 920+(112.5-95)*8=1060, Y=121 -> 920+(121-95)*8=1128 -->
  <!-- Wall is solid material from R=4.75 (bore radius 9.5/2) to top of wall -->
  <!-- Show from R=0 up to R=10mm (representative) -->
  <rect x="1060" y="1360" width="68" height="80" class="section"/>
  <!-- Bore through wall (empty space) -->
  <rect x="1060" y="1402" width="68" height="38" fill="white" stroke="black" stroke-width="0.6"/>

  <!-- Center body in bore: Y=108.8..121, OD 9.31 -> R=4.655 -->
  <!-- Y=108.8 -> 920+(108.8-95)*8=1030.4, R=4.655 -> 1440-4.655*8=1402.76 -->
  <rect x="1030" y="1403" width="98" height="37" class="section-dark"/>

  <!-- Inboard body end: Y=96.7..108.8, OD 15.1 -> R=7.55 -->
  <!-- Y=96.7 -> 920+(96.7-95)*8=933.6 R=7.55 -> 1440-7.55*8=1379.6 -->
  <rect x="934" y="1380" width="96" height="60" class="section-dark"/>

  <!-- Outboard body end: Y=121..133.1, OD 15.1 -->
  <!-- Y=121 -> 1128, Y=133.1 -> 920+(133.1-95)*8=1224.8 -->
  <rect x="1128" y="1380" width="97" height="60" class="section-dark"/>

  <!-- Inboard collet: Y=95.3..96.7, OD 9.57 -> R=4.785 -->
  <!-- Y=95.3 -> 920+(95.3-95)*8=922.4, Y=96.7 -> 933.6, R=4.785 -> 1401.72 -->
  <rect x="922" y="1402" width="12" height="38" stroke="black" stroke-width="0.6" fill="#ccc"/>

  <!-- Outboard collet: Y=133.1..134.5, OD 9.57 -->
  <!-- Y=133.1 -> 1224.8, Y=134.5 -> 1236 -->
  <rect x="1225" y="1402" width="11" height="38" stroke="black" stroke-width="0.6" fill="#ccc"/>

  <!-- Release plate (at rest, Y=136..139): -->
  <!-- Y=136 -> 1248, Y=139 -> 1272 -->
  <!-- Stepped bore profile in release plate: -->
  <!-- Tube clearance zone: Y=136..136.5, R=0..3.25 (dia 6.5) -->
  <!-- Collet hugger: Y=136.5..138, R=0..4.9 (dia 9.8) -->
  <!-- Body end relief: Y=138..139, R=0..7.75 (dia 15.5) -->
  <rect x="1248" y="1378" width="24" height="62" class="section"/>
  <!-- Tube clearance bore -->
  <rect x="1248" y="1414" width="4" height="26" fill="white" stroke="black" stroke-width="0.5"/>
  <!-- Collet hugger bore -->
  <rect x="1252" y="1401" width="12" height="39" fill="white" stroke="black" stroke-width="0.5"/>
  <!-- Body end relief bore -->
  <rect x="1264" y="1378" width="8" height="62" fill="white" stroke="black" stroke-width="0.5"/>

  <!-- Tube stub from dock (shown for context): 6.35mm OD = R=3.175 -->
  <!-- Tube enters from +Y direction through collet -->
  <!-- Y > 139, entering through release plate when docked -->
  <line x1="1280" y1="1427" x2="1340" y2="1427" stroke="black" stroke-width="0.6"/>
  <line x1="1280" y1="1440" x2="1340" y2="1440" stroke="black" stroke-width="0.6"/>
  <text x="1350" y="1430" class="dim-small" style="text-anchor:start">Tube stub</text>
  <text x="1350" y="1442" class="dim-small" style="text-anchor:start">6.35 OD</text>

  <!-- DETAIL B DIMENSIONS -->

  <!-- Bore diameter: 9.5mm -->
  <line x1="1060" y1="1402" x2="1040" y2="1402" class="extline"/>
  <line x1="1060" y1="1440" x2="1040" y2="1440" class="extline"/>
  <line x1="1045" y1="1402" x2="1045" y2="1440" class="dimline" marker-start="url(#arrow-rev)" marker-end="url(#arrow)"/>
  <text x="1030" y="1424" class="dim-small">4.75</text>
  <text x="1030" y="1435" class="dim-small">(R)</text>

  <!-- Body end OD: 15.1mm (half = 7.55) -->
  <line x1="934" y1="1380" x2="910" y2="1380" class="extline"/>
  <line x1="934" y1="1440" x2="910" y2="1440" class="extline"/>
  <line x1="916" y1="1380" x2="916" y2="1440" class="dimline" marker-start="url(#arrow-rev)" marker-end="url(#arrow)"/>
  <text x="900" y="1413" class="dim-small">7.55</text>
  <text x="900" y="1424" class="dim-small">(R)</text>

  <!-- Center body length through wall: 8.5mm -->
  <line x1="1060" y1="1360" x2="1060" y2="1348" class="extline"/>
  <line x1="1128" y1="1360" x2="1128" y2="1348" class="extline"/>
  <line x1="1060" y1="1352" x2="1128" y2="1352" class="dimline" marker-start="url(#arrow-rev)" marker-end="url(#arrow)"/>
  <text x="1094" y="1349" class="dim-small">8.5 (wall)</text>

  <!-- Outboard body end: 12.1mm -->
  <line x1="1128" y1="1372" x2="1128" y2="1360" class="extline"/>
  <line x1="1225" y1="1372" x2="1225" y2="1360" class="extline"/>
  <line x1="1128" y1="1365" x2="1225" y2="1365" class="dimline" marker-start="url(#arrow-rev)" marker-end="url(#arrow)"/>
  <text x="1176" y="1362" class="dim-small">12.1</text>

  <!-- Release plate thickness: 3mm -->
  <line x1="1248" y1="1372" x2="1248" y2="1360" class="extline"/>
  <line x1="1272" y1="1372" x2="1272" y2="1360" class="extline"/>
  <line x1="1248" y1="1365" x2="1272" y2="1365" class="dimline" marker-start="url(#arrow-rev)" marker-end="url(#arrow)"/>
  <text x="1260" y="1356" class="dim-small">3</text>

  <!-- Collet OD: 9.57 -->
  <line x1="1225" y1="1402" x2="1240" y2="1392" class="extline"/>
  <text x="1242" y="1393" class="dim-small">9.57 collet OD</text>

  <!-- Stepped bore annotations -->
  <line x1="1252" y1="1395" x2="1300" y2="1332" stroke="black" stroke-width="0.3"/>
  <text x="1302" y="1332" class="dim-small">Stepped bore in</text>
  <text x="1302" y="1344" class="dim-small">release plate:</text>
  <text x="1302" y="1356" class="dim-small">6.5 / 9.8 / 15.5 dia</text>

  <!-- Gap annotation: plate at rest, 1.5mm from collet face -->
  <line x1="1236" y1="1430" x2="1248" y2="1430" class="dimline" marker-start="url(#arrow-rev)" marker-end="url(#arrow)"/>
  <text x="1260" y="1460" class="dim-small">1.5mm gap</text>
  <text x="1260" y="1472" class="dim-small">(at rest)</text>

  <!-- ============================================================ -->
  <!-- DETAIL C — Rail Rib and Snap-Fit (cross-section)              -->
  <!-- Section through tray side wall looking along Y axis            -->
  <!-- Horizontal: X, Vertical: Z                                    -->
  <!-- Scale: 6 px/mm                                                -->
  <!-- ============================================================ -->

  <text x="1200" y="660" class="label">DETAIL C — Rail Rib and Snap-Fit Clip</text>
  <text x="1200" y="675" class="dim-small">Scale: 6 px/mm | Cross-section through left tray wall</text>

  <!-- Detail C frame -->
  <rect x="860" y="690" width="680" height="380" class="detail-frame"/>

  <!-- Show left tray wall from X=-2 to X=10, Z=0 to 74 (full height incl lid) -->
  <!-- cX(mm) = origin_px_x + (mm - (-2)) * 6  -->
  <!-- Origin: px (880, 1030) maps to (X=-2, Z=0) -->
  <!-- cX(mm) = 880 + (mm+2)*6 -->
  <!-- cZ(mm) = 1030 - mm*6 -->

  <!-- Tray left wall: X=0..5, Z=0..70 -->
  <!-- X=0 -> 880+2*6=892, X=5 -> 880+7*6=922 -->
  <!-- Z=0 -> 1030, Z=70 -> 1030-70*6=610 — outside frame at 690. Clip to frame. -->
  <!-- Adjust: show Z=0..70 starting from Z=0 at bottom -->
  <!-- Let me reposition: origin px (900, 1050) maps to (X=-3, Z=-2) -->
  <!-- cX(mm) = 900 + (mm+3)*6 -->
  <!-- cZ(mm) = 1050 - (mm+2)*6 = 1050 - mm*6 - 12 = 1038 - mm*6 -->
  <!-- Z=0 -> 1038, Z=70 -> 618. Min frame y = 690. So Z_max visible = (1038-690)/6 = 58mm -->
  <!-- Need to show Z=0..74. Use smaller scale or shift. -->
  <!-- Use scale 4 px/mm for this detail instead -->
  <!-- cX(mm) = 900 + (mm+3)*4 -->
  <!-- cZ(mm) = 1050 - (mm+2)*4 = 1042 - mm*4 -->
  <!-- Z=0 -> 1042, Z=74 -> 746. Ok within frame (690..1070) -->

  <!-- Tray left wall section: X=0..5, Z=0..70 -->
  <!-- X=0 -> 900+3*4=912, X=5 -> 900+8*4=932 -->
  <!-- Z=0 -> 1042, Z=70 -> 762 -->
  <rect x="912" y="762" width="20" height="280" class="section"/>

  <!-- Tray floor: X=0..5 (wall) + floor extends right. Z=0..3 -->
  <!-- Z=0 -> 1042, Z=3 -> 1030. X=5..10 -> 932..952 -->
  <rect x="932" y="1030" width="80" height="12" class="section"/>

  <!-- Rail rib: X=-2..0, Z=25..45 -->
  <!-- X=-2 -> 900+1*4=904, X=0 -> 912 -->
  <!-- Z=25 -> 942, Z=45 -> 862 -->
  <rect x="904" y="862" width="8" height="80" class="section"/>

  <!-- Lid: X=0..140, Z=70..74 (sits on tray top) -->
  <!-- Z=70 -> 762, Z=74 -> 746 -->
  <!-- Show lid section from X=-2 to X=10 -->
  <rect x="904" y="746" width="108" height="16" class="section" style="fill:#d8d8d8"/>

  <!-- Lid snap-fit hook: hangs down from lid edge at X=0 -->
  <!-- Hook cantilever: 12mm long (Z direction, hanging down from lid) -->
  <!-- Hook at X=0 face, extends in -X, wraps around wall -->
  <!-- Cantilever arm: X=-2..0 (outside wall), Z=70-12=58 up to Z=70 -->
  <!-- Z=58 -> 810, Z=70 -> 762 -->
  <rect x="904" y="762" width="8" height="48" stroke="black" stroke-width="0.6" fill="#d8d8d8"/>
  <!-- Hook tip engaging detent ridge at Z=67..69 -->
  <!-- Ridge protrudes 0.8mm in -X from wall face (X=0) -->
  <!-- Ridge at Z=67..69: Z=67 -> 774, Z=69 -> 766 -->
  <!-- Hook engages from above, hook face catches ridge bottom face at Z=67 -->
  <!-- Show hook tip as small rectangle protruding into wall -->
  <rect x="909" y="774" width="3" height="8" fill="#bbb" stroke="black" stroke-width="0.4"/>
  <!-- Detent ridge on tray wall -->
  <rect x="905" y="766" width="7" height="8" class="section" style="fill:#c0c0c0"/>

  <!-- Interior cavity (tray interior) -->
  <!-- Show open space from X=5 to X=10+, Z=3..70 -->

  <!-- Pump pocket edge (hidden, at X=5.2) -->
  <line x1="933" y1="1030" x2="933" y2="762" class="hidden"/>

  <!-- DETAIL C DIMENSIONS -->

  <!-- Wall thickness: 5mm -->
  <line x1="912" y1="1042" x2="912" y2="1058" class="extline"/>
  <line x1="932" y1="1042" x2="932" y2="1058" class="extline"/>
  <line x1="912" y1="1054" x2="932" y2="1054" class="dimline" marker-start="url(#arrow-rev)" marker-end="url(#arrow)"/>
  <text x="922" y="1066" class="dim-small">5</text>

  <!-- Rib protrusion: 2mm -->
  <line x1="904" y1="862" x2="904" y2="852" class="extline"/>
  <line x1="912" y1="862" x2="912" y2="852" class="extline"/>
  <line x1="904" y1="856" x2="912" y2="856" class="dimline" marker-start="url(#arrow-rev)" marker-end="url(#arrow)"/>
  <text x="908" y="848" class="dim-small">2</text>

  <!-- Rib height: 20mm -->
  <line x1="904" y1="862" x2="892" y2="862" class="extline"/>
  <line x1="904" y1="942" x2="892" y2="942" class="extline"/>
  <line x1="896" y1="862" x2="896" y2="942" class="dimline" marker-start="url(#arrow-rev)" marker-end="url(#arrow)"/>
  <text x="886" y="905" class="dim-small" transform="rotate(-90,886,905)">20</text>

  <!-- Rib Z position: Z=25..45 -->
  <line x1="904" y1="942" x2="892" y2="942" class="extline"/>
  <line x1="896" y1="942" x2="896" y2="1042" class="dimline" marker-start="url(#arrow-rev)" marker-end="url(#arrow)"/>
  <text x="886" y="995" class="dim-small" transform="rotate(-90,886,995)">25</text>

  <!-- Lid thickness: 4mm -->
  <line x1="1012" y1="746" x2="1028" y2="746" class="extline"/>
  <line x1="1012" y1="762" x2="1028" y2="762" class="extline"/>
  <line x1="1024" y1="746" x2="1024" y2="762" class="dimline" marker-start="url(#arrow-rev)" marker-end="url(#arrow)"/>
  <text x="1036" y="757" class="dim-small">4</text>

  <!-- Floor thickness: 3mm -->
  <line x1="952" y1="1030" x2="968" y2="1030" class="extline"/>
  <line x1="952" y1="1042" x2="968" y2="1042" class="extline"/>
  <line x1="964" y1="1030" x2="964" y2="1042" class="dimline" marker-start="url(#arrow-rev)" marker-end="url(#arrow)"/>
  <text x="976" y="1039" class="dim-small">3</text>

  <!-- Hook depth: 0.8mm -->
  <line x1="909" y1="766" x2="909" y2="756" class="extline"/>
  <line x1="912" y1="766" x2="912" y2="756" class="extline"/>
  <line x1="909" y1="759" x2="912" y2="759" class="dimline"/>
  <text x="920" y="758" class="dim-small">0.8 hook</text>

  <!-- Cantilever length: 12mm -->
  <line x1="900" y1="762" x2="888" y2="762" class="extline"/>
  <line x1="900" y1="810" x2="888" y2="810" class="extline"/>
  <line x1="892" y1="762" x2="892" y2="810" class="dimline" marker-start="url(#arrow-rev)" marker-end="url(#arrow)"/>
  <text x="882" y="790" class="dim-small" transform="rotate(-90,882,790)">12</text>

  <!-- Scale note for Detail C -->
  <text x="1200" y="1058" class="dim-small">Scale: 4 px/mm</text>

  <!-- ============================================================ -->
  <!-- PARTS LIST / LEGEND                                           -->
  <!-- ============================================================ -->

  <text x="1200" y="120" class="label">PARTS LEGEND</text>
  <rect x="1050" y="130" width="300" height="180" stroke="black" stroke-width="0.5" fill="none"/>
  <text x="1060" y="150" class="note">1. Cartridge Tray — 140 x 121 x 70 mm</text>
  <text x="1060" y="168" class="note">2. Cartridge Lid — 140 x 121 x 4 mm</text>
  <text x="1060" y="186" class="note">3. Lever — 130 mm span, 120 x 40 mm paddle</text>
  <text x="1060" y="204" class="note">4. Release Plate — 120 x 50 x 3 mm</text>
  <text x="1060" y="222" class="note">5. Front Bezel — 140 x 5 x 70 mm</text>
  <line x1="1050" y1="232" x2="1350" y2="232" stroke="black" stroke-width="0.3"/>
  <text x="1060" y="248" class="note">OTS: 4x JG PP0408W, 8x M3 SHCS, 8x M3 inserts</text>
  <text x="1060" y="264" class="note">OTS: 4x Cu pads, 2x push rods, silicone tubing</text>
  <text x="1060" y="280" class="note">Material: PETG throughout</text>
  <text x="1060" y="296" class="note">Assembled envelope: 144 x 143 x 74 mm</text>

  <!-- ============================================================ -->
  <!-- KEY DIMENSIONS TABLE                                          -->
  <!-- ============================================================ -->

  <text x="1200" y="340" class="label">KEY DIMENSIONS</text>
  <rect x="1050" y="350" width="300" height="240" stroke="black" stroke-width="0.5" fill="none"/>
  <text x="1060" y="370" class="note">Tray width: 140 mm (144 with ribs)</text>
  <text x="1060" y="386" class="note">Tray depth: 121 mm</text>
  <text x="1060" y="402" class="note">Tray height: 70 mm</text>
  <text x="1060" y="418" class="note">Wall thickness: 5 mm (sides), 8.5 mm (rear)</text>
  <text x="1060" y="434" class="note">Floor thickness: 3 mm</text>
  <text x="1060" y="450" class="note">Pump pockets: 62.6 x 48 mm each</text>
  <text x="1060" y="466" class="note">Pump mounting hole spacing: 49.45 mm</text>
  <text x="1060" y="482" class="note">Fitting bore: 9.5 mm dia, 4 places</text>
  <text x="1060" y="498" class="note">Cam eccentricity: 3 mm, radius: 8 mm</text>
  <text x="1060" y="514" class="note">Lever pivot: Y=9, Z=58 in tray frame</text>
  <text x="1060" y="530" class="note">Rail rib: 2 mm protrusion, 20 mm tall</text>
  <text x="1060" y="546" class="note">Release plate: 3 mm thick, 3 mm travel</text>
  <text x="1060" y="562" class="note">Guide post: 4 mm dia, 22 mm long, 2 places</text>
  <text x="1060" y="578" class="note">Guide post clearance: 0.3 mm (4.3 mm slot)</text>

  <!-- Detail view callout circles on main views -->
  <!-- Circle A on side view pointing to cam area -->
  <circle cx="647" cy="395" r="35" stroke="black" stroke-width="0.8" fill="none" stroke-dasharray="4,2"/>
  <text x="652" y="365" class="dim" style="font-weight:bold">A</text>

  <!-- Circle B on side view pointing to fitting area -->
  <circle cx="1001" cy="410" r="40" stroke="black" stroke-width="0.8" fill="none" stroke-dasharray="4,2"/>
  <text x="1045" y="400" class="dim" style="font-weight:bold">B</text>

  <!-- Circle C on front view pointing to left wall/rail area -->
  <circle cx="100" cy="455" r="30" stroke="black" stroke-width="0.8" fill="none" stroke-dasharray="4,2"/>
  <text x="56" y="448" class="dim" style="font-weight:bold">C</text>

</svg>
