<svg xmlns="http://www.w3.org/2000/svg" viewBox="0 0 1800 1400" width="1800" height="1400" font-family="Arial, sans-serif" font-size="11" fill="black" stroke="black">

  <title>Cartridge Tray — Engineering Drawing</title>

  <defs>
    <marker id="arrow" markerWidth="8" markerHeight="6" refX="8" refY="3" orient="auto">
      <path d="M0,0 L8,3 L0,6 Z" fill="black"/>
    </marker>
    <marker id="arrow-rev" markerWidth="8" markerHeight="6" refX="0" refY="3" orient="auto">
      <path d="M8,0 L0,3 L8,6 Z" fill="black"/>
    </marker>
    <style>
      .dim { font-size: 10px; fill: black; stroke: none; text-anchor: middle; }
      .dim-small { font-size: 9px; fill: black; stroke: none; text-anchor: middle; }
      .label { font-size: 12px; fill: black; stroke: none; font-weight: bold; text-anchor: middle; }
      .note { font-size: 9px; fill: black; stroke: none; }
      .title-text { font-size: 16px; fill: black; stroke: none; font-weight: bold; }
      .subtitle { font-size: 12px; fill: black; stroke: none; }
      .hidden { stroke-dasharray: 3,2; stroke-width: 0.8; fill: none; }
      .center { stroke-dasharray: 12,3,3,3; stroke-width: 0.5; stroke: #555; fill: none; }
      .outline { stroke: black; stroke-width: 1.2; fill: none; }
      .thin { stroke: black; stroke-width: 0.6; fill: none; }
      .dimline { stroke: black; stroke-width: 0.5; fill: none; }
      .ext { stroke: black; stroke-width: 0.4; fill: none; }
      .section { stroke: black; stroke-width: 0.8; fill: #e8e8e8; }
      .detail-frame { stroke: black; stroke-width: 1.0; fill: white; }
      .viewlbl { font-size: 11px; fill: black; stroke: none; font-weight: bold; text-anchor: middle; }
    </style>
  </defs>

  <!-- Background -->
  <rect x="0" y="0" width="1800" height="1400" fill="white" stroke="none"/>

  <!-- Title Block -->
  <text x="900" y="30" class="title-text" text-anchor="middle">Cartridge Tray</text>
  <text x="900" y="48" class="subtitle" text-anchor="middle">Pump Cartridge Structural Backbone — Third-Angle Orthographic Projection</text>
  <text x="900" y="64" class="note" text-anchor="middle">Material: PETG | All dimensions in mm | Scale noted per view</text>
  <line x1="100" y1="72" x2="1700" y2="72" stroke="black" stroke-width="0.5"/>

  <!-- ============================================================ -->
  <!-- FRONT VIEW (looking along -Y, from user side)               -->
  <!-- Horizontal: X (width), Vertical: Z (height)                 -->
  <!-- Scale: 3 px/mm                                              -->
  <!-- fX(mm) = 80 + (mm+7)*3   fZ(mm) = 360 + (72-mm)*3          -->
  <!-- fX(-7)=80  fX(0)=101  fX(160)=581  fX(167)=602             -->
  <!-- fZ(0)=576  fZ(3)=567  fZ(72)=360  fZ(37)=465               -->
  <!-- ============================================================ -->

  <text x="341" y="90" class="viewlbl">FRONT VIEW (looking along -Y)</text>
  <text x="341" y="104" class="dim-small">Scale 3:1 (3 px/mm)</text>

  <!-- Box shell outer outline -->
  <!-- Left wall outer X=0 to right wall outer X=160, Z=0 to Z=72 -->
  <rect x="101" y="360" width="480" height="216" class="outline"/>

  <!-- Left side wall inner face X=5 -->
  <line x1="116" y1="360" x2="116" y2="576" class="thin"/>
  <!-- Right side wall inner face X=155 -->
  <line x1="566" y1="360" x2="566" y2="576" class="thin"/>
  <!-- Floor inner face Z=3 -->
  <line x1="101" y1="567" x2="581" y2="567" class="thin"/>

  <!-- Bore plate as hidden lines (at Y=120-128.5, behind front) -->
  <!-- In front view, bore plate is behind. Show as hidden vertical span -->
  <!-- Bore plate front face Y=120, dock face Y=128.5. Extends X=5 to X=155, Z=3 to Z=72 -->
  <!-- In front view these appear as two hidden horizontal lines spanning the interior -->
  <!-- Actually bore plate is a wall in XZ plane - in front view it's hidden behind the open front -->
  <!-- Show bore plate outline as hidden rectangle from X=5 to X=155, Z=3 to Z=72 -->

  <!-- Step-lap ledge at Y=0: 1.5mm rabbet on all front edges -->
  <!-- Left wall rabbet: X=0 to 1.5, Z=0 to 72. In front view: thin line at X=1.5 -->
  <line x1="105.5" y1="360" x2="105.5" y2="576" class="thin"/>
  <!-- Right wall rabbet: X=158.5 to 160 -->
  <line x1="576.5" y1="360" x2="576.5" y2="576" class="thin"/>
  <!-- Floor rabbet: Z=0 to 1.5 -->
  <line x1="101" y1="571.5" x2="581" y2="571.5" class="thin"/>
  <!-- Top rabbet left: X=0 to 5, Z=70.5 to 72 -->
  <line x1="101" y1="364.5" x2="116" y2="364.5" class="thin"/>
  <!-- Top rabbet right: X=155 to 160 -->
  <line x1="566" y1="364.5" x2="581" y2="364.5" class="thin"/>

  <!-- T-Rail Tongues (Sub-B) -->
  <!-- Left rail: tongue X=-4 to 0, Z=52.5 to 55.5; cap X=-7 to -4, Z=51 to 57 -->
  <!-- fX(-7)=80 fX(-4)=89 fX(0)=101 -->
  <!-- fZ(51)=423 fZ(52.5)=418.5 fZ(55.5)=409.5 fZ(57)=405 -->
  <!-- Tongue rect -->
  <rect x="89" y="409.5" width="12" height="9" class="outline" fill="none"/>
  <!-- Cap rect -->
  <rect x="80" y="405" width="9" height="18" class="outline" fill="none"/>

  <!-- Right rail: tongue X=160 to 164, Z=16.5 to 19.5; cap X=164 to 167, Z=15 to 21 -->
  <!-- fX(160)=581 fX(164)=593 fX(167)=602 -->
  <!-- fZ(15)=531 fZ(16.5)=526.5 fZ(19.5)=517.5 fZ(21)=513 -->
  <rect x="581" y="517.5" width="12" height="9" class="outline" fill="none"/>
  <rect x="593" y="513" width="9" height="18" class="outline" fill="none"/>

  <!-- Pump mounting bosses (hidden, behind front face) - circles in front view? -->
  <!-- No - bosses are cylinders along Z. Front view (along -Y) sees the side profile: rectangles -->
  <!-- But bosses are deep inside the tray at Y=82, so they are hidden -->
  <!-- Boss B1: center X=17.3, Z=0 to 37, OD=10 -->
  <!-- fX(17.3-5)=116.9 fX(17.3+5)=146.9 fZ(0)=576 fZ(37)=465 -->
  <line x1="116.9" y1="465" x2="116.9" y2="567" class="hidden"/>
  <line x1="146.9" y1="465" x2="146.9" y2="567" class="hidden"/>
  <!-- Boss B2: center X=66.7 -->
  <line x1="265.1" y1="465" x2="265.1" y2="567" class="hidden"/>
  <line x1="295.1" y1="465" x2="295.1" y2="567" class="hidden"/>
  <!-- Boss B3: center X=93.3 -->
  <line x1="344.9" y1="465" x2="344.9" y2="567" class="hidden"/>
  <line x1="374.9" y1="465" x2="374.9" y2="567" class="hidden"/>
  <!-- Boss B4: center X=142.7 -->
  <line x1="493.1" y1="465" x2="493.1" y2="567" class="hidden"/>
  <line x1="523.1" y1="465" x2="523.1" y2="567" class="hidden"/>

  <!-- Fitting bores (Sub-D) - circles in front view (bores run along Y) -->
  <!-- F1: X=70, Z=27. Bore dia 9.5mm => radius 4.75mm = 14.25px -->
  <!-- fX(70)=311 fZ(27)=495 -->
  <circle cx="311" cy="495" r="14.25" class="hidden"/>
  <!-- Counterbore dia 15.5mm => radius 7.75mm = 23.25px -->
  <circle cx="311" cy="495" r="23.25" class="hidden"/>
  <!-- F2: X=90, Z=27 -->
  <circle cx="371" cy="495" r="14.25" class="hidden"/>
  <circle cx="371" cy="495" r="23.25" class="hidden"/>
  <!-- F3: X=70, Z=47 -->
  <circle cx="311" cy="435" r="14.25" class="hidden"/>
  <circle cx="311" cy="435" r="23.25" class="hidden"/>
  <!-- F4: X=90, Z=47 -->
  <circle cx="371" cy="435" r="14.25" class="hidden"/>
  <circle cx="371" cy="435" r="23.25" class="hidden"/>

  <!-- Fitting bore center lines -->
  <line x1="299" y1="435" x2="383" y2="435" class="center"/>
  <line x1="299" y1="495" x2="383" y2="495" class="center"/>
  <line x1="311" y1="423" x2="311" y2="507" class="center"/>
  <line x1="371" y1="423" x2="371" y2="507" class="center"/>

  <!-- Guide posts (Sub-E) - circles in front view (posts run along Y) -->
  <!-- GP1: X=58, Z=17 => fX(58)=275, fZ(17)=525. Dia 3.5mm => r=1.75mm=5.25px -->
  <circle cx="275" cy="525" r="5.25" class="hidden"/>
  <!-- GP2: X=102, Z=17 -->
  <circle cx="407" cy="525" r="5.25" class="hidden"/>
  <!-- GP3: X=58, Z=57 -->
  <circle cx="275" cy="405" r="5.25" class="hidden"/>
  <!-- GP4: X=102, Z=57 -->
  <circle cx="407" cy="405" r="5.25" class="hidden"/>

  <!-- Stop bosses - circles. SB1: X=80,Z=20 dia5mm => r=2.5mm=7.5px -->
  <circle cx="341" cy="516" r="7.5" class="hidden"/>
  <!-- SB2: X=80,Z=54 -->
  <circle cx="341" cy="414" r="7.5" class="hidden"/>
  <!-- SB3: X=65,Z=37 -->
  <circle cx="296" cy="465" r="7.5" class="hidden"/>
  <!-- SB4: X=95,Z=37 -->
  <circle cx="386" cy="465" r="7.5" class="hidden"/>

  <!-- Motor cradles (hidden, semicircular profile in XZ at Y=50) -->
  <!-- Pump 1 cradle: center X=42, Z=37, ID=36, OD=42. Bottom half semicircle -->
  <!-- In front view: semicircle in XZ plane. Center at fX(42)=227, fZ(37)=465 -->
  <!-- Inner radius 18mm=54px, outer radius 21mm=63px -->
  <!-- Bottom half: Z from 37-18=19 to 37. fZ(19)=519, fZ(37)=465 -->
  <!-- Draw as hidden arcs (behind bore plate) -->
  <path d="M 173 465 A 54 54 0 0 1 281 465" class="hidden"/>
  <path d="M 164 465 A 63 63 0 0 1 290 465" class="hidden"/>
  <!-- Solid fill below cradle (Z=3 to Z=19) -->
  <line x1="173" y1="465" x2="173" y2="519" class="hidden"/>
  <line x1="281" y1="465" x2="281" y2="519" class="hidden"/>

  <!-- Pump 2 cradle: center X=118, Z=37 -->
  <!-- fX(118)=455 -->
  <path d="M 401 465 A 54 54 0 0 1 509 465" class="hidden"/>
  <path d="M 392 465 A 63 63 0 0 1 518 465" class="hidden"/>
  <line x1="401" y1="465" x2="401" y2="519" class="hidden"/>
  <line x1="509" y1="465" x2="509" y2="519" class="hidden"/>

  <!-- Linkage rod guide slots (Sub-G) - through side walls -->
  <!-- Left slot: X=0 to 5, Y=108 to 120, Z=34.5 to 39.5 -->
  <!-- In front view: visible on left wall as rectangle Z=34.5 to 39.5 -->
  <!-- fZ(34.5)=472.5 fZ(39.5)=457.5 -->
  <rect x="101" y="457.5" width="15" height="15" class="outline" fill="none"/>
  <!-- Right slot: X=155 to 160 -->
  <rect x="566" y="457.5" width="15" height="15" class="outline" fill="none"/>

  <!-- Lid snap detent ridges (Sub-H) - small triangular ridges near top of side walls -->
  <!-- Protrude 1mm from inner face. In front view: tiny triangles at Z=70 -->
  <!-- Left wall ridges at X=5, protruding in +X. fX(5)=116, fX(6)=119, fZ(70)=366, fZ(72)=360 -->
  <!-- Show as small triangular marks (hidden since they're inside) -->
  <line x1="116" y1="366" x2="119" y2="360" class="hidden"/>
  <line x1="116" y1="360" x2="119" y2="360" class="hidden"/>
  <!-- Right wall -->
  <line x1="566" y1="366" x2="563" y2="360" class="hidden"/>
  <line x1="566" y1="360" x2="563" y2="360" class="hidden"/>

  <!-- Snap tab pockets (Sub-I) - visible on front face -->
  <!-- IP1: left wall lower, X=0 to 1.5, Z=15 to 20 -->
  <!-- fX(0)=101 fX(1.5)=105.5 fZ(15)=531 fZ(20)=516 -->
  <rect x="101" y="516" width="4.5" height="15" class="thin" fill="none"/>
  <!-- IP2: left wall upper, Z=52 to 57 -->
  <rect x="101" y="405" width="4.5" height="15" class="thin" fill="none"/>
  <!-- IP3: right wall lower -->
  <rect x="576.5" y="516" width="4.5" height="15" class="thin" fill="none"/>
  <!-- IP4: right wall upper -->
  <rect x="576.5" y="405" width="4.5" height="15" class="thin" fill="none"/>
  <!-- IP5: floor center, X=75 to 85, Z=0 to 1.5 -->
  <rect x="326" y="571.5" width="30" height="4.5" class="thin" fill="none"/>

  <!-- FRONT VIEW DIMENSIONS -->

  <!-- Overall width 160mm -->
  <line x1="101" y1="590" x2="101" y2="600" class="ext"/>
  <line x1="581" y1="590" x2="581" y2="600" class="ext"/>
  <line x1="101" y1="596" x2="581" y2="596" class="dimline" marker-start="url(#arrow-rev)" marker-end="url(#arrow)"/>
  <text x="341" y="593" class="dim">160</text>

  <!-- Overall width with rails 174mm -->
  <line x1="80" y1="606" x2="80" y2="616" class="ext"/>
  <line x1="602" y1="606" x2="602" y2="616" class="ext"/>
  <line x1="80" y1="612" x2="602" y2="612" class="dimline" marker-start="url(#arrow-rev)" marker-end="url(#arrow)"/>
  <text x="341" y="609" class="dim">174 (with rails)</text>

  <!-- Overall height 72mm -->
  <line x1="608" y1="360" x2="618" y2="360" class="ext"/>
  <line x1="608" y1="576" x2="618" y2="576" class="ext"/>
  <line x1="614" y1="360" x2="614" y2="576" class="dimline" marker-start="url(#arrow-rev)" marker-end="url(#arrow)"/>
  <text x="632" y="470" class="dim" transform="rotate(-90,632,470)">72</text>

  <!-- Left wall thickness 5mm -->
  <line x1="101" y1="352" x2="101" y2="346" class="ext"/>
  <line x1="116" y1="352" x2="116" y2="346" class="ext"/>
  <line x1="101" y1="348" x2="116" y2="348" class="dimline" marker-start="url(#arrow-rev)" marker-end="url(#arrow)"/>
  <text x="108" y="343" class="dim-small">5</text>

  <!-- Floor thickness 3mm -->
  <line x1="93" y1="567" x2="87" y2="567" class="ext"/>
  <line x1="93" y1="576" x2="87" y2="576" class="ext"/>
  <line x1="89" y1="567" x2="89" y2="576" class="dimline" marker-start="url(#arrow-rev)" marker-end="url(#arrow)"/>
  <text x="79" y="574" class="dim-small">3</text>

  <!-- Fitting grid spacing 20mm in X -->
  <line x1="311" y1="423" x2="311" y2="416" class="ext"/>
  <line x1="371" y1="423" x2="371" y2="416" class="ext"/>
  <line x1="311" y1="419" x2="371" y2="419" class="dimline" marker-start="url(#arrow-rev)" marker-end="url(#arrow)"/>
  <text x="341" y="414" class="dim">20</text>

  <!-- Fitting grid spacing 20mm in Z -->
  <line x1="383" y1="435" x2="390" y2="435" class="ext"/>
  <line x1="383" y1="495" x2="390" y2="495" class="ext"/>
  <line x1="387" y1="435" x2="387" y2="495" class="dimline" marker-start="url(#arrow-rev)" marker-end="url(#arrow)"/>
  <text x="400" y="468" class="dim">20</text>

  <!-- Left T-rail center Z=54 -->
  <line x1="72" y1="398" x2="72" y2="576" class="ext"/>
  <text x="72" y="393" class="dim-small">Z=54</text>

  <!-- Right T-rail center Z=18 -->
  <line x1="610" y1="522" x2="610" y2="576" class="ext"/>
  <text x="610" y="545" class="dim-small">Z=18</text>

  <!-- Slot annotations (placed outside box shell) -->
  <text x="72" y="460" class="dim-small">Slot</text>
  <text x="606" y="480" class="dim-small">Slot</text>


  <!-- ============================================================ -->
  <!-- SIDE VIEW (looking along -X, from left side)                -->
  <!-- Horizontal: Y (depth), Vertical: Z (height)                 -->
  <!-- Scale: 3 px/mm                                              -->
  <!-- sY(mm) = 720 + mm*3   sZ(mm) = 360 + (72-mm)*3             -->
  <!-- sY(0)=720  sY(155)=1185                                     -->
  <!-- sZ same as fZ                                               -->
  <!-- ============================================================ -->

  <text x="952" y="90" class="viewlbl">SIDE VIEW (looking along -X)</text>
  <text x="952" y="104" class="dim-small">Scale 3:1 (3 px/mm)</text>

  <!-- Box shell outer - Y=0 to 155, Z=0 to 72 -->
  <rect x="720" y="360" width="465" height="216" class="outline"/>

  <!-- Floor inner Z=3 -->
  <line x1="720" y1="567" x2="1185" y2="567" class="thin"/>

  <!-- Bore plate: Y=120 to 128.5 -->
  <!-- sY(120)=1080 sY(128.5)=1105.5 -->
  <line x1="1080" y1="360" x2="1080" y2="567" class="outline"/>
  <line x1="1105.5" y1="360" x2="1105.5" y2="567" class="outline"/>

  <!-- Rear skin: Y=153 to 155 -->
  <!-- sY(153)=1179 sY(155)=1185 -->
  <line x1="1179" y1="360" x2="1179" y2="576" class="thin"/>

  <!-- Cross-ribs in release plate pocket (hidden, inside) -->
  <!-- Rib 1 at X=28-30 - in side view these are hidden (behind left wall) -->
  <!-- Show as hidden horizontal lines at their Y extent: Y=128.5 to 153 -->

  <!-- Structural cross-ribs: show as hidden in side view since they're internal -->
  <!-- Rib bottom: Z=3, connecting bore plate dock face to rear skin -->
  <!-- These are vertical walls Y=128.5 to 153, we see them as lines in side view -->
  <line x1="1105.5" y1="360" x2="1179" y2="360" class="hidden"/>
  <line x1="1105.5" y1="567" x2="1179" y2="567" class="hidden"/>

  <!-- Pump mounting boss B1 side profile (cylinder along Z, Y=82) -->
  <!-- sY(82)=966, boss from Z=0 to Z=37 -->
  <!-- Boss is at X=17.3 which is near left wall - visible in left side view -->
  <!-- In side view looking along -X, we see the boss as a rectangle -->
  <!-- Boss OD=10mm. In side view: Y extent = boss at Y=82 center, but boss has no Y extent - it's a cylinder along Z -->
  <!-- Actually bosses are at a specific Y=82 location, they are cylinders along Z. In side view (along -X), we see them as a circle in the YZ plane -->
  <!-- No - cylinders along Z: side view shows rectangle (Y position = a single Y line; Z=0 to 37). But a cylinder has diameter in XY plane. In side view (along -X), horizontal axis is Y, vertical is Z. A Z-axis cylinder at Y=82 shows as: two vertical lines at Y=82-r and Y=82+r from Z=0 to Z=37 -->
  <!-- Boss dia 10mm, r=5mm=15px. sY(82-5)=951, sY(82+5)=981 -->
  <line x1="951" y1="465" x2="951" y2="567" class="hidden"/>
  <line x1="981" y1="465" x2="981" y2="567" class="hidden"/>
  <!-- Boss top circle at Z=37: in side view shows as horizontal line -->
  <line x1="951" y1="465" x2="981" y2="465" class="hidden"/>

  <!-- Motor cradle side profile: cradle at Y=45 to 55, semicircle -->
  <!-- In side view: rectangle from Y=45 to 55, Z=3 to 37+21=58 (but it's a half-pipe) -->
  <!-- Cradle is 10mm wide in Y (45 to 55), extends from floor (Z=3) to Z=37 (pump center) on sides -->
  <!-- sY(45)=855 sY(55)=885 sZ(3)=567 sZ(37)=465 sZ(19)=519 -->
  <!-- Outer profile -->
  <rect x="855" y="465" width="30" height="102" class="hidden" fill="none" stroke-dasharray="3,2" stroke-width="0.8"/>

  <!-- Guide posts in side view: posts run along Y from Y=128.5 to Y=146.5 -->
  <!-- Posts are cylinders along Y. Side view (along -X) shows rectangle: Y extent, Z extent of diameter -->
  <!-- GP1 at Z=17: sZ(17-1.75)=525.25 sZ(17+1.75)=514.75 -->
  <!-- sY(128.5)=1105.5 sY(146.5)=1159.5 -->
  <line x1="1105.5" y1="514.75" x2="1159.5" y2="514.75" class="hidden"/>
  <line x1="1105.5" y1="525.25" x2="1159.5" y2="525.25" class="hidden"/>
  <!-- GP3 at Z=57 -->
  <line x1="1105.5" y1="394.75" x2="1159.5" y2="394.75" class="hidden"/>
  <line x1="1105.5" y1="405.25" x2="1159.5" y2="405.25" class="hidden"/>

  <!-- Stop bosses: SB1 at Z=20, dia 5mm, Y=128.5 to 139.3 -->
  <!-- sZ(20-2.5)=523.5 sZ(20+2.5)=508.5 sY(139.3)=1137.9 -->
  <line x1="1105.5" y1="508.5" x2="1137.9" y2="508.5" class="hidden"/>
  <line x1="1105.5" y1="523.5" x2="1137.9" y2="523.5" class="hidden"/>
  <line x1="1137.9" y1="508.5" x2="1137.9" y2="523.5" class="hidden"/>

  <!-- Release plate rest position: front face Y=141.32, rear Y=146.32 -->
  <!-- sY(141.32)=1143.96 sY(146.32)=1158.96 -->
  <!-- Plate extends approx Z=12 to Z=62 (guide post rectangle corners 17 to 57, plate ~55mm) -->
  <!-- Actually plate is ~55x55mm centered on grid center X=80, Z=37 => Z=9.5 to 64.5 -->
  <!-- In side view: sZ(9.5)=547.5 sZ(64.5)=373.5 -->
  <rect x="1143.96" y="373.5" width="15" height="174" class="hidden" fill="none" stroke-dasharray="3,2" stroke-width="0.8"/>

  <!-- Fitting bores in side view: rectangles through bore plate -->
  <!-- Bore at Z=27: sZ(27-4.75)=501.75 sZ(27+4.75)=486.25 -->
  <!-- Y extent: sY(120)=1080 to sY(128.5)=1105.5 -->
  <line x1="1080" y1="486.25" x2="1105.5" y2="486.25" class="hidden"/>
  <line x1="1080" y1="501.75" x2="1105.5" y2="501.75" class="hidden"/>
  <!-- Bore at Z=47: sZ(47-4.75)=441.75 sZ(47+4.75)=426.25 -->
  <line x1="1080" y1="426.25" x2="1105.5" y2="426.25" class="hidden"/>
  <line x1="1080" y1="441.75" x2="1105.5" y2="441.75" class="hidden"/>

  <!-- Rear skin clearance holes at Z=27 and Z=47, dia 16mm -->
  <!-- sZ(27-8)=507 sZ(27+8)=471 Y=153 to 155 sY(153)=1179 sY(155)=1185 -->
  <line x1="1179" y1="471" x2="1185" y2="471" class="hidden"/>
  <line x1="1179" y1="507" x2="1185" y2="507" class="hidden"/>
  <line x1="1179" y1="411" x2="1185" y2="411" class="hidden"/>
  <line x1="1179" y1="447" x2="1185" y2="447" class="hidden"/>

  <!-- Linkage rod guide slot: Y=108 to 120, Z=34.5 to 39.5 -->
  <!-- sY(108)=1044 sY(120)=1080 sZ(34.5)=472.5 sZ(39.5)=457.5 -->
  <!-- In side view looking along -X, slot is through left wall, so we see through it -->
  <rect x="1044" y="457.5" width="36" height="15" class="outline" fill="none"/>

  <!-- T-rail tongue side profile (left rail visible) -->
  <!-- Left rail: full Y extent Y=0 to 155. In side view: tongue extends outward in -X -->
  <!-- Looking along -X we don't see the T-profile, we see the side of the rail -->
  <!-- Rail tongue is 3mm in Z (52.5 to 55.5) and runs full Y. Cap is 6mm (51 to 57) -->
  <!-- sZ(51)=423 sZ(57)=405 sZ(52.5)=418.5 sZ(55.5)=409.5 -->
  <!-- In side view, left T-rail is visible along entire depth -->
  <!-- Show the wider cap profile: Z=51 to 57, Y=0 to 155 -->
  <line x1="720" y1="405" x2="1185" y2="405" class="thin"/>
  <line x1="720" y1="423" x2="1185" y2="423" class="thin"/>
  <!-- Tongue narrower portion: Z=52.5 to 55.5 -->
  <line x1="720" y1="409.5" x2="1185" y2="409.5" class="hidden"/>
  <line x1="720" y1="418.5" x2="1185" y2="418.5" class="hidden"/>

  <!-- Tube routing channels (Sub-F): floor channels Y=82 to 110 -->
  <!-- Channel walls rise to Z=8 from Z=3. sZ(8)=552 -->
  <line x1="966" y1="552" x2="1050" y2="552" class="hidden"/>

  <!-- SIDE VIEW DIMENSIONS -->

  <!-- Overall depth 155mm -->
  <line x1="720" y1="590" x2="720" y2="600" class="ext"/>
  <line x1="1185" y1="590" x2="1185" y2="600" class="ext"/>
  <line x1="720" y1="596" x2="1185" y2="596" class="dimline" marker-start="url(#arrow-rev)" marker-end="url(#arrow)"/>
  <text x="952" y="593" class="dim">155</text>

  <!-- Bore plate location from front: Y=120 -->
  <line x1="720" y1="582" x2="720" y2="586" class="ext"/>
  <line x1="1080" y1="582" x2="1080" y2="586" class="ext"/>
  <line x1="720" y1="584" x2="1080" y2="584" class="dimline" marker-start="url(#arrow-rev)" marker-end="url(#arrow)"/>
  <text x="900" y="582" class="dim-small">120</text>

  <!-- Bore plate thickness 8.5mm -->
  <line x1="1080" y1="352" x2="1080" y2="346" class="ext"/>
  <line x1="1105.5" y1="352" x2="1105.5" y2="346" class="ext"/>
  <line x1="1080" y1="348" x2="1105.5" y2="348" class="dimline" marker-start="url(#arrow-rev)" marker-end="url(#arrow)"/>
  <text x="1092" y="343" class="dim-small">8.5</text>

  <!-- Rear skin Y=153 to 155, 2mm -->
  <line x1="1179" y1="352" x2="1179" y2="346" class="ext"/>
  <line x1="1185" y1="352" x2="1185" y2="346" class="ext"/>
  <line x1="1179" y1="348" x2="1185" y2="348" class="dimline" marker-start="url(#arrow-rev)" marker-end="url(#arrow)"/>
  <text x="1182" y="343" class="dim-small">2</text>

  <!-- Guide post length 18mm -->
  <line x1="1105.5" y1="391" x2="1105.5" y2="386" class="ext"/>
  <line x1="1159.5" y1="391" x2="1159.5" y2="386" class="ext"/>
  <line x1="1105.5" y1="388" x2="1159.5" y2="388" class="dimline" marker-start="url(#arrow-rev)" marker-end="url(#arrow)"/>
  <text x="1132" y="383" class="dim-small">18</text>

  <!-- Boss height 37mm -->
  <line x1="1198" y1="465" x2="1208" y2="465" class="ext"/>
  <line x1="1198" y1="576" x2="1208" y2="576" class="ext"/>
  <line x1="1204" y1="465" x2="1204" y2="576" class="dimline" marker-start="url(#arrow-rev)" marker-end="url(#arrow)"/>
  <text x="1218" y="523" class="dim" transform="rotate(-90,1218,523)">37</text>

  <!-- Slot Y extent 12mm -->
  <line x1="1044" y1="452" x2="1044" y2="446" class="ext"/>
  <line x1="1080" y1="452" x2="1080" y2="446" class="ext"/>
  <line x1="1044" y1="448" x2="1080" y2="448" class="dimline" marker-start="url(#arrow-rev)" marker-end="url(#arrow)"/>
  <text x="1062" y="443" class="dim-small">12</text>


  <!-- ============================================================ -->
  <!-- TOP VIEW (looking along -Z, from above)                     -->
  <!-- Horizontal: X (width), Vertical: Y (depth, Y=0 at top)      -->
  <!-- Scale: 3 px/mm                                              -->
  <!-- tX(mm) = 80 + (mm+7)*3  (same as fX)                        -->
  <!-- tY(mm) = 650 + mm*3                                         -->
  <!-- tX(-7)=80 tX(0)=101 tX(160)=581 tX(167)=602                -->
  <!-- tY(0)=650 tY(155)=1115                                      -->
  <!-- ============================================================ -->

  <text x="341" y="638" class="viewlbl">TOP VIEW (looking along -Z)</text>
  <text x="341" y="652" class="dim-small">Scale 3:1 (3 px/mm)</text>

  <!-- Box shell outer: X=0 to 160, Y=0 to 155 -->
  <rect x="101" y="660" width="480" height="465" class="outline"/>

  <!-- Left wall inner X=5 -->
  <line x1="116" y1="660" x2="116" y2="1125" class="thin"/>
  <!-- Right wall inner X=155 -->
  <line x1="566" y1="660" x2="566" y2="1125" class="thin"/>

  <!-- Bore plate: Y=120 to 128.5, X=5 to 155 -->
  <!-- tY(120)=1010 tY(128.5)=1035.5 -->
  <line x1="116" y1="1010" x2="566" y2="1010" class="outline"/>
  <line x1="116" y1="1035.5" x2="566" y2="1035.5" class="outline"/>

  <!-- Rear skin: Y=153 to 155, X=0 to 160 -->
  <line x1="101" y1="1109" x2="581" y2="1109" class="thin"/>

  <!-- Cross-ribs in release plate pocket -->
  <!-- Rib 1: X=28 to 30, Y=128.5 to 153 -->
  <rect x="185" y="1035.5" width="6" height="73.5" class="hidden" fill="none" stroke-dasharray="3,2" stroke-width="0.8"/>
  <!-- Rib 2: X=130 to 132 -->
  <rect x="491" y="1035.5" width="6" height="73.5" class="hidden" fill="none" stroke-dasharray="3,2" stroke-width="0.8"/>
  <!-- Rib 3: X=78 to 82, short floor rib -->
  <rect x="335" y="1035.5" width="12" height="73.5" class="hidden" fill="none" stroke-dasharray="3,2" stroke-width="0.8"/>

  <!-- T-Rail tongues in top view -->
  <!-- Left rail: X=-7 to 0, full Y. In top view: cap width 6mm (cap X=-7 to -4), tongue X=-4 to 0 -->
  <!-- tX(-7)=80, tX(-4)=89, tX(0)=101 -->
  <rect x="80" y="660" width="9" height="465" class="outline" fill="none"/>
  <rect x="89" y="660" width="12" height="465" class="outline" fill="none"/>
  <!-- Right rail: X=160 to 167 -->
  <rect x="581" y="660" width="12" height="465" class="outline" fill="none"/>
  <rect x="593" y="660" width="9" height="465" class="outline" fill="none"/>

  <!-- Pump mounting bosses in top view: circles (cylinders along Z seen from above) -->
  <!-- B1: X=17.3, Y=82 => tX(17.3)=172.9, tY(82)=896. r=5mm=15px -->
  <circle cx="172.9" cy="896" r="15" class="hidden"/>
  <!-- Pilot hole: r=2mm=6px -->
  <circle cx="172.9" cy="896" r="6" class="hidden"/>
  <!-- B2: X=66.7 -->
  <circle cx="321.1" cy="896" r="15" class="hidden"/>
  <circle cx="321.1" cy="896" r="6" class="hidden"/>
  <!-- B3: X=93.3 -->
  <circle cx="380.9" cy="896" r="15" class="hidden"/>
  <circle cx="380.9" cy="896" r="6" class="hidden"/>
  <!-- B4: X=142.7 -->
  <circle cx="529.1" cy="896" r="15" class="hidden"/>
  <circle cx="529.1" cy="896" r="6" class="hidden"/>

  <!-- Boss center lines -->
  <line x1="172.9" y1="876" x2="172.9" y2="916" class="center"/>
  <line x1="152.9" y1="896" x2="192.9" y2="896" class="center"/>
  <line x1="321.1" y1="876" x2="321.1" y2="916" class="center"/>
  <line x1="301.1" y1="896" x2="341.1" y2="896" class="center"/>
  <line x1="380.9" y1="876" x2="380.9" y2="916" class="center"/>
  <line x1="360.9" y1="896" x2="400.9" y2="896" class="center"/>
  <line x1="529.1" y1="876" x2="529.1" y2="916" class="center"/>
  <line x1="509.1" y1="896" x2="549.1" y2="896" class="center"/>

  <!-- Motor cradles in top view: rectangles at Y=45 to 55 -->
  <!-- Pump 1 cradle: X=42-21=21 to 42+21=63, Y=45 to 55 -->
  <!-- tX(21)=164 tX(63)=290 tY(45)=785 tY(55)=815 -->
  <rect x="164" y="785" width="126" height="30" class="hidden" fill="none" stroke-dasharray="3,2" stroke-width="0.8"/>
  <!-- Pump 2: X=118-21=97 to 118+21=139 -->
  <!-- tX(97)=392 tX(139)=518 -->
  <rect x="392" y="785" width="126" height="30" class="hidden" fill="none" stroke-dasharray="3,2" stroke-width="0.8"/>

  <!-- Fitting bores in top view: rectangles through bore plate (Y direction) -->
  <!-- F1: X=70, Y=120 to 128.5, bore dia 9.5mm => X extent: 70-4.75=65.25 to 70+4.75=74.75 -->
  <!-- tX(65.25)=296.75 tX(74.75)=325.25 -->
  <line x1="296.75" y1="1010" x2="296.75" y2="1035.5" class="hidden"/>
  <line x1="325.25" y1="1010" x2="325.25" y2="1035.5" class="hidden"/>
  <!-- F2: X=90 => tX(85.25)=356.75 tX(94.75)=385.25 -->
  <line x1="356.75" y1="1010" x2="356.75" y2="1035.5" class="hidden"/>
  <line x1="385.25" y1="1010" x2="385.25" y2="1035.5" class="hidden"/>
  <!-- F3: X=70 (same X as F1) - same lines, already drawn -->
  <!-- F4: X=90 (same X as F2) - same lines, already drawn -->

  <!-- Rear skin clearance holes: dia 16mm at X=70, 90. Y=153 to 155 -->
  <!-- tX(70-8)=287 tX(70+8)=335 tX(90-8)=347 tX(90+8)=395 -->
  <line x1="287" y1="1109" x2="287" y2="1125" class="hidden"/>
  <line x1="335" y1="1109" x2="335" y2="1125" class="hidden"/>
  <line x1="347" y1="1109" x2="347" y2="1125" class="hidden"/>
  <line x1="395" y1="1109" x2="395" y2="1125" class="hidden"/>

  <!-- Guide posts in top view: short rectangles Y=128.5 to 146.5 -->
  <!-- GP1: X=58, dia 3.5mm => X: 56.25 to 59.75 -->
  <!-- tX(56.25)=269.75 tX(59.75)=280.25 tY(146.5)=1089.5 -->
  <line x1="269.75" y1="1035.5" x2="269.75" y2="1089.5" class="hidden"/>
  <line x1="280.25" y1="1035.5" x2="280.25" y2="1089.5" class="hidden"/>
  <!-- GP2: X=102 => tX(100.25)=401.75 tX(103.75)=412.25 -->
  <line x1="401.75" y1="1035.5" x2="401.75" y2="1089.5" class="hidden"/>
  <line x1="412.25" y1="1035.5" x2="412.25" y2="1089.5" class="hidden"/>
  <!-- GP3: X=58 (same X as GP1) - already drawn -->
  <!-- GP4: X=102 (same X as GP2) - already drawn -->

  <!-- Tube routing channels (Sub-F) in top view -->
  <!-- Channels run Y=82 to 110, various X positions -->
  <!-- CH1: X=35 to 70, Y=82 to 110. Channel walls 2mm wide, 10mm channel -->
  <!-- tX(35)=206 tY(82)=896 tY(110)=980 tX(70)=311 -->
  <!-- Show as pairs of thin lines (channel walls) -->
  <line x1="197" y1="896" x2="197" y2="980" class="hidden"/>
  <line x1="227" y1="896" x2="227" y2="980" class="hidden"/>
  <!-- Angled section from X=35 to X=70 -->
  <line x1="227" y1="896" x2="302" y2="980" class="hidden"/>
  <line x1="197" y1="896" x2="272" y2="980" class="hidden"/>

  <!-- CH3: X=111 to 90 (right pump, lower fitting) -->
  <line x1="434" y1="896" x2="434" y2="980" class="hidden"/>
  <line x1="464" y1="896" x2="464" y2="980" class="hidden"/>
  <line x1="434" y1="896" x2="359" y2="980" class="hidden"/>
  <line x1="464" y1="896" x2="389" y2="980" class="hidden"/>

  <!-- Linkage rod guide slots in top view -->
  <!-- Left slot: X=0 to 5, Y=108 to 120 -->
  <!-- tY(108)=974 tY(120)=1010 -->
  <rect x="101" y="974" width="15" height="36" class="outline" fill="none"/>
  <!-- Right slot: X=155 to 160 -->
  <rect x="566" y="974" width="15" height="36" class="outline" fill="none"/>

  <!-- TOP VIEW DIMENSIONS -->

  <!-- Overall depth 155mm (shared with side view alignment) -->
  <line x1="93" y1="660" x2="87" y2="660" class="ext"/>
  <line x1="93" y1="1125" x2="87" y2="1125" class="ext"/>
  <line x1="89" y1="660" x2="89" y2="1125" class="dimline" marker-start="url(#arrow-rev)" marker-end="url(#arrow)"/>
  <text x="79" y="895" class="dim" transform="rotate(-90,79,895)">155</text>

  <!-- Boss center-to-center Pump 1: 49.45mm -->
  <line x1="172.9" y1="922" x2="172.9" y2="932" class="ext"/>
  <line x1="321.1" y1="922" x2="321.1" y2="932" class="ext"/>
  <line x1="172.9" y1="928" x2="321.1" y2="928" class="dimline" marker-start="url(#arrow-rev)" marker-end="url(#arrow)"/>
  <text x="247" y="940" class="dim-small">49.45</text>

  <!-- Pump c-c: 76mm -->
  <line x1="227" y1="948" x2="227" y2="958" class="ext"/>
  <line x1="455" y1="948" x2="455" y2="958" class="ext"/>
  <line x1="227" y1="954" x2="455" y2="954" class="dimline" marker-start="url(#arrow-rev)" marker-end="url(#arrow)"/>
  <text x="341" y="966" class="dim-small">76 (pump c-c)</text>

  <!-- Bore plate Y=120 -->
  <line x1="590" y1="660" x2="600" y2="660" class="ext"/>
  <line x1="590" y1="1010" x2="600" y2="1010" class="ext"/>
  <line x1="596" y1="660" x2="596" y2="1010" class="dimline" marker-start="url(#arrow-rev)" marker-end="url(#arrow)"/>
  <text x="608" y="838" class="dim" transform="rotate(-90,608,838)">120</text>

  <!-- Fitting bore center X=70 annotation -->
  <text x="311" y="1002" class="dim-small">X=70</text>
  <text x="371" y="1002" class="dim-small">X=90</text>


  <!-- ============================================================ -->
  <!-- DETAIL A: Fitting Bore Cross-Section (Section through bore   -->
  <!-- plate at one fitting location, looking along X)              -->
  <!-- Scale: 8 px/mm                                              -->
  <!-- ============================================================ -->

  <text x="1420" y="638" class="viewlbl">DETAIL A: Fitting Bore Section</text>
  <text x="1420" y="652" class="dim-small">Scale 8:1 (8 px/mm) — Section through bore plate at fitting center</text>

  <!-- Frame -->
  <rect x="1270" y="660" width="300" height="240" class="detail-frame"/>

  <!-- Bore plate section: 8.5mm thick, centered in detail -->
  <!-- Y axis horizontal: bore plate from Y=120 to Y=128.5 -->
  <!-- Z axis vertical: showing bore cross-section -->
  <!-- Detail origin: left=Y=115, center_z for fitting at Z=37 -->
  <!-- dY(mm) = 1280 + (mm-115)*8   dZ(mm) = 820 - (mm-30)*8 -->
  <!-- dY(115)=1280 dY(120)=1320 dY(128.5)=1388 dY(135)=1440 -->
  <!-- dZ(30)=820 dZ(37)=764 dZ(44)=708 dZ(27)=844 dZ(47)=684 -->

  <!-- Bore plate material (section hatched) -->
  <rect x="1320" y="680" width="68" height="200" class="section"/>

  <!-- 9.5mm bore through bore plate center -->
  <!-- Bore dia 9.5mm => half = 4.75mm = 38px. Center at dZ(37)=764 -->
  <!-- Bore from dZ(37-4.75)=726 to dZ(37+4.75)=802. dY(120)=1320 to dY(128.5)=1388 -->
  <rect x="1320" y="726" width="68" height="76" fill="white" stroke="black" stroke-width="0.8"/>

  <!-- User-facing counterbore (Y=120 to 122): 15.5mm dia => half=7.75mm=62px -->
  <!-- dY(120)=1320 dY(122)=1336 dZ(37-7.75)=702 dZ(37+7.75)=826 -->
  <rect x="1320" y="702" width="16" height="124" fill="white" stroke="black" stroke-width="0.8"/>

  <!-- Dock-facing counterbore (Y=126.5 to 128.5) -->
  <!-- dY(126.5)=1372 dY(128.5)=1388 -->
  <rect x="1372" y="702" width="16" height="124" fill="white" stroke="black" stroke-width="0.8"/>

  <!-- Entry chamfer on user side: 0.5mm x 45deg -->
  <!-- Small triangular notch at bore entry -->
  <line x1="1320" y1="722" x2="1324" y2="726" stroke="black" stroke-width="0.6"/>
  <line x1="1320" y1="806" x2="1324" y2="802" stroke="black" stroke-width="0.6"/>

  <!-- Center line through bore -->
  <line x1="1280" y1="764" x2="1440" y2="764" class="center"/>

  <!-- Dimension: bore diameter 9.5mm -->
  <line x1="1344" y1="726" x2="1344" y2="714" class="ext"/>
  <line x1="1344" y1="802" x2="1344" y2="814" class="ext"/>
  <line x1="1344" y1="718" x2="1460" y2="718" class="dimline"/>
  <line x1="1344" y1="810" x2="1460" y2="810" class="dimline"/>
  <line x1="1456" y1="718" x2="1456" y2="810" class="dimline" marker-start="url(#arrow-rev)" marker-end="url(#arrow)"/>
  <text x="1480" y="767" class="dim-small">9.5</text>

  <!-- Dimension: counterbore diameter 15.5mm -->
  <line x1="1310" y1="702" x2="1310" y2="694" class="ext"/>
  <line x1="1310" y1="826" x2="1310" y2="834" class="ext"/>
  <line x1="1280" y1="698" x2="1314" y2="698" class="dimline"/>
  <line x1="1280" y1="830" x2="1314" y2="830" class="dimline"/>
  <line x1="1284" y1="698" x2="1284" y2="830" class="dimline" marker-start="url(#arrow-rev)" marker-end="url(#arrow)"/>
  <text x="1284" y="690" class="dim-small">15.5</text>

  <!-- Dimension: bore plate thickness 8.5mm -->
  <line x1="1320" y1="888" x2="1320" y2="895" class="ext"/>
  <line x1="1388" y1="888" x2="1388" y2="895" class="ext"/>
  <line x1="1320" y1="892" x2="1388" y2="892" class="dimline" marker-start="url(#arrow-rev)" marker-end="url(#arrow)"/>
  <text x="1354" y="888" class="dim-small">8.5</text>

  <!-- Dimension: counterbore depth 2.0mm each side -->
  <line x1="1320" y1="840" x2="1320" y2="848" class="ext"/>
  <line x1="1336" y1="840" x2="1336" y2="848" class="ext"/>
  <line x1="1320" y1="845" x2="1336" y2="845" class="dimline" marker-start="url(#arrow-rev)" marker-end="url(#arrow)"/>
  <text x="1328" y="858" class="dim-small">2.0</text>

  <!-- Labels -->
  <text x="1296" y="776" class="dim-small">User</text>
  <text x="1296" y="786" class="dim-small">side</text>
  <text x="1412" y="776" class="dim-small">Dock</text>
  <text x="1412" y="786" class="dim-small">side</text>


  <!-- ============================================================ -->
  <!-- DETAIL B: T-Rail Tongue Profile (Cross-section in XZ plane)  -->
  <!-- Scale: 8 px/mm                                              -->
  <!-- ============================================================ -->

  <text x="1420" y="918" class="viewlbl">DETAIL B: T-Rail Tongue Profile</text>
  <text x="1420" y="932" class="dim-small">Scale 8:1 (8 px/mm) — Cross-section at left wall</text>

  <!-- Frame -->
  <rect x="1270" y="940" width="300" height="200" class="detail-frame"/>

  <!-- Detail origin: show left wall and T-rail tongue -->
  <!-- Horizontal = X, Vertical = Z. Center of tongue at Z=54 -->
  <!-- bX(mm) = 1370 + mm*8 (X=0 at wall face, negative = outward) -->
  <!-- bZ(mm) = 1050 - (mm-50)*8 (center Z=54 near middle) -->
  <!-- bX(-7)=1314 bX(-4)=1338 bX(0)=1370 bX(5)=1410 -->
  <!-- bZ(50)=1050 bZ(51)=1042 bZ(54)=1018 bZ(55.5)=1006 bZ(57)=994 bZ(52.5)=1030 -->

  <!-- Side wall section (X=0 to 5, Z extends full height but show partial) -->
  <rect x="1370" y="958" width="40" height="164" class="section"/>

  <!-- T-tongue: X=-4 to 0, Z=52.5 to 55.5 -->
  <rect x="1338" y="1006" width="32" height="24" class="section"/>
  <!-- T-cap: X=-7 to -4, Z=51 to 57 -->
  <rect x="1314" y="994" width="24" height="48" class="section"/>

  <!-- 1mm fillet indicators at cap-tongue junction (small arcs) -->
  <text x="1340" y="990" class="dim-small">R1</text>
  <text x="1340" y="1038" class="dim-small">R1</text>

  <!-- Dimensions -->
  <!-- Tongue depth 4mm (X direction) -->
  <line x1="1338" y1="1046" x2="1338" y2="1058" class="ext"/>
  <line x1="1370" y1="1046" x2="1370" y2="1058" class="ext"/>
  <line x1="1338" y1="1054" x2="1370" y2="1054" class="dimline" marker-start="url(#arrow-rev)" marker-end="url(#arrow)"/>
  <text x="1354" y="1068" class="dim-small">4.0</text>

  <!-- Cap depth 3mm -->
  <line x1="1314" y1="1046" x2="1314" y2="1074" class="ext"/>
  <line x1="1338" y1="1074" x2="1338" y2="1074" class="ext"/>
  <line x1="1314" y1="1074" x2="1338" y2="1074" class="dimline" marker-start="url(#arrow-rev)" marker-end="url(#arrow)"/>
  <text x="1326" y="1084" class="dim-small">3.0</text>

  <!-- Tongue height 3mm (Z) -->
  <line x1="1330" y1="1006" x2="1322" y2="1006" class="ext"/>
  <line x1="1330" y1="1030" x2="1322" y2="1030" class="ext"/>
  <line x1="1324" y1="1006" x2="1324" y2="1030" class="dimline" marker-start="url(#arrow-rev)" marker-end="url(#arrow)"/>
  <text x="1306" y="1022" class="dim-small">3.0</text>

  <!-- Cap height 6mm (Z) -->
  <line x1="1306" y1="994" x2="1298" y2="994" class="ext"/>
  <line x1="1306" y1="1042" x2="1298" y2="1042" class="ext"/>
  <line x1="1300" y1="994" x2="1300" y2="1042" class="dimline" marker-start="url(#arrow-rev)" marker-end="url(#arrow)"/>
  <text x="1288" y="1022" class="dim-small">6.0</text>

  <!-- Wall thickness 5mm -->
  <line x1="1370" y1="950" x2="1370" y2="944" class="ext"/>
  <line x1="1410" y1="950" x2="1410" y2="944" class="ext"/>
  <line x1="1370" y1="946" x2="1410" y2="946" class="dimline" marker-start="url(#arrow-rev)" marker-end="url(#arrow)"/>
  <text x="1390" y="942" class="dim-small">5.0</text>

  <!-- Center Z=54 annotation -->
  <line x1="1280" y1="1018" x2="1450" y2="1018" class="center"/>
  <text x="1456" y="1022" class="dim-small">Z=54</text>


  <!-- ============================================================ -->
  <!-- DETAIL C: Guide Post / Release Plate Interface               -->
  <!-- Scale: 8 px/mm                                              -->
  <!-- ============================================================ -->

  <text x="1420" y="1158" class="viewlbl">DETAIL C: Guide Post / Release Plate</text>
  <text x="1420" y="1172" class="dim-small">Scale 8:1 (8 px/mm) — Section through one guide post, looking along X</text>

  <!-- Frame -->
  <rect x="1270" y="1180" width="300" height="200" class="detail-frame"/>

  <!-- Section through bore plate and release plate pocket along Y axis -->
  <!-- cY(mm) = 1290 + (mm-126)*8  cZ for a single post cross-section -->
  <!-- cY(126)=1290 cY(128.5)=1310 cY(139.3)=1396.4 cY(141.32)=1412.56 cY(146.5)=1454 -->
  <!-- Show YZ section: Y horizontal, Z vertical but we only need Y detail -->

  <!-- Bore plate section (Y=120 to 128.5) -->
  <!-- cY(120)=1242 cY(128.5)=1310 -->
  <!-- Show partial bore plate (right portion) -->
  <rect x="1282" y="1200" width="28" height="150" class="section"/>

  <!-- Guide post: Y=128.5 to 146.5, dia 3.5mm => half=1.75mm=14px -->
  <!-- Post center at some Z. Show as rectangle: cY(128.5)=1310, width=18mm*8=144px -->
  <!-- Post cross-section height: 3.5mm = 28px. Center vertically in frame -->
  <rect x="1310" y="1261" width="144" height="28" class="section"/>

  <!-- Stop boss: Y=128.5 to 139.3, dia 5mm => half=2.5mm=20px -->
  <!-- cY(139.3)=1396.4. Height: 5mm=40px -->
  <rect x="1310" y="1255" width="86.4" height="40" class="section"/>
  <!-- Mark stop boss with crosshatch to distinguish from post -->

  <!-- Release plate (separate part, shown as outline) -->
  <!-- Plate front face at Y=141.32, rear at Y=146.32 -->
  <!-- cY(141.32)=1412.56 cY(146.32)=1452.56 -->
  <!-- Plate bore: 3.8mm dia => half=1.9mm=15.2px -->
  <!-- Plate height (section): show ~20mm = 160px tall section of plate -->
  <rect x="1412.56" y="1210" width="40" height="140" fill="none" stroke="black" stroke-width="1.0" stroke-dasharray="5,3"/>

  <!-- Plate bore hole (clearance on post) -->
  <rect x="1412.56" y="1259.8" width="40" height="30.4" fill="white" stroke="black" stroke-width="0.6"/>

  <!-- Gap annotations -->
  <!-- 2.0mm gap: stop boss tip to plate front face -->
  <!-- cY(139.3)=1396.4 cY(141.32)=1412.56 -->
  <line x1="1396.4" y1="1358" x2="1396.4" y2="1368" class="ext"/>
  <line x1="1412.56" y1="1358" x2="1412.56" y2="1368" class="ext"/>
  <line x1="1396.4" y1="1364" x2="1412.56" y2="1364" class="dimline" marker-start="url(#arrow-rev)" marker-end="url(#arrow)"/>
  <text x="1404" y="1378" class="dim-small">2.0</text>

  <!-- Post diameter 3.5mm -->
  <line x1="1430" y1="1261" x2="1430" y2="1253" class="ext"/>
  <line x1="1430" y1="1289" x2="1430" y2="1297" class="ext"/>
  <line x1="1426" y1="1255" x2="1460" y2="1255" class="dimline"/>
  <line x1="1426" y1="1295" x2="1460" y2="1295" class="dimline"/>
  <line x1="1456" y1="1255" x2="1456" y2="1295" class="dimline" marker-start="url(#arrow-rev)" marker-end="url(#arrow)"/>
  <text x="1470" y="1279" class="dim-small">3.5</text>

  <!-- Plate bore 3.8mm -->
  <line x1="1440" y1="1259.8" x2="1440" y2="1251" class="ext"/>
  <line x1="1440" y1="1290.2" x2="1440" y2="1299" class="ext"/>
  <text x="1490" y="1279" class="dim-small">(3.8)</text>

  <!-- Post length 18mm -->
  <line x1="1310" y1="1302" x2="1310" y2="1312" class="ext"/>
  <line x1="1454" y1="1302" x2="1454" y2="1312" class="ext"/>
  <line x1="1310" y1="1308" x2="1454" y2="1308" class="dimline" marker-start="url(#arrow-rev)" marker-end="url(#arrow)"/>
  <text x="1382" y="1322" class="dim-small">18</text>

  <!-- Stop boss height 10.8mm -->
  <line x1="1310" y1="1338" x2="1310" y2="1342" class="ext"/>
  <line x1="1396.4" y1="1338" x2="1396.4" y2="1342" class="ext"/>
  <line x1="1310" y1="1340" x2="1396.4" y2="1340" class="dimline" marker-start="url(#arrow-rev)" marker-end="url(#arrow)"/>
  <text x="1353" y="1352" class="dim-small">10.8</text>

  <!-- Labels -->
  <text x="1290" y="1197" class="dim-small">Bore plate</text>
  <text x="1432" y="1197" class="dim-small">Release plate</text>
  <text x="1340" y="1230" class="dim-small">Guide post</text>
  <text x="1340" y="1310" class="dim-small">Stop boss</text>

  <!-- Detail callout circles on main views -->
  <!-- Detail A callout on front view near fitting bore area -->
  <circle cx="341" cy="465" r="30" fill="none" stroke="black" stroke-width="0.8"/>
  <text x="341" y="440" class="dim" font-weight="bold">A</text>

  <!-- Detail B callout on front view near left T-rail -->
  <circle cx="89" cy="414" r="18" fill="none" stroke="black" stroke-width="0.8"/>
  <text x="89" y="404" class="dim" font-weight="bold">B</text>

  <!-- Detail C callout on side view near guide post area -->
  <circle cx="1132" cy="465" r="20" fill="none" stroke="black" stroke-width="0.8"/>
  <text x="1132" y="455" class="dim" font-weight="bold">C</text>

</svg>
