<svg xmlns="http://www.w3.org/2000/svg" viewBox="0 0 1900 2600" width="1900" height="2600" font-family="Arial, sans-serif" font-size="11" fill="black" stroke="black">

  <title>Rear Wall Plate — Engineering Drawing</title>

  <defs>
    <marker id="arrow" markerWidth="8" markerHeight="6" refX="8" refY="3" orient="auto">
      <path d="M0,0 L8,3 L0,6 Z" fill="black"/>
    </marker>
    <marker id="arrow-rev" markerWidth="8" markerHeight="6" refX="0" refY="3" orient="auto">
      <path d="M8,0 L0,3 L8,6 Z" fill="black"/>
    </marker>
    <style>
      .dim { font-size: 10px; fill: black; text-anchor: middle; }
      .dim-small { font-size: 9px; fill: black; text-anchor: middle; }
      .dim-left { font-size: 9px; fill: black; text-anchor: start; }
      .dim-right { font-size: 9px; fill: black; text-anchor: end; }
      .label { font-size: 12px; fill: black; font-weight: bold; text-anchor: middle; }
      .label-left { font-size: 12px; fill: black; font-weight: bold; text-anchor: start; }
      .note { font-size: 9px; fill: black; }
      .note-center { font-size: 9px; fill: black; text-anchor: middle; }
      .title { font-size: 16px; fill: black; font-weight: bold; }
      .subtitle { font-size: 12px; fill: black; }
      .hidden { stroke-dasharray: 3,2; stroke-width: 0.8; fill: none; }
      .center { stroke-dasharray: 12,3,3,3; stroke-width: 0.5; stroke: #555; fill: none; }
      .outline { stroke: black; stroke-width: 1.2; fill: none; }
      .thin { stroke: black; stroke-width: 0.6; fill: none; }
      .dimline { stroke: black; stroke-width: 0.5; fill: none; }
      .extline { stroke: black; stroke-width: 0.4; fill: none; }
      .section { stroke: black; stroke-width: 0.8; fill: #e8e8e8; }
      .section-cut { stroke: black; stroke-width: 0.8; fill: #d0d0d0; }
      .detail-frame { stroke: black; stroke-width: 1.0; fill: none; }
      .hatch { stroke: #999; stroke-width: 0.3; fill: none; }
    </style>
  </defs>

  <!-- Title Block -->
  <text x="950" y="30" class="title" text-anchor="middle">Rear Wall Plate — Pump Cartridge</text>
  <text x="950" y="48" class="subtitle" text-anchor="middle">Flat Plate with JG Fitting Bores, Guide Pin Bosses, Pogo Pads — Third-Angle Projection</text>
  <text x="950" y="64" class="note" text-anchor="middle">Material: PETG (matte black) | All dimensions in mm | 147.8 x 14.8 x 69.8 mm envelope</text>
  <line x1="100" y1="72" x2="1800" y2="72" stroke="black" stroke-width="0.5"/>

  <!-- ============================================================ -->
  <!-- VIEW 1: DOCK FACE VIEW (looking along +Y, at Y=0 face)      -->
  <!-- Horizontal: X (0..147.8), Vertical: Z (0..69.8)             -->
  <!-- Scale: 5 px/mm                                               -->
  <!-- Origin at (100, 500) for X=0, Z=0                           -->
  <!-- dX(mm) = 100 + mm*5                                          -->
  <!-- dZ(mm) = 500 - mm*5 (Z increases upward, SVG Y downward)    -->
  <!-- ============================================================ -->

  <text x="469" y="95" class="label">DOCK FACE VIEW (looking along +Y, at Y=0)</text>
  <text x="469" y="110" class="dim-small">Scale 5:1 px/mm</text>

  <!-- Plate outline: X=0..147.8, Z=0..69.8 -->
  <!-- px: x=100..839, y=151..500 -->
  <rect x="100" y="151" width="739" height="349" class="outline"/>

  <!-- Center lines -->
  <line x1="469" y1="141" x2="469" y2="510" class="center"/>
  <line x1="90" y1="325.5" x2="849" y2="325.5" class="center"/>

  <!-- 4x JG bore shoulder clearance zones (15.5mm dia circles, visible on dock face) -->
  <!-- JG1: X=61.4, Z=47.4 => px(407, 263) -->
  <circle cx="407" cy="263" r="38.75" class="outline"/>
  <!-- JG2: X=86.4, Z=47.4 => px(532, 263) -->
  <circle cx="532" cy="263" r="38.75" class="outline"/>
  <!-- JG3: X=61.4, Z=22.4 => px(407, 388) -->
  <circle cx="407" cy="388" r="38.75" class="outline"/>
  <!-- JG4: X=86.4, Z=22.4 => px(532, 388) -->
  <circle cx="532" cy="388" r="38.75" class="outline"/>

  <!-- Press-fit bore (9.5mm dia, hidden behind shoulder zone) shown dashed -->
  <circle cx="407" cy="263" r="23.75" class="hidden"/>
  <circle cx="532" cy="263" r="23.75" class="hidden"/>
  <circle cx="407" cy="388" r="23.75" class="hidden"/>
  <circle cx="532" cy="388" r="23.75" class="hidden"/>

  <!-- Bore center crosshairs -->
  <line x1="407" y1="258" x2="407" y2="268" class="center"/>
  <line x1="402" y1="263" x2="412" y2="263" class="center"/>
  <line x1="532" y1="258" x2="532" y2="268" class="center"/>
  <line x1="527" y1="263" x2="537" y2="263" class="center"/>
  <line x1="407" y1="383" x2="407" y2="393" class="center"/>
  <line x1="402" y1="388" x2="412" y2="388" class="center"/>
  <line x1="532" y1="383" x2="532" y2="393" class="center"/>
  <line x1="527" y1="388" x2="537" y2="388" class="center"/>

  <!-- 4x Pogo pad recesses (4.5mm dia = 22.5px dia, 11.25px radius) -->
  <!-- Pad1: X=66.3, Z=8.0 => px(431.5, 460) -->
  <circle cx="431.5" cy="460" r="11.25" class="thin"/>
  <!-- Pad2: X=71.4, Z=8.0 => px(457, 460) -->
  <circle cx="457" cy="460" r="11.25" class="thin"/>
  <!-- Pad3: X=76.4, Z=8.0 => px(482, 460) -->
  <circle cx="482" cy="460" r="11.25" class="thin"/>
  <!-- Pad4: X=81.5, Z=8.0 => px(507.5, 460) -->
  <circle cx="507.5" cy="460" r="11.25" class="thin"/>

  <!-- 2x Guide pin bores (hidden, blind from interior, 3.1mm dia = 15.5px dia) -->
  <!-- Left: X=25.0, Z=34.9 => px(225, 325.5) -->
  <circle cx="225" cy="325.5" r="7.75" class="hidden"/>
  <!-- Right: X=122.8, Z=34.9 => px(714, 325.5) -->
  <circle cx="714" cy="325.5" r="7.75" class="hidden"/>

  <!-- 2x U-notches at bottom edge -->
  <!-- Left: X=43.9, Z=0..3.4, width=3.4 => X=42.2..45.6 => px(311..328, 483..500) -->
  <rect x="311" y="483" width="17" height="17" fill="white" stroke="black" stroke-width="1.2"/>
  <!-- Semicircular top of notch at Z=3.4 => y=483, radius=8.5px -->
  <path d="M 311 491 L 311 483 A 8.5 8.5 0 0 1 328 483 L 328 500 L 311 500 Z" fill="white" stroke="black" stroke-width="1.2"/>

  <!-- Right: X=103.9, Z=0..3.4 => X=102.2..105.6 => px(611..628, 483..500) -->
  <path d="M 611 491 L 611 483 A 8.5 8.5 0 0 1 628 483 L 628 500 L 611 500 Z" fill="white" stroke="black" stroke-width="1.2"/>

  <!-- 8x Snap chamfer indicators (small triangles at edges, 6mm long) -->
  <!-- Bottom-left: X=2.9, Z=2.9 => px(114.5, 485.5). Chamfer on left edge. -->
  <!-- Show as small diagonal marks at the 8 positions -->
  <!-- BL -->
  <line x1="100" y1="485" x2="105" y2="490" class="thin"/>
  <!-- BR -->
  <line x1="839" y1="485" x2="834" y2="490" class="thin"/>
  <!-- ML -->
  <line x1="100" y1="345.5" x2="105" y2="350.5" class="thin"/>
  <!-- MR -->
  <line x1="839" y1="345.5" x2="834" y2="350.5" class="thin"/>
  <!-- MUL -->
  <line x1="100" y1="305.5" x2="105" y2="310.5" class="thin"/>
  <!-- MUR -->
  <line x1="839" y1="305.5" x2="834" y2="310.5" class="thin"/>
  <!-- TL -->
  <line x1="100" y1="165.5" x2="105" y2="170.5" class="thin"/>
  <!-- TR -->
  <line x1="839" y1="165.5" x2="834" y2="170.5" class="thin"/>

  <!-- JG fitting labels -->
  <text x="370" y="248" class="dim-small" text-anchor="end">JG1</text>
  <text x="572" y="248" class="dim-left">JG2</text>
  <text x="370" y="403" class="dim-small" text-anchor="end">JG3</text>
  <text x="572" y="403" class="dim-left">JG4</text>

  <!-- Pogo pad label -->
  <text x="469" y="445" class="dim-small">Pogo pads (4x)</text>

  <!-- Notch labels -->
  <text x="319" y="478" class="dim-small">Notch</text>
  <text x="619" y="478" class="dim-small">Notch</text>

  <!-- Snap chamfer label -->
  <text x="120" y="162" class="note">Snap chamfer (8x)</text>

  <!-- Guide pin label -->
  <text x="225" y="312" class="dim-small">Guide pin</text>
  <text x="714" y="312" class="dim-small">Guide pin</text>

  <!-- DOCK FACE DIMENSIONS -->

  <!-- Overall width: 147.8mm -->
  <line x1="100" y1="515" x2="100" y2="530" class="extline"/>
  <line x1="839" y1="515" x2="839" y2="530" class="extline"/>
  <line x1="100" y1="525" x2="839" y2="525" class="dimline" marker-start="url(#arrow-rev)" marker-end="url(#arrow)"/>
  <text x="469" y="540" class="dim">147.8</text>

  <!-- Overall height: 69.8mm -->
  <line x1="855" y1="151" x2="870" y2="151" class="extline"/>
  <line x1="855" y1="500" x2="870" y2="500" class="extline"/>
  <line x1="865" y1="151" x2="865" y2="500" class="dimline" marker-start="url(#arrow-rev)" marker-end="url(#arrow)"/>
  <text x="880" y="330" class="dim-left">69.8</text>

  <!-- JG grid horizontal spacing: 25mm between JG1 and JG2 -->
  <line x1="407" y1="215" x2="407" y2="225" class="extline"/>
  <line x1="532" y1="215" x2="532" y2="225" class="extline"/>
  <line x1="407" y1="220" x2="532" y2="220" class="dimline" marker-start="url(#arrow-rev)" marker-end="url(#arrow)"/>
  <text x="469" y="215" class="dim">25.0</text>

  <!-- JG grid vertical spacing: 25mm between JG1 and JG3 -->
  <line x1="555" y1="263" x2="570" y2="263" class="extline"/>
  <line x1="555" y1="388" x2="570" y2="388" class="extline"/>
  <line x1="565" y1="263" x2="565" y2="388" class="dimline" marker-start="url(#arrow-rev)" marker-end="url(#arrow)"/>
  <text x="580" y="330" class="dim-left">25.0</text>

  <!-- JG1 X position from left: 61.4mm -->
  <line x1="100" y1="140" x2="100" y2="148" class="extline"/>
  <line x1="407" y1="140" x2="407" y2="148" class="extline"/>
  <line x1="100" y1="144" x2="407" y2="144" class="dimline" marker-start="url(#arrow-rev)" marker-end="url(#arrow)"/>
  <text x="253" y="139" class="dim">61.4</text>

  <!-- JG1 Z position from bottom: 47.4mm -->
  <line x1="80" y1="263" x2="95" y2="263" class="extline"/>
  <line x1="80" y1="500" x2="95" y2="500" class="extline"/>
  <line x1="88" y1="263" x2="88" y2="500" class="dimline" marker-start="url(#arrow-rev)" marker-end="url(#arrow)"/>
  <text x="75" y="385" class="dim-small" text-anchor="end">47.4</text>

  <!-- Pogo pad Z position from bottom: 8.0mm -->
  <line x1="75" y1="460" x2="95" y2="460" class="extline"/>
  <line x1="80" y1="460" x2="80" y2="500" class="dimline" marker-start="url(#arrow-rev)" marker-end="url(#arrow)"/>
  <text x="68" y="483" class="dim-small" text-anchor="end">8.0</text>

  <!-- Pogo pad pitch: 5.08mm -->
  <line x1="431.5" y1="475" x2="431.5" y2="485" class="extline"/>
  <line x1="457" y1="475" x2="457" y2="485" class="extline"/>
  <line x1="431.5" y1="480" x2="457" y2="480" class="dimline" marker-start="url(#arrow-rev)" marker-end="url(#arrow)"/>
  <text x="444" y="495" class="dim-small">5.08</text>

  <!-- Guide pin X from left: 25.0mm -->
  <line x1="225" y1="515" x2="225" y2="525" class="extline"/>
  <text x="162" y="540" class="dim-small">25.0</text>
  <line x1="100" y1="550" x2="100" y2="558" class="extline"/>
  <line x1="225" y1="550" x2="225" y2="558" class="extline"/>
  <line x1="100" y1="555" x2="225" y2="555" class="dimline" marker-start="url(#arrow-rev)" marker-end="url(#arrow)"/>
  <text x="162" y="570" class="dim-small">25.0</text>

  <!-- Guide pin spacing: 97.8mm -->
  <line x1="714" y1="515" x2="714" y2="525" class="extline"/>
  <line x1="714" y1="550" x2="714" y2="558" class="extline"/>
  <line x1="225" y1="555" x2="714" y2="555" class="dimline" marker-start="url(#arrow-rev)" marker-end="url(#arrow)"/>
  <text x="469" y="570" class="dim-small">97.8</text>

  <!-- Notch width: 3.4mm (shown as note since too small at this scale) -->
  <text x="319" y="510" class="dim-small">3.4 wide</text>

  <!-- JG bore diameters -->
  <text x="407" y="270" class="dim-small">15.5</text>

  <!-- ============================================================ -->
  <!-- VIEW 2: INTERIOR FACE VIEW (looking along -Y, at Y=14.8)    -->
  <!-- Horizontal: X (0..147.8), Vertical: Z (0..69.8)             -->
  <!-- Scale: 5 px/mm                                               -->
  <!-- Origin at (100, 1100) for X=0, Z=0                          -->
  <!-- Note: X is mirrored vs dock face (looking from opposite side)-->
  <!-- iX(mm) = 100 + (147.8-mm)*5  (mirrored)                     -->
  <!-- iZ(mm) = 1100 - mm*5                                         -->
  <!-- ============================================================ -->

  <text x="469" y="660" class="label">INTERIOR FACE VIEW (looking along -Y, at Y=14.8)</text>
  <text x="469" y="675" class="dim-small">Scale 5:1 px/mm | X mirrored</text>

  <!-- Plate outline -->
  <rect x="100" y="751" width="739" height="349" class="outline"/>

  <!-- Center lines -->
  <line x1="469" y1="741" x2="469" y2="1110" class="center"/>
  <line x1="90" y1="925.5" x2="849" y2="925.5" class="center"/>

  <!-- 4x JG bore interior shoulder clearance (15.5mm dia, mirrored X) -->
  <!-- JG1: X_plate=61.4 => mirrored: 147.8-61.4=86.4 => px 100+86.4*5=532 Z=47.4 => 1100-237=863 -->
  <circle cx="532" cy="863" r="38.75" class="outline"/>
  <!-- JG2: X_plate=86.4 => mirrored: 61.4 => px 407, Z=47.4 => 863 -->
  <circle cx="407" cy="863" r="38.75" class="outline"/>
  <!-- JG3: mirrored => px 532, Z=22.4 => 988 -->
  <circle cx="532" cy="988" r="38.75" class="outline"/>
  <!-- JG4: mirrored => px 407, Z=22.4 => 988 -->
  <circle cx="407" cy="988" r="38.75" class="outline"/>

  <!-- Press-fit bores (hidden) -->
  <circle cx="532" cy="863" r="23.75" class="hidden"/>
  <circle cx="407" cy="863" r="23.75" class="hidden"/>
  <circle cx="532" cy="988" r="23.75" class="hidden"/>
  <circle cx="407" cy="988" r="23.75" class="hidden"/>

  <!-- 2x Guide pin bosses (6mm OD = 30px dia, 15px radius) -->
  <!-- Left pin: X_plate=25.0 => mirrored: 122.8 => px 714, Z=34.9 => 925.5 -->
  <circle cx="714" cy="925.5" r="15" class="outline" fill="#e8e8e8"/>
  <!-- Right pin: X_plate=122.8 => mirrored: 25.0 => px 225, Z=34.9 => 925.5 -->
  <circle cx="225" cy="925.5" r="15" class="outline" fill="#e8e8e8"/>

  <!-- Guide pin bore inside boss (3.1mm dia) -->
  <circle cx="714" cy="925.5" r="7.75" class="thin"/>
  <circle cx="225" cy="925.5" r="7.75" class="thin"/>

  <!-- 2x U-notches (mirrored) -->
  <!-- Left notch: X_plate=43.9 => mirrored: 103.9 => px 619.5, Z=0..3.4 => y=1083..1100 -->
  <path d="M 611 1091 L 611 1083 A 8.5 8.5 0 0 1 628 1083 L 628 1100 L 611 1100 Z" fill="white" stroke="black" stroke-width="1.2"/>
  <!-- Right notch: X_plate=103.9 => mirrored: 43.9 => px 319.5 -->
  <path d="M 311 1091 L 311 1083 A 8.5 8.5 0 0 1 328 1083 L 328 1100 L 311 1100 Z" fill="white" stroke="black" stroke-width="1.2"/>

  <!-- Labels for interior view -->
  <text x="532" y="848" class="dim-small">JG1</text>
  <text x="407" y="848" class="dim-small">JG2</text>
  <text x="532" y="1003" class="dim-small">JG3</text>
  <text x="407" y="1003" class="dim-small">JG4</text>

  <text x="714" y="912" class="dim-small">Boss 6 OD</text>
  <text x="225" y="912" class="dim-small">Boss 6 OD</text>

  <!-- Boss protrusion dimension (noted) -->
  <text x="714" y="950" class="dim-small">3.1 bore</text>
  <text x="225" y="950" class="dim-small">3.1 bore</text>

  <!-- Interior dimensions: boss height noted -->
  <text x="850" y="920" class="note">Boss protrudes</text>
  <text x="850" y="932" class="note">3mm from face</text>

  <!-- ============================================================ -->
  <!-- VIEW 3: SIDE SECTION A-A (cut through JG1 bore center)      -->
  <!-- Section plane: X=61.4 (through JG1 and JG3)                 -->
  <!-- Horizontal: Y (0..14.8, dock at left), Vertical: Z (0..69.8)-->
  <!-- Scale: 8 px/mm                                               -->
  <!-- Origin at (1050, 500) for Y=0, Z=0                          -->
  <!-- sY(mm) = 1050 + mm*8                                         -->
  <!-- sZ(mm) = 500 - mm*8                                          -->
  <!-- ============================================================ -->

  <text x="1109" y="78" class="label">SECTION A-A (through JG1/JG3)</text>
  <text x="1300" y="78" class="dim-small">8:1</text>

  <!-- Section cut line on dock face view -->
  <line x1="407" y1="146" x2="407" y2="155" stroke="black" stroke-width="1.0"/>
  <text x="407" y="143" class="dim-small">A</text>
  <line x1="407" y1="496" x2="407" y2="505" stroke="black" stroke-width="1.0"/>
  <text x="407" y="512" class="dim-small">A</text>

  <!-- SECTION: origin at (1050, 650) for Y=0, Z=0 -->
  <!-- sY(mm) = 1050 + mm*8 -->
  <!-- sZ(mm) = 650 - mm*8 -->
  <!-- Plate: Y=0..14.8 => px 1050..1168, Z=0..69.8 => px 650..92 -->

  <rect x="1050" y="92" width="118" height="558" class="section"/>

  <!-- JG1 bore at Z=47.4 => sZ = 650 - 47.4*8 = 650-379.2 = 270.8 -->
  <!-- Bore profile (cut through center): -->
  <!-- Dock-side shoulder: Y=0..1.32, dia 15.5 => half=7.75 => 62px half-height in section -->
  <!-- At bore center, show the stepped profile as a cutaway -->

  <!-- JG1 stepped bore cutaway (white rectangle punched through section) -->
  <!-- Shoulder clearance dock-side: Y=0..1.32 => px 1050..1061, height = 15.5mm = 124px centered on Z=47.4 -->
  <rect x="1050" y="209" width="11" height="124" fill="white" stroke="black" stroke-width="0.8"/>
  <!-- Press-fit zone: Y=1.32..13.48 => px 1061..1158, height = 9.5mm = 76px -->
  <rect x="1061" y="233" width="97" height="76" fill="white" stroke="black" stroke-width="0.8"/>
  <!-- Shoulder clearance interior-side: Y=13.48..14.8 => px 1158..1168, height = 15.5mm = 124px -->
  <rect x="1158" y="209" width="10" height="124" fill="white" stroke="black" stroke-width="0.8"/>

  <!-- JG3 bore at Z=22.4 => sZ = 650 - 22.4*8 = 650-179.2 = 470.8 -->
  <rect x="1050" y="409" width="11" height="124" fill="white" stroke="black" stroke-width="0.8"/>
  <rect x="1061" y="433" width="97" height="76" fill="white" stroke="black" stroke-width="0.8"/>
  <rect x="1158" y="409" width="10" height="124" fill="white" stroke="black" stroke-width="0.8"/>

  <!-- Guide pin bore (not at this X section, shown as hidden if visible) -->
  <!-- Guide pin at X=25.0, this section is at X=61.4 — no overlap -->

  <!-- U-notch at X=43.9 — not at this section either -->

  <!-- Section hatching lines (diagonal lines in the solid areas) -->
  <!-- Top solid zone: Z=53.15..69.8 (above JG1 shoulder top) -->
  <!-- Between JG1 and JG3: Z=27.15..42.65 -->
  <!-- Bottom solid zone: Z=0..17.65 (below JG3 shoulder bottom) -->

  <!-- Simplified hatching: diagonal lines at 45 degrees, spaced 8px -->
  <!-- Top solid -->
  <line x1="1055" y1="92" x2="1163" y2="92" class="hatch"/>
  <line x1="1055" y1="100" x2="1163" y2="100" class="hatch"/>
  <line x1="1055" y1="108" x2="1163" y2="108" class="hatch"/>

  <!-- Section dimensions -->
  <!-- Plate thickness: 14.8mm -->
  <line x1="1050" y1="660" x2="1050" y2="675" class="extline"/>
  <line x1="1168" y1="660" x2="1168" y2="675" class="extline"/>
  <line x1="1050" y1="670" x2="1168" y2="670" class="dimline" marker-start="url(#arrow-rev)" marker-end="url(#arrow)"/>
  <text x="1109" y="685" class="dim">14.8</text>

  <!-- Bore zone labels on section -->
  <!-- Dock-side shoulder: 1.32mm -->
  <line x1="1050" y1="340" x2="1050" y2="350" class="extline"/>
  <line x1="1061" y1="340" x2="1061" y2="350" class="extline"/>
  <line x1="1050" y1="345" x2="1061" y2="345" class="dimline" marker-start="url(#arrow-rev)" marker-end="url(#arrow)"/>
  <text x="1030" y="348" class="dim-small" text-anchor="end">1.32</text>

  <!-- Press-fit zone: 12.16mm -->
  <line x1="1061" y1="315" x2="1061" y2="325" class="extline"/>
  <line x1="1158" y1="315" x2="1158" y2="325" class="extline"/>
  <line x1="1061" y1="320" x2="1158" y2="320" class="dimline" marker-start="url(#arrow-rev)" marker-end="url(#arrow)"/>
  <text x="1109" y="315" class="dim">12.16</text>

  <!-- Shoulder diameter: 15.5mm -->
  <line x1="1040" y1="209" x2="1040" y2="333" class="dimline" marker-start="url(#arrow-rev)" marker-end="url(#arrow)"/>
  <line x1="1035" y1="209" x2="1050" y2="209" class="extline"/>
  <line x1="1035" y1="333" x2="1050" y2="333" class="extline"/>
  <text x="1020" y="275" class="dim-small" text-anchor="end">15.5</text>

  <!-- Press-fit diameter: 9.5mm -->
  <line x1="1175" y1="233" x2="1175" y2="309" class="dimline" marker-start="url(#arrow-rev)" marker-end="url(#arrow)"/>
  <line x1="1168" y1="233" x2="1182" y2="233" class="extline"/>
  <line x1="1168" y1="309" x2="1182" y2="309" class="extline"/>
  <text x="1190" y="275" class="dim-left">9.5</text>

  <!-- Interior-side shoulder: 1.32mm -->
  <line x1="1158" y1="340" x2="1158" y2="350" class="extline"/>
  <line x1="1168" y1="340" x2="1168" y2="350" class="extline"/>
  <line x1="1158" y1="345" x2="1168" y2="345" class="dimline" marker-start="url(#arrow-rev)" marker-end="url(#arrow)"/>
  <text x="1185" y="348" class="dim-left">1.32</text>

  <!-- Dock face label -->
  <text x="1046" y="88" class="dim-small" text-anchor="end">Dock</text>
  <!-- Interior face label -->
  <text x="1172" y="88" class="dim-small" text-anchor="start">Int.</text>

  <!-- Overall height dimension -->
  <line x1="1200" y1="92" x2="1215" y2="92" class="extline"/>
  <line x1="1200" y1="650" x2="1215" y2="650" class="extline"/>
  <line x1="1210" y1="92" x2="1210" y2="650" class="dimline" marker-start="url(#arrow-rev)" marker-end="url(#arrow)"/>
  <text x="1225" y="375" class="dim-left">69.8</text>

  <!-- ============================================================ -->
  <!-- DETAIL B: STEPPED BORE PROFILE (enlarged)                    -->
  <!-- Scale: 14 px/mm                                               -->
  <!-- Shows one JG bore in cross-section                           -->
  <!-- Origin at (1350, 350) for Y=0, bore center                  -->
  <!-- ============================================================ -->

  <text x="1550" y="95" class="label">DETAIL B: JG BORE PROFILE</text>
  <text x="1550" y="110" class="dim-small">Scale 14:1 px/mm</text>

  <!-- Detail circle on section view pointing to JG1 bore -->
  <circle cx="1109" cy="271" r="70" class="detail-frame" stroke-dasharray="5,3"/>
  <text x="1109" y="200" class="dim-small">B</text>

  <!-- Bore profile at 14px/mm scale -->
  <!-- Y=0..14.8 => 1350..1557 -->
  <!-- Bore half-height centered at detail_cy=350 -->

  <!-- Plate solid (top half and bottom half around bore) -->
  <!-- Top solid: from bore top to plate top -->
  <rect x="1350" y="200" width="207" height="42" fill="#e8e8e8" stroke="black" stroke-width="0.8"/>
  <!-- Bottom solid -->
  <rect x="1350" y="500" width="207" height="42" fill="#e8e8e8" stroke="black" stroke-width="0.8"/>

  <!-- Bore walls (the stepped profile) -->
  <!-- Dock-side shoulder: Y=0..1.32 => px 1350..1368, half-dia 15.5/2=7.75 => 108.5px half -->
  <!-- Upper wall -->
  <rect x="1350" y="242" width="18" height="0.5" fill="#e8e8e8" stroke="black" stroke-width="0.8"/>
  <!-- Let me draw this more carefully as lines -->

  <!-- Draw bore profile as path -->
  <!-- Center of bore at y=350 (detail_cy) -->
  <!-- 15.5mm radius = 108.5px half at 14px/mm => wait, it's DIAMETER. half = 7.75mm = 108.5px -->
  <!-- That's too big. Let me use a better approach. -->

  <!-- Actually show the bore in axial cross-section (like the section view but zoomed) -->
  <!-- The bore is a cross-section: Y horizontal, bore radius vertical -->
  <!-- Plate solid from Y=0..14.8, bore cuts through it -->

  <!-- Redraw: plate solid as background, then bore cutouts -->
  <!-- Plate body (full solid rectangle) -->
  <rect x="1350" y="200" width="207" height="342" fill="#e8e8e8" stroke="black" stroke-width="1.0"/>

  <!-- Dock-side shoulder clearance: Y=0..1.32 => px 1350..1368 -->
  <!-- Bore dia 15.5 => half 7.75mm => 108.5px. Centered at y=350 => y=241.5..458.5 -->
  <rect x="1350" y="241" width="18" height="218" fill="white" stroke="black" stroke-width="0.8"/>

  <!-- Press-fit zone: Y=1.32..13.48 => px 1368..1539 -->
  <!-- Bore dia 9.5 => half 4.75mm => 66.5px. Centered at y=350 => y=283.5..416.5 -->
  <rect x="1368" y="283" width="171" height="134" fill="white" stroke="black" stroke-width="0.8"/>

  <!-- Interior shoulder clearance: Y=13.48..14.8 => px 1539..1557 -->
  <rect x="1539" y="241" width="18" height="218" fill="white" stroke="black" stroke-width="0.8"/>

  <!-- 1mm x 45-deg entry chamfer on dock side -->
  <line x1="1350" y1="241" x2="1364" y2="255" stroke="black" stroke-width="0.6"/>
  <line x1="1350" y1="459" x2="1364" y2="445" stroke="black" stroke-width="0.6"/>

  <!-- Dimension lines for detail -->
  <!-- Shoulder clearance dia: 15.5mm -->
  <line x1="1340" y1="241" x2="1340" y2="459" class="dimline" marker-start="url(#arrow-rev)" marker-end="url(#arrow)"/>
  <line x1="1335" y1="241" x2="1350" y2="241" class="extline"/>
  <line x1="1335" y1="459" x2="1350" y2="459" class="extline"/>
  <text x="1300" y="354" class="dim-small" text-anchor="end">15.5</text>

  <!-- Press-fit dia: 9.5mm -->
  <line x1="1565" y1="283" x2="1565" y2="417" class="dimline" marker-start="url(#arrow-rev)" marker-end="url(#arrow)"/>
  <line x1="1557" y1="283" x2="1572" y2="283" class="extline"/>
  <line x1="1557" y1="417" x2="1572" y2="417" class="extline"/>
  <text x="1580" y="354" class="dim-left">9.5</text>

  <!-- Shoulder zone lengths -->
  <!-- Dock shoulder: 1.32mm -->
  <line x1="1350" y1="470" x2="1350" y2="490" class="extline"/>
  <line x1="1368" y1="470" x2="1368" y2="490" class="extline"/>
  <line x1="1350" y1="483" x2="1368" y2="483" class="dimline" marker-start="url(#arrow-rev)" marker-end="url(#arrow)"/>
  <text x="1359" y="500" class="dim-small">1.32</text>

  <!-- Press-fit zone: 12.16mm -->
  <line x1="1368" y1="470" x2="1368" y2="480" class="extline"/>
  <line x1="1539" y1="470" x2="1539" y2="480" class="extline"/>
  <line x1="1368" y1="475" x2="1539" y2="475" class="dimline" marker-start="url(#arrow-rev)" marker-end="url(#arrow)"/>
  <text x="1453" y="470" class="dim">12.16</text>

  <!-- Interior shoulder: 1.32mm -->
  <line x1="1539" y1="470" x2="1539" y2="490" class="extline"/>
  <line x1="1557" y1="470" x2="1557" y2="490" class="extline"/>
  <line x1="1539" y1="483" x2="1557" y2="483" class="dimline" marker-start="url(#arrow-rev)" marker-end="url(#arrow)"/>
  <text x="1548" y="500" class="dim-small">1.32</text>

  <!-- Total: 14.8mm -->
  <line x1="1350" y1="542" x2="1350" y2="555" class="extline"/>
  <line x1="1557" y1="542" x2="1557" y2="555" class="extline"/>
  <line x1="1350" y1="552" x2="1557" y2="552" class="dimline" marker-start="url(#arrow-rev)" marker-end="url(#arrow)"/>
  <text x="1453" y="565" class="dim">14.8</text>

  <!-- Face labels -->
  <text x="1350" y="195" class="dim-small" text-anchor="middle">Dock</text>
  <text x="1557" y="195" class="dim-small" text-anchor="middle">Interior</text>

  <!-- Chamfer callout -->
  <text x="1380" y="232" class="note">1x45 chamfer</text>

  <!-- ============================================================ -->
  <!-- DETAIL C: U-NOTCH (enlarged)                                 -->
  <!-- Scale: 14 px/mm                                               -->
  <!-- Shows notch profile in XZ plane                              -->
  <!-- ============================================================ -->

  <text x="1550" y="660" class="label">DETAIL C: U-NOTCH</text>
  <text x="1550" y="675" class="dim-small">Scale 14:1 px/mm</text>

  <!-- Detail circle on dock face view pointing to left notch -->
  <circle cx="319" cy="491" r="30" class="detail-frame" stroke-dasharray="5,3"/>
  <text x="319" y="455" class="dim-small">C</text>

  <!-- Notch profile at 14px/mm -->
  <!-- Notch: X center=43.9, width=3.4 => half=1.7 => X=42.2..45.6 -->
  <!-- Z=0..3.4 with semicircular top -->
  <!-- Draw plate bottom edge with notch cut out -->

  <!-- Plate solid (background) -->
  <rect x="1420" y="700" width="260" height="200" fill="#e8e8e8" stroke="black" stroke-width="1.0"/>

  <!-- Notch cutout: centered at x=1550 -->
  <!-- Width 3.4mm = 47.6px. Half = 23.8px => x=1526.2..1573.8 -->
  <!-- Height 3.4mm = 47.6px from bottom edge. Bottom at y=900, top of notch at y=852.4 -->
  <!-- Semicircular top: radius 1.7mm = 23.8px, centered at Z=1.7 => y=900-23.8=876.2 -->

  <!-- Notch as white cutout -->
  <path d="M 1526 900 L 1526 876 A 24 24 0 0 1 1574 876 L 1574 900 Z" fill="white" stroke="black" stroke-width="0.8"/>

  <!-- Link rod position (dashed circle showing rod cross-section) -->
  <!-- Rod at Z_plate=0.9, dia 3mm = 42px dia at 14px/mm, radius=21px -->
  <!-- Z=0.9 => y = 900 - 0.9*14 = 887.4 -->
  <circle cx="1550" cy="887" r="21" class="hidden"/>
  <text x="1600" y="885" class="dim-left">Rod 3.0</text>

  <!-- Notch dimensions -->
  <!-- Width: 3.4mm -->
  <line x1="1526" y1="900" x2="1526" y2="925" class="extline"/>
  <line x1="1574" y1="900" x2="1574" y2="925" class="extline"/>
  <line x1="1526" y1="920" x2="1574" y2="920" class="dimline" marker-start="url(#arrow-rev)" marker-end="url(#arrow)"/>
  <text x="1550" y="935" class="dim">3.4</text>

  <!-- Height: 3.4mm -->
  <line x1="1410" y1="852" x2="1420" y2="852" class="extline"/>
  <line x1="1410" y1="900" x2="1420" y2="900" class="extline"/>
  <line x1="1415" y1="852" x2="1415" y2="900" class="dimline" marker-start="url(#arrow-rev)" marker-end="url(#arrow)"/>
  <text x="1400" y="880" class="dim-small" text-anchor="end">3.4</text>

  <!-- Rod center from bottom edge: 0.9mm -->
  <line x1="1580" y1="887" x2="1590" y2="887" class="extline"/>
  <line x1="1580" y1="900" x2="1590" y2="900" class="extline"/>
  <line x1="1586" y1="887" x2="1586" y2="900" class="dimline" marker-start="url(#arrow-rev)" marker-end="url(#arrow)"/>
  <text x="1600" y="900" class="dim-left">0.9</text>

  <!-- Clearance note -->
  <text x="1550" y="950" class="note-center">Open at bottom edge</text>

  <!-- ============================================================ -->
  <!-- DETAIL D: GUIDE PIN BOSS (side section)                      -->
  <!-- Scale: 12 px/mm                                               -->
  <!-- Shows boss protrusion from interior face                     -->
  <!-- ============================================================ -->

  <text x="350" y="1160" class="label">DETAIL D: GUIDE PIN BOSS (side section)</text>
  <text x="350" y="1175" class="dim-small">Scale 12:1 px/mm</text>

  <!-- Plate cross-section with boss protruding from interior face -->
  <!-- Y=0..14.8 horizontal, pin bore vertical -->
  <!-- At 12px/mm: Y=0..14.8 => 0..177.6px -->
  <!-- Origin at (150, 1400) for Y=0, center of pin -->

  <!-- Plate body -->
  <rect x="150" y="1250" width="178" height="300" fill="#e8e8e8" stroke="black" stroke-width="1.0"/>

  <!-- Boss protrusion: Y=14.8..17.8 => px 328..364, 6mm OD => 72px, centered at y=1400 -->
  <rect x="328" y="1364" width="36" height="72" fill="#e8e8e8" stroke="black" stroke-width="1.0"/>

  <!-- Pin bore: 3.1mm dia => 37.2px, from Y=4.8..14.8 => px 208..328 -->
  <!-- Bore centered at y=1400 -->
  <rect x="208" y="1381" width="120" height="38" fill="white" stroke="black" stroke-width="0.8"/>

  <!-- Boss bore continues: Y=14.8..17.8 => px 328..364 -->
  <rect x="328" y="1381" width="36" height="38" fill="white" stroke="black" stroke-width="0.8"/>

  <!-- Pin (shown as filled cylinder in bore) -->
  <!-- Pin 3mm dia => 36px, from Y=4.8 (bore bottom) protruding through boss -->
  <!-- Pin extends 30mm from interior face: Y=14.8 outward -->
  <rect x="208" y="1382" width="156" height="36" fill="#ccc" stroke="black" stroke-width="0.5"/>

  <!-- Spring on boss face (shown schematically as zigzag) -->
  <text x="380" y="1360" class="note">Spring seat</text>

  <!-- Dimensions -->
  <!-- Bore depth from interior: 10mm -->
  <line x1="208" y1="1430" x2="208" y2="1445" class="extline"/>
  <line x1="328" y1="1430" x2="328" y2="1445" class="extline"/>
  <line x1="208" y1="1440" x2="328" y2="1440" class="dimline" marker-start="url(#arrow-rev)" marker-end="url(#arrow)"/>
  <text x="268" y="1455" class="dim">10.0 bore depth</text>

  <!-- Boss protrusion: 3mm -->
  <line x1="328" y1="1445" x2="328" y2="1460" class="extline"/>
  <line x1="364" y1="1445" x2="364" y2="1460" class="extline"/>
  <line x1="328" y1="1455" x2="364" y2="1455" class="dimline" marker-start="url(#arrow-rev)" marker-end="url(#arrow)"/>
  <text x="346" y="1470" class="dim-small">3.0</text>

  <!-- Boss OD: 6mm -->
  <line x1="325" y1="1364" x2="325" y2="1436" class="dimline" marker-start="url(#arrow-rev)" marker-end="url(#arrow)"/>
  <text x="315" y="1395" class="dim-small" text-anchor="end">6.0 OD</text>

  <!-- Pin bore dia: 3.1mm -->
  <line x1="370" y1="1381" x2="370" y2="1419" class="dimline" marker-start="url(#arrow-rev)" marker-end="url(#arrow)"/>
  <text x="380" y="1404" class="dim-left">3.1</text>

  <!-- Solid backing: 4.8mm -->
  <line x1="150" y1="1430" x2="150" y2="1445" class="extline"/>
  <line x1="150" y1="1440" x2="208" y2="1440" class="dimline" marker-start="url(#arrow-rev)" marker-end="url(#arrow)"/>
  <text x="179" y="1455" class="dim-small">4.8 solid</text>

  <!-- Plate thickness: 14.8mm -->
  <line x1="150" y1="1230" x2="150" y2="1245" class="extline"/>
  <line x1="328" y1="1230" x2="328" y2="1245" class="extline"/>
  <line x1="150" y1="1238" x2="328" y2="1238" class="dimline" marker-start="url(#arrow-rev)" marker-end="url(#arrow)"/>
  <text x="239" y="1230" class="dim">14.8</text>

  <!-- Face labels -->
  <text x="150" y="1220" class="dim-small" text-anchor="middle">Dock</text>
  <text x="346" y="1220" class="dim-small" text-anchor="middle">Interior</text>

  <!-- ============================================================ -->
  <!-- DETAIL E: POGO PAD RECESS (dock face detail)                 -->
  <!-- Scale: 14 px/mm                                               -->
  <!-- Shows one pogo pad recess cross-section                      -->
  <!-- ============================================================ -->

  <text x="750" y="1160" class="label">DETAIL E: POGO PAD RECESS (section)</text>
  <text x="750" y="1175" class="dim-small">Scale 14:1 px/mm</text>

  <!-- Cross section through a pogo pad -->
  <!-- Plate dock face at left, recess cut into it -->
  <!-- Y horizontal, Z vertical (showing pad in profile) -->

  <!-- Plate body -->
  <rect x="600" y="1250" width="207" height="180" fill="#e8e8e8" stroke="black" stroke-width="1.0"/>

  <!-- Recess: 4.5mm dia => 63px dia, 0.5mm deep => 7px -->
  <!-- Centered at y=1340 (center of view) -->
  <!-- Recess from dock face (left side): x=600..607 -->
  <rect x="600" y="1308" width="7" height="63" fill="white" stroke="black" stroke-width="0.8"/>

  <!-- Copper pad insert (4mm dia => 56px, flush with surface) -->
  <rect x="600" y="1312" width="6" height="56" fill="#d4a574" stroke="black" stroke-width="0.5"/>

  <!-- Dimensions -->
  <!-- Recess depth: 0.5mm -->
  <line x1="600" y1="1290" x2="600" y2="1300" class="extline"/>
  <line x1="607" y1="1290" x2="607" y2="1300" class="extline"/>
  <line x1="600" y1="1295" x2="607" y2="1295" class="dimline" marker-start="url(#arrow-rev)" marker-end="url(#arrow)"/>
  <text x="603" y="1288" class="dim-small">0.5</text>

  <!-- Recess diameter: 4.5mm -->
  <line x1="590" y1="1308" x2="600" y2="1308" class="extline"/>
  <line x1="590" y1="1371" x2="600" y2="1371" class="extline"/>
  <line x1="595" y1="1308" x2="595" y2="1371" class="dimline" marker-start="url(#arrow-rev)" marker-end="url(#arrow)"/>
  <text x="580" y="1343" class="dim-small" text-anchor="end">4.5</text>

  <!-- Pad insert diameter: 4.0mm -->
  <line x1="820" y1="1312" x2="830" y2="1312" class="extline"/>
  <line x1="820" y1="1368" x2="830" y2="1368" class="extline"/>
  <line x1="825" y1="1312" x2="825" y2="1368" class="dimline" marker-start="url(#arrow-rev)" marker-end="url(#arrow)"/>
  <text x="838" y="1343" class="dim-left">4.0 pad</text>

  <!-- Face label -->
  <text x="600" y="1245" class="dim-small" text-anchor="middle">Dock face</text>

  <!-- ============================================================ -->
  <!-- NOTES                                                         -->
  <!-- ============================================================ -->

  <text x="100" y="1530" class="label-left">NOTES</text>
  <text x="100" y="1548" class="note">1. Print orientation: dock face (Y=0) down on build plate. JG bores vertical.</text>
  <text x="100" y="1563" class="note">2. JG fitting: PP0408W press-fit into 9.5mm bore (0.19mm interference). Shoulder zones 15.5mm clear body-ends.</text>
  <text x="100" y="1578" class="note">3. Guide pins: 3mm x 40mm steel dowels press-fit into 3.1mm blind bores, 10mm deep from interior face.</text>
  <text x="100" y="1593" class="note">4. Boss faces serve as compression spring seats (3mm ID spring, 8mm free length).</text>
  <text x="100" y="1608" class="note">5. Pogo pads: 4mm copper inserts in 4.5mm x 0.5mm recesses, 5.08mm pitch. Flush with dock face.</text>
  <text x="100" y="1623" class="note">6. U-notches: open at bottom edge, 3.4mm wide, for 3mm link rod pass-through (no guiding function).</text>
  <text x="100" y="1638" class="note">7. 8x snap tab chamfers: 45 deg x 1mm, 6mm long, on left/right edges at tab engagement positions.</text>
  <text x="100" y="1653" class="note">8. Elephant foot chamfer: 0.3mm x 45 deg on all dock-face edges (print bed surface).</text>
  <text x="100" y="1668" class="note">9. General exterior chamfer: 1mm on all non-bottom exterior edges.</text>

</svg>
