<svg xmlns="http://www.w3.org/2000/svg" viewBox="0 0 1500 1100" width="1500" height="1100" font-family="Arial, sans-serif" font-size="11" fill="black" stroke="black">

  <title>Release Plate — Engineering Drawing</title>

  <defs>
    <marker id="arrow" markerWidth="8" markerHeight="6" refX="8" refY="3" orient="auto">
      <path d="M0,0 L8,3 L0,6 Z" fill="black"/>
    </marker>
    <marker id="arrow-rev" markerWidth="8" markerHeight="6" refX="0" refY="3" orient="auto">
      <path d="M8,0 L0,3 L8,6 Z" fill="black"/>
    </marker>
    <style>
      .dim { font-size: 10px; fill: black; stroke: none; text-anchor: middle; }
      .dim-sm { font-size: 9px; fill: black; stroke: none; text-anchor: middle; }
      .label { font-size: 12px; fill: black; stroke: none; font-weight: bold; text-anchor: middle; }
      .note { font-size: 9px; fill: black; stroke: none; }
      .title-text { font-size: 16px; fill: black; stroke: none; font-weight: bold; }
      .subtitle { font-size: 12px; fill: black; stroke: none; }
      .hidden { stroke-dasharray: 3,2; stroke-width: 0.8; fill: none; }
      .center { stroke-dasharray: 12,3,3,3; stroke-width: 0.5; stroke: #555; fill: none; }
      .outline { stroke: black; stroke-width: 1.2; fill: none; }
      .thin { stroke: black; stroke-width: 0.6; fill: none; }
      .dimline { stroke: black; stroke-width: 0.5; fill: none; }
      .ext { stroke: black; stroke-width: 0.4; fill: none; }
      .section { stroke: black; stroke-width: 0.8; fill: #e8e8e8; }
      .detail-frame { stroke: black; stroke-width: 1.0; fill: white; }
      .hatch { stroke: #888; stroke-width: 0.3; fill: none; }
    </style>
  </defs>

  <!-- Title Block -->
  <text x="750" y="30" class="title-text" text-anchor="middle">Release Plate (Part #4)</text>
  <text x="750" y="48" class="subtitle" text-anchor="middle">Pump Cartridge — Third-Angle Orthographic Projection</text>
  <text x="750" y="64" class="note" text-anchor="middle">Material: PETG | All dimensions in mm | Plate frame: X=width(0..55), Y=thickness(0..5), Z=height(0..55)</text>
  <line x1="100" y1="72" x2="1400" y2="72" stroke="black" stroke-width="0.5"/>

  <!-- ============================================================ -->
  <!-- TOP VIEW (looking along -Y, user-facing side)                -->
  <!-- Horizontal = plate X (0..55), Vertical = plate Z (0..55)     -->
  <!-- Scale: 5 px/mm                                               -->
  <!-- tX(mm) = 100 + mm*5                                          -->
  <!-- tZ(mm) = 460 - mm*5                                          -->
  <!-- ============================================================ -->

  <text x="237" y="95" class="label">TOP VIEW (looking along -Y, user face)</text>
  <text x="237" y="110" class="dim-sm">Scale 5:1 (5 px/mm)</text>

  <g id="top-view">
    <!-- Plate outline: 55x55mm => 275x275 px, from (100,185) to (375,460) -->
    <rect x="100" y="185" width="275" height="275" class="outline"/>

    <!-- Section line A-A at plate X=17.5 (px = 187.5) -->
    <line x1="187.5" y1="170" x2="187.5" y2="475" stroke="black" stroke-width="0.8" stroke-dasharray="15,3,3,3"/>
    <text x="175" y="170" class="dim" text-anchor="end">A</text>
    <text x="175" y="478" class="dim" text-anchor="end">A</text>

    <!-- Stepped bores: circles in top view (bore axes along Y) -->
    <!-- 15.5mm dia r=38.75px; 9.8mm dia r=24.5px; 6.5mm dia r=16.25px -->

    <!-- B1 at (17.5, 17.5): cx=187.5, cy=372.5 -->
    <circle cx="187.5" cy="372.5" r="38.75" class="outline"/>
    <circle cx="187.5" cy="372.5" r="24.5" class="hidden"/>
    <circle cx="187.5" cy="372.5" r="16.25" class="outline"/>
    <line x1="175" y1="372.5" x2="200" y2="372.5" class="center"/>
    <line x1="187.5" y1="360" x2="187.5" y2="385" class="center"/>

    <!-- B2 at (37.5, 17.5): cx=287.5, cy=372.5 -->
    <circle cx="287.5" cy="372.5" r="38.75" class="outline"/>
    <circle cx="287.5" cy="372.5" r="24.5" class="hidden"/>
    <circle cx="287.5" cy="372.5" r="16.25" class="outline"/>
    <line x1="275" y1="372.5" x2="300" y2="372.5" class="center"/>
    <line x1="287.5" y1="360" x2="287.5" y2="385" class="center"/>

    <!-- B3 at (17.5, 37.5): cx=187.5, cy=272.5 -->
    <circle cx="187.5" cy="272.5" r="38.75" class="outline"/>
    <circle cx="187.5" cy="272.5" r="24.5" class="hidden"/>
    <circle cx="187.5" cy="272.5" r="16.25" class="outline"/>
    <line x1="175" y1="272.5" x2="200" y2="272.5" class="center"/>
    <line x1="187.5" y1="260" x2="187.5" y2="285" class="center"/>

    <!-- B4 at (37.5, 37.5): cx=287.5, cy=272.5 -->
    <circle cx="287.5" cy="272.5" r="38.75" class="outline"/>
    <circle cx="287.5" cy="272.5" r="24.5" class="hidden"/>
    <circle cx="287.5" cy="272.5" r="16.25" class="outline"/>
    <line x1="275" y1="272.5" x2="300" y2="272.5" class="center"/>
    <line x1="287.5" y1="260" x2="287.5" y2="285" class="center"/>

    <!-- Guide post bores: 3.8mm dia r=9.5px -->
    <!-- G1 at (5.5, 6.0): cx=127.5, cy=430 -->
    <circle cx="127.5" cy="430" r="9.5" class="outline"/>
    <line x1="118" y1="430" x2="137" y2="430" class="center"/>
    <line x1="127.5" y1="420.5" x2="127.5" y2="439.5" class="center"/>

    <!-- G2 at (49.5, 6.0): cx=347.5, cy=430 -->
    <circle cx="347.5" cy="430" r="9.5" class="outline"/>
    <line x1="338" y1="430" x2="357" y2="430" class="center"/>
    <line x1="347.5" y1="420.5" x2="347.5" y2="439.5" class="center"/>

    <!-- G3 at (5.5, 49.0): cx=127.5, cy=215 -->
    <circle cx="127.5" cy="215" r="9.5" class="outline"/>
    <line x1="118" y1="215" x2="137" y2="215" class="center"/>
    <line x1="127.5" y1="205.5" x2="127.5" y2="224.5" class="center"/>

    <!-- G4 at (49.5, 49.0): cx=347.5, cy=215 -->
    <circle cx="347.5" cy="215" r="9.5" class="outline"/>
    <line x1="338" y1="215" x2="357" y2="215" class="center"/>
    <line x1="347.5" y1="205.5" x2="347.5" y2="224.5" class="center"/>

    <!-- Linkage rod hooks -->
    <!-- Left hook at X=0, Z=27.5: px x=100, cy=322.5 -->
    <!-- Hook OD 7.3mm, extends 3.65mm=18.25px beyond plate edge -->
    <!-- Z span: 24..31 => cy: 305..340 -->
    <path d="M 100 315 L 100 305 Q 81.75 305 81.75 322.5 Q 81.75 340 100 340 L 100 330" class="outline"/>
    <path d="M 100 315 Q 89.25 315 89.25 322.5 Q 89.25 330 100 330" class="hidden"/>

    <!-- Right hook at X=55: px x=375, cy=322.5 -->
    <path d="M 375 315 L 375 305 Q 393.25 305 393.25 322.5 Q 393.25 340 375 340 L 375 330" class="outline"/>
    <path d="M 375 315 Q 385.75 315 385.75 322.5 Q 385.75 330 375 330" class="hidden"/>

    <!-- ===== DIMENSIONS ===== -->

    <!-- Overall width: 55mm at bottom -->
    <line x1="100" y1="460" x2="100" y2="495" class="ext"/>
    <line x1="375" y1="460" x2="375" y2="495" class="ext"/>
    <line x1="100" y1="490" x2="375" y2="490" class="dimline" marker-start="url(#arrow-rev)" marker-end="url(#arrow)"/>
    <text x="237.5" y="503" class="dim">55.0</text>

    <!-- Overall height: 55mm at right -->
    <line x1="375" y1="185" x2="410" y2="185" class="ext"/>
    <line x1="375" y1="460" x2="410" y2="460" class="ext"/>
    <line x1="405" y1="185" x2="405" y2="460" class="dimline" marker-start="url(#arrow-rev)" marker-end="url(#arrow)"/>
    <text x="420" y="326" class="dim" text-anchor="start">55.0</text>

    <!-- Bore spacing: 20mm horizontal B1-B2 -->
    <line x1="187.5" y1="340" x2="187.5" y2="330" class="ext"/>
    <line x1="287.5" y1="340" x2="287.5" y2="330" class="ext"/>
    <line x1="187.5" y1="333" x2="287.5" y2="333" class="dimline" marker-start="url(#arrow-rev)" marker-end="url(#arrow)"/>
    <text x="237.5" y="329" class="dim">20.0 (X)</text>

    <!-- Bore spacing: 20mm vertical B1-B3 -->
    <line x1="230" y1="372.5" x2="240" y2="372.5" class="ext"/>
    <line x1="230" y1="272.5" x2="240" y2="272.5" class="ext"/>
    <line x1="237" y1="272.5" x2="237" y2="372.5" class="dimline" marker-start="url(#arrow-rev)" marker-end="url(#arrow)"/>
    <text x="248" y="310" class="dim" text-anchor="start">20.0 (Z)</text>

    <!-- B1 center to left edge: 17.5mm -->
    <line x1="100" y1="405" x2="100" y2="415" class="ext"/>
    <line x1="187.5" y1="405" x2="187.5" y2="415" class="ext"/>
    <line x1="100" y1="412" x2="187.5" y2="412" class="dimline" marker-start="url(#arrow-rev)" marker-end="url(#arrow)"/>
    <text x="143.75" y="409" class="dim-sm">17.5</text>

    <!-- G1 to left edge: 5.5mm -->
    <line x1="100" y1="450" x2="100" y2="460" class="ext"/>
    <line x1="127.5" y1="440" x2="127.5" y2="460" class="ext"/>
    <line x1="100" y1="456" x2="127.5" y2="456" class="dimline" marker-start="url(#arrow-rev)" marker-end="url(#arrow)"/>
    <text x="113.75" y="453" class="dim-sm">5.5</text>

    <!-- G1 to bottom edge: 6.0mm -->
    <line x1="115" y1="430" x2="115" y2="460" class="ext"/>
    <line x1="100" y1="460" x2="100" y2="470" class="ext"/>
    <!-- Use leader line instead to avoid congestion -->
    <line x1="127.5" y1="439.5" x2="140" y2="450" class="thin"/>
    <text x="142" y="453" class="dim-sm" text-anchor="start">6.0 from edge</text>

    <!-- Bore diameters: leader from B4 (placed outside plate rect) -->
    <line x1="310" y1="260" x2="430" y2="240" class="thin"/>
    <text x="432" y="237" class="dim-sm" text-anchor="start">15.5/9.8/6.5 dia</text>
    <text x="432" y="248" class="dim-sm" text-anchor="start">3-step bore (4x)</text>

    <!-- Guide bore diameter: leader from G4 -->
    <line x1="354" y1="210" x2="430" y2="210" class="thin"/>
    <text x="432" y="213" class="dim-sm" text-anchor="start">3.8 dia (4x)</text>

    <!-- Hook label: leader from left hook -->
    <line x1="82" y1="315" x2="62" y2="300" class="thin"/>
    <text x="60" y="297" class="dim-sm" text-anchor="end">Hook 4.3 ID</text>
    <text x="60" y="286" class="dim-sm" text-anchor="end">7.3 OD (2x)</text>

    <!-- Feature labels (placed clear of geometry) -->
    <text x="187.5" y="370" class="dim-sm">B1</text>
    <text x="287.5" y="370" class="dim-sm">B2</text>
    <text x="187.5" y="270" class="dim-sm">B3</text>
    <text x="287.5" y="270" class="dim-sm">B4</text>
    <text x="127.5" y="428" class="dim-sm">G1</text>
    <text x="347.5" y="428" class="dim-sm">G2</text>
    <text x="115" y="200" class="dim-sm">G3</text>
    <text x="347.5" y="200" class="dim-sm">G4</text>
  </g>

  <!-- ============================================================ -->
  <!-- SECTION A-A (cut at plate X=17.5, looking along +X)          -->
  <!-- Horizontal = plate Y (0..5), Vertical = plate Z (0..55)      -->
  <!-- Scale: 5 px/mm                                               -->
  <!-- sY(mm) = 530 + mm*5, sZ(mm) = 460 - mm*5                    -->
  <!-- ============================================================ -->

  <text x="547" y="95" class="label">SECTION A-A (at X=17.5)</text>
  <text x="547" y="110" class="dim-sm">Scale 5:1 | Looking along +X</text>

  <g id="section-aa">
    <!-- Plate outline: Y=0..5 (px 530..555), Z=0..55 (px 185..460) -->
    <rect x="530" y="185" width="25" height="275" class="section"/>

    <!-- Bore B1 at Z=17.5: cy=372.5 -->
    <!-- Through-hole 6.5mm: half=16.25px => 356.25 to 388.75 -->
    <rect x="530" y="356.25" width="25" height="32.5" fill="white" stroke="none"/>
    <line x1="530" y1="356.25" x2="555" y2="356.25" class="outline"/>
    <line x1="530" y1="388.75" x2="555" y2="388.75" class="outline"/>

    <!-- Step 1: 15.5mm, Y=0..1 (px 530..535): half=38.75px => 333.75 to 411.25 -->
    <rect x="530" y="333.75" width="5" height="77.5" fill="white" stroke="none"/>
    <line x1="530" y1="333.75" x2="535" y2="333.75" class="outline"/>
    <line x1="530" y1="411.25" x2="535" y2="411.25" class="outline"/>
    <line x1="535" y1="333.75" x2="535" y2="356.25" class="outline"/>
    <line x1="535" y1="388.75" x2="535" y2="411.25" class="outline"/>

    <!-- Step 2: 9.8mm, Y=1..3 (px 535..545): half=24.5px => 348 to 397 -->
    <rect x="535" y="348" width="10" height="49" fill="white" stroke="none"/>
    <line x1="535" y1="348" x2="545" y2="348" class="outline"/>
    <line x1="535" y1="397" x2="545" y2="397" class="outline"/>
    <line x1="545" y1="348" x2="545" y2="356.25" class="outline"/>
    <line x1="545" y1="388.75" x2="545" y2="397" class="outline"/>

    <!-- Bore B3 at Z=37.5: cy=272.5 -->
    <rect x="530" y="256.25" width="25" height="32.5" fill="white" stroke="none"/>
    <line x1="530" y1="256.25" x2="555" y2="256.25" class="outline"/>
    <line x1="530" y1="288.75" x2="555" y2="288.75" class="outline"/>

    <rect x="530" y="233.75" width="5" height="77.5" fill="white" stroke="none"/>
    <line x1="530" y1="233.75" x2="535" y2="233.75" class="outline"/>
    <line x1="530" y1="311.25" x2="535" y2="311.25" class="outline"/>
    <line x1="535" y1="233.75" x2="535" y2="256.25" class="outline"/>
    <line x1="535" y1="288.75" x2="535" y2="311.25" class="outline"/>

    <rect x="535" y="248" width="10" height="49" fill="white" stroke="none"/>
    <line x1="535" y1="248" x2="545" y2="248" class="outline"/>
    <line x1="535" y1="297" x2="545" y2="297" class="outline"/>
    <line x1="545" y1="248" x2="545" y2="256.25" class="outline"/>
    <line x1="545" y1="288.75" x2="545" y2="297" class="outline"/>

    <!-- Guide bore G1 at Z=6.0: cy=430 -->
    <rect x="530" y="420.5" width="25" height="19" fill="white" stroke="none"/>
    <line x1="530" y1="420.5" x2="555" y2="420.5" class="outline"/>
    <line x1="530" y1="439.5" x2="555" y2="439.5" class="outline"/>

    <!-- Guide bore G3 at Z=49.0: cy=215 -->
    <rect x="530" y="205.5" width="25" height="19" fill="white" stroke="none"/>
    <line x1="530" y1="205.5" x2="555" y2="205.5" class="outline"/>
    <line x1="530" y1="224.5" x2="555" y2="224.5" class="outline"/>

    <!-- Center lines -->
    <line x1="525" y1="372.5" x2="560" y2="372.5" class="center"/>
    <line x1="525" y1="272.5" x2="560" y2="272.5" class="center"/>
    <line x1="525" y1="430" x2="560" y2="430" class="center"/>
    <line x1="525" y1="215" x2="560" y2="215" class="center"/>

    <!-- Plate thickness: 5mm -->
    <line x1="530" y1="185" x2="530" y2="170" class="ext"/>
    <line x1="555" y1="185" x2="555" y2="170" class="ext"/>
    <line x1="530" y1="173" x2="555" y2="173" class="dimline" marker-start="url(#arrow-rev)" marker-end="url(#arrow)"/>
    <text x="542.5" y="168" class="dim">5.0</text>

    <!-- Y face labels (well above, no overlap) -->
    <text x="527" y="160" class="dim-sm" text-anchor="end">Y=0</text>
    <text x="558" y="160" class="dim-sm" text-anchor="start">Y=5</text>

    <!-- Feature labels to the right -->
    <text x="565" y="375" class="dim-sm" text-anchor="start">B1</text>
    <text x="565" y="275" class="dim-sm" text-anchor="start">B3</text>
    <text x="565" y="432" class="dim-sm" text-anchor="start">G1</text>
    <text x="565" y="218" class="dim-sm" text-anchor="start">G3</text>
  </g>

  <!-- ============================================================ -->
  <!-- DETAIL B: Single Stepped Bore Section (enlarged)             -->
  <!-- Section through bore axis along plate Y                      -->
  <!-- Scale: 16 px/mm                                              -->
  <!-- Bore center at svg_y = 360                                   -->
  <!-- dY(mm) = 680 + mm*16                                         -->
  <!-- Y=0 => 680, Y=1 => 696, Y=3 => 728, Y=5 => 760             -->
  <!-- ============================================================ -->

  <rect x="630" y="130" width="380" height="410" class="detail-frame"/>
  <text x="820" y="150" class="label">DETAIL B: Stepped Bore Section</text>
  <text x="820" y="165" class="dim-sm">Scale 16:1 (16 px/mm) | Section through bore axis</text>

  <g id="detail-bore">
    <!-- Material background. Show +/- 8mm from bore center = +/- 128px -->
    <!-- Bore center at svg_y=340. Material: 340-128=212 to 340+128=468 -->
    <!-- Y: px 680 to 760 (5mm * 16) -->
    <rect x="680" y="212" width="80" height="256" fill="#e0e0e0" stroke="none"/>

    <!-- Step 3: Through-hole 6.5mm, full Y. half=52px => 340-52=288 to 340+52=392 -->
    <rect x="680" y="288" width="80" height="104" fill="white" stroke="none"/>

    <!-- Step 1: 15.5mm, Y=0..1 (px 680..696). half=124px => 340-124=216 to 340+124=464 -->
    <rect x="680" y="216" width="16" height="248" fill="white" stroke="none"/>

    <!-- Step 2: 9.8mm, Y=1..3 (px 696..728). half=78.4px => 340-78.4=261.6 to 340+78.4=418.4 -->
    <rect x="696" y="261.6" width="32" height="156.8" fill="white" stroke="none"/>

    <!-- Hatching on material (sparse, avoiding label areas) -->
    <!-- Upper material block: Y=1..3, from top plate edge (212) to 9.8 bore edge (261.6) -->
    <line x1="700" y1="212" x2="696" y2="216" class="hatch"/>
    <line x1="708" y1="212" x2="696" y2="224" class="hatch"/>
    <line x1="716" y1="212" x2="696" y2="232" class="hatch"/>
    <line x1="724" y1="212" x2="696" y2="240" class="hatch"/>
    <line x1="728" y1="216" x2="696" y2="248" class="hatch"/>
    <line x1="728" y1="224" x2="696" y2="256" class="hatch"/>
    <line x1="728" y1="232" x2="700" y2="260" class="hatch"/>
    <line x1="728" y1="240" x2="708" y2="260" class="hatch"/>
    <line x1="728" y1="248" x2="716" y2="260" class="hatch"/>
    <line x1="728" y1="256" x2="724" y2="260" class="hatch"/>

    <!-- Upper material block: Y=3..5, from top (212) to 6.5 bore (288) -->
    <line x1="732" y1="212" x2="728" y2="216" class="hatch"/>
    <line x1="740" y1="212" x2="728" y2="224" class="hatch"/>
    <line x1="748" y1="212" x2="728" y2="232" class="hatch"/>
    <line x1="756" y1="212" x2="728" y2="240" class="hatch"/>
    <line x1="760" y1="216" x2="728" y2="248" class="hatch"/>
    <line x1="760" y1="224" x2="728" y2="256" class="hatch"/>
    <line x1="760" y1="232" x2="728" y2="264" class="hatch"/>
    <line x1="760" y1="240" x2="728" y2="272" class="hatch"/>
    <line x1="760" y1="248" x2="728" y2="280" class="hatch"/>
    <line x1="760" y1="256" x2="732" y2="284" class="hatch"/>
    <line x1="760" y1="264" x2="740" y2="284" class="hatch"/>
    <line x1="760" y1="272" x2="748" y2="284" class="hatch"/>
    <line x1="760" y1="280" x2="756" y2="284" class="hatch"/>

    <!-- Lower material: mirror of upper -->
    <!-- Y=1..3, from 418.4 to 468 -->
    <line x1="700" y1="468" x2="696" y2="464" class="hatch"/>
    <line x1="708" y1="468" x2="696" y2="456" class="hatch"/>
    <line x1="716" y1="468" x2="696" y2="448" class="hatch"/>
    <line x1="724" y1="468" x2="696" y2="440" class="hatch"/>
    <line x1="728" y1="464" x2="696" y2="432" class="hatch"/>
    <line x1="728" y1="456" x2="696" y2="424" class="hatch"/>
    <line x1="728" y1="448" x2="700" y2="420" class="hatch"/>
    <line x1="728" y1="440" x2="708" y2="420" class="hatch"/>
    <line x1="728" y1="432" x2="716" y2="420" class="hatch"/>
    <line x1="728" y1="424" x2="724" y2="420" class="hatch"/>

    <!-- Y=3..5, from 392 to 468 -->
    <line x1="732" y1="468" x2="728" y2="464" class="hatch"/>
    <line x1="740" y1="468" x2="728" y2="456" class="hatch"/>
    <line x1="748" y1="468" x2="728" y2="448" class="hatch"/>
    <line x1="756" y1="468" x2="728" y2="440" class="hatch"/>
    <line x1="760" y1="464" x2="728" y2="432" class="hatch"/>
    <line x1="760" y1="456" x2="728" y2="424" class="hatch"/>
    <line x1="760" y1="448" x2="728" y2="416" class="hatch"/>
    <line x1="760" y1="440" x2="728" y2="408" class="hatch"/>
    <line x1="760" y1="432" x2="728" y2="400" class="hatch"/>
    <line x1="760" y1="424" x2="732" y2="396" class="hatch"/>
    <line x1="760" y1="416" x2="740" y2="396" class="hatch"/>
    <line x1="760" y1="408" x2="748" y2="396" class="hatch"/>
    <line x1="760" y1="400" x2="756" y2="396" class="hatch"/>

    <!-- Profile lines -->
    <!-- Upper profile -->
    <line x1="680" y1="216" x2="696" y2="216" class="outline"/>
    <line x1="696" y1="216" x2="696" y2="261.6" class="outline"/>
    <line x1="696" y1="261.6" x2="728" y2="261.6" class="outline"/>
    <line x1="728" y1="261.6" x2="728" y2="288" class="outline"/>
    <line x1="728" y1="288" x2="760" y2="288" class="outline"/>
    <!-- Top plate edges -->
    <line x1="680" y1="212" x2="760" y2="212" class="outline"/>
    <line x1="680" y1="212" x2="680" y2="216" class="outline"/>
    <line x1="760" y1="212" x2="760" y2="288" class="outline"/>

    <!-- Lower profile -->
    <line x1="680" y1="464" x2="696" y2="464" class="outline"/>
    <line x1="696" y1="464" x2="696" y2="418.4" class="outline"/>
    <line x1="696" y1="418.4" x2="728" y2="418.4" class="outline"/>
    <line x1="728" y1="418.4" x2="728" y2="392" class="outline"/>
    <line x1="728" y1="392" x2="760" y2="392" class="outline"/>
    <!-- Bottom plate edges -->
    <line x1="680" y1="468" x2="760" y2="468" class="outline"/>
    <line x1="680" y1="464" x2="680" y2="468" class="outline"/>
    <line x1="760" y1="392" x2="760" y2="468" class="outline"/>

    <!-- Center line (bore axis) -->
    <line x1="670" y1="340" x2="770" y2="340" class="center"/>

    <!-- Dimension: 15.5mm diameter -->
    <line x1="675" y1="216" x2="650" y2="216" class="ext"/>
    <line x1="675" y1="464" x2="650" y2="464" class="ext"/>
    <line x1="655" y1="216" x2="655" y2="464" class="dimline" marker-start="url(#arrow-rev)" marker-end="url(#arrow)"/>
    <text x="645" y="344" class="dim" text-anchor="end">15.5</text>

    <!-- Dimension: 9.8mm leader -->
    <line x1="712" y1="261.6" x2="784" y2="230" class="thin"/>
    <text x="786" y="230" class="dim" text-anchor="start">9.8 dia</text>

    <!-- Dimension: 6.5mm leader -->
    <line x1="744" y1="288" x2="786" y2="260" class="thin"/>
    <text x="788" y="260" class="dim" text-anchor="start">6.5 dia (thru)</text>

    <!-- Y depth dimensions below the section -->
    <!-- Y=0 to Y=1 (px 680 to 696): 1.0mm -->
    <line x1="680" y1="475" x2="680" y2="490" class="ext"/>
    <line x1="696" y1="475" x2="696" y2="490" class="ext"/>
    <line x1="680" y1="487" x2="696" y2="487" class="dimline" marker-start="url(#arrow-rev)" marker-end="url(#arrow)"/>
    <text x="688" y="500" class="dim">1.0</text>

    <!-- Y=1 to Y=3 (px 696 to 728): 2.0mm -->
    <line x1="728" y1="475" x2="728" y2="505" class="ext"/>
    <line x1="696" y1="490" x2="696" y2="505" class="ext"/>
    <line x1="696" y1="502" x2="728" y2="502" class="dimline" marker-start="url(#arrow-rev)" marker-end="url(#arrow)"/>
    <text x="712" y="515" class="dim">2.0</text>

    <!-- Y=3 to Y=5 (px 728 to 760): 2.0mm -->
    <line x1="760" y1="475" x2="760" y2="520" class="ext"/>
    <line x1="728" y1="505" x2="728" y2="520" class="ext"/>
    <line x1="728" y1="517" x2="760" y2="517" class="dimline" marker-start="url(#arrow-rev)" marker-end="url(#arrow)"/>
    <text x="744" y="530" class="dim">2.0</text>

    <!-- Y face labels -->
    <text x="680" y="480" class="dim-sm" text-anchor="middle">Y=0</text>
    <text x="760" y="480" class="dim-sm" text-anchor="middle">Y=5</text>

    <!-- Chamfer callouts (placed well clear of hatching) -->
    <line x1="683" y1="216" x2="640" y2="195" class="thin"/>
    <text x="638" y="192" class="dim-sm" text-anchor="end">0.3x45° chamfer</text>

    <line x1="698" y1="263" x2="640" y2="243" class="thin"/>
    <text x="638" y="240" class="dim-sm" text-anchor="end">0.3x45° chamfer</text>
  </g>

  <!-- ============================================================ -->
  <!-- FRONT VIEW (looking along +Z, from below)                    -->
  <!-- Horizontal = plate X (0..55), Vertical = plate Y (0..5)      -->
  <!-- X scale: 5 px/mm, Y scale: 10 px/mm (stretched for clarity) -->
  <!-- vX(mm) = 100 + mm*5                                          -->
  <!-- vY(mm) = 590 + mm*10 (Y=0 at top, increases down)            -->
  <!-- ============================================================ -->

  <text x="237" y="540" class="label">FRONT VIEW (looking along +Z)</text>
  <text x="237" y="555" class="dim-sm">Scale: X 5:1, Y 10:1 (stretched)</text>

  <g id="front-view-bottom">
    <!-- Plate: X 0..55 (px 100..375), Y 0..5 (px 590..640) -->
    <rect x="100" y="590" width="275" height="50" class="outline"/>

    <!-- Bore hidden lines (through-hole 6.5mm only, largest visible step in this view) -->
    <!-- B1 at X=17.5: px=187.5. 6.5mm half=16.25px -->
    <line x1="171.25" y1="590" x2="171.25" y2="640" class="hidden"/>
    <line x1="203.75" y1="590" x2="203.75" y2="640" class="hidden"/>

    <!-- B2 at X=37.5: px=287.5 -->
    <line x1="271.25" y1="590" x2="271.25" y2="640" class="hidden"/>
    <line x1="303.75" y1="590" x2="303.75" y2="640" class="hidden"/>

    <!-- Guide bore G1 at X=5.5: px=127.5. 3.8mm half=9.5px -->
    <line x1="118" y1="590" x2="118" y2="640" class="hidden"/>
    <line x1="137" y1="590" x2="137" y2="640" class="hidden"/>

    <!-- Guide bore G2 at X=49.5: px=347.5 -->
    <line x1="338" y1="590" x2="338" y2="640" class="hidden"/>
    <line x1="357" y1="590" x2="357" y2="640" class="hidden"/>

    <!-- Center lines -->
    <line x1="187.5" y1="585" x2="187.5" y2="645" class="center"/>
    <line x1="287.5" y1="585" x2="287.5" y2="645" class="center"/>
    <line x1="127.5" y1="585" x2="127.5" y2="645" class="center"/>
    <line x1="347.5" y1="585" x2="347.5" y2="645" class="center"/>

    <!-- Hook profiles at left and right edges -->
    <!-- Left hook: Y span 1..4 => px 600..630. X extends to -3.65mm => px 81.75 -->
    <path d="M 100 600 L 81.75 600 L 81.75 630 L 100 630" class="outline"/>
    <path d="M 100 604 L 89.25 604 L 89.25 626 L 100 626" class="hidden"/>

    <!-- Right hook: X extends to 55+3.65mm => px 393.25 -->
    <path d="M 375 600 L 393.25 600 L 393.25 630 L 375 630" class="outline"/>
    <path d="M 375 604 L 385.75 604 L 385.75 626 L 375 626" class="hidden"/>

    <!-- Thickness dimension: 5.0mm -->
    <line x1="375" y1="590" x2="415" y2="590" class="ext"/>
    <line x1="375" y1="640" x2="415" y2="640" class="ext"/>
    <line x1="410" y1="590" x2="410" y2="640" class="dimline" marker-start="url(#arrow-rev)" marker-end="url(#arrow)"/>
    <text x="422" y="618" class="dim" text-anchor="start">5.0</text>

    <!-- Y axis labels -->
    <text x="95" y="588" class="dim-sm" text-anchor="end">Y=0 (user)</text>
    <text x="95" y="656" class="dim-sm" text-anchor="end">Y=5 (dock)</text>

    <!-- Hook dimension (leader from right hook to avoid left-side label crowding) -->
    <line x1="393" y1="628" x2="430" y2="655" class="thin"/>
    <text x="432" y="658" class="dim-sm" text-anchor="start">Hook 7.3 OD</text>
  </g>

  <!-- ============================================================ -->
  <!-- NOTES                                                        -->
  <!-- ============================================================ -->

  <g id="notes">
    <text x="100" y="700" class="note" font-weight="bold">NOTES:</text>
    <text x="100" y="715" class="note">1. Material: PETG. Print flat (55x55 face on build plate), 0.1mm layer height.</text>
    <text x="100" y="730" class="note">2. 4x stepped bores identical. Bore axes along plate Y (print Z for best circularity).</text>
    <text x="100" y="745" class="note">3. Critical: 6.5mm through-hole tolerance window 6.30-6.69mm (0.095mm engagement lip/side on collet).</text>
    <text x="100" y="760" class="note">4. All bore entry chamfers 0.3mm x 45 deg. Guide bores chamfered on both faces.</text>
    <text x="100" y="775" class="note">5. Guide post bores 3.8mm dia, 0.15mm clearance/side on 3.5mm posts (Sub-E).</text>
    <text x="100" y="790" class="note">6. Linkage hooks: C-shaped, 4.3mm ID for 4.0mm rod, 3.0mm snap opening, 1.5mm wall.</text>
    <text x="100" y="805" class="note">7. Test print single bore in 25x25x5mm block before full plate.</text>
    <text x="100" y="820" class="note">8. 1mm fillets on all 4 long edges (parallel to Y).</text>
  </g>

</svg>
