<svg xmlns="http://www.w3.org/2000/svg" viewBox="0 0 1800 1400" width="1800" height="1400" font-family="Arial, sans-serif" font-size="11" fill="black" stroke="black">

  <title>Sub-J Electrical Contact Pad Areas — Engineering Drawing</title>

  <defs>
    <marker id="arrow" markerWidth="8" markerHeight="6" refX="8" refY="3" orient="auto">
      <path d="M0,0 L8,3 L0,6 Z" fill="black"/>
    </marker>
    <marker id="arrow-rev" markerWidth="8" markerHeight="6" refX="0" refY="3" orient="auto">
      <path d="M8,0 L0,3 L8,6 Z" fill="black"/>
    </marker>
    <style>
      .dim { font-size: 10px; fill: black; text-anchor: middle; }
      .dim-small { font-size: 9px; fill: black; text-anchor: middle; }
      .label { font-size: 12px; fill: black; font-weight: bold; text-anchor: middle; }
      .note { font-size: 9px; fill: black; }
      .title-text { font-size: 16px; fill: black; font-weight: bold; }
      .subtitle { font-size: 12px; fill: black; }
      .hidden { stroke-dasharray: 3,2; stroke-width: 0.8; fill: none; }
      .center { stroke-dasharray: 12,3,3,3; stroke-width: 0.5; stroke: #555; fill: none; }
      .outline { stroke: black; stroke-width: 1.2; fill: none; }
      .thin { stroke: black; stroke-width: 0.6; fill: none; }
      .dimline { stroke: black; stroke-width: 0.5; fill: none; }
      .extline { stroke: black; stroke-width: 0.4; fill: none; }
      .section { stroke: black; stroke-width: 0.8; fill: #e8e8e8; }
      .detail-frame { stroke: black; stroke-width: 1.0; fill: white; }
      .slot-fill { stroke: black; stroke-width: 0.8; fill: #d0d0d0; }
      .channel-fill { stroke: black; stroke-width: 0.8; fill: #c8dcc8; }
    </style>
  </defs>

  <!-- Title Block -->
  <text x="900" y="30" class="title-text" text-anchor="middle">Sub-J Electrical Contact Pad Areas</text>
  <text x="900" y="48" class="subtitle" text-anchor="middle">Cartridge Tray Rear Wall + Floor Wire Routing — Third-Angle Orthographic Projection</text>
  <text x="900" y="64" class="note" text-anchor="middle">Material: PETG | All dimensions in mm | Scale noted per view</text>
  <line x1="100" y1="72" x2="1700" y2="72" stroke="black" stroke-width="0.5"/>

  <!-- ============================================================ -->
  <!-- FRONT VIEW (looking along -Y at rear wall exterior, Y=0 face) -->
  <!-- Horizontal = X (width, 0..160), Vertical = Z (height, 0..72) -->
  <!-- Scale: 4 px/mm -->
  <!-- fX(mm) = 60 + mm*4 -->
  <!-- fZ(mm) = 430 - mm*4 -->
  <!-- ============================================================ -->

  <g id="front-view">
    <text x="380" y="95" class="label">FRONT VIEW (looking along -Y, rear wall exterior)</text>
    <text x="380" y="112" class="dim-small">Scale: 4 px/mm</text>

    <!-- Rear wall outline: X=0..160, Z=0..72 -->
    <rect x="60" y="142" width="640" height="288" class="outline"/>

    <!-- T1 slot: center X=25, Z=18, 8.0w x 8.5h -->
    <rect x="144" y="341" width="32" height="34" class="slot-fill"/>
    <!-- T1 blade opening: 7.0w x 2.0h centered -->
    <rect x="146" y="354" width="28" height="8" fill="white" stroke="black" stroke-width="0.6"/>
    <text x="160" y="337" class="dim-small">T1</text>

    <!-- T2 slot: center X=25, Z=30, 8.0w x 8.5h -->
    <rect x="144" y="293" width="32" height="34" class="slot-fill"/>
    <!-- T2 blade opening -->
    <rect x="146" y="306" width="28" height="8" fill="white" stroke="black" stroke-width="0.6"/>
    <text x="160" y="289" class="dim-small">T2</text>

    <!-- T3 slot: center X=135, Z=18, 8.0w x 8.5h -->
    <rect x="584" y="341" width="32" height="34" class="slot-fill"/>
    <rect x="586" y="354" width="28" height="8" fill="white" stroke="black" stroke-width="0.6"/>
    <text x="600" y="337" class="dim-small">T3</text>

    <!-- T4 slot: center X=135, Z=34, 8.0w x 8.5h -->
    <rect x="584" y="277" width="32" height="34" class="slot-fill"/>
    <rect x="586" y="298" width="28" height="8" fill="white" stroke="black" stroke-width="0.6"/>
    <text x="600" y="273" class="dim-small">T4</text>

    <!-- T5 slot: center X=80, Z=8, 18.0w x 7.0h -->
    <rect x="344" y="384" width="72" height="28" class="slot-fill"/>
    <!-- T5 blade opening left: 5.5w x 1.5h -->
    <rect x="355" y="395" width="22" height="6" fill="white" stroke="black" stroke-width="0.6"/>
    <!-- T5 blade opening right -->
    <rect x="383" y="395" width="22" height="6" fill="white" stroke="black" stroke-width="0.6"/>
    <text x="380" y="380" class="dim-small">T5</text>

    <!-- Wire pass-through holes W1-W4 (dashed circles, behind wall) -->
    <circle cx="160" cy="358" r="6" class="hidden"/>
    <circle cx="160" cy="310" r="6" class="hidden"/>
    <circle cx="600" cy="358" r="6" class="hidden"/>
    <circle cx="600" cy="294" r="6" class="hidden"/>

    <!-- DIMENSIONS -->

    <!-- Overall width: 160mm -->
    <line x1="60" y1="430" x2="60" y2="450" class="extline"/>
    <line x1="700" y1="430" x2="700" y2="450" class="extline"/>
    <line x1="60" y1="446" x2="700" y2="446" class="dimline" marker-start="url(#arrow-rev)" marker-end="url(#arrow)"/>
    <text x="380" y="460" class="dim">160</text>

    <!-- Overall height: 72mm -->
    <line x1="700" y1="430" x2="720" y2="430" class="extline"/>
    <line x1="700" y1="142" x2="720" y2="142" class="extline"/>
    <line x1="716" y1="430" x2="716" y2="142" class="dimline" marker-start="url(#arrow-rev)" marker-end="url(#arrow)"/>
    <text x="735" y="290" class="dim">72</text>

    <!-- T1 X=25 from left edge -->
    <line x1="60" y1="382" x2="60" y2="390" class="extline"/>
    <line x1="160" y1="382" x2="160" y2="390" class="extline"/>
    <line x1="60" y1="386" x2="160" y2="386" class="dimline" marker-start="url(#arrow-rev)" marker-end="url(#arrow)"/>
    <text x="110" y="400" class="dim">25</text>

    <!-- T1 Z=18 from bottom (left side dimension, moved further left to avoid "25") -->
    <line x1="90" y1="430" x2="90" y2="440" class="extline"/>
    <line x1="90" y1="358" x2="90" y2="348" class="extline"/>
    <line x1="86" y1="430" x2="86" y2="358" class="dimline" marker-start="url(#arrow-rev)" marker-end="url(#arrow)"/>
    <text x="74" y="398" class="dim">18</text>

    <!-- T2 Z=30 from bottom -->
    <line x1="80" y1="310" x2="80" y2="300" class="extline"/>
    <line x1="78" y1="430" x2="78" y2="310" class="dimline" marker-start="url(#arrow-rev)" marker-end="url(#arrow)"/>
    <text x="66" y="374" class="dim">30</text>

    <!-- T3 X position from right edge: 25mm -->
    <line x1="600" y1="382" x2="600" y2="390" class="extline"/>
    <line x1="700" y1="382" x2="700" y2="390" class="extline"/>
    <line x1="600" y1="386" x2="700" y2="386" class="dimline" marker-start="url(#arrow-rev)" marker-end="url(#arrow)"/>
    <text x="650" y="400" class="dim">25</text>

    <!-- T4 Z=34 from bottom (right side) -->
    <line x1="670" y1="430" x2="670" y2="440" class="extline"/>
    <line x1="670" y1="294" x2="670" y2="284" class="extline"/>
    <line x1="674" y1="430" x2="674" y2="294" class="dimline" marker-start="url(#arrow-rev)" marker-end="url(#arrow)"/>
    <text x="690" y="366" class="dim">34</text>

    <!-- T5 X=80 from left -->
    <line x1="60" y1="416" x2="60" y2="422" class="extline"/>
    <line x1="380" y1="416" x2="380" y2="422" class="extline"/>
    <line x1="60" y1="419" x2="380" y2="419" class="dimline" marker-start="url(#arrow-rev)" marker-end="url(#arrow)"/>
    <text x="220" y="414" class="dim">80</text>

    <!-- T5 Z=8 from bottom -->
    <line x1="340" y1="430" x2="340" y2="438" class="extline"/>
    <line x1="340" y1="398" x2="340" y2="392" class="extline"/>
    <line x1="336" y1="430" x2="336" y2="398" class="dimline" marker-start="url(#arrow-rev)" marker-end="url(#arrow)"/>
    <text x="324" y="420" class="dim">8</text>

    <!-- T1-T2 spacing: 12mm c-c -->
    <line x1="180" y1="358" x2="196" y2="358" class="extline"/>
    <line x1="180" y1="310" x2="196" y2="310" class="extline"/>
    <line x1="192" y1="358" x2="192" y2="310" class="dimline" marker-start="url(#arrow-rev)" marker-end="url(#arrow)"/>
    <text x="210" y="338" class="dim">12</text>

    <!-- T3-T4 spacing: 16mm c-c -->
    <line x1="620" y1="358" x2="636" y2="358" class="extline"/>
    <line x1="620" y1="294" x2="636" y2="294" class="extline"/>
    <line x1="632" y1="358" x2="632" y2="294" class="dimline" marker-start="url(#arrow-rev)" marker-end="url(#arrow)"/>
    <text x="650" y="330" class="dim">16</text>
  </g>

  <!-- ============================================================ -->
  <!-- SIDE VIEW (looking along -X) -->
  <!-- Horizontal = Y (depth), Vertical = Z (height) -->
  <!-- Scale: 4 px/mm — showing Y=0..30 -->
  <!-- sY(mm) = 820 + mm*4 -->
  <!-- sZ(mm) = 430 - mm*4 -->
  <!-- ============================================================ -->

  <g id="side-view">
    <text x="920" y="95" class="label">SIDE VIEW (looking along -X)</text>
    <text x="920" y="112" class="dim-small">Scale: 4 px/mm — showing Y=0..30</text>

    <!-- Rear wall section: Y=0..8.5, Z=0..72 -->
    <rect x="820" y="142" width="34" height="288" class="section"/>

    <!-- Floor: Y=8.5..30, Z=0..3 -->
    <rect x="854" y="418" width="86" height="12" class="section"/>

    <!-- Interior body above floor: Y=8.5..30, Z=3..72 -->
    <rect x="854" y="142" width="86" height="276" class="outline"/>

    <!-- T1 retention slot: Y=0..3, Z=13.75..22.25 -->
    <rect x="820" y="341" width="12" height="34" fill="white" stroke="black" stroke-width="0.8"/>

    <!-- T2 retention slot: Y=0..3, Z=25.75..34.25 -->
    <rect x="820" y="293" width="12" height="34" fill="white" stroke="black" stroke-width="0.8"/>

    <!-- Wire pass-through W1: hole from Y=3..8.5 at Z=16.5..19.5 -->
    <line x1="832" y1="352" x2="854" y2="352" class="hidden"/>
    <line x1="832" y1="364" x2="854" y2="364" class="hidden"/>

    <!-- Wire pass-through W2: at Z=28.5..31.5 -->
    <line x1="832" y1="304" x2="854" y2="304" class="hidden"/>
    <line x1="832" y1="316" x2="854" y2="316" class="hidden"/>

    <!-- Wire channel in floor: Z=1..3, 2mm deep -->
    <rect x="856" y="418" width="84" height="8" fill="white" stroke="black" stroke-width="0.6"/>

    <!-- DIMENSIONS -->

    <!-- Wall thickness: 8.5mm -->
    <line x1="820" y1="430" x2="820" y2="450" class="extline"/>
    <line x1="854" y1="430" x2="854" y2="450" class="extline"/>
    <line x1="820" y1="446" x2="854" y2="446" class="dimline" marker-start="url(#arrow-rev)" marker-end="url(#arrow)"/>
    <text x="837" y="460" class="dim">8.5</text>

    <!-- Slot depth: 3.0mm -->
    <line x1="820" y1="341" x2="820" y2="331" class="extline"/>
    <line x1="832" y1="341" x2="832" y2="331" class="extline"/>
    <line x1="820" y1="335" x2="832" y2="335" class="dimline" marker-start="url(#arrow-rev)" marker-end="url(#arrow)"/>
    <text x="826" y="328" class="dim">3.0</text>

    <!-- Wall behind slot: 5.5mm -->
    <line x1="832" y1="285" x2="832" y2="275" class="extline"/>
    <line x1="854" y1="285" x2="854" y2="275" class="extline"/>
    <line x1="832" y1="279" x2="854" y2="279" class="dimline" marker-start="url(#arrow-rev)" marker-end="url(#arrow)"/>
    <text x="843" y="272" class="dim">5.5</text>

    <!-- Floor thickness: 3.0mm (extension lines start from floor rect at x=940) -->
    <line x1="940" y1="418" x2="954" y2="418" class="extline"/>
    <line x1="940" y1="430" x2="954" y2="430" class="extline"/>
    <line x1="950" y1="418" x2="950" y2="430" class="dimline" marker-start="url(#arrow-rev)" marker-end="url(#arrow)"/>
    <text x="966" y="416" class="dim">3.0</text>

    <!-- Channel depth: 2.0mm (bottom ext line extends to y=430 to touch floor) -->
    <line x1="954" y1="418" x2="968" y2="418" class="extline"/>
    <line x1="954" y1="430" x2="968" y2="430" class="extline"/>
    <line x1="964" y1="418" x2="964" y2="426" class="dimline" marker-start="url(#arrow-rev)" marker-end="url(#arrow)"/>
    <text x="980" y="432" class="dim">2.0</text>

    <!-- Hole annotation -->
    <text x="876" y="346" class="dim-small">W1 dia 3.0</text>

    <!-- Z=18 for T1 -->
    <line x1="810" y1="430" x2="810" y2="358" class="extline"/>
    <line x1="810" y1="358" x2="816" y2="358" class="extline"/>
    <line x1="806" y1="430" x2="806" y2="358" class="dimline" marker-start="url(#arrow-rev)" marker-end="url(#arrow)"/>
    <text x="794" y="398" class="dim">18</text>

    <!-- Z=30 for T2 -->
    <line x1="800" y1="430" x2="800" y2="310" class="extline"/>
    <line x1="800" y1="310" x2="816" y2="310" class="extline"/>
    <line x1="796" y1="430" x2="796" y2="310" class="dimline" marker-start="url(#arrow-rev)" marker-end="url(#arrow)"/>
    <text x="784" y="374" class="dim">30</text>
  </g>

  <!-- ============================================================ -->
  <!-- TOP VIEW (looking along -Z at floor) -->
  <!-- Horizontal = X (0..160), Vertical = Y (0=rear top..155=front bottom) -->
  <!-- Scale: 3 px/mm -->
  <!-- tX(mm) = 60 + mm*3 -->
  <!-- tY(mm) = 510 + mm*3 -->
  <!-- ============================================================ -->

  <g id="top-view">
    <text x="300" y="490" class="label">TOP VIEW (looking along -Z, floor plan)</text>
    <text x="300" y="505" class="dim-small">Scale: 3 px/mm</text>

    <!-- Tray outline: X=0..160, Y=0..155 -->
    <rect x="60" y="510" width="480" height="465" class="outline"/>

    <!-- Rear wall: Y=0..8.5 -->
    <rect x="60" y="510" width="480" height="26" class="section"/>

    <!-- Left wire channel: X=22..28, Y=9..124 -->
    <rect x="126" y="537" width="18" height="345" class="channel-fill"/>

    <!-- Right wire channel: X=132..138, Y=9..124 -->
    <rect x="456" y="537" width="18" height="345" class="channel-fill"/>

    <!-- Wire pass-through holes (hidden lines through rear wall) -->
    <line x1="135" y1="510" x2="135" y2="536" class="hidden"/>
    <line x1="465" y1="510" x2="465" y2="536" class="hidden"/>

    <!-- DIMENSIONS -->

    <!-- Left channel X=22 from left -->
    <line x1="60" y1="900" x2="60" y2="915" class="extline"/>
    <line x1="126" y1="900" x2="126" y2="915" class="extline"/>
    <line x1="60" y1="911" x2="126" y2="911" class="dimline" marker-start="url(#arrow-rev)" marker-end="url(#arrow)"/>
    <text x="93" y="925" class="dim">22</text>

    <!-- Left channel width: 6mm -->
    <line x1="126" y1="890" x2="126" y2="897" class="extline"/>
    <line x1="144" y1="890" x2="144" y2="897" class="extline"/>
    <line x1="126" y1="894" x2="144" y2="894" class="dimline" marker-start="url(#arrow-rev)" marker-end="url(#arrow)"/>
    <text x="135" y="888" class="dim">6</text>

    <!-- Channel Y start: 9mm from rear wall -->
    <line x1="150" y1="510" x2="160" y2="510" class="extline"/>
    <line x1="150" y1="537" x2="160" y2="537" class="extline"/>
    <line x1="156" y1="510" x2="156" y2="537" class="dimline" marker-start="url(#arrow-rev)" marker-end="url(#arrow)"/>
    <text x="172" y="527" class="dim">9</text>

    <!-- Channel length: 115mm -->
    <line x1="150" y1="537" x2="160" y2="537" class="extline"/>
    <line x1="150" y1="882" x2="160" y2="882" class="extline"/>
    <line x1="156" y1="537" x2="156" y2="882" class="dimline" marker-start="url(#arrow-rev)" marker-end="url(#arrow)"/>
    <text x="170" y="713" class="dim">115</text>

    <!-- Right channel: 28mm from right edge (160-132=28) -->
    <line x1="456" y1="900" x2="456" y2="915" class="extline"/>
    <line x1="540" y1="900" x2="540" y2="915" class="extline"/>
    <line x1="456" y1="911" x2="540" y2="911" class="dimline" marker-start="url(#arrow-rev)" marker-end="url(#arrow)"/>
    <text x="498" y="925" class="dim">28</text>

    <!-- Overall depth: 155mm -->
    <line x1="540" y1="510" x2="555" y2="510" class="extline"/>
    <line x1="540" y1="975" x2="555" y2="975" class="extline"/>
    <line x1="551" y1="510" x2="551" y2="975" class="dimline" marker-start="url(#arrow-rev)" marker-end="url(#arrow)"/>
    <text x="568" y="746" class="dim">155</text>

    <!-- Overall width: 160mm -->
    <line x1="60" y1="975" x2="60" y2="990" class="extline"/>
    <line x1="540" y1="975" x2="540" y2="990" class="extline"/>
    <line x1="60" y1="986" x2="540" y2="986" class="dimline" marker-start="url(#arrow-rev)" marker-end="url(#arrow)"/>
    <text x="300" y="1000" class="dim">160</text>

    <!-- Rear wall thickness: 8.5mm (extension lines touch outline at x=60) -->
    <line x1="58" y1="510" x2="58" y2="500" class="extline"/>
    <line x1="58" y1="536" x2="58" y2="546" class="extline"/>
    <line x1="58" y1="504" x2="58" y2="542" class="dimline" marker-start="url(#arrow-rev)" marker-end="url(#arrow)"/>
    <text x="44" y="527" class="dim">8.5</text>

    <!-- Channel labels -->
    <text x="135" y="720" class="dim-small" transform="rotate(-90,135,720)">Left wire channel</text>
    <text x="465" y="720" class="dim-small" transform="rotate(-90,465,720)">Right wire channel</text>
  </g>

  <!-- ============================================================ -->
  <!-- DETAIL A: T1 Slot (6.3mm type) — enlarged -->
  <!-- Scale: 10 px/mm -->
  <!-- ============================================================ -->

  <g id="detail-A">
    <rect x="620" y="480" width="300" height="260" class="detail-frame"/>
    <text x="770" y="498" class="label">DETAIL A: 6.3mm Terminal Slot (T1)</text>
    <text x="770" y="513" class="dim-small">Scale: 10 px/mm — Front view (looking -Y)</text>

    <!-- Slot outline: 8.0w x 8.5h => 80x85 px. Center at (770, 625) -->
    <rect x="730" y="583" width="80" height="85" class="slot-fill"/>

    <!-- Blade opening: 7.0w x 2.0h => 70x20 px centered -->
    <rect x="735" y="615" width="70" height="20" fill="white" stroke="black" stroke-width="0.8"/>

    <!-- Wire pass-through hole (behind, dashed circle, r=15px) -->
    <circle cx="770" cy="625" r="15" class="hidden"/>

    <!-- Dim: slot width 8.0mm -->
    <line x1="730" y1="583" x2="730" y2="570" class="extline"/>
    <line x1="810" y1="583" x2="810" y2="570" class="extline"/>
    <line x1="730" y1="574" x2="810" y2="574" class="dimline" marker-start="url(#arrow-rev)" marker-end="url(#arrow)"/>
    <text x="770" y="567" class="dim">8.0</text>

    <!-- Dim: slot height 8.5mm (right side) -->
    <line x1="810" y1="583" x2="826" y2="583" class="extline"/>
    <line x1="810" y1="668" x2="826" y2="668" class="extline"/>
    <line x1="822" y1="583" x2="822" y2="668" class="dimline" marker-start="url(#arrow-rev)" marker-end="url(#arrow)"/>
    <text x="840" y="630" class="dim">8.5</text>

    <!-- Dim: blade opening width 7.0mm -->
    <line x1="735" y1="635" x2="735" y2="650" class="extline"/>
    <line x1="805" y1="635" x2="805" y2="650" class="extline"/>
    <line x1="735" y1="646" x2="805" y2="646" class="dimline" marker-start="url(#arrow-rev)" marker-end="url(#arrow)"/>
    <text x="770" y="660" class="dim">7.0</text>

    <!-- Dim: blade opening height 2.0mm (moved further right to avoid 8.5) -->
    <line x1="808" y1="615" x2="855" y2="615" class="extline"/>
    <line x1="808" y1="635" x2="855" y2="635" class="extline"/>
    <line x1="851" y1="615" x2="851" y2="635" class="dimline" marker-start="url(#arrow-rev)" marker-end="url(#arrow)"/>
    <text x="870" y="629" class="dim">2.0</text>

    <!-- Hole dia callout -->
    <line x1="770" y1="625" x2="795" y2="545" class="dimline"/>
    <text x="800" y="542" class="dim-small">dia 3.0</text>

    <!-- Side wall thickness: 0.5mm -->
    <line x1="730" y1="625" x2="735" y2="625" class="dimline"/>
    <text x="722" y="625" class="dim-small" text-anchor="end">0.5</text>
  </g>

  <!-- ============================================================ -->
  <!-- DETAIL B: T5 Slot (4.8mm 2-pin type) — enlarged -->
  <!-- Scale: 10 px/mm -->
  <!-- ============================================================ -->

  <g id="detail-B">
    <rect x="940" y="480" width="370" height="260" class="detail-frame"/>
    <text x="1125" y="498" class="label">DETAIL B: 4.8mm 2-Pin Slot (T5)</text>
    <text x="1125" y="513" class="dim-small">Scale: 10 px/mm — Front view (looking -Y)</text>

    <!-- Slot outline: 18.0w x 7.0h => 180x70 px, center (1125,620) -->
    <rect x="1035" y="585" width="180" height="70" class="slot-fill"/>

    <!-- Left blade opening: 5.5w x 1.5h => 55x15 px, center (1090,620) -->
    <rect x="1063" y="613" width="55" height="15" fill="white" stroke="black" stroke-width="0.8"/>

    <!-- Right blade opening: center (1160,620) -->
    <rect x="1133" y="613" width="55" height="15" fill="white" stroke="black" stroke-width="0.8"/>

    <!-- Jumper wire arc -->
    <path d="M 1090,640 Q 1125,660 1160,640" fill="none" stroke="#666" stroke-width="1" stroke-dasharray="4,2"/>
    <text x="1125" y="672" class="dim-small">jumper wire</text>

    <!-- Dim: slot width 18.0mm -->
    <line x1="1035" y1="585" x2="1035" y2="572" class="extline"/>
    <line x1="1215" y1="585" x2="1215" y2="572" class="extline"/>
    <line x1="1035" y1="576" x2="1215" y2="576" class="dimline" marker-start="url(#arrow-rev)" marker-end="url(#arrow)"/>
    <text x="1125" y="570" class="dim">18.0</text>

    <!-- Dim: slot height 7.0mm -->
    <line x1="1215" y1="585" x2="1231" y2="585" class="extline"/>
    <line x1="1215" y1="655" x2="1231" y2="655" class="extline"/>
    <line x1="1227" y1="585" x2="1227" y2="655" class="dimline" marker-start="url(#arrow-rev)" marker-end="url(#arrow)"/>
    <text x="1245" y="625" class="dim">7.0</text>

    <!-- Dim: blade opening width 5.5mm -->
    <line x1="1063" y1="628" x2="1063" y2="645" class="extline"/>
    <line x1="1118" y1="628" x2="1118" y2="645" class="extline"/>
    <line x1="1063" y1="641" x2="1118" y2="641" class="dimline" marker-start="url(#arrow-rev)" marker-end="url(#arrow)"/>
    <text x="1091" y="655" class="dim">5.5</text>

    <!-- Dim: blade opening height 1.5mm -->
    <line x1="1120" y1="613" x2="1130" y2="603" class="extline"/>
    <line x1="1120" y1="628" x2="1130" y2="638" class="extline"/>
    <line x1="1128" y1="603" x2="1128" y2="638" class="dimline" marker-start="url(#arrow-rev)" marker-end="url(#arrow)"/>
    <text x="1140" y="622" class="dim">1.5</text>

    <!-- Dim: center-to-center 7.0mm -->
    <line x1="1090" y1="585" x2="1090" y2="530" class="extline"/>
    <line x1="1160" y1="585" x2="1160" y2="530" class="extline"/>
    <line x1="1090" y1="534" x2="1160" y2="534" class="dimline" marker-start="url(#arrow-rev)" marker-end="url(#arrow)"/>
    <text x="1125" y="528" class="dim">7.0 c-c</text>

    <!-- Wall between openings: 1.5mm -->
    <text x="1125" y="608" class="dim-small">1.5</text>
  </g>

  <!-- ============================================================ -->
  <!-- DETAIL C: Side cross-section through rear wall at T1 -->
  <!-- Scale: 10 px/mm -->
  <!-- Wall cross-section: Y horizontal, Z vertical -->
  <!-- cY(mm) = 660 + mm*10, cZ(mm) = 920 - mm*10 -->
  <!-- Showing Z=13..23, Y=0..10 -->
  <!-- ============================================================ -->

  <g id="detail-C">
    <rect x="620" y="770" width="340" height="250" class="detail-frame"/>
    <text x="790" y="788" class="label">DETAIL C: Rear Wall Section at T1</text>
    <text x="790" y="803" class="dim-small">Scale: 10 px/mm — Section cut at X=25</text>

    <!-- Wall body: Y=0..8.5 => x=660..745, Z=13..23 => y=820..920 -->
    <rect x="660" y="820" width="85" height="100" class="section"/>

    <!-- Slot cutout: Y=0..3 => x=660..690, Z=13.75..22.25 => y=827.5..862.5 -->
    <rect x="660" y="828" width="30" height="35" fill="white" stroke="black" stroke-width="0.8"/>

    <!-- Wire pass-through hole (hidden): Y=3..8.5 at Z=16.5..19.5 -->
    <!-- y for Z=19.5 = 920-19.5*10=725 => no, that's wrong with this origin -->
    <!-- cZ(mm) = 920 - mm*10. cZ(19.5) = 920-195=725. But Z=13..23 maps to y=820..920 -->
    <!-- Actually: cZ(23)=920-230=690, cZ(13)=920-130=790. Hmm, my rect is at y=820 which is wrong -->
    <!-- Let me use a simpler approach: place wall at fixed pixel positions -->
    <!-- Wall top at y=820, bottom at y=920. Top=Z=23, bottom=Z=13 -->
    <!-- Slot: top at y=820 + (23-22.25)*10 = 827.5, height=(22.25-13.75)*10=85 -->
    <!-- Wait that gives h=85 but I drew h=35 above. Let me recalculate. -->
    <!-- Z range shown: 13..23 = 10mm = 100px -->
    <!-- Z=23 is at y=820, Z=13 is at y=920 -->
    <!-- T1 slot Z: 13.75..22.25 (8.5mm tall) -->
    <!-- y for Z=22.25 = 820 + (23-22.25)*10 = 820+7.5 = 827.5 -->
    <!-- y for Z=13.75 = 820 + (23-13.75)*10 = 820+92.5 = 912.5 -->
    <!-- height = 912.5-827.5 = 85px. So the slot is almost the full height. -->

    <!-- Hole: Z=16.5..19.5 (3mm dia centered at Z=18) -->
    <!-- y for Z=19.5 = 820 + (23-19.5)*10 = 820+35 = 855 -->
    <!-- y for Z=16.5 = 820 + (23-16.5)*10 = 820+65 = 885 -->
    <!-- Hole runs from Y=3..8.5 => x=690..745 -->
    <line x1="690" y1="855" x2="745" y2="855" class="hidden"/>
    <line x1="690" y1="885" x2="745" y2="885" class="hidden"/>

    <!-- Blade entering from exterior (Y<0 direction) -->
    <line x1="640" y1="867" x2="660" y2="867" stroke="#999" stroke-width="1.5" marker-end="url(#arrow)"/>
    <line x1="640" y1="873" x2="660" y2="873" stroke="#999" stroke-width="1.5"/>
    <text x="625" y="888" class="dim-small">blade</text>

    <!-- Labels -->
    <text x="650" y="818" class="dim-small">ext.</text>
    <text x="755" y="870" class="dim-small">int.</text>

    <!-- Dim: slot depth 3.0mm (x=660..690) -->
    <line x1="660" y1="920" x2="660" y2="935" class="extline"/>
    <line x1="690" y1="920" x2="690" y2="935" class="extline"/>
    <line x1="660" y1="931" x2="690" y2="931" class="dimline" marker-start="url(#arrow-rev)" marker-end="url(#arrow)"/>
    <text x="675" y="946" class="dim">3.0</text>

    <!-- Dim: wall behind 5.5mm (x=690..745) -->
    <line x1="690" y1="920" x2="690" y2="935" class="extline"/>
    <line x1="745" y1="920" x2="745" y2="935" class="extline"/>
    <line x1="690" y1="931" x2="745" y2="931" class="dimline" marker-start="url(#arrow-rev)" marker-end="url(#arrow)"/>
    <text x="718" y="946" class="dim">5.5</text>

    <!-- Dim: total wall 8.5mm -->
    <line x1="660" y1="945" x2="660" y2="955" class="extline"/>
    <line x1="745" y1="945" x2="745" y2="955" class="extline"/>
    <line x1="660" y1="951" x2="745" y2="951" class="dimline" marker-start="url(#arrow-rev)" marker-end="url(#arrow)"/>
    <text x="703" y="966" class="dim">8.5</text>

    <!-- Dim: slot height 8.5mm -->
    <line x1="655" y1="828" x2="645" y2="828" class="extline"/>
    <line x1="655" y1="913" x2="645" y2="913" class="extline"/>
    <line x1="649" y1="828" x2="649" y2="913" class="dimline" marker-start="url(#arrow-rev)" marker-end="url(#arrow)"/>
    <text x="635" y="874" class="dim">8.5</text>

    <!-- Hole annotation -->
    <text x="760" y="848" class="dim-small">W1 dia 3.0</text>
  </g>

  <!-- ============================================================ -->
  <!-- NOTES -->
  <!-- ============================================================ -->

  <g id="notes">
    <text x="1000" y="820" class="note" font-weight="bold">NOTES:</text>
    <text x="1000" y="837" class="note">1. All terminal retention slots are friction-fit (no latches).</text>
    <text x="1000" y="852" class="note">2. T1-T4: 6.3mm female insulated spade terminals.</text>
    <text x="1000" y="867" class="note">3. T5: 4.8mm 2-pin housing with jumper wire.</text>
    <text x="1000" y="882" class="note">4. Wire channels (green) recessed 2mm below Z=3 floor.</text>
    <text x="1000" y="897" class="note">5. Keying: T1/T2 spacing=12mm, T3/T4 spacing=16mm.</text>
    <text x="1000" y="912" class="note">6. Blade width keying: 6.3mm (motors) vs 4.8mm (jumper).</text>
    <text x="1000" y="927" class="note">7. 0.5mm slot side walls (6.3mm type) below FDM minimum</text>
    <text x="1000" y="942" class="note">   — may require test print verification.</text>
    <text x="1000" y="962" class="note" font-weight="bold">ASSEMBLY:</text>
    <text x="1000" y="979" class="note">Wire from pump motor tabs, through floor channels,</text>
    <text x="1000" y="994" class="note">through rear wall pass-throughs, crimp terminals</text>
    <text x="1000" y="1009" class="note">seat in retention slots on exterior face.</text>
  </g>

</svg>