<svg xmlns="http://www.w3.org/2000/svg" viewBox="0 0 1200 1080" width="1200" height="1080" font-family="Arial, Helvetica, sans-serif">
  <title>Front Panel - Engineering Drawing (Display-Module-Aware)</title>
  <desc>
    Three-view orthographic projection of the front panel with display module phantoms.
    Coordinate system: X=width (0-220mm), Y=depth (0-4mm base, 0-9mm at docks), Z=height (0-400mm).
    Origin at exterior front-bottom-left.
    Front view (looking along -Y): X horizontal, Z vertical.
    Side view (looking along -X): Y horizontal, Z vertical.
    Top view (looking along -Z): X horizontal, Y vertical.
  </desc>

  <style>
    .outline     { fill: none; stroke: #000; stroke-width: 1.5; }
    .outline-thin{ fill: none; stroke: #000; stroke-width: 0.75; }
    .hidden      { fill: none; stroke: #000; stroke-width: 0.75; stroke-dasharray: 6,3; }
    .hidden-thin { fill: none; stroke: #000; stroke-width: 0.5; stroke-dasharray: 2,2; }
    .center      { fill: none; stroke: #000; stroke-width: 0.4; stroke-dasharray: 12,3,3,3; }
    .phantom     { fill: none; stroke: #0055cc; stroke-width: 0.8; stroke-dasharray: 2,2; }
    .phantom-thin{ fill: none; stroke: #0055cc; stroke-width: 0.5; stroke-dasharray: 2,2; }
    .dim         { fill: none; stroke: #333; stroke-width: 0.6; }
    .ext         { fill: none; stroke: #333; stroke-width: 0.4; }
    .dim-text    { font-size: 10px; fill: #333; text-anchor: middle; }
    .dim-sm      { font-size: 9px; fill: #333; text-anchor: middle; }
    .label       { font-size: 10px; fill: #333; text-anchor: middle; }
    .viewlbl     { font-size: 12px; font-weight: bold; fill: #000; text-anchor: middle; }
    .note        { font-size: 9px; fill: #555; }
    .title-text  { font-size: 15px; fill: #000; font-weight: bold; text-anchor: middle; }
    .subtitle    { font-size: 10px; fill: #555; text-anchor: middle; }
    .detail-circ { fill: none; stroke: #666; stroke-width: 0.6; stroke-dasharray: 4,2; }
    .fill-light  { fill: #f0f0f0; stroke: none; }
    .fill-recess { fill: #e8e8e8; stroke: none; }
    .phant-label { font-size: 8px; fill: #0055cc; text-anchor: middle; }
  </style>

  <defs>
    <marker id="arrow" viewBox="0 0 10 10" refX="10" refY="5"
            markerWidth="6" markerHeight="6" orient="auto-start-reverse">
      <path d="M 0 0 L 10 5 L 0 10 z" fill="#333"/>
    </marker>
  </defs>

  <!-- ============================================================ -->
  <!-- TITLE BLOCK                                                   -->
  <!-- ============================================================ -->
  <text x="600" y="24" class="title-text">Front Panel — Engineering Drawing</text>
  <text x="600" y="40" class="subtitle">Material: ABS/ASA (3D printed) | Envelope: 220W x 4D x 400H mm | All dimensions in mm</text>
  <line x1="30" y1="48" x2="1170" y2="48" stroke="#000" stroke-width="1"/>

  <!-- ============================================================ -->
  <!-- FRONT VIEW  Looking along -Y (exterior face)                 -->
  <!-- Scale 1.35 px/mm                                             -->
  <!-- px_x = 60 + X*1.35    px_y = 610 - Z*1.35                   -->
  <!-- Panel: (60,70) top-left to (357,610) bottom-right            -->
  <!-- ============================================================ -->
  <g id="front-view">
    <text x="208" y="62" class="viewlbl">FRONT VIEW</text>

    <!-- Panel body fill -->
    <path d="M 60,70 L 357,70 L 357,610 L 315.15,610 L 315.15,496.6
             L 308.4,489.85 L 108.6,489.85 L 101.85,496.6 L 101.85,610
             L 60,610 Z" class="fill-light"/>
    <!-- Panel body outline -->
    <path d="M 60,70 L 357,70 L 357,610 L 315.15,610 L 315.15,496.6
             L 308.4,489.85 L 108.6,489.85 L 101.85,496.6 L 101.85,610
             L 60,610 Z" class="outline"/>

    <!-- Hidden lines: inner slot edges at interior face (148x84) -->
    <line x1="108.6" y1="496.6" x2="108.6" y2="610" class="hidden-thin"/>
    <line x1="308.4" y1="496.6" x2="308.4" y2="610" class="hidden-thin"/>
    <line x1="108.6" y1="496.6" x2="308.4" y2="496.6" class="hidden-thin"/>

    <!-- Slot centerline -->
    <line x1="208.5" y1="480" x2="208.5" y2="618" class="center"/>

    <!-- ======== DOCK RECESS 1 (LEFT, RP2040) ======== -->
    <!-- Center X=55 Z=275. px: cx=134.25, cy=238.75, r=33.75 -->
    <circle cx="134.25" cy="238.75" r="33.75" class="fill-recess"/>
    <circle cx="134.25" cy="238.75" r="33.75" class="outline"/>
    <!-- Center marks -->
    <line x1="134.25" y1="196" x2="134.25" y2="281" class="center"/>
    <line x1="91.5" y1="238.75" x2="177" y2="238.75" class="center"/>
    <!-- Cable exit hole: 8mm dia, r=4mm=5.4px -->
    <circle cx="134.25" cy="238.75" r="5.4" class="outline-thin"/>

    <!-- RP2040 phantom: 33mm dia => r=16.5mm=22.275px -->
    <circle cx="134.25" cy="238.75" r="22.275" class="phantom"/>
    <!-- RP2040 visible display: 25mm dia => r=12.5mm=16.875px -->
    <circle cx="134.25" cy="238.75" r="16.875" class="phantom-thin"/>

    <!-- ======== DOCK RECESS 2 (RIGHT, S3) ======== -->
    <!-- Center X=157 Z=275. px: cx=271.95, cy=238.75, r=33.75 -->
    <circle cx="271.95" cy="238.75" r="33.75" class="fill-recess"/>
    <circle cx="271.95" cy="238.75" r="33.75" class="outline"/>
    <!-- Center marks -->
    <line x1="271.95" y1="196" x2="271.95" y2="281" class="center"/>
    <line x1="229.2" y1="238.75" x2="314.7" y2="238.75" class="center"/>
    <!-- Cable exit hole -->
    <circle cx="271.95" cy="238.75" r="5.4" class="outline-thin"/>

    <!-- S3 phantom: 48x48mm => 64.8x64.8px, centered -->
    <rect x="239.55" y="206.35" width="64.8" height="64.8" rx="4" ry="4" class="phantom"/>
    <!-- S3 knob ring phantom: ~44mm dia => r=22mm=29.7px -->
    <circle cx="271.95" cy="238.75" r="29.7" class="phantom-thin"/>
    <!-- S3 display visible area: 32.4mm dia => r=16.2mm=21.87px -->
    <circle cx="271.95" cy="238.75" r="21.87" class="phantom"/>

    <!-- ======== LED WINDOW ======== -->
    <!-- 6x6mm at X=110 Z=90 => px: (208.5, 488.5), 6mm=8.1px -->
    <rect x="204.45" y="484.45" width="8.1" height="8.1" class="outline-thin"/>

    <!-- ======== FRONT VIEW DIMENSIONS ======== -->

    <!-- Overall width: 220mm -->
    <line x1="60" y1="65" x2="60" y2="55" class="ext"/>
    <line x1="357" y1="65" x2="357" y2="55" class="ext"/>
    <line x1="60" y1="58" x2="357" y2="58" class="dim" marker-start="url(#arrow)" marker-end="url(#arrow)"/>
    <text x="208.5" y="54" class="dim-text">220</text>

    <!-- Overall height: 400mm (right side) -->
    <line x1="362" y1="70" x2="377" y2="70" class="ext"/>
    <line x1="362" y1="610" x2="377" y2="610" class="ext"/>
    <line x1="372" y1="70" x2="372" y2="610" class="dim" marker-start="url(#arrow)" marker-end="url(#arrow)"/>
    <text x="390" y="344" class="dim-text" transform="rotate(-90,390,344)">400</text>

    <!-- Slot inner width: 148mm -->
    <line x1="108.6" y1="616" x2="108.6" y2="630" class="ext"/>
    <line x1="308.4" y1="616" x2="308.4" y2="630" class="ext"/>
    <line x1="108.6" y1="625" x2="308.4" y2="625" class="dim" marker-start="url(#arrow)" marker-end="url(#arrow)"/>
    <text x="208.5" y="622" class="dim-text">148</text>

    <!-- Slot height: 84mm (left side) -->
    <line x1="96" y1="496.6" x2="103" y2="496.6" class="ext"/>
    <line x1="96" y1="610" x2="103" y2="610" class="ext"/>
    <line x1="99" y1="496.6" x2="99" y2="610" class="dim" marker-start="url(#arrow)" marker-end="url(#arrow)"/>
    <text x="86" y="557" class="dim-text" transform="rotate(-90,86,557)">84</text>

    <!-- Left margin: 36mm -->
    <line x1="60" y1="636" x2="60" y2="646" class="ext"/>
    <line x1="108.6" y1="636" x2="108.6" y2="646" class="ext"/>
    <line x1="60" y1="641" x2="108.6" y2="641" class="dim" marker-start="url(#arrow)" marker-end="url(#arrow)"/>
    <text x="84.3" y="653" class="dim-text">36</text>

    <!-- Chamfer callout -->
    <line x1="101.85" y1="496.6" x2="82" y2="477" class="ext"/>
    <text x="72" y="474" class="dim-sm" text-anchor="end">5mm chamfer</text>

    <!-- Dock 1 center X=55 from left edge -->
    <line x1="60" y1="198" x2="60" y2="188" class="ext"/>
    <line x1="134.25" y1="198" x2="134.25" y2="188" class="ext"/>
    <line x1="60" y1="192" x2="134.25" y2="192" class="dim" marker-start="url(#arrow)" marker-end="url(#arrow)"/>
    <text x="97" y="186" class="dim-text">55</text>

    <!-- Dock center-to-center: 102mm -->
    <line x1="271.95" y1="198" x2="271.95" y2="183" class="ext"/>
    <line x1="134.25" y1="183" x2="271.95" y2="183" class="dim" marker-start="url(#arrow)" marker-end="url(#arrow)"/>
    <text x="203" y="179" class="dim-text">102</text>

    <!-- Dock Z from bottom: 275mm -->
    <line x1="402" y1="238.75" x2="418" y2="238.75" class="ext"/>
    <line x1="402" y1="610" x2="418" y2="610" class="ext"/>
    <line x1="412" y1="238.75" x2="412" y2="610" class="dim" marker-start="url(#arrow)" marker-end="url(#arrow)"/>
    <text x="430" y="428" class="dim-text" transform="rotate(-90,430,428)">275</text>

    <!-- Recess diameter labels -->
    <text x="134.25" y="284" class="dim-sm">&#x2300;50</text>
    <text x="271.95" y="284" class="dim-sm">&#x2300;50</text>

    <!-- Cable hole label -->
    <text x="170" y="250" class="dim-sm">&#x2300;8</text>

    <!-- Feature labels -->
    <text x="134.25" y="299" class="label">RP2040</text>
    <text x="134.25" y="310" class="label">DOCK</text>
    <text x="271.95" y="299" class="label">S3</text>
    <text x="271.95" y="310" class="label">DOCK</text>

    <!-- Phantom labels (positioned outside recess to avoid overlap) -->
    <text x="134.25" y="213" class="phant-label">33mm module</text>
    <text x="134.25" y="265" class="phant-label">25mm display</text>
    <text x="271.95" y="198" class="phant-label">48x48 module</text>
    <text x="318" y="250" class="phant-label" text-anchor="start">32.4mm display</text>
    <text x="318" y="260" class="phant-label" text-anchor="start">knob ring</text>

    <!-- LED label -->
    <text x="225" y="492" class="label">LED 6x6</text>

    <!-- Slot label -->
    <text x="208.5" y="555" class="label">CARTRIDGE SLOT</text>

    <!-- Phantom legend -->
    <line x1="60" y1="325" x2="80" y2="325" class="phantom"/>
    <text x="84" y="328" class="note" text-anchor="start">Display module phantom</text>
  </g>

  <!-- ============================================================ -->
  <!-- SIDE VIEW  Looking along -X                                  -->
  <!-- Y scale: 8 px/mm, Z scale: 1.35 px/mm                      -->
  <!-- px_x = 480 + Y*8    px_y = 610 - Z*1.35                     -->
  <!-- ============================================================ -->
  <g id="side-view">
    <text x="510" y="62" class="viewlbl">SIDE VIEW</text>
    <text x="510" y="74" class="note" text-anchor="middle">Looking along -X | Y: 8px/mm, Z: 1.35px/mm</text>

    <!-- Base panel: Y=0..4, Z=0..400 -->
    <rect x="480" y="70" width="32" height="540" class="fill-light"/>
    <rect x="480" y="70" width="32" height="540" class="outline"/>

    <!-- Dock boss protrusion: Y=4..9, Z=250..300 -->
    <rect x="512" y="205" width="40" height="67.5" class="fill-light"/>
    <rect x="512" y="205" width="40" height="67.5" class="outline"/>

    <!-- Chamfered slot profile -->
    <path d="M 480,610 L 480,489.85 L 512,496.6 L 512,610" fill="white" stroke="#000" stroke-width="1.5"/>

    <!-- Interior slot top hidden line Z=84 -->
    <line x1="480" y1="496.6" x2="512" y2="496.6" class="hidden-thin"/>

    <!-- Dock recess hidden lines: Z=250..300 -->
    <line x1="480" y1="205" x2="512" y2="205" class="hidden"/>
    <line x1="480" y1="272.5" x2="512" y2="272.5" class="hidden"/>

    <!-- Recess floor at Y=5mm => px=520 -->
    <line x1="520" y1="205" x2="520" y2="272.5" class="hidden"/>

    <!-- Cable exit hole: 8mm tall -->
    <line x1="480" y1="233.35" x2="552" y2="233.35" class="hidden-thin"/>
    <line x1="480" y1="244.15" x2="552" y2="244.15" class="hidden-thin"/>

    <!-- LED window hidden: Z=87..93 -->
    <line x1="480" y1="484.45" x2="512" y2="484.45" class="hidden-thin"/>
    <line x1="480" y1="492.55" x2="512" y2="492.55" class="hidden-thin"/>

    <!-- Side view dimensions -->

    <!-- Base panel depth: 4mm -->
    <line x1="480" y1="65" x2="480" y2="55" class="ext"/>
    <line x1="512" y1="65" x2="512" y2="55" class="ext"/>
    <line x1="480" y1="58" x2="512" y2="58" class="dim" marker-start="url(#arrow)" marker-end="url(#arrow)"/>
    <text x="496" y="52" class="dim-text">4</text>

    <!-- Dock boss total depth: 9mm -->
    <line x1="480" y1="198" x2="480" y2="188" class="ext"/>
    <line x1="552" y1="198" x2="552" y2="188" class="ext"/>
    <line x1="480" y1="192" x2="552" y2="192" class="dim" marker-start="url(#arrow)" marker-end="url(#arrow)"/>
    <text x="516" y="186" class="dim-text">9</text>

    <!-- Recess depth: 5mm -->
    <line x1="480" y1="278" x2="480" y2="290" class="ext"/>
    <line x1="520" y1="278" x2="520" y2="290" class="ext"/>
    <line x1="480" y1="285" x2="520" y2="285" class="dim" marker-start="url(#arrow)" marker-end="url(#arrow)"/>
    <text x="500" y="298" class="dim-sm">5</text>

    <!-- Chamfer dim: 5mm -->
    <line x1="474" y1="489.85" x2="468" y2="489.85" class="ext"/>
    <line x1="474" y1="496.6" x2="468" y2="496.6" class="ext"/>
    <line x1="471" y1="489.85" x2="471" y2="496.6" class="dim" marker-start="url(#arrow)" marker-end="url(#arrow)"/>
    <text x="460" y="495" class="dim-sm" text-anchor="end">5</text>

    <!-- Dock boss label -->
    <text x="536" y="243" class="note" text-anchor="middle">BOSS</text>
  </g>

  <!-- ============================================================ -->
  <!-- TOP VIEW  Looking along -Z (from above)                     -->
  <!-- px_x = 60 + X*1.35    px_y = 690 + Y*8                     -->
  <!-- ============================================================ -->
  <g id="top-view">
    <text x="208" y="678" class="viewlbl">TOP VIEW</text>

    <!-- Base panel body -->
    <rect x="60" y="696" width="297" height="32" class="fill-light"/>
    <rect x="60" y="696" width="297" height="32" class="outline"/>

    <!-- Cartridge slot chamfered sides -->
    <line x1="101.85" y1="696" x2="108.6" y2="728" class="outline"/>
    <line x1="315.15" y1="696" x2="308.4" y2="728" class="outline"/>
    <line x1="101.85" y1="696" x2="315.15" y2="696" class="outline"/>
    <line x1="108.6" y1="728" x2="308.4" y2="728" class="outline"/>

    <!-- Dock recess hidden extents -->
    <line x1="100.5" y1="696" x2="100.5" y2="728" class="hidden"/>
    <line x1="168" y1="696" x2="168" y2="728" class="hidden"/>
    <line x1="238.2" y1="696" x2="238.2" y2="728" class="hidden"/>
    <line x1="305.7" y1="696" x2="305.7" y2="728" class="hidden"/>

    <!-- Dock boss projections on back face -->
    <rect x="100.5" y="728" width="67.5" height="40" rx="4" ry="4" class="outline"/>
    <rect x="238.2" y="728" width="67.5" height="40" rx="4" ry="4" class="outline"/>

    <!-- Cable exit holes -->
    <line x1="128.85" y1="696" x2="128.85" y2="768" class="hidden-thin"/>
    <line x1="139.65" y1="696" x2="139.65" y2="768" class="hidden-thin"/>
    <line x1="266.55" y1="696" x2="266.55" y2="768" class="hidden-thin"/>
    <line x1="277.35" y1="696" x2="277.35" y2="768" class="hidden-thin"/>

    <!-- LED window hidden -->
    <line x1="204.45" y1="696" x2="204.45" y2="728" class="hidden-thin"/>
    <line x1="212.55" y1="696" x2="212.55" y2="728" class="hidden-thin"/>

    <!-- Centerline -->
    <line x1="208.5" y1="690" x2="208.5" y2="774" class="center"/>

    <!-- Dimensions -->
    <line x1="60" y1="774" x2="60" y2="784" class="ext"/>
    <line x1="357" y1="774" x2="357" y2="784" class="ext"/>
    <line x1="60" y1="779" x2="357" y2="779" class="dim" marker-start="url(#arrow)" marker-end="url(#arrow)"/>
    <text x="208.5" y="793" class="dim-text">220</text>

    <!-- Base depth: 4mm -->
    <line x1="362" y1="696" x2="375" y2="696" class="ext"/>
    <line x1="362" y1="728" x2="375" y2="728" class="ext"/>
    <line x1="370" y1="696" x2="370" y2="728" class="dim" marker-start="url(#arrow)" marker-end="url(#arrow)"/>
    <text x="385" y="716" class="dim-text">4</text>

    <!-- Boss depth: 9mm -->
    <line x1="178" y1="696" x2="178" y2="768" class="dim" marker-start="url(#arrow)" marker-end="url(#arrow)"/>
    <text x="189" y="736" class="dim-sm">9</text>
  </g>

  <!-- ============================================================ -->
  <!-- DETAIL A: CHAMFER CROSS-SECTION                              -->
  <!-- Scale 5 px/mm. Placed at right side of drawing, y=690+      -->
  <!-- ============================================================ -->
  <g id="detail-chamfer">
    <text x="700" y="695" class="viewlbl">DETAIL A: CHAMFER SECTION</text>
    <text x="700" y="707" class="note" text-anchor="middle">Section through slot top edge | Scale 5:1</text>

    <!-- Detail callout circle on front view -->
    <circle cx="105" cy="493" r="15" class="detail-circ"/>
    <text x="120" y="485" class="note" style="font-weight:bold">A</text>

    <!-- Chamfer profile, origin shifted to y+175 vs original -->
    <!-- Panel material above chamfer -->
    <path d="M 630,765 L 630,730 L 650,730 L 650,790 Z" fill="#ddd" stroke="none"/>
    <line x1="630" y1="765" x2="630" y2="730" class="outline"/>
    <line x1="650" y1="790" x2="650" y2="730" class="outline"/>
    <line x1="630" y1="730" x2="650" y2="730" class="outline"/>
    <!-- Chamfer surface -->
    <line x1="630" y1="765" x2="650" y2="790" stroke="#000" stroke-width="2"/>

    <!-- Dashed slot opening below -->
    <line x1="630" y1="765" x2="630" y2="810" stroke="#999" stroke-width="0.4" stroke-dasharray="3,3"/>
    <line x1="650" y1="790" x2="650" y2="810" stroke="#999" stroke-width="0.4" stroke-dasharray="3,3"/>

    <!-- Reference line at Z=84 -->
    <line x1="620" y1="790" x2="660" y2="790" class="hidden-thin"/>

    <!-- Chamfer height dim: 5mm -->
    <line x1="625" y1="765" x2="617" y2="765" class="ext"/>
    <line x1="625" y1="790" x2="617" y2="790" class="ext"/>
    <line x1="620" y1="765" x2="620" y2="790" class="dim" marker-start="url(#arrow)" marker-end="url(#arrow)"/>
    <text x="610" y="780" class="dim-sm" text-anchor="end">5</text>

    <!-- Panel thickness: 4mm -->
    <line x1="630" y1="725" x2="630" y2="720" class="ext"/>
    <line x1="650" y1="725" x2="650" y2="720" class="ext"/>
    <line x1="630" y1="722" x2="650" y2="722" class="dim" marker-start="url(#arrow)" marker-end="url(#arrow)"/>
    <text x="640" y="718" class="dim-text">4</text>

    <!-- Labels -->
    <text x="663" y="750" class="dim-sm" text-anchor="start">PANEL</text>
    <text x="663" y="805" class="dim-sm" text-anchor="start">SLOT</text>
    <text x="622" y="741" class="dim-sm" text-anchor="end">EXT</text>
    <text x="657" y="741" class="dim-sm" text-anchor="start">INT</text>
    <text x="663" y="780" class="dim-sm" text-anchor="start">45&#xB0;</text>
  </g>

  <!-- ============================================================ -->
  <!-- DETAIL B: DOCK RECESS CROSS-SECTION WITH MODULE PHANTOM      -->
  <!-- Scale 4 px/mm. Placed right of main views.                  -->
  <!-- ============================================================ -->
  <g id="detail-recess">
    <text x="870" y="88" class="viewlbl">DETAIL B: DOCK RECESS SECTION</text>
    <text x="870" y="100" class="note" text-anchor="middle">Section through dock center | Scale 4:1 | Y horiz, Z vert</text>

    <!-- Detail callout circle on side view -->
    <circle cx="520" cy="238" r="15" class="detail-circ"/>
    <text x="535" y="230" class="note" style="font-weight:bold">B</text>

    <!-- RP2040 dock -->
    <text x="830" y="118" class="label">RP2040 DOCK</text>

    <!-- Panel cross-section: 9mm total, 5mm recess from front -->
    <!-- Front face x=770, back x=806. Recess floor x=790. -->
    <!-- Center y=220, recess y=140..300 -->
    <path d="M 770,115 L 806,115 L 806,310 L 770,310 L 770,300 L 790,300 L 790,140 L 770,140 Z"
          fill="#ddd" stroke="none"/>
    <path d="M 770,115 L 806,115 L 806,310 L 770,310 L 770,300 L 790,300 L 790,140 L 770,140 Z"
          class="outline"/>

    <text x="778" y="220" class="note" transform="rotate(-90,778,220)" text-anchor="middle">RECESS</text>

    <!-- RP2040 phantom: 33mm dia, 9.8mm thick -->
    <!-- Module back at recess floor x=790, front at x=750.8 (protrudes 4.8mm) -->
    <rect x="750.8" y="154" width="39.2" height="132" rx="8" ry="8" class="phantom"/>

    <!-- RP2040 display visible area: 25mm dia section -->
    <rect x="750.8" y="170" width="10" height="100" class="phantom-thin"/>

    <!-- RP2040 label -->
    <text x="740" y="220" class="phant-label" transform="rotate(-90,740,220)">RP2040 (33x9.8mm)</text>

    <!-- Protrusion dimension: 4.8mm -->
    <line x1="750.8" y1="145" x2="750.8" y2="135" class="ext"/>
    <line x1="770" y1="145" x2="770" y2="135" class="ext"/>
    <line x1="750.8" y1="139" x2="770" y2="139" class="dim" marker-start="url(#arrow)" marker-end="url(#arrow)"/>
    <text x="760" y="133" class="dim-sm">4.8</text>

    <!-- Recess depth: 5mm -->
    <line x1="770" y1="306" x2="770" y2="320" class="ext"/>
    <line x1="790" y1="306" x2="790" y2="320" class="ext"/>
    <line x1="770" y1="316" x2="790" y2="316" class="dim" marker-start="url(#arrow)" marker-end="url(#arrow)"/>
    <text x="780" y="330" class="dim-sm">5</text>

    <!-- Total depth: 9mm -->
    <line x1="770" y1="335" x2="770" y2="345" class="ext"/>
    <line x1="806" y1="335" x2="806" y2="345" class="ext"/>
    <line x1="770" y1="341" x2="806" y2="341" class="dim" marker-start="url(#arrow)" marker-end="url(#arrow)"/>
    <text x="788" y="354" class="dim-sm">9</text>

    <!-- Recess width: 50mm (section view) -->
    <line x1="806" y1="140" x2="818" y2="140" class="ext"/>
    <line x1="806" y1="300" x2="818" y2="300" class="ext"/>
    <line x1="814" y1="140" x2="814" y2="300" class="dim" marker-start="url(#arrow)" marker-end="url(#arrow)"/>
    <text x="830" y="223" class="dim-sm" transform="rotate(-90,830,223)">50 DIA (section)</text>

    <!-- S3 Dock -->
    <text x="1000" y="118" class="label">S3 DOCK</text>

    <path d="M 930,115 L 966,115 L 966,310 L 930,310 L 930,300 L 950,300 L 950,140 L 930,140 Z"
          fill="#ddd" stroke="none"/>
    <path d="M 930,115 L 966,115 L 966,310 L 930,310 L 930,300 L 950,300 L 950,140 L 930,140 Z"
          class="outline"/>

    <text x="938" y="220" class="note" transform="rotate(-90,938,220)" text-anchor="middle">RECESS</text>

    <!-- S3 phantom: 48x48mm, 33mm deep -->
    <!-- Back at recess floor x=950, front at x=818 (protrudes 28mm) -->
    <rect x="818" y="124" width="132" height="192" rx="4" ry="4" class="phantom"/>

    <!-- S3 display section -->
    <rect x="818" y="155" width="10" height="130" class="phantom-thin"/>

    <!-- S3 label (below phantom rect to avoid border crossing) -->
    <text x="882" y="340" class="phant-label">S3 (48x33mm)</text>

    <!-- S3 protrusion: 28mm -->
    <line x1="818" y1="122" x2="818" y2="112" class="ext"/>
    <line x1="930" y1="122" x2="930" y2="112" class="ext"/>
    <line x1="818" y1="116" x2="930" y2="116" class="dim" marker-start="url(#arrow)" marker-end="url(#arrow)"/>
    <text x="874" y="110" class="dim-sm">28 protrusion</text>

    <!-- S3 recess depth: 5mm -->
    <line x1="930" y1="306" x2="930" y2="320" class="ext"/>
    <line x1="950" y1="306" x2="950" y2="320" class="ext"/>
    <line x1="930" y1="316" x2="950" y2="316" class="dim" marker-start="url(#arrow)" marker-end="url(#arrow)"/>
    <text x="940" y="330" class="dim-sm">5</text>

    <!-- S3 depth note -->
    <text x="980" y="345" class="note">S3 protrudes 28mm past front;</text>
    <text x="980" y="357" class="note">needs puck shell or deeper recess.</text>
  </g>

  <!-- ============================================================ -->
  <!-- NOTES (below all views)                                      -->
  <!-- ============================================================ -->
  <g id="notes">
    <text x="350" y="840" class="viewlbl">NOTES</text>
    <line x1="60" y1="846" x2="1140" y2="846" stroke="#000" stroke-width="0.5"/>

    <text x="70" y="862" class="note">1. Both dock recesses are 50mm dia for uniform aesthetics (see open items).</text>
    <text x="70" y="875" class="note">2. RP2040 module: 33mm dia x 9.8mm thick CNC aluminum; 25mm visible display.</text>
    <text x="70" y="888" class="note">3. S3 module: 48x48mm x 33mm deep (includes rotary knob); 32.4mm display.</text>
    <text x="70" y="901" class="note">4. Blue dashed phantoms show display modules seated in recesses.</text>
    <text x="70" y="914" class="note">5. Panel thickens to 9mm behind dock areas (4mm base + 5mm recess boss).</text>
    <text x="70" y="927" class="note">6. Cartridge slot: 148x84mm (inner), 5mm 45-deg chamfer on top and sides. Outer lip: 158x94mm. Bottom at Z=0 (open).</text>
    <text x="70" y="940" class="note">7. Cable exit holes: 8mm dia, Y-axis, centered in each dock recess.</text>
    <text x="70" y="953" class="note">8. LED window: 6x6mm at X=110, Z=90 (panel center, near slot top).</text>

    <text x="650" y="862" class="note">OPEN ITEMS:</text>
    <text x="650" y="875" class="note">A. RP2040 dock oversized (50mm for 33mm module); consider 38-40mm or puck adapter.</text>
    <text x="650" y="888" class="note">B. S3 protrudes 28mm at 5mm recess; needs puck shell or deeper pocket.</text>
    <text x="650" y="901" class="note">C. S3 square form (48x48) in round 50mm recess needs rotational adapter.</text>
  </g>

  <!-- ============================================================ -->
  <!-- TITLE BLOCK (bottom)                                         -->
  <!-- ============================================================ -->
  <line x1="30" y1="1060" x2="1170" y2="1060" stroke="#000" stroke-width="1"/>
  <text x="600" y="1072" class="note" text-anchor="middle">Soda Flavor Injector | Front Panel | Rev 2 (display-module-aware) | 2026-03-26</text>

</svg>
